<svg width="273" height="80" viewBox="0 0 273 80" fill="none" xmlns="http://www.w3.org/2000/svg">
<path d="M37.4702 45C41.9166 40.8343 46.8807 37.2582 52.2402 34.36C62.949 28.6026 74.5238 24.6272 86.5102 22.59C86.9347 22.5645 87.34 22.4044 87.6673 22.1328C87.9946 21.8613 88.2268 21.4925 88.3302 21.08C90.0732 15.7216 93.4992 11.0688 98.0987 7.81364C102.698 4.55849 108.225 2.87481 113.859 3.013C119.492 3.15119 124.93 5.10386 129.364 8.58062C133.798 12.0574 136.992 16.8725 138.47 22.31C138.56 22.8286 138.81 23.3062 139.184 23.6756C139.559 24.0451 140.04 24.2879 140.56 24.37C146.822 26.0195 152.85 28.4555 158.5 31.62C158.969 31.8564 159.377 32.1988 159.69 32.62C159.24 32.52 158.78 32.44 158.33 32.31C147.321 29.0911 136.035 26.9083 124.62 25.79C124.222 25.7261 123.845 25.5685 123.52 25.33C123.033 24.9211 122.423 24.6863 121.788 24.6627C121.152 24.6392 120.526 24.8282 120.01 25.2C119.531 25.5484 119.175 26.041 118.995 26.6059C118.815 27.1708 118.82 27.7784 119.01 28.34C119.211 28.9539 119.622 29.4771 120.171 29.8175C120.72 30.1578 121.371 30.2933 122.01 30.2H122.76C122.12 32.94 118.38 34.96 114.6 34.63C110.39 34.26 107.76 30.9 107.44 25.33C106.13 25.33 104.8 25.23 103.44 25.33C99.5502 25.68 95.6702 26.12 91.7802 26.51C91.1702 26.57 90.7802 26.67 90.7802 27.43C90.2802 35.69 93.2702 42.28 100.12 47.04C100.345 47.1726 100.579 47.2895 100.82 47.39L101.67 46.27C102.857 44.747 104.501 43.6458 106.361 43.129C108.221 42.6122 110.198 42.7072 112 43.4C113.742 44.0881 115.226 45.3026 116.245 46.8742C117.264 48.4458 117.768 50.2961 117.685 52.1674C117.603 54.0386 116.938 55.8375 115.785 57.3132C114.631 58.7889 113.046 59.868 111.25 60.4C105.57 61.97 100.32 58.21 99.8202 52.14C99.8197 51.8152 99.7322 51.4965 99.5669 51.2169C99.4016 50.9373 99.1645 50.7071 98.8802 50.55C91.0935 45.6233 87.1335 38.5467 87.0002 29.32C87.0002 28.7 87.0002 28.08 87.0002 27.32C71.8685 30.0966 57.5066 36.0807 44.8802 44.87C53.8802 50.66 63.8102 53.74 73.7502 56.76C61.0582 55.0094 48.7757 51.0281 37.4702 45ZM134.76 22.88C132.84 14 123.34 6.83002 113.47 6.65002C104.07 6.49002 94.1202 13.4 92.1202 21.65C106.303 19.6869 120.715 20.106 134.76 22.89V22.88ZM104.27 49.25C105.68 49.7 107.01 50.06 108.27 50.57C108.59 50.6442 108.88 50.8139 109.101 51.0566C109.322 51.2992 109.465 51.6034 109.509 51.9287C109.554 52.2541 109.498 52.5852 109.35 52.8784C109.202 53.1715 108.968 53.4127 108.68 53.57C108.124 53.8477 107.495 53.9455 106.88 53.85C105.867 53.668 104.866 53.4276 103.88 53.13C104.073 54.2596 104.658 55.2849 105.533 56.0257C106.407 56.7665 107.514 57.1752 108.66 57.18C109.871 57.1973 111.05 56.7881 111.99 56.0239C112.929 55.2597 113.57 54.1892 113.8 53C114.089 51.7152 113.9 50.3692 113.269 49.2135C112.638 48.0578 111.607 47.1715 110.37 46.72C109.22 46.3283 107.966 46.369 106.843 46.8347C105.72 47.3003 104.806 48.1589 104.27 49.25Z" fill="#FAFAFA"/>
<path d="M196.76 60.2799H192.63C192.19 55.9899 191.74 51.7299 191.3 47.4599H190.82C190.61 47.9599 190.37 48.4599 190.19 48.9699C189.19 52.0299 188.19 55.0999 187.19 58.1699C187.109 58.5829 186.957 58.9788 186.74 59.3399C186.29 59.8799 185.74 60.6899 185.2 60.6899C184.66 60.6899 183.92 59.9299 183.71 59.3399C182.47 55.9899 181.38 52.5999 180.22 49.2299C180.07 48.7699 179.86 48.3199 179.67 47.8699H179.3C179.122 48.2648 178.985 48.677 178.89 49.0999C178.53 52.4399 178.21 55.7899 177.89 59.0999C177.84 59.4999 177.75 59.8999 177.67 60.3299H173.67C173.88 58.7399 174.08 57.2199 174.3 55.6999C174.78 52.5099 175.3 49.3199 175.75 46.1199C176.13 43.4999 177.43 42.4299 179.56 43.0199C180.043 43.1724 180.476 43.4498 180.817 43.8238C181.158 44.1979 181.393 44.6554 181.5 45.1499C182.5 48.0999 183.44 51.0399 184.43 53.9899C184.62 54.5799 184.86 55.1499 185.21 56.0999C185.6 55.1799 185.89 54.5999 186.09 53.9799C187.09 50.9799 187.98 48.0699 188.95 45.1199C189.03 44.7357 189.188 44.3721 189.415 44.0521C189.642 43.7321 189.933 43.4625 190.269 43.2605C190.606 43.0585 190.98 42.9284 191.369 42.8784C191.759 42.8284 192.154 42.8595 192.53 42.9699C193.109 43.1043 193.627 43.4263 194.003 43.8858C194.379 44.3453 194.593 44.9163 194.61 45.5099C195.27 50.3599 196 55.2499 196.76 60.2799Z" fill="#FAFAFA"/>
<path d="M210.7 56.84C210.761 57.8224 210.761 58.8077 210.7 59.79C210.7 60.08 210.11 60.44 209.7 60.53C208.325 60.8593 206.889 60.8446 205.52 60.4872C204.152 60.1298 202.892 59.4406 201.853 58.4807C200.814 57.5208 200.028 56.3197 199.563 54.9836C199.099 53.6474 198.971 52.2174 199.19 50.82C199.344 49.4768 199.795 48.1847 200.512 47.0385C201.229 45.8922 202.193 44.9207 203.334 44.195C204.474 43.4694 205.763 43.0079 207.105 42.8444C208.447 42.6809 209.809 42.8195 211.09 43.25C212.557 43.6214 213.874 44.4345 214.863 45.5792C215.852 46.724 216.466 48.1451 216.62 49.65C217.06 53.12 216.97 56.65 217.11 60.26H213.24C213.24 58.33 213.24 56.45 213.24 54.57C213.234 53.3533 213.157 52.1379 213.01 50.93C212.973 50.2529 212.792 49.5914 212.48 48.9896C212.167 48.3877 211.73 47.8592 211.197 47.4393C210.665 47.0193 210.049 46.7175 209.391 46.5538C208.733 46.3902 208.047 46.3684 207.38 46.49C205.999 46.7024 204.757 47.4521 203.925 48.5759C203.093 49.6997 202.739 51.1065 202.94 52.49C203.4 55.79 206.04 57.59 209.57 57.02C209.88 57 210.2 56.94 210.7 56.84Z" fill="#FAFAFA"/>
<path d="M159.51 43.3599V54.9399L159.88 55.1399C160.296 54.7598 160.671 54.3375 161 53.8799C162.75 50.7599 164.44 47.6199 166.19 44.5099C166.466 43.947 166.874 43.4596 167.38 43.0899C167.681 42.881 168.034 42.7588 168.4 42.7368C168.766 42.7147 169.131 42.7937 169.455 42.965C169.779 43.1364 170.05 43.3934 170.238 43.7082C170.425 44.023 170.523 44.3834 170.52 44.7499C170.65 46.2999 170.61 47.8599 170.62 49.4099C170.62 52.9799 170.62 56.5499 170.62 60.2299H166.84V58.9999C166.84 55.9299 166.84 52.8599 166.84 49.7899C166.761 49.3762 166.609 48.9799 166.39 48.6199C166.072 48.8474 165.789 49.1203 165.55 49.4299C163.84 52.4299 162.17 55.5299 160.48 58.5699C160.263 59.1237 159.92 59.6199 159.48 60.0199C158.858 60.4554 158.108 60.6701 157.35 60.6299C156.83 60.5399 156.35 59.7699 156 59.2099C155.817 58.8307 155.734 58.4105 155.76 57.9899C155.76 53.1599 155.76 48.3199 155.76 43.3999L159.51 43.3599Z" fill="#FAFAFA"/>
<path d="M235.53 60.2701H231.77V47.1301C227.87 46.3101 225.53 47.9701 225.28 51.7601C225.12 54.0601 225.18 56.3701 225.14 58.6801V60.3301H219.4V56.7301L221.59 56.5701V52.7601C221.59 46.6201 223.75 44.1001 229.83 43.3801C231.729 43.2698 233.632 43.2698 235.53 43.3801V60.2701Z" fill="#FAFAFA"/>
<path d="M135.92 60.27H132.28C132.28 59.84 132.22 59.39 132.22 58.95C132.22 56.35 132.22 53.74 132.22 51.13C132.22 48.03 131.12 46.97 128.03 46.94H125.43V60.22H121.69V43.22H123.89C126.15 43.27 128.44 43.15 130.68 43.42C134.054 43.82 135.797 45.72 135.91 49.12C136 52.81 135.92 56.47 135.92 60.27Z" fill="#FAFAFA"/>
<path d="M138.88 43.3201H152.78V46.8901H147.78V60.2601H144V47.0001H138.9L138.88 43.3201Z" fill="#FAFAFA"/>
<path d="M133.45 67.6101C134.02 67.7701 134.45 67.9201 134.96 68.0301C135.166 68.0898 135.384 68.0898 135.59 68.0301C137.37 67.3001 138.66 67.5401 139.59 68.8001C140.067 69.4918 140.314 70.3162 140.296 71.1563C140.278 71.9963 139.996 72.8094 139.49 73.4801C138.43 74.7501 137.09 74.9301 135.32 74.0601C135.25 74.0601 135.16 74.0601 134.96 74.0601V77.0001L133.43 77.0701L133.45 67.6101ZM134.89 71.0901C134.871 71.3509 134.905 71.6129 134.991 71.8601C135.076 72.1073 135.211 72.3346 135.386 72.5282C135.562 72.7218 135.775 72.8776 136.013 72.9863C136.251 73.0949 136.509 73.154 136.77 73.1601C137.305 73.1349 137.81 72.9072 138.184 72.5233C138.557 72.1394 138.77 71.6279 138.78 71.0925C138.79 70.5572 138.597 70.038 138.238 69.6402C137.88 69.2424 137.384 68.9957 136.85 68.9501C136.579 68.9549 136.311 69.0149 136.064 69.1264C135.816 69.238 135.594 69.3988 135.41 69.599C135.227 69.7992 135.086 70.0347 134.997 70.291C134.907 70.5474 134.871 70.8193 134.89 71.0901Z" fill="#FAFAFA"/>
<path d="M159.72 67.5401C161.14 68.2001 162.29 67.7501 163.49 67.5401C164.106 67.5087 164.716 67.6752 165.231 68.0153C165.745 68.3553 166.138 68.8511 166.35 69.4301C166.661 70.1238 166.762 70.8935 166.639 71.6438C166.516 72.394 166.176 73.0917 165.66 73.6501C165.23 74.0856 164.68 74.3843 164.081 74.5088C163.481 74.6334 162.858 74.5781 162.29 74.3501C161.99 74.2301 161.7 74.0701 161.29 73.8501V76.9001H159.77V67.5401H159.72ZM165.06 71.1501C165.048 70.7718 164.926 70.4052 164.708 70.0956C164.491 69.7859 164.187 69.5466 163.835 69.4073C163.483 69.268 163.098 69.2346 162.728 69.3114C162.357 69.3881 162.017 69.5717 161.749 69.8393C161.482 70.1069 161.298 70.447 161.221 70.8177C161.145 71.1883 161.178 71.5733 161.317 71.9252C161.457 72.2772 161.696 72.5806 162.006 72.7983C162.315 73.0159 162.682 73.1382 163.06 73.1501C163.325 73.1585 163.589 73.1124 163.835 73.0149C164.082 72.9173 164.306 72.7703 164.493 72.5829C164.68 72.3955 164.827 72.1717 164.925 71.9252C165.023 71.6788 165.069 71.415 165.06 71.1501Z" fill="#FAFAFA"/>
<path d="M109.17 72.92V75.47C108.17 75.94 107.67 75.66 107.67 74.47H101.67V67.82H103.08V72.82C103.72 72.82 104.25 72.88 104.78 72.93C105.59 73 105.91 72.66 105.88 71.84C105.83 70.51 105.88 69.17 105.88 67.77H107.41C107.41 68.86 107.41 69.94 107.41 71.02C107.41 72.1 107.24 73.4 109.17 72.92Z" fill="#FAFAFA"/>
<path d="M116.9 71.46H111.68C111.98 73.03 113.06 73.54 114.52 73.06C115.225 72.9182 115.942 72.8479 116.66 72.85C116.143 73.6357 115.354 74.2029 114.444 74.4428C113.534 74.6827 112.568 74.5784 111.73 74.15C110.985 73.7045 110.428 73.0036 110.161 72.1776C109.894 71.3517 109.937 70.457 110.28 69.66C110.605 68.8839 111.202 68.2528 111.958 67.8847C112.715 67.5166 113.579 67.4367 114.39 67.66C114.805 67.7434 115.2 67.9081 115.551 68.1446C115.902 68.381 116.203 68.6846 116.436 69.0378C116.669 69.391 116.83 69.7868 116.91 70.2025C116.99 70.6182 116.986 71.0456 116.9 71.46ZM111.68 70.19H115.3L115.48 69.8C114.934 69.4228 114.339 69.1233 113.71 68.91C113.272 68.8168 112.814 68.8984 112.435 69.1374C112.056 69.3765 111.785 69.7542 111.68 70.19Z" fill="#FAFAFA"/>
<path d="M151.1 71.11C151.073 70.1807 151.416 69.2786 152.053 68.6018C152.691 67.925 153.571 67.5287 154.5 67.5C155.454 67.4998 156.371 67.8733 157.053 68.5406C157.735 69.2079 158.129 70.1159 158.15 71.07C158.14 72.0019 157.762 72.8921 157.099 73.5473C156.436 74.2026 155.542 74.5701 154.61 74.57C154.149 74.5879 153.688 74.511 153.258 74.3441C152.827 74.1772 152.435 73.9239 152.106 73.5996C151.777 73.2754 151.518 72.8872 151.345 72.459C151.172 72.0308 151.089 71.5717 151.1 71.11ZM156.49 71.05C156.504 70.5295 156.314 70.0242 155.961 69.6413C155.608 69.2585 155.12 69.0285 154.6 69C154.323 68.9991 154.05 69.0556 153.796 69.166C153.542 69.2764 153.314 69.4382 153.126 69.6412C152.938 69.8442 152.794 70.084 152.704 70.3454C152.613 70.6068 152.578 70.8842 152.6 71.16C152.587 71.4261 152.63 71.6918 152.726 71.9403C152.822 72.1888 152.969 72.4145 153.157 72.6028C153.346 72.7911 153.571 72.938 153.82 73.034C154.068 73.1299 154.334 73.1729 154.6 73.16C154.868 73.1634 155.134 73.1094 155.38 73.0015C155.626 72.8936 155.846 72.7344 156.025 72.5345C156.204 72.3346 156.338 72.0987 156.418 71.8427C156.498 71.5866 156.523 71.3163 156.49 71.05Z" fill="#FAFAFA"/>
<path d="M124.45 74.42H122.94V71.64H120.31L120.17 74.38L118.72 74.47V67.78H120.05C120.22 68.61 120.13 69.62 120.59 70.04C121.05 70.46 122 70.12 122.86 70.12L122.96 67.79H124.45V74.42Z" fill="#FAFAFA"/>
<path d="M167.6 67.83C167.802 67.723 168.026 67.6665 168.255 67.6655C168.483 67.6645 168.708 67.719 168.911 67.8243C169.114 67.9295 169.288 68.0824 169.418 68.2698C169.549 68.4572 169.632 68.6735 169.66 68.9C169.97 69.9 170.45 70.83 170.97 72.08C171.54 70.86 172.04 69.9 172.41 68.9C172.78 67.9 173.32 67.43 174.52 67.84C173.31 70.5 172.04 73.14 170.9 75.84C170.48 76.84 169.96 77.25 168.9 76.9C168.9 76.9 168.9 76.8 168.9 76.78C170.5 74.57 169.7 72.48 168.63 70.38C168.23 69.58 168 68.73 167.6 67.83Z" fill="#FAFAFA"/>
<path d="M145.94 69.09L145.5 68.26C145.954 67.8095 146.559 67.5428 147.198 67.5114C147.836 67.48 148.464 67.6861 148.96 68.09C149.74 68.81 149.7 69.5 148.8 70.85C149.95 71.85 150.15 72.85 149.41 73.75C148.53 74.75 146.52 74.86 145.16 73.87C145.43 73.18 145.74 72.77 146.65 73.1C146.99 73.23 147.54 72.79 147.99 72.6C147.74 72.24 147.56 71.7 147.21 71.6C146.5 71.28 146.52 71.02 146.98 70.51C147.29 70.17 147.53 69.76 147.81 69.39L146.24 69.14C146.141 69.1182 146.041 69.1015 145.94 69.09Z" fill="#FAFAFA"/>
<path d="M129.78 69.27V74.38L128.22 74.47V69.27L125.92 69.09V67.78H132L132.09 69.08L129.78 69.27Z" fill="#FAFAFA"/>
</svg>
