<svg xmlns="http://www.w3.org/2000/svg" viewBox="0 0 255.11 279.74"><defs><style>.cls-1{fill:#fafafa;}</style></defs><g id="Layer_4" data-name="Layer 4"><path class="cls-1" d="M119.48,158.88c5.1-4.43,10.09-8.54,14.82-12.94s9.81-7.89,14.29-13.38c7.86,12.53,19,19.09,32.93,18.89a34.12,34.12,0,0,0,24.94-11c14.59-15.83,12.92-38.51-1.19-51.56-13.78-12.74-38.33-16.07-55.79,7.25-11-6.23-22.06-12.49-32.77-19.29,10.81-20.36,38.09-39.17,70.25-36,35.49,3.54,61.12,28.88,67,62,6.26,35.17-14.19,67.52-41.73,80.32C179.42,198.44,139.44,187.9,119.48,158.88Z"/><path class="cls-1" d="M135.16,31.34c-9.39,9.26-19.44,17.35-29.08,26-14.29-21.67-39.6-23-55.14-9.5s-17.19,35.24-3.84,51c12.41,14.61,38.27,20.79,58.63-4.29C116.67,100.4,127.3,107,138,113.39c-10.67,22-39.61,39.26-70,36.14C29.75,145.6,4.44,118.06.53,83.63-3.68,46.52,17.38,16,50.27,4.3,83.69-7.59,117.41,6.37,135.16,31.34Z"/><path class="cls-1" d="M224.56,278.83a3.78,3.78,0,0,1-2.64.85,5.39,5.39,0,0,1-3.45-.84c-.92-5-.22-10.43-.34-15.41,4.85-5.23,6-11.48,6.83-17.66A197.88,197.88,0,0,0,227.09,213a22.19,22.19,0,0,1,.45-3.14c7.54-.38,15.07-.19,23.29-.1.43,8.69.17,16.95.22,25.19s0,16.64.1,24.95c.27,1.55,2.07,1.71,2.66,3.13v15.72c-2.38,1.34-4.59,1-6.86.45-1.82-3.12,0-6.72-1.65-10.15H226.09C224,272,226,275.65,224.56,278.83Zm9.49-61.42c.64,14.84-.47,29.3-5.08,43.85,5,.52,9.35.81,13.56-.08,1-6.86.67-40.16-.34-44C239.85,216.49,237.44,216.56,234.05,217.41Z"/><path class="cls-1" d="M30.61,267.81V210.76c3.93-1.47,14.52-1.4,18.09-.09,3.9,1.43,5.14,4.69,5.44,8.24.34,4.13.13,8.31.07,12.47-.05,2.91-1.76,4.92-4.3,6.83,4.88,2.85,5.89,7.23,5.39,12.35-.26,2.64,0,5.32-.08,8-.14,3.44-1.08,6.57-4.18,8.64C44.6,268.91,36.19,269.22,30.61,267.81Zm16.23-8.72C48,248.63,47.66,246,44.53,242c-1.73-.18-3.66-.62-6.15.67-.11,6-.24,12.21,0,18.41C42,261.82,44.7,262.29,46.84,259.09Zm-8.3-25.18c5.22.93,7.26-.35,7.61-4.64a60,60,0,0,0,0-7c-.19-5.09-2.45-6.43-7.77-4.39A133.46,133.46,0,0,0,38.54,233.91Z"/><path class="cls-1" d="M126.22,239.34c0,6.49,0,13,0,19.49s-1.22,7.79-7.39,9.2a28.58,28.58,0,0,1-11.36,0c-4.08-.69-6.09-3.09-6.92-6.83a16,16,0,0,1-.35-3.46c0-12.66-.08-25.33,0-38,0-6.62,3.62-10,10.31-10.1,2.49,0,5-.09,7.49,0,5.14.22,8.05,3,8.17,8.13.16,7.16,0,14.33,0,21.5Zm-9.11-22c-3.31-.78-6.38-1.48-8.57,2v40c4.61,3,5.16,3.06,9.1.56C118.71,253.85,118.41,221.43,117.11,217.35Z"/><path class="cls-1" d="M215.74,210.47v57.46a9.47,9.47,0,0,1-7.28,0c-1-7.42.2-14.9-.65-22-1.33-1.36-2.58-1.24-4.36-.49-3.07,7-2.45,15.33-5.88,22.6-2.11,1-4.19.73-6.91.27,1.76-8.09,3.47-16,5.22-24-4.49-3.68-5.06-8.67-4.82-14,.15-3.48-.1-7,.06-10.47.29-6.74,3.71-10,10.35-10.08,4.15,0,8.31,0,12.46.11A7.78,7.78,0,0,1,215.74,210.47Zm-8,26.41V217.27c-2.41-.58-4.45-.92-7.22.58a31.76,31.76,0,0,0-.23,19.25C203.14,237.8,205.23,238,207.71,236.88Z"/><path class="cls-1" d="M175.09,217.52a13.54,13.54,0,0,0-7.89-.39c-1.49,1.67-1,3.59-1,5.36-.05,11.49,0,23,0,34.47,0,3.93-.6,7.67-4.41,10.39-2.11.07-4.32,1.84-6.89.76-1.18-2-.8-3.91-.35-6l3.57-3.21V210.05c8.28-.66,16.15-.32,23.89-.2,1.37,3.72,1.73,51.89.53,58.07-2.11,1.13-4.32.88-7.33,0-.21-8.34-.07-16.77-.09-25.19S175.09,225.88,175.09,217.52Z"/><path class="cls-1" d="M23.93,226a11,11,0,0,1-6.64.37c-1.53-1.87-.87-3.79-1.1-5.56-.31-2.24-1.43-3.73-3.77-3.94-2.17-.2-3.91,1.41-4,4.11-.19,4.32-.09,8.65-.09,13q0,10.23,0,20.47a25.34,25.34,0,0,0,.12,3.49A3.8,3.8,0,0,0,12,261.49a3.65,3.65,0,0,0,3.86-2.57,22.2,22.2,0,0,0,.79-3.44c2.25-1.21,4.48-.92,7-.28,1.43,4.8.25,8.74-3.26,11.88a22,22,0,0,1-15.94.08c-2.89-1.63-4.13-4.84-4.16-8.48-.08-13.32-.12-26.64,0-40,.06-5.18,3.73-8.73,8.82-9a51.89,51.89,0,0,1,6.48,0,9,9,0,0,1,8.53,7.72A28.13,28.13,0,0,1,23.93,226Z"/><path class="cls-1" d="M81.3,268V218.3c-2.48-2.43-5.16-.87-7.44-2.27-1.09-1.64-.56-3.55-.39-6.16,7.47-.32,14.66-.18,21.71-.06a6.54,6.54,0,0,1,.56,6c-1.72,1.65-4.1.28-6.5,2.26v49.63C86.45,269,84.36,268.78,81.3,268Z"/><path class="cls-1" d="M152.65,209.79c.24,1.58.43,2.38.47,3.19a4.57,4.57,0,0,1-.59,3c-1.51,1.22-3.41.63-5.19.75s-3.64-.23-6,.84v49.55c-2.67,2.29-5,1.3-7.08,1.4-1.37-3.64-1.78-51.17-.51-58.56C139.83,209.4,146,209.79,152.65,209.79Z"/><path class="cls-1" d="M68.73,267.93a9.14,9.14,0,0,1-6.48.32c-1.26-3.38-1.73-49.46-.6-57.68,2.05-1.43,4.33-.84,6.54-.54C69.42,213.46,69.87,260.08,68.73,267.93Z"/></g></svg>