<svg width="80" height="80" viewBox="0 0 80 80" fill="none" xmlns="http://www.w3.org/2000/svg">
<path d="M23.9983 17.2594C24.3267 16.9343 24.5843 16.5447 24.7547 16.1152C24.9252 15.6856 25.0047 15.2254 24.9884 14.7636C24.9721 14.3017 24.8603 13.8483 24.6601 13.4318C24.4598 13.0153 24.1754 12.6448 23.8248 12.3438C22.0606 10.8381 19.8192 10.0075 17.4998 10L16.9889 10.0141H16.9139C11.6248 10.3359 7.49983 14.9297 7.51076 20.4688C7.51076 23.4375 8.76076 25.0094 9.74826 26.2672C10.0254 26.6188 10.3727 26.9088 10.7682 27.1187C11.1637 27.3285 11.5986 27.4536 12.0451 27.4859C12.0858 27.4859 12.1545 27.4938 12.3576 27.4938C12.7593 27.4932 13.1567 27.4113 13.5259 27.2532C13.8951 27.095 14.2285 26.8638 14.5061 26.5734L23.9983 17.2594ZM63.092 10.0172L62.5811 10.0016H62.4998C60.1783 10.0076 57.9344 10.8383 56.1686 12.3453C55.8185 12.6464 55.5345 13.0167 55.3346 13.4329C55.1346 13.8491 55.023 14.3022 55.0067 14.7636C54.9904 15.2251 55.0698 15.6849 55.2399 16.1141C55.41 16.5434 55.6672 16.9328 55.9951 17.2578L65.4905 26.5781C65.7686 26.8695 66.103 27.1015 66.4733 27.2599C66.8437 27.4184 67.2423 27.5001 67.6451 27.5C67.8451 27.5 67.9139 27.5 67.9576 27.4922C68.4039 27.4597 68.8385 27.3345 69.2337 27.1246C69.6289 26.9148 69.976 26.6249 70.253 26.2734C71.2467 25.0156 72.4842 23.4484 72.4905 20.475C72.4998 14.9297 68.3748 10.3359 63.092 10.0172Z" fill="#02AB6B"/>
<path d="M40.0124 15C24.8561 15 12.5124 27.3359 12.5124 42.5C12.507 48.9293 14.7644 55.1555 18.8889 60.0875L13.2452 65.7328C13.0075 65.9637 12.8181 66.2396 12.688 66.5444C12.5579 66.8492 12.4897 67.1768 12.4874 67.5081C12.485 67.8395 12.5486 68.168 12.6743 68.4746C12.8001 68.7812 12.9856 69.0597 13.2199 69.294C13.4543 69.5283 13.7329 69.7136 14.0396 69.8392C14.3462 69.9649 14.6748 70.0283 15.0061 70.0258C15.3375 70.0233 15.6651 69.9549 15.9698 69.8247C16.2745 69.6945 16.5503 69.505 16.7811 69.2672L22.4249 63.6234C27.3595 67.7434 33.5839 70.0002 40.0124 70.0002C46.4408 70.0002 52.6652 67.7434 57.5999 63.6234L63.2452 69.2672C63.476 69.505 63.7518 69.6945 64.0565 69.8247C64.3612 69.9549 64.6888 70.0233 65.0201 70.0258C65.3515 70.0283 65.6801 69.9649 65.9867 69.8392C66.2934 69.7136 66.572 69.5283 66.8063 69.294C67.0407 69.0597 67.2262 68.7812 67.3519 68.4746C67.4777 68.168 67.5412 67.8395 67.5389 67.5081C67.5365 67.1768 67.4683 66.8492 67.3382 66.5444C67.2082 66.2396 67.0188 65.9637 66.7811 65.7328L61.1358 60.0875C65.2611 55.1559 67.5185 48.9295 67.5124 42.5C67.5124 27.3438 55.1764 15 40.0124 15ZM42.5124 42.5C42.5124 43.163 42.249 43.7989 41.7801 44.2678C41.3113 44.7366 40.6754 45 40.0124 45H27.5124C26.8493 45 26.2134 44.7366 25.7446 44.2678C25.2757 43.7989 25.0124 43.163 25.0124 42.5C25.0124 41.837 25.2757 41.2011 25.7446 40.7322C26.2134 40.2634 26.8493 40 27.5124 40H37.5124V25C37.5124 24.337 37.7757 23.7011 38.2446 23.2322C38.7134 22.7634 39.3493 22.5 40.0124 22.5C40.6754 22.5 41.3113 22.7634 41.7801 23.2322C42.249 23.7011 42.5124 24.337 42.5124 25V42.5Z" fill="#02AB6B"/>
</svg>
