<svg viewBox="0 0 60 60" fill="none" xmlns="http://www.w3.org/2000/svg">
<path d="M46.875 5.625H13.125C11.1365 5.62717 9.23015 6.41805 7.8241 7.8241C6.41805 9.23015 5.62717 11.1365 5.625 13.125V46.875C5.62717 48.8635 6.41805 50.7699 7.8241 52.1759C9.23015 53.582 11.1365 54.3728 13.125 54.375H46.875C48.8635 54.3728 50.7699 53.582 52.1759 52.1759C53.582 50.7699 54.3728 48.8635 54.375 46.875V13.125C54.3728 11.1365 53.582 9.23015 52.1759 7.8241C50.7699 6.41805 48.8635 5.62717 46.875 5.625ZM42.6855 21.8309L26.9355 40.5809C26.7628 40.7866 26.5478 40.9529 26.3052 41.0683C26.0626 41.1838 25.798 41.2457 25.5293 41.25H25.4977C25.2348 41.2499 24.975 41.1946 24.735 41.0876C24.4949 40.9806 24.2801 40.8243 24.1043 40.6289L17.3543 33.1289C17.1829 32.9471 17.0495 32.7328 16.9621 32.4987C16.8746 32.2646 16.8349 32.0154 16.8451 31.7658C16.8554 31.5161 16.9154 31.271 17.0218 31.0448C17.1281 30.8187 17.2786 30.6161 17.4643 30.4489C17.6501 30.2818 17.8673 30.1534 18.1034 30.0714C18.3395 29.9894 18.5895 29.9555 18.8389 29.9715C19.0883 29.9876 19.3319 30.0533 19.5555 30.1648C19.7792 30.2764 19.9782 30.4315 20.141 30.6211L25.4484 36.518L39.8145 19.4191C40.1367 19.0466 40.5926 18.8158 41.0836 18.7767C41.5747 18.7375 42.0614 18.8932 42.4386 19.21C42.8157 19.5269 43.0531 19.9794 43.0993 20.4698C43.1455 20.9602 42.9969 21.4491 42.6855 21.8309Z" fill="#02AB6B"/>
</svg>
