<svg viewBox="0 0 60 60" fill="none" xmlns="http://www.w3.org/2000/svg">
<path fill-rule="evenodd" clip-rule="evenodd" d="M46.875 5.625H13.125C11.1365 5.62717 9.23015 6.41805 7.8241 7.8241C6.41805 9.23015 5.62717 11.1365 5.625 13.125V46.875C5.62717 48.8635 6.41805 50.7699 7.8241 52.1759C9.23015 53.582 11.1365 54.3728 13.125 54.375H46.875C48.8635 54.3728 50.7699 53.582 52.1759 52.1759C53.582 50.7699 54.3728 48.8635 54.375 46.875V13.125C54.3728 11.1365 53.582 9.23015 52.1759 7.8241C50.7699 6.41805 48.8635 5.62717 46.875 5.625ZM17.2929 42.7071C16.9024 42.3166 16.9024 41.6834 17.2929 41.2929L28.5858 30L17.2929 18.7071C16.9024 18.3166 16.9024 17.6834 17.2929 17.2929C17.6834 16.9024 18.3166 16.9024 18.7071 17.2929L30 28.5858L41.2929 17.2929C41.6834 16.9024 42.3166 16.9024 42.7071 17.2929C43.0977 17.6834 43.0977 18.3166 42.7071 18.7071L31.4142 30L42.7071 41.2929C43.0976 41.6834 43.0976 42.3166 42.7071 42.7071C42.3166 43.0976 41.6834 43.0976 41.2929 42.7071L30 31.4142L18.7071 42.7071C18.3166 43.0976 17.6834 43.0976 17.2929 42.7071Z" fill="#190F19"/>
</svg>
