<svg viewBox="0 0 60 60" fill="none" xmlns="http://www.w3.org/2000/svg">
<path d="M54.8749 21.8025L54.8124 21.3825L54.7474 21.3975C54.3032 19.3201 53.2798 17.4109 51.7957 15.8909C50.3117 14.3708 48.4276 13.3021 46.3614 12.8082C44.2952 12.3144 42.1314 12.4156 40.1204 13.1003C38.1094 13.7849 36.3333 15.025 34.9977 16.677C33.6621 18.329 32.8215 20.3254 32.5732 22.4352C32.3249 24.545 32.6791 26.682 33.5947 28.5989C34.5104 30.5158 35.95 32.1343 37.7472 33.2671C39.5443 34.3999 41.6255 35.0007 43.7499 35C44.3074 35 44.8424 34.915 45.3749 34.8375C45.2024 35.4175 45.0249 36.0075 44.7399 36.5375C44.4549 37.3075 44.0099 37.975 43.5674 38.6475C43.1974 39.375 42.5449 39.8675 42.0649 40.49C41.5624 41.095 40.8774 41.4975 40.3349 42C39.8024 42.525 39.1049 42.7875 38.5499 43.1575C37.9699 43.49 37.4649 43.8575 36.9249 44.0325L35.5774 44.5875L34.3924 45.08L35.6024 49.9275L37.0949 49.5675C37.5724 49.4475 38.1549 49.3075 38.8174 49.14C39.4949 49.015 40.2174 48.6725 41.0224 48.36C41.8149 48.0025 42.7374 47.765 43.5924 47.1925C44.4524 46.6475 45.4449 46.1925 46.3199 45.4625C47.1674 44.71 48.1899 44.0575 48.9449 43.1025C49.7699 42.2075 50.5849 41.2675 51.2174 40.1975C51.9499 39.1775 52.4474 38.0575 52.9724 36.95C53.4474 35.8425 53.8299 34.71 54.1424 33.61C54.7349 31.405 54.9999 29.31 55.1024 27.5175C55.1874 25.7225 55.1374 24.23 55.0324 23.15C54.9973 22.699 54.9447 22.2495 54.8749 21.8025ZM27.3749 21.8025L27.3124 21.3825L27.2474 21.3975C26.8032 19.3201 25.7798 17.4109 24.2957 15.8909C22.8117 14.3708 20.9276 13.3021 18.8614 12.8082C16.7952 12.3144 14.6314 12.4156 12.6204 13.1003C10.6094 13.7849 8.8333 15.025 7.49768 16.677C6.16206 18.329 5.32148 20.3254 5.0732 22.4352C4.82492 24.545 5.17909 26.682 6.09472 28.5989C7.01036 30.5158 8.45005 32.1343 10.2472 33.2671C12.0443 34.3999 14.1255 35.0007 16.2499 35C16.8074 35 17.3424 34.915 17.8749 34.8375C17.7024 35.4175 17.5249 36.0075 17.2399 36.5375C16.9549 37.3075 16.5099 37.975 16.0674 38.6475C15.6974 39.375 15.0449 39.8675 14.5649 40.49C14.0624 41.095 13.3774 41.4975 12.8349 42C12.3024 42.525 11.6049 42.7875 11.0499 43.1575C10.4699 43.49 9.96488 43.8575 9.42488 44.0325L8.07738 44.5875C7.32488 44.895 6.89488 45.075 6.89488 45.075L8.10488 49.9225L9.59738 49.5625C10.0749 49.4425 10.6574 49.3025 11.3199 49.135C11.9974 49.01 12.7199 48.6675 13.5249 48.355C14.3174 47.9975 15.2399 47.76 16.0949 47.1875C16.9549 46.6425 17.9474 46.1875 18.8224 45.4575C19.6699 44.705 20.6924 44.0525 21.4474 43.0975C22.2724 42.2025 23.0874 41.2625 23.7199 40.1925C24.4524 39.1725 24.9499 38.0525 25.4749 36.945C25.9499 35.8375 26.3324 34.705 26.6449 33.605C27.2374 31.4 27.5024 29.305 27.6049 27.5125C27.6899 25.7175 27.6399 24.225 27.5349 23.145C27.4976 22.6957 27.4442 22.248 27.3749 21.8025Z" fill="#190F19"/>
</svg>
