<svg width="900" height="900" viewBox="0 0 900 900" fill="none" xmlns="http://www.w3.org/2000/svg">
<path d="M753.962 900L684.711 294.8L534.187 900H366.082L215.469 294.8L146.217 900H0L102.173 100H290.103L449.417 707.7L609.897 100H797.827L900 900H753.962Z" fill="#007347"/>
<path d="M605.713 867.613L298.246 866.289L366.873 467.826L533.145 465.178L605.713 867.613Z" fill="#FBF9FB"/>
<path d="M676.405 869.22C682.741 873.806 694.106 873.318 701.671 868.101C701.671 868.101 702.696 867.392 709.505 860.993C753.197 819.86 761.976 758.222 729.113 723.313C711.239 704.322 673.899 702.179 673.899 702.179C664.725 701.659 663.291 705.662 670.683 711.115C670.683 711.115 682.599 719.877 694.973 733.021C727.836 767.93 716.677 799.419 672.985 840.537L671.062 845.359C667.657 853.886 670.069 864.634 676.405 869.22Z" fill="#190F19"/>
<path d="M533.432 482.956C533.432 482.956 610.649 502.766 697.009 808.055C697.009 808.055 719.722 893.333 683.643 896.738H389.636C389.636 896.738 381.613 816.582 436.402 838.756H475.223C475.223 838.756 439.743 664.008 560.022 691.304" fill="#FBF9FB"/>
<path d="M683.8 900H386.704L386.404 897.068C386.215 895.24 382.164 852.168 402.545 836.896C411.245 830.387 422.846 829.915 437.032 835.509H471.329C469.958 827.503 467.089 808.166 467.089 785.723C467.105 746.433 475.695 718.128 492.639 701.58C508.559 686.025 531.477 681.502 560.731 688.152C562.48 688.546 563.568 690.296 563.174 692.029C562.78 693.763 561.03 694.866 559.296 694.472C532.328 688.357 511.428 692.297 497.179 706.213C459.618 742.903 478.202 837.164 478.391 838.11L479.179 842.003H435.755L435.172 841.766C422.972 836.833 413.31 836.928 406.438 842.081C391.716 853.098 392.126 883.862 392.646 893.491H683.453C688.229 893.002 691.901 890.827 694.675 886.84C708.924 866.384 693.998 809.458 693.84 808.891C669.535 722.951 630.241 605.506 581.19 534.381C551.857 491.844 532.753 486.139 532.564 486.076C530.846 485.603 529.822 483.822 530.279 482.104C530.736 480.387 532.485 479.346 534.204 479.788C537.435 480.623 614.227 503.554 700.097 807.157C700.759 809.663 715.954 867.629 700.003 890.544C696.094 896.154 690.688 899.322 683.926 899.968L683.8 900Z" fill="#190F19"/>
<path d="M339.512 691.305C459.791 664.008 424.311 838.756 424.311 838.756H463.133C517.921 816.582 509.898 896.738 509.898 896.738H215.908C179.829 893.334 202.542 808.055 202.542 808.055C288.885 502.766 366.118 482.956 366.118 482.956" fill="#FBF9FB"/>
<path d="M512.845 900L215.592 899.984C208.83 899.338 203.408 896.17 199.515 890.56C183.564 867.644 198.742 809.679 199.404 807.22C285.291 503.57 362.083 480.639 365.314 479.804C367.048 479.362 368.813 480.402 369.27 482.136C369.727 483.87 368.671 485.635 366.937 486.092C366.78 486.139 347.676 491.844 318.343 534.381C269.292 605.49 229.998 722.935 205.678 808.938C205.536 809.458 190.609 866.384 204.858 886.84C207.632 890.828 211.305 893.002 216.08 893.491H506.903C507.423 883.846 507.833 853.098 493.111 842.082C486.239 836.944 476.561 836.833 464.377 841.766L463.794 842.003H420.37L421.158 838.11C421.347 837.164 439.931 742.903 402.37 706.213C388.137 692.297 367.237 688.357 340.253 694.472C338.503 694.866 336.769 693.779 336.359 692.029C335.965 690.28 337.053 688.546 338.802 688.152C368.072 681.517 390.99 686.025 406.894 701.58C423.838 718.128 432.428 746.449 432.444 785.723C432.46 808.166 429.591 827.519 428.204 835.51H462.502C476.687 829.915 488.288 830.372 496.989 836.896C517.369 852.168 513.318 895.24 513.129 897.069L512.845 900Z" fill="#190F19"/>
<path d="M253.763 334.448C253.763 334.448 336.529 495.942 397.449 542.938C397.449 542.938 457.974 586.421 515.678 529.274C515.678 529.274 588.766 437.724 625.476 303.148C625.476 303.148 625.555 240.123 523.89 230.604C523.89 230.604 453.86 224.347 420.619 224.363C346.979 224.395 284.846 241.053 284.846 241.053C284.846 241.053 228.497 262.723 253.763 334.448Z" fill="#FBF9FB"/>
<path d="M449.463 562.418C444.01 562.418 438.919 561.914 434.332 561.157C411.414 557.327 395.968 546.39 395.321 545.917C369.598 526.075 337.444 484.736 299.647 422.972C271.59 377.142 250.722 336.512 250.517 336.118L250.328 335.661C224.163 261.431 282.955 237.854 283.554 237.633L283.916 237.507C284.547 237.334 347.358 220.723 420.635 220.691C420.682 220.691 420.714 220.691 420.761 220.691C453.829 220.691 523.544 226.885 524.238 226.948C553.98 229.737 593.984 239.162 615.767 268.255C629.039 285.969 629.165 302.47 629.165 303.164V303.652L629.039 304.125C592.55 437.897 519.304 530.661 518.579 531.575L518.296 531.89C494.038 555.877 469.26 562.418 449.463 562.418ZM257.137 332.998C260.636 339.79 341.132 494.854 399.687 540.054C399.735 540.086 414.504 550.503 435.814 553.986C464.075 558.604 490.019 549.463 512.952 526.847C516.404 522.434 586.403 432.066 621.804 302.738C621.678 300.185 620.464 286.584 609.588 272.274C593.559 251.187 563.8 238.043 523.544 234.261C522.866 234.197 453.278 228.098 420.603 228.035C350.368 228.067 289.906 243.527 285.981 244.552C282.151 246.096 234.046 267.073 257.137 332.998Z" fill="#190F19"/>
<path d="M303.228 241.4H204.448C191.397 241.4 170.197 243.118 157.32 245.214C157.32 245.214 123.652 250.699 140.313 298.42C165.737 371.248 224.859 420.719 224.859 420.719C234.868 429.087 243.301 425.274 243.616 412.224C243.616 412.224 245.902 318.026 303.228 241.4Z" fill="#FBF9FB"/>
<path d="M234.695 428.82C231.574 428.82 227.428 427.638 222.511 423.524C221.912 423.02 162.316 372.556 136.845 299.618C130.414 281.194 130.383 266.427 136.766 255.71C143.859 243.796 156.216 241.668 156.736 241.574C169.803 239.446 191.223 237.712 204.463 237.712H310.557L306.175 243.575C250.252 318.325 247.32 411.373 247.304 412.303C247.052 422.815 242.245 426.534 239.407 427.827C238.273 428.347 236.696 428.82 234.695 428.82ZM204.448 245.056C191.539 245.056 170.654 246.743 157.903 248.823C157.524 248.886 148.288 250.588 142.992 259.572C137.838 268.334 138.09 280.99 143.764 297.207C168.558 368.253 226.625 417.409 227.208 417.898C230.802 420.908 234.222 422.121 236.365 421.16C238.509 420.199 239.849 416.826 239.959 412.13C239.975 411.2 242.781 320.626 296.04 245.041H204.448V245.056Z" fill="#190F19"/>
<path d="M539.418 229.091L635.298 205.325C647.954 202.189 668.965 198.753 681.968 197.682C681.968 197.682 715.967 194.892 711.286 245.246C704.13 322.045 658.641 384.297 658.641 384.297C650.949 394.825 641.823 393.154 638.387 380.578C638.387 380.578 613.515 289.689 539.418 229.091Z" fill="#190F19"/>
<path d="M648.207 394.888C647.467 394.888 646.805 394.809 646.253 394.714C643.179 394.147 637.631 391.688 634.841 381.539C634.589 380.641 609.37 291.029 537.102 231.928L531.443 227.295L634.416 201.779C647.277 198.595 668.461 195.128 681.67 194.041C682.19 193.993 694.705 193.095 704.446 202.961C713.209 211.818 716.74 226.16 714.927 245.592C707.772 322.501 662.062 385.826 661.589 386.456C656.53 393.406 651.533 394.888 648.207 394.888ZM547.284 230.919C617.156 291.47 641.666 378.702 641.918 379.6C643.148 384.124 645.276 387.071 647.577 387.496C649.878 387.906 652.92 385.92 655.679 382.138C656.12 381.523 700.663 319.759 707.63 244.914C709.222 227.736 706.4 215.364 699.229 208.115C691.852 200.66 682.348 201.353 682.253 201.353C669.376 202.409 648.712 205.798 636.165 208.903L547.284 230.919Z" fill="#190F19"/>
<path d="M400.101 429.67C400.101 429.67 421.269 473.027 432.981 481.033C432.981 481.033 444.392 491.371 455.567 478.133C455.567 478.133 472.559 452.16 477.271 421.381C477.271 421.381 478.485 410.664 457.821 410.648C437.41 410.632 412.459 410.049 412.459 410.049C412.459 410.049 394.711 410.679 400.101 429.67Z" fill="#190F19"/>
<path d="M342.175 350.649C348.095 350.649 352.893 345.851 352.893 339.932C352.893 334.013 348.095 329.215 342.175 329.215C336.256 329.215 331.457 334.013 331.457 339.932C331.457 345.851 336.256 350.649 342.175 350.649Z" fill="#190F19"/>
<path d="M530.136 350.649C536.055 350.649 540.854 345.851 540.854 339.932C540.854 334.013 536.055 329.215 530.136 329.215C524.217 329.215 519.418 334.013 519.418 339.932C519.418 345.851 524.217 350.649 530.136 350.649Z" fill="#190F19"/>
<path d="M268.473 347.576C246.343 347.576 239.582 364.455 253.436 385.085L312.338 472.806C326.193 493.436 348.78 493.373 362.54 472.648L420.607 385.227C434.367 364.518 427.526 347.56 405.397 347.56H268.473V347.576Z" fill="#007347"/>
<path d="M337.384 491.387C326.823 491.387 316.988 485.414 309.706 474.571L250.804 386.85C242.986 375.203 241 363.809 245.366 355.613C249.212 348.411 257.408 344.439 268.457 344.439H405.396C416.43 344.439 424.642 348.411 428.519 355.629C432.932 363.856 431.01 375.282 423.223 386.992L365.156 474.397C357.89 485.335 348.055 491.355 337.447 491.387C337.431 491.387 337.415 491.387 337.384 491.387ZM268.473 350.728C259.867 350.728 253.641 353.517 250.946 358.561C247.699 364.644 249.559 373.659 256.053 383.32L314.955 471.041C321.023 480.087 328.999 485.067 337.4 485.067C337.415 485.067 337.431 485.067 337.447 485.067C345.88 485.051 353.855 480.008 359.908 470.899L417.974 383.493C424.421 373.785 426.234 364.707 422.955 358.592C420.228 353.517 413.987 350.712 405.396 350.712H268.473V350.728Z" fill="#190F19"/>
<path d="M268.473 347.576C246.343 347.576 239.582 364.455 253.436 385.085L312.338 472.806C326.193 493.436 348.78 493.373 362.54 472.648L420.607 385.227C434.367 364.518 427.526 347.56 405.397 347.56H268.473V347.576Z" fill="#02AB6B"/>
<path d="M337.384 491.387C326.823 491.387 316.988 485.414 309.706 474.571L250.804 386.85C242.986 375.203 241 363.809 245.366 355.613C249.212 348.411 257.408 344.439 268.457 344.439H405.396C416.43 344.439 424.642 348.411 428.519 355.629C432.932 363.856 431.01 375.282 423.223 386.992L365.156 474.397C357.89 485.335 348.055 491.355 337.447 491.387C337.431 491.387 337.415 491.387 337.384 491.387ZM268.473 350.728C259.867 350.728 253.641 353.517 250.946 358.561C247.699 364.644 249.559 373.659 256.053 383.32L314.955 471.041C321.023 480.087 328.999 485.067 337.4 485.067C337.415 485.067 337.431 485.067 337.447 485.067C345.88 485.051 353.855 480.008 359.908 470.899L417.974 383.493C424.421 373.785 426.234 364.707 422.955 358.592C420.228 353.517 413.987 350.712 405.396 350.712H268.473V350.728Z" fill="#190F19"/>
<path d="M471.547 347.576C449.418 347.576 442.656 364.455 456.511 385.085L515.413 472.806C529.267 493.436 551.854 493.373 565.614 472.648L623.681 385.227C637.441 364.518 630.601 347.56 608.471 347.56H471.547V347.576Z" fill="#007347"/>
<path d="M540.474 491.387C529.913 491.387 520.078 485.414 512.796 474.571L453.894 386.85C446.076 375.203 444.09 363.809 448.456 355.613C452.302 348.411 460.498 344.439 471.547 344.439H608.486C619.52 344.439 627.732 348.411 631.609 355.629C636.022 363.856 634.099 375.282 626.313 386.992L568.246 474.397C560.98 485.335 551.145 491.355 540.537 491.387C540.521 491.387 540.49 491.387 540.474 491.387ZM471.547 350.728C462.941 350.728 456.715 353.517 454.02 358.56C450.773 364.644 452.633 373.659 459.127 383.32L518.029 471.04C524.113 480.087 532.073 485.067 540.474 485.067C540.49 485.067 540.505 485.067 540.521 485.067C548.954 485.051 556.929 480.008 562.982 470.899L621.049 383.493C627.495 373.785 629.308 364.707 626.029 358.592C623.302 353.517 617.061 350.712 608.471 350.712H471.547V350.728Z" fill="#190F19"/>
<path d="M471.547 347.576C449.418 347.576 442.656 364.455 456.511 385.085L515.413 472.806C529.267 493.436 551.854 493.373 565.614 472.648L623.681 385.227C637.441 364.518 630.601 347.56 608.471 347.56H471.547V347.576Z" fill="#02AB6B"/>
<path d="M540.474 491.387C529.913 491.387 520.078 485.414 512.796 474.571L453.894 386.85C446.076 375.203 444.09 363.809 448.456 355.613C452.302 348.411 460.498 344.439 471.547 344.439H608.486C619.52 344.439 627.732 348.411 631.609 355.629C636.022 363.856 634.099 375.282 626.313 386.992L568.246 474.397C560.98 485.335 551.145 491.355 540.537 491.387C540.521 491.387 540.49 491.387 540.474 491.387ZM471.547 350.728C462.941 350.728 456.715 353.517 454.02 358.56C450.773 364.644 452.633 373.659 459.127 383.32L518.029 471.04C524.113 480.087 532.073 485.067 540.474 485.067C540.49 485.067 540.505 485.067 540.521 485.067C548.954 485.051 556.929 480.008 562.982 470.899L621.049 383.493C627.495 373.785 629.308 364.707 626.029 358.592C623.302 353.517 617.061 350.712 608.471 350.712H471.547V350.728Z" fill="#190F19"/>
<path d="M405.599 351.233C404.574 351.233 403.565 350.808 402.84 349.988C401.501 348.459 401.658 346.158 403.187 344.818C414.236 335.157 428.375 330.381 443.017 331.359C454.776 332.147 465.73 336.56 474.73 344.125C476.275 345.433 476.48 347.734 475.172 349.295C473.863 350.839 471.562 351.044 470.002 349.736C462.215 343.179 452.711 339.349 442.529 338.672C429.84 337.821 417.578 341.966 408.01 350.351C407.317 350.934 406.45 351.233 405.599 351.233Z" fill="#190F19"/>
<path d="M401.883 490.914C401.883 490.914 458.626 490.914 472.811 519.283L401.883 490.914Z" fill="#FBF9FB"/>
<path d="M410.31 512.003C411.52 511.429 413.005 511.543 414.144 512.433C437.047 530.342 486.066 507.423 486.556 507.207C488.379 506.342 490.563 507.119 491.435 508.955C492.301 510.777 491.523 512.961 489.701 513.827C487.523 514.862 436.092 538.909 409.634 518.222C408.045 516.97 407.76 514.68 409.005 513.077C409.361 512.576 409.812 512.24 410.31 512.003Z" fill="#190F19"/>
<path d="M342.49 656.979C342.49 656.979 455.897 679.894 516.911 632.645C539.419 615.215 533.051 588.438 507.848 593.103C475.536 599.076 420.811 621.424 354.296 617.547" fill="#FBF9FB"/>
<path d="M405.159 666.199C370.025 666.199 342.915 660.809 341.764 660.572C339.778 660.178 338.502 658.24 338.896 656.254C339.29 654.268 341.228 652.992 343.214 653.386C344.333 653.606 455.707 675.402 514.656 629.745C526.478 620.589 528.795 609.541 525.942 603.158C523.388 597.469 517.052 595.12 508.509 596.696C500.234 598.225 490.478 600.841 479.192 603.883C447.4 612.425 403.866 624.103 354.09 621.188C352.073 621.077 350.528 619.344 350.638 617.311C350.764 615.293 352.482 613.765 354.516 613.875C403.125 616.712 445.998 605.207 477.301 596.807C488.744 593.733 498.642 591.086 507.185 589.494C519.133 587.288 528.653 591.275 532.641 600.164C536.77 609.383 534.201 623.883 519.164 635.529C501.322 649.351 467.355 665.883 406.845 666.183C406.278 666.199 405.726 666.199 405.159 666.199Z" fill="#190F19"/>
<path d="M565.267 660.935C565.267 660.935 451.861 683.85 390.846 636.601C368.338 619.17 374.706 592.394 399.909 597.059C432.221 603.032 486.947 625.38 553.462 621.503" fill="#FBF9FB"/>
<path d="M502.597 670.154C502.045 670.154 501.478 670.154 500.926 670.154C467.527 669.997 420.935 664.544 388.607 639.501C373.57 627.854 371.001 613.339 375.13 604.135C379.118 595.246 388.623 591.243 400.586 593.466C409.145 595.042 419.027 597.705 430.47 600.778C461.774 609.178 504.662 620.683 553.256 617.846C555.226 617.72 557.007 619.265 557.133 621.282C557.259 623.299 555.714 625.033 553.697 625.159C503.905 628.075 460.371 616.381 428.595 607.855C417.294 604.829 407.537 602.197 399.278 600.668C390.735 599.092 384.398 601.44 381.845 607.13C378.992 613.512 381.293 624.56 393.131 633.717C452.096 679.39 563.469 657.578 564.588 657.357C566.574 656.963 568.497 658.24 568.907 660.225C569.301 662.211 568.024 664.134 566.038 664.544C564.841 664.749 537.73 670.154 502.597 670.154Z" fill="#190F19"/>
</svg>
