<svg width="500" height="410" viewBox="0 0 500 410" fill="none" xmlns="http://www.w3.org/2000/svg">
<path d="M421.547 355.431C421.547 355.431 414.312 377.179 408.514 388.781C402.726 400.384 386.718 396.757 386.718 396.757C378.673 393.858 388.966 381.736 388.966 381.736C399.104 370.343 394.035 351.083 388.966 340.201C383.897 329.327 388.966 300.324 388.966 300.324L392.033 275.351L416.168 272.452L430.648 295.649L421.547 355.431Z" fill="#FBF9FB"/>
<path d="M392.324 399.309C388.911 399.309 386.408 398.753 386.272 398.725L386.035 398.653C383.25 397.65 382.231 395.782 381.858 394.387C380.402 388.918 386.709 381.28 387.437 380.423C396.192 370.58 392.743 353.062 387.146 341.049C381.931 329.856 386.663 301.819 386.982 300.024L390.231 273.537L417.197 270.301L432.75 295.22L423.458 356.069C423.158 356.963 416.104 378.09 410.316 389.684C407.632 395.061 402.572 398.324 395.673 399.117C394.499 399.254 393.371 399.309 392.324 399.309ZM387.273 394.815C388.656 395.089 401.944 397.431 406.712 387.879C412.118 377.06 418.908 356.963 419.581 354.948L428.536 296.077L415.131 274.594L393.826 277.155L390.941 300.662C390.895 300.944 386.044 329.163 390.786 339.344C392.652 343.355 395.91 351.457 396.665 360.599C397.448 369.996 395.364 377.561 390.458 383.067C388.119 385.828 385.071 390.887 385.735 393.348C385.862 393.813 386.154 394.378 387.273 394.815Z" fill="#190F19"/>
<path d="M254.31 188.434C254.31 188.434 311.5 189.391 386.072 188.434C460.644 187.468 470.773 261.178 461.363 269.153C451.953 277.128 443.989 330.056 448.33 356.881C452.672 383.705 443.989 404.732 431.676 404.012C419.372 403.283 421.538 396.766 421.538 396.766C421.538 396.766 436.745 367.763 421.538 355.44C406.33 343.118 402.717 290.909 402.717 290.909C378.837 303.952 269.518 298.875 269.518 298.875C231.867 292.349 173.959 330.776 157.304 344.558C140.65 358.339 135.59 344.558 135.59 344.558C131.249 314.835 196.019 288.002 196.019 288.002C206.54 280.364 207.304 267.521 204.665 255.217C204.665 255.217 212.155 189.482 254.31 188.434Z" fill="#FBF9FB"/>
<path d="M432.304 406.036C432.058 406.036 431.813 406.027 431.567 406.017C426.024 405.689 422.311 404.176 420.509 401.515C418.771 398.945 419.545 396.402 419.636 396.119L419.763 395.818C419.909 395.545 434.015 368.128 420.282 356.99C413.602 351.567 408.278 338.761 404.456 318.919C402.435 308.428 401.389 298.639 400.961 293.945C372.53 305.52 273.749 301.091 269.417 300.89L269.172 300.863C253.527 298.156 231.822 303.351 206.422 315.911C184.179 326.912 165.877 340.064 158.579 346.107C152.008 351.54 146.211 353.627 141.342 352.314C135.799 350.82 133.779 345.479 133.697 345.251L133.597 344.85C129.165 314.525 190.095 288.303 195.018 286.234C203.173 280.191 205.748 269.901 202.699 255.636L202.627 255.317L202.663 254.989C202.745 254.306 204.656 238.072 211.827 221.42C221.511 198.971 236.181 186.876 254.256 186.42H254.301H254.347C254.92 186.429 312.364 187.368 386.045 186.42C386.545 186.411 387.037 186.411 387.528 186.411C438.174 186.411 456.321 220.299 461.8 234.974C467.497 250.24 467.879 266.264 462.664 270.684C458.715 274.029 454.401 287.984 451.68 306.24C448.867 325.089 448.349 344.367 450.324 356.553C453.318 375.055 450.324 392.482 442.679 400.95C439.676 404.295 436.099 406.036 432.304 406.036ZM423.44 397.477C423.394 397.732 423.322 398.525 423.877 399.309C424.486 400.175 426.334 401.67 431.803 401.989C434.652 402.153 437.309 400.895 439.694 398.252C446.547 390.65 449.159 374.536 446.347 357.191C442.224 331.752 449.35 276.682 460.062 267.604C462.61 265.444 464.166 252.811 458.032 236.377C452.854 222.487 435.653 190.431 387.51 190.431C387.046 190.431 386.572 190.431 386.099 190.44C313.211 191.379 256.185 190.467 254.319 190.44C237.728 190.868 224.687 201.806 215.55 222.933C209.125 237.799 206.995 252.783 206.695 255.126C210.026 271.022 206.822 282.634 197.193 289.624L197.002 289.761L196.784 289.852C196.156 290.117 133.87 316.266 137.537 344.011C137.856 344.722 139.33 347.611 142.434 348.423C145.91 349.343 150.615 347.466 156.021 342.99C169.909 331.506 229.838 290.053 269.727 296.861C273.95 297.053 378.982 301.565 401.753 289.123L404.501 287.619L404.719 290.746C404.729 290.873 405.648 303.88 408.405 318.18C411.982 336.783 416.96 349.115 422.803 353.846C438.574 366.643 424.941 394.533 423.44 397.477Z" fill="#190F19"/>
<path d="M260.826 300.325C260.826 300.325 268.789 361.957 260.826 375.009C260.826 375.009 239.831 399.701 251.416 404.03C263.001 408.36 278.928 395.308 281.822 385.163C284.716 375.009 291.96 300.334 291.96 300.334" fill="#FBF9FB"/>
<path d="M256.339 406.901C254.365 406.901 252.481 406.573 250.715 405.917C248.349 405.033 246.784 403.356 246.192 401.068C243.935 392.346 257.168 376.231 259.188 373.834C265.304 363.379 261.017 317.469 258.833 300.589C258.687 299.486 259.47 298.475 260.571 298.338C261.663 298.201 262.683 298.976 262.819 300.079C263.147 302.622 270.782 362.568 262.537 376.067L262.355 376.322C256.895 382.748 248.731 394.879 250.078 400.066C250.342 401.077 250.97 401.724 252.117 402.153C256.767 403.894 261.782 402.217 265.167 400.503C272.066 397.021 278.254 390.34 279.883 384.616C282.695 374.754 289.876 300.89 289.949 300.143C290.058 299.04 291.05 298.219 292.142 298.338C293.243 298.447 294.053 299.432 293.944 300.535C293.644 303.588 286.654 375.511 283.742 385.728C281.794 392.537 274.905 400.093 266.969 404.103C263.283 405.954 259.679 406.901 256.339 406.901Z" fill="#190F19"/>
<path d="M448.494 215.368C448.494 215.368 504.801 146.617 475.123 57.4309C475.123 57.4309 470.691 45.8281 483.769 53.8033C496.847 61.7785 521.747 206.436 460.425 237.07L448.494 215.368Z" fill="#190F19"/>
<path d="M311.372 299.851L330.302 298.512C342.133 296.452 335.689 297.719 360.899 298.84L378.563 295.413C378.5 292.988 384.006 273.073 383.196 270.694C378.117 255.792 374.004 243.706 341.851 254.689C324.086 260.75 313.028 283.099 311.372 299.851Z" fill="#190F19"/>
<path d="M243.289 83.5438C243.289 83.5438 257.905 182.173 245.737 222.659C245.737 222.659 232.614 261.442 188.62 254.351C188.62 254.351 126.78 236.805 67.4428 188.389C67.4428 188.389 47.2845 160.252 89.6124 123.493C89.6124 123.493 118.862 98.3094 133.706 87.6909C166.578 64.1662 199.614 51.7431 199.614 51.7431C199.614 51.7431 231.667 43.4032 243.289 83.5438Z" fill="#FBF9FB"/>
<path d="M198.941 257.213C195.61 257.213 192.06 256.94 188.293 256.329L188.065 256.274C187.446 256.101 125.151 238.054 66.1687 189.929L65.9593 189.756L65.8046 189.537C65.5862 189.228 60.3805 181.817 60.6445 169.659C61.0813 149.698 75.9156 132.69 88.2928 121.944C88.5931 121.689 117.789 96.578 132.532 86.0233C165.24 62.6171 198.567 49.9569 198.904 49.8293L199.104 49.7656C199.441 49.6744 233.196 41.4257 245.218 82.9608L245.273 83.2251C245.309 83.4712 248.959 108.299 251.079 137.758C253.928 177.442 252.781 206.199 247.657 223.225C247.493 223.708 244.099 233.533 235.089 242.575C228.081 249.612 216.451 257.213 198.941 257.213ZM189.048 252.382C206.494 255.162 221.001 250.951 232.131 239.859C240.531 231.483 243.799 222.113 243.826 222.013C255.511 183.166 241.915 88.1379 241.314 83.9725C230.584 47.1406 202.435 53.1197 200.206 53.6666C198.131 54.4687 166.214 66.8827 134.862 89.3228C120.264 99.768 91.205 124.76 90.9138 125.015C52.2808 158.566 67.3245 184.506 68.9353 187.013C126.052 233.524 186.099 251.516 189.048 252.382Z" fill="#190F19"/>
<path d="M157.159 74.7943L184.671 28.0366C188.302 21.8569 195.027 12.2957 199.605 6.79053C199.605 6.79053 211.573 -7.6196 229.492 13.5809C256.831 45.9285 263.748 87.7279 263.748 87.7279C264.922 94.8008 260.763 97.7265 254.51 94.2448C254.51 94.2448 209.343 69.043 157.159 74.7943Z" fill="#FBF9FB"/>
<path d="M259.27 97.7355C257.75 97.7355 255.848 97.298 253.527 96.0037C253.081 95.7576 208.287 71.1848 157.368 76.7993L153.382 77.2368L182.932 27.0156C186.618 20.7539 193.398 11.1015 198.049 5.5052C198.231 5.27733 202.681 0.0273437 210.289 0C210.317 0 210.335 0 210.362 0C217.179 0 224.123 4.13802 231.021 12.2864C258.405 44.6887 265.659 86.9803 265.732 87.3996C266.678 93.0962 264.466 95.6027 263.065 96.5962C262.319 97.1339 261.063 97.7355 259.27 97.7355ZM172.757 71.9413C218.089 71.9413 255.074 92.2576 255.493 92.4855C257.741 93.7342 259.707 94.0441 260.762 93.3058C261.818 92.5675 262.191 90.6079 261.773 88.0649C261.7 87.6548 254.61 46.4205 227.963 14.8932C221.875 7.6927 215.959 4.02864 210.38 4.02864H210.371C204.656 4.02864 201.279 7.92968 201.143 8.09374C196.62 13.5442 190.004 22.9596 186.409 29.0664L160.899 72.4243C164.894 72.0962 168.862 71.9413 172.757 71.9413Z" fill="#190F19"/>
<path d="M82.1952 127.768L31.8313 147.801C25.1786 150.445 14.7126 155.622 8.56959 159.304C8.56959 159.304 -7.49335 168.929 10.6719 189.929C38.3839 221.967 78.5458 235.247 78.5458 235.247C85.3441 237.498 88.8753 233.834 86.3907 227.107C86.3907 227.107 68.4803 178.527 82.1952 127.768Z" fill="#190F19"/>
<path d="M82.2134 237.927C81.0121 237.927 79.5924 237.708 77.9179 237.161C77.5083 237.024 36.9004 223.334 9.15204 191.251C2.1444 183.148 -0.867971 175.61 0.215027 168.847C1.41634 161.328 7.28637 157.727 7.53209 157.582C13.7662 153.845 24.3231 148.622 31.085 145.933L85.1803 124.423L84.1337 128.306C70.7555 177.825 88.1017 225.941 88.2837 226.415C90.2859 231.838 88.584 234.709 87.4009 235.949C86.5727 236.796 84.9528 237.927 82.2134 237.927ZM79.2739 131.095L32.5685 149.67C25.9795 152.295 15.6773 157.39 9.59798 161.027C9.42506 161.136 5.04756 163.88 4.17388 169.54C3.31841 175.054 6.01225 181.471 12.1826 188.608C39.1847 219.834 78.7733 233.196 79.1738 233.333C81.6128 234.135 83.6059 234.071 84.4977 233.141C85.3896 232.212 85.3987 230.216 84.5069 227.8C84.3339 227.326 67.4246 180.505 79.2739 131.095Z" fill="#190F19"/>
<path d="M234.752 85.4761C244.627 78.4032 253.036 83.7808 253.436 97.4344L255.156 155.476C255.557 169.12 245.455 176.312 232.705 171.454L178.892 150.946C166.141 146.088 163.784 136.326 173.649 129.253L234.752 85.4761Z" fill="#7F85C0"/>
<path d="M240.422 174.708C237.783 174.708 234.98 174.161 232.095 173.067L178.282 152.56C171.074 149.816 166.569 145.323 165.905 140.237C165.331 135.77 167.725 131.368 172.648 127.841L233.751 84.0635C238.684 80.5362 243.607 79.6794 247.621 81.6755C252.19 83.945 254.938 89.669 255.175 97.3708L256.895 155.412C257.104 162.604 254.619 168.428 249.887 171.8C247.175 173.742 243.944 174.708 240.422 174.708ZM235.763 86.8891L174.66 130.666C170.819 133.419 168.926 136.664 169.336 139.799C169.827 143.582 173.531 147.054 179.51 149.333L233.324 169.841C238.939 171.983 244.108 171.682 247.876 168.993C251.634 166.313 253.609 161.528 253.436 155.531L251.716 97.4893C251.525 91.1 249.478 86.4698 246.092 84.7927C243.271 83.3891 239.603 84.1365 235.763 86.8891Z" fill="#190F19"/>
<path d="M234.752 85.4761C244.627 78.4032 253.036 83.7808 253.436 97.4344L255.156 155.476C255.557 169.12 245.455 176.312 232.705 171.454L178.892 150.946C166.141 146.088 163.784 136.326 173.649 129.253L234.752 85.4761Z" fill="#8585B9"/>
<path d="M240.422 174.708C237.783 174.708 234.98 174.161 232.095 173.067L178.282 152.56C171.074 149.816 166.569 145.323 165.905 140.237C165.331 135.77 167.725 131.368 172.648 127.841L233.751 84.0635C238.684 80.5362 243.607 79.6794 247.621 81.6755C252.19 83.945 254.938 89.669 255.175 97.3708L256.895 155.412C257.104 162.604 254.619 168.428 249.887 171.8C247.175 173.742 243.944 174.708 240.422 174.708ZM235.763 86.8891L174.66 130.666C170.819 133.419 168.926 136.664 169.336 139.799C169.827 143.582 173.531 147.054 179.51 149.333L233.324 169.841C238.939 171.983 244.108 171.682 247.876 168.993C251.634 166.313 253.609 161.528 253.436 155.531L251.716 97.4893C251.525 91.1 249.478 86.4698 246.092 84.7927C243.271 83.3891 239.603 84.1365 235.763 86.8891Z" fill="#190F19"/>
<path d="M144.135 150.399C154.01 143.327 162.419 148.704 162.819 162.358L164.539 220.399C164.94 234.044 154.838 241.235 142.088 236.377L88.2745 215.869C75.5243 211.011 73.1671 201.25 83.0324 194.177L144.135 150.399Z" fill="#7F85C0"/>
<path d="M149.805 239.631C147.166 239.631 144.363 239.084 141.478 237.99L87.6648 217.483C80.457 214.739 75.9521 210.246 75.2877 205.16C74.7144 200.694 77.1079 196.291 82.0314 192.764L143.134 148.987C148.067 145.459 152.991 144.612 157.004 146.599C161.573 148.868 164.321 154.592 164.549 162.294L166.269 220.326C166.478 227.518 163.993 233.342 159.261 236.714C156.558 238.656 153.327 239.631 149.805 239.631ZM145.146 151.803L84.0427 195.58C80.2022 198.333 78.3092 201.578 78.7187 204.713C79.2102 208.496 82.9142 211.968 88.8935 214.247L142.707 234.755C148.322 236.897 153.491 236.596 157.259 233.907C161.017 231.227 162.992 226.442 162.819 220.445L161.099 162.403C160.908 156.014 158.861 151.384 155.475 149.707C152.654 148.303 148.986 149.06 145.146 151.803Z" fill="#190F19"/>
<path d="M144.135 150.399C154.01 143.327 162.419 148.704 162.819 162.358L164.539 220.399C164.94 234.044 154.838 241.235 142.088 236.377L88.2745 215.869C75.5243 211.011 73.1671 201.25 83.0324 194.177L144.135 150.399Z" fill="#8585B9"/>
<path d="M149.805 239.631C147.166 239.631 144.363 239.084 141.478 237.99L87.6648 217.483C80.457 214.739 75.9521 210.246 75.2877 205.16C74.7144 200.694 77.1079 196.291 82.0314 192.764L143.134 148.987C148.067 145.459 152.991 144.612 157.004 146.599C161.573 148.868 164.321 154.592 164.549 162.294L166.269 220.326C166.478 227.518 163.993 233.342 159.261 236.714C156.558 238.656 153.327 239.631 149.805 239.631ZM145.146 151.803L84.0427 195.58C80.2022 198.333 78.3092 201.578 78.7187 204.713C79.2102 208.496 82.9142 211.968 88.8935 214.247L142.707 234.755C148.322 236.897 153.491 236.596 157.259 233.907C161.017 231.227 162.992 226.442 162.819 220.445L161.099 162.403C160.908 156.014 158.861 151.384 155.475 149.707C152.654 148.303 148.986 149.06 145.146 151.803Z" fill="#190F19"/>
<path d="M208.396 172.876C208.396 172.876 212.792 199.017 210.125 206.345C210.125 206.345 208.333 214.612 199.123 212.269C199.123 212.269 183.251 206.099 171.32 193.84C171.32 193.84 167.352 189.437 176.571 182.82C185.672 176.285 196.62 168.045 196.62 168.045C196.62 168.045 204.738 162.668 208.396 172.876Z" fill="#190F19"/>
<path d="M219.809 176.759C236.591 196.647 210.135 205.606 210.135 205.606C210.135 205.606 229.802 217.583 208.278 231.391" fill="#FBF9FB"/>
<path d="M208.278 233.416C207.614 233.416 206.968 233.087 206.585 232.486C205.985 231.547 206.258 230.307 207.195 229.706C213.311 225.778 216.387 221.767 216.341 217.793C216.269 211.869 209.161 207.375 209.097 207.339L205.411 205.097L209.498 203.711C209.607 203.675 220.855 199.755 223.021 191.926C224.159 187.806 222.566 183.149 218.28 178.072C217.561 177.224 217.67 175.948 218.517 175.237C219.363 174.517 220.637 174.627 221.347 175.474C226.543 181.636 228.409 187.533 226.889 193.02C224.987 199.865 218.253 204.103 214.112 206.117C216.778 208.46 220.3 212.543 220.355 217.757C220.419 223.216 216.724 228.384 209.352 233.106C209.024 233.315 208.651 233.416 208.278 233.416Z" fill="#190F19"/>
<path d="M191.514 143.965C194.761 143.965 197.394 141.329 197.394 138.077C197.394 134.825 194.761 132.188 191.514 132.188C188.267 132.188 185.635 134.825 185.635 138.077C185.635 141.329 188.267 143.965 191.514 143.965Z" fill="#190F19"/>
<path d="M118.853 215.04C122.1 215.04 124.732 212.404 124.732 209.152C124.732 205.9 122.1 203.264 118.853 203.264C115.606 203.264 112.974 205.9 112.974 209.152C112.974 212.404 115.606 215.04 118.853 215.04Z" fill="#190F19"/>
<path d="M143.571 152.378C143.407 152.378 143.243 152.359 143.071 152.314C141.997 152.04 141.341 150.947 141.624 149.862C143.216 143.609 146.702 138.131 151.698 134.021C157.923 128.908 165.768 126.52 173.777 127.303C174.878 127.413 175.688 128.397 175.579 129.5C175.47 130.603 174.496 131.414 173.385 131.305C166.442 130.621 159.643 132.69 154.256 137.12C149.924 140.684 146.911 145.423 145.528 150.846C145.282 151.776 144.463 152.378 143.571 152.378Z" fill="#190F19"/>
<path d="M157.614 378.592C149.878 373.105 140.468 370.608 131.212 368.52C111.527 364.091 91.5509 361.101 71.5928 358.102C70.5189 357.938 69.3358 357.802 68.4075 358.367C67.4702 358.941 67.0606 360.071 66.7148 361.119C63.393 371.355 60.4625 381.709 57.9507 392.173C57.5048 394.023 57.1225 396.147 58.2328 397.696C59.3522 399.264 61.5273 399.565 63.4476 399.683C76.1432 400.503 88.9026 399.601 101.589 400.594C123.668 402.317 145.482 409.746 167.506 407.385C162.901 397.942 159.47 387.934 157.313 377.653" fill="#FBF9FB"/>
<path d="M158.697 376.714C152.499 372.367 145.264 369.806 137.992 367.919C129.956 365.832 121.775 364.237 113.611 362.723C105.229 361.165 96.8111 359.789 88.3837 358.476C84.0972 357.811 79.8107 357.164 75.5243 356.516C71.8566 355.97 67.2152 354.621 65.2585 358.877C64.4304 360.673 63.9389 362.651 63.3474 364.537C62.7194 366.533 62.1096 368.539 61.509 370.553C60.3168 374.572 59.1792 378.61 58.1144 382.657C57.5774 384.681 57.0587 386.713 56.5581 388.746C56.0849 390.651 55.5115 392.574 55.3659 394.533C55.2203 396.393 55.73 398.334 57.086 399.674C58.3055 400.886 59.9709 401.424 61.6364 401.652C65.8137 402.244 70.1548 402.162 74.3684 402.208C78.6549 402.253 82.9505 402.217 87.237 402.244C95.6189 402.299 103.937 402.755 112.237 403.967C128.546 406.346 144.8 410.475 161.391 409.955C163.429 409.891 165.468 409.755 167.506 409.536C169.19 409.363 170.136 407.85 169.372 406.282C164.867 396.994 161.536 387.169 159.397 377.07C158.824 374.345 154.656 375.502 155.229 378.218C157.45 388.691 160.972 398.845 165.641 408.469C166.259 407.385 166.887 406.3 167.506 405.216C151.826 406.856 136.309 403.602 120.919 400.996C113.029 399.665 105.102 398.526 97.0932 398.152C88.8843 397.769 80.6571 397.997 72.4391 397.86C70.3641 397.824 68.2982 397.769 66.2232 397.669C64.6306 397.596 62.9469 397.632 61.3998 397.222C60.1348 396.885 59.6251 396.21 59.6615 394.871C59.7161 393.139 60.3532 391.361 60.7718 389.684C62.7103 381.891 64.8763 374.144 67.2698 366.479C67.825 364.692 68.3073 362.851 68.9899 361.11C69.1082 360.8 69.2538 360.354 69.5632 360.181C70.082 359.889 71.0922 360.19 71.6473 360.272C75.7245 360.882 79.8016 361.493 83.8697 362.122C91.9512 363.362 100.015 364.647 108.06 366.087C115.977 367.5 123.877 369.049 131.722 370.845C138.638 372.431 145.619 374.253 151.907 377.617C153.5 378.464 155.029 379.412 156.503 380.451C157.459 381.126 158.906 380.625 159.461 379.677C160.107 378.601 159.661 377.389 158.697 376.714Z" fill="#190F19"/>
<path d="M131.822 300.152C132.987 308.701 135.217 317.059 138.475 325.044C138.921 326.128 139.913 326.894 141.132 326.557C142.151 326.274 143.089 324.98 142.643 323.895C139.385 315.911 137.146 307.553 135.99 299.003C135.835 297.846 134.352 297.208 133.333 297.49C132.086 297.828 131.667 298.985 131.822 300.152Z" fill="#190F19"/>
<path d="M150.333 349.434C151.116 353.919 151.898 358.412 152.681 362.896C152.872 364.018 154.301 364.747 155.339 364.41C156.54 364.018 157.059 362.942 156.849 361.748C156.067 357.264 155.284 352.77 154.501 348.286C154.31 347.165 152.881 346.436 151.844 346.773C150.643 347.165 150.124 348.24 150.333 349.434Z" fill="#190F19"/>
<path d="M78.5458 385.938C78.5276 385.82 78.5094 385.701 78.4912 385.583C78.5276 385.838 78.5276 385.874 78.5094 385.719C78.4912 385.51 78.4639 385.309 78.4457 385.099C78.4093 384.744 78.3911 384.389 78.3729 384.033C78.3456 383.231 78.3547 382.429 78.4184 381.627C78.4366 381.417 78.4548 381.207 78.473 381.007C78.4821 380.888 78.5276 380.341 78.4821 380.87C78.5094 380.487 78.6004 380.104 78.6732 379.722C78.828 378.929 79.0373 378.154 79.2739 377.388C79.6197 376.313 78.8735 374.982 77.7632 374.727C76.5801 374.453 75.4698 375.082 75.1057 376.24C73.9863 379.767 73.7952 383.459 74.3686 387.096C74.5415 388.217 76.0067 388.937 77.026 388.609C78.2546 388.208 78.737 387.141 78.5458 385.938Z" fill="#190F19"/>
<path d="M86.0995 387.087C86.7184 383.86 87.3463 380.633 87.9652 377.407C88.1836 376.295 87.6558 375.019 86.4545 374.745C85.3897 374.499 84.0245 375.064 83.797 376.258C83.1782 379.485 82.5502 382.712 81.9314 385.938C81.7129 387.05 82.2408 388.327 83.4421 388.6C84.5069 388.837 85.872 388.272 86.0995 387.087Z" fill="#190F19"/>
<path d="M93.9171 383.231C94.2356 381.299 94.5633 379.366 94.8818 377.434C94.9819 376.841 94.9728 376.304 94.6634 375.766C94.3994 375.319 93.8898 374.891 93.3711 374.772C92.8159 374.645 92.197 374.672 91.7056 374.991C91.2597 375.283 90.8046 375.739 90.7136 376.285C90.3951 378.218 90.0675 380.15 89.7489 382.083C89.6488 382.675 89.6579 383.213 89.9673 383.751C90.2313 384.197 90.7409 384.626 91.2597 384.744C91.8148 384.872 92.4337 384.844 92.9251 384.525C93.3711 384.243 93.8261 383.778 93.9171 383.231Z" fill="#190F19"/>
<path d="M103.564 382.265C104.247 380.023 104.929 377.781 105.612 375.529C105.939 374.445 105.22 373.123 104.101 372.868C102.936 372.603 101.789 373.223 101.443 374.381C100.761 376.623 100.078 378.865 99.3958 381.117C99.0681 382.201 99.7871 383.523 100.907 383.778C102.071 384.043 103.209 383.423 103.564 382.265Z" fill="#190F19"/>
<path d="M94.5178 341.14C93.3256 329.219 96.5381 317.233 103.528 307.508C104.21 306.56 103.691 305.092 102.754 304.545C101.662 303.907 100.479 304.372 99.7962 305.32C92.4246 315.574 88.939 328.562 90.1949 341.14C90.3132 342.307 91.105 343.31 92.3609 343.31C93.4348 343.301 94.627 342.307 94.5178 341.14Z" fill="#190F19"/>
<path d="M74.0591 335.772C75.8519 324.661 80.1748 314.152 86.7274 305.019C87.41 304.072 86.8912 302.604 85.9538 302.057C84.8617 301.419 83.6786 301.884 82.9961 302.832C76.2524 312.229 71.7292 323.203 69.8909 334.624C69.7089 335.772 70.1912 336.957 71.4016 337.285C72.43 337.568 73.8679 336.939 74.0591 335.772Z" fill="#190F19"/>
</svg>
