<svg width="755" height="755" viewBox="0 0 755 755" fill="none" xmlns="http://www.w3.org/2000/svg">
<path d="M598.941 755L377.548 116.742L156.154 755H0L273.793 0H480.065L755 755H598.941Z" fill="#8585B9"/>
<path d="M374.719 636.192C367.405 678.98 310.481 727.912 310.481 727.912C310.481 727.912 288.425 730.266 274.825 727.912C261.224 725.559 274.825 710.606 274.825 710.606C287.974 705.095 306.507 684.645 306.507 684.645L348.195 606.765L314.737 629.582C198.325 673.371 150.745 601.268 163.5 583.961C177.763 564.611 193.674 593.404 193.674 593.404C248.399 631.161 294.119 574.801 294.119 574.801C321.728 542.371 314.723 473.172 314.723 473.172L396.156 402.803C396.156 402.803 587.306 565.724 592.027 636.192C596.748 706.674 561.909 739.709 528.592 737.341C495.275 734.987 356.806 746.784 356.806 746.784C356.806 746.784 320.318 709.168 451.642 704.306C451.67 704.32 388.644 712.029 374.719 636.192C374.719 636.192 379.68 582.143 433.954 574.787L374.719 636.192Z" fill="#FBF9FB"/>
<path d="M355.693 749.842L354.721 748.841C354.368 748.489 346.25 739.948 350.394 729.618C355.848 716.032 379.878 707.181 421.961 703.235C420.41 702.685 418.846 702.079 417.254 701.403C392.181 690.593 380.216 668.452 374.55 648.453C360.696 688.31 314.568 728.307 312.412 730.153L311.721 730.745L310.805 730.844C309.889 730.943 288.171 733.226 274.331 730.816C268.99 729.886 267.003 727.18 266.284 725.08C264.043 718.554 271.203 710.225 272.654 708.633L273.091 708.153L273.697 707.9C285.31 703.037 301.912 685.308 304.097 682.94L339.937 615.996L316.133 632.232L315.808 632.358C279.546 646.001 246.863 649.778 218.662 643.605C189.221 637.15 174 621.873 167.545 613.346C158.666 601.606 156.101 589.106 161.16 582.228C165.262 576.675 169.983 574.04 175.198 574.364C185.697 575.054 194.097 588.26 195.929 591.36C217.45 605.975 239.985 607.441 262.944 595.729C280.504 586.78 291.765 573.081 291.864 572.94C318.388 541.78 311.89 474.159 311.82 473.468L311.665 471.946L396.17 398.914L398.1 400.549C398.58 400.957 446.54 441.927 494.458 491.001C559.161 557.254 592.985 606.046 594.987 635.995C597.538 674.132 588.687 705.349 570.041 723.924C558.358 735.551 543.56 741.358 528.395 740.301C495.698 737.975 358.441 749.616 357.06 749.743L355.693 749.842ZM446.244 707.491C375.043 710.747 359.033 724.023 355.876 731.774C353.762 736.975 356.581 741.696 358.103 743.725C374.071 742.372 497.164 732.169 528.818 734.41C542.263 735.368 555.426 730.153 565.884 719.738C583.303 702.389 591.548 672.793 589.11 636.389C584.769 571.672 416.182 423.986 396.184 406.693L317.824 474.413C318.726 485.138 322.517 546.022 296.388 576.703C295.951 577.239 284.394 591.332 265.791 600.874C248.399 609.795 221.495 616.151 192.025 595.828L191.461 595.434L191.123 594.827C188.953 590.924 181.793 580.678 174.803 580.227C171.646 580.029 168.771 581.819 165.91 585.709C163.007 589.655 164.247 599.182 172.252 609.767C178.214 617.645 192.349 631.781 219.93 637.827C246.905 643.746 278.362 640.082 313.398 626.947L356.496 597.562L308.959 686.351L308.719 686.618C307.958 687.464 290.158 706.998 276.629 713.044C274.12 715.961 271.09 720.866 271.879 723.163C272.26 724.248 273.979 724.77 275.36 725.009C286.846 726.996 305.013 725.474 309.283 725.066C315.738 719.358 365.15 674.498 371.83 635.783C372.182 632.654 379.004 579.268 433.588 571.869C435.209 571.63 436.688 572.785 436.9 574.392C437.125 576.013 435.984 577.492 434.377 577.704C384.923 584.398 378.299 630.935 377.721 636.065C383.359 666.253 397.452 686.407 419.607 695.977C430.417 700.642 440.578 701.529 446.357 701.572C448.076 701.487 449.824 701.417 451.585 701.36L452.05 707.237C451.797 707.265 449.669 707.533 446.244 707.491Z" fill="#190F19"/>
<path d="M314.765 473.172C314.765 473.172 319.149 528.334 314.765 498.71C311.707 518.032 319.149 518.765 304.167 557.071L294.161 574.801C297.938 575.984 325.716 594.926 329.803 594.926C355.425 594.926 376.199 594.926 376.199 539.553C376.199 508.97 339.683 484.532 314.765 473.172Z" fill="#190F19"/>
<path d="M175.846 544.119C182.709 529.856 189.573 515.594 196.436 501.331C197.268 499.612 196.901 497.526 195.168 496.511C193.632 495.609 191.179 496.046 190.348 497.78C183.484 512.042 176.621 526.305 169.757 540.567C168.926 542.287 169.292 544.373 171.026 545.387C172.576 546.275 175.028 545.838 175.846 544.119Z" fill="#190F19"/>
<path d="M141.57 534.183C136.116 523.458 131.254 512.465 127.026 501.204C126.363 499.429 124.644 498.202 122.685 498.738C120.98 499.203 119.556 501.275 120.219 503.079C124.658 514.903 129.746 526.488 135.468 537.749C136.328 539.44 138.709 539.933 140.288 539.017C142.035 538.002 142.43 535.888 141.57 534.183Z" fill="#190F19"/>
<path d="M133.678 565.034C118.767 560.876 103.391 558.438 87.9305 557.719C83.3924 557.508 83.4065 564.555 87.9305 564.766C102.785 565.457 117.471 567.838 131.804 571.841C136.173 573.053 138.047 566.26 133.678 565.034Z" fill="#190F19"/>
<path d="M134.101 599.972C120.782 603.312 107.45 606.638 94.1316 609.978C89.7344 611.077 91.5948 617.87 96.006 616.771C109.324 613.431 122.657 610.105 135.975 606.765C140.372 605.665 138.512 598.872 134.101 599.972Z" fill="#190F19"/>
<path d="M228.274 231.046C228.274 231.046 250.809 391.74 288.481 449.326C288.481 449.326 326.858 503.812 392.364 472.468C392.364 472.468 480.956 416.573 551.438 313.648C551.438 313.648 569.999 260.431 486.904 222.562C486.904 222.562 429.585 196.742 401.497 187.004C339.288 165.441 281.928 161.283 281.928 161.283C281.928 161.283 227.964 163.031 228.274 231.046Z" fill="#FBF9FB"/>
<path d="M352.691 485.406C336.85 485.406 323.856 480.741 314.286 475.512C296.049 465.562 286.212 451.778 285.803 451.201C269.906 426.889 254.868 382.537 241.056 319.285C230.81 272.34 225.088 231.906 225.032 231.497L225.004 231.06C224.68 160.677 281.251 158.013 281.815 157.985H281.984L282.153 157.999C282.731 158.042 340.655 162.439 402.568 183.903C430.473 193.571 487.665 219.32 488.242 219.574C512.554 230.651 543.574 250.354 553.439 281.303C559.443 300.16 554.721 314.127 554.524 314.719L554.383 315.128L554.144 315.494C484.085 417.785 395 474.666 394.112 475.23L393.774 475.413C378.581 482.686 364.797 485.406 352.691 485.406ZM231.557 230.806C232.53 237.571 255.023 392.177 291.229 447.522C291.258 447.564 300.672 460.686 317.655 469.889C340.162 482.079 364.769 481.967 390.772 469.579C394.972 466.873 480.618 411.062 548.45 312.182C549.084 309.984 552.058 298.145 547.069 282.868C539.712 260.346 518.445 240.517 485.536 225.521C484.973 225.268 428.035 199.66 400.412 190.076C341.078 169.5 285.465 164.821 281.857 164.539C278.179 164.722 231.374 168.33 231.557 230.806Z" fill="#190F19"/>
<path d="M297.346 166.935L213.912 137.958C202.891 134.125 184.471 129.361 172.985 127.346C172.985 127.346 142.937 122.103 143.008 167.315C143.121 236.289 178.552 295.425 178.552 295.425C184.541 305.432 192.8 304.685 196.887 293.762C196.887 293.776 226.441 214.853 297.346 166.935Z" fill="#FBF9FB"/>
<path d="M187.868 305.756C184.936 305.756 180.116 304.417 175.733 297.116C175.381 296.524 139.837 236.401 139.724 167.329C139.696 149.881 144.009 137.395 152.521 130.221C162.006 122.23 173.069 124.062 173.534 124.133C185.204 126.176 203.793 130.982 214.969 134.872L304.576 165.99L299.15 169.655C229.979 216.403 200.213 294.143 199.932 294.918C196.634 303.726 191.475 305.46 188.699 305.713C188.459 305.742 188.178 305.756 187.868 305.756ZM170.11 130.432C167.08 130.432 161.583 131.109 156.665 135.295C149.745 141.186 146.249 151.953 146.264 167.315C146.376 234.541 180.99 293.17 181.342 293.748C183.499 297.342 186.035 299.385 188.121 299.188C190.207 299.005 192.335 296.538 193.801 292.62C194.097 291.845 223.017 216.149 290.186 167.921L212.841 141.059C201.933 137.268 183.795 132.575 172.421 130.587C172.308 130.573 171.463 130.432 170.11 130.432Z" fill="#190F19"/>
<path d="M492.09 222.815L575.862 194.84C586.925 191.147 605.402 186.595 616.916 184.721C616.916 184.721 647.034 179.83 646.414 225.042C645.484 294.016 609.348 352.729 609.348 352.729C603.231 362.665 594.987 361.82 591.026 350.841C591.041 350.841 562.417 271.579 492.09 222.815Z" fill="#190F19"/>
<path d="M600.018 362.933C599.666 362.933 599.342 362.919 599.046 362.877C596.269 362.595 591.139 360.791 587.954 351.94C587.672 351.165 558.837 273.073 490.23 225.493L484.846 221.772L574.819 191.725C586.051 187.976 604.697 183.382 616.381 181.479C616.846 181.409 627.923 179.717 637.324 187.807C645.766 195.079 649.923 207.623 649.684 225.07C648.753 294.143 612.491 353.829 612.124 354.42C607.741 361.594 602.964 362.933 600.018 362.933ZM499.235 223.886C565.813 272.918 593.845 348.938 594.127 349.727C595.55 353.674 597.65 356.154 599.736 356.365C601.836 356.563 604.387 354.576 606.572 351.01C606.924 350.432 642.242 292.212 643.158 225C643.37 209.638 640.001 198.828 633.152 192.853C626.119 186.722 617.804 187.906 617.452 187.962C606.064 189.808 587.884 194.29 576.933 197.954L499.235 223.886Z" fill="#190F19"/>
<path d="M242.508 230.13C223.82 223.647 213.151 235.908 218.803 257.401L242.818 348.783C248.47 370.276 267.566 376.843 285.268 363.37L359.963 306.559C377.665 293.1 376.861 276.765 358.173 270.282L242.508 230.13Z" fill="#8585B9"/>
<path d="M266.763 373.221C263.972 373.221 261.238 372.77 258.603 371.868C249.653 368.782 243.072 360.847 240.098 349.516L216.083 258.134C212.898 245.999 214.561 235.795 220.663 230.144C226.019 225.183 234.108 224.239 243.452 227.48L359.118 267.647C368.448 270.888 374.212 276.652 375.368 283.882C376.678 292.127 371.703 301.217 361.697 308.828L287.001 365.639C280.391 370.642 273.429 373.221 266.763 373.221ZM233.192 231.229C229.641 231.229 226.667 232.258 224.468 234.287C219.944 238.473 218.873 246.647 221.523 256.696L245.538 348.078C248.019 357.521 253.304 364.075 260.421 366.527C267.552 368.979 275.769 367.076 283.562 361.143L358.258 304.332C366.559 298.018 370.745 290.887 369.772 284.77C368.955 279.683 364.516 275.497 357.243 272.974L241.578 232.808C238.548 231.751 235.729 231.229 233.192 231.229Z" fill="#190F19"/>
<path d="M242.508 230.13C223.82 223.647 213.151 235.908 218.803 257.401L242.818 348.783C248.47 370.276 267.566 376.843 285.268 363.37L359.963 306.559C377.665 293.1 376.861 276.765 358.173 270.282L242.508 230.13Z" fill="#02AB6B"/>
<path d="M266.763 373.221C263.972 373.221 261.238 372.77 258.603 371.868C249.653 368.782 243.072 360.847 240.098 349.516L216.083 258.134C212.898 245.999 214.561 235.795 220.663 230.144C226.019 225.183 234.108 224.239 243.452 227.48L359.118 267.647C368.448 270.888 374.212 276.652 375.368 283.882C376.678 292.127 371.703 301.217 361.697 308.828L287.001 365.639C280.391 370.642 273.429 373.221 266.763 373.221ZM233.192 231.229C229.641 231.229 226.667 232.258 224.468 234.287C219.944 238.473 218.873 246.647 221.523 256.696L245.538 348.078C248.019 357.521 253.304 364.075 260.421 366.527C267.552 368.979 275.769 367.076 283.562 361.143L358.258 304.332C366.559 298.018 370.745 290.887 369.772 284.77C368.955 279.683 364.516 275.497 357.243 272.974L241.578 232.808C238.548 231.751 235.729 231.229 233.192 231.229Z" fill="#190F19"/>
<path d="M414.04 289.703C395.352 283.22 384.683 295.482 390.335 316.974L414.35 408.356C420.002 429.849 439.098 436.417 456.8 422.957L531.495 366.146C549.197 352.687 548.393 336.353 529.705 329.87L414.04 289.703Z" fill="#8585B9"/>
<path d="M438.295 432.78C435.505 432.78 432.77 432.329 430.135 431.427C421.186 428.341 414.604 420.406 411.63 409.075L387.601 317.693C384.416 305.558 386.079 295.355 392.181 289.703C397.537 284.742 405.626 283.798 414.97 287.039L530.636 327.206C539.966 330.447 545.73 336.212 546.885 343.442C548.196 351.686 543.221 360.777 533.215 368.387L458.519 425.198C451.923 430.201 444.975 432.78 438.295 432.78ZM404.738 290.788C401.187 290.788 398.213 291.817 396.015 293.847C391.491 298.032 390.419 306.207 393.069 316.255L417.084 407.638C419.565 417.08 424.85 423.634 431.967 426.086C439.098 428.538 447.315 426.622 455.109 420.702L529.804 363.891C538.105 357.577 542.291 350.446 541.319 344.33C540.501 339.242 536.062 335.056 528.789 332.533L413.124 292.367C410.08 291.31 407.261 290.788 404.738 290.788Z" fill="#190F19"/>
<path d="M414.04 289.703C395.352 283.22 384.683 295.482 390.335 316.974L414.35 408.356C420.002 429.849 439.098 436.417 456.8 422.957L531.495 366.146C549.197 352.687 548.393 336.353 529.705 329.87L414.04 289.703Z" fill="#02AB6B"/>
<path d="M438.295 432.78C435.505 432.78 432.77 432.329 430.135 431.427C421.186 428.341 414.604 420.406 411.63 409.075L387.601 317.693C384.416 305.558 386.079 295.355 392.181 289.703C397.537 284.742 405.626 283.798 414.97 287.039L530.636 327.206C539.966 330.447 545.73 336.212 546.885 343.442C548.196 351.686 543.221 360.777 533.215 368.387L458.519 425.198C451.923 430.201 444.975 432.78 438.295 432.78ZM404.738 290.788C401.187 290.788 398.213 291.817 396.015 293.847C391.491 298.032 390.419 306.207 393.069 316.255L417.084 407.638C419.565 417.08 424.85 423.634 431.967 426.086C439.098 428.538 447.315 426.622 455.109 420.702L529.804 363.891C538.105 357.577 542.291 350.446 541.319 344.33C540.501 339.242 536.062 335.056 528.789 332.533L413.124 292.367C410.08 291.31 407.261 290.788 404.738 290.788Z" fill="#190F19"/>
<path d="M323.94 354.406C323.94 354.406 329.113 397.236 336.639 407.44C336.639 407.44 343.248 419.518 356.567 411.612C356.567 411.612 378.539 394.657 391.547 370.036C391.547 370.036 395.719 361.34 378.257 355.266C361.02 349.262 340.12 341.454 340.12 341.454C340.12 341.454 324.955 336.775 323.94 354.406Z" fill="#190F19"/>
<path d="M297.205 398.843C310.763 438.996 345.546 409.625 345.546 409.625C345.546 409.625 345.644 447.142 383.034 428.735" fill="#FBF9FB"/>
<path d="M364.967 437.093C360.767 437.093 357.046 436.092 353.819 434.091C346.603 429.623 343.897 421.28 342.882 415.586C336.582 419.659 324.997 425.48 313.864 422.379C304.942 419.885 298.29 412.331 294.09 399.886C293.513 398.167 294.429 396.306 296.148 395.729C297.867 395.137 299.728 396.067 300.306 397.786C303.773 408.046 308.917 414.191 315.625 416.065C328.408 419.645 343.277 407.243 343.432 407.116L348.801 402.578L348.815 409.611C348.815 409.737 348.999 423.408 357.3 428.538C362.81 431.935 370.97 431.019 381.583 425.79C383.204 424.987 385.163 425.663 385.966 427.284C386.769 428.905 386.093 430.864 384.472 431.667C377.143 435.289 370.618 437.093 364.967 437.093Z" fill="#190F19"/>
<path d="M298.572 279.175C303.865 279.175 308.156 274.885 308.156 269.592C308.156 264.299 303.865 260.008 298.572 260.008C293.279 260.008 288.989 264.299 288.989 269.592C288.989 274.885 293.279 279.175 298.572 279.175Z" fill="#190F19"/>
<path d="M457.335 334.295C462.628 334.295 466.919 330.004 466.919 324.711C466.919 319.419 462.628 315.128 457.335 315.128C452.043 315.128 447.752 319.419 447.752 324.711C447.752 330.004 452.043 334.295 457.335 334.295Z" fill="#190F19"/>
<path d="M414.928 292.663C413.815 292.663 412.715 292.085 412.109 291.056C407.458 283.234 400.553 277.216 392.153 273.651C381.681 269.211 370.111 269.112 359.569 273.383C357.892 274.059 355.989 273.256 355.298 271.579C354.622 269.902 355.425 267.999 357.102 267.309C369.265 262.39 382.612 262.489 394.704 267.619C404.4 271.734 412.377 278.682 417.747 287.702C418.677 289.252 418.155 291.267 416.605 292.198C416.07 292.508 415.492 292.663 414.928 292.663Z" fill="#190F19"/>
<path d="M583.768 608.935C583.768 608.935 667.582 577.676 650.276 465.195C650.276 465.195 662.072 449.707 666.793 473.186C671.514 496.666 692.753 617.011 596.791 653.978" fill="#190F19"/>
</svg>
