<svg width="588" height="587" viewBox="0 0 588 587" fill="none" xmlns="http://www.w3.org/2000/svg">
<path d="M97.8367 481.513C97.8367 481.513 106.068 506.218 112.664 519.399C119.249 532.579 137.461 528.459 137.461 528.459C146.614 525.166 134.904 511.395 134.904 511.395C123.37 498.453 129.137 476.575 134.904 464.212C140.671 451.86 134.904 418.913 134.904 418.913L131.415 390.543L103.956 387.25L87.4827 413.601L97.8367 481.513Z" fill="#FBF9FB"/>
<path d="M131.084 531.358C134.967 531.358 137.814 530.726 137.969 530.695L138.238 530.612C141.407 529.473 142.566 527.351 142.991 525.766C144.648 519.554 137.472 510.877 136.644 509.904C126.683 498.722 130.607 478.821 136.975 465.175C142.908 452.46 137.524 420.611 137.162 418.571L133.465 388.483L102.786 384.807L85.0913 413.115L95.6627 482.238C96.0044 483.253 104.029 507.253 110.614 520.424C113.668 526.533 119.425 530.239 127.274 531.14C128.609 531.295 129.893 531.358 131.084 531.358ZM136.83 526.253C135.256 526.564 120.14 529.225 114.714 518.374C108.564 506.083 100.84 483.253 100.074 480.965L89.8852 414.088L105.137 389.684L129.375 392.593L132.658 419.296C132.709 419.617 138.228 451.673 132.834 463.239C130.711 467.794 127.004 476.999 126.145 487.384C125.254 498.059 127.626 506.653 133.206 512.907C135.867 516.044 139.336 521.79 138.58 524.586C138.435 525.114 138.104 525.756 136.83 526.253Z" fill="#190F19"/>
<path d="M288.102 291.807C288.102 291.807 223.037 292.894 138.196 291.807C53.3554 290.71 41.8314 374.443 52.5374 383.502C63.2434 392.562 72.3032 452.688 67.3643 483.16C62.4255 513.632 72.3032 537.518 86.3122 536.7C100.311 535.872 97.8466 528.469 97.8466 528.469C97.8466 528.469 80.545 495.522 97.8466 481.524C115.148 467.525 119.259 408.217 119.259 408.217C146.428 423.034 270.8 417.267 270.8 417.267C313.634 409.853 379.517 453.506 398.465 469.161C417.413 484.816 423.17 469.161 423.17 469.161C428.108 435.397 354.419 404.914 354.419 404.914C342.45 396.238 341.58 381.649 344.583 367.671C344.583 367.671 336.061 292.998 288.102 291.807Z" fill="#FBF9FB"/>
<path d="M85.5977 538.999C85.8773 538.999 86.1568 538.988 86.4364 538.978C92.742 538.605 96.9665 536.887 99.0165 533.863C100.994 530.943 100.114 528.055 100.011 527.734L99.8655 527.392C99.6999 527.081 83.6512 495.937 99.2754 483.284C106.875 477.123 112.932 462.576 117.281 440.035C119.58 428.118 120.77 416.998 121.257 411.665C153.603 424.815 265.985 419.783 270.914 419.555L271.193 419.524C288.992 416.449 313.686 422.351 342.584 436.618C367.89 449.116 388.711 464.057 397.015 470.921C404.491 477.092 411.086 479.463 416.626 477.972C422.931 476.274 425.23 470.207 425.323 469.948L425.437 469.492C430.48 435.045 361.159 405.256 355.558 402.906C346.281 396.041 343.351 384.351 346.819 368.147L346.902 367.785L346.861 367.412C346.767 366.636 344.593 348.195 336.434 329.278C325.417 303.776 308.727 290.037 288.164 289.519H288.112H288.06C287.408 289.529 222.053 290.596 138.227 289.519C137.658 289.509 137.099 289.509 136.539 289.509C78.9194 289.509 58.2735 328.005 52.0404 344.675C45.5588 362.018 45.1239 380.22 51.0568 385.242C55.5504 389.042 60.4582 404.894 63.554 425.633C66.7534 447.045 67.3436 468.944 65.0968 482.787C61.6903 503.806 65.0968 523.602 73.7942 533.221C77.211 537.021 81.2801 538.999 85.5977 538.999ZM95.6826 529.276C95.7343 529.566 95.8171 530.467 95.1855 531.358C94.4918 532.341 92.39 534.039 86.1672 534.402C82.9264 534.588 79.903 533.159 77.1903 530.157C69.3937 521.521 66.4221 503.215 69.6215 483.512C74.3119 454.614 66.2047 392.055 54.018 381.742C51.1189 379.288 49.3483 364.938 56.3269 346.269C62.2184 330.49 81.7874 294.075 136.56 294.075C137.088 294.075 137.627 294.075 138.165 294.085C221.09 295.151 285.969 294.116 288.091 294.085C306.967 294.572 321.804 306.996 332.199 330.997C339.509 347.884 341.932 364.906 342.274 367.567C338.484 385.625 342.129 398.816 353.083 406.757L353.301 406.913L353.549 407.016C354.264 407.317 425.127 437.022 420.954 468.54C420.591 469.347 418.914 472.63 415.383 473.551C411.428 474.597 406.075 472.464 399.925 467.38C384.125 454.334 315.943 407.244 270.562 414.978C265.758 415.196 146.262 420.321 120.356 406.188L117.229 404.48L116.981 408.031C116.97 408.176 115.925 422.951 112.787 439.197C108.718 460.329 103.055 474.338 96.4073 479.712C78.4638 494.249 93.9742 525.932 95.6826 529.276Z" fill="#190F19"/>
<path d="M280.689 418.913C280.689 418.913 271.629 488.927 280.689 503.754C280.689 503.754 304.576 531.803 291.395 536.721C278.215 541.639 260.095 526.812 256.802 515.288C253.51 503.754 245.268 418.923 245.268 418.923" fill="#FBF9FB"/>
<path d="M285.793 539.982C288.04 539.982 290.184 539.61 292.192 538.864C294.884 537.86 296.665 535.955 297.338 533.356C299.906 523.447 284.851 505.141 282.553 502.418C275.595 490.542 280.472 438.389 282.956 419.213C283.122 417.96 282.232 416.811 280.979 416.656C279.736 416.501 278.577 417.381 278.421 418.633C278.049 421.522 269.362 489.621 278.742 504.955L278.949 505.245C285.162 512.544 294.449 526.326 292.917 532.217C292.617 533.366 291.902 534.101 290.598 534.588C285.307 536.566 279.602 534.66 275.75 532.714C267.902 528.759 260.861 521.169 259.008 514.667C255.808 503.464 247.639 419.555 247.556 418.706C247.432 417.453 246.303 416.521 245.061 416.656C243.808 416.78 242.886 417.898 243.011 419.151C243.352 422.62 251.304 504.323 254.618 515.93C256.833 523.665 264.671 532.248 273.7 536.804C277.893 538.906 281.994 539.982 285.793 539.982Z" fill="#190F19"/>
<path d="M67.1787 322.403C67.1787 322.403 3.11842 244.303 36.8829 142.989C36.8829 142.989 41.9253 129.808 27.0466 138.868C12.1678 147.928 -16.1607 312.256 53.6046 347.056L67.1787 322.403Z" fill="#190F19"/>
<path d="M223.183 418.375L201.646 416.853C188.186 414.513 195.517 415.952 166.836 417.225L146.739 413.332C146.811 410.578 140.547 387.954 141.469 385.252C147.246 368.323 151.926 354.594 188.507 367.07C208.718 373.956 221.298 399.344 223.183 418.375Z" fill="#190F19"/>
<path d="M300.64 172.653C300.64 172.653 284.012 284.694 297.855 330.687C297.855 330.687 312.785 374.743 362.837 366.687C362.837 366.687 433.192 346.756 500.7 291.755C500.7 291.755 523.634 259.793 475.478 218.035C475.478 218.035 442.2 189.427 425.313 177.364C387.914 150.641 350.329 136.528 350.329 136.528C350.329 136.528 313.862 127.054 300.64 172.653Z" fill="#FBF9FB"/>
<path d="M351.096 369.939C354.885 369.939 358.923 369.628 363.21 368.934L363.469 368.872C364.173 368.675 435.046 348.174 502.15 293.505L502.389 293.308L502.565 293.06C502.813 292.708 508.736 284.29 508.435 270.478C507.938 247.803 491.061 228.482 476.98 216.275C476.638 215.985 443.422 187.459 426.649 175.469C389.437 148.88 351.52 134.499 351.137 134.354L350.909 134.281C350.526 134.178 312.123 124.807 298.446 171.991L298.383 172.291C298.342 172.57 294.19 200.775 291.778 234.239C288.537 279.32 289.841 311.987 295.671 331.328C295.857 331.877 299.719 343.039 309.97 353.31C317.942 361.303 331.175 369.939 351.096 369.939ZM362.35 364.451C342.502 367.609 325.998 362.825 313.335 350.224C303.778 340.709 300.061 330.065 300.03 329.951C286.735 285.823 302.204 177.872 302.887 173.14C315.095 131.299 347.12 138.091 349.656 138.713C352.017 139.624 388.329 153.726 423.998 179.218C440.606 191.083 473.666 219.474 473.998 219.764C517.951 257.877 500.835 287.345 499.003 290.192C434.021 343.028 365.705 363.467 362.35 364.451Z" fill="#190F19"/>
<path d="M398.631 162.713L367.331 109.597C363.199 102.577 355.548 91.7159 350.34 85.462C350.34 85.462 336.724 69.0923 316.337 93.1758C285.234 129.922 277.365 177.406 277.365 177.406C276.029 185.44 280.761 188.764 287.874 184.809C287.874 184.809 339.261 156.18 398.631 162.713Z" fill="#FBF9FB"/>
<path d="M282.459 188.774C284.188 188.774 286.352 188.277 288.992 186.807C289.5 186.528 340.462 158.613 398.393 164.991L402.928 165.488L369.308 108.438C365.115 101.324 357.401 90.3595 352.11 84.0021C351.903 83.7433 346.84 77.7794 338.184 77.7483C338.153 77.7483 338.132 77.7483 338.101 77.7483C330.346 77.7483 322.446 82.449 314.598 91.7055C283.442 128.514 275.19 176.557 275.107 177.033C274.031 183.504 276.547 186.352 278.141 187.48C278.99 188.091 280.419 188.774 282.459 188.774ZM380.884 159.473C329.311 159.473 287.232 182.552 286.756 182.81C284.198 184.229 281.962 184.581 280.761 183.742C279.56 182.904 279.135 180.678 279.611 177.789C279.694 177.323 287.76 130.481 318.077 94.6668C325.003 86.4871 331.734 82.3248 338.081 82.3248H338.091C344.593 82.3248 348.435 86.7563 348.59 86.9427C353.736 93.1344 361.263 103.83 365.353 110.767L394.375 160.021C389.83 159.649 385.316 159.473 380.884 159.473Z" fill="#190F19"/>
<path d="M483.917 222.891L541.217 245.649C548.785 248.652 560.692 254.533 567.681 258.716C567.681 258.716 585.956 269.65 565.29 293.505C533.762 329.9 488.069 344.985 488.069 344.985C480.335 347.543 476.318 343.381 479.144 335.739C479.144 335.739 499.521 280.552 483.917 222.891Z" fill="#190F19"/>
<path d="M483.896 348.029C485.263 348.029 486.878 347.781 488.783 347.16C489.249 347.004 535.449 331.453 567.018 295.007C574.991 285.802 578.418 277.239 577.186 269.556C575.819 261.014 569.141 256.924 568.861 256.759C561.769 252.514 549.758 246.581 542.065 243.526L480.521 219.091L481.712 223.502C496.932 279.755 477.197 334.414 476.99 334.952C474.712 341.113 476.649 344.374 477.995 345.783C478.937 346.746 480.78 348.029 483.896 348.029ZM487.241 226.67L540.378 247.772C547.874 250.754 559.595 256.541 566.511 260.673C566.708 260.797 571.688 263.913 572.682 270.343C573.655 276.607 570.591 283.897 563.571 292.004C532.85 327.477 487.81 342.656 487.355 342.811C484.58 343.722 482.312 343.65 481.298 342.594C480.283 341.537 480.272 339.27 481.287 336.526C481.484 335.988 500.722 282.799 487.241 226.67Z" fill="#190F19"/>
<path d="M310.352 174.848C299.118 166.813 289.551 172.922 289.095 188.433L287.138 254.367C286.683 269.867 298.176 278.036 312.682 272.518L373.905 249.221C388.411 243.702 391.093 232.613 379.869 224.578L310.352 174.848Z" fill="#8585B9"/>
<path d="M303.902 276.214C306.904 276.214 310.093 275.593 313.376 274.35L374.599 251.054C382.799 247.937 387.925 242.833 388.68 237.055C389.333 231.982 386.61 226.981 381.008 222.974L311.491 173.243C305.879 169.236 300.278 168.263 295.712 170.531C290.514 173.109 287.387 179.611 287.118 188.36L285.161 254.295C284.923 262.464 287.749 269.08 293.134 272.911C296.219 275.116 299.895 276.214 303.902 276.214ZM309.203 176.453L378.72 226.183C383.089 229.31 385.243 232.996 384.777 236.558C384.218 240.855 380.004 244.8 373.201 247.388L311.978 270.685C305.589 273.118 299.708 272.776 295.422 269.722C291.146 266.678 288.899 261.242 289.096 254.429L291.052 188.495C291.27 181.237 293.6 175.977 297.451 174.072C300.661 172.477 304.834 173.326 309.203 176.453Z" fill="#190F19"/>
<path d="M310.352 174.848C299.118 166.813 289.551 172.922 289.095 188.433L287.138 254.367C286.683 269.867 298.176 278.036 312.682 272.518L373.905 249.221C388.411 243.702 391.093 232.613 379.869 224.578L310.352 174.848Z" fill="#8585B9"/>
<path d="M303.902 276.214C306.904 276.214 310.093 275.593 313.376 274.35L374.599 251.054C382.799 247.937 387.925 242.833 388.68 237.055C389.333 231.982 386.61 226.981 381.008 222.974L311.491 173.243C305.879 169.236 300.278 168.263 295.712 170.531C290.514 173.109 287.387 179.611 287.118 188.36L285.161 254.295C284.923 262.464 287.749 269.08 293.134 272.911C296.219 275.116 299.895 276.214 303.902 276.214ZM309.203 176.453L378.72 226.183C383.089 229.31 385.243 232.996 384.777 236.558C384.218 240.855 380.004 244.8 373.201 247.388L311.978 270.685C305.589 273.118 299.708 272.776 295.422 269.722C291.146 266.678 288.899 261.242 289.096 254.429L291.052 188.495C291.27 181.237 293.6 175.977 297.451 174.072C300.661 172.477 304.834 173.326 309.203 176.453Z" fill="#190F19"/>
<path d="M413.448 248.6C402.214 240.565 392.646 246.674 392.191 262.184L390.234 328.119C389.778 343.619 401.271 351.788 415.777 346.269L477.001 322.973C491.507 317.454 494.188 306.365 482.965 298.33L413.448 248.6Z" fill="#8585B9"/>
<path d="M406.997 349.966C410 349.966 413.189 349.344 416.471 348.102L477.695 324.805C485.895 321.689 491.02 316.584 491.776 310.807C492.428 305.733 489.705 300.732 484.104 296.725L414.587 246.995C408.975 242.988 403.374 242.025 398.807 244.282C393.61 246.86 390.483 253.363 390.224 262.112L388.267 328.036C388.029 336.205 390.856 342.821 396.24 346.652C399.315 348.858 402.99 349.966 406.997 349.966ZM412.299 250.194L481.816 299.925C486.185 303.052 488.339 306.738 487.873 310.299C487.314 314.596 483.099 318.541 476.297 321.13L415.074 344.426C408.685 346.859 402.804 346.518 398.518 343.463C394.241 340.419 391.994 334.983 392.191 328.17L394.148 262.236C394.366 254.978 396.695 249.718 400.547 247.813C403.757 246.218 407.929 247.078 412.299 250.194Z" fill="#190F19"/>
<path d="M413.448 248.6C402.214 240.565 392.646 246.674 392.191 262.184L390.234 328.119C389.778 343.619 401.271 351.788 415.777 346.269L477.001 322.973C491.507 317.454 494.188 306.365 482.965 298.33L413.448 248.6Z" fill="#8585B9"/>
<path d="M406.997 349.966C410 349.966 413.189 349.344 416.471 348.102L477.695 324.805C485.895 321.689 491.02 316.584 491.776 310.807C492.428 305.733 489.705 300.732 484.104 296.725L414.587 246.995C408.975 242.988 403.374 242.025 398.807 244.282C393.61 246.86 390.483 253.363 390.224 262.112L388.267 328.036C388.029 336.205 390.856 342.821 396.24 346.652C399.315 348.858 402.99 349.966 406.997 349.966ZM412.299 250.194L481.816 299.925C486.185 303.052 488.339 306.738 487.873 310.299C487.314 314.596 483.099 318.541 476.297 321.13L415.074 344.426C408.685 346.859 402.804 346.518 398.518 343.463C394.241 340.419 391.994 334.983 392.191 328.17L394.148 262.236C394.366 254.978 396.695 249.718 400.547 247.813C403.757 246.218 407.929 247.078 412.299 250.194Z" fill="#190F19"/>
<path d="M340.338 274.133C340.338 274.133 335.337 303.828 338.371 312.153C338.371 312.153 340.41 321.544 350.889 318.883C350.889 318.883 368.946 311.873 382.52 297.947C382.52 297.947 387.035 292.946 376.546 285.429C366.192 278.005 353.736 268.645 353.736 268.645C353.736 268.645 344.5 262.536 340.338 274.133Z" fill="#190F19"/>
<path d="M327.354 278.544C308.261 301.136 338.36 311.314 338.36 311.314C338.36 311.314 315.985 324.919 340.473 340.606" fill="#FBF9FB"/>
<path d="M340.473 342.904C341.229 342.904 341.964 342.531 342.399 341.848C343.082 340.782 342.771 339.373 341.705 338.69C334.747 334.228 331.247 329.672 331.299 325.157C331.382 318.427 339.469 313.323 339.541 313.281L343.734 310.734L339.085 309.16C338.961 309.119 326.164 304.667 323.699 295.773C322.405 291.093 324.217 285.802 329.094 280.035C329.912 279.072 329.788 277.622 328.825 276.815C327.862 275.997 326.412 276.121 325.604 277.084C319.692 284.083 317.57 290.782 319.299 297.015C321.463 304.791 329.125 309.606 333.836 311.894C330.802 314.555 326.795 319.194 326.733 325.116C326.661 331.318 330.864 337.189 339.251 342.552C339.624 342.79 340.048 342.904 340.473 342.904Z" fill="#190F19"/>
<path d="M359.545 241.29C355.851 241.29 352.856 238.295 352.856 234.601C352.856 230.907 355.851 227.912 359.545 227.912C363.239 227.912 366.233 230.907 366.233 234.601C366.233 238.295 363.239 241.29 359.545 241.29Z" fill="#190F19"/>
<path d="M442.211 322.03C438.517 322.03 435.522 319.036 435.522 315.342C435.522 311.648 438.517 308.653 442.211 308.653C445.905 308.653 448.899 311.648 448.899 315.342C448.899 319.036 445.905 322.03 442.211 322.03Z" fill="#190F19"/>
<path d="M414.09 250.847C414.276 250.847 414.462 250.826 414.659 250.774C415.881 250.464 416.626 249.221 416.305 247.989C414.493 240.886 410.528 234.663 404.843 229.994C397.761 224.185 388.836 221.472 379.725 222.363C378.472 222.487 377.55 223.605 377.674 224.858C377.799 226.111 378.907 227.032 380.17 226.908C388.07 226.132 395.804 228.482 401.934 233.514C406.862 237.562 410.29 242.947 411.863 249.107C412.143 250.163 413.075 250.847 414.09 250.847Z" fill="#190F19"/>
<path d="M398.113 507.823C406.914 501.59 417.62 498.753 428.15 496.382C450.546 491.35 473.273 487.954 495.979 484.547C497.201 484.361 498.547 484.205 499.603 484.847C500.669 485.5 501.135 486.784 501.529 487.974C505.308 499.602 508.642 511.364 511.5 523.25C512.007 525.352 512.442 527.765 511.179 529.525C509.905 531.306 507.431 531.647 505.246 531.782C490.802 532.714 476.286 531.689 461.852 532.817C436.733 534.774 411.915 543.213 386.858 540.531C392.097 529.804 396.001 518.436 398.455 506.756" fill="#FBF9FB"/>
<path d="M396.881 505.69C403.932 500.751 412.164 497.842 420.436 495.698C429.579 493.327 438.887 491.515 448.175 489.797C457.711 488.026 467.288 486.463 476.876 484.972C481.753 484.216 486.63 483.481 491.506 482.745C495.679 482.124 500.96 480.592 503.186 485.427C504.128 487.467 504.687 489.714 505.36 491.857C506.074 494.125 506.768 496.402 507.451 498.691C508.808 503.257 510.102 507.844 511.314 512.441C511.924 514.739 512.515 517.048 513.084 519.357C513.622 521.521 514.275 523.706 514.44 525.932C514.606 528.044 514.026 530.25 512.484 531.772C511.096 533.149 509.201 533.76 507.307 534.019C502.554 534.692 497.615 534.598 492.821 534.65C487.945 534.702 483.057 534.66 478.181 534.692C468.645 534.754 459.181 535.271 449.738 536.648C431.184 539.351 412.692 544.041 393.816 543.451C391.497 543.379 389.178 543.223 386.858 542.975C384.943 542.778 383.866 541.059 384.736 539.278C389.861 528.728 393.651 517.566 396.084 506.094C396.736 502.998 401.478 504.313 400.826 507.398C398.3 519.295 394.293 530.83 388.981 541.763C388.277 540.531 387.562 539.299 386.858 538.067C404.698 539.931 422.352 536.234 439.861 533.273C448.837 531.761 457.856 530.467 466.967 530.043C476.307 529.608 485.667 529.867 495.016 529.711C497.377 529.67 499.727 529.608 502.088 529.494C503.9 529.411 505.816 529.452 507.576 528.987C509.015 528.603 509.595 527.837 509.553 526.315C509.491 524.348 508.766 522.329 508.29 520.424C506.085 511.571 503.621 502.77 500.897 494.062C500.266 492.033 499.717 489.942 498.94 487.964C498.806 487.612 498.64 487.105 498.288 486.908C497.698 486.576 496.549 486.918 495.917 487.011C491.279 487.705 486.64 488.399 482.012 489.113C472.817 490.521 463.644 491.981 454.491 493.617C445.483 495.222 436.495 496.982 427.57 499.022C419.701 500.824 411.76 502.894 404.605 506.715C402.793 507.678 401.054 508.755 399.376 509.935C398.289 510.701 396.643 510.132 396.011 509.055C395.276 507.833 395.783 506.456 396.881 505.69Z" fill="#190F19"/>
<path d="M427.456 418.716C426.131 428.428 423.594 437.923 419.887 446.993C419.38 448.225 418.252 449.095 416.864 448.712C415.704 448.391 414.638 446.921 415.145 445.689C418.852 436.618 421.399 427.124 422.714 417.412C422.89 416.097 424.578 415.372 425.738 415.693C427.156 416.076 427.632 417.391 427.456 418.716Z" fill="#190F19"/>
<path d="M406.397 474.7C405.506 479.795 404.616 484.899 403.725 489.993C403.508 491.267 401.882 492.095 400.702 491.712C399.335 491.267 398.745 490.045 398.983 488.689C399.874 483.595 400.764 478.49 401.655 473.396C401.872 472.122 403.498 471.294 404.678 471.677C406.045 472.122 406.635 473.344 406.397 474.7Z" fill="#190F19"/>
<path d="M488.069 516.168C488.089 516.034 488.11 515.899 488.131 515.764C488.089 516.054 488.089 516.096 488.11 515.92C488.131 515.682 488.162 515.454 488.182 515.216C488.224 514.812 488.245 514.408 488.265 514.004C488.296 513.093 488.286 512.182 488.214 511.271C488.193 511.033 488.172 510.794 488.151 510.567C488.141 510.432 488.089 509.811 488.141 510.411C488.11 509.976 488.006 509.542 487.924 509.107C487.748 508.206 487.509 507.326 487.24 506.456C486.847 505.234 487.696 503.723 488.959 503.433C490.305 503.122 491.568 503.837 491.982 505.152C493.256 509.159 493.473 513.352 492.821 517.483C492.624 518.757 490.957 519.575 489.798 519.202C488.4 518.746 487.851 517.535 488.069 516.168Z" fill="#190F19"/>
<path d="M479.476 517.473C478.771 513.808 478.057 510.142 477.353 506.477C477.104 505.214 477.705 503.764 479.072 503.454C480.283 503.174 481.836 503.816 482.095 505.172C482.799 508.838 483.514 512.503 484.218 516.168C484.466 517.431 483.866 518.881 482.499 519.192C481.287 519.461 479.734 518.819 479.476 517.473Z" fill="#190F19"/>
<path d="M470.581 513.093C470.219 510.898 469.846 508.703 469.483 506.508C469.37 505.835 469.38 505.224 469.732 504.613C470.032 504.106 470.612 503.619 471.202 503.485C471.834 503.34 472.538 503.371 473.097 503.733C473.604 504.064 474.122 504.582 474.226 505.203C474.588 507.398 474.961 509.593 475.323 511.789C475.437 512.462 475.427 513.072 475.075 513.683C474.774 514.191 474.195 514.677 473.604 514.812C472.973 514.957 472.269 514.926 471.71 514.563C471.202 514.242 470.684 513.714 470.581 513.093Z" fill="#190F19"/>
<path d="M459.606 511.996C458.829 509.448 458.053 506.901 457.276 504.344C456.903 503.112 457.721 501.61 458.995 501.321C460.32 501.02 461.625 501.724 462.018 503.039C462.795 505.586 463.571 508.133 464.348 510.691C464.721 511.923 463.903 513.424 462.629 513.714C461.304 514.015 460.01 513.31 459.606 511.996Z" fill="#190F19"/>
<path d="M469.898 465.278C471.255 451.735 467.6 438.12 459.648 427.072C458.871 425.995 459.461 424.328 460.528 423.707C461.77 422.982 463.116 423.51 463.893 424.587C472.28 436.235 476.245 450.99 474.816 465.278C474.682 466.604 473.781 467.743 472.352 467.743C471.13 467.732 469.774 466.604 469.898 465.278Z" fill="#190F19"/>
<path d="M493.174 459.18C491.134 446.558 486.216 434.62 478.761 424.245C477.984 423.169 478.574 421.502 479.641 420.88C480.883 420.155 482.229 420.684 483.006 421.76C490.678 432.435 495.824 444.902 497.916 457.875C498.123 459.18 497.574 460.526 496.197 460.899C495.027 461.22 493.391 460.505 493.174 459.18Z" fill="#190F19"/>
</svg>
