<svg width="743" height="661" viewBox="0 0 743 661" fill="none" xmlns="http://www.w3.org/2000/svg">
<path d="M622.437 661L565.267 161.374L441.001 661H302.221L177.882 161.374L120.711 661H0L84.3493 0.555542H239.496L371.019 502.246L503.504 0.555542H658.651L743 661H622.437Z" fill="#007347"/>
<path d="M500.05 634.262L246.219 633.169L302.874 304.216L440.141 302.03L500.05 634.262Z" fill="#FBF9FB"/>
<path d="M558.409 635.59C563.64 639.376 573.021 638.972 579.267 634.666C579.267 634.666 580.113 634.08 585.734 628.798C621.805 594.84 629.052 543.954 601.922 515.135C587.166 499.457 556.34 497.687 556.34 497.687C548.766 497.258 547.582 500.563 553.685 505.065C553.685 505.065 563.522 512.299 573.737 523.15C600.868 551.969 591.655 577.964 555.585 611.91L553.997 615.891C551.187 622.93 553.178 631.803 558.409 635.59Z" fill="#190F19"/>
<path d="M440.377 316.707C440.377 316.707 504.125 333.061 575.419 585.095C575.419 585.095 594.17 655.496 564.385 658.307H321.666C321.666 658.307 315.043 592.134 360.274 610.44H392.323C392.323 610.44 363.032 466.175 462.329 488.71" fill="#FBF9FB"/>
<path d="M564.514 661H319.245L318.998 658.58C318.842 657.071 315.498 621.512 332.322 608.904C339.505 603.531 349.082 603.141 360.793 607.76H389.108C387.976 601.15 385.608 585.186 385.608 566.658C385.621 534.222 392.713 510.855 406.701 497.193C419.843 484.351 438.763 480.617 462.914 486.108C464.358 486.433 465.256 487.877 464.931 489.309C464.606 490.74 463.161 491.651 461.73 491.325C439.466 486.277 422.211 489.53 410.448 501.018C379.44 531.308 394.782 609.126 394.938 609.906L395.588 613.12H359.739L359.258 612.925C349.186 608.852 341.21 608.93 335.536 613.185C323.383 622.28 323.721 647.677 324.151 655.626H564.228C568.171 655.223 571.202 653.428 573.493 650.136C585.256 633.248 572.933 586.253 572.803 585.784C552.738 514.836 520.298 417.879 479.804 359.161C455.588 324.045 439.817 319.335 439.661 319.283C438.243 318.892 437.397 317.422 437.774 316.004C438.152 314.586 439.596 313.727 441.014 314.091C443.682 314.781 507.078 333.712 577.969 584.353C578.515 586.422 591.059 634.276 577.891 653.193C574.664 657.825 570.201 660.44 564.618 660.974L564.514 661Z" fill="#190F19"/>
<path d="M280.286 488.71C379.583 466.175 350.292 610.44 350.292 610.44H382.342C427.573 592.133 420.949 658.307 420.949 658.307H178.244C148.459 655.496 167.209 585.095 167.209 585.095C238.491 333.061 302.251 316.707 302.251 316.707" fill="#FBF9FB"/>
<path d="M423.381 661L177.982 660.987C172.4 660.453 167.924 657.838 164.71 653.206C151.541 634.289 164.072 586.435 164.618 584.405C235.523 333.725 298.919 314.794 301.586 314.104C303.017 313.74 304.475 314.599 304.852 316.03C305.23 317.461 304.358 318.918 302.926 319.296C302.796 319.335 287.025 324.045 262.809 359.161C222.315 417.866 189.875 514.823 169.797 585.823C169.68 586.252 157.358 633.248 169.121 650.136C171.411 653.428 174.443 655.223 178.386 655.626H418.476C418.905 647.664 419.243 622.28 407.09 613.185C401.417 608.943 393.427 608.852 383.368 612.925L382.887 613.12H347.038L347.689 609.906C347.845 609.126 363.186 531.308 332.178 501.018C320.428 489.53 303.174 486.277 280.897 491.325C279.452 491.65 278.021 490.753 277.682 489.309C277.357 487.864 278.255 486.433 279.699 486.108C303.863 480.63 322.783 484.351 335.913 497.193C349.901 510.854 356.993 534.235 357.006 566.658C357.019 585.186 354.65 601.163 353.505 607.759H381.82C393.531 603.141 403.108 603.518 410.291 608.904C427.116 621.512 423.772 657.071 423.616 658.58L423.381 661Z" fill="#190F19"/>
<path d="M209.494 194.105C209.494 194.105 277.821 327.427 328.114 366.226C328.114 366.226 378.081 402.123 425.719 354.945C425.719 354.945 486.057 279.365 516.363 168.265C516.363 168.265 516.428 116.235 432.499 108.376C432.499 108.376 374.685 103.211 347.242 103.224C286.448 103.25 235.154 117.003 235.154 117.003C235.154 117.003 188.635 134.893 209.494 194.105Z" fill="#FBF9FB"/>
<path d="M371.055 382.307C366.553 382.307 362.35 381.891 358.564 381.266C339.644 378.105 326.892 369.075 326.358 368.685C305.122 352.304 278.577 318.177 247.373 267.187C224.211 229.351 206.983 195.809 206.814 195.484L206.658 195.107C185.057 133.826 233.593 114.361 234.088 114.179L234.387 114.075C234.908 113.932 286.762 100.219 347.256 100.193C347.295 100.193 347.321 100.193 347.36 100.193C374.66 100.193 432.213 105.306 432.786 105.358C457.34 107.661 490.365 115.441 508.348 139.459C519.305 154.084 519.409 167.706 519.409 168.278V168.682L519.305 169.072C489.181 279.508 428.713 356.09 428.114 356.845L427.88 357.105C407.854 376.908 387.399 382.307 371.055 382.307ZM212.279 192.908C215.168 198.516 281.622 326.53 329.962 363.845C330.001 363.871 342.194 372.471 359.787 375.346C383.118 379.158 404.536 371.612 423.469 352.942C426.319 349.299 484.106 274.694 513.332 167.927C513.228 165.819 512.226 154.591 503.247 142.777C490.014 125.369 465.447 114.518 432.213 111.395C431.654 111.343 374.204 106.308 347.23 106.256C289.247 106.282 239.332 119.045 236.092 119.891C232.93 121.166 193.216 138.484 212.279 192.908Z" fill="#190F19"/>
<path d="M250.331 117.289H168.782C158.008 117.289 140.507 118.707 129.876 120.438C129.876 120.438 102.081 124.966 115.835 164.362C136.824 224.486 185.633 265.327 185.633 265.327C193.896 272.235 200.858 269.087 201.118 258.314C201.118 258.314 203.005 180.548 250.331 117.289Z" fill="#FBF9FB"/>
<path d="M193.753 272.014C191.176 272.014 187.754 271.038 183.694 267.643C183.2 267.226 134 225.566 112.972 165.351C107.663 150.142 107.637 137.95 112.907 129.103C118.763 119.267 128.965 117.51 129.394 117.432C140.181 115.676 157.865 114.245 168.795 114.245H256.381L252.764 119.085C206.596 180.795 204.176 257.611 204.163 258.379C203.954 267.057 199.986 270.128 197.644 271.195C196.707 271.624 195.405 272.014 193.753 272.014ZM168.782 120.308C158.125 120.308 140.884 121.7 130.357 123.417C130.045 123.469 122.419 124.874 118.047 132.291C113.792 139.525 114 149.972 118.685 163.361C139.153 222.014 187.091 262.594 187.572 262.998C190.539 265.483 193.362 266.485 195.132 265.691C196.902 264.897 198.008 262.113 198.099 258.236C198.112 257.468 200.428 182.695 244.397 120.295H168.782V120.308Z" fill="#190F19"/>
<path d="M445.318 107.128L524.472 87.5074C534.921 84.9182 552.267 82.0818 563.002 81.1971C563.002 81.1971 591.069 78.8942 587.205 120.464C581.297 183.866 543.743 235.259 543.743 235.259C537.393 243.95 529.859 242.571 527.023 232.188C527.023 232.188 506.489 157.154 445.318 107.128Z" fill="#190F19"/>
<path d="M535.13 244.002C534.518 244.002 533.971 243.937 533.516 243.859C530.979 243.39 526.398 241.36 524.095 232.981C523.887 232.24 503.067 158.26 443.406 109.469L438.734 105.644L523.744 84.5796C534.362 81.9514 551.85 79.0891 562.755 78.1913C563.184 78.1523 573.516 77.4107 581.557 85.5554C588.792 92.8676 591.707 104.707 590.211 120.75C584.303 184.243 546.567 236.52 546.177 237.041C542 242.779 537.875 244.002 535.13 244.002ZM451.812 108.637C509.495 158.624 529.729 230.64 529.938 231.381C530.953 235.115 532.709 237.548 534.609 237.9C536.509 238.238 539.02 236.599 541.297 233.476C541.662 232.968 578.435 181.979 584.186 120.19C585.5 106.009 583.171 95.795 577.25 89.81C571.161 83.6559 563.314 84.2283 563.236 84.2283C552.605 85.1001 535.546 87.8974 525.188 90.4605L451.812 108.637Z" fill="#190F19"/>
<path d="M330.304 272.717C330.304 272.717 347.78 308.51 357.448 315.119C357.448 315.119 366.869 323.654 376.095 312.725C376.095 312.725 390.122 291.283 394.013 265.873C394.013 265.873 395.015 257.026 377.955 257.013C361.104 257 340.506 256.518 340.506 256.518C340.506 256.518 325.854 257.039 330.304 272.717Z" fill="#190F19"/>
<path d="M282.483 207.48C287.37 207.48 291.331 203.519 291.331 198.633C291.331 193.747 287.37 189.786 282.483 189.786C277.596 189.786 273.635 193.747 273.635 198.633C273.635 203.519 277.596 207.48 282.483 207.48Z" fill="#190F19"/>
<path d="M437.657 207.48C442.544 207.48 446.505 203.519 446.505 198.633C446.505 193.747 442.544 189.786 437.657 189.786C432.77 189.786 428.809 193.747 428.809 198.633C428.809 203.519 432.77 207.48 437.657 207.48Z" fill="#190F19"/>
<path d="M221.64 204.943C203.37 204.943 197.788 218.878 209.226 235.909L257.853 308.327C269.291 325.358 287.937 325.306 299.297 308.197L347.234 236.026C358.594 218.93 352.947 204.93 334.678 204.93H221.64V204.943Z" fill="#007347"/>
<path d="M278.529 323.667C269.811 323.667 261.691 318.736 255.68 309.784L207.053 237.366C200.599 227.751 198.959 218.344 202.563 211.578C205.738 205.632 212.505 202.354 221.626 202.354H334.677C343.786 202.354 350.565 205.632 353.766 211.591C357.41 218.383 355.822 227.816 349.394 237.483L301.457 309.641C295.458 318.671 287.339 323.641 278.581 323.667C278.568 323.667 278.555 323.667 278.529 323.667ZM221.639 207.545C214.535 207.545 209.395 209.848 207.17 214.011C204.489 219.034 206.025 226.476 211.386 234.452L260.013 306.87C265.023 314.338 271.607 318.45 278.542 318.45C278.555 318.45 278.568 318.45 278.581 318.45C285.543 318.437 292.127 314.273 297.124 306.753L345.061 234.595C350.383 226.58 351.88 219.086 349.173 214.038C346.922 209.848 341.769 207.532 334.677 207.532H221.639V207.545Z" fill="#190F19"/>
<path d="M221.64 204.943C203.37 204.943 197.788 218.878 209.226 235.909L257.853 308.327C269.291 325.358 287.937 325.306 299.297 308.197L347.234 236.026C358.594 218.93 352.947 204.93 334.678 204.93H221.64V204.943Z" fill="#36498C"/>
<path d="M278.529 323.667C269.811 323.667 261.691 318.736 255.68 309.784L207.053 237.366C200.599 227.751 198.959 218.344 202.563 211.578C205.738 205.632 212.505 202.354 221.626 202.354H334.677C343.786 202.354 350.565 205.632 353.766 211.591C357.41 218.383 355.822 227.816 349.394 237.483L301.457 309.641C295.458 318.671 287.339 323.641 278.581 323.667C278.568 323.667 278.555 323.667 278.529 323.667ZM221.639 207.545C214.535 207.545 209.395 209.848 207.17 214.011C204.489 219.034 206.025 226.476 211.386 234.452L260.013 306.87C265.023 314.338 271.607 318.45 278.542 318.45C278.555 318.45 278.568 318.45 278.581 318.45C285.543 318.437 292.127 314.273 297.124 306.753L345.061 234.595C350.383 226.58 351.88 219.086 349.173 214.038C346.922 209.848 341.769 207.532 334.677 207.532H221.639V207.545Z" fill="#190F19"/>
<path d="M389.288 204.943C371.019 204.943 365.437 218.878 376.874 235.909L425.501 308.327C436.939 325.358 455.586 325.306 466.946 308.197L514.883 236.026C526.243 218.93 520.595 204.93 502.326 204.93H389.288V204.943Z" fill="#007347"/>
<path d="M446.191 323.667C437.473 323.667 429.353 318.736 423.342 309.784L374.715 237.366C368.261 227.751 366.621 218.344 370.226 211.578C373.401 205.632 380.167 202.354 389.289 202.354H502.34C511.448 202.354 518.228 205.632 521.429 211.591C525.072 218.383 523.485 227.816 517.056 237.483L469.119 309.641C463.12 318.671 455.001 323.641 446.243 323.667C446.23 323.667 446.204 323.667 446.191 323.667ZM389.289 207.545C382.184 207.545 377.044 209.848 374.819 214.011C372.138 219.034 373.674 226.476 379.035 234.451L427.662 306.87C432.685 314.338 439.256 318.45 446.191 318.45C446.204 318.45 446.217 318.45 446.23 318.45C453.192 318.437 459.776 314.273 464.773 306.753L512.71 234.595C518.032 226.58 519.529 219.086 516.822 214.037C514.571 209.848 509.418 207.532 502.327 207.532H389.289V207.545Z" fill="#190F19"/>
<path d="M389.288 204.943C371.019 204.943 365.437 218.878 376.874 235.909L425.501 308.327C436.939 325.358 455.586 325.306 466.946 308.197L514.883 236.026C526.243 218.93 520.595 204.93 502.326 204.93H389.288V204.943Z" fill="#36498C"/>
<path d="M446.191 323.667C437.473 323.667 429.353 318.736 423.342 309.784L374.715 237.366C368.261 227.751 366.621 218.344 370.226 211.578C373.401 205.632 380.167 202.354 389.289 202.354H502.34C511.448 202.354 518.228 205.632 521.429 211.591C525.072 218.383 523.485 227.816 517.056 237.483L469.119 309.641C463.12 318.671 455.001 323.641 446.243 323.667C446.23 323.667 446.204 323.667 446.191 323.667ZM389.289 207.545C382.184 207.545 377.044 209.848 374.819 214.011C372.138 219.034 373.674 226.476 379.035 234.451L427.662 306.87C432.685 314.338 439.256 318.45 446.191 318.45C446.204 318.45 446.217 318.45 446.23 318.45C453.192 318.437 459.776 314.273 464.773 306.753L512.71 234.595C518.032 226.58 519.529 219.086 516.822 214.037C514.571 209.848 509.418 207.532 502.327 207.532H389.289V207.545Z" fill="#190F19"/>
<path d="M334.843 207.962C333.998 207.962 333.165 207.611 332.566 206.934C331.46 205.672 331.59 203.773 332.853 202.667C341.974 194.691 353.646 190.748 365.735 191.555C375.442 192.205 384.485 195.849 391.915 202.094C393.191 203.174 393.36 205.074 392.28 206.362C391.2 207.637 389.3 207.806 388.012 206.726C381.584 201.313 373.737 198.152 365.331 197.592C354.856 196.89 344.733 200.312 336.834 207.234C336.262 207.715 335.546 207.962 334.843 207.962Z" fill="#190F19"/>
<path d="M331.775 323.277C331.775 323.277 378.62 323.277 390.331 346.697Z" fill="#FBF9FB"/>
<path d="M338.732 340.687C339.731 340.213 340.957 340.307 341.897 341.042C360.805 355.827 401.272 336.906 401.677 336.728C403.182 336.013 404.985 336.655 405.705 338.171C406.419 339.675 405.778 341.478 404.273 342.193C402.475 343.047 360.016 362.9 338.174 345.821C336.862 344.788 336.627 342.897 337.654 341.573C337.948 341.16 338.32 340.883 338.732 340.687Z" fill="#190F19"/>
<path d="M282.744 460.373C282.744 460.373 376.368 479.29 426.738 440.284C445.32 425.894 440.063 403.788 419.256 407.64C392.581 412.571 347.402 431.02 292.49 427.82" fill="#FBF9FB"/>
<path d="M334.479 467.984C305.475 467.984 283.094 463.534 282.144 463.339C280.504 463.014 279.45 461.413 279.776 459.774C280.101 458.135 281.702 457.081 283.341 457.406C284.265 457.588 376.21 475.582 424.876 437.89C434.635 430.33 436.548 421.21 434.193 415.94C432.085 411.243 426.854 409.305 419.801 410.606C412.97 411.868 404.915 414.028 395.598 416.539C369.352 423.591 333.412 433.232 292.32 430.825C290.654 430.734 289.379 429.303 289.47 427.624C289.574 425.959 290.992 424.697 292.671 424.788C332.801 427.13 368.194 417.632 394.037 410.697C403.484 408.16 411.655 405.974 418.708 404.66C428.571 402.838 436.431 406.13 439.723 413.468C443.132 421.08 441.011 433.05 428.598 442.665C413.868 454.075 385.826 467.724 335.872 467.971C335.403 467.984 334.948 467.984 334.479 467.984Z" fill="#190F19"/>
<path d="M466.658 463.638C466.658 463.638 373.034 482.556 322.664 443.55C304.082 429.16 309.339 407.054 330.146 410.905C356.821 415.836 402 434.286 456.912 431.085" fill="#FBF9FB"/>
<path d="M414.92 471.25C414.465 471.25 413.996 471.25 413.541 471.25C385.968 471.119 347.503 466.618 320.815 445.943C308.401 436.328 306.28 424.345 309.689 416.747C312.981 409.409 320.828 406.104 330.704 407.939C337.77 409.24 345.929 411.439 355.376 413.976C381.218 420.911 416.625 430.409 456.742 428.067C458.368 427.962 459.838 429.238 459.943 430.903C460.047 432.568 458.771 434 457.106 434.104C416 436.511 380.06 426.857 353.827 419.818C344.497 417.32 336.443 415.147 329.624 413.885C322.572 412.584 317.341 414.522 315.233 419.219C312.877 424.489 314.777 433.609 324.549 441.168C373.229 478.874 465.174 460.867 466.097 460.685C467.737 460.36 469.324 461.413 469.663 463.053C469.988 464.692 468.934 466.279 467.295 466.618C466.306 466.787 443.924 471.25 414.92 471.25Z" fill="#190F19"/>
</svg>
