<?xml version="1.0" encoding="utf-8"?>
<!-- Generator: Adobe Illustrator 22.1.0, SVG Export Plug-In . SVG Version: 6.00 Build 0)  -->
<svg version="1.1" id="Слой_1" xmlns="http://www.w3.org/2000/svg" xmlns:xlink="http://www.w3.org/1999/xlink" x="0px" y="0px"
	 viewBox="0 0 579.6 515.9" style="enable-background:new 0 0 579.6 515.9;" xml:space="preserve">
<style type="text/css">
	.st0{fill:#FBF9FB;}
	.st1{fill:#190F19;}
	.st2{fill:#593399;}
</style>
<path class="st0" d="M300.9,482.9c67.2,0,121.6-82.4,121.6-184s-54.5-184-121.6-184s-121.6,82.4-121.6,184S233.8,482.9,300.9,482.9z
	"/>
<path class="st1" d="M338.2,442.1c0.3,2.6,0,0,2.4,0.9c8.9-21.2,9.2-44.3,24.1-70l15.8-25.1c-2.4-2.8-5.2-5.3-8.4-7.3
	c-20.2-12.7-36.5-23-64,20.6C293.1,385.2,334.9,416.8,338.2,442.1z"/>
<path class="st0" d="M94.6,141.6c0,0,98.5,114.3,156.9,140.4c0,0,57.4,23.3,92.9-34.2c0,0,41.2-88.3,44.5-204.2
	c0,0-12.3-51-96.3-38.8c0,0-57.8,8.6-84.7,15.1c-59.5,14.4-106.5,40-106.5,40S60.2,88.6,94.6,141.6z"/>
<path class="st1" d="M278.9,289.8c-16.3,0-28-4.7-28.5-4.9c-24.7-11-58.7-38.1-101.3-80.7c-31.6-31.6-56.4-60.3-56.7-60.6l-0.2-0.3
	c-35.6-54.9,7.2-85.4,7.7-85.7l0.3-0.2c0.5-0.3,48-26,107.2-40.3c26.7-6.5,84.4-15.1,85-15.2c24.6-3.6,58.8-3.8,82,15.5
	c14.2,11.7,17.5,25,17.7,25.6l0.1,0.4l0,0.4c-3.3,115.3-44.4,204.5-44.8,205.4l-0.2,0.3c-19,30.8-44.3,38.8-62.1,40.1
	C282.8,289.7,280.8,289.8,278.9,289.8z M97.1,139.8c4.2,4.8,99.5,114.4,155.7,139.5c0,0,14,5.5,31.9,4.2c23.7-1.8,42.9-14.2,57-37
	c1.9-4.2,40.8-91,44.2-202.4c-0.6-2-4.2-12.8-15.8-22.2C353,7.9,326.4,3.1,293.1,7.9c-0.6,0.1-58,8.7-84.4,15.1
	C151.9,36.7,106.1,61,103.1,62.6C100.3,64.6,65.5,91,97.1,139.8z"/>
<path class="st0" d="M101.9,62l-64.7,50.6c-8.5,6.7-21.6,18.7-28.9,26.6c0,0-19.2,20.8,16.1,43.6c54,34.7,118,36.8,118,36.8
	c10.8,0.4,14.4-6.5,7.9-15.2C150.4,204.4,103.6,141.6,101.9,62z"/>
<path class="st1" d="M143.3,222.7c-0.3,0-0.6,0-0.9,0c-0.7,0-65.5-2.5-119.6-37.3C9.1,176.6,1.5,167,0.2,156.7
	c-1.5-11.4,5.5-19.2,5.8-19.5c7.5-8.1,20.6-20.2,29.3-27l69.5-54.3l0.1,6.1c1.7,77.7,47.4,140,47.9,140.7c5.2,7,4,11.9,2.8,14.2
	C154.4,219.1,151.3,222.7,143.3,222.7z M99.1,68.1l-60,46.9c-8.5,6.6-21.3,18.4-28.6,26.3c-0.2,0.2-5.4,6.1-4.3,14.7
	c1.1,8.4,7.8,16.5,19.8,24.3c52.6,33.8,115.9,36.3,116.5,36.3c3.9,0.1,6.8-0.8,7.7-2.6c0.9-1.7,0.1-4.6-2.3-7.8
	C147.5,205.6,102.9,144.9,99.1,68.1z"/>
<path class="st1" d="M306.8,3.8l82.1,0.8c10.9,0.1,28.5,1.7,39.2,3.5c0,0,28,4.8,13.7,44.4c-21.7,60.4-71.2,101-71.2,101
	c-8.4,6.9-15.4,3.6-15.5-7.2C355,146.3,353.9,68,306.8,3.8z"/>
<path class="st1" d="M362.4,160.2c-1.7,0-3.1-0.4-4-0.9c-2.4-1.1-6.3-4.2-6.4-13c0-0.8-1.7-78.2-47.7-140.8l-3.6-4.9L389,1.6
	c11,0.1,28.8,1.7,39.6,3.6c0.4,0.1,10.7,1.9,16.5,11.9c5.2,9,5.1,21.2-0.4,36.5C422.9,114,373,155.5,372.5,155.9
	C368.4,159.2,365,160.2,362.4,160.2z M312.7,6.9c43.7,63.3,45.3,138.6,45.3,139.4c0.1,3.9,1.2,6.7,2.9,7.5c1.8,0.8,4.6-0.2,7.6-2.6
	c0.5-0.4,49.2-40.9,70.3-99.7c4.8-13.4,5.2-24,0.9-31.3c-4.3-7.5-12-9-12.3-9.1c-10.6-1.8-27.9-3.4-38.7-3.5L312.7,6.9z"/>
<path class="st1" d="M231.5,190c0,0,25.6,30.9,36.6,35.1c0,0,11.2,6.1,17.7-6.8c0,0,8.7-24.3,6.4-50.1c0,0-1.1-8.9-17.8-4.9
	c-16.5,4-36.8,8.4-36.8,8.4S223.4,175.7,231.5,190z"/>
<path class="st1" d="M295.5,123.9c4.9,0,8.9-4,8.9-8.9c0-4.9-4-8.9-8.9-8.9c-4.9,0-8.9,4-8.9,8.9
	C286.5,119.9,290.5,123.9,295.5,123.9z"/>
<path class="st1" d="M181.4,153.8c4.9,0,8.9-4,8.9-8.9s-4-8.9-8.9-8.9s-8.9,4-8.9,8.9S176.5,153.8,181.4,153.8z"/>
<path class="st0" d="M297.6,241.6c-20.7,8.4-24.4-13-24.4-13s-22.7,4.1-30.9-7.8"/>
<path class="st1" d="M288.7,246.6c-3,0-5.8-0.7-8.3-2.1c-5.7-3.1-8.4-9-9.5-12.6c-6.7,0.7-23.7,1.4-31.2-9.5c-1-1.4-0.6-3.3,0.8-4.2
	c1.4-1,3.3-0.6,4.2,0.8c7,10.2,27.7,6.6,27.9,6.6l3-0.5l0.5,3c0,0.1,1.5,8,7.2,11.2c3.4,1.9,7.8,1.7,13.1-0.4c1.6-0.6,3.3,0.1,4,1.7
	c0.6,1.6-0.1,3.3-1.7,4C295.2,245.9,291.8,246.6,288.7,246.6z"/>
<path class="st0" d="M249.8,473.7c0,0-158.3,17.4-201.9-4.5c-27.3-13.7-20.1-32.3-7.2-37.4c7.7-3.1,18.2,3.8,22.3,5.1
	c4.5,1.5,10.2,1.9,17.2,0.1c23.9-6.2,26-98.1,67.9-107.5C253.2,306,249.8,473.7,249.8,473.7z"/>
<path class="st1" d="M133.5,482.8c-42.6,0-71.8-3.8-86.8-11.3c-17.9-9-20.2-19.4-20-24.8c0.3-7.4,5.4-14.1,13-17.1
	c7-2.8,15.2,1,20.6,3.6c1.4,0.7,2.6,1.2,3.4,1.5c4.7,1.5,10,1.5,15.8,0c9-2.3,15.2-20.8,21.9-40.4c9.8-28.8,20.8-61.4,46.1-67.1
	c24.2-5.4,44.8-1.4,61.2,12.1c19,15.5,32.1,42.9,38.9,81.5c5.1,28.5,4.6,52.8,4.6,53.1l0,2.1l-2.1,0.2c-0.4,0-40.2,4.4-84.8,6
	C154,482.6,143.4,482.8,133.5,482.8z M45,433.5c-1.2,0-2.4,0.2-3.5,0.6c-5.8,2.3-9.7,7.3-9.9,12.8c-0.3,7.3,5.8,14.5,17.3,20.2
	c39.8,19.9,179.2,6.4,198.4,4.4c-0.1-14.4-2.2-96.1-41.8-128.5c-15.2-12.4-34.4-16.2-57-11.1c-22.6,5.1-33.2,36.3-42.5,63.9
	c-7.4,21.8-13.7,40.6-25.3,43.6c-6.7,1.8-13,1.7-18.6-0.1c-1.1-0.4-2.4-1-3.9-1.7C54.5,435.9,49.4,433.5,45,433.5z"/>
<path class="st0" d="M356.5,473.7c0,0,158.3,17.4,201.9-4.5c27.3-13.7,20.1-32.3,7.2-37.4c-7.7-3.1-18.2,3.8-22.3,5.1
	c-4.5,1.5-10.2,1.9-17.2,0.1c-23.9-6.2-26-98.1-67.9-107.5C353.1,306,356.5,473.7,356.5,473.7z"/>
<path class="st1" d="M472.8,482.8c-9.9,0-20.5-0.2-31.8-0.6c-44.6-1.6-84.4-5.9-84.8-6l-2.1-0.2l0-2.1c0-0.2-0.4-24.6,4.6-53.1
	c6.9-38.5,19.9-65.9,38.9-81.5c16.4-13.4,37-17.5,61.2-12.1c25.3,5.7,36.3,38.3,46.1,67.1c6.6,19.6,12.9,38.1,21.9,40.4
	c5.8,1.5,11.1,1.5,15.8,0c0.8-0.3,2-0.8,3.4-1.5c5.4-2.5,13.6-6.4,20.6-3.6c7.6,3,12.7,9.8,13,17.1c0.2,5.4-2.1,15.8-20,24.8
	C544.6,479,515.4,482.8,472.8,482.8z M359,471.5c19.2,2,158.6,15.5,198.4-4.4c11.5-5.7,17.6-12.9,17.3-20.2
	c-0.2-5.4-4.1-10.4-9.9-12.8c-5-2-12,1.3-16.7,3.5c-1.5,0.7-2.9,1.3-3.9,1.7c-5.6,1.8-11.8,1.9-18.6,0.1
	c-11.5-3-17.9-21.8-25.3-43.6c-9.3-27.6-19.9-58.8-42.5-63.9c-22.6-5.1-41.8-1.3-57,11.1C361.2,375.4,359,457.2,359,471.5z"/>
<path class="st0" d="M403.7,202c48.4,35.9,34.6,104.8,34.6,104.8c-37.5,239.8-123.8,213.5-137.3,195.7c-13.5-17.8,2.1-33.9,2.1-33.9
	c47.1-18.4,67-156.7,67-156.7"/>
<path class="st1" d="M327.7,515.9c-14.2,0-24.7-6.6-28.8-11.9c-14.6-19.3,2.1-36.9,2.3-37.1l0.4-0.4l0.5-0.2
	c45.2-17.6,65.3-153.4,65.5-154.7c0.2-1.3,1.4-2.3,2.8-2.1c1.3,0.2,2.3,1.4,2.1,2.8c-0.8,5.7-20.5,138.9-68,158.4
	c-2.1,2.4-12.7,15.7-1.6,30.4c4.3,5.7,17.8,13.1,35.5,8.6c25.5-6.4,72.1-41.4,97.5-203.2c0.2-0.8,12.9-67.9-33.6-102.5
	c-1.1-0.8-1.3-2.3-0.5-3.4c0.8-1.1,2.3-1.3,3.4-0.5c49.1,36.4,35.6,106.6,35.5,107.3c-10.8,68.8-26.5,121.8-46.8,157.4
	c-11,19.2-29.3,43.5-54.3,49.8C335.4,515.5,331.5,515.9,327.7,515.9z"/>
<path class="st0" d="M239.1,311.9c0,0,19.9,138.3,67,156.7c0,0,15.6,16.1,2.1,33.9c-13.5,17.8-99.8,29.9-137.3-209.8l-6.4-53.5"/>
<path class="st1" d="M286.8,513.4c-4,0-7.9-0.5-11.4-1.4c-14.2-3.6-35.6-15.5-56.7-52.1c-21.9-37.9-38.8-94.1-50.2-166.8l-6.5-53.5
	c-0.2-1.4,0.8-2.6,2.1-2.7c1.4-0.2,2.6,0.8,2.7,2.1l6.4,53.5c11.3,72.1,28,127.6,49.6,165c20.2,35.1,40.4,46.4,53.7,49.8
	c15.4,3.9,26.2-1.6,29.7-6.2c11.1-14.7,0.5-28-1.6-30.4c-20.1-8.2-37.6-37.4-52.1-86.6c-10.8-36.6-15.9-71.5-15.9-71.8
	c-0.2-1.3,0.7-2.6,2.1-2.8c1.3-0.2,2.6,0.7,2.8,2.1c0.2,1.4,20.3,137.1,65.5,154.7l0.5,0.2l0.4,0.4c0.2,0.2,16.9,17.9,2.3,37.1
	C305.1,510.7,295.8,513.4,286.8,513.4z"/>
<path class="st2" d="M130.2,149c-18.4,1.2-23.1,15.5-10.5,31.9l53.5,69.7c12.6,16.4,31.3,15.2,41.6-2.8l43.6-75.6
	c10.3-17.9,3.8-31.6-14.6-30.5L130.2,149z"/>
<path class="st1" d="M193.4,264.8c-8.2,0-16.1-4.4-22.4-12.6l-53.5-69.7c-7.1-9.3-9.3-18.6-6.1-25.6c2.8-6.2,9.4-9.9,18.6-10.5
	l113.6-7.1c9.1-0.6,16.2,2.3,19.8,8.1c4.1,6.6,3.1,16.2-2.8,26.3l-43.6,75.6c-5.5,9.4-13.3,15-22.1,15.5
	C194.5,264.8,193.9,264.8,193.4,264.8z M245.9,144.4c-0.6,0-1.3,0-1.9,0.1l-113.6,7.1c-7.1,0.4-12.2,3.1-14.1,7.4
	c-2.4,5.2-0.4,12.6,5.5,20.3l53.5,69.7c5.5,7.2,12.4,10.9,19.4,10.5c7-0.5,13.4-5,17.9-12.9l43.6-75.6c4.8-8.4,5.9-16,2.8-20.9
	C256.7,146.4,252.1,144.4,245.9,144.4z"/>
<path class="st2" d="M130.2,149c-18.4,1.2-23.1,15.5-10.5,31.9l53.5,69.7c12.6,16.4,31.3,15.2,41.6-2.8l43.6-75.6
	c10.3-17.9,3.8-31.6-14.6-30.5L130.2,149z"/>
<path class="st1" d="M193.4,264.8c-8.2,0-16.1-4.4-22.4-12.6l-53.5-69.7c-7.1-9.3-9.3-18.6-6.1-25.6c2.8-6.2,9.4-9.9,18.6-10.5
	l113.6-7.1c9.1-0.6,16.2,2.3,19.8,8.1c4.1,6.6,3.1,16.2-2.8,26.3l-43.6,75.6c-5.5,9.4-13.3,15-22.1,15.5
	C194.5,264.8,193.9,264.8,193.4,264.8z M245.9,144.4c-0.6,0-1.3,0-1.9,0.1l-113.6,7.1c-7.1,0.4-12.2,3.1-14.1,7.4
	c-2.4,5.2-0.4,12.6,5.5,20.3l53.5,69.7c5.5,7.2,12.4,10.9,19.4,10.5c7-0.5,13.4-5,17.9-12.9l43.6-75.6c4.8-8.4,5.9-16,2.8-20.9
	C256.7,146.4,252.1,144.4,245.9,144.4z"/>
<path class="st2" d="M298.7,138.4c-18.4,1.2-23.1,15.5-10.5,31.9l53.5,69.7c12.6,16.4,31.3,15.2,41.7-2.8l43.6-75.6
	c10.3-17.9,3.8-31.6-14.6-30.5L298.7,138.4z"/>
<path class="st1" d="M362,254.2c-8.2,0-16.1-4.4-22.4-12.6l-53.5-69.7c-7.1-9.3-9.3-18.6-6.1-25.6c2.8-6.2,9.4-9.9,18.6-10.5
	l113.6-7.1c9.1-0.6,16.2,2.3,19.8,8.1c4.1,6.6,3.1,16.2-2.8,26.3l-43.7,75.6c-5.5,9.4-13.3,15-22.1,15.5
	C363,254.2,362.5,254.2,362,254.2z M298.7,138.4l0.2,2.6c-7.1,0.4-12.2,3.1-14.1,7.4c-2.4,5.2-0.4,12.6,5.5,20.3l53.5,69.7
	c5.5,7.2,12.4,10.9,19.4,10.5c7-0.5,13.4-5,17.9-12.9l43.6-75.6c4.8-8.4,5.9-16,2.8-20.9c-2.5-4.1-7.8-6.1-15-5.6L298.9,141
	L298.7,138.4z"/>
<path class="st2" d="M298.7,138.4c-18.4,1.2-23.1,15.5-10.5,31.9l53.5,69.7c12.6,16.4,31.3,15.2,41.7-2.8l43.6-75.6
	c10.3-17.9,3.8-31.6-14.6-30.5L298.7,138.4z"/>
<path class="st1" d="M362,254.2c-8.2,0-16.1-4.4-22.4-12.6l-53.5-69.7c-7.1-9.3-9.3-18.6-6.1-25.6c2.8-6.2,9.4-9.9,18.6-10.5
	l113.6-7.1c9.1-0.6,16.2,2.3,19.8,8.1c4.1,6.6,3.1,16.2-2.8,26.3l-43.7,75.6c-5.5,9.4-13.3,15-22.1,15.5
	C363,254.2,362.5,254.2,362,254.2z M298.7,138.4l0.2,2.6c-7.1,0.4-12.2,3.1-14.1,7.4c-2.4,5.2-0.4,12.6,5.5,20.3l53.5,69.7
	c5.5,7.2,12.4,10.9,19.4,10.5c7-0.5,13.4-5,17.9-12.9l43.6-75.6c4.8-8.4,5.9-16,2.8-20.9c-2.5-4.1-7.8-6.1-15-5.6L298.9,141
	L298.7,138.4z"/>
<path class="st1" d="M245.2,142.6c-0.8,0-1.6-0.3-2.2-0.9c-1.2-1.2-1.2-3.1,0-4.3c7.6-7.5,17.1-10.9,30.8-10.9c0.1,0,0.2,0,0.3,0
	c10.3,0,16.3,1.9,23.6,7.3c1.3,1,1.6,2.9,0.6,4.3c-1,1.4-2.9,1.6-4.3,0.6c-6.3-4.7-11-6.1-20-6.1c-12.3,0-20.3,2.7-26.8,9.1
	C246.8,142.3,246,142.6,245.2,142.6z"/>
</svg>
