<svg width="600" height="626" viewBox="0 0 600 626" fill="none" xmlns="http://www.w3.org/2000/svg">
<g clip-path="url(#clip0_54_994)">
<path d="M282.724 477.037H389.835V572.442H282.724V477.037Z" fill="#FBF9FB"/>
<path d="M391.409 554V471.489C395.922 344.192 358.619 322.196 358.619 322.196L233.576 310.066C233.576 310.066 129.344 323.756 12.7868 534.733C12.7868 534.733 -17.8741 593.658 30.8236 596.027H427.647C427.647 596.027 438.472 540.625 364.511 555.949H312.11C312.11 555.949 359.998 387.404 197.652 406.266" fill="#FBF9FB"/>
<path d="M30.7486 599.16H430.241L430.736 596.626C430.901 595.741 434.784 574.93 420.96 561.255C414.648 555.018 405.817 551.405 394.557 550.415V471.503C399.085 343.921 361.827 320.441 360.238 319.496L359.638 319.136L233.546 306.901L233.186 306.946C232.092 307.096 205.869 310.815 165.057 340.742C127.739 368.106 70.5554 423.718 10.058 533.202C9.32336 534.627 -7.04919 566.548 3.92581 585.68C8.69363 593.987 17.7045 598.515 30.6886 599.145L30.7486 599.16ZM424.904 592.877H30.9135C20.2534 592.353 12.9967 588.874 9.36832 582.562C0.0875549 566.413 15.4256 536.471 15.5755 536.171C48.5005 476.586 101.741 395.185 168.191 346.215C205.464 318.746 230.577 313.754 233.666 313.229L357.494 325.239C361.692 328.477 392.353 356.216 388.26 471.383V550.13C381.139 550.055 373.042 550.985 364.196 552.814H316.173C320.251 535.961 333.011 471.098 299.471 431.664C278.735 407.285 244.371 397.689 197.322 403.161C195.598 403.356 194.369 404.916 194.564 406.64C194.759 408.364 196.348 409.579 198.042 409.399C242.872 404.181 275.377 413.042 294.688 435.728C304.958 447.798 316.908 470.663 315.484 511.026C314.629 535.466 309.186 554.913 309.126 555.108L308.002 559.096H364.871L365.186 559.036C374.257 557.162 382.353 556.293 389.415 556.412C390.434 557.267 392.144 557.357 393.238 556.592C403.373 557.357 411.17 560.401 416.582 565.739C425.443 574.525 425.383 587.465 424.904 592.877Z" fill="#190F19"/>
<path d="M173.258 543.323C178.476 548.631 179.631 559.397 175.807 567.238C175.807 567.238 175.283 568.303 170.23 575.62C137.77 622.58 81.0356 639.613 43.5228 613.674C23.1171 599.565 15.7705 564.749 15.7705 564.749C13.9713 556.203 17.5396 554.269 23.7168 560.446C23.7168 560.446 33.6573 570.402 47.7808 580.178C85.2937 606.117 113.316 591.123 145.776 544.178L150.049 541.689C157.591 537.281 168.026 538.015 173.258 543.323Z" fill="#190F19"/>
<path d="M381.244 373.324C383.148 371.03 383.987 379.517 386.836 380.116C390.089 400.673 391.859 427.152 390.659 461.143V495.073C386.641 496.333 382.443 497.008 378.095 497.008C350.837 497.008 328.737 497.008 328.737 438.097C328.722 405.561 362.592 395.71 381.244 373.324Z" fill="#190F19"/>
<path d="M484.022 133.814C484.022 133.814 405.292 287.455 347.344 332.167C347.344 332.167 289.77 373.535 234.88 319.167C234.88 319.167 165.357 232.068 130.438 104.037C130.438 104.037 130.363 44.0768 227.069 35.0206C227.069 35.0206 293.683 29.068 325.304 29.083C395.352 29.113 454.455 44.9614 454.455 44.9614C454.455 44.9614 508.056 65.5778 484.022 133.814Z" fill="#FBF9FB"/>
<path d="M297.867 350.698C303.054 350.698 307.897 350.219 312.26 349.499C334.06 345.855 348.753 335.45 349.368 335C373.837 316.123 404.423 276.794 440.376 218.034C467.064 174.432 486.915 135.778 487.11 135.403L487.29 134.968C512.179 64.3477 456.254 41.9171 455.684 41.7072L455.34 41.5872C454.74 41.4223 394.992 25.6189 325.289 25.5889C325.244 25.5889 325.199 25.5889 325.169 25.5889C293.698 25.5889 227.414 31.4814 226.739 31.5414C198.447 34.1953 160.394 43.1616 139.674 70.825C127.05 87.678 126.93 103.376 126.93 104.036V104.501L127.05 104.951C161.744 232.218 231.432 320.471 232.122 321.341L232.391 321.641C255.466 344.476 279.035 350.698 297.867 350.698ZM480.813 132.434C477.469 138.897 400.914 286.42 345.215 329.407C345.17 329.437 331.121 339.348 310.851 342.662C283.968 347.055 259.289 338.359 237.474 316.843C234.191 312.659 167.606 226.67 133.931 103.631C134.051 101.202 135.206 88.2628 145.551 74.6484C160.799 54.5868 189.106 42.082 227.399 38.4835C228.043 38.4235 294.028 32.561 325.184 32.561C325.229 32.561 325.259 32.561 325.304 32.561C392.113 32.591 449.627 47.2998 453.361 48.2744C457.019 49.7588 502.793 69.7155 480.813 132.434Z" fill="#190F19"/>
<path d="M436.973 45.293H530.935C543.35 45.293 563.515 46.9273 575.765 48.9215C575.765 48.9215 607.79 54.1393 591.942 99.5404C567.758 168.827 511.519 215.892 511.519 215.892C501.998 223.854 493.977 220.225 493.677 207.81C493.677 207.81 491.503 118.193 436.973 45.293Z" fill="#FBF9FB"/>
<path d="M502.163 223.598C505.132 223.598 509.075 222.474 513.753 218.561C514.323 218.081 571.012 170.071 595.241 100.68C601.358 83.152 601.388 69.1028 595.316 58.907C588.569 47.5718 576.814 45.5476 576.319 45.4576C563.89 43.4335 543.514 41.7842 530.92 41.7842H430.001L434.169 47.3619C487.365 118.477 490.154 207 490.169 207.885C490.409 217.886 494.982 221.424 497.68 222.654C498.76 223.149 500.259 223.598 502.163 223.598ZM530.935 48.7713C543.215 48.7713 563.08 50.3756 575.21 52.3548C575.57 52.4148 584.356 54.0341 589.393 62.5805C594.296 70.917 594.056 82.957 588.659 98.3856C565.06 165.977 509.84 212.743 509.285 213.208C505.867 216.072 502.613 217.226 500.574 216.311C498.535 215.397 497.261 212.188 497.156 207.72C497.141 206.835 494.472 120.666 443.81 48.7713H530.935Z" fill="#190F19"/>
<path d="M212.301 33.5808L121.097 10.9702C109.058 7.98649 89.0719 4.71785 76.7026 3.69828C76.7026 3.69828 44.3624 1.04438 48.8153 48.9494C55.6222 122.014 98.8925 181.239 98.8925 181.239C106.209 191.255 114.89 189.666 118.159 177.701C118.174 177.701 141.833 91.2318 212.301 33.5808Z" fill="#190F19"/>
<path d="M108.818 191.316C109.523 191.316 110.152 191.241 110.677 191.151C113.601 190.611 118.878 188.272 121.532 178.616C121.772 177.761 145.761 92.5067 214.505 36.2801L219.887 31.872L121.937 7.59707C109.703 4.56833 89.5517 1.26971 76.9874 0.235138C76.4927 0.190156 64.5881 -0.664494 55.3223 8.7216C46.9861 17.1481 43.6277 30.7924 45.3519 49.2797C52.1588 122.449 95.6389 182.694 96.0887 183.294C100.916 189.906 105.654 191.316 108.818 191.316ZM204.819 35.3205C138.354 92.9265 115.04 175.917 114.8 176.772C113.631 181.075 111.607 183.879 109.418 184.283C107.229 184.688 104.35 182.784 101.711 179.186C101.291 178.601 58.9207 119.84 52.2937 48.635C50.7794 32.2918 53.4632 20.5217 60.2851 13.6246C67.3019 6.53251 76.3427 7.19224 76.4327 7.19224C88.6821 8.19682 108.338 11.4205 120.273 14.3742L204.819 35.3205Z" fill="#190F19"/>
<path d="M470.033 127.936C491.083 127.936 497.515 143.994 484.336 163.621L428.307 247.076C415.128 266.703 393.643 266.643 380.554 246.926L325.319 163.756C312.23 144.054 318.737 127.921 339.787 127.921H470.033V127.936Z" fill="#009FE3"/>
<path d="M404.483 265.249C414.693 265.249 424.184 259.492 431.216 249.026L487.245 165.571C494.787 154.326 496.691 143.32 492.433 135.343C488.684 128.326 480.738 124.458 470.033 124.458H339.772C329.082 124.458 321.121 128.326 317.343 135.373C313.055 143.365 314.899 154.416 322.395 165.706L377.63 248.861C384.632 259.402 394.138 265.219 404.393 265.249C404.438 265.249 404.453 265.249 404.483 265.249ZM470.033 131.43C478.024 131.43 483.797 133.994 486.271 138.627C489.269 144.25 487.5 152.646 481.443 161.687L425.413 245.143C419.731 253.614 412.294 258.277 404.468 258.277C404.453 258.277 404.438 258.277 404.423 258.277C396.566 258.262 389.13 253.539 383.462 245.008L328.228 161.852C322.2 152.766 320.476 144.325 323.505 138.672C326.009 134.009 331.796 131.445 339.787 131.445H470.033V131.43Z" fill="#190F19"/>
<path d="M470.033 127.938C491.083 127.938 497.515 143.996 484.336 163.623L428.307 247.078C415.128 266.705 393.643 266.645 380.554 246.928L325.319 163.758C312.23 144.056 318.737 127.923 339.787 127.923H470.033V127.938Z" fill="#8585B9"/>
<path d="M404.483 264.755C414.528 264.755 423.884 259.072 430.811 248.757L486.84 165.301C494.277 154.221 496.166 143.38 492.013 135.584C488.355 128.732 480.558 124.953 470.048 124.953H339.787C329.292 124.953 321.481 128.732 317.793 135.599C313.594 143.425 315.424 154.296 322.83 165.436L378.065 248.592C384.977 258.997 394.333 264.725 404.423 264.755C404.438 264.755 404.453 264.755 404.483 264.755ZM470.033 130.936C478.219 130.936 484.142 133.59 486.705 138.388C489.794 144.175 488.025 152.752 481.848 161.943L425.818 245.398C420.031 254.004 412.459 258.742 404.468 258.742C404.453 258.742 404.438 258.742 404.423 258.742C396.402 258.727 388.815 253.929 383.058 245.263L327.823 162.108C321.691 152.871 319.952 144.235 323.085 138.418C325.679 133.59 331.601 130.921 339.787 130.921H470.033V130.936Z" fill="#190F19"/>
<path d="M276.861 127.936C297.912 127.936 304.344 143.994 291.165 163.621L235.135 247.076C221.956 266.703 200.471 266.643 187.382 246.926L132.147 163.756C119.058 144.054 125.565 127.921 146.616 127.921H276.861V127.936Z" fill="#009FE3"/>
<path d="M211.296 265.249C221.506 265.249 230.997 259.492 238.029 249.026L294.058 165.571C301.6 154.326 303.504 143.32 299.246 135.343C295.498 128.326 287.551 124.458 276.846 124.458H146.586C135.896 124.458 127.934 128.326 124.156 135.373C119.868 143.365 121.712 154.416 129.209 165.706L184.443 248.861C191.445 259.402 200.951 265.219 211.206 265.249C211.251 265.249 211.281 265.249 211.296 265.249ZM276.861 131.43C284.853 131.43 290.625 133.994 293.099 138.627C296.097 144.25 294.328 152.646 288.271 161.687L232.242 245.143C226.559 253.614 219.123 258.277 211.296 258.277C211.281 258.277 211.266 258.277 211.251 258.277C203.395 258.262 195.958 253.539 190.291 245.008L135.041 161.837C129.014 152.751 127.29 144.31 130.318 138.657C132.822 133.994 138.609 131.43 146.601 131.43H276.861Z" fill="#190F19"/>
<path d="M276.861 127.938C297.912 127.938 304.344 143.996 291.165 163.623L235.135 247.078C221.956 266.705 200.471 266.645 187.382 246.928L132.147 163.758C119.058 144.056 125.565 127.923 146.616 127.923H276.861V127.938Z" fill="#8585B9"/>
<path d="M211.296 264.755C221.342 264.755 230.697 259.072 237.624 248.757L293.654 165.301C301.09 154.221 302.979 143.38 298.826 135.584C295.168 128.732 287.371 124.953 276.861 124.953H146.601C136.105 124.953 128.294 128.732 124.606 135.599C120.408 143.425 122.237 154.296 129.643 165.436L184.878 248.592C191.79 258.997 201.146 264.725 211.236 264.755C211.251 264.755 211.281 264.755 211.296 264.755ZM276.861 130.936C285.047 130.936 290.97 133.59 293.534 138.388C296.622 144.175 294.853 152.752 288.676 161.943L232.646 245.398C226.859 254.004 219.287 258.742 211.296 258.742C211.281 258.742 211.266 258.742 211.251 258.742C203.23 258.727 195.643 253.929 189.886 245.263L134.651 162.108C128.519 152.871 126.78 144.235 129.913 138.418C132.507 133.59 138.429 130.921 146.616 130.921H276.861V130.936Z" fill="#190F19"/>
<path d="M344.84 224.406C344.84 224.406 324.704 265.654 313.564 273.271C313.564 273.271 302.709 283.107 292.079 270.512C292.079 270.512 275.917 245.803 271.434 216.52C271.434 216.52 270.279 206.324 289.935 206.309C309.351 206.294 333.086 205.739 333.086 205.739C333.086 205.739 349.953 206.339 344.84 224.406Z" fill="#190F19"/>
<path d="M399.925 149.228C394.294 149.228 389.73 144.664 389.73 139.033C389.73 133.402 394.294 128.837 399.925 128.837C405.556 128.837 410.12 133.402 410.12 139.033C410.12 144.664 405.556 149.228 399.925 149.228Z" fill="#190F19"/>
<path d="M221.132 149.228C215.501 149.228 210.936 144.664 210.936 139.033C210.936 133.402 215.501 128.837 221.132 128.837C226.762 128.837 231.327 133.402 231.327 139.033C231.327 144.664 226.762 149.228 221.132 149.228Z" fill="#190F19"/>
<path d="M339.593 131.431C340.567 131.431 341.527 131.026 342.216 130.247C343.476 128.792 343.341 126.603 341.887 125.329C331.376 116.138 317.927 111.595 303.999 112.524C292.814 113.274 282.394 117.472 273.833 124.669C272.363 125.914 272.168 128.103 273.413 129.587C274.657 131.057 276.846 131.251 278.331 130.007C285.737 123.77 294.763 120.126 304.464 119.481C316.533 118.672 328.198 122.615 337.299 130.592C337.958 131.146 338.783 131.431 339.593 131.431Z" fill="#190F19"/>
<path d="M284.718 308.733C277.373 308.733 271.419 302.778 271.419 295.433C271.419 288.088 277.373 282.134 284.718 282.134C292.062 282.134 298.016 288.088 298.016 295.433C298.016 302.778 292.062 308.733 284.718 308.733Z" fill="#FBF9FB"/>
<path d="M284.718 312.21C293.968 312.21 301.495 304.683 301.495 295.432C301.495 286.181 293.968 278.654 284.718 278.654C275.467 278.654 267.94 286.181 267.94 295.432C267.94 304.683 275.467 312.21 284.718 312.21ZM284.718 285.626C290.13 285.626 294.523 290.035 294.523 295.432C294.523 300.83 290.115 305.238 284.718 305.238C279.32 305.238 274.912 300.83 274.912 295.432C274.912 290.035 279.305 285.626 284.718 285.626Z" fill="#190F19"/>
</g>
<defs>
<clipPath id="clip0_54_994">
<rect width="600" height="626" fill="white"/>
</clipPath>
</defs>
</svg>
