<svg width="117" height="76" viewBox="0 0 117 76" fill="none" xmlns="http://www.w3.org/2000/svg">
<g clip-path="url(#clip0_727_7319)">
<path d="M33.6201 27.5C36.8066 26.1328 40.36 25.8757 43.7101 26.77C48.3901 27.94 52.9701 29.49 57.6001 30.89C61.2901 32 65.0301 32.76 68.8901 31.89C70.1152 31.6779 71.2861 31.2249 72.3348 30.5571C73.3836 29.8894 74.2895 29.0202 75.0001 28C75.21 27.674 75.3654 27.316 75.4601 26.94C70.5101 29.75 65.3601 31.29 59.6601 29.94C63.824 29.288 67.7537 27.5881 71.0801 25C74.1484 22.9879 77.6586 21.7492 81.3101 21.39C87.36 20.5807 93.5001 20.7394 99.5001 21.86C103.63 22.5837 107.659 23.799 111.5 25.48L112.15 25.79C109.96 25.88 107.97 25.98 105.98 26.03C97.318 26.2305 88.8371 28.5516 81.2801 32.79C78.6692 34.4298 75.8278 35.6702 72.8501 36.47C68.3375 37.2819 63.6975 37.0285 59.3001 35.73C54.4112 34.3792 49.6602 32.5712 45.1101 30.33C41.4601 28.66 37.7401 27.3 33.6201 27.5Z" fill="#FAFAFA"/>
<path d="M4.99985 11.7999C7.79985 11.6499 10.5999 11.4899 13.4099 11.3499C21.0663 10.8628 28.5174 8.67291 35.2198 4.93994C37.7758 3.50489 40.4527 2.29692 43.2198 1.32994C47.7398 -0.130064 52.3299 0.569936 56.8499 1.63994C62.6499 2.99994 67.9998 5.56994 73.4698 7.99994C76.5367 9.46214 79.9156 10.1489 83.3098 9.99994C81.5073 10.8062 79.5545 11.2219 77.5798 11.2199C74.5189 11.2147 71.4792 10.7114 68.5798 9.72994C65.1998 8.66994 61.8498 7.49994 58.4498 6.45994C54.9147 5.2311 51.1108 4.99249 47.4498 5.76994C45.1724 6.25801 43.1663 7.59536 41.8398 9.50994C41.6962 9.73888 41.566 9.97594 41.4498 10.2199C41.3808 10.4044 41.3306 10.5954 41.2999 10.7899C46.2198 7.92994 51.2198 6.26994 56.8298 7.64994C55.7099 7.91994 54.5898 8.17994 53.4698 8.46994C51.149 9.10716 48.9704 10.1795 47.0499 11.6299C43.1057 14.4253 38.4559 16.0572 33.6298 16.3399C27.2284 16.9832 20.7647 16.5642 14.4998 15.0999C11.2298 14.2999 8.05984 13.0999 4.83984 12.0999L4.99985 11.7999Z" fill="#FAFAFA"/>
<path d="M59.64 69.6199C60.22 70.2699 60.9799 70.7799 61.2599 71.4799C61.4471 71.8759 61.5343 72.3117 61.514 72.7492C61.4936 73.1867 61.3664 73.6126 61.1434 73.9895C60.9204 74.3665 60.6084 74.683 60.2347 74.9115C59.8611 75.1399 59.4371 75.2733 59 75.2999C56.93 75.4899 54.83 75.2999 52.71 75.2999V64.5799C54.63 64.5799 56.48 64.5099 58.33 64.5799C58.898 64.57 59.453 64.7508 59.9062 65.0934C60.3594 65.436 60.6847 65.9207 60.83 66.4699C61.0396 67.0507 61.0349 67.6872 60.8167 68.2647C60.5985 68.8423 60.1812 69.3229 59.64 69.6199ZM53.86 70.4799V74.5899C55.56 74.5099 57.21 74.5199 58.86 74.3299C59.307 74.2306 59.7045 73.9763 59.982 73.6121C60.2596 73.2478 60.3994 72.7972 60.3767 72.3398C60.3539 71.8824 60.1701 71.4478 59.8577 71.1129C59.5454 70.778 59.1246 70.5644 58.67 70.5099C57.08 70.4099 55.49 70.4799 53.86 70.4799ZM53.86 69.3199C55.36 69.3199 56.81 69.4199 58.24 69.3199C58.4623 69.3056 58.6793 69.2455 58.8773 69.1434C59.0754 69.0414 59.2503 68.8996 59.3911 68.7269C59.5318 68.5542 59.6355 68.3544 59.6955 68.1398C59.7555 67.9252 59.7707 67.7006 59.74 67.4799C59.7662 67.2584 59.7473 67.0338 59.6843 66.8198C59.6213 66.6058 59.5156 66.4068 59.3735 66.2348C59.2314 66.0628 59.056 65.9214 58.8577 65.8192C58.6594 65.7169 58.4425 65.656 58.22 65.6399C56.8 65.4599 55.36 65.4599 53.86 65.3799V69.3199Z" fill="#FAFAFA"/>
<path d="M81.61 75.3301C81.61 75.1201 81.54 74.9301 81.54 74.7301V64.6301C83.54 64.6301 85.54 64.5401 87.44 64.6301C87.9991 64.6374 88.5377 64.8421 88.9604 65.2081C89.3831 65.5741 89.6628 66.0778 89.75 66.6301C89.9199 67.2491 89.862 67.9086 89.5867 68.4886C89.3114 69.0685 88.8371 69.5303 88.25 69.7901C88.8593 69.9249 89.404 70.2645 89.7934 70.7521C90.1828 71.2397 90.3934 71.8461 90.39 72.4701C90.4426 73.159 90.221 73.8407 89.7734 74.367C89.3258 74.8933 88.6884 75.2214 88 75.2801C85.91 75.4601 83.78 75.3301 81.61 75.3301ZM82.7101 74.4201C84.3901 74.4201 85.98 74.5201 87.54 74.4201C87.7807 74.4103 88.0168 74.3516 88.234 74.2474C88.4512 74.1432 88.6448 73.9958 88.803 73.8142C88.9612 73.6326 89.0807 73.4206 89.1541 73.1912C89.2275 72.9618 89.2534 72.7198 89.23 72.4801C89.281 72.0338 89.1544 71.5854 88.8774 71.2317C88.6005 70.8781 88.1955 70.6476 87.75 70.5901C86.09 70.4701 84.42 70.5901 82.75 70.5901L82.7101 74.4201ZM82.7101 65.3301V69.3901C84.1501 69.3901 85.54 69.4701 86.91 69.3901C87.392 69.3594 87.8439 69.1455 88.173 68.7922C88.5022 68.4389 88.6836 67.973 88.68 67.4901C88.705 67.0249 88.5477 66.5684 88.2415 66.2173C87.9353 65.8663 87.5043 65.6485 87.04 65.6101C85.67 65.4101 84.25 65.4201 82.73 65.3301H82.7101Z" fill="#FAFAFA"/>
<path d="M108.52 59.3899C110.24 60.83 112.22 61.3899 114.21 60.1699C115.75 59.2799 115.61 57.57 115.53 55.82C114.93 56.5237 114.134 57.0333 113.244 57.2844C112.354 57.5354 111.409 57.5164 110.53 57.2299C109.823 57.0772 109.184 56.7046 108.702 56.1656C108.221 55.6267 107.922 54.949 107.85 54.2299C107.66 52.6199 107.67 51 107.59 49.29H108.86C108.86 50.52 108.86 51.73 108.86 52.93C108.94 55.56 110.68 56.86 113.21 56.2299C113.887 56.0517 114.485 55.6492 114.904 55.0881C115.324 54.5269 115.541 53.8403 115.52 53.1399C115.57 52.4999 115.52 51.8499 115.52 51.2099C115.52 50.5699 115.52 49.9999 115.52 49.2799L116.52 49.2C116.61 49.33 116.68 49.3799 116.68 49.4399C116.68 52.2399 116.75 55.05 116.62 57.86C116.51 60.27 114.95 61.65 112.54 61.77C111.121 61.911 109.699 61.5306 108.54 60.7C107.83 60.18 107.82 60.11 108.52 59.3899Z" fill="#FAFAFA"/>
<path d="M49.1102 75.3999H48.0002V72.3199H41.1102V75.3799H40.1102C40.1102 72.8999 39.9502 70.4599 40.1102 68.0399C40.2702 65.6199 42.1102 64.3099 44.7602 64.3899C45.8606 64.3547 46.9304 64.755 47.7374 65.504C48.5444 66.2529 49.0233 67.29 49.0702 68.3899C49.0702 68.7999 49.0702 69.2099 49.0702 69.6099L49.1102 75.3999ZM47.8902 71.2199C47.8902 70.2199 47.8902 69.3299 47.8902 68.4599C47.7602 66.5899 46.7202 65.6099 44.7502 65.4599C43.9537 65.3404 43.1419 65.5355 42.4868 66.004C41.8316 66.4725 41.3845 67.1776 41.2402 67.9699C41.0951 68.8688 41.0448 69.7805 41.0902 70.6899C41.0902 70.8699 41.4302 71.2199 41.6102 71.2199C43.6502 71.2299 45.7002 71.2199 47.8902 71.2199Z" fill="#FAFAFA"/>
<path d="M88.26 49.1C89.0133 49.0681 89.7653 49.1889 90.4707 49.4552C91.1761 49.7215 91.8203 50.1278 92.3646 50.6495C92.9089 51.1713 93.342 51.7978 93.6379 52.4913C93.9338 53.1848 94.0863 53.931 94.0863 54.685C94.0863 55.439 93.9338 56.1852 93.6379 56.8787C93.342 57.5722 92.9089 58.1987 92.3646 58.7204C91.8203 59.2422 91.1761 59.6484 90.4707 59.9147C89.7653 60.181 89.0133 60.3019 88.26 60.27C87.5066 60.3019 86.7547 60.181 86.0493 59.9147C85.3439 59.6484 84.6996 59.2422 84.1553 58.7204C83.611 58.1987 83.1779 57.5722 82.882 56.8787C82.5861 56.1852 82.4336 55.439 82.4336 54.685C82.4336 53.931 82.5861 53.1848 82.882 52.4913C83.1779 51.7978 83.611 51.1713 84.1553 50.6495C84.6996 50.1278 85.3439 49.7215 86.0493 49.4552C86.7547 49.1889 87.5066 49.0681 88.26 49.1ZM88.26 50.16C87.6592 50.1286 87.0584 50.2204 86.4945 50.4298C85.9306 50.6393 85.4155 50.9618 84.9809 51.3777C84.5463 51.7936 84.2013 52.294 83.9673 52.8481C83.7333 53.4023 83.6151 53.9984 83.62 54.6C83.5923 55.5087 83.8356 56.4051 84.3191 57.175C84.8025 57.945 85.5042 58.5536 86.3347 58.9235C87.1652 59.2933 88.087 59.4076 88.9827 59.2518C89.8784 59.096 90.7074 58.6772 91.3643 58.0486C92.0211 57.4201 92.4761 56.6103 92.6712 55.7223C92.8662 54.8344 92.7926 53.9084 92.4597 53.0624C92.1268 52.2164 91.5497 51.4887 90.8017 50.9718C90.0538 50.4549 89.169 50.1723 88.26 50.16Z" fill="#FAFAFA"/>
<path d="M65.7699 60.0999H64.6799C64.6799 59.2399 64.6799 58.4399 64.6799 57.6399C64.6799 57.3899 64.3899 56.9499 64.2199 56.9499C62.1299 56.8999 60.0399 56.9499 57.8299 56.9499V60.1299L56.6899 60.1899V57.5899C56.6899 56.2699 56.6899 54.9499 56.6899 53.5899C56.6259 52.7752 56.8057 51.9599 57.2063 51.2476C57.607 50.5354 58.2104 49.9584 58.9399 49.5899C59.722 49.1924 60.5938 49.0046 61.4702 49.0449C62.3467 49.0852 63.1976 49.3523 63.9399 49.8199C64.4622 50.1322 64.8978 50.5704 65.207 51.0945C65.5162 51.6186 65.6891 52.2118 65.7099 52.8199C65.8399 55.2599 65.7699 57.6299 65.7699 60.0999ZM64.7699 55.8899C64.7099 54.7399 64.7699 53.7199 64.5899 52.7199C64.4809 51.9744 64.0953 51.2971 63.5099 50.8228C62.9244 50.3485 62.1818 50.1118 61.4299 50.1599C59.5899 50.1599 58.2499 50.9899 57.9799 52.6099C57.8576 53.699 57.7975 54.7941 57.7999 55.8899H64.7699Z" fill="#FAFAFA"/>
<path d="M59.3802 15.2699C59.0512 15.8412 58.8308 16.4684 58.7302 17.1199C58.7302 17.4799 59.3602 18.0299 59.8002 18.1199C60.6702 18.3199 61.1102 17.6399 61.3902 16.8899C61.8305 17.5299 62.0317 18.3043 61.9585 19.0776C61.8854 19.8509 61.5426 20.5738 60.9902 21.1199C60.3943 21.7297 59.5992 22.1053 58.7497 22.1785C57.9002 22.2516 57.0527 22.0175 56.3612 21.5185C55.6698 21.0196 55.1804 20.2891 54.982 19.4599C54.7836 18.6306 54.8894 17.7577 55.2802 16.9999C55.6432 16.2684 56.2567 15.6914 57.0091 15.3739C57.7616 15.0565 58.6029 15.0196 59.3802 15.2699Z" fill="#FAFAFA"/>
<path d="M28.38 65.6201V75.3801H27.23V64.6201H36.39V75.3501H35.29V65.6201H28.38Z" fill="#FAFAFA"/>
<path d="M28.4102 49.25H29.5201V54H36.3502V49.28L37.4702 49.21V60.09L36.4002 60.15V55.15H29.5702V60.07H28.4102V49.25Z" fill="#FAFAFA"/>
<path d="M97.6099 56.4401V60.0901H96.5499C96.5499 57.4701 96.4399 54.9101 96.5499 52.3601C96.589 51.5694 96.9154 50.8202 97.4678 50.2531C98.0201 49.686 98.7605 49.34 99.5499 49.2801C100.644 49.1199 101.759 49.1983 102.82 49.5101C104.82 50.1701 105.67 52.1801 105.12 54.5101C104.872 55.4185 104.294 56.2015 103.498 56.7049C102.702 57.2082 101.747 57.3956 100.82 57.2301C99.7334 57.0387 98.661 56.7748 97.6099 56.4401ZM97.6099 53.7601C97.6099 55.4501 98.6899 56.2701 100.91 56.2701C102.97 56.2701 104.15 55.1401 104.13 53.2201C104.14 52.7964 104.061 52.3753 103.896 51.9846C103.732 51.5939 103.487 51.2424 103.177 50.9533C102.867 50.6642 102.5 50.444 102.099 50.3073C101.697 50.1706 101.272 50.1204 100.85 50.1601C98.7199 50.1701 97.6299 51.3801 97.6299 53.7601H97.6099Z" fill="#FAFAFA"/>
<path d="M47.1699 55.23V60.0801H46.1099V49.2901L47.1099 49.2001V54C48.7199 54.37 49.9399 54.21 50.7899 52.67C51.4146 51.6383 52.1562 50.682 52.9999 49.82C53.3909 49.4978 53.8294 49.2381 54.2999 49.05L54.5499 49.3801L50.6499 54.53L54.8199 60.03C54.0499 60.26 53.5499 60.2101 53.0999 59.5601C52.3699 58.5001 51.4299 57.56 50.7899 56.48C49.9199 55 48.7299 54.93 47.1699 55.23Z" fill="#FAFAFA"/>
<path d="M63.2001 74.54L64.4701 74.37C64.4701 72.48 64.4701 70.63 64.4701 68.78C64.4183 68.0318 64.5728 67.2838 64.9166 66.6173C65.2604 65.9508 65.7804 65.3914 66.4201 65C67.0457 64.5881 67.7659 64.3424 68.5127 64.286C69.2596 64.2295 70.0085 64.3643 70.6889 64.6774C71.3693 64.9906 71.9587 65.4719 72.4015 66.076C72.8444 66.68 73.1261 67.3869 73.2201 68.1299C73.4301 70.5099 73.2201 72.92 73.2201 75.37H72.1201V70C72.1201 69.56 72.1201 69.12 72.1201 68.68C71.9801 65.62 69.2401 64.9599 67.2301 65.8399C66.68 66.1105 66.2261 66.5431 65.9293 67.0794C65.6325 67.6158 65.5071 68.2302 65.5701 68.8399C65.5701 70.9699 65.5701 73.1 65.5701 75.23C65.5759 75.263 65.5759 75.2969 65.5701 75.33C63.7701 75.7 63.1601 75.52 63.2001 74.54Z" fill="#FAFAFA"/>
<path d="M20.0898 60.0901H18.9998C18.9998 59.4801 18.9998 58.8801 18.9998 58.2801C18.9998 56.6601 18.9998 55.0301 18.9998 53.4101C19.0345 52.9956 18.9826 52.5785 18.8474 52.1851C18.7122 51.7918 18.4968 51.4308 18.2147 51.1252C17.9326 50.8196 17.59 50.576 17.2087 50.4098C16.8274 50.2437 16.4157 50.1586 15.9998 50.1601C13.9498 50.0701 12.6898 51.0701 12.5298 53.1601C12.3998 55.0101 12.5298 56.8801 12.4598 58.7401V60.1101H10.0798C9.59982 58.9101 10.6098 59.2101 11.2498 59.1101C11.2498 57.2101 11.2498 55.3501 11.2498 53.5001C11.194 52.6731 11.3895 51.8486 11.8107 51.1348C12.2318 50.4209 12.859 49.8511 13.6098 49.5001C14.2608 49.1437 14.992 48.9595 15.7341 48.9647C16.4762 48.97 17.2047 49.1645 17.8506 49.53C18.4965 49.8955 19.0384 50.4199 19.425 51.0534C19.8116 51.6869 20.0301 52.4085 20.0598 53.1501C20.1998 55.4401 20.0898 57.7401 20.0898 60.0901Z" fill="#FAFAFA"/>
<path d="M74.2799 55.0001V54.0001C75.0899 54.0001 75.8599 54.0001 76.6299 54.0001C78.0099 54.0001 78.8799 53.2701 78.9199 52.2101C78.9046 51.9315 78.8344 51.6587 78.7135 51.4073C78.5925 51.1559 78.4232 50.9309 78.2151 50.7451C78.007 50.5593 77.7642 50.4164 77.5008 50.3246C77.2374 50.2328 76.9584 50.1939 76.6799 50.2101C75.3625 50.3019 74.0507 50.4621 72.7499 50.6901C72.4599 50.3401 72.5399 49.9701 73.2799 49.6901C74.5943 49.1246 76.0535 48.9881 77.4499 49.3001C78.0377 49.3551 78.5952 49.5858 79.05 49.9621C79.5048 50.3385 79.8358 50.843 79.9999 51.4101C80.1464 52.0068 80.0759 52.6361 79.8011 53.1857C79.5263 53.7352 79.0651 54.1692 78.4999 54.4101L79.0799 54.7201C79.5074 54.9312 79.8702 55.2534 80.1305 55.6529C80.3908 56.0524 80.5389 56.5145 80.5593 56.9909C80.5797 57.4672 80.4718 57.9403 80.2467 58.3606C80.0216 58.7809 79.6877 59.133 79.2799 59.3801C78.2597 59.99 77.0841 60.2902 75.8963 60.244C74.7085 60.1979 73.5597 59.8074 72.5899 59.1201C72.3999 58.9601 72.4399 58.5001 72.4999 58.1201C73.2141 58.6123 74.0248 58.9471 74.8781 59.1022C75.7315 59.2574 76.6082 59.2294 77.4499 59.0201C78.0091 58.9383 78.5171 58.6492 78.8728 58.2101C79.2285 57.7709 79.406 57.214 79.3699 56.6501C79.2399 55.6501 78.3699 54.9901 76.9399 54.9701L74.2799 55.0001Z" fill="#FAFAFA"/>
<path d="M0.310059 49.26H1.31006V53.91C3.15006 54.43 3.68006 54.28 4.75006 52.91C5.51006 51.91 6.28006 50.91 7.00006 49.91C7.15383 49.6155 7.41689 49.3929 7.73283 49.2901C8.04876 49.1873 8.39241 49.2124 8.69006 49.36L4.76006 54.56C6.13006 56.38 7.50006 58.17 8.92006 60.05C8.62747 60.2057 8.28649 60.2437 7.96679 60.1563C7.64709 60.069 7.37282 59.8628 7.20006 59.58C6.37531 58.5931 5.60099 57.5651 4.88006 56.5C4.04006 55.04 2.88006 54.96 1.36006 55.28V60.11L0.360062 60.16L0.310059 49.26Z" fill="#FAFAFA"/>
<path d="M24.6098 60.0999H23.5498V49.2599L24.6098 49.2V60.0999Z" fill="#FAFAFA"/>
<path d="M41.29 49.26H42.29V60.08H41.29V49.26Z" fill="#FAFAFA"/>
<path d="M76.79 75.37V64.63L77.79 64.53V75.37H76.79Z" fill="#FAFAFA"/>
<path d="M58.5 13C59.5878 13 60.6512 13.3226 61.5556 13.9269C62.4601 14.5313 63.1651 15.3902 63.5813 16.3952C63.9976 17.4002 64.1065 18.5061 63.8943 19.573C63.6821 20.6399 63.1583 21.6199 62.3891 22.3891C61.6199 23.1583 60.6399 23.6821 59.573 23.8943C58.5061 24.1065 57.4002 23.9976 56.3953 23.5813C55.3903 23.1651 54.5313 22.4601 53.9269 21.5556C53.3226 20.6512 53 19.5878 53 18.5C53.0026 17.0421 53.583 15.6447 54.6138 14.6138C55.6447 13.583 57.0421 13.0026 58.5 13ZM58.5 9C56.6211 9 54.7843 9.55717 53.2221 10.601C51.6598 11.6449 50.4422 13.1286 49.7231 14.8645C49.0041 16.6004 48.816 18.5105 49.1825 20.3534C49.5491 22.1962 50.4539 23.8889 51.7825 25.2175C53.1111 26.5461 54.8038 27.4509 56.6466 27.8175C58.4895 28.184 60.3996 27.9959 62.1355 27.2769C63.8714 26.5578 65.3551 25.3402 66.399 23.7779C67.4428 22.2157 68 20.3789 68 18.5C68 15.9804 66.9991 13.5641 65.2175 11.7825C63.4359 10.0009 61.0196 9 58.5 9Z" fill="#FAFAFA"/>
</g>
<defs>
<clipPath id="clip0_727_7319">
<rect width="117" height="76" fill="white"/>
</clipPath>
</defs>
</svg>
