<svg width="199" height="75" viewBox="0 0 199 75" fill="none" xmlns="http://www.w3.org/2000/svg">
<path d="M0.470215 42C4.91661 37.8343 9.88074 34.2582 15.2402 31.36C25.949 25.6026 37.5238 21.6272 49.5102 19.59C49.9347 19.5645 50.34 19.4044 50.6673 19.1328C50.9946 18.8613 51.2268 18.4925 51.3302 18.08C53.0732 12.7216 56.4992 8.0688 61.0987 4.81364C65.6981 1.55849 71.2254 -0.125186 76.8585 0.0130018C82.4916 0.15119 87.9297 2.10386 92.364 5.58062C96.7983 9.05739 99.9921 13.8725 101.47 19.31C101.56 19.8286 101.81 20.3062 102.184 20.6756C102.559 21.0451 103.04 21.2879 103.56 21.37C109.822 23.0195 115.85 25.4555 121.5 28.62C121.969 28.8564 122.377 29.1988 122.69 29.62C122.24 29.52 121.78 29.44 121.33 29.31C110.321 26.0911 99.0355 23.9083 87.6202 22.79C87.2222 22.7261 86.8452 22.5685 86.5202 22.33C86.0329 21.9211 85.4232 21.6863 84.7875 21.6627C84.1518 21.6392 83.5264 21.8282 83.0102 22.2C82.5305 22.5484 82.1747 23.041 81.9948 23.6059C81.8149 24.1708 81.8203 24.7784 82.0102 25.34C82.2109 25.9539 82.6219 26.4771 83.1708 26.8175C83.7197 27.1578 84.3712 27.2933 85.0102 27.2H85.7602C85.1202 29.94 81.3802 31.96 77.6002 31.63C73.3902 31.26 70.7602 27.9 70.4402 22.33C69.1302 22.33 67.8002 22.23 66.4402 22.33C62.5502 22.68 58.6702 23.12 54.7802 23.51C54.1702 23.57 53.7802 23.67 53.7802 24.43C53.2802 32.69 56.2702 39.28 63.1202 44.04C63.3453 44.1726 63.5791 44.2895 63.8202 44.39L64.6702 43.27C65.8565 41.747 67.5011 40.6458 69.3612 40.129C71.2213 39.6122 73.1983 39.7072 75.0002 40.4C76.7423 41.0881 78.2263 42.3026 79.2453 43.8742C80.2644 45.4458 80.7677 47.2961 80.6851 49.1674C80.6026 51.0386 79.9383 52.8375 78.7848 54.3132C77.6313 55.7889 76.0461 56.868 74.2502 57.4C68.5702 58.97 63.3202 55.21 62.8202 49.14C62.8197 48.8152 62.7322 48.4965 62.5669 48.2169C62.4016 47.9373 62.1645 47.7071 61.8802 47.55C54.0935 42.6233 50.1335 35.5467 50.0002 26.32C50.0002 25.7 50.0002 25.08 50.0002 24.32C34.8685 27.0966 20.5066 33.0807 7.88021 41.87C16.8802 47.66 26.8102 50.74 36.7502 53.76C24.0582 52.0094 11.7757 48.0281 0.470215 42ZM97.7602 19.88C95.8402 11 86.3402 3.83002 76.4702 3.65002C67.0702 3.49002 57.1202 10.4 55.1202 18.65C69.3035 16.6869 83.715 17.106 97.7602 19.89V19.88ZM67.2702 46.25C68.6802 46.7 70.0102 47.06 71.2702 47.57C71.5901 47.6442 71.8798 47.8139 72.1011 48.0566C72.3223 48.2992 72.4646 48.6034 72.5091 48.9287C72.5536 49.2541 72.4981 49.5852 72.3501 49.8784C72.202 50.1715 71.9684 50.4127 71.6802 50.57C71.1237 50.8477 70.4947 50.9455 69.8802 50.85C68.8672 50.668 67.8655 50.4276 66.8802 50.13C67.0732 51.2596 67.6582 52.2849 68.5325 53.0257C69.4068 53.7665 70.5143 54.1752 71.6602 54.18C72.8713 54.1973 74.0499 53.7881 74.9896 53.0239C75.9294 52.2597 76.5703 51.1892 76.8002 50C77.089 48.7152 76.9001 47.3692 76.2689 46.2135C75.6376 45.0578 74.6073 44.1715 73.3702 43.72C72.2197 43.3283 70.9658 43.369 69.8431 43.8347C68.7204 44.3003 67.8058 45.1589 67.2702 46.25Z" fill="#FAFAFA"/>
<path d="M159.76 57.2799H155.63C155.19 52.9899 154.74 48.7299 154.3 44.4599H153.82C153.61 44.9599 153.37 45.4599 153.19 45.9699C152.19 49.0299 151.19 52.0999 150.19 55.1699C150.109 55.5829 149.957 55.9788 149.74 56.3399C149.29 56.8799 148.74 57.6899 148.2 57.6899C147.66 57.6899 146.92 56.9299 146.71 56.3399C145.47 52.9899 144.38 49.5999 143.22 46.2299C143.07 45.7699 142.86 45.3199 142.67 44.8699H142.3C142.122 45.2648 141.985 45.677 141.89 46.0999C141.53 49.4399 141.21 52.7899 140.89 56.0999C140.84 56.4999 140.75 56.8999 140.67 57.3299H136.67C136.88 55.7399 137.08 54.2199 137.3 52.6999C137.78 49.5099 138.3 46.3199 138.75 43.1199C139.13 40.4999 140.43 39.4299 142.56 40.0199C143.043 40.1724 143.476 40.4498 143.817 40.8238C144.158 41.1979 144.393 41.6554 144.5 42.1499C145.5 45.0999 146.44 48.0399 147.43 50.9899C147.62 51.5799 147.86 52.1499 148.21 53.0999C148.6 52.1799 148.89 51.5999 149.09 50.9799C150.09 47.9799 150.98 45.0699 151.95 42.1199C152.03 41.7357 152.188 41.3721 152.415 41.0521C152.642 40.7321 152.933 40.4625 153.269 40.2605C153.606 40.0585 153.98 39.9284 154.369 39.8784C154.759 39.8284 155.154 39.8595 155.53 39.9699C156.109 40.1043 156.627 40.4263 157.003 40.8858C157.379 41.3453 157.593 41.9163 157.61 42.5099C158.27 47.3599 159 52.2499 159.76 57.2799Z" fill="#FAFAFA"/>
<path d="M173.7 53.84C173.761 54.8224 173.761 55.8077 173.7 56.79C173.7 57.08 173.11 57.44 172.7 57.53C171.325 57.8593 169.889 57.8446 168.52 57.4872C167.152 57.1298 165.892 56.4406 164.853 55.4807C163.814 54.5208 163.028 53.3197 162.563 51.9836C162.099 50.6474 161.971 49.2174 162.19 47.82C162.344 46.4768 162.795 45.1847 163.512 44.0385C164.229 42.8922 165.193 41.9207 166.334 41.195C167.474 40.4694 168.763 40.0079 170.105 39.8444C171.447 39.6809 172.809 39.8195 174.09 40.25C175.557 40.6214 176.874 41.4345 177.863 42.5792C178.852 43.724 179.466 45.1451 179.62 46.65C180.06 50.12 179.97 53.65 180.11 57.26H176.24C176.24 55.33 176.24 53.45 176.24 51.57C176.234 50.3533 176.157 49.1379 176.01 47.93C175.973 47.2529 175.792 46.5914 175.48 45.9896C175.167 45.3877 174.73 44.8592 174.197 44.4393C173.665 44.0193 173.049 43.7175 172.391 43.5538C171.733 43.3902 171.047 43.3684 170.38 43.49C168.999 43.7024 167.757 44.4521 166.925 45.5759C166.093 46.6997 165.739 48.1065 165.94 49.49C166.4 52.79 169.04 54.59 172.57 54.02C172.88 54 173.2 53.94 173.7 53.84Z" fill="#FAFAFA"/>
<path d="M122.51 40.3599V51.9399L122.88 52.1399C123.296 51.7598 123.671 51.3375 124 50.8799C125.75 47.7599 127.44 44.6199 129.19 41.5099C129.466 40.947 129.874 40.4596 130.38 40.0899C130.681 39.881 131.034 39.7588 131.4 39.7368C131.766 39.7147 132.131 39.7937 132.455 39.965C132.779 40.1364 133.05 40.3934 133.238 40.7082C133.425 41.023 133.523 41.3834 133.52 41.7499C133.65 43.2999 133.61 44.8599 133.62 46.4099C133.62 49.9799 133.62 53.5499 133.62 57.2299H129.84V55.9999C129.84 52.9299 129.84 49.8599 129.84 46.7899C129.761 46.3762 129.609 45.9799 129.39 45.6199C129.072 45.8474 128.789 46.1203 128.55 46.4299C126.84 49.4299 125.17 52.5299 123.48 55.5699C123.263 56.1237 122.92 56.6199 122.48 57.0199C121.858 57.4554 121.108 57.6701 120.35 57.6299C119.83 57.5399 119.35 56.7699 119 56.2099C118.817 55.8307 118.734 55.4105 118.76 54.9899C118.76 50.1599 118.76 45.3199 118.76 40.3999L122.51 40.3599Z" fill="#FAFAFA"/>
<path d="M198.53 57.2701H194.77V44.1301C190.87 43.3101 188.53 44.9701 188.28 48.7601C188.12 51.0601 188.18 53.3701 188.14 55.6801V57.3301H182.4V53.7301L184.59 53.5701V49.7601C184.59 43.6201 186.75 41.1001 192.83 40.3801C194.729 40.2698 196.632 40.2698 198.53 40.3801V57.2701Z" fill="#FAFAFA"/>
<path d="M98.9204 57.27H95.2804C95.2804 56.84 95.2204 56.39 95.2204 55.95C95.2204 53.35 95.2204 50.74 95.2204 48.13C95.2204 45.03 94.1204 43.97 91.0304 43.94H88.4304V57.22H84.6904V40.22H86.8904C89.1504 40.27 91.4404 40.15 93.6804 40.42C97.0538 40.82 98.7971 42.72 98.9104 46.12C99.0004 49.81 98.9204 53.47 98.9204 57.27Z" fill="#FAFAFA"/>
<path d="M101.88 40.3201H115.78V43.8901H110.78V57.2601H107V44.0001H101.9L101.88 40.3201Z" fill="#FAFAFA"/>
<path d="M96.4502 64.6101C97.0202 64.7701 97.4502 64.9201 97.9602 65.0301C98.1659 65.0898 98.3844 65.0898 98.5902 65.0301C100.37 64.3001 101.66 64.5401 102.59 65.8001C103.067 66.4918 103.314 67.3162 103.296 68.1563C103.278 68.9963 102.996 69.8094 102.49 70.4801C101.43 71.7501 100.09 71.9301 98.3202 71.0601C98.2502 71.0601 98.1602 71.0601 97.9602 71.0601V74.0001L96.4302 74.0701L96.4502 64.6101ZM97.8902 68.0901C97.8711 68.3509 97.9053 68.6129 97.9906 68.8601C98.0759 69.1073 98.2105 69.3346 98.3864 69.5282C98.5622 69.7218 98.7755 69.8776 99.0134 69.9863C99.2513 70.0949 99.5087 70.154 99.7702 70.1601C100.305 70.1349 100.81 69.9072 101.184 69.5233C101.557 69.1394 101.77 68.6279 101.78 68.0925C101.79 67.5572 101.597 67.038 101.238 66.6402C100.88 66.2424 100.384 65.9957 99.8502 65.9501C99.5787 65.9549 99.3111 66.0149 99.0635 66.1264C98.816 66.238 98.5938 66.3988 98.4104 66.599C98.227 66.7992 98.0863 67.0347 97.9969 67.291C97.9074 67.5474 97.8711 67.8193 97.8902 68.0901Z" fill="#FAFAFA"/>
<path d="M122.72 64.5401C124.14 65.2001 125.29 64.7501 126.49 64.5401C127.106 64.5087 127.716 64.6752 128.231 65.0153C128.745 65.3553 129.138 65.8511 129.35 66.4301C129.661 67.1238 129.762 67.8935 129.639 68.6438C129.516 69.394 129.176 70.0917 128.66 70.6501C128.23 71.0856 127.68 71.3843 127.081 71.5088C126.481 71.6334 125.858 71.5781 125.29 71.3501C124.99 71.2301 124.7 71.0701 124.29 70.8501V73.9001H122.77V64.5401H122.72ZM128.06 68.1501C128.048 67.7718 127.926 67.4052 127.708 67.0956C127.491 66.7859 127.187 66.5466 126.835 66.4073C126.483 66.268 126.098 66.2346 125.728 66.3114C125.357 66.3881 125.017 66.5717 124.749 66.8393C124.482 67.1069 124.298 67.447 124.221 67.8177C124.145 68.1883 124.178 68.5733 124.317 68.9252C124.457 69.2772 124.696 69.5806 125.006 69.7983C125.315 70.0159 125.682 70.1382 126.06 70.1501C126.325 70.1585 126.589 70.1124 126.835 70.0149C127.082 69.9173 127.306 69.7703 127.493 69.5829C127.68 69.3955 127.827 69.1717 127.925 68.9252C128.023 68.6788 128.069 68.415 128.06 68.1501Z" fill="#FAFAFA"/>
<path d="M72.1704 69.92V72.47C71.1704 72.94 70.6704 72.66 70.6704 71.47H64.6704V64.82H66.0804V69.82C66.7204 69.82 67.2504 69.88 67.7804 69.93C68.5904 70 68.9104 69.66 68.8804 68.84C68.8304 67.51 68.8804 66.17 68.8804 64.77H70.4104C70.4104 65.86 70.4104 66.94 70.4104 68.02C70.4104 69.1 70.2404 70.4 72.1704 69.92Z" fill="#FAFAFA"/>
<path d="M79.9004 68.46H74.6804C74.9804 70.03 76.0604 70.54 77.5204 70.06C78.2248 69.9182 78.9418 69.8479 79.6604 69.85C79.1429 70.6357 78.3537 71.2029 77.444 71.4428C76.5343 71.6827 75.568 71.5784 74.7304 71.15C73.9855 70.7045 73.4278 70.0036 73.161 69.1776C72.8943 68.3517 72.9367 67.457 73.2804 66.66C73.6052 65.8839 74.2016 65.2528 74.9581 64.8847C75.7146 64.5166 76.5793 64.4367 77.3904 64.66C77.8053 64.7434 78.1997 64.9081 78.5508 65.1446C78.9018 65.381 79.2027 65.6846 79.4359 66.0378C79.6692 66.391 79.8304 66.7868 79.9101 67.2025C79.9898 67.6182 79.9865 68.0456 79.9004 68.46ZM74.6804 67.19H78.3004L78.4804 66.8C77.9344 66.4228 77.3387 66.1233 76.7104 65.91C76.2719 65.8168 75.8144 65.8984 75.4353 66.1374C75.0561 66.3765 74.7852 66.7542 74.6804 67.19Z" fill="#FAFAFA"/>
<path d="M114.1 68.11C114.073 67.1807 114.416 66.2786 115.053 65.6018C115.691 64.925 116.571 64.5287 117.5 64.5C118.454 64.4998 119.371 64.8733 120.053 65.5406C120.735 66.2079 121.129 67.1159 121.15 68.07C121.14 69.0019 120.762 69.8921 120.099 70.5473C119.436 71.2026 118.542 71.5701 117.61 71.57C117.149 71.5879 116.688 71.511 116.258 71.3441C115.827 71.1772 115.435 70.9239 115.106 70.5996C114.777 70.2754 114.518 69.8872 114.345 69.459C114.172 69.0308 114.089 68.5717 114.1 68.11ZM119.49 68.05C119.504 67.5295 119.314 67.0242 118.961 66.6413C118.608 66.2585 118.12 66.0285 117.6 66C117.323 65.9991 117.05 66.0556 116.796 66.166C116.542 66.2764 116.314 66.4382 116.126 66.6412C115.938 66.8442 115.794 67.084 115.704 67.3454C115.613 67.6068 115.578 67.8842 115.6 68.16C115.587 68.4261 115.63 68.6918 115.726 68.9403C115.822 69.1888 115.969 69.4145 116.157 69.6028C116.346 69.7911 116.571 69.938 116.82 70.034C117.068 70.1299 117.334 70.1729 117.6 70.16C117.868 70.1634 118.134 70.1094 118.38 70.0015C118.626 69.8936 118.846 69.7344 119.025 69.5345C119.204 69.3346 119.338 69.0987 119.418 68.8427C119.498 68.5866 119.523 68.3163 119.49 68.05Z" fill="#FAFAFA"/>
<path d="M87.4502 71.42H85.9402V68.64H83.3102L83.1702 71.38L81.7202 71.47V64.78H83.0502C83.2202 65.61 83.1302 66.62 83.5902 67.04C84.0502 67.46 85.0002 67.12 85.8602 67.12L85.9602 64.79H87.4502V71.42Z" fill="#FAFAFA"/>
<path d="M130.6 64.83C130.802 64.723 131.026 64.6665 131.255 64.6655C131.483 64.6645 131.708 64.719 131.911 64.8243C132.114 64.9295 132.288 65.0824 132.418 65.2698C132.549 65.4572 132.632 65.6735 132.66 65.9C132.97 66.9 133.45 67.83 133.97 69.08C134.54 67.86 135.04 66.9 135.41 65.9C135.78 64.9 136.32 64.43 137.52 64.84C136.31 67.5 135.04 70.14 133.9 72.84C133.48 73.84 132.96 74.25 131.9 73.9C131.9 73.9 131.9 73.8 131.9 73.78C133.5 71.57 132.7 69.48 131.63 67.38C131.23 66.58 131 65.73 130.6 64.83Z" fill="#FAFAFA"/>
<path d="M108.94 66.09L108.5 65.26C108.954 64.8095 109.559 64.5428 110.198 64.5114C110.836 64.48 111.464 64.6861 111.96 65.09C112.74 65.81 112.7 66.5 111.8 67.85C112.95 68.85 113.15 69.85 112.41 70.75C111.53 71.75 109.52 71.86 108.16 70.87C108.43 70.18 108.74 69.77 109.65 70.1C109.99 70.23 110.54 69.79 110.99 69.6C110.74 69.24 110.56 68.7 110.21 68.6C109.5 68.28 109.52 68.02 109.98 67.51C110.29 67.17 110.53 66.76 110.81 66.39L109.24 66.14C109.141 66.1182 109.041 66.1015 108.94 66.09Z" fill="#FAFAFA"/>
<path d="M92.7804 66.27V71.38L91.2204 71.47V66.27L88.9204 66.09V64.78H95.0004L95.0904 66.08L92.7804 66.27Z" fill="#FAFAFA"/>
</svg>
