<svg width="273" height="80" viewBox="0 0 273 80" fill="none" xmlns="http://www.w3.org/2000/svg">
<path d="M71.7998 54.0001C77.9331 52.0401 84.0931 50.3067 90.2798 48.8001C96.4665 47.2934 102.706 46.0267 109 45.0001C108.47 44.9501 107.95 44.9301 107.42 44.8601C104.417 44.534 101.522 43.5604 98.9319 42.0066C96.3422 40.4528 94.1204 38.3558 92.4198 35.8601C90.9163 33.6292 89.8257 31.1465 89.1998 28.5301C88.7198 26.7601 88.1998 24.9801 87.7498 23.2001V23.1101C87.6542 22.5965 87.3859 22.131 86.9894 21.7908C86.5929 21.4507 86.092 21.2564 85.5698 21.2401C84.9998 21.0701 84.3498 21.0001 83.7198 21.0001C83.4898 21.0001 83.4098 20.9201 83.4098 20.6901C83.4098 19.1101 83.4098 17.5301 83.4098 15.9501C83.4098 15.6901 83.4898 15.6101 83.7498 15.5801C85.489 15.4704 87.1889 15.0149 88.7498 14.2401C89.459 13.866 90.0957 13.3682 90.6298 12.7701C91.8498 11.4438 93.1888 10.2321 94.6298 9.15007C96.0598 8.08007 97.4198 7.00007 98.8698 6.00007C100.964 4.67088 103.303 3.77647 105.75 3.37007C111.091 2.35947 116.616 3.43302 121.19 6.37007C123.265 7.7906 125.151 9.47091 126.8 11.3701C127.8 12.4801 128.8 13.6401 129.8 14.7801C130.349 15.4547 131.137 15.8916 132 16.0001C132.524 16.0569 133.053 16.0333 133.57 15.9301C134.689 15.7214 135.838 15.7384 136.95 15.9801C137.571 16.1158 138.219 16.0744 138.818 15.8605C139.417 15.6466 139.945 15.2688 140.34 14.7701C141.71 13.2501 143.06 11.7701 144.46 10.2401C145.998 8.55744 147.765 7.09979 149.71 5.91007C152.133 4.47641 154.819 3.54461 157.61 3.17008C162.495 2.45059 167.474 3.54251 171.61 6.24007C173.48 7.54657 175.279 8.9519 177 10.4501C177.932 11.2475 178.817 12.099 179.65 13.0001C180.602 13.971 181.802 14.6626 183.12 15.0001C184.12 15.2801 185.23 15.4401 186.3 15.6201C186.54 15.6201 186.64 15.7301 186.64 15.9801C186.64 17.5534 186.64 19.1234 186.64 20.6901C186.64 20.9501 186.57 21.0401 186.3 21.0401C185.489 21.0145 184.679 21.1157 183.9 21.3401C183.556 21.4266 183.242 21.6027 182.989 21.8504C182.736 22.0982 182.554 22.4086 182.46 22.7501C182.06 24.2901 181.64 25.8201 181.24 27.3601C180.764 29.3701 180.094 31.3292 179.24 33.2101C177.652 36.4226 175.274 39.1784 172.328 41.2182C169.382 43.258 165.965 44.5147 162.4 44.8701C162.118 44.8853 161.838 44.9153 161.56 44.9601C174.959 47.1669 188.2 50.2434 201.2 54.1701V54.2601L199.72 54.0001C196.72 53.3701 193.72 52.7001 190.67 52.1001C187.29 51.4334 183.9 50.8001 180.5 50.2001C177.28 49.6401 174.04 49.1201 170.81 48.6301C168.563 48.2901 166.31 47.9901 164.05 47.7301C160.6 47.3501 157.15 46.9601 153.69 46.7301C150.39 46.4601 147.07 46.2901 143.76 46.1401C138.41 45.8901 133.05 45.9101 127.7 46.1401C123.28 46.2901 118.86 46.5501 114.47 46.9901C111.6 47.2801 108.73 47.5601 105.87 47.9201C102.87 48.3001 99.8698 48.7401 96.8698 49.2101C93.8698 49.6801 91.1598 50.1601 88.3198 50.6801C85.8798 51.0001 83.4398 51.4701 80.9998 52.0001C77.9998 52.6401 74.9998 53.3201 71.9398 54.0001H71.7998ZM160.37 42.1001C163.942 42.1058 167.435 41.0541 170.41 39.0773C173.385 37.1006 175.709 34.2874 177.087 30.9923C178.466 27.6972 178.838 24.0677 178.157 20.5614C177.476 17.055 175.773 13.8287 173.261 11.2892C170.749 8.74961 167.542 7.01045 164.043 6.29093C160.544 5.57141 156.911 5.90373 153.601 7.24599C150.291 8.58825 147.452 10.8804 145.443 13.8335C143.434 16.7865 142.343 20.2684 142.31 23.8401C142.291 26.2249 142.745 28.5899 143.644 30.7989C144.543 33.0079 145.869 35.0173 147.548 36.7116C149.226 38.4059 151.223 39.7515 153.424 40.6711C155.624 41.5908 157.985 42.0662 160.37 42.0701V42.1001ZM127.92 24.0001C127.918 20.4188 126.853 16.9187 124.86 13.9432C122.867 10.9678 120.036 8.65077 116.725 7.2858C113.414 5.92083 109.772 5.56931 106.261 6.27577C102.75 6.98223 99.5282 8.71488 97.0029 11.2542C94.4776 13.7936 92.7628 17.0253 92.0758 20.5401C91.3888 24.0548 91.7605 27.6944 93.1438 30.9977C94.5271 34.301 96.8597 37.1194 99.8462 39.0959C102.833 41.0723 106.339 42.1179 109.92 42.1001C114.705 42.0815 119.288 40.1654 122.663 36.7722C126.037 33.3789 127.928 28.7856 127.92 24.0001ZM153.83 44.0001V43.9301L153.54 43.8101C150.486 42.752 147.717 41.0033 145.45 38.7001C143.599 36.7602 142.094 34.5178 141 32.0701C140.195 30.2797 139.526 28.4311 139 26.5401C138.59 25.1901 138.21 23.8301 137.75 22.5401C137.542 21.9254 137.118 21.4066 136.558 21.0795C135.997 20.7524 135.337 20.6389 134.7 20.7601C134.198 20.7887 133.715 20.9641 133.311 21.2645C132.908 21.5649 132.601 21.9771 132.43 22.4501C132.2 23.1401 131.99 23.8401 131.77 24.5301C131.006 27.4282 130.002 30.258 128.77 32.9901C126.608 37.4925 122.929 41.0897 118.38 43.1501C117.62 43.5001 116.83 43.7801 116.05 44.0901C128.599 42.6321 141.274 42.6019 153.83 44.0001Z" fill="#FAFAFA"/>
<path d="M137.42 73.1202C135.778 73.1122 134.175 72.6174 132.815 71.6984C131.454 70.7794 130.396 69.4774 129.776 67.9571C129.155 66.4369 128.999 64.7668 129.328 63.1581C129.657 61.5493 130.456 60.0743 131.623 58.9195C132.79 57.7648 134.274 56.9822 135.886 56.6709C137.498 56.3595 139.167 56.5333 140.68 57.1704C142.194 57.8074 143.484 58.879 144.388 60.2496C145.293 61.6202 145.77 63.2282 145.76 64.8702C145.77 65.9639 145.56 67.0484 145.143 68.0595C144.726 69.0707 144.111 69.988 143.333 70.7572C142.555 71.5263 141.631 72.1318 140.616 72.5377C139.6 72.9435 138.514 73.1416 137.42 73.1202ZM137.42 71.5502C138.307 71.5679 139.188 71.4061 140.011 71.0746C140.834 70.743 141.581 70.2485 142.208 69.6208C142.835 68.9931 143.328 68.2451 143.658 67.4218C143.989 66.5986 144.149 65.717 144.13 64.8302C144.16 63.9332 144.008 63.0395 143.684 62.2025C143.36 61.3655 142.871 60.6025 142.245 59.9591C141.62 59.3157 140.871 58.8052 140.043 58.4582C139.215 58.1112 138.326 57.9347 137.429 57.9394C136.531 57.9441 135.644 58.1299 134.82 58.4856C133.996 58.8413 133.252 59.3597 132.633 60.0096C132.015 60.6595 131.533 61.4276 131.218 62.268C130.903 63.1083 130.761 64.0036 130.8 64.9002C130.791 65.771 130.954 66.635 131.282 67.442C131.609 68.2491 132.093 68.9832 132.706 69.6018C133.319 70.2204 134.049 70.7111 134.853 71.0456C135.657 71.38 136.519 71.5515 137.39 71.5502H137.42Z" fill="#FAFAFA"/>
<path d="M95.7199 64.1L96.4099 64.4C97.0412 64.6752 97.5953 65.1011 98.0236 65.6403C98.452 66.1795 98.7415 66.8155 98.8669 67.4927C98.9922 68.1698 98.9496 68.8673 98.7426 69.5242C98.5357 70.181 98.1708 70.777 97.6799 71.26C96.7413 72.191 95.472 72.7123 94.1499 72.71C92.6799 72.71 91.2099 72.71 89.7299 72.71C89.4499 72.71 89.4399 72.57 89.4399 72.35V57.35C89.4399 56.9 89.4399 56.89 89.8799 56.9C91.2799 56.9 92.6899 56.9 94.0799 57C94.8633 57.0176 95.6196 57.2895 96.2347 57.7748C96.8499 58.26 97.2905 58.9323 97.4899 59.69C97.7334 60.4568 97.7196 61.2821 97.4506 62.0403C97.1816 62.7985 96.6722 63.448 95.9999 63.89L95.7199 64.1ZM91.0199 68.1V70.82C91.0199 70.96 91.0199 71.13 91.2199 71.12C92.4479 71.1506 93.6766 71.1106 94.8999 71C95.3105 70.9372 95.7018 70.7836 96.0454 70.5504C96.389 70.3172 96.6762 70.0102 96.8861 69.6518C97.0959 69.2934 97.2231 68.8927 97.2584 68.4789C97.2937 68.0651 97.2361 67.6487 97.0899 67.26C96.9032 66.7561 96.5815 66.3132 96.1599 65.9799C95.7384 65.6465 95.2333 65.4355 94.6999 65.37C93.5799 65.21 92.4399 65.23 91.3099 65.15C91.0499 65.15 91.0099 65.26 91.0199 65.48V68.1ZM90.9999 61V63.24C90.9999 63.44 90.9999 63.53 91.2599 63.53C91.7299 63.53 92.1999 63.53 92.6499 63.53C93.277 63.4762 93.895 63.3453 94.4899 63.14C94.9908 62.9336 95.41 62.5683 95.6828 62.1003C95.9557 61.6323 96.0671 61.0875 95.9999 60.55C95.9843 60.03 95.7668 59.5366 95.3934 59.1744C95.02 58.8122 94.5201 58.6097 93.9999 58.61C93.0596 58.518 92.1146 58.4813 91.1699 58.5C91.1099 58.5 90.9999 58.69 90.9999 58.79C90.9999 59.52 90.9999 60.26 90.9999 61Z" fill="#FAFAFA"/>
<path d="M150.2 70.8802V73.0002C150.2 74.2102 150.2 75.4202 150.2 76.6302C150.2 76.9202 150.12 77.0302 149.83 77.0102C149.543 76.9902 149.256 76.9902 148.97 77.0102C148.74 77.0102 148.65 76.9202 148.67 76.6902C148.69 76.4602 148.67 76.4002 148.67 76.2502V61.4602C148.67 61.0302 148.67 61.0302 149.1 61.0202H149.89C150.12 61.0202 150.21 61.1002 150.2 61.3302C150.2 61.8902 150.2 62.4402 150.2 63.0402C150.838 62.1647 151.715 61.4916 152.726 61.1015C153.737 60.7113 154.839 60.6206 155.9 60.8402C157.327 61.0854 158.612 61.8559 159.5 63.0002C160.417 64.1442 160.897 65.5769 160.855 67.0424C160.812 68.5079 160.251 69.9107 159.27 71.0002C158.708 71.654 158.007 72.1732 157.217 72.5194C156.428 72.8655 155.571 73.0299 154.71 73.0002C153.855 72.9799 153.015 72.7734 152.248 72.3952C151.481 72.017 150.806 71.4761 150.27 70.8102L150.2 70.8802ZM159.3 66.8802C159.324 66.2587 159.221 65.6389 158.999 65.0582C158.776 64.4774 158.438 63.9478 158.005 63.5014C157.573 63.0549 157.054 62.7009 156.48 62.4606C155.906 62.2204 155.29 62.099 154.668 62.1038C154.046 62.1085 153.432 62.2393 152.862 62.4882C152.292 62.7371 151.778 63.099 151.352 63.552C150.926 64.005 150.596 64.5397 150.383 65.1238C150.169 65.7078 150.076 66.3292 150.11 66.9502C150.096 67.562 150.206 68.1702 150.433 68.7385C150.66 69.3068 151 69.8235 151.431 70.2576C151.862 70.6917 152.377 71.0344 152.943 71.2651C153.51 71.4958 154.118 71.6097 154.73 71.6002C155.96 71.5739 157.129 71.0634 157.985 70.1797C158.841 69.2959 159.313 68.1102 159.3 66.8802Z" fill="#FAFAFA"/>
<path d="M107.31 73C106.503 73.0067 105.704 72.8526 104.958 72.5468C104.211 72.241 103.534 71.7895 102.964 71.2188C102.394 70.6481 101.944 69.9696 101.639 69.2229C101.335 68.4763 101.182 67.6764 101.19 66.87C101.198 65.2388 101.851 63.6771 103.007 62.5265C104.164 61.3759 105.729 60.73 107.36 60.73C108.166 60.7339 108.963 60.8975 109.706 61.2114C110.448 61.5254 111.121 61.9834 111.686 62.559C112.25 63.1346 112.695 63.8164 112.994 64.5649C113.294 65.3134 113.442 66.1139 113.43 66.92C113.441 67.7248 113.289 68.5236 112.985 69.2688C112.681 70.014 112.23 70.6904 111.659 71.2577C111.088 71.825 110.409 72.2716 109.661 72.5709C108.914 72.8702 108.114 73.0162 107.31 73ZM107.31 71.54C107.907 71.5453 108.5 71.4315 109.053 71.2053C109.607 70.979 110.109 70.6448 110.532 70.2221C110.955 69.7995 111.289 69.2969 111.515 68.7437C111.741 68.1904 111.855 67.5977 111.85 67C111.85 65.7959 111.371 64.6411 110.52 63.7897C109.669 62.9383 108.514 62.46 107.31 62.46C106.106 62.46 104.951 62.9383 104.099 63.7897C103.248 64.6411 102.77 65.7959 102.77 67C102.762 67.5989 102.874 68.1933 103.099 68.7483C103.324 69.3033 103.658 69.8077 104.081 70.2317C104.504 70.6557 105.008 70.9907 105.562 71.2171C106.117 71.4435 106.711 71.5567 107.31 71.55V71.54Z" fill="#FAFAFA"/>
<path d="M117.71 63C118.081 62.6005 118.478 62.2264 118.9 61.88C119.58 61.2997 120.413 60.9271 121.3 60.8065C122.186 60.686 123.089 60.8225 123.9 61.2C124.585 61.5148 125.168 62.017 125.58 62.6487C125.992 63.2804 126.217 64.0158 126.23 64.77C126.31 65.66 126.33 66.56 126.34 67.45C126.34 69.08 126.34 70.72 126.34 72.35C126.34 72.76 126.34 72.76 125.92 72.76H125.29C124.82 72.76 124.82 72.76 124.82 72.3C124.82 70.49 124.82 68.68 124.82 66.87C124.84 66.1136 124.79 65.357 124.67 64.61C124.603 64.1592 124.432 63.7302 124.171 63.3571C123.909 62.9839 123.564 62.6769 123.163 62.4604C122.762 62.2439 122.316 62.1239 121.861 62.11C121.405 62.096 120.953 62.1885 120.54 62.38C119.782 62.6273 119.115 63.0955 118.625 63.7245C118.135 64.3534 117.844 65.1145 117.79 65.91C117.66 67.34 117.69 68.79 117.66 70.23C117.66 70.95 117.66 71.68 117.66 72.41C117.66 72.68 117.57 72.78 117.3 72.76C117.037 72.74 116.773 72.74 116.51 72.76C116.22 72.76 116.12 72.68 116.13 72.39C116.13 71.63 116.13 70.87 116.13 70.11V61.44C116.13 61.02 116.13 61.02 116.55 61.02C116.8 61.02 117.06 61.02 117.31 61.02C117.56 61.02 117.67 61.09 117.66 61.36C117.66 61.78 117.66 62.2 117.66 62.62C117.69 62.72 117.7 62.83 117.71 63Z" fill="#FAFAFA"/>
<path d="M181.38 73.06C180.231 73.0961 179.093 72.8206 178.088 72.2624C177.082 71.7043 176.247 70.8845 175.67 69.89C175.263 69.1568 175.011 68.3473 174.931 67.5124C174.852 66.6775 174.945 65.8351 175.206 65.038C175.467 64.241 175.89 63.5064 176.448 62.8804C177.006 62.2544 177.688 61.7504 178.45 61.4C179.535 60.8874 180.733 60.6588 181.932 60.7358C183.13 60.8127 184.289 61.1927 185.3 61.84C185.855 62.1934 186.328 62.6603 186.69 63.21C186.82 63.39 186.83 63.51 186.6 63.63C186.368 63.751 186.147 63.8915 185.94 64.05C185.72 64.21 185.58 64.17 185.42 63.96C184.591 63.037 183.469 62.4278 182.243 62.2347C181.017 62.0417 179.763 62.2766 178.69 62.9C177.893 63.3874 177.261 64.1023 176.875 64.9525C176.489 65.8027 176.367 66.7491 176.524 67.6695C176.681 68.5899 177.111 69.4421 177.757 70.116C178.403 70.7899 179.237 71.2546 180.15 71.45C181.1 71.6982 182.101 71.6721 183.038 71.3748C183.974 71.0775 184.807 70.5211 185.44 69.77C185.467 69.7328 185.502 69.7026 185.543 69.6817C185.584 69.6608 185.629 69.6499 185.675 69.6499C185.721 69.6499 185.766 69.6608 185.807 69.6817C185.848 69.7026 185.883 69.7328 185.91 69.77C186.128 69.9326 186.355 70.0829 186.59 70.22C186.83 70.35 186.81 70.48 186.66 70.67C185.809 71.7872 184.584 72.561 183.21 72.85C182.61 72.93 182 73 181.38 73.06Z" fill="#FAFAFA"/>
<path d="M164.93 67.53C164.93 65.94 164.93 64.35 164.93 62.76C164.93 62.44 164.83 62.34 164.52 62.36C164.21 62.38 163.63 62.36 163.19 62.36C162.95 62.36 162.87 62.27 162.88 62.04C162.89 61.81 162.88 61.54 162.88 61.29C162.88 61.04 162.96 61.01 163.17 61.01C163.64 61.01 164.11 61.01 164.59 61.01C164.85 61.01 164.93 60.91 164.93 60.66C164.93 59.46 164.93 58.26 164.93 57.06C164.93 56.74 165.02 56.62 165.34 56.65C165.593 56.67 165.847 56.67 166.1 56.65C166.4 56.65 166.48 56.75 166.47 57.03C166.47 58.21 166.47 59.39 166.47 60.57C166.47 61 166.47 61 166.9 61H168.41C168.84 61 168.84 61 168.84 61.45C168.84 61.65 168.84 61.85 168.84 62.05C168.84 62.25 168.77 62.35 168.55 62.34H166.82C166.54 62.34 166.46 62.41 166.46 62.69C166.46 65.8833 166.46 69.0733 166.46 72.26C166.46 72.71 166.46 72.71 166 72.71C165.77 72.71 165.54 72.71 165.31 72.71C165.08 72.71 164.92 72.63 164.93 72.34C164.93 71.34 164.93 70.28 164.93 69.25V67.53Z" fill="#FAFAFA"/>
<path d="M172.39 66.9C172.39 68.71 172.39 70.52 172.39 72.33C172.39 72.66 172.29 72.76 171.97 72.74C171.687 72.7199 171.403 72.7199 171.12 72.74C170.91 72.74 170.83 72.66 170.85 72.46C170.855 72.3968 170.855 72.3332 170.85 72.27V61.44C170.85 61.03 170.85 61.02 171.27 61.02C171.52 61.02 171.77 61.02 172.03 61.02C172.29 61.02 172.39 61.11 172.38 61.38C172.38 63.22 172.39 65.06 172.39 66.9Z" fill="#FAFAFA"/>
<path d="M171.62 58.7401C171.291 58.7401 170.976 58.6095 170.743 58.3769C170.511 58.1444 170.38 57.829 170.38 57.5001C170.364 57.3272 170.385 57.153 170.441 56.9886C170.496 56.8241 170.585 56.6731 170.702 56.545C170.82 56.4169 170.962 56.3146 171.121 56.2446C171.28 56.1746 171.451 56.1384 171.625 56.1384C171.799 56.1384 171.97 56.1746 172.129 56.2446C172.288 56.3146 172.43 56.4169 172.548 56.545C172.665 56.6731 172.754 56.8241 172.809 56.9886C172.865 57.153 172.885 57.3272 172.87 57.5001C172.871 57.6642 172.84 57.8269 172.777 57.9786C172.715 58.1303 172.623 58.268 172.506 58.3835C172.39 58.4991 172.251 58.5901 172.099 58.6514C171.947 58.7126 171.784 58.7428 171.62 58.7401Z" fill="#FAFAFA"/>
</svg>
