<svg width="273" height="80" viewBox="0 0 273 80" fill="none" xmlns="http://www.w3.org/2000/svg">
<path d="M111.62 29.5C114.807 28.1328 118.36 27.8757 121.71 28.77C126.39 29.94 130.97 31.49 135.6 32.89C139.29 34 143.03 34.76 146.89 33.89C148.115 33.6779 149.286 33.2249 150.335 32.5571C151.384 31.8894 152.29 31.0202 153 30C153.21 29.674 153.365 29.316 153.46 28.94C148.51 31.75 143.36 33.29 137.66 31.94C141.824 31.288 145.754 29.5881 149.08 27C152.148 24.9879 155.659 23.7492 159.31 23.39C165.36 22.5807 171.5 22.7394 177.5 23.86C181.63 24.5837 185.659 25.799 189.5 27.48L190.15 27.79C187.96 27.88 185.97 27.98 183.98 28.03C175.318 28.2305 166.837 30.5516 159.28 34.79C156.669 36.4298 153.828 37.6702 150.85 38.47C146.337 39.2819 141.698 39.0285 137.3 37.73C132.411 36.3792 127.66 34.5712 123.11 32.33C119.46 30.66 115.74 29.3 111.62 29.5Z" fill="#FAFAFA"/>
<path d="M82.9998 13.7999C85.7998 13.6499 88.5999 13.4899 91.4099 13.3499C99.0663 12.8628 106.517 10.6729 113.22 6.93994C115.776 5.50489 118.453 4.29692 121.22 3.32994C125.74 1.86994 130.33 2.56994 134.85 3.63994C140.65 4.99994 146 7.56994 151.47 9.99994C154.537 11.4621 157.916 12.1489 161.31 11.9999C159.507 12.8062 157.555 13.2219 155.58 13.2199C152.519 13.2147 149.479 12.7114 146.58 11.7299C143.2 10.6699 139.85 9.49994 136.45 8.45994C132.915 7.2311 129.111 6.99249 125.45 7.76994C123.172 8.25801 121.166 9.59536 119.84 11.5099C119.696 11.7389 119.566 11.9759 119.45 12.2199C119.381 12.4044 119.331 12.5954 119.3 12.7899C124.22 9.92994 129.22 8.26994 134.83 9.64994C133.71 9.91994 132.59 10.1799 131.47 10.4699C129.149 11.1072 126.97 12.1795 125.05 13.6299C121.106 16.4253 116.456 18.0572 111.63 18.3399C105.228 18.9832 98.7647 18.5642 92.4998 17.0999C89.2298 16.2999 86.0598 15.0999 82.8398 14.0999L82.9998 13.7999Z" fill="#FAFAFA"/>
<path d="M137.64 71.6199C138.22 72.2699 138.98 72.7799 139.26 73.4799C139.447 73.8759 139.534 74.3117 139.514 74.7492C139.494 75.1867 139.366 75.6126 139.143 75.9895C138.92 76.3665 138.608 76.683 138.235 76.9115C137.861 77.1399 137.437 77.2733 137 77.2999C134.93 77.4899 132.83 77.2999 130.71 77.2999V66.5799C132.63 66.5799 134.48 66.5099 136.33 66.5799C136.898 66.57 137.453 66.7508 137.906 67.0934C138.359 67.436 138.685 67.9207 138.83 68.4699C139.04 69.0507 139.035 69.6872 138.817 70.2647C138.599 70.8423 138.181 71.3229 137.64 71.6199ZM131.86 72.4799V76.5899C133.56 76.5099 135.21 76.5199 136.86 76.3299C137.307 76.2306 137.704 75.9763 137.982 75.6121C138.26 75.2478 138.399 74.7972 138.377 74.3398C138.354 73.8824 138.17 73.4478 137.858 73.1129C137.545 72.778 137.125 72.5644 136.67 72.5099C135.08 72.4099 133.49 72.4799 131.86 72.4799ZM131.86 71.3199C133.36 71.3199 134.81 71.4199 136.24 71.3199C136.462 71.3056 136.679 71.2455 136.877 71.1434C137.075 71.0414 137.25 70.8996 137.391 70.7269C137.532 70.5542 137.635 70.3544 137.696 70.1398C137.756 69.9252 137.771 69.7006 137.74 69.4799C137.766 69.2584 137.747 69.0338 137.684 68.8198C137.621 68.6058 137.516 68.4068 137.374 68.2348C137.231 68.0628 137.056 67.9214 136.858 67.8192C136.659 67.7169 136.442 67.656 136.22 67.6399C134.8 67.4599 133.36 67.4599 131.86 67.3799V71.3199Z" fill="#FAFAFA"/>
<path d="M159.61 77.3301C159.61 77.1201 159.54 76.9301 159.54 76.7301V66.6301C161.54 66.6301 163.54 66.5401 165.44 66.6301C165.999 66.6374 166.538 66.8421 166.96 67.2081C167.383 67.5741 167.663 68.0778 167.75 68.6301C167.92 69.2491 167.862 69.9086 167.587 70.4886C167.311 71.0685 166.837 71.5303 166.25 71.7901C166.859 71.9249 167.404 72.2645 167.793 72.7521C168.183 73.2397 168.393 73.8461 168.39 74.4701C168.443 75.159 168.221 75.8407 167.773 76.367C167.326 76.8933 166.688 77.2214 166 77.2801C163.91 77.4601 161.78 77.3301 159.61 77.3301ZM160.71 76.4201C162.39 76.4201 163.98 76.5201 165.54 76.4201C165.781 76.4103 166.017 76.3516 166.234 76.2474C166.451 76.1432 166.645 75.9958 166.803 75.8142C166.961 75.6326 167.081 75.4206 167.154 75.1912C167.228 74.9618 167.253 74.7198 167.23 74.4801C167.281 74.0338 167.154 73.5854 166.877 73.2317C166.6 72.8781 166.196 72.6476 165.75 72.5901C164.09 72.4701 162.42 72.5901 160.75 72.5901L160.71 76.4201ZM160.71 67.3301V71.3901C162.15 71.3901 163.54 71.4701 164.91 71.3901C165.392 71.3594 165.844 71.1455 166.173 70.7922C166.502 70.4389 166.684 69.973 166.68 69.4901C166.705 69.0249 166.548 68.5684 166.242 68.2173C165.935 67.8663 165.504 67.6485 165.04 67.6101C163.67 67.4101 162.25 67.4201 160.73 67.3301H160.71Z" fill="#FAFAFA"/>
<path d="M186.52 61.3899C188.24 62.83 190.22 63.3899 192.21 62.1699C193.75 61.2799 193.61 59.57 193.53 57.82C192.93 58.5237 192.134 59.0333 191.244 59.2844C190.354 59.5354 189.409 59.5164 188.53 59.2299C187.823 59.0772 187.184 58.7046 186.702 58.1656C186.221 57.6267 185.922 56.949 185.85 56.2299C185.66 54.6199 185.67 53 185.59 51.29H186.86C186.86 52.52 186.86 53.73 186.86 54.93C186.94 57.56 188.68 58.86 191.21 58.2299C191.887 58.0517 192.485 57.6492 192.904 57.0881C193.324 56.5269 193.541 55.8403 193.52 55.1399C193.57 54.4999 193.52 53.8499 193.52 53.2099C193.52 52.5699 193.52 51.9999 193.52 51.2799L194.52 51.2C194.61 51.33 194.68 51.3799 194.68 51.4399C194.68 54.2399 194.75 57.05 194.62 59.86C194.51 62.27 192.95 63.65 190.54 63.77C189.121 63.911 187.699 63.5306 186.54 62.7C185.83 62.18 185.82 62.11 186.52 61.3899Z" fill="#FAFAFA"/>
<path d="M127.11 77.3999H126V74.3199H119.11V77.3799H118.11C118.11 74.8999 117.95 72.4599 118.11 70.0399C118.27 67.6199 120.11 66.3099 122.76 66.3899C123.861 66.3547 124.93 66.755 125.737 67.504C126.544 68.2529 127.023 69.29 127.07 70.3899C127.07 70.7999 127.07 71.2099 127.07 71.6099L127.11 77.3999ZM125.89 73.2199C125.89 72.2199 125.89 71.3299 125.89 70.4599C125.76 68.5899 124.72 67.6099 122.75 67.4599C121.954 67.3404 121.142 67.5355 120.487 68.004C119.832 68.4725 119.385 69.1776 119.24 69.9699C119.095 70.8688 119.045 71.7805 119.09 72.6899C119.09 72.8699 119.43 73.2199 119.61 73.2199C121.65 73.2299 123.7 73.2199 125.89 73.2199Z" fill="#FAFAFA"/>
<path d="M166.26 51.1C167.013 51.0681 167.765 51.1889 168.471 51.4552C169.176 51.7215 169.82 52.1278 170.365 52.6495C170.909 53.1713 171.342 53.7978 171.638 54.4913C171.934 55.1848 172.086 55.931 172.086 56.685C172.086 57.439 171.934 58.1852 171.638 58.8787C171.342 59.5722 170.909 60.1987 170.365 60.7204C169.82 61.2422 169.176 61.6484 168.471 61.9147C167.765 62.181 167.013 62.3019 166.26 62.27C165.507 62.3019 164.755 62.181 164.049 61.9147C163.344 61.6484 162.7 61.2422 162.155 60.7204C161.611 60.1987 161.178 59.5722 160.882 58.8787C160.586 58.1852 160.434 57.439 160.434 56.685C160.434 55.931 160.586 55.1848 160.882 54.4913C161.178 53.7978 161.611 53.1713 162.155 52.6495C162.7 52.1278 163.344 51.7215 164.049 51.4552C164.755 51.1889 165.507 51.0681 166.26 51.1ZM166.26 52.16C165.659 52.1286 165.058 52.2204 164.495 52.4298C163.931 52.6393 163.416 52.9618 162.981 53.3777C162.546 53.7936 162.201 54.294 161.967 54.8481C161.733 55.4023 161.615 55.9984 161.62 56.6C161.592 57.5087 161.836 58.4051 162.319 59.175C162.803 59.945 163.504 60.5536 164.335 60.9235C165.165 61.2933 166.087 61.4076 166.983 61.2518C167.878 61.096 168.707 60.6772 169.364 60.0486C170.021 59.4201 170.476 58.6103 170.671 57.7223C170.866 56.8344 170.793 55.9084 170.46 55.0624C170.127 54.2164 169.55 53.4887 168.802 52.9718C168.054 52.4549 167.169 52.1723 166.26 52.16Z" fill="#FAFAFA"/>
<path d="M143.77 62.0999H142.68C142.68 61.2399 142.68 60.4399 142.68 59.6399C142.68 59.3899 142.39 58.9499 142.22 58.9499C140.13 58.8999 138.04 58.9499 135.83 58.9499V62.1299L134.69 62.1899V59.5899C134.69 58.2699 134.69 56.9499 134.69 55.5899C134.626 54.7752 134.806 53.9599 135.206 53.2476C135.607 52.5354 136.21 51.9584 136.94 51.5899C137.722 51.1924 138.594 51.0046 139.47 51.0449C140.347 51.0852 141.198 51.3523 141.94 51.8199C142.462 52.1322 142.898 52.5704 143.207 53.0945C143.516 53.6186 143.689 54.2118 143.71 54.8199C143.84 57.2599 143.77 59.6299 143.77 62.0999ZM142.77 57.8899C142.71 56.7399 142.77 55.7199 142.59 54.7199C142.481 53.9744 142.095 53.2971 141.51 52.8228C140.924 52.3485 140.182 52.1118 139.43 52.1599C137.59 52.1599 136.25 52.9899 135.98 54.6099C135.858 55.699 135.798 56.7941 135.8 57.8899H142.77Z" fill="#FAFAFA"/>
<path d="M137.38 17.2699C137.051 17.8412 136.831 18.4684 136.73 19.1199C136.73 19.4799 137.36 20.0299 137.8 20.1199C138.67 20.3199 139.11 19.6399 139.39 18.8899C139.83 19.5299 140.032 20.3043 139.959 21.0776C139.885 21.8509 139.543 22.5738 138.99 23.1199C138.394 23.7297 137.599 24.1053 136.75 24.1785C135.9 24.2516 135.053 24.0175 134.361 23.5185C133.67 23.0196 133.18 22.2891 132.982 21.4599C132.784 20.6306 132.889 19.7577 133.28 18.9999C133.643 18.2684 134.257 17.6914 135.009 17.3739C135.762 17.0565 136.603 17.0196 137.38 17.2699Z" fill="#FAFAFA"/>
<path d="M106.38 67.6201V77.3801H105.23V66.6201H114.39V77.3501H113.29V67.6201H106.38Z" fill="#FAFAFA"/>
<path d="M106.41 51.25H107.52V56H114.35V51.28L115.47 51.21V62.09L114.4 62.15V57.15H107.57V62.07H106.41V51.25Z" fill="#FAFAFA"/>
<path d="M175.61 58.4401V62.0901H174.55C174.55 59.4701 174.44 56.9101 174.55 54.3601C174.589 53.5694 174.915 52.8202 175.468 52.2531C176.02 51.686 176.76 51.34 177.55 51.2801C178.644 51.1199 179.759 51.1983 180.82 51.5101C182.82 52.1701 183.67 54.1801 183.12 56.5101C182.872 57.4185 182.294 58.2015 181.498 58.7049C180.702 59.2082 179.747 59.3956 178.82 59.2301C177.733 59.0387 176.661 58.7748 175.61 58.4401ZM175.61 55.7601C175.61 57.4501 176.69 58.2701 178.91 58.2701C180.97 58.2701 182.15 57.1401 182.13 55.2201C182.14 54.7964 182.061 54.3753 181.896 53.9846C181.732 53.5939 181.487 53.2424 181.177 52.9533C180.867 52.6642 180.5 52.444 180.099 52.3073C179.697 52.1706 179.272 52.1204 178.85 52.1601C176.72 52.1701 175.63 53.3801 175.63 55.7601H175.61Z" fill="#FAFAFA"/>
<path d="M125.17 57.23V62.0801H124.11V51.2901L125.11 51.2001V56C126.72 56.37 127.94 56.21 128.79 54.67C129.415 53.6383 130.156 52.682 131 51.82C131.391 51.4978 131.829 51.2381 132.3 51.05L132.55 51.3801L128.65 56.53L132.82 62.03C132.05 62.26 131.55 62.2101 131.1 61.5601C130.37 60.5001 129.43 59.56 128.79 58.48C127.92 57 126.73 56.93 125.17 57.23Z" fill="#FAFAFA"/>
<path d="M141.2 76.54L142.47 76.37C142.47 74.48 142.47 72.63 142.47 70.78C142.418 70.0318 142.573 69.2838 142.917 68.6173C143.26 67.9508 143.78 67.3914 144.42 67C145.046 66.5881 145.766 66.3424 146.513 66.286C147.26 66.2295 148.009 66.3643 148.689 66.6774C149.369 66.9906 149.959 67.4719 150.402 68.076C150.844 68.68 151.126 69.3869 151.22 70.1299C151.43 72.5099 151.22 74.92 151.22 77.37H150.12V72C150.12 71.56 150.12 71.12 150.12 70.68C149.98 67.62 147.24 66.9599 145.23 67.8399C144.68 68.1105 144.226 68.5431 143.929 69.0794C143.632 69.6158 143.507 70.2302 143.57 70.8399C143.57 72.9699 143.57 75.1 143.57 77.23C143.576 77.263 143.576 77.2969 143.57 77.33C141.77 77.7 141.16 77.52 141.2 76.54Z" fill="#FAFAFA"/>
<path d="M98.0898 62.0901H96.9998C96.9998 61.4801 96.9998 60.8801 96.9998 60.2801C96.9998 58.6601 96.9998 57.0301 96.9998 55.4101C97.0345 54.9956 96.9826 54.5785 96.8474 54.1851C96.7122 53.7918 96.4968 53.4308 96.2147 53.1252C95.9326 52.8196 95.59 52.576 95.2087 52.4098C94.8274 52.2437 94.4157 52.1586 93.9998 52.1601C91.9498 52.0701 90.6898 53.0701 90.5298 55.1601C90.3998 57.0101 90.5298 58.8801 90.4598 60.7401V62.1101H88.0798C87.5998 60.9101 88.6098 61.2101 89.2498 61.1101C89.2498 59.2101 89.2498 57.3501 89.2498 55.5001C89.194 54.6731 89.3895 53.8486 89.8107 53.1348C90.2318 52.4209 90.859 51.8511 91.6098 51.5001C92.2608 51.1437 92.992 50.9595 93.7341 50.9647C94.4762 50.97 95.2047 51.1645 95.8506 51.53C96.4965 51.8955 97.0384 52.4199 97.425 53.0534C97.8116 53.6869 98.0301 54.4085 98.0598 55.1501C98.1998 57.4401 98.0898 59.7401 98.0898 62.0901Z" fill="#FAFAFA"/>
<path d="M152.28 57.0001V56.0001C153.09 56.0001 153.86 56.0001 154.63 56.0001C156.01 56.0001 156.88 55.2701 156.92 54.2101C156.905 53.9315 156.834 53.6587 156.713 53.4073C156.593 53.1559 156.423 52.9309 156.215 52.7451C156.007 52.5593 155.764 52.4164 155.501 52.3246C155.237 52.2328 154.958 52.1939 154.68 52.2101C153.362 52.3019 152.051 52.4621 150.75 52.6901C150.46 52.3401 150.54 51.9701 151.28 51.6901C152.594 51.1246 154.053 50.9881 155.45 51.3001C156.038 51.3551 156.595 51.5858 157.05 51.9621C157.505 52.3385 157.836 52.843 158 53.4101C158.146 54.0068 158.076 54.6361 157.801 55.1857C157.526 55.7352 157.065 56.1692 156.5 56.4101L157.08 56.7201C157.507 56.9312 157.87 57.2534 158.13 57.6529C158.391 58.0524 158.539 58.5145 158.559 58.9909C158.58 59.4672 158.472 59.9403 158.247 60.3606C158.022 60.7809 157.688 61.133 157.28 61.3801C156.26 61.99 155.084 62.2902 153.896 62.244C152.708 62.1979 151.56 61.8074 150.59 61.1201C150.4 60.9601 150.44 60.5001 150.5 60.1201C151.214 60.6123 152.025 60.9471 152.878 61.1022C153.732 61.2574 154.608 61.2294 155.45 61.0201C156.009 60.9383 156.517 60.6492 156.873 60.2101C157.229 59.7709 157.406 59.214 157.37 58.6501C157.24 57.6501 156.37 56.9901 154.94 56.9701L152.28 57.0001Z" fill="#FAFAFA"/>
<path d="M78.3101 51.26H79.3101V55.91C81.1501 56.43 81.6801 56.28 82.7501 54.91C83.5101 53.91 84.2801 52.91 85.0001 51.91C85.1538 51.6155 85.4169 51.3929 85.7328 51.2901C86.0488 51.1873 86.3924 51.2124 86.6901 51.36L82.7601 56.56C84.1301 58.38 85.5001 60.17 86.9201 62.05C86.6275 62.2057 86.2865 62.2437 85.9668 62.1563C85.6471 62.069 85.3728 61.8628 85.2001 61.58C84.3753 60.5931 83.601 59.5651 82.8801 58.5C82.0401 57.04 80.8801 56.96 79.3601 57.28V62.11L78.3601 62.16L78.3101 51.26Z" fill="#FAFAFA"/>
<path d="M102.61 62.0999H101.55V51.2599L102.61 51.2V62.0999Z" fill="#FAFAFA"/>
<path d="M119.29 51.26H120.29V62.08H119.29V51.26Z" fill="#FAFAFA"/>
<path d="M154.79 77.37V66.63L155.79 66.53V77.37H154.79Z" fill="#FAFAFA"/>
<path d="M136.5 15C137.588 15 138.651 15.3226 139.556 15.9269C140.46 16.5313 141.165 17.3902 141.581 18.3952C141.998 19.4002 142.107 20.5061 141.894 21.573C141.682 22.6399 141.158 23.6199 140.389 24.3891C139.62 25.1583 138.64 25.6821 137.573 25.8943C136.506 26.1065 135.4 25.9976 134.395 25.5813C133.39 25.1651 132.531 24.4601 131.927 23.5556C131.323 22.6512 131 21.5878 131 20.5C131.003 19.0421 131.583 17.6447 132.614 16.6138C133.645 15.583 135.042 15.0026 136.5 15ZM136.5 11C134.621 11 132.784 11.5572 131.222 12.601C129.66 13.6449 128.442 15.1286 127.723 16.8645C127.004 18.6004 126.816 20.5105 127.183 22.3534C127.549 24.1962 128.454 25.8889 129.782 27.2175C131.111 28.5461 132.804 29.4509 134.647 29.8175C136.489 30.184 138.4 29.9959 140.136 29.2769C141.871 28.5578 143.355 27.3402 144.399 25.7779C145.443 24.2157 146 22.3789 146 20.5C146 17.9804 144.999 15.5641 143.218 13.7825C141.436 12.0009 139.02 11 136.5 11Z" fill="#FAFAFA"/>
</svg>
