<svg width="131" height="76" viewBox="0 0 131 76" fill="none" xmlns="http://www.w3.org/2000/svg">
<path d="M0.799805 52.0001C6.93314 50.0401 13.0931 48.3067 19.2798 46.8001C25.4665 45.2934 31.7065 44.0267 37.9998 43.0001C37.4698 42.9501 36.9498 42.9301 36.4198 42.8601C33.4174 42.534 30.5215 41.5604 27.9319 40.0066C25.3422 38.4528 23.1204 36.3558 21.4198 33.8601C19.9163 31.6292 18.8257 29.1465 18.1998 26.5301C17.7198 24.7601 17.1998 22.9801 16.7498 21.2001V21.1101C16.6542 20.5965 16.3859 20.131 15.9894 19.7908C15.5929 19.4507 15.092 19.2564 14.5698 19.2401C13.9998 19.0701 13.3498 19.0001 12.7198 19.0001C12.4898 19.0001 12.4098 18.9201 12.4098 18.6901C12.4098 17.1101 12.4098 15.5301 12.4098 13.9501C12.4098 13.6901 12.4898 13.6101 12.7498 13.5801C14.489 13.4704 16.1889 13.0149 17.7498 12.2401C18.459 11.866 19.0957 11.3682 19.6298 10.7701C20.8498 9.44385 22.1888 8.23212 23.6298 7.15007C25.0598 6.08007 26.4198 5.00007 27.8698 4.00007C29.9636 2.67088 32.3033 1.77647 34.7498 1.37007C40.0907 0.359473 45.6159 1.43302 50.1898 4.37007C52.2654 5.7906 54.1508 7.47091 55.7998 9.37008C56.7998 10.4801 57.7998 11.6401 58.7998 12.7801C59.3489 13.4547 60.1368 13.8916 60.9998 14.0001C61.5236 14.0569 62.0531 14.0333 62.5698 13.9301C63.6886 13.7214 64.8377 13.7384 65.9498 13.9801C66.5715 14.1158 67.2188 14.0744 67.8181 13.8605C68.4173 13.6466 68.9446 13.2688 69.3398 12.7701C70.7098 11.2501 72.0598 9.77007 73.4598 8.24007C74.9979 6.55744 76.7652 5.09979 78.7098 3.91007C81.1328 2.47641 83.8194 1.54461 86.6098 1.17008C91.4947 0.450589 96.4742 1.54251 100.61 4.24007C102.48 5.54657 104.279 6.9519 106 8.45007C106.932 9.2475 107.817 10.099 108.65 11.0001C109.602 11.971 110.802 12.6626 112.12 13.0001C113.12 13.2801 114.23 13.4401 115.3 13.6201C115.54 13.6201 115.64 13.7301 115.64 13.9801C115.64 15.5534 115.64 17.1234 115.64 18.6901C115.64 18.9501 115.57 19.0401 115.3 19.0401C114.489 19.0145 113.679 19.1157 112.9 19.3401C112.556 19.4266 112.242 19.6027 111.989 19.8504C111.736 20.0982 111.554 20.4086 111.46 20.7501C111.06 22.2901 110.64 23.8201 110.24 25.3601C109.764 27.3701 109.094 29.3292 108.24 31.2101C106.652 34.4226 104.274 37.1784 101.328 39.2182C98.3819 41.258 94.9654 42.5147 91.3998 42.8701C91.1184 42.8853 90.838 42.9153 90.5598 42.9601C103.959 45.1669 117.2 48.2434 130.2 52.1701V52.2601L128.72 52.0001C125.72 51.3701 122.72 50.7001 119.67 50.1001C116.29 49.4334 112.9 48.8001 109.5 48.2001C106.28 47.6401 103.04 47.1201 99.8098 46.6301C97.5631 46.2901 95.3098 45.9901 93.0498 45.7301C89.5998 45.3501 86.1498 44.9601 82.6898 44.7301C79.3898 44.4601 76.0698 44.2901 72.7598 44.1401C67.4098 43.8901 62.0498 43.9101 56.6998 44.1401C52.2798 44.2901 47.8598 44.5501 43.4698 44.9901C40.5998 45.2801 37.7298 45.5601 34.8698 45.9201C31.8698 46.3001 28.8698 46.7401 25.8698 47.2101C22.8698 47.6801 20.1598 48.1601 17.3198 48.6801C14.8798 49.0001 12.4398 49.4701 9.9998 50.0001C6.9998 50.6401 3.9998 51.3201 0.939804 52.0001H0.799805ZM89.3698 40.1001C92.9417 40.1058 96.4353 39.0541 99.4103 37.0773C102.385 35.1006 104.709 32.2874 106.087 28.9923C107.466 25.6972 107.838 22.0677 107.157 18.5614C106.476 15.055 104.773 11.8287 102.261 9.28917C99.7491 6.74961 96.5417 5.01045 93.0431 4.29093C89.5444 3.57141 85.9111 3.90373 82.601 5.24599C79.2909 6.58825 76.4523 8.88038 74.4429 11.8335C72.4336 14.7865 71.3434 18.2684 71.3098 21.8401C71.2913 24.2249 71.7446 26.5899 72.6436 28.7989C73.5426 31.0079 74.8694 33.0173 76.5479 34.7116C78.2264 36.4059 80.2233 37.7515 82.4238 38.6711C84.6243 39.5908 86.9849 40.0662 89.3698 40.0701V40.1001ZM56.9198 22.0001C56.9178 18.4188 55.8528 14.9187 53.8599 11.9432C51.8669 8.96776 49.0356 6.65077 45.7247 5.2858C42.4137 3.92083 38.7722 3.56931 35.2613 4.27577C31.7504 4.98223 28.5282 6.71488 26.0029 9.25422C23.4776 11.7936 21.7628 15.0253 21.0758 18.5401C20.3888 22.0548 20.7605 25.6944 22.1438 28.9977C23.5271 32.301 25.8597 35.1194 28.8462 37.0959C31.8327 39.0723 35.3386 40.1179 38.9198 40.1001C43.7053 40.0815 48.2881 38.1654 51.6626 34.7722C55.0371 31.3789 56.9278 26.7856 56.9198 22.0001ZM82.8298 42.0001V41.9301L82.5398 41.8101C79.4858 40.752 76.7173 39.0033 74.4498 36.7001C72.599 34.7602 71.0939 32.5178 69.9998 30.0701C69.1949 28.2797 68.5264 26.4311 67.9998 24.5401C67.5898 23.1901 67.2098 21.8301 66.7498 20.5401C66.5417 19.9254 66.1183 19.4066 65.5578 19.0795C64.9973 18.7524 64.3374 18.6389 63.6998 18.7601C63.1976 18.7887 62.7147 18.9641 62.3112 19.2645C61.9077 19.5649 61.6012 19.9771 61.4298 20.4501C61.1998 21.1401 60.9898 21.8401 60.7698 22.5301C60.0057 25.4282 59.0022 28.258 57.7698 30.9901C55.6081 35.4925 51.9295 39.0897 47.3798 41.1501C46.6198 41.5001 45.8298 41.7801 45.0498 42.0901C57.5993 40.6321 70.2736 40.6019 82.8298 42.0001Z" fill="#FAFAFA"/>
<path d="M66.42 71.1202C64.778 71.1122 63.1753 70.6174 61.8146 69.6984C60.4539 68.7794 59.3963 67.4774 58.7758 65.9571C58.1552 64.4369 57.9995 62.7668 58.3283 61.1581C58.6571 59.5493 59.4557 58.0743 60.6231 56.9195C61.7905 55.7648 63.2741 54.9822 64.8863 54.6709C66.4985 54.3595 68.1668 54.5333 69.6802 55.1704C71.1936 55.8074 72.4841 56.879 73.3883 58.2496C74.2925 59.6202 74.7699 61.2282 74.76 62.8702C74.7696 63.9639 74.5597 65.0484 74.1428 66.0595C73.726 67.0707 73.1106 67.988 72.333 68.7572C71.5554 69.5263 70.6315 70.1318 69.6159 70.5377C68.6002 70.9435 67.5135 71.1416 66.42 71.1202ZM66.42 69.5502C67.3069 69.5679 68.1882 69.4061 69.011 69.0746C69.8337 68.743 70.581 68.2485 71.2078 67.6208C71.8345 66.9931 72.3279 66.2451 72.6583 65.4218C72.9886 64.5986 73.1491 63.717 73.13 62.8302C73.1597 61.9332 73.0081 61.0395 72.6843 60.2025C72.3604 59.3655 71.871 58.6025 71.2453 57.9591C70.6196 57.3157 69.8705 56.8052 69.0429 56.4582C68.2152 56.1112 67.3261 55.9347 66.4286 55.9394C65.5312 55.9441 64.6439 56.1299 63.82 56.4856C62.996 56.8413 62.2523 57.3597 61.6334 58.0096C61.0145 58.6595 60.5332 59.4276 60.2181 60.268C59.9031 61.1083 59.7609 62.0036 59.8 62.9002C59.7907 63.771 59.9544 64.635 60.2816 65.442C60.6087 66.2491 61.0928 66.9832 61.7058 67.6018C62.3188 68.2204 63.0485 68.7111 63.8526 69.0456C64.6567 69.38 65.5191 69.5515 66.39 69.5502H66.42Z" fill="#FAFAFA"/>
<path d="M24.7199 62.1L25.4099 62.4C26.0412 62.6752 26.5953 63.1011 27.0236 63.6403C27.452 64.1795 27.7415 64.8155 27.8669 65.4927C27.9922 66.1698 27.9496 66.8673 27.7426 67.5242C27.5357 68.181 27.1708 68.777 26.6799 69.26C25.7413 70.191 24.472 70.7123 23.1499 70.71C21.6799 70.71 20.2099 70.71 18.7299 70.71C18.4499 70.71 18.4399 70.57 18.4399 70.35V55.35C18.4399 54.9 18.4399 54.89 18.8799 54.9C20.2799 54.9 21.6899 54.9 23.0799 55C23.8633 55.0176 24.6196 55.2895 25.2347 55.7748C25.8499 56.26 26.2905 56.9323 26.4899 57.69C26.7334 58.4568 26.7196 59.2821 26.4506 60.0403C26.1816 60.7985 25.6722 61.448 24.9999 61.89L24.7199 62.1ZM20.0199 66.1V68.82C20.0199 68.96 20.0199 69.13 20.2199 69.12C21.4479 69.1506 22.6766 69.1106 23.8999 69C24.3105 68.9372 24.7018 68.7836 25.0454 68.5504C25.389 68.3172 25.6762 68.0102 25.8861 67.6518C26.0959 67.2934 26.2231 66.8927 26.2584 66.4789C26.2937 66.0651 26.2361 65.6487 26.0899 65.26C25.9032 64.7561 25.5815 64.3132 25.1599 63.9799C24.7384 63.6465 24.2333 63.4355 23.6999 63.37C22.5799 63.21 21.4399 63.23 20.3099 63.15C20.0499 63.15 20.0099 63.26 20.0199 63.48V66.1ZM19.9999 59V61.24C19.9999 61.44 19.9999 61.53 20.2599 61.53C20.7299 61.53 21.1999 61.53 21.6499 61.53C22.277 61.4762 22.895 61.3453 23.4899 61.14C23.9908 60.9336 24.41 60.5683 24.6828 60.1003C24.9557 59.6323 25.0671 59.0875 24.9999 58.55C24.9843 58.03 24.7668 57.5366 24.3934 57.1744C24.02 56.8122 23.5201 56.6097 22.9999 56.61C22.0596 56.518 21.1146 56.4813 20.1699 56.5C20.1099 56.5 19.9999 56.69 19.9999 56.79C19.9999 57.52 19.9999 58.26 19.9999 59Z" fill="#FAFAFA"/>
<path d="M79.1997 68.8802V71.0002C79.1997 72.2102 79.1997 73.4202 79.1997 74.6302C79.1997 74.9202 79.1197 75.0302 78.8297 75.0102C78.5434 74.9902 78.256 74.9902 77.9697 75.0102C77.7397 75.0102 77.6497 74.9202 77.6697 74.6902C77.6897 74.4602 77.6697 74.4002 77.6697 74.2502V59.4602C77.6697 59.0302 77.6697 59.0302 78.0997 59.0202H78.8897C79.1197 59.0202 79.2097 59.1002 79.1997 59.3302C79.1997 59.8902 79.1997 60.4402 79.1997 61.0402C79.8381 60.1647 80.7151 59.4916 81.726 59.1015C82.7368 58.7113 83.8387 58.6206 84.8997 58.8402C86.3273 59.0854 87.6115 59.8559 88.4997 61.0002C89.4165 62.1442 89.8968 63.5769 89.8546 65.0424C89.8125 66.5079 89.2507 67.9107 88.2697 69.0002C87.7081 69.654 87.0067 70.1732 86.2174 70.5194C85.4281 70.8655 84.5711 71.0299 83.7097 71.0002C82.8549 70.9799 82.0148 70.7734 81.248 70.3952C80.4811 70.017 79.806 69.4761 79.2697 68.8102L79.1997 68.8802ZM88.2997 64.8802C88.3236 64.2587 88.2212 63.6389 87.9987 63.0582C87.7763 62.4774 87.4384 61.9478 87.0054 61.5014C86.5725 61.0549 86.0535 60.7009 85.4799 60.4606C84.9063 60.2204 84.2899 60.099 83.668 60.1038C83.0462 60.1085 82.4317 60.2393 81.8618 60.4882C81.2919 60.7371 80.7784 61.099 80.3523 61.552C79.9263 62.005 79.5965 62.5397 79.3829 63.1238C79.1693 63.7078 79.0764 64.3292 79.1097 64.9502C79.0962 65.562 79.2062 66.1702 79.4332 66.7385C79.6602 67.3068 79.9995 67.8235 80.4309 68.2576C80.8622 68.6917 81.3766 69.0344 81.9435 69.2651C82.5103 69.4958 83.1178 69.6097 83.7297 69.6002C84.9595 69.5739 86.1294 69.0634 86.9851 68.1797C87.8407 67.2959 88.3132 66.1102 88.2997 64.8802Z" fill="#FAFAFA"/>
<path d="M36.3097 71C35.5034 71.0067 34.7037 70.8526 33.9575 70.5468C33.2113 70.241 32.5336 69.7895 31.9638 69.2188C31.394 68.6481 30.9437 67.9696 30.6391 67.2229C30.3345 66.4763 30.1818 65.6764 30.1898 64.87C30.1977 63.2388 30.8512 61.6771 32.0075 60.5265C33.1637 59.3759 34.7285 58.73 36.3597 58.73C37.1659 58.7339 37.9633 58.8975 38.7058 59.2114C39.4484 59.5254 40.1213 59.9834 40.6858 60.559C41.2502 61.1346 41.695 61.8164 41.9943 62.5649C42.2937 63.3134 42.4417 64.1139 42.4297 64.92C42.4406 65.7248 42.2895 66.5236 41.9853 67.2688C41.6811 68.014 41.23 68.6904 40.659 69.2577C40.088 69.825 39.4087 70.2716 38.6615 70.5709C37.9143 70.8702 37.1145 71.0162 36.3097 71ZM36.3097 69.54C36.9074 69.5453 37.5002 69.4315 38.0534 69.2053C38.6067 68.979 39.1093 68.6448 39.5319 68.2221C39.9546 67.7995 40.2888 67.2969 40.515 66.7437C40.7413 66.1904 40.8551 65.5977 40.8497 65C40.8497 63.7959 40.3714 62.6411 39.52 61.7897C38.6686 60.9383 37.5138 60.46 36.3097 60.46C35.1057 60.46 33.9509 60.9383 33.0995 61.7897C32.2481 62.6411 31.7697 63.7959 31.7697 65C31.7617 65.5989 31.8736 66.1933 32.0988 66.7483C32.3239 67.3033 32.6579 67.8077 33.0809 68.2317C33.504 68.6557 34.0076 68.9907 34.5621 69.2171C35.1166 69.4435 35.7108 69.5567 36.3097 69.55V69.54Z" fill="#FAFAFA"/>
<path d="M46.7096 61C47.0808 60.6005 47.4784 60.2264 47.8996 59.88C48.5803 59.2997 49.4134 58.9271 50.2998 58.8065C51.1862 58.686 52.0886 58.8225 52.8996 59.2C53.5851 59.5148 54.1675 60.017 54.5798 60.6487C54.9921 61.2804 55.2173 62.0158 55.2296 62.77C55.3096 63.66 55.3296 64.56 55.3396 65.45C55.3396 67.08 55.3396 68.72 55.3396 70.35C55.3396 70.76 55.3396 70.76 54.9196 70.76H54.2896C53.8196 70.76 53.8196 70.76 53.8196 70.3C53.8196 68.49 53.8196 66.68 53.8196 64.87C53.8404 64.1136 53.7901 63.357 53.6696 62.61C53.6029 62.1592 53.4321 61.7302 53.1706 61.3571C52.9091 60.9839 52.5641 60.6769 52.1632 60.4604C51.7623 60.2439 51.3163 60.1239 50.8609 60.11C50.4055 60.096 49.953 60.1885 49.5396 60.38C48.7816 60.6273 48.1148 61.0955 47.6248 61.7245C47.1348 62.3534 46.8439 63.1145 46.7896 63.91C46.6596 65.34 46.6896 66.79 46.6596 68.23C46.6596 68.95 46.6596 69.68 46.6596 70.41C46.6596 70.68 46.5696 70.78 46.2996 70.76C46.0366 70.74 45.7725 70.74 45.5096 70.76C45.2196 70.76 45.1196 70.68 45.1296 70.39C45.1296 69.63 45.1296 68.87 45.1296 68.11V59.44C45.1296 59.02 45.1296 59.02 45.5496 59.02C45.7996 59.02 46.0596 59.02 46.3096 59.02C46.5596 59.02 46.6696 59.09 46.6596 59.36C46.6596 59.78 46.6596 60.2 46.6596 60.62C46.6896 60.72 46.6996 60.83 46.7096 61Z" fill="#FAFAFA"/>
<path d="M110.38 71.06C109.231 71.0961 108.093 70.8206 107.088 70.2624C106.082 69.7043 105.247 68.8845 104.67 67.89C104.263 67.1568 104.011 66.3473 103.931 65.5124C103.852 64.6775 103.945 63.8351 104.206 63.038C104.467 62.241 104.89 61.5064 105.448 60.8804C106.006 60.2544 106.688 59.7504 107.45 59.4C108.535 58.8874 109.733 58.6588 110.932 58.7358C112.13 58.8127 113.289 59.1927 114.3 59.84C114.855 60.1934 115.328 60.6603 115.69 61.21C115.82 61.39 115.83 61.51 115.6 61.63C115.368 61.751 115.147 61.8915 114.94 62.05C114.72 62.21 114.58 62.17 114.42 61.96C113.591 61.037 112.469 60.4278 111.243 60.2347C110.017 60.0417 108.763 60.2766 107.69 60.9C106.893 61.3874 106.261 62.1023 105.875 62.9525C105.489 63.8027 105.367 64.7491 105.524 65.6695C105.681 66.5899 106.111 67.4421 106.757 68.116C107.403 68.7899 108.237 69.2546 109.15 69.45C110.1 69.6982 111.101 69.6721 112.038 69.3748C112.974 69.0775 113.807 68.5211 114.44 67.77C114.467 67.7328 114.502 67.7026 114.543 67.6817C114.584 67.6608 114.629 67.6499 114.675 67.6499C114.721 67.6499 114.766 67.6608 114.807 67.6817C114.848 67.7026 114.883 67.7328 114.91 67.77C115.128 67.9326 115.355 68.0829 115.59 68.22C115.83 68.35 115.81 68.48 115.66 68.67C114.809 69.7872 113.584 70.561 112.21 70.85C111.61 70.93 111 71 110.38 71.06Z" fill="#FAFAFA"/>
<path d="M93.9297 65.53C93.9297 63.94 93.9297 62.35 93.9297 60.76C93.9297 60.44 93.8297 60.34 93.5197 60.36C93.2097 60.38 92.6297 60.36 92.1897 60.36C91.9497 60.36 91.8697 60.27 91.8797 60.04C91.8897 59.81 91.8797 59.54 91.8797 59.29C91.8797 59.04 91.9597 59.01 92.1697 59.01C92.6397 59.01 93.1097 59.01 93.5897 59.01C93.8497 59.01 93.9297 58.91 93.9297 58.66C93.9297 57.46 93.9297 56.26 93.9297 55.06C93.9297 54.74 94.0197 54.62 94.3397 54.65C94.5927 54.67 94.8468 54.67 95.0997 54.65C95.3997 54.65 95.4797 54.75 95.4697 55.03C95.4697 56.21 95.4697 57.39 95.4697 58.57C95.4697 59 95.4697 59 95.8997 59H97.4097C97.8397 59 97.8397 59 97.8397 59.45C97.8397 59.65 97.8397 59.85 97.8397 60.05C97.8397 60.25 97.7697 60.35 97.5497 60.34H95.8197C95.5397 60.34 95.4597 60.41 95.4597 60.69C95.4597 63.8833 95.4597 67.0733 95.4597 70.26C95.4597 70.71 95.4597 70.71 94.9997 70.71C94.7697 70.71 94.5397 70.71 94.3097 70.71C94.0797 70.71 93.9197 70.63 93.9297 70.34C93.9297 69.34 93.9297 68.28 93.9297 67.25V65.53Z" fill="#FAFAFA"/>
<path d="M101.39 64.9C101.39 66.71 101.39 68.52 101.39 70.33C101.39 70.66 101.29 70.76 100.97 70.74C100.687 70.7199 100.403 70.7199 100.12 70.74C99.9096 70.74 99.8297 70.66 99.8497 70.46C99.8547 70.3968 99.8547 70.3332 99.8497 70.27V59.44C99.8497 59.03 99.8496 59.02 100.27 59.02C100.52 59.02 100.77 59.02 101.03 59.02C101.29 59.02 101.39 59.11 101.38 59.38C101.38 61.22 101.39 63.06 101.39 64.9Z" fill="#FAFAFA"/>
<path d="M100.62 56.7401C100.291 56.7401 99.9757 56.6095 99.7432 56.3769C99.5106 56.1444 99.38 55.829 99.38 55.5001C99.3645 55.3272 99.3852 55.153 99.4407 54.9886C99.4962 54.8241 99.5853 54.6731 99.7025 54.545C99.8196 54.4169 99.9621 54.3146 100.121 54.2446C100.28 54.1746 100.451 54.1384 100.625 54.1384C100.799 54.1384 100.97 54.1746 101.129 54.2446C101.288 54.3146 101.43 54.4169 101.548 54.545C101.665 54.6731 101.754 54.8241 101.809 54.9886C101.865 55.153 101.885 55.3272 101.87 55.5001C101.871 55.6642 101.84 55.8269 101.777 55.9786C101.715 56.1303 101.623 56.268 101.506 56.3835C101.39 56.4991 101.251 56.5901 101.099 56.6514C100.947 56.7126 100.784 56.7428 100.62 56.7401Z" fill="#FAFAFA"/>
</svg>
