<svg width="743" height="661" viewBox="0 0 743 661" fill="none" xmlns="http://www.w3.org/2000/svg">
<path d="M622.437 661L565.267 161.374L441.001 661H302.221L177.882 161.374L120.711 661H0L84.3493 0.555542H239.496L371.019 502.246L503.504 0.555542H658.651L743 661H622.437Z" fill="#36498C"/>
<path d="M500.051 634.262L246.22 633.17L302.875 304.216L440.142 302.03L500.051 634.262Z" fill="#FBF9FB"/>
<path d="M558.411 635.59C563.642 639.376 573.023 638.972 579.269 634.666C579.269 634.666 580.115 634.08 585.736 628.798C621.807 594.84 629.054 543.954 601.924 515.135C587.168 499.457 556.342 497.687 556.342 497.687C548.768 497.258 547.584 500.563 553.687 505.065C553.687 505.065 563.524 512.299 573.739 523.15C600.87 551.969 591.657 577.964 555.587 611.91L553.999 615.891C551.189 622.93 553.18 631.803 558.411 635.59Z" fill="#190F19"/>
<path d="M440.378 316.707C440.378 316.707 504.126 333.061 575.42 585.095C575.42 585.095 594.171 655.496 564.386 658.307H321.667C321.667 658.307 315.044 592.134 360.275 610.44H392.324C392.324 610.44 363.033 466.175 462.33 488.71" fill="#FBF9FB"/>
<path d="M564.515 661H319.246L318.999 658.58C318.843 657.071 315.498 621.512 332.323 608.904C339.506 603.531 349.083 603.141 360.794 607.76H389.109C387.977 601.15 385.609 585.186 385.609 566.658C385.622 534.222 392.714 510.855 406.702 497.193C419.844 484.351 438.764 480.617 462.915 486.108C464.359 486.433 465.257 487.877 464.932 489.309C464.607 490.74 463.162 491.651 461.731 491.325C439.467 486.277 422.212 489.53 410.449 501.018C379.441 531.308 394.783 609.126 394.939 609.906L395.589 613.12H359.74L359.259 612.925C349.187 608.852 341.211 608.93 335.537 613.185C323.384 622.28 323.722 647.677 324.152 655.626H564.229C568.172 655.223 571.203 653.428 573.494 650.136C585.257 633.248 572.934 586.253 572.804 585.784C552.739 514.836 520.299 417.879 479.805 359.161C455.589 324.045 439.818 319.335 439.662 319.283C438.244 318.892 437.398 317.422 437.775 316.004C438.153 314.586 439.597 313.727 441.015 314.091C443.683 314.781 507.079 333.712 577.97 584.353C578.516 586.422 591.06 634.276 577.892 653.193C574.665 657.825 570.202 660.44 564.619 660.974L564.515 661Z" fill="#190F19"/>
<path d="M280.286 488.71C379.583 466.175 350.292 610.44 350.292 610.44H382.342C427.573 592.134 420.949 658.307 420.949 658.307H178.244C148.459 655.496 167.209 585.095 167.209 585.095C238.491 333.061 302.251 316.707 302.251 316.707" fill="#FBF9FB"/>
<path d="M423.382 661L177.983 660.987C172.401 660.453 167.925 657.838 164.711 653.206C151.542 634.289 164.073 586.435 164.619 584.405C235.524 333.725 298.92 314.794 301.587 314.104C303.018 313.74 304.476 314.599 304.853 316.03C305.23 317.461 304.359 318.918 302.927 319.296C302.797 319.335 287.026 324.045 262.81 359.161C222.316 417.866 189.876 514.823 169.798 585.823C169.681 586.252 157.359 633.248 169.122 650.136C171.412 653.428 174.444 655.223 178.386 655.626H418.477C418.906 647.664 419.244 622.28 407.091 613.185C401.418 608.943 393.428 608.852 383.369 612.925L382.888 613.12H347.039L347.69 609.906C347.846 609.126 363.187 531.308 332.179 501.018C320.429 489.53 303.175 486.277 280.897 491.325C279.453 491.65 278.022 490.753 277.683 489.309C277.358 487.864 278.256 486.433 279.7 486.108C303.864 480.63 322.784 484.351 335.914 497.193C349.902 510.854 356.994 534.235 357.007 566.658C357.02 585.186 354.651 601.163 353.506 607.759H381.821C393.532 603.141 403.109 603.518 410.292 608.904C427.117 621.512 423.773 657.071 423.617 658.58L423.382 661Z" fill="#190F19"/>
<path d="M209.496 194.105C209.496 194.105 277.824 327.427 328.117 366.226C328.117 366.226 378.084 402.123 425.722 354.945C425.722 354.945 486.06 279.365 516.366 168.266C516.366 168.266 516.431 116.235 432.501 108.377C432.501 108.377 374.688 103.211 347.245 103.224C286.451 103.25 235.157 117.003 235.157 117.003C235.157 117.003 188.638 134.893 209.496 194.105Z" fill="#FBF9FB"/>
<path d="M371.058 382.307C366.556 382.307 362.353 381.891 358.566 381.266C339.647 378.105 326.895 369.075 326.361 368.685C305.125 352.304 278.58 318.177 247.376 267.187C224.214 229.352 206.986 195.81 206.817 195.484L206.661 195.107C185.06 133.826 233.596 114.362 234.091 114.179L234.39 114.075C234.91 113.932 286.765 100.219 347.259 100.193C347.298 100.193 347.324 100.193 347.363 100.193C374.663 100.193 432.216 105.306 432.789 105.358C457.343 107.661 490.368 115.441 508.351 139.46C519.308 154.084 519.412 167.706 519.412 168.279V168.682L519.308 169.072C489.184 279.508 428.716 356.09 428.117 356.845L427.883 357.105C407.857 376.908 387.402 382.307 371.058 382.307ZM212.282 192.908C215.171 198.516 281.625 326.53 329.965 363.845C330.004 363.871 342.197 372.471 359.79 375.346C383.121 379.159 404.539 371.612 423.472 352.942C426.322 349.299 484.109 274.694 513.335 167.927C513.231 165.82 512.229 154.591 503.25 142.777C490.017 125.369 465.45 114.518 432.216 111.395C431.657 111.343 374.207 106.308 347.233 106.256C289.25 106.282 239.335 119.045 236.095 119.891C232.933 121.166 193.219 138.484 212.282 192.908Z" fill="#190F19"/>
<path d="M250.331 117.289H168.783C158.009 117.289 140.508 118.707 129.877 120.438C129.877 120.438 102.082 124.966 115.836 164.362C136.825 224.486 185.634 265.327 185.634 265.327C193.897 272.235 200.859 269.087 201.119 258.314C201.119 258.314 203.006 180.548 250.331 117.289Z" fill="#FBF9FB"/>
<path d="M193.754 272.014C191.177 272.014 187.755 271.038 183.695 267.643C183.201 267.226 134.001 225.566 112.973 165.351C107.664 150.142 107.638 137.95 112.908 129.103C118.764 119.267 128.965 117.51 129.395 117.432C140.182 115.676 157.866 114.245 168.796 114.245H256.382L252.765 119.085C206.597 180.795 204.177 257.611 204.164 258.379C203.955 267.057 199.987 270.128 197.644 271.195C196.708 271.624 195.406 272.014 193.754 272.014ZM168.783 120.308C158.126 120.308 140.885 121.7 130.358 123.417C130.046 123.469 122.42 124.874 118.048 132.291C113.793 139.525 114.001 149.972 118.686 163.361C139.154 222.014 187.092 262.594 187.573 262.998C190.54 265.483 193.363 266.485 195.133 265.691C196.903 264.897 198.009 262.113 198.1 258.236C198.113 257.468 200.429 182.695 244.398 120.295H168.783V120.308Z" fill="#190F19"/>
<path d="M445.32 107.128L524.474 87.5074C534.923 84.9182 552.269 82.0818 563.004 81.1971C563.004 81.1971 591.071 78.8942 587.207 120.464C581.299 183.866 543.745 235.259 543.745 235.259C537.395 243.95 529.861 242.571 527.025 232.188C527.025 232.188 506.491 157.154 445.32 107.128Z" fill="#190F19"/>
<path d="M535.132 244.002C534.521 244.002 533.974 243.937 533.519 243.859C530.982 243.39 526.401 241.36 524.098 232.981C523.89 232.24 503.07 158.26 443.409 109.469L438.737 105.644L523.747 84.5796C534.365 81.9514 551.853 79.0891 562.758 78.1913C563.187 78.1523 573.519 77.4107 581.56 85.5554C588.795 92.8676 591.71 104.707 590.214 120.75C584.306 184.243 546.57 236.52 546.18 237.041C542.003 242.779 537.878 244.002 535.132 244.002ZM451.815 108.637C509.498 158.624 529.732 230.64 529.941 231.381C530.956 235.115 532.712 237.548 534.612 237.9C536.512 238.238 539.023 236.599 541.3 233.476C541.665 232.968 578.437 181.979 584.189 120.19C585.503 106.009 583.174 95.795 577.253 89.81C571.164 83.6559 563.317 84.2283 563.239 84.2283C552.608 85.1001 535.549 87.8974 525.191 90.4605L451.815 108.637Z" fill="#190F19"/>
<path d="M330.306 272.717C330.306 272.717 347.782 308.51 357.45 315.119C357.45 315.119 366.871 323.654 376.097 312.725C376.097 312.725 390.124 291.283 394.015 265.873C394.015 265.873 395.016 257.026 377.957 257.013C361.106 257 340.508 256.518 340.508 256.518C340.508 256.518 325.856 257.039 330.306 272.717Z" fill="#190F19"/>
<path d="M282.485 207.48C287.372 207.48 291.333 203.519 291.333 198.633C291.333 193.747 287.372 189.786 282.485 189.786C277.598 189.786 273.637 193.747 273.637 198.633C273.637 203.519 277.598 207.48 282.485 207.48Z" fill="#190F19"/>
<path d="M437.657 207.48C442.544 207.48 446.505 203.519 446.505 198.633C446.505 193.747 442.544 189.786 437.657 189.786C432.77 189.786 428.809 193.747 428.809 198.633C428.809 203.519 432.77 207.48 437.657 207.48Z" fill="#190F19"/>
<path d="M221.641 204.943C203.371 204.943 197.789 218.878 209.227 235.909L257.854 308.327C269.292 325.358 287.938 325.306 299.298 308.197L347.235 236.026C358.595 218.93 352.948 204.93 334.679 204.93H221.641V204.943Z" fill="#36498C"/>
<path d="M278.53 323.667C269.812 323.667 261.692 318.736 255.681 309.784L207.054 237.366C200.6 227.751 198.96 218.344 202.564 211.578C205.739 205.632 212.506 202.354 221.627 202.354H334.678C343.787 202.354 350.566 205.632 353.767 211.591C357.411 218.383 355.823 227.816 349.395 237.483L301.458 309.641C295.459 318.671 287.34 323.641 278.582 323.667C278.569 323.667 278.556 323.667 278.53 323.667ZM221.64 207.545C214.536 207.545 209.396 209.848 207.171 214.011C204.49 219.034 206.026 226.476 211.387 234.452L260.014 306.87C265.023 314.338 271.608 318.45 278.543 318.45C278.556 318.45 278.569 318.45 278.582 318.45C285.544 318.437 292.128 314.273 297.125 306.753L345.062 234.595C350.384 226.58 351.881 219.086 349.174 214.038C346.923 209.848 341.77 207.532 334.678 207.532H221.64V207.545Z" fill="#190F19"/>
<path d="M221.641 204.943C203.371 204.943 197.789 218.878 209.227 235.909L257.854 308.327C269.292 325.358 287.938 325.306 299.298 308.197L347.235 236.026C358.595 218.93 352.948 204.93 334.679 204.93H221.641V204.943Z" fill="#02AB6B"/>
<path d="M278.53 323.667C269.812 323.667 261.692 318.736 255.681 309.784L207.054 237.366C200.6 227.751 198.96 218.344 202.564 211.578C205.739 205.632 212.506 202.354 221.627 202.354H334.678C343.787 202.354 350.566 205.632 353.767 211.591C357.411 218.383 355.823 227.816 349.395 237.483L301.458 309.641C295.459 318.671 287.34 323.641 278.582 323.667C278.569 323.667 278.556 323.667 278.53 323.667ZM221.64 207.545C214.536 207.545 209.396 209.848 207.171 214.011C204.49 219.034 206.026 226.476 211.387 234.452L260.014 306.87C265.023 314.338 271.608 318.45 278.543 318.45C278.556 318.45 278.569 318.45 278.582 318.45C285.544 318.437 292.128 314.273 297.125 306.753L345.062 234.595C350.384 226.58 351.881 219.086 349.174 214.038C346.923 209.848 341.77 207.532 334.678 207.532H221.64V207.545Z" fill="#190F19"/>
<path d="M389.291 204.943C371.022 204.943 365.439 218.878 376.877 235.909L425.504 308.327C436.942 325.358 455.589 325.306 466.949 308.197L514.886 236.026C526.246 218.93 520.598 204.93 502.329 204.93H389.291V204.943Z" fill="#36498C"/>
<path d="M446.193 323.667C437.475 323.667 429.355 318.736 423.344 309.784L374.717 237.366C368.263 227.751 366.623 218.344 370.227 211.578C373.402 205.632 380.169 202.354 389.291 202.354H502.341C511.45 202.354 518.23 205.632 521.431 211.591C525.074 218.383 523.486 227.816 517.058 237.483L469.121 309.641C463.122 318.671 455.003 323.641 446.245 323.667C446.232 323.667 446.206 323.667 446.193 323.667ZM389.291 207.545C382.186 207.545 377.046 209.848 374.821 214.011C372.14 219.034 373.676 226.476 379.037 234.452L427.664 306.87C432.687 314.338 439.258 318.45 446.193 318.45C446.206 318.45 446.219 318.45 446.232 318.45C453.194 318.437 459.778 314.273 464.775 306.753L512.712 234.595C518.034 226.58 519.531 219.086 516.824 214.038C514.573 209.848 509.42 207.532 502.328 207.532H389.291V207.545Z" fill="#190F19"/>
<path d="M389.291 204.943C371.022 204.943 365.439 218.878 376.877 235.909L425.504 308.327C436.942 325.358 455.589 325.306 466.949 308.197L514.886 236.026C526.246 218.93 520.598 204.93 502.329 204.93H389.291V204.943Z" fill="#02AB6B"/>
<path d="M446.193 323.667C437.475 323.667 429.355 318.736 423.344 309.784L374.717 237.366C368.263 227.751 366.623 218.344 370.227 211.578C373.402 205.632 380.169 202.354 389.291 202.354H502.341C511.45 202.354 518.23 205.632 521.431 211.591C525.074 218.383 523.486 227.816 517.058 237.483L469.121 309.641C463.122 318.671 455.003 323.641 446.245 323.667C446.232 323.667 446.206 323.667 446.193 323.667ZM389.291 207.545C382.186 207.545 377.046 209.848 374.821 214.011C372.14 219.034 373.676 226.476 379.037 234.452L427.664 306.87C432.687 314.338 439.258 318.45 446.193 318.45C446.206 318.45 446.219 318.45 446.232 318.45C453.194 318.437 459.778 314.273 464.775 306.753L512.712 234.595C518.034 226.58 519.531 219.086 516.824 214.038C514.573 209.848 509.42 207.532 502.328 207.532H389.291V207.545Z" fill="#190F19"/>
<path d="M334.846 207.962C334.001 207.962 333.168 207.611 332.569 206.934C331.463 205.672 331.593 203.773 332.855 202.667C341.977 194.691 353.649 190.748 365.738 191.555C375.445 192.205 384.488 195.849 391.918 202.094C393.194 203.174 393.363 205.074 392.283 206.362C391.203 207.637 389.303 207.806 388.015 206.726C381.587 201.313 373.74 198.152 365.334 197.592C354.859 196.89 344.736 200.312 336.837 207.234C336.265 207.715 335.549 207.962 334.846 207.962Z" fill="#190F19"/>
<path d="M331.777 323.277C331.777 323.277 378.622 323.277 390.333 346.697Z" fill="#FBF9FB"/>
<path d="M338.734 340.687C339.733 340.213 340.959 340.307 341.898 341.042C360.807 355.827 401.274 336.906 401.679 336.728C403.184 336.013 404.987 336.655 405.707 338.171C406.421 339.675 405.78 341.478 404.275 342.193C402.477 343.047 360.018 362.9 338.176 345.821C336.864 344.788 336.629 342.897 337.656 341.573C337.95 341.16 338.322 340.883 338.734 340.687Z" fill="#190F19"/>
<path d="M282.746 460.373C282.746 460.373 376.37 479.29 426.74 440.284C445.322 425.894 440.065 403.788 419.258 407.64C392.583 412.571 347.404 431.02 292.492 427.819" fill="#FBF9FB"/>
<path d="M334.482 467.984C305.478 467.984 283.097 463.534 282.147 463.339C280.507 463.014 279.453 461.413 279.779 459.774C280.104 458.135 281.704 457.081 283.344 457.406C284.268 457.588 376.213 475.582 424.879 437.89C434.638 430.33 436.551 421.21 434.196 415.94C432.088 411.243 426.857 409.305 419.804 410.606C412.973 411.868 404.918 414.028 395.601 416.539C369.355 423.591 333.415 433.232 292.323 430.825C290.657 430.734 289.382 429.303 289.473 427.624C289.577 425.959 290.995 424.697 292.674 424.788C332.804 427.13 368.197 417.632 394.04 410.697C403.487 408.16 411.658 405.974 418.711 404.66C428.574 402.838 436.434 406.13 439.726 413.468C443.135 421.08 441.014 433.05 428.6 442.665C413.871 454.075 385.829 467.724 335.875 467.971C335.406 467.984 334.951 467.984 334.482 467.984Z" fill="#190F19"/>
<path d="M466.662 463.638C466.662 463.638 373.038 482.556 322.667 443.549C304.086 429.159 309.343 407.054 330.149 410.905C356.825 415.836 402.003 434.286 456.915 431.085" fill="#FBF9FB"/>
<path d="M414.924 471.249C414.468 471.249 414 471.249 413.545 471.249C385.971 471.119 347.507 466.618 320.819 445.943C308.405 436.328 306.284 424.345 309.693 416.747C312.985 409.409 320.832 406.104 330.708 407.939C337.774 409.24 345.933 411.439 355.38 413.976C381.222 420.91 416.628 430.408 456.745 428.066C458.372 427.962 459.842 429.237 459.946 430.903C460.051 432.568 458.775 433.999 457.11 434.103C416.004 436.51 380.064 426.856 353.831 419.818C344.501 417.319 336.447 415.147 329.628 413.885C322.575 412.584 317.345 414.522 315.237 419.219C312.881 424.488 314.781 433.609 324.553 441.168C373.232 478.874 465.177 460.867 466.101 460.685C467.741 460.359 469.328 461.413 469.667 463.053C469.992 464.692 468.938 466.279 467.298 466.618C466.309 466.787 443.928 471.249 414.924 471.249Z" fill="#190F19"/>
</svg>
