<svg width="300" height="300" viewBox="0 0 300 300" fill="none" xmlns="http://www.w3.org/2000/svg">
<path d="M144.689 183.573C144.689 183.573 190.526 167.661 192.002 145.468C192.002 145.468 193.41 133.514 184.98 133.779C176.551 134.043 178.276 148.601 168.338 155.168C158.4 161.735 135.942 168.143 135.942 168.143" fill="white"/>
<path d="M144.69 184.642C144.245 184.642 143.832 184.367 143.679 183.922C143.483 183.361 143.78 182.753 144.34 182.557C144.79 182.398 189.526 166.624 190.939 145.394L190.944 145.341C190.949 145.283 191.616 139.224 188.965 136.34C187.997 135.287 186.711 134.8 185.023 134.847C181.53 134.959 180.086 138.017 178.027 142.997C176.143 147.553 174.006 152.712 168.941 156.062C158.983 162.645 137.176 168.91 136.25 169.174C135.683 169.338 135.091 169.005 134.927 168.439C134.763 167.873 135.096 167.28 135.662 167.116C135.884 167.052 158.072 160.676 167.761 154.273C172.28 151.289 174.286 146.447 176.053 142.176C178.038 137.387 179.906 132.863 184.965 132.704C187.277 132.63 189.161 133.366 190.558 134.89C193.802 138.425 193.151 145.002 193.087 145.558C192.436 155.13 184.113 164.618 168.349 173.762C156.749 180.488 145.177 184.536 145.06 184.578C144.923 184.626 144.806 184.642 144.69 184.642Z" fill="black"/>
<path d="M160.115 197.453C160.115 197.453 200.025 175.36 211.159 196.828C211.159 196.828 219.784 211.518 208.703 221.292C208.703 221.292 240.739 216.418 244.141 228.457C244.141 228.457 246.846 233.436 232.198 234.087C217.551 234.738 181.716 234.987 175.032 244.242" fill="white"/>
<path d="M175.022 245.311C174.805 245.311 174.588 245.247 174.397 245.109C173.916 244.765 173.81 244.093 174.154 243.612C180.44 234.907 209.513 233.849 226.885 233.219C228.833 233.15 230.6 233.081 232.14 233.013C240.691 232.632 242.638 230.769 243.078 229.991C243.4 229.42 243.189 228.965 243.189 228.965L243.131 228.859L243.099 228.742C241.517 223.149 232.452 221.678 225.123 221.424C216.879 221.138 208.931 222.334 208.851 222.345L205.253 222.89L207.983 220.482C212.27 216.699 213.968 211.698 213.026 205.618C212.307 200.966 210.243 197.395 210.222 197.363L210.195 197.315C208.174 193.421 204.972 190.785 200.681 189.489C185.351 184.859 160.866 198.252 160.623 198.389C160.104 198.675 159.454 198.49 159.168 197.971C158.882 197.453 159.067 196.802 159.586 196.516C159.845 196.373 165.994 192.987 174.217 190.14C185.356 186.282 194.469 185.377 201.3 187.441C206.158 188.907 209.788 191.897 212.09 196.315C212.497 197.04 219.609 209.978 211.566 219.847C219.826 218.947 242.03 217.55 245.131 228.076C245.311 228.483 245.713 229.679 244.94 231.05C243.58 233.457 239.305 234.844 232.23 235.161C230.69 235.23 228.912 235.293 226.959 235.368C211.095 235.944 181.562 237.013 175.884 244.871C175.683 245.157 175.355 245.311 175.022 245.311Z" fill="black"/>
<path d="M136.477 208.714C183.975 213.005 170.984 258.974 170.984 258.974C221.324 280.141 200.511 287.681 200.511 287.681C184.795 273.489 131.175 269.79 131.175 269.79C132.974 261.551 123.518 258.619 123.518 258.619C35.1471 196.839 94.9641 119.1 94.9641 119.1C94.9641 119.1 129.778 126.497 137.493 134.726C145.203 142.954 141.89 146.479 141.89 146.479C141.89 146.479 128.354 162.544 157.654 188.516C186.954 214.487 187.399 245.417 170.984 258.969" fill="white"/>
<path d="M200.273 288.909L199.797 288.481C184.536 274.701 131.635 270.896 131.106 270.859L129.868 270.775L130.132 269.563C131.704 262.366 123.555 259.752 123.206 259.646L123.047 259.599L122.909 259.504C95.1492 240.094 79.0573 217.117 75.078 191.204C71.903 170.519 77.2423 151.845 82.2852 139.822C87.7462 126.805 93.8581 118.788 94.1174 118.454L94.5301 117.92L95.1916 118.063C96.6256 118.37 130.423 125.63 138.276 134.007C141.647 137.6 143.457 140.838 143.653 143.627C143.806 145.786 142.917 146.945 142.705 147.188C142.573 147.357 139.552 151.199 139.864 157.898C140.16 164.285 143.61 174.647 158.369 187.727C174.254 201.809 183.202 218.985 182.927 234.855C182.758 244.454 179.244 252.836 172.979 258.662C194.955 268.055 206.015 276.119 205.851 282.633C205.745 286.888 201.083 288.624 200.882 288.698L200.273 288.909ZM132.418 268.812C136.022 269.103 147.478 270.134 160.136 272.362C180.202 275.887 193.844 280.617 200.702 286.428C201.691 285.925 203.66 284.665 203.708 282.565C203.776 279.358 199.57 272.156 170.592 259.969C170.582 259.964 170.566 259.959 170.555 259.953L169.703 259.594L169.957 258.694C169.957 258.683 169.963 258.678 169.963 258.667C170.116 258.107 175.387 238.379 165.634 224.213C159.882 215.863 150.045 211.006 136.387 209.773C135.8 209.72 135.366 209.201 135.419 208.608C135.472 208.021 135.996 207.587 136.583 207.64C150.907 208.936 161.279 214.106 167.407 223.012C175.397 234.627 173.984 249.259 172.783 255.826C177.826 250.476 180.641 243.136 180.784 234.807C181.049 219.562 172.365 202.983 156.951 189.32C144.573 178.345 138.102 167.741 137.721 157.803C137.43 150.215 140.927 145.971 141.076 145.791L141.113 145.749C141.118 145.743 143.504 142.701 136.715 135.462C129.9 128.191 100.277 121.375 95.4191 120.296C93.9639 122.307 88.7992 129.805 84.2325 140.711C79.3113 152.469 74.0937 170.72 77.1999 190.892C81.0893 216.154 96.8373 238.612 124.005 257.646C127.412 258.768 133.085 262.398 132.418 268.812Z" fill="black"/>
<path d="M139.483 151.554C139.483 151.554 141.049 174.266 138.472 164.82C141.922 170.202 139.79 171.397 149.304 180.896L154.627 184.886C153.654 185.733 147.828 195.051 146.605 195.586C138.938 198.951 132.715 201.676 125.449 185.103C121.433 175.948 133.508 158.221 139.483 151.554Z" fill="black"/>
<path d="M82.0206 102.987C82.0206 102.987 120.528 139.446 141.885 146.484C141.885 146.484 162.792 152.585 173.138 131.223C173.138 131.223 184.377 98.891 181.409 58.2299C181.409 58.2299 175.307 40.8521 146.362 48.1123C146.362 48.1123 126.455 53.1976 117.295 56.4308C97.0066 63.601 81.502 74.2266 81.502 74.2266C81.502 74.2266 68.0824 85.6777 82.0206 102.987Z" fill="white"/>
<path d="M148.648 148.362C144.573 148.362 141.753 147.558 141.589 147.51C132.572 144.542 119.692 136.276 103.272 122.931C91.0851 113.025 81.3855 103.86 81.285 103.77L81.1897 103.664C66.7646 85.7462 80.6711 73.5384 80.814 73.4167L80.904 73.3479C81.0574 73.242 96.7578 62.5582 116.945 55.425C126.047 52.213 145.907 47.1277 146.102 47.0748C154.569 44.9528 166.512 43.6617 175.339 49.5619C180.721 53.1549 182.356 57.6899 182.424 57.8804L182.472 58.0127L182.483 58.1555C185.435 98.5679 174.265 131.255 174.154 131.583L174.106 131.699C168.566 143.14 160.014 146.838 153.818 147.929C151.966 148.246 150.214 148.362 148.648 148.362ZM82.809 102.262C84.4335 103.796 121.692 138.705 142.224 145.468C142.24 145.473 147.32 146.907 153.532 145.796C161.766 144.325 168.031 139.282 172.148 130.815C172.672 129.27 183.176 97.5519 180.355 58.4677C180.07 57.7745 178.413 54.1445 174.027 51.2605C167.56 47.006 158.077 46.2758 146.621 49.1491C146.425 49.1967 126.661 54.2556 117.649 57.4412C98.2976 64.278 83.137 74.4168 82.1528 75.0783C81.2532 75.8773 70.0349 86.3336 82.809 102.262Z" fill="black"/>
<path d="M90.4293 67.7921L61.5792 66.8554C57.7692 66.7337 51.5568 67.0301 47.7785 67.5222C47.7785 67.5222 37.8937 68.8028 42.307 82.905C49.038 104.416 65.839 119.428 65.839 119.428C68.6806 121.968 71.1835 120.931 71.4005 117.126C71.4005 117.126 72.9562 89.6307 90.4293 67.7921Z" fill="white"/>
<path d="M68.7545 121.889C67.8285 121.889 66.5849 121.529 65.1297 120.227C64.9604 120.074 48.0324 104.765 41.2855 83.2225C39.5816 77.7826 39.7139 73.4646 41.6771 70.4008C43.8626 66.9876 47.4873 66.4796 47.6408 66.4638C51.4773 65.9663 57.7479 65.6647 61.6161 65.7917L92.604 66.7971L91.2705 68.4693C74.2261 89.7735 72.4904 116.925 72.4746 117.195C72.2999 120.264 70.8606 121.307 70.0192 121.656C69.707 121.772 69.2837 121.889 68.7545 121.889ZM59.6634 67.8978C55.954 67.8978 51.0857 68.173 47.916 68.5857C47.8048 68.6016 45.0902 69.0091 43.4604 71.5861C41.8729 74.0943 41.8253 77.7985 43.3281 82.5875C49.895 103.574 66.3891 118.486 66.5532 118.634C67.5745 119.544 68.564 119.936 69.1937 119.671C69.8287 119.407 70.2521 118.438 70.3314 117.068C70.3473 116.798 72.0248 90.3715 88.2966 68.7974L61.5473 67.9296C60.9652 67.9031 60.3355 67.8978 59.6634 67.8978Z" fill="black"/>
<path d="M182.144 66.458L160.237 47.6674C157.342 45.1856 152.966 40.7723 150.505 37.8566C150.505 37.8566 144.081 30.2366 156.855 22.8177C176.35 11.4989 198.876 11.774 198.876 11.774C202.686 11.8217 203.835 14.2717 201.422 17.2244C201.427 17.2244 184.007 38.5551 182.144 66.458Z" fill="black"/>
<path d="M183.07 68.6647L159.538 48.4823C156.602 45.9635 152.183 41.5026 149.685 38.5499C149.585 38.4335 147.251 35.6077 147.944 31.6178C148.569 28.0301 151.384 24.7598 156.316 21.897C175.837 10.5623 198.665 10.7052 198.887 10.7052C201.962 10.7422 203.068 12.1339 203.449 12.9594C203.835 13.7849 204.189 15.5259 202.247 17.9071C202.078 18.1188 185.023 39.3172 183.203 66.5375L183.07 68.6647ZM198.787 12.843C197.316 12.843 175.826 13.0441 157.39 23.7438C153.051 26.2626 150.58 29.0249 150.056 31.9459C149.521 34.9463 151.246 37.0788 151.32 37.1687C153.749 40.0474 158.062 44.3972 160.925 46.8525L181.239 64.2779C183.806 37.3804 200.416 16.7535 200.591 16.5472C201.459 15.4888 201.803 14.4834 201.512 13.859C201.221 13.2399 200.231 12.8589 198.861 12.8377C198.861 12.843 198.834 12.843 198.787 12.843Z" fill="black"/>
<path d="M85.4707 99.8541C79.3747 102.002 79.1472 107.315 84.9733 111.654L109.733 130.106C115.554 134.446 121.777 132.228 123.555 125.185L131.058 95.4461C132.836 88.3976 129.302 84.3918 123.206 86.5456L85.4707 99.8541Z" fill="#7D86C1"/>
<path d="M115.718 133.255C113.564 133.255 111.321 132.44 109.183 130.847L84.423 112.395C81.1316 109.945 79.4806 106.997 79.8881 104.314C80.2479 101.954 82.1211 100.065 85.1638 98.9911L122.899 85.6825C125.941 84.6083 128.592 84.9047 130.36 86.5186C132.376 88.3548 132.958 91.6939 131.953 95.6785L124.444 125.412C123.507 129.132 121.38 131.752 118.459 132.789C117.575 133.101 116.654 133.255 115.718 133.255ZM126.275 86.889C125.439 86.889 124.507 87.0637 123.512 87.4182L85.7777 100.727C83.407 101.563 81.9624 102.933 81.7084 104.59C81.4068 106.579 82.7985 108.886 85.5237 110.918L110.283 129.37C112.845 131.281 115.527 131.873 117.845 131.053C120.168 130.228 121.877 128.063 122.661 124.963L130.164 95.2234C131 91.9214 130.614 89.2438 129.116 87.8786C128.397 87.2171 127.428 86.889 126.275 86.889Z" fill="black"/>
<path d="M85.4707 99.8541C79.3747 102.002 79.1472 107.315 84.9733 111.654L109.733 130.106C115.554 134.446 121.777 132.228 123.555 125.185L131.058 95.4461C132.836 88.3976 129.302 84.3918 123.206 86.5456L85.4707 99.8541Z" fill="#8585B9"/>
<path d="M115.718 133.255C113.564 133.255 111.321 132.44 109.183 130.847L84.423 112.395C81.1316 109.945 79.4806 106.997 79.8881 104.314C80.2479 101.954 82.1211 100.065 85.1638 98.9911L122.899 85.6825C125.941 84.6083 128.592 84.9047 130.36 86.5186C132.376 88.3548 132.958 91.6939 131.953 95.6785L124.444 125.412C123.507 129.132 121.38 131.752 118.459 132.789C117.575 133.101 116.654 133.255 115.718 133.255ZM126.275 86.889C125.439 86.889 124.507 87.0637 123.512 87.4182L85.7777 100.727C83.407 101.563 81.9624 102.933 81.7084 104.59C81.4068 106.579 82.7985 108.886 85.5237 110.918L110.283 129.37C112.845 131.281 115.527 131.873 117.845 131.053C120.168 130.228 121.877 128.063 122.661 124.963L130.164 95.2234C131 91.9214 130.614 89.2438 129.116 87.8786C128.397 87.2171 127.428 86.889 126.275 86.889Z" fill="black"/>
<path d="M141.436 80.1168C135.34 82.2652 135.112 87.578 140.938 91.9172L165.698 110.369C171.519 114.708 177.742 112.491 179.52 105.448L187.023 75.7088C188.801 68.6603 185.266 64.6545 179.17 66.8082L141.436 80.1168Z" fill="#7D86C1"/>
<path d="M171.683 113.517C169.529 113.517 167.285 112.702 165.148 111.11L140.388 92.6575C137.096 90.2075 135.445 87.26 135.853 84.5772C136.213 82.2171 138.086 80.328 141.129 79.2538L178.863 65.9452C181.906 64.871 184.552 65.1674 186.325 66.7813C188.341 68.6175 188.923 71.9565 187.918 75.9412L180.414 105.68C179.477 109.4 177.35 112.02 174.429 113.057C173.54 113.358 172.619 113.517 171.683 113.517ZM141.742 80.9841C139.372 81.8202 137.927 83.196 137.673 84.847C137.372 86.8367 138.763 89.1439 141.489 91.1759L166.248 109.628C168.809 111.533 171.492 112.131 173.81 111.311C176.133 110.485 177.842 108.321 178.625 105.22L186.129 75.4808C186.965 72.1788 186.579 69.5012 185.081 68.136C183.838 67.0036 181.848 66.8395 179.477 67.6756L141.742 80.9841Z" fill="black"/>
<path d="M141.436 80.1168C135.34 82.2652 135.112 87.578 140.938 91.9172L165.698 110.369C171.519 114.708 177.742 112.491 179.52 105.448L187.023 75.7088C188.801 68.6603 185.266 64.6545 179.17 66.8082L141.436 80.1168Z" fill="#8585B9"/>
<path d="M171.683 113.517C169.529 113.517 167.285 112.702 165.148 111.11L140.388 92.6575C137.096 90.2075 135.445 87.26 135.853 84.5772C136.213 82.2171 138.086 80.328 141.129 79.2538L178.863 65.9452C181.906 64.871 184.552 65.1674 186.325 66.7813C188.341 68.6175 188.923 71.9565 187.918 75.9412L180.414 105.68C179.477 109.4 177.35 112.02 174.429 113.057C173.54 113.358 172.619 113.517 171.683 113.517ZM141.742 80.9841C139.372 81.8202 137.927 83.196 137.673 84.847C137.372 86.8367 138.763 89.1439 141.489 91.1759L166.248 109.628C168.809 111.533 171.492 112.131 173.81 111.311C176.133 110.485 177.842 108.321 178.625 105.22L186.129 75.4808C186.965 72.1788 186.579 69.5012 185.081 68.136C183.838 67.0036 181.848 66.8395 179.477 67.6756L141.742 80.9841Z" fill="black"/>
<path d="M123.259 87.5978C123.079 87.5978 122.899 87.5555 122.735 87.4603C122.222 87.1692 122.036 86.5183 122.327 85.9998C124.433 82.2639 127.868 79.5704 131.995 78.4168C135.313 77.4908 138.763 77.6442 141.975 78.856C142.531 79.0624 142.806 79.6815 142.6 80.2371C142.388 80.7928 141.774 81.0679 141.219 80.8616C138.435 79.8085 135.445 79.6815 132.572 80.4859C128.995 81.486 126.016 83.8196 124.195 87.0581C123.994 87.4021 123.634 87.5978 123.259 87.5978Z" fill="black"/>
<path d="M101.812 177.196C101.812 177.196 69.2415 192.558 52.0542 150.029C52.0542 150.029 47.8102 141.345 57.9226 140.403C63.7593 139.858 70.0511 150.791 72.5011 153.479C72.5011 153.479 86.2806 174.54 103.092 160.866" fill="white"/>
<path d="M88.2016 180.985C84.4656 180.985 80.2482 180.398 75.8826 178.689C65.3257 174.556 56.9755 165.058 51.07 150.458C50.853 150.003 49.1121 146.092 50.8848 142.933C52.049 140.864 54.3773 139.652 57.8221 139.335C62.9921 138.864 67.9768 145.642 71.2735 150.14C72.0885 151.257 72.7975 152.215 73.2897 152.754L73.3955 152.887C73.459 152.987 79.9995 162.809 89.207 164.232C93.6943 164.925 98.134 163.512 102.415 160.03C102.875 159.66 103.547 159.729 103.923 160.184C104.299 160.644 104.225 161.316 103.77 161.692C98.9965 165.576 93.9801 167.142 88.8683 166.349C79.0417 164.819 72.3319 155.146 71.6545 154.13C71.0989 153.506 70.411 152.575 69.5538 151.4C66.728 147.542 61.9867 141.081 58.0285 141.462C55.3298 141.716 53.5571 142.557 52.7633 143.976C51.4827 146.262 53.0067 149.521 53.0226 149.553L53.0544 149.622C58.727 163.655 66.6645 172.762 76.6446 176.678C89.4239 181.695 101.245 176.276 101.362 176.218C101.896 175.969 102.537 176.197 102.785 176.731C103.039 177.265 102.807 177.906 102.272 178.154C101.918 178.329 96.1496 180.985 88.2016 180.985Z" fill="black"/>
<path d="M111.178 249.095C111.178 249.095 68.707 245.814 51.7314 203.798C51.7314 203.798 42.4234 196.115 44.7623 215.546C47.1012 234.971 77.2689 275.32 123.513 258.625L111.178 249.095Z" fill="black"/>
<path d="M130.286 110.855C130.286 110.855 142.245 118.321 146.388 118.496C146.388 118.496 150.818 119.29 151.537 114.278C151.537 114.278 151.728 105.214 148.124 96.853C148.124 96.853 146.764 94.0061 141.642 97.2075C136.583 100.367 130.307 104.087 130.307 104.087C130.307 104.087 126.01 106.981 130.286 110.855Z" fill="black"/>
<path d="M143.261 128.36C141.398 128.36 139.181 127.661 136.641 126.264C136.123 125.979 135.932 125.328 136.218 124.809C136.504 124.291 137.154 124.1 137.673 124.386C140.075 125.703 143.362 126.989 145.346 125.635C147.743 123.999 147.685 119.062 147.463 117.3L147.24 115.559L148.891 116.157C148.934 116.173 153.151 117.649 155.649 115.676C157.31 114.369 157.94 111.755 157.527 107.913C157.464 107.325 157.887 106.796 158.48 106.733C159.073 106.669 159.596 107.098 159.66 107.685C160.157 112.316 159.252 115.575 156.966 117.369C154.638 119.195 151.527 118.957 149.696 118.586C149.759 120.967 149.458 125.434 146.558 127.407C145.616 128.042 144.52 128.36 143.261 128.36Z" fill="black"/>
<path d="M153.871 124.471C153.966 124.545 154.061 124.619 154.162 124.693C156.321 126.227 158.871 126.354 159.85 124.973C160.834 123.592 159.877 121.227 157.718 119.692C157.109 119.258 156.469 118.941 155.839 118.734C155.416 120.719 154.754 122.677 153.871 124.471Z" fill="#ED71A8"/>
<path d="M157.654 127C157.57 127 157.485 127 157.395 126.995C156.12 126.931 154.749 126.423 153.543 125.566C153.432 125.487 153.331 125.407 153.23 125.328L152.548 124.793L152.913 124C153.738 122.317 154.373 120.47 154.802 118.507L155.056 117.343L156.183 117.713C156.94 117.962 157.67 118.332 158.348 118.814C159.559 119.676 160.485 120.798 160.967 121.984C161.501 123.312 161.417 124.624 160.734 125.587C160.083 126.497 158.972 127 157.654 127ZM155.225 124.106C155.977 124.55 156.786 124.82 157.501 124.857C158.194 124.889 158.729 124.709 158.977 124.349C159.231 123.994 159.226 123.423 158.972 122.788C158.649 121.989 157.967 121.179 157.099 120.56C156.929 120.438 156.76 120.327 156.58 120.227C156.226 121.581 155.77 122.883 155.225 124.106Z" fill="black"/>
<path d="M149.738 125.878C148.415 125.878 147.425 125.672 147.335 125.651L147.785 123.555C147.822 123.566 151.796 124.376 153.855 122.46C154.955 121.439 155.352 119.73 155.035 117.391L157.157 117.1C157.575 120.179 156.95 122.508 155.305 124.037C153.685 125.54 151.436 125.878 149.738 125.878Z" fill="black"/>
<path d="M100.092 109.728C99.9278 109.728 99.7638 109.691 99.605 109.612C99.0811 109.342 98.8695 108.702 99.1341 108.178C100.764 104.966 105.939 99.7586 113.903 103.055C114.448 103.283 114.707 103.907 114.485 104.452C114.258 104.997 113.633 105.262 113.088 105.034C104.992 101.685 101.203 108.844 101.044 109.146C100.859 109.516 100.483 109.728 100.092 109.728Z" fill="black"/>
<path d="M157.321 89.0592C157.157 89.0592 156.993 89.0221 156.834 88.9427C156.31 88.6729 156.098 88.0326 156.363 87.5087C157.988 84.2967 163.168 79.0897 171.132 82.3864C171.677 82.6139 171.936 83.2383 171.714 83.7834C171.487 84.3284 170.862 84.593 170.317 84.3654C162.221 81.0158 158.432 88.1754 158.273 88.4771C158.083 88.8475 157.707 89.0592 157.321 89.0592Z" fill="black"/>
<path d="M194.431 126.704C197.966 121.068 201.184 115.237 204.073 109.247C204.343 108.686 204.226 108.003 203.66 107.67C203.157 107.374 202.358 107.522 202.083 108.083C199.194 114.078 195.977 119.904 192.442 125.54C191.653 126.799 193.648 127.958 194.431 126.704Z" fill="black"/>
<path d="M209.455 132.249C213.423 130.408 217.519 128.857 221.71 127.593C223.123 127.164 222.52 124.941 221.096 125.37C216.72 126.693 212.439 128.333 208.29 130.26C207.724 130.519 207.587 131.334 207.878 131.836C208.222 132.419 208.888 132.514 209.455 132.249Z" fill="black"/>
<path d="M221.361 146.23C224.948 147.003 228.531 147.775 232.119 148.548C232.727 148.68 233.362 148.368 233.537 147.743C233.695 147.167 233.341 146.458 232.732 146.325C229.145 145.553 225.562 144.78 221.974 144.008C221.366 143.875 220.731 144.187 220.556 144.812C220.398 145.389 220.747 146.098 221.361 146.23Z" fill="black"/>
<path d="M54.2975 130.926C52.2179 128.402 49.7255 126.232 46.958 124.491C46.45 124.169 45.6668 124.364 45.3811 124.904C45.0795 125.47 45.2488 126.137 45.7938 126.481C48.3867 128.111 50.6622 130.122 52.6677 132.556C53.054 133.022 53.9007 132.984 54.2975 132.556C54.7526 132.058 54.7103 131.423 54.2975 130.926Z" fill="black"/>
<path d="M43.5714 132.889C40.915 131.677 38.2586 130.466 35.6075 129.254C35.0412 128.994 34.3692 129.09 34.0305 129.666C33.7395 130.164 33.8771 130.984 34.4433 131.243C37.0997 132.455 39.7561 133.667 42.4072 134.879C42.9734 135.138 43.6455 135.043 43.9842 134.466C44.2752 133.969 44.1376 133.148 43.5714 132.889Z" fill="black"/>
<path d="M38.3221 145.737C35.4964 145.367 32.6654 144.996 29.8396 144.621C29.2205 144.541 28.686 145.208 28.686 145.774C28.686 146.462 29.2205 146.843 29.8396 146.928C32.6654 147.298 35.4964 147.669 38.3221 148.044C38.9413 148.124 39.4757 147.457 39.4757 146.891C39.4704 146.198 38.9413 145.817 38.3221 145.737Z" fill="black"/>
<path d="M57.5467 191.796C52.7366 189.378 46.6617 189.791 42.3173 193.035C41.8199 193.405 41.5659 194.029 41.9045 194.612C42.1903 195.104 42.9787 195.4 43.4814 195.024C47.1539 192.283 52.2603 191.712 56.3825 193.786C57.7054 194.453 58.8696 192.463 57.5467 191.796Z" fill="black"/>
<path d="M43.2696 185.351C42.2589 186.018 41.2482 186.685 40.2322 187.351C39.9835 187.515 39.7824 187.743 39.7031 188.039C39.629 188.314 39.6607 188.68 39.8195 188.928C40.1423 189.431 40.8567 189.696 41.3964 189.341C42.4071 188.674 43.4178 188.008 44.4338 187.341C44.6825 187.177 44.8836 186.949 44.963 186.653C45.0371 186.378 45.0053 186.013 44.8466 185.764C44.5238 185.261 43.8094 184.997 43.2696 185.351Z" fill="black"/>
<path d="M32.8505 185.859C34.3322 185.859 34.3322 183.558 32.8505 183.558C31.3688 183.558 31.3688 185.859 32.8505 185.859Z" fill="black"/>
</svg>
