<svg width="900" height="900" viewBox="0 0 900 900" fill="none" xmlns="http://www.w3.org/2000/svg">
<path d="M753.962 900L684.711 294.8L534.187 900H366.082L215.469 294.8L146.217 900H0L102.173 100H290.103L449.417 707.7L609.897 100H797.827L900 900H753.962Z" fill="#36498C"/>
<path d="M605.714 867.613L298.247 866.289L366.874 467.826L533.146 465.178L605.714 867.613Z" fill="#FBF9FB"/>
<path d="M676.406 869.22C682.742 873.806 694.107 873.318 701.672 868.101C701.672 868.101 702.697 867.392 709.506 860.993C753.198 819.86 761.977 758.222 729.114 723.313C711.24 704.322 673.9 702.179 673.9 702.179C664.726 701.659 663.292 705.662 670.684 711.115C670.684 711.115 682.6 719.877 694.973 733.021C727.837 767.93 716.678 799.419 672.986 840.537L671.063 845.359C667.658 853.886 670.07 864.634 676.406 869.22Z" fill="#190F19"/>
<path d="M533.432 482.956C533.432 482.956 610.649 502.766 697.009 808.055C697.009 808.055 719.722 893.333 683.643 896.738H389.636C389.636 896.738 381.613 816.582 436.402 838.756H475.223C475.223 838.756 439.743 664.008 560.022 691.304" fill="#FBF9FB"/>
<path d="M683.8 900H386.704L386.404 897.068C386.215 895.24 382.164 852.168 402.545 836.896C411.245 830.387 422.846 829.915 437.032 835.509H471.329C469.958 827.503 467.089 808.166 467.089 785.723C467.105 746.433 475.695 718.128 492.639 701.58C508.559 686.025 531.477 681.502 560.731 688.152C562.48 688.546 563.568 690.296 563.174 692.029C562.78 693.763 561.03 694.866 559.296 694.472C532.328 688.357 511.428 692.297 497.179 706.213C459.618 742.903 478.202 837.164 478.391 838.11L479.179 842.003H435.755L435.172 841.766C422.972 836.833 413.31 836.928 406.438 842.081C391.716 853.098 392.126 883.862 392.646 893.491H683.453C688.229 893.002 691.901 890.827 694.675 886.84C708.924 866.384 693.998 809.458 693.84 808.891C669.535 722.951 630.241 605.506 581.19 534.381C551.857 491.844 532.753 486.139 532.564 486.076C530.846 485.603 529.822 483.822 530.279 482.104C530.736 480.387 532.485 479.346 534.204 479.788C537.435 480.623 614.227 503.554 700.097 807.157C700.759 809.663 715.954 867.629 700.003 890.544C696.094 896.154 690.688 899.322 683.926 899.968L683.8 900Z" fill="#190F19"/>
<path d="M339.512 691.305C459.791 664.008 424.311 838.756 424.311 838.756H463.133C517.921 816.582 509.898 896.738 509.898 896.738H215.908C179.829 893.334 202.542 808.055 202.542 808.055C288.885 502.766 366.118 482.956 366.118 482.956" fill="#FBF9FB"/>
<path d="M512.845 900L215.592 899.984C208.83 899.338 203.408 896.17 199.515 890.56C183.564 867.644 198.742 809.679 199.404 807.22C285.291 503.57 362.083 480.639 365.314 479.804C367.048 479.362 368.813 480.402 369.27 482.136C369.727 483.87 368.671 485.635 366.937 486.092C366.78 486.139 347.676 491.844 318.343 534.381C269.292 605.49 229.998 722.935 205.678 808.938C205.536 809.458 190.609 866.384 204.858 886.84C207.632 890.828 211.305 893.002 216.08 893.491H506.903C507.423 883.846 507.833 853.098 493.111 842.082C486.239 836.944 476.561 836.833 464.377 841.766L463.794 842.003H420.37L421.158 838.11C421.347 837.164 439.931 742.903 402.37 706.213C388.137 692.297 367.237 688.357 340.253 694.472C338.503 694.866 336.769 693.779 336.359 692.029C335.965 690.28 337.053 688.546 338.802 688.152C368.072 681.517 390.99 686.025 406.894 701.58C423.838 718.128 432.428 746.449 432.444 785.723C432.46 808.166 429.591 827.519 428.204 835.51H462.502C476.687 829.915 488.288 830.372 496.989 836.896C517.369 852.168 513.318 895.24 513.129 897.069L512.845 900Z" fill="#190F19"/>
<path d="M253.764 334.448C253.764 334.448 336.53 495.942 397.45 542.938C397.45 542.938 457.975 586.421 515.679 529.274C515.679 529.274 588.767 437.724 625.477 303.148C625.477 303.148 625.556 240.123 523.891 230.604C523.891 230.604 453.861 224.347 420.62 224.363C346.98 224.395 284.847 241.053 284.847 241.053C284.847 241.053 228.498 262.723 253.764 334.448Z" fill="#FBF9FB"/>
<path d="M449.464 562.418C444.011 562.418 438.92 561.914 434.333 561.157C411.415 557.327 395.969 546.39 395.322 545.917C369.599 526.075 337.445 484.736 299.648 422.972C271.591 377.142 250.723 336.512 250.518 336.118L250.329 335.661C224.164 261.431 282.956 237.854 283.555 237.633L283.917 237.507C284.548 237.334 347.359 220.723 420.636 220.691C420.683 220.691 420.715 220.691 420.762 220.691C453.83 220.691 523.545 226.885 524.239 226.948C553.981 229.737 593.985 239.162 615.768 268.255C629.04 285.969 629.166 302.47 629.166 303.164V303.652L629.04 304.125C592.551 437.897 519.305 530.661 518.58 531.575L518.297 531.89C494.039 555.877 469.261 562.418 449.464 562.418ZM257.138 332.998C260.637 339.79 341.133 494.854 399.688 540.054C399.736 540.086 414.505 550.503 435.815 553.986C464.076 558.604 490.02 549.463 512.953 526.847C516.405 522.434 586.404 432.066 621.805 302.738C621.679 300.185 620.465 286.584 609.589 272.274C593.56 251.187 563.801 238.043 523.545 234.261C522.867 234.197 453.279 228.098 420.604 228.035C350.369 228.067 289.907 243.527 285.982 244.552C282.152 246.096 234.047 267.073 257.138 332.998Z" fill="#190F19"/>
<path d="M303.228 241.4H204.448C191.397 241.4 170.197 243.118 157.32 245.214C157.32 245.214 123.652 250.699 140.313 298.42C165.737 371.248 224.859 420.719 224.859 420.719C234.868 429.087 243.301 425.274 243.616 412.224C243.616 412.224 245.902 318.026 303.228 241.4Z" fill="#FBF9FB"/>
<path d="M234.695 428.82C231.574 428.82 227.428 427.638 222.511 423.524C221.912 423.02 162.316 372.556 136.845 299.618C130.414 281.194 130.383 266.427 136.766 255.71C143.859 243.796 156.216 241.668 156.736 241.574C169.803 239.446 191.223 237.712 204.463 237.712H310.557L306.175 243.575C250.252 318.325 247.32 411.373 247.304 412.303C247.052 422.815 242.245 426.534 239.407 427.827C238.273 428.347 236.696 428.82 234.695 428.82ZM204.448 245.056C191.539 245.056 170.654 246.743 157.903 248.823C157.524 248.886 148.288 250.588 142.992 259.572C137.838 268.334 138.09 280.99 143.764 297.207C168.558 368.253 226.625 417.409 227.208 417.898C230.802 420.908 234.222 422.121 236.365 421.16C238.509 420.199 239.849 416.826 239.959 412.13C239.975 411.2 242.781 320.626 296.04 245.041H204.448V245.056Z" fill="#190F19"/>
<path d="M539.419 229.091L635.298 205.325C647.955 202.189 668.966 198.753 681.969 197.682C681.969 197.682 715.968 194.892 711.287 245.246C704.131 322.045 658.642 384.297 658.642 384.297C650.95 394.825 641.824 393.154 638.388 380.578C638.388 380.578 613.516 289.689 539.419 229.091Z" fill="#190F19"/>
<path d="M648.208 394.888C647.468 394.888 646.806 394.809 646.254 394.714C643.18 394.147 637.632 391.688 634.842 381.539C634.59 380.641 609.371 291.029 537.103 231.928L531.444 227.295L634.417 201.779C647.278 198.595 668.462 195.128 681.671 194.041C682.191 193.993 694.706 193.095 704.447 202.961C713.21 211.818 716.741 226.16 714.928 245.592C707.773 322.501 662.063 385.826 661.59 386.456C656.531 393.406 651.534 394.888 648.208 394.888ZM547.285 230.919C617.157 291.47 641.667 378.702 641.919 379.6C643.149 384.124 645.277 387.071 647.578 387.496C649.879 387.906 652.921 385.92 655.68 382.138C656.121 381.523 700.664 319.759 707.631 244.914C709.223 227.736 706.401 215.364 699.23 208.115C691.853 200.66 682.349 201.353 682.254 201.353C669.377 202.409 648.713 205.798 636.166 208.903L547.285 230.919Z" fill="#190F19"/>
<path d="M400.101 429.67C400.101 429.67 421.269 473.027 432.981 481.033C432.981 481.033 444.392 491.371 455.567 478.133C455.567 478.133 472.559 452.16 477.271 421.381C477.271 421.381 478.485 410.664 457.821 410.648C437.41 410.632 412.459 410.049 412.459 410.049C412.459 410.049 394.711 410.679 400.101 429.67Z" fill="#190F19"/>
<path d="M342.175 350.649C348.095 350.649 352.893 345.851 352.893 339.932C352.893 334.013 348.095 329.215 342.175 329.215C336.256 329.215 331.457 334.013 331.457 339.932C331.457 345.851 336.256 350.649 342.175 350.649Z" fill="#190F19"/>
<path d="M530.136 350.649C536.055 350.649 540.854 345.851 540.854 339.932C540.854 334.013 536.055 329.215 530.136 329.215C524.217 329.215 519.418 334.013 519.418 339.932C519.418 345.851 524.217 350.649 530.136 350.649Z" fill="#190F19"/>
<path d="M268.474 347.576C246.344 347.576 239.583 364.455 253.437 385.085L312.339 472.806C326.194 493.436 348.781 493.373 362.541 472.648L420.608 385.227C434.368 364.518 427.527 347.56 405.398 347.56H268.474V347.576Z" fill="#36498C"/>
<path d="M337.385 491.387C326.824 491.387 316.989 485.414 309.707 474.571L250.805 386.85C242.987 375.203 241.001 363.809 245.367 355.613C249.213 348.411 257.409 344.439 268.458 344.439H405.397C416.431 344.439 424.643 348.411 428.52 355.629C432.933 363.856 431.011 375.282 423.224 386.992L365.157 474.397C357.891 485.335 348.056 491.355 337.448 491.387C337.432 491.387 337.416 491.387 337.385 491.387ZM268.474 350.728C259.868 350.728 253.642 353.517 250.947 358.561C247.7 364.644 249.56 373.659 256.054 383.32L314.956 471.041C321.024 480.087 329 485.067 337.401 485.067C337.416 485.067 337.432 485.067 337.448 485.067C345.881 485.051 353.856 480.008 359.909 470.899L417.975 383.493C424.422 373.785 426.235 364.707 422.956 358.592C420.229 353.517 413.988 350.712 405.397 350.712H268.474V350.728Z" fill="#190F19"/>
<path d="M268.474 347.576C246.344 347.576 239.583 364.455 253.437 385.085L312.339 472.806C326.194 493.436 348.781 493.373 362.541 472.648L420.608 385.227C434.368 364.518 427.527 347.56 405.398 347.56H268.474V347.576Z" fill="#02AB6B"/>
<path d="M337.385 491.387C326.824 491.387 316.989 485.414 309.707 474.571L250.805 386.85C242.987 375.203 241.001 363.809 245.367 355.613C249.213 348.411 257.409 344.439 268.458 344.439H405.397C416.431 344.439 424.643 348.411 428.52 355.629C432.933 363.856 431.011 375.282 423.224 386.992L365.157 474.397C357.891 485.335 348.056 491.355 337.448 491.387C337.432 491.387 337.416 491.387 337.385 491.387ZM268.474 350.728C259.868 350.728 253.642 353.517 250.947 358.561C247.7 364.644 249.56 373.659 256.054 383.32L314.956 471.041C321.024 480.087 329 485.067 337.401 485.067C337.416 485.067 337.432 485.067 337.448 485.067C345.881 485.051 353.856 480.008 359.909 470.899L417.975 383.493C424.422 373.785 426.235 364.707 422.956 358.592C420.229 353.517 413.988 350.712 405.397 350.712H268.474V350.728Z" fill="#190F19"/>
<path d="M471.549 347.576C449.42 347.576 442.658 364.455 456.512 385.085L515.415 472.806C529.269 493.436 551.856 493.373 565.616 472.648L623.683 385.227C637.443 364.518 630.603 347.56 608.473 347.56H471.549V347.576Z" fill="#36498C"/>
<path d="M540.476 491.387C529.915 491.387 520.08 485.414 512.798 474.571L453.896 386.85C446.078 375.203 444.092 363.809 448.458 355.613C452.304 348.411 460.5 344.439 471.549 344.439H608.488C619.522 344.439 627.734 348.411 631.611 355.629C636.024 363.856 634.101 375.282 626.315 386.992L568.248 474.397C560.982 485.335 551.147 491.355 540.539 491.387C540.523 491.387 540.491 491.387 540.476 491.387ZM471.549 350.728C462.943 350.728 456.717 353.517 454.022 358.56C450.775 364.644 452.635 373.659 459.129 383.32L518.031 471.04C524.115 480.087 532.075 485.067 540.476 485.067C540.491 485.067 540.507 485.067 540.523 485.067C548.956 485.051 556.931 480.008 562.984 470.899L621.051 383.493C627.497 373.785 629.31 364.707 626.031 358.592C623.304 353.517 617.063 350.712 608.473 350.712H471.549V350.728Z" fill="#190F19"/>
<path d="M471.549 347.576C449.42 347.576 442.658 364.455 456.512 385.085L515.415 472.806C529.269 493.436 551.856 493.373 565.616 472.648L623.683 385.227C637.443 364.518 630.603 347.56 608.473 347.56H471.549V347.576Z" fill="#02AB6B"/>
<path d="M540.476 491.387C529.915 491.387 520.08 485.414 512.798 474.571L453.896 386.85C446.078 375.203 444.092 363.809 448.458 355.613C452.304 348.411 460.5 344.439 471.549 344.439H608.488C619.522 344.439 627.734 348.411 631.611 355.629C636.024 363.856 634.101 375.282 626.315 386.992L568.248 474.397C560.982 485.335 551.147 491.355 540.539 491.387C540.523 491.387 540.491 491.387 540.476 491.387ZM471.549 350.728C462.943 350.728 456.717 353.517 454.022 358.56C450.775 364.644 452.635 373.659 459.129 383.32L518.031 471.04C524.115 480.087 532.075 485.067 540.476 485.067C540.491 485.067 540.507 485.067 540.523 485.067C548.956 485.051 556.931 480.008 562.984 470.899L621.051 383.493C627.497 373.785 629.31 364.707 626.031 358.592C623.304 353.517 617.063 350.712 608.473 350.712H471.549V350.728Z" fill="#190F19"/>
<path d="M405.601 351.233C404.576 351.233 403.567 350.808 402.842 349.988C401.503 348.459 401.66 346.158 403.189 344.818C414.238 335.157 428.377 330.381 443.019 331.359C454.778 332.147 465.732 336.56 474.732 344.125C476.277 345.433 476.482 347.734 475.174 349.295C473.865 350.839 471.564 351.044 470.004 349.736C462.217 343.179 452.713 339.349 442.531 338.672C429.842 337.821 417.58 341.966 408.012 350.351C407.319 350.934 406.452 351.233 405.601 351.233Z" fill="#190F19"/>
<path d="M401.883 490.914C401.883 490.914 458.626 490.914 472.811 519.283L401.883 490.914Z" fill="#FBF9FB"/>
<path d="M410.309 512.003C411.519 511.429 413.004 511.543 414.143 512.433C437.046 530.342 486.065 507.423 486.555 507.207C488.378 506.342 490.562 507.119 491.434 508.955C492.3 510.777 491.522 512.961 489.7 513.827C487.522 514.862 436.091 538.909 409.633 518.222C408.044 516.97 407.759 514.68 409.004 513.077C409.36 512.576 409.811 512.24 410.309 512.003Z" fill="#190F19"/>
<path d="M342.49 656.979C342.49 656.979 455.897 679.894 516.911 632.645C539.419 615.215 533.051 588.438 507.848 593.103C475.536 599.076 420.811 621.424 354.296 617.547" fill="#FBF9FB"/>
<path d="M405.16 666.199C370.026 666.199 342.916 660.809 341.765 660.572C339.779 660.178 338.503 658.24 338.897 656.254C339.291 654.268 341.229 652.992 343.215 653.386C344.334 653.606 455.708 675.402 514.657 629.745C526.479 620.589 528.796 609.541 525.943 603.158C523.389 597.469 517.053 595.12 508.51 596.696C500.235 598.225 490.479 600.841 479.193 603.883C447.401 612.425 403.867 624.103 354.091 621.188C352.073 621.077 350.529 619.344 350.639 617.311C350.765 615.293 352.483 613.765 354.517 613.875C403.126 616.712 445.999 605.207 477.302 596.807C488.745 593.733 498.643 591.086 507.186 589.494C519.134 587.288 528.654 591.275 532.642 600.164C536.771 609.383 534.202 623.883 519.165 635.529C501.323 649.351 467.356 665.883 406.846 666.183C406.279 666.199 405.727 666.199 405.16 666.199Z" fill="#190F19"/>
<path d="M565.268 660.935C565.268 660.935 451.862 683.85 390.847 636.601C368.339 619.17 374.707 592.394 399.91 597.059C432.222 603.032 486.948 625.38 553.463 621.503" fill="#FBF9FB"/>
<path d="M502.599 670.154C502.047 670.154 501.48 670.154 500.928 670.154C467.529 669.997 420.936 664.544 388.609 639.501C373.572 627.854 371.003 613.339 375.132 604.135C379.12 595.246 388.625 591.243 400.588 593.466C409.147 595.042 419.029 597.705 430.472 600.778C461.776 609.178 504.664 620.683 553.258 617.846C555.228 617.72 557.009 619.265 557.135 621.282C557.261 623.299 555.716 625.033 553.699 625.159C503.907 628.075 460.373 616.381 428.597 607.855C417.295 604.829 407.539 602.197 399.28 600.668C390.737 599.092 384.4 601.44 381.847 607.13C378.994 613.512 381.295 624.56 393.133 633.717C452.098 679.39 563.471 657.578 564.59 657.357C566.576 656.963 568.499 658.24 568.909 660.225C569.303 662.211 568.026 664.134 566.04 664.544C564.842 664.749 537.732 670.154 502.599 670.154Z" fill="#190F19"/>
</svg>
