<svg width="743" height="743" viewBox="0 0 743 743" fill="none" xmlns="http://www.w3.org/2000/svg">
<path d="M384.874 585.05C452.05 585.05 506.508 502.687 506.508 401.086C506.508 299.485 452.05 217.122 384.874 217.122C317.698 217.122 263.24 299.485 263.24 401.086C263.24 502.687 317.698 585.05 384.874 585.05Z" fill="#FBF9FB"/>
<path d="M422.173 544.2C422.514 546.782 422.173 544.2 424.558 545.078C433.47 523.873 433.745 500.794 448.673 475.094L464.478 449.983C462.093 447.179 459.301 444.728 456.077 442.697C435.908 429.997 419.565 419.709 392.122 463.286C376.985 487.361 418.805 518.945 422.173 544.2Z" fill="#190F19"/>
<path d="M178.55 243.7C178.55 243.7 277 358.047 335.425 384.14C335.425 384.14 392.841 407.455 428.318 349.987C428.318 349.987 469.496 261.707 472.851 145.761C472.851 145.761 460.597 94.8064 376.564 106.982C376.564 106.982 318.742 115.618 291.875 122.119C232.362 136.535 185.404 162.143 185.404 162.143C185.404 162.143 144.108 190.674 178.55 243.7Z" fill="#FBF9FB"/>
<path d="M362.817 391.873C346.566 391.873 334.823 387.194 334.286 386.971C309.621 375.962 275.559 348.834 232.94 306.306C201.302 274.734 176.507 245.98 176.258 245.705L176.009 245.378C140.361 190.491 183.256 159.955 183.702 159.64L183.977 159.47C184.449 159.208 231.97 133.507 291.181 119.17C317.864 112.709 375.556 104.059 376.132 103.98C400.718 100.416 434.885 100.219 458.174 119.471C472.367 131.201 475.683 144.503 475.827 145.067L475.919 145.46L475.906 145.866C472.564 261.117 431.504 350.406 431.084 351.298L430.914 351.612C411.911 382.397 386.643 390.392 368.793 391.676C366.748 391.807 364.743 391.873 362.817 391.873ZM181.002 241.865C185.169 246.675 280.526 356.278 336.671 381.362C336.71 381.375 350.668 386.906 368.596 385.569C392.331 383.773 411.517 371.323 425.632 348.558C427.559 344.325 466.47 257.592 469.798 146.141C469.196 144.097 465.552 133.35 453.98 123.914C436.903 109.996 410.286 105.186 377.01 110.009C376.447 110.088 319.031 118.698 292.61 125.094C235.849 138.841 189.992 163.153 187.03 164.751C184.226 166.743 149.43 193.086 181.002 241.865Z" fill="#190F19"/>
<path d="M185.798 164.122L121.109 214.723C112.564 221.407 99.5497 233.399 92.1974 241.367C92.1974 241.367 72.9583 262.205 108.317 284.93C162.273 319.608 226.347 321.718 226.347 321.718C237.185 322.072 240.763 315.244 234.289 306.542C234.302 306.555 187.515 243.687 185.798 164.122Z" fill="#FBF9FB"/>
<path d="M227.186 324.785C226.885 324.785 226.584 324.785 226.269 324.772C225.614 324.746 160.728 322.229 106.68 287.499C93.0236 278.731 85.4354 269.073 84.1248 258.785C82.6701 247.343 89.6554 239.624 89.9569 239.297C97.4271 231.21 110.559 219.114 119.235 212.325L188.721 157.976L188.852 164.057C190.53 241.747 236.282 304.104 236.74 304.733C241.956 311.745 240.725 316.646 239.519 318.953C238.366 321.168 235.233 324.785 227.186 324.785ZM182.981 170.203L122.996 217.122C114.53 223.74 101.726 235.548 94.439 243.438C94.2293 243.674 89.0395 249.519 90.1797 258.116C91.2936 266.491 97.9513 274.656 109.969 282.375C162.562 316.174 225.823 318.664 226.452 318.678C230.358 318.809 233.215 317.852 234.119 316.122C235.024 314.392 234.172 311.496 231.852 308.363C231.393 307.747 186.821 247.003 182.981 170.203Z" fill="#190F19"/>
<path d="M390.732 105.933L472.853 106.693C483.704 106.798 501.318 108.384 512.012 110.232C512.012 110.232 539.967 115.055 525.747 154.608C504.044 214.959 454.505 255.652 454.505 255.652C446.117 262.533 439.132 259.296 438.974 248.444C438.961 248.457 437.795 170.099 390.732 105.933Z" fill="#190F19"/>
<path d="M446.352 262.323C444.649 262.323 443.299 261.904 442.368 261.471C440.009 260.384 436.051 257.251 435.92 248.497C435.907 247.723 434.19 170.334 388.268 107.742L384.664 102.84L472.878 103.666C483.887 103.771 501.672 105.37 512.523 107.244C512.956 107.322 523.217 109.183 529.01 119.157C534.226 128.108 534.082 140.388 528.604 155.656C506.874 216.099 456.929 257.605 456.418 258.025C452.355 261.353 448.934 262.323 446.352 262.323ZM396.669 109.039C440.363 172.3 441.988 247.632 442.001 248.405C442.054 252.297 443.155 255.115 444.924 255.941C446.693 256.753 449.55 255.783 452.565 253.306C453.049 252.9 501.724 212.417 522.876 153.585C527.712 140.139 528.027 129.615 523.807 122.289C519.482 114.766 511.802 113.299 511.475 113.233C500.911 111.411 483.559 109.852 472.813 109.747L396.669 109.039Z" fill="#190F19"/>
<path d="M315.414 292.073C315.414 292.073 340.997 322.976 352.032 327.17C352.032 327.17 363.276 333.29 369.724 320.407C369.724 320.407 378.387 296.096 376.172 270.291C376.172 270.291 375.058 261.393 358.349 265.416C341.848 269.387 321.561 273.791 321.561 273.791C321.561 273.791 307.354 277.775 315.414 292.073Z" fill="#190F19"/>
<path d="M379.383 226.034C384.304 226.034 388.294 222.044 388.294 217.122C388.294 212.2 384.304 208.21 379.383 208.21C374.461 208.21 370.471 212.2 370.471 217.122C370.471 222.044 374.461 226.034 379.383 226.034Z" fill="#190F19"/>
<path d="M265.363 255.875C270.285 255.875 274.275 251.885 274.275 246.963C274.275 242.041 270.285 238.051 265.363 238.051C260.441 238.051 256.451 242.041 256.451 246.963C256.451 251.885 260.441 255.875 265.363 255.875Z" fill="#190F19"/>
<path d="M381.517 343.736C360.849 352.149 357.088 330.709 357.088 330.709C357.088 330.709 334.402 334.811 326.172 322.871" fill="#FBF9FB"/>
<path d="M372.646 348.755C369.631 348.755 366.853 348.06 364.35 346.671C358.662 343.526 355.988 337.628 354.835 334.103C348.112 334.837 331.14 335.466 323.67 324.614C322.713 323.225 323.067 321.338 324.443 320.381C325.819 319.425 327.719 319.778 328.676 321.155C335.687 331.311 356.329 327.76 356.539 327.72L359.54 327.183L360.077 330.197C360.09 330.263 361.597 338.231 367.311 341.363C370.693 343.224 375.083 343.08 380.365 340.931C381.924 340.302 383.694 341.049 384.336 342.609C384.965 344.168 384.218 345.937 382.658 346.58C379.094 348.021 375.738 348.755 372.646 348.755Z" fill="#190F19"/>
<path d="M333.694 575.863C333.694 575.863 175.443 593.255 131.749 571.407C104.437 557.751 111.684 539.141 124.528 533.991C132.234 530.898 142.732 537.765 146.821 539.115C151.329 540.596 156.991 540.989 163.989 539.167C187.92 532.929 189.991 441.098 231.89 431.714C337.154 408.137 333.694 575.863 333.694 575.863Z" fill="#FBF9FB"/>
<path d="M217.422 584.893C174.776 584.893 145.668 581.119 130.649 573.609C112.721 564.645 110.414 554.239 110.637 548.826C110.938 541.474 116.036 534.764 123.611 531.71C130.571 528.919 138.775 532.759 144.214 535.301C145.603 535.957 146.808 536.52 147.595 536.769C152.247 538.302 157.555 538.302 163.387 536.782C172.365 534.436 178.629 515.957 185.261 496.39C195.024 467.61 206.085 434.977 231.366 429.316C255.559 423.903 276.161 427.966 292.596 441.399C311.586 456.929 324.679 484.333 331.533 522.851C336.605 551.343 336.159 575.68 336.159 575.929L336.12 578.078L333.984 578.314C333.591 578.353 293.815 582.691 249.216 584.29C237.88 584.683 227.29 584.893 217.422 584.893ZM128.919 535.642C127.687 535.642 126.508 535.825 125.433 536.258C119.64 538.578 115.761 543.584 115.538 549.01C115.237 556.31 121.383 563.478 132.838 569.206C172.627 589.1 312.071 575.614 331.245 573.648C331.179 559.285 329.017 477.518 289.464 445.187C274.261 432.749 255.074 429.027 232.428 434.099C209.834 439.158 199.244 470.402 189.9 497.963C182.521 519.732 176.152 538.525 164.606 541.526C157.857 543.283 151.605 543.256 146.048 541.435C144.987 541.081 143.65 540.465 142.117 539.744C138.473 538.04 133.362 535.642 128.919 535.642Z" fill="#190F19"/>
<path d="M440.441 575.863C440.441 575.863 598.692 593.255 642.386 571.407C669.698 557.751 662.451 539.141 649.607 533.991C641.901 530.898 631.404 537.765 627.315 539.115C622.806 540.596 617.145 540.989 610.146 539.167C586.215 532.929 584.145 441.098 542.246 431.714C436.981 408.137 440.441 575.863 440.441 575.863Z" fill="#FBF9FB"/>
<path d="M556.715 584.893C546.847 584.893 536.257 584.696 524.947 584.29C480.349 582.691 440.573 578.353 440.18 578.314L438.043 578.078L438.004 575.929C438.004 575.68 437.558 551.343 442.63 522.851C449.485 484.333 462.577 456.929 481.567 441.399C498.002 427.966 518.604 423.903 542.797 429.316C568.078 434.977 579.139 467.61 588.903 496.39C595.534 515.957 601.799 534.449 610.789 536.782C616.608 538.302 621.929 538.302 626.582 536.769C627.368 536.507 628.574 535.943 629.963 535.301C635.389 532.759 643.606 528.919 650.552 531.71C658.127 534.751 663.225 541.474 663.527 548.826C663.749 554.239 661.443 564.645 643.514 573.609C628.482 581.106 599.348 584.893 556.715 584.893ZM442.893 573.662C462.053 575.627 601.497 589.113 641.299 569.219C652.754 563.492 658.9 556.323 658.599 549.023C658.376 543.597 654.497 538.591 648.704 536.271C643.724 534.266 636.686 537.569 632.021 539.757C630.487 540.478 629.15 541.094 628.089 541.448C622.532 543.269 616.281 543.309 609.531 541.54C597.998 538.525 591.616 519.732 584.237 497.976C574.893 470.415 564.303 439.171 541.709 434.112C519.063 429.04 499.876 432.776 484.673 445.2C445.12 477.531 442.958 559.298 442.893 573.662Z" fill="#190F19"/>
<path d="M487.634 304.117C536.021 340.053 522.194 408.923 522.194 408.923C484.673 648.678 398.345 622.454 384.86 604.656C371.374 586.859 386.957 570.739 386.957 570.739C434.045 552.378 453.979 414.061 453.979 414.061" fill="#FBF9FB"/>
<path d="M411.675 618.037C397.494 618.037 386.931 611.445 382.908 606.151C368.321 586.898 385.031 569.219 385.201 569.048L385.568 568.668L386.066 568.472C431.294 550.831 451.358 415.096 451.555 413.733C451.752 412.396 452.984 411.453 454.334 411.649C455.67 411.846 456.601 413.091 456.417 414.428C455.605 420.115 435.881 553.361 388.399 572.823C386.289 575.221 375.713 588.523 386.826 603.189C391.138 608.876 404.584 616.242 422.316 611.786C447.846 605.364 494.45 570.411 519.783 408.556C519.94 407.783 532.719 340.669 486.18 306.096C485.093 305.284 484.87 303.75 485.669 302.662C486.482 301.575 488.015 301.352 489.103 302.151C538.171 338.598 524.75 408.714 524.606 409.408C513.846 478.187 498.08 531.173 477.766 566.781C466.797 586.007 448.488 610.253 423.509 616.543C419.354 617.579 415.397 618.037 411.675 618.037Z" fill="#190F19"/>
<path d="M322.976 414.061C322.976 414.061 342.909 552.378 389.998 570.739C389.998 570.739 405.581 586.859 392.095 604.657C378.609 622.454 292.282 634.603 254.76 394.848L248.312 341.377" fill="#FBF9FB"/>
<path d="M370.694 615.495C366.736 615.495 362.804 614.997 359.279 614.106C345.046 610.528 323.645 598.589 302.544 562.037C280.632 524.096 263.739 467.977 252.363 395.241L245.902 341.691C245.744 340.341 246.701 339.122 248.038 338.965C249.388 338.782 250.607 339.765 250.764 341.101L257.212 394.573C268.496 466.628 285.179 522.182 306.791 559.599C327.039 594.657 347.156 606.019 360.471 609.361C375.871 613.241 386.657 607.802 390.143 603.189C401.243 588.537 390.693 575.234 388.57 572.823C368.518 564.606 350.996 535.472 336.475 486.221C325.676 449.603 320.591 414.768 320.552 414.428C320.355 413.091 321.286 411.846 322.635 411.649C323.972 411.44 325.217 412.383 325.414 413.733C325.61 415.096 345.675 550.845 390.903 568.472L391.401 568.668L391.768 569.048C391.938 569.219 408.648 586.898 394.061 606.151C388.976 612.861 379.75 615.495 370.694 615.495Z" fill="#190F19"/>
<path d="M214.133 251.118C195.772 252.271 191.041 266.635 203.609 283.03L257.068 352.765C269.636 369.161 288.377 367.929 298.717 350.013L342.346 274.433C352.687 256.517 346.121 242.809 327.76 243.962L214.133 251.118Z" fill="#593399"/>
<path d="M277.369 366.933C269.125 366.933 261.223 362.516 254.984 354.364L201.526 284.629C194.423 275.363 192.195 266.019 195.393 258.981C198.21 252.795 204.803 249.073 213.977 248.51L327.616 241.367C336.751 240.791 343.801 243.661 347.379 249.453C351.468 256.059 350.472 265.639 344.627 275.756L300.998 351.337C295.546 360.786 287.696 366.304 278.889 366.88C278.378 366.92 277.867 366.933 277.369 366.933ZM329.857 246.544C329.228 246.544 328.586 246.57 327.93 246.609L214.291 253.752C207.149 254.198 202.129 256.832 200.15 261.17C197.778 266.386 199.796 273.777 205.668 281.457L259.126 351.193C264.656 358.401 271.537 362.123 278.522 361.664C285.521 361.205 291.877 356.618 296.424 348.729L340.053 273.148C344.902 264.761 345.938 257.133 342.897 252.232C340.63 248.523 336.03 246.544 329.857 246.544Z" fill="#190F19"/>
<path d="M214.133 251.118C195.772 252.271 191.041 266.635 203.609 283.03L257.068 352.765C269.636 369.161 288.377 367.929 298.717 350.013L342.346 274.433C352.687 256.517 346.121 242.809 327.76 243.962L214.133 251.118Z" fill="#593399"/>
<path d="M277.369 366.933C269.125 366.933 261.223 362.516 254.984 354.364L201.526 284.629C194.423 275.363 192.195 266.019 195.393 258.981C198.21 252.795 204.803 249.073 213.977 248.51L327.616 241.367C336.751 240.791 343.801 243.661 347.379 249.453C351.468 256.059 350.472 265.639 344.627 275.756L300.998 351.337C295.546 360.786 287.696 366.304 278.889 366.88C278.378 366.92 277.867 366.933 277.369 366.933ZM329.857 246.544C329.228 246.544 328.586 246.57 327.93 246.609L214.291 253.752C207.149 254.198 202.129 256.832 200.15 261.17C197.778 266.386 199.796 273.777 205.668 281.457L259.126 351.193C264.656 358.401 271.537 362.123 278.522 361.664C285.521 361.205 291.877 356.618 296.424 348.729L340.053 273.148C344.902 264.761 345.938 257.133 342.897 252.232C340.63 248.523 336.03 246.544 329.857 246.544Z" fill="#190F19"/>
<path d="M382.659 240.542C364.298 241.695 359.567 256.059 372.135 272.454L425.593 342.189C438.161 358.584 456.902 357.352 467.243 339.437L510.871 263.857C521.212 245.941 514.646 232.233 496.285 233.386L382.659 240.542Z" fill="#593399"/>
<path d="M445.894 356.343C437.651 356.343 429.748 351.927 423.51 343.775L370.052 274.04C362.948 264.774 360.72 255.43 363.918 248.392C366.736 242.206 373.328 238.484 382.502 237.907L496.141 230.765C505.289 230.188 512.327 233.058 515.918 238.851C520.007 245.456 518.998 255.036 513.166 265.154L469.511 340.747C464.059 350.197 456.208 355.714 447.401 356.291C446.903 356.33 446.392 356.343 445.894 356.343ZM382.659 240.542L382.817 243.163C375.674 243.608 370.654 246.242 368.676 250.58C366.303 255.797 368.322 263.188 374.193 270.868L427.651 340.603C433.182 347.811 440.062 351.547 447.047 351.075C454.046 350.616 460.402 346.029 464.95 338.139L508.579 262.559C513.428 254.171 514.463 246.544 511.423 241.642C508.893 237.567 503.585 235.574 496.43 236.02L382.79 243.163L382.659 240.542Z" fill="#190F19"/>
<path d="M382.659 240.542C364.298 241.695 359.567 256.059 372.135 272.454L425.593 342.189C438.161 358.584 456.902 357.352 467.243 339.437L510.871 263.857C521.212 245.941 514.646 232.233 496.285 233.386L382.659 240.542Z" fill="#593399"/>
<path d="M445.894 356.343C437.651 356.343 429.748 351.927 423.51 343.775L370.052 274.04C362.948 264.774 360.72 255.43 363.918 248.392C366.736 242.206 373.328 238.484 382.502 237.907L496.141 230.765C505.289 230.188 512.327 233.058 515.918 238.851C520.007 245.456 518.998 255.036 513.166 265.154L469.511 340.747C464.059 350.197 456.208 355.714 447.401 356.291C446.903 356.33 446.392 356.343 445.894 356.343ZM382.659 240.542L382.817 243.163C375.674 243.608 370.654 246.242 368.676 250.58C366.303 255.797 368.322 263.188 374.193 270.868L427.651 340.603C433.182 347.811 440.062 351.547 447.047 351.075C454.046 350.616 460.402 346.029 464.95 338.139L508.579 262.559C513.428 254.171 514.463 246.544 511.423 241.642C508.893 237.567 503.585 235.574 496.43 236.02L382.79 243.163L382.659 240.542Z" fill="#190F19"/>
<path d="M329.124 244.683C328.337 244.683 327.551 244.381 326.961 243.779C325.782 242.586 325.782 240.659 326.974 239.467C334.576 231.931 344.09 228.563 357.799 228.563C357.904 228.563 358.022 228.563 358.126 228.563C368.454 228.602 374.43 230.45 381.769 235.889C383.119 236.885 383.407 238.798 382.411 240.148C381.415 241.498 379.502 241.787 378.152 240.791C371.848 236.125 367.169 234.696 358.113 234.657C345.794 234.657 337.786 237.344 331.273 243.792C330.683 244.381 329.897 244.683 329.124 244.683Z" fill="#190F19"/>
</svg>
