<svg width="1920" height="1080" viewBox="0 0 1920 1080" fill="none" xmlns="http://www.w3.org/2000/svg">
<g clip-path="url(#clip0_368_6531)">
<path d="M1040.18 539.414H1091.69C1126.82 539.414 1144.37 524.919 1144.37 496.281C1144.37 468.059 1126.82 453.949 1091.69 453.949H1040.18V539.414Z" fill="#FBF9FB"/>
<path fill-rule="evenodd" clip-rule="evenodd" d="M1920 0H0V1080H1920V0ZM580.93 474.331L605.518 667.979H657.371L621.093 412H554.366L497.385 606.448L440.819 412H374.092L337.814 667.979H389.73L414.319 474.331L467.796 667.979H527.484L580.93 474.331ZM1089.36 581.362H1040.18V668.011H989.446V412.032H1099.11C1163.48 412.032 1197.05 441.054 1197.05 497.081C1197.05 538.23 1179.08 564.499 1143.19 575.474L1202.11 667.979H1142.81L1089.36 581.362ZM1392.93 667.979L1485.01 412H1432.74L1358.59 628.398L1284.45 412H1232.15L1323.85 667.979H1392.93ZM887.523 667.979L813.375 451.581L739.227 667.979H686.928L778.626 412H847.71L939.79 667.979H887.523ZM1531.45 667.979H1582.19V412H1531.45V667.979Z" fill="#FBF9FB"/>
<path d="M605.518 667.979L580.93 474.331L527.484 667.979H467.796L414.319 474.331L389.73 667.979H337.814L374.092 412H440.819L497.385 606.448L554.366 412H621.093L657.371 667.979H605.518Z" fill="#86368C"/>
<path d="M1089.36 581.362H1040.18V668.011H989.446V412.032H1099.11C1163.48 412.032 1197.05 441.054 1197.05 497.081C1197.05 538.23 1179.08 564.499 1143.19 575.474L1202.11 667.979H1142.81L1089.36 581.362ZM1040.18 539.414H1091.69C1126.82 539.414 1144.37 524.919 1144.37 496.281C1144.37 468.059 1126.82 453.949 1091.69 453.949H1040.18V539.414Z" fill="#86368C"/>
<path d="M1485.01 412L1392.93 667.979H1323.85L1232.15 412H1284.45L1358.59 628.398L1432.74 412H1485.01Z" fill="#86368C"/>
<path d="M887.523 667.979L813.375 451.581L739.227 667.979H686.928L778.626 412H847.71L939.79 667.979H887.523Z" fill="#86368C"/>
<path d="M1582.19 667.979H1531.45V412H1582.19V667.979Z" fill="#86368C"/>
</g>
<defs>
<clipPath id="clip0_368_6531">
<rect width="1920" height="1080" fill="white"/>
</clipPath>
</defs>
</svg>
