<svg width="1920" height="536" viewBox="0 0 1920 536" fill="none" xmlns="http://www.w3.org/2000/svg">
<path d="M463.933 446.637L429.523 176.337L354.731 446.637H271.202L196.365 176.337L161.956 446.637H89.3027L140.071 89.3335H233.45L312.61 360.75L392.35 89.3335H485.729L536.497 446.637H463.933Z" fill="#FBF9FB"/>
<path d="M1141.03 325.734H1072.21V446.682H1001.21V89.3782H1154.67C1244.75 89.3782 1291.73 129.888 1291.73 208.092C1291.73 265.529 1266.59 302.197 1216.36 317.516L1298.82 446.637H1215.82L1141.03 325.734ZM1072.21 267.181H1144.28C1193.45 267.181 1218.01 246.949 1218.01 206.976C1218.01 167.583 1193.45 147.887 1144.28 147.887H1072.21V267.181Z" fill="#FBF9FB"/>
<path d="M1694.71 89.3335L1565.85 446.637H1469.17L1340.85 89.3335H1414.04L1517.8 391.389L1621.56 89.3335H1694.71Z" fill="#FBF9FB"/>
<path d="M858.576 446.637L754.811 144.582L651.047 446.637H577.859L706.183 89.3335H802.86L931.719 446.637H858.576Z" fill="#FBF9FB"/>
<path d="M1830.7 446.637H1759.7V89.3335H1830.7V446.637Z" fill="#FBF9FB"/>
</svg>
