<svg xmlns="http://www.w3.org/2000/svg" xmlns:xlink="http://www.w3.org/1999/xlink">

    <symbol id="flagForUkraine" viewBox="0 0 60 60" fill="none" xmlns="http://www.w3.org/2000/svg">
        <path d="M30 60C46.6 60 60 46.6 60 30H0C0 46.6 13.4 60 30 60Z" fill="#F6CE00"/>
        <path d="M30 0C13.4 0 0 13.4 0 30H60C60 13.4 46.6 0 30 0Z" fill="#0158B5"/>
    </symbol>

    <symbol id="point" viewBox="0 0 24 24">
        <path d="M13.4523 16.403C12.9179 17.199 11.5821 17.199 11.0477 16.403L5.93806 8.79105C5.40372 7.99503 6.07165 7 7.14034 7L17.3597 7C18.4283 7 19.0963 7.99502 18.5619 8.79104L13.4523 16.403Z" fill="#190F19"/>
    </symbol>

    <symbol id="camera" viewBox="0 0 20 20">
        <path d="M18.125 15.0152C17.95 15.0151 17.777 14.9782 17.6172 14.907C17.58 14.8905 17.5445 14.8704 17.5113 14.8469L14.2805 12.5727C14.1166 12.4573 13.9829 12.3043 13.8906 12.1264C13.7983 11.9486 13.75 11.7512 13.75 11.5508V8.44922C13.75 8.24884 13.7983 8.05141 13.8906 7.87357C13.9829 7.69573 14.1166 7.54269 14.2805 7.42734L17.5113 5.15312C17.5445 5.12963 17.58 5.10948 17.6172 5.09297C17.8075 5.00836 18.0159 4.97264 18.2236 4.98906C18.4312 5.00549 18.6314 5.07353 18.8061 5.18701C18.9807 5.30049 19.1242 5.45581 19.2236 5.63886C19.323 5.82191 19.375 6.02688 19.375 6.23516V13.7648C19.375 14.0964 19.2433 14.4143 19.0089 14.6487C18.7745 14.8831 18.4565 15.0148 18.125 15.0148V15.0152ZM10.4688 15.625H3.28125C2.57699 15.6243 1.90178 15.3442 1.4038 14.8462C0.90581 14.3482 0.625724 13.673 0.625 12.9688V7.03125C0.625724 6.32699 0.90581 5.65178 1.4038 5.1538C1.90178 4.65581 2.57699 4.37572 3.28125 4.375H10.4875C11.1868 4.37583 11.8571 4.65397 12.3516 5.14842C12.846 5.64287 13.1242 6.31325 13.125 7.0125V12.9688C13.1243 13.673 12.8442 14.3482 12.3462 14.8462C11.8482 15.3442 11.173 15.6243 10.4688 15.625Z" fill="#86368C"/>
    </symbol>
    <symbol id="glasses" viewBox="0 0 100 100">
        <path d="M90.625 35.9375H88.4961C87.5099 35.3551 86.4617 34.8848 85.3711 34.5352C81.9336 33.3984 77.3945 32.8125 71.875 32.8125C66.3555 32.8125 61.8164 33.3984 58.3867 34.5352C55.6406 35.4512 54.4316 36.4609 54.041 36.8535C52.7799 36.2505 51.3998 35.9375 50.002 35.9375C48.6041 35.9375 47.224 36.2505 45.9629 36.8535C45.5723 36.4629 44.3633 35.4512 41.6172 34.5352C38.1836 33.3984 33.6445 32.8125 28.125 32.8125C22.6055 32.8125 18.0664 33.3984 14.6367 34.5352C13.5461 34.8848 12.4979 35.3551 11.5117 35.9375H9.375C8.5462 35.9375 7.75134 36.2667 7.16529 36.8528C6.57924 37.4388 6.25 38.2337 6.25 39.0625C6.25 39.8913 6.57924 40.6862 7.16529 41.2722C7.75134 41.8583 8.5462 42.1875 9.375 42.1875H9.4082C9.60352 51.0664 10.666 56.4023 12.9453 60.2012C14.3731 62.6538 16.5619 64.5738 19.1797 65.6699C21.5684 66.6934 24.4961 67.1914 28.125 67.1914C32.8418 67.1914 39.5469 66.4668 43.3047 60.2051C45.1953 57.0527 46.252 52.8438 46.666 46.4316C46.8036 46.0745 46.8745 45.6952 46.875 45.3125C46.875 44.4837 47.2042 43.6888 47.7903 43.1028C48.3763 42.5167 49.1712 42.1875 50 42.1875C50.8288 42.1875 51.6237 42.5167 52.2097 43.1028C52.7958 43.6888 53.125 44.4837 53.125 45.3125C53.126 45.6939 53.1969 46.0719 53.334 46.4277C53.748 52.8398 54.8047 57.0488 56.6953 60.2012C58.1231 62.6538 60.3119 64.5738 62.9297 65.6699C65.3184 66.6934 68.2461 67.1914 71.875 67.1914C76.5918 67.1914 83.2969 66.4668 87.0547 60.2051C89.334 56.4063 90.4004 51.0703 90.5918 42.1914H90.625C91.4538 42.1914 92.2487 41.8622 92.8347 41.2761C93.4208 40.6901 93.75 39.8952 93.75 39.0664C93.75 38.2376 93.4208 37.4428 92.8347 36.8567C92.2487 36.2706 91.4538 35.9414 90.625 35.9414V35.9375Z" fill="#FBF9FB"/>
    </symbol>
    <symbol id="uah" viewBox="0 0 100 100">
        <path d="M60.7917 45.8333H75V37.5H68C69.75 34.75 70.8333 32 70.8333 29.1667C70.8333 18.2083 60.4167 12.5 50 12.5C40.2083 12.5 31.375 21.0833 30.375 22.0417L36.2917 27.9583C38.2917 25.9583 44.625 20.8333 50 20.8333C54.3333 20.8333 62.5 22.5833 62.5 29.1667C62.5 31.25 60.4167 34.3333 57.3333 37.5H25V45.8333H48.4583C46.7083 47.3333 40.625 52.7917 39.2083 54.1667H25V62.5H32C30.25 65.25 29.1667 68 29.1667 70.8333C29.1667 81.7917 39.5833 87.5 50 87.5C59.7917 87.5 68.625 78.9167 69.625 77.9583L63.7083 72.0417C61.75 74.0417 55.375 79.1667 50 79.1667C45.6667 79.1667 37.5 77.4167 37.5 70.8333C37.5 68.75 39.5833 65.6667 42.6667 62.5H75V54.1667H51.5833L60.7917 45.8333Z" fill="#FBF9FB"/>
    </symbol>
    <symbol id="cart" viewBox="0 0 100 100">
        <path d="M34.375 87.5C37.8268 87.5 40.625 84.7018 40.625 81.25C40.625 77.7982 37.8268 75 34.375 75C30.9232 75 28.125 77.7982 28.125 81.25C28.125 84.7018 30.9232 87.5 34.375 87.5Z" fill="#FBF9FB"/>
        <path d="M78.125 87.5C81.5768 87.5 84.375 84.7018 84.375 81.25C84.375 77.7982 81.5768 75 78.125 75C74.6732 75 71.875 77.7982 71.875 81.25C71.875 84.7018 74.6732 87.5 78.125 87.5Z" fill="#FBF9FB"/>
        <path d="M89.2188 23.5898C88.7797 23.0528 88.2266 22.6203 87.5996 22.3237C86.9726 22.0271 86.2874 21.8738 85.5938 21.875H26.1504L24.9531 15.082C24.8255 14.3585 24.4469 13.703 23.884 13.2308C23.3211 12.7586 22.6098 12.4998 21.875 12.5H9.375C8.5462 12.5 7.75134 12.8292 7.16529 13.4153C6.57924 14.0013 6.25 14.7962 6.25 15.625C6.25 16.4538 6.57924 17.2487 7.16529 17.8347C7.75134 18.4208 8.5462 18.75 9.375 18.75H19.2539L28.1719 69.293C28.2995 70.0165 28.6781 70.672 29.241 71.1442C29.8039 71.6164 30.5152 71.8752 31.25 71.875H81.25C82.0788 71.875 82.8737 71.5458 83.4597 70.9597C84.0458 70.3737 84.375 69.5788 84.375 68.75C84.375 67.9212 84.0458 67.1263 83.4597 66.5403C82.8737 65.9542 82.0788 65.625 81.25 65.625H33.8711L32.7695 59.375H79.9688C81.0525 59.3736 82.1025 58.9979 82.941 58.3113C83.7795 57.6248 84.3551 56.6696 84.5703 55.6074L90.1953 27.4824C90.3308 26.8018 90.3136 26.0995 90.1447 25.4263C89.9758 24.7532 89.6595 24.1259 89.2188 23.5898Z" fill="#FBF9FB"/>
    </symbol>
    <symbol id="reader" viewBox="0 0 100 100">
        <path d="M71.875 6.25H28.125C24.8109 6.25362 21.6336 7.57174 19.2902 9.91516C16.9467 12.2586 15.6286 15.4359 15.625 18.75V81.25C15.6286 84.5641 16.9467 87.7414 19.2902 90.0848C21.6336 92.4283 24.8109 93.7464 28.125 93.75H71.875C75.1891 93.7464 78.3664 92.4283 80.7098 90.0848C83.0533 87.7414 84.3714 84.5641 84.375 81.25V18.75C84.3714 15.4359 83.0533 12.2586 80.7098 9.91516C78.3664 7.57174 75.1891 6.25362 71.875 6.25ZM50 59.375H34.375C33.5462 59.375 32.7513 59.0458 32.1653 58.4597C31.5792 57.8737 31.25 57.0788 31.25 56.25C31.25 55.4212 31.5792 54.6263 32.1653 54.0403C32.7513 53.4542 33.5462 53.125 34.375 53.125H50C50.8288 53.125 51.6237 53.4542 52.2097 54.0403C52.7958 54.6263 53.125 55.4212 53.125 56.25C53.125 57.0788 52.7958 57.8737 52.2097 58.4597C51.6237 59.0458 50.8288 59.375 50 59.375ZM65.625 43.75H34.375C33.5462 43.75 32.7513 43.4208 32.1653 42.8347C31.5792 42.2487 31.25 41.4538 31.25 40.625C31.25 39.7962 31.5792 39.0013 32.1653 38.4153C32.7513 37.8292 33.5462 37.5 34.375 37.5H65.625C66.4538 37.5 67.2487 37.8292 67.8347 38.4153C68.4208 39.0013 68.75 39.7962 68.75 40.625C68.75 41.4538 68.4208 42.2487 67.8347 42.8347C67.2487 43.4208 66.4538 43.75 65.625 43.75ZM65.625 28.125H34.375C33.5462 28.125 32.7513 27.7958 32.1653 27.2097C31.5792 26.6237 31.25 25.8288 31.25 25C31.25 24.1712 31.5792 23.3763 32.1653 22.7903C32.7513 22.2042 33.5462 21.875 34.375 21.875H65.625C66.4538 21.875 67.2487 22.2042 67.8347 22.7903C68.4208 23.3763 68.75 24.1712 68.75 25C68.75 25.8288 68.4208 26.6237 67.8347 27.2097C67.2487 27.7958 66.4538 28.125 65.625 28.125Z" fill="#FBF9FB"/>
    </symbol>
    <symbol id="chatBox" viewBox="0 0 100 100">
        <path d="M28.125 90.625C27.2962 90.625 26.5013 90.2958 25.9153 89.7097C25.3292 89.1237 25 88.3288 25 87.5V75H20.3125C16.5842 74.9959 13.0097 73.513 10.3734 70.8766C7.73704 68.2403 6.25414 64.6658 6.25 60.9375V23.4375C6.25414 19.7092 7.73704 16.1347 10.3734 13.4984C13.0097 10.862 16.5842 9.37914 20.3125 9.375H79.6875C83.4158 9.37914 86.9903 10.862 89.6266 13.4984C92.263 16.1347 93.7459 19.7092 93.75 23.4375V60.9375C93.7459 64.6658 92.263 68.2403 89.6266 70.8766C86.9903 73.513 83.4158 74.9959 79.6875 75H47.9961L30.127 89.9004C29.5646 90.3681 28.8564 90.6244 28.125 90.625Z" fill="#FBF9FB"/>
    </symbol>

    <symbol id="statsChart" viewBox="0 0 100 100">
        <path d="M20.3125 96.875H14.0625C12.8193 96.875 11.627 96.3811 10.7479 95.5021C9.86886 94.623 9.375 93.4307 9.375 92.1875V64.0625C9.375 62.8193 9.86886 61.627 10.7479 60.7479C11.627 59.8689 12.8193 59.375 14.0625 59.375H20.3125C21.5557 59.375 22.748 59.8689 23.6271 60.7479C24.5061 61.627 25 62.8193 25 64.0625V92.1875C25 93.4307 24.5061 94.623 23.6271 95.5021C22.748 96.3811 21.5557 96.875 20.3125 96.875ZM64.0625 96.875H57.8125C56.5693 96.875 55.377 96.3811 54.4979 95.5021C53.6189 94.623 53.125 93.4307 53.125 92.1875V45.3125C53.125 44.0693 53.6189 42.877 54.4979 41.9979C55.377 41.1189 56.5693 40.625 57.8125 40.625H64.0625C65.3057 40.625 66.498 41.1189 67.3771 41.9979C68.2561 42.877 68.75 44.0693 68.75 45.3125V92.1875C68.75 93.4307 68.2561 94.623 67.3771 95.5021C66.498 96.3811 65.3057 96.875 64.0625 96.875ZM85.9375 96.875H79.6875C78.4443 96.875 77.252 96.3811 76.3729 95.5021C75.4939 94.623 75 93.4307 75 92.1875V23.4375C75 22.1943 75.4939 21.002 76.3729 20.1229C77.252 19.2439 78.4443 18.75 79.6875 18.75H85.9375C87.1807 18.75 88.373 19.2439 89.2521 20.1229C90.1311 21.002 90.625 22.1943 90.625 23.4375V92.1875C90.625 93.4307 90.1311 94.623 89.2521 95.5021C88.373 96.3811 87.1807 96.875 85.9375 96.875ZM42.1875 96.875H35.9375C34.6943 96.875 33.502 96.3811 32.6229 95.5021C31.7439 94.623 31.25 93.4307 31.25 92.1875V7.8125C31.25 6.5693 31.7439 5.37701 32.6229 4.49794C33.502 3.61886 34.6943 3.125 35.9375 3.125H42.1875C43.4307 3.125 44.623 3.61886 45.5021 4.49794C46.3811 5.37701 46.875 6.5693 46.875 7.8125V92.1875C46.875 93.4307 46.3811 94.623 45.5021 95.5021C44.623 96.3811 43.4307 96.875 42.1875 96.875Z" fill="#FBF9FB"/>
    </symbol>

    <symbol id="chevron-nav" viewBox="0 0 40 40" fill="none">
        <path d="M14.375 8.75L25.625 20L14.375 31.25" stroke="#190F19" stroke-width="2" stroke-linecap="round" stroke-linejoin="round"/>
    </symbol>

    <symbol id="facebook" viewBox="0 0 40 40" fill="none">
        <path fill-rule="evenodd" clip-rule="evenodd" d="M37.5 20.1055C37.5 10.4414 29.6641 2.60547 20 2.60547C10.3359 2.60547 2.5 10.4414 2.5 20.1055C2.5 28.8398 8.89844 36.0797 17.2656 37.3937V25.1656H12.8211V20.1055H17.2656V16.25C17.2656 11.8648 19.8789 9.44062 23.8758 9.44062C25.7906 9.44062 27.7938 9.78281 27.7938 9.78281V14.0898H25.5859C23.4133 14.0898 22.7336 15.4383 22.7336 16.8242V20.1055H27.5867L26.8117 25.1656H22.7344V37.3953C31.1016 36.082 37.5 28.8422 37.5 20.1055Z" fill="#FBF9FB"/>
    </symbol>

    <symbol id="instagram" viewBox="0 0 40 40" fill="none">
        <path d="M27.2914 5.41641C29.2236 5.42218 31.0751 6.19231 32.4414 7.55861C33.8077 8.92491 34.5778 10.7764 34.5836 12.7086V27.2914C34.5778 29.2236 33.8077 31.0751 32.4414 32.4414C31.0751 33.8077 29.2236 34.5778 27.2914 34.5836H12.7086C10.7764 34.5778 8.92491 33.8077 7.55861 32.4414C6.19231 31.0751 5.42218 29.2236 5.41641 27.2914V12.7086C5.42218 10.7764 6.19231 8.92491 7.55861 7.55861C8.92491 6.19231 10.7764 5.42218 12.7086 5.41641H27.2914ZM27.2914 2.5H12.7086C7.09375 2.5 2.5 7.09375 2.5 12.7086V27.2914C2.5 32.9062 7.09375 37.5 12.7086 37.5H27.2914C32.9062 37.5 37.5 32.9062 37.5 27.2914V12.7086C37.5 7.09375 32.9062 2.5 27.2914 2.5Z" fill="#FBF9FB"/>
        <path d="M29.4789 12.709C29.0463 12.709 28.6233 12.5807 28.2636 12.3403C27.9039 12.1 27.6235 11.7583 27.4579 11.3586C27.2924 10.9589 27.249 10.5191 27.3334 10.0947C27.4178 9.67039 27.6262 9.28062 27.9321 8.97469C28.238 8.66876 28.6278 8.46042 29.0521 8.37602C29.4765 8.29161 29.9163 8.33493 30.316 8.5005C30.7157 8.66607 31.0574 8.94644 31.2977 9.30618C31.5381 9.66591 31.6664 10.0888 31.6664 10.5215C31.667 10.8089 31.6109 11.0937 31.5012 11.3593C31.3914 11.625 31.2303 11.8664 31.0271 12.0697C30.8238 12.2729 30.5824 12.434 30.3168 12.5437C30.0511 12.6534 29.7663 12.7096 29.4789 12.709ZM20 14.1668C21.1538 14.1668 22.2816 14.5089 23.241 15.1499C24.2003 15.7909 24.948 16.702 25.3895 17.768C25.8311 18.8339 25.9466 20.0069 25.7215 21.1385C25.4964 22.2701 24.9408 23.3095 24.125 24.1254C23.3091 24.9412 22.2697 25.4968 21.1381 25.7219C20.0065 25.947 18.8335 25.8315 17.7676 25.3899C16.7016 24.9484 15.7906 24.2007 15.1495 23.2414C14.5085 22.282 14.1664 21.1542 14.1664 20.0004C14.1681 18.4537 14.7832 16.9709 15.8769 15.8772C16.9705 14.7836 18.4533 14.1685 20 14.1668ZM20 11.2504C18.2694 11.2504 16.5777 11.7636 15.1388 12.725C13.6998 13.6865 12.5783 15.0531 11.9161 16.6519C11.2538 18.2508 11.0805 20.0101 11.4181 21.7074C11.7558 23.4048 12.5891 24.9639 13.8128 26.1876C15.0365 27.4113 16.5956 28.2446 18.293 28.5823C19.9903 28.9199 21.7496 28.7466 23.3485 28.0843C24.9473 27.4221 26.3139 26.3006 27.2754 24.8616C28.2368 23.4227 28.75 21.731 28.75 20.0004C28.75 17.6797 27.8281 15.4542 26.1872 13.8132C24.5462 12.1723 22.3206 11.2504 20 11.2504Z" fill="#FBF9FB"/>
    </symbol>

    <symbol id="linkedin" viewBox="0 0 40 40" fill="none">
        <path d="M34.7008 2.5H5.49063C3.89453 2.5 2.5 3.64844 2.5 5.22578V34.5008C2.5 36.0867 3.89453 37.5 5.49063 37.5H34.6922C36.2969 37.5 37.5 36.0773 37.5 34.5008V5.22578C37.5094 3.64844 36.2969 2.5 34.7008 2.5ZM13.3492 31.6742H8.33516V16.0844H13.3492V31.6742ZM11.0156 13.7141H10.9797C9.375 13.7141 8.33594 12.5195 8.33594 11.0242C8.33594 9.50156 9.40234 8.33516 11.043 8.33516C12.6836 8.33516 13.6875 9.49297 13.7234 11.0242C13.7227 12.5195 12.6836 13.7141 11.0156 13.7141ZM31.6742 31.6742H26.6602V23.15C26.6602 21.1078 25.9305 19.7125 24.1164 19.7125C22.7305 19.7125 21.9102 20.65 21.5453 21.5633C21.4086 21.8914 21.3719 22.3383 21.3719 22.7945V31.6742H16.3578V16.0844H21.3719V18.2539C22.1016 17.2148 23.2414 15.7195 25.8938 15.7195C29.1852 15.7195 31.675 17.8891 31.675 22.5664L31.6742 31.6742Z" fill="#FBF9FB"/>
    </symbol>

    <symbol id="close" viewBox="0 0 40 40" fill="none">
        <path d="M10.5718 29.428L29.428 10.5718" stroke="#190F19" stroke-width="2" stroke-linecap="round"/>
        <path d="M10.5718 10.572L29.428 29.4282" stroke="#190F19" stroke-width="2" stroke-linecap="round"/>
    </symbol>


    <symbol id="checkbox" viewBox="0 0 60 60" fill="none">
        <path d="M46.875 5.625H13.125C11.1365 5.62717 9.23015 6.41805 7.8241 7.8241C6.41805 9.23015 5.62717 11.1365 5.625 13.125V46.875C5.62717 48.8635 6.41805 50.7699 7.8241 52.1759C9.23015 53.582 11.1365 54.3728 13.125 54.375H46.875C48.8635 54.3728 50.7699 53.582 52.1759 52.1759C53.582 50.7699 54.3728 48.8635 54.375 46.875V13.125C54.3728 11.1365 53.582 9.23015 52.1759 7.8241C50.7699 6.41805 48.8635 5.62717 46.875 5.625ZM42.6855 21.8309L26.9355 40.5809C26.7628 40.7866 26.5478 40.9529 26.3052 41.0683C26.0626 41.1838 25.798 41.2457 25.5293 41.25H25.4977C25.2348 41.2499 24.975 41.1946 24.735 41.0876C24.4949 40.9806 24.2801 40.8243 24.1043 40.6289L17.3543 33.1289C17.1829 32.9471 17.0495 32.7328 16.9621 32.4987C16.8746 32.2646 16.8349 32.0154 16.8451 31.7658C16.8554 31.5161 16.9154 31.271 17.0218 31.0448C17.1281 30.8187 17.2786 30.6161 17.4643 30.4489C17.6501 30.2818 17.8673 30.1534 18.1034 30.0714C18.3395 29.9894 18.5895 29.9555 18.8389 29.9715C19.0883 29.9876 19.3319 30.0533 19.5555 30.1648C19.7792 30.2764 19.9782 30.4315 20.141 30.6211L25.4484 36.518L39.8145 19.4191C40.1367 19.0466 40.5926 18.8158 41.0836 18.7767C41.5747 18.7375 42.0614 18.8932 42.4386 19.21C42.8157 19.5269 43.0531 19.9794 43.0993 20.4698C43.1455 20.9602 42.9969 21.4491 42.6855 21.8309Z" fill="#02AB6B"/>
    </symbol>

    <symbol id="learnMore" viewBox="0 0 100 100" fill="none">
        <path d="M50 50L12.7 35.1L15 90H5L7.4 32.95L0 30L50 10L100 30L50 50ZM50 25C47.25 25 45 26.1 45 27.5C45 28.9 47.25 30 50 30C52.75 30 55 28.9 55 27.5C55 26.1 52.75 25 50 25ZM50 55L77.85 43.85C81.4 48.55 83.85 54.2 84.65 60.35C83.15 60.15 81.6 60 80 60C67.25 60 56.1 66.85 50 77.05C46.9037 71.8538 42.5112 67.5506 37.2524 64.5619C31.9936 61.5731 26.0488 60.0012 20 60C18.4 60 16.85 60.15 15.35 60.35C16.15 54.2 18.6 48.55 22.15 43.85L50 55Z" fill="#FBF9FB"/>
    </symbol>

    <symbol id="barcode" viewBox="0 0 100 100" fill="none">
        <path d="M16.6667 24.9997H25V74.9997H16.6667V24.9997ZM29.1667 24.9997H33.3333V74.9997H29.1667V24.9997ZM37.5 24.9997H50V74.9997H37.5V24.9997ZM54.1667 24.9997H58.3333V74.9997H54.1667V24.9997ZM66.6667 24.9997H75V74.9997H66.6667V24.9997ZM79.1667 24.9997H83.3333V74.9997H79.1667V24.9997ZM8.33333 16.6663V33.333H0V16.6663C0 14.4562 0.877974 12.3366 2.44078 10.7738C4.00358 9.21098 6.1232 8.33301 8.33333 8.33301H25V16.6663H8.33333ZM91.6667 8.33301C93.8768 8.33301 95.9964 9.21098 97.5592 10.7738C99.122 12.3366 100 14.4562 100 16.6663V33.333H91.6667V16.6663H75V8.33301H91.6667ZM8.33333 66.6663V83.333H25V91.6663H8.33333C6.1232 91.6663 4.00358 90.7884 2.44078 89.2256C0.877974 87.6628 0 85.5431 0 83.333V66.6663H8.33333ZM91.6667 83.333V66.6663H100V83.333C100 85.5431 99.122 87.6628 97.5592 89.2256C95.9964 90.7884 93.8768 91.6663 91.6667 91.6663H75V83.333H91.6667Z" fill="#FBF9FB"/>
    </symbol>

    <symbol id="newspaper" viewBox="0 0 100 100" fill="none">
        <path d="M85.9199 21.875H81.2676C81.2629 21.875 81.2584 21.8769 81.2551 21.8801C81.2519 21.8834 81.25 21.8879 81.25 21.8926V81.25C81.25 82.9076 81.9085 84.4973 83.0806 85.6694C84.2527 86.8415 85.8424 87.5 87.5 87.5C89.1576 87.5 90.7473 86.8415 91.9194 85.6694C93.0915 84.4973 93.75 82.9076 93.75 81.25V29.7051C93.75 27.6284 92.925 25.6368 91.4566 24.1684C89.9882 22.7 87.9966 21.875 85.9199 21.875Z" fill="#FBF9FB"/>
        <path d="M75 81.25V14.0625C75 13.0365 74.7979 12.0206 74.4053 11.0728C74.0127 10.1249 73.4372 9.26369 72.7118 8.53823C71.9863 7.81277 71.1251 7.23731 70.1772 6.84469C69.2294 6.45208 68.2135 6.25 67.1875 6.25H14.0625C11.9905 6.25 10.0034 7.0731 8.53823 8.53823C7.0731 10.0034 6.25 11.9905 6.25 14.0625V82.8125C6.25 85.7133 7.40234 88.4953 9.45352 90.5465C11.5047 92.5977 14.2867 93.75 17.1875 93.75H84.1504C84.18 93.7503 84.2093 93.7446 84.2366 93.7334C84.264 93.7222 84.2889 93.7057 84.3098 93.6848C84.3307 93.6639 84.3472 93.639 84.3584 93.6116C84.3696 93.5843 84.3753 93.555 84.375 93.5254C84.3749 93.4763 84.3586 93.4286 84.3285 93.3897C84.2985 93.3509 84.2565 93.323 84.209 93.3105C81.5655 92.5854 79.233 91.0128 77.5695 88.8342C75.9059 86.6555 75.0033 83.9911 75 81.25ZM18.75 25C18.75 24.1712 19.0792 23.3763 19.6653 22.7903C20.2513 22.2042 21.0462 21.875 21.875 21.875H34.375C35.2038 21.875 35.9987 22.2042 36.5847 22.7903C37.1708 23.3763 37.5 24.1712 37.5 25V37.5C37.5 38.3288 37.1708 39.1237 36.5847 39.7097C35.9987 40.2958 35.2038 40.625 34.375 40.625H21.875C21.0462 40.625 20.2513 40.2958 19.6653 39.7097C19.0792 39.1237 18.75 38.3288 18.75 37.5V25ZM59.375 78.125H21.9629C20.2812 78.125 18.8379 76.832 18.7539 75.1504C18.7335 74.7279 18.7992 74.3056 18.9468 73.9092C19.0945 73.5128 19.3211 73.1505 19.6129 72.8442C19.9048 72.538 20.2557 72.2942 20.6445 72.1276C21.0334 71.961 21.452 71.875 21.875 71.875H59.2871C60.9687 71.875 62.4121 73.168 62.4961 74.8496C62.5165 75.2721 62.4508 75.6944 62.3032 76.0908C62.1555 76.4872 61.9289 76.8495 61.6371 77.1558C61.3452 77.462 60.9943 77.7058 60.6055 77.8724C60.2166 78.039 59.798 78.125 59.375 78.125ZM59.375 65.625H21.9629C20.2812 65.625 18.8379 64.332 18.7539 62.6504C18.7335 62.2279 18.7992 61.8056 18.9468 61.4092C19.0945 61.0128 19.3211 60.6505 19.6129 60.3442C19.9048 60.038 20.2557 59.7942 20.6445 59.6276C21.0334 59.461 21.452 59.375 21.875 59.375H59.2871C60.9687 59.375 62.4121 60.668 62.4961 62.3496C62.5165 62.7721 62.4508 63.1944 62.3032 63.5908C62.1555 63.9872 61.9289 64.3495 61.6371 64.6558C61.3452 64.962 60.9943 65.2058 60.6055 65.3724C60.2166 65.539 59.798 65.625 59.375 65.625ZM59.375 53.125H21.9629C20.2812 53.125 18.8379 51.832 18.7539 50.1504C18.7335 49.7279 18.7992 49.3056 18.9468 48.9092C19.0945 48.5128 19.3211 48.1505 19.6129 47.8442C19.9048 47.538 20.2557 47.2942 20.6445 47.1276C21.0334 46.961 21.452 46.875 21.875 46.875H59.2871C60.9687 46.875 62.4121 48.168 62.4961 49.8496C62.5165 50.2721 62.4508 50.6944 62.3032 51.0908C62.1555 51.4872 61.9289 51.8495 61.6371 52.1558C61.3452 52.462 60.9943 52.7058 60.6055 52.8724C60.2166 53.039 59.798 53.125 59.375 53.125ZM59.375 40.625H46.9629C45.2812 40.625 43.8379 39.332 43.7539 37.6504C43.7336 37.2279 43.7992 36.8056 43.9468 36.4092C44.0945 36.0128 44.3211 35.6505 44.6129 35.3442C44.9048 35.038 45.2557 34.7942 45.6445 34.6276C46.0334 34.461 46.452 34.375 46.875 34.375H59.2871C60.9687 34.375 62.4121 35.668 62.4961 37.3496C62.5165 37.7721 62.4508 38.1944 62.3032 38.5908C62.1555 38.9872 61.9289 39.3495 61.6371 39.6558C61.3452 39.962 60.9943 40.2058 60.6055 40.3724C60.2166 40.539 59.798 40.625 59.375 40.625ZM59.375 28.125H46.9629C45.2812 28.125 43.8379 26.832 43.7539 25.1504C43.7336 24.7279 43.7992 24.3056 43.9468 23.9092C44.0945 23.5128 44.3211 23.1505 44.6129 22.8442C44.9048 22.538 45.2557 22.2942 45.6445 22.1276C46.0334 21.961 46.452 21.875 46.875 21.875H59.2871C60.9687 21.875 62.4121 23.168 62.4961 24.8496C62.5165 25.2721 62.4508 25.6944 62.3032 26.0908C62.1555 26.4872 61.9289 26.8495 61.6371 27.1558C61.3452 27.462 60.9943 27.7058 60.6055 27.8724C60.2166 28.039 59.798 28.125 59.375 28.125Z" fill="#FBF9FB"/>
    </symbol>

    <symbol id="server" viewBox="0 0 100 100" fill="none" >
        <path d="M50 83.5938C39.7754 83.5938 28.2441 81.3262 19.1543 77.5391C15.8203 76.1348 12.9648 73.8633 10.6309 72.0703C10.5151 71.9818 10.3768 71.9274 10.2318 71.9133C10.0867 71.8992 9.94057 71.926 9.80992 71.9906C9.67927 72.0552 9.56929 72.1551 9.49244 72.2789C9.41558 72.4028 9.3749 72.5456 9.375 72.6914V75.1484C9.375 80.6309 13.9629 85.543 22.293 88.9805C29.7441 92.0566 39.584 93.75 50 93.75C60.416 93.75 70.2539 92.0566 77.707 88.9805C86.0371 85.5469 90.625 80.6309 90.625 75.1484V72.6914C90.6251 72.5456 90.5844 72.4028 90.5076 72.2789C90.4307 72.1551 90.3207 72.0552 90.1901 71.9906C90.0594 71.926 89.9133 71.8992 89.7682 71.9133C89.6232 71.9274 89.4849 71.9818 89.3691 72.0703C87.0352 73.8613 84.1797 76.1348 80.8438 77.5391C71.7539 81.3262 60.2246 83.5938 50 83.5938ZM90.625 24.709C90.4668 19.3086 85.9023 14.4746 77.7344 11.0664C70.2617 7.96094 60.418 6.25 50 6.25C39.582 6.25 29.7383 7.96094 22.2832 11.0664C14.123 14.4668 9.55859 19.291 9.39258 24.6777L9.375 28.125C9.375 29.377 10.3906 31.3438 12.2324 32.9551C14.4063 34.8555 17.6328 36.7305 21.5645 38.3711C29.9297 41.8672 40.5605 43.9453 50 43.9453C59.4395 43.9453 70.0703 41.8594 78.4355 38.3633C82.3672 36.7227 85.5938 34.8477 87.7676 32.9473C89.6094 31.3457 90.625 29.3789 90.625 28.125V24.709Z" fill="#FBF9FB"/>
        <path d="M80.8438 44.1402C71.7559 47.9351 60.2247 50.1949 50 50.1949C39.7754 50.1949 28.2442 47.9351 19.1543 44.1402C15.8204 42.7437 12.9649 40.4703 10.6309 38.6715C10.5146 38.5825 10.3756 38.528 10.2299 38.5142C10.0841 38.5004 9.93736 38.5279 9.80643 38.5934C9.6755 38.659 9.56563 38.76 9.48936 38.885C9.41309 39.01 9.37347 39.154 9.37504 39.3004V45.3121C9.37504 46.564 10.3907 48.1402 12.2325 49.7515C14.4063 51.6539 17.6329 53.5269 21.5645 55.1695C29.9297 58.6597 40.5606 60.7418 50 60.7418C59.4395 60.7418 70.0704 58.6558 78.4356 55.1617C82.3672 53.5191 85.5938 51.6461 87.7676 49.7437C89.6094 48.1383 90.6251 46.564 90.6251 45.3121V39.3004C90.6252 39.1546 90.5845 39.0117 90.5076 38.8879C90.4308 38.764 90.3208 38.6642 90.1901 38.5995C90.0595 38.5349 89.9134 38.5082 89.7683 38.5222C89.6232 38.5363 89.485 38.5907 89.3692 38.6793C87.0352 40.4703 84.1797 42.7437 80.8438 44.1402Z" fill="#FBF9FB"/>
        <path d="M80.8438 60.9371C71.7539 64.7281 60.2246 66.9917 50 66.9917C39.7754 66.9917 28.2442 64.7281 19.1543 60.9371C15.8203 59.5367 12.9649 57.2632 10.6309 55.4683C10.5148 55.3796 10.3762 55.3251 10.2308 55.3112C10.0854 55.2972 9.93896 55.3244 9.80817 55.3894C9.67738 55.4545 9.56746 55.555 9.49089 55.6794C9.41433 55.8038 9.37418 55.9472 9.37501 56.0933V61.9136C9.37501 63.1656 10.3906 64.7398 12.2305 66.3492C14.4043 68.2515 17.6328 70.1246 21.5645 71.7671C29.9297 75.2574 40.5586 77.3433 50 77.3433C59.4414 77.3433 70.0703 75.2574 78.4356 71.7632C82.3672 70.1207 85.5938 68.2476 87.7676 66.3453C89.6094 64.7339 90.625 63.1578 90.625 61.9136V56.0933C90.6251 55.9476 90.5844 55.8047 90.5076 55.6808C90.4307 55.557 90.3208 55.4571 90.1901 55.3925C90.0594 55.3279 89.9133 55.3011 89.7682 55.3152C89.6232 55.3293 89.4849 55.3837 89.3692 55.4722C87.0352 57.2632 84.1797 59.5367 80.8438 60.9371Z" fill="#FBF9FB"/>
    </symbol>


    <symbol id="advantageAlarm" viewBox="0 0 119 120" fill="none">
        <rect x="1" y="1.5" width="117" height="117" rx="16" fill="#FBF9FB"/>
        <path d="M43.9983 37.2594C44.3267 36.9343 44.5843 36.5447 44.7547 36.1152C44.9252 35.6856 45.0047 35.2254 44.9884 34.7636C44.9721 34.3017 44.8603 33.8483 44.6601 33.4318C44.4598 33.0153 44.1754 32.6448 43.8248 32.3438C42.0606 30.8381 39.8192 30.0075 37.4998 30L36.9889 30.0141H36.9139C31.6248 30.3359 27.4998 34.9297 27.5108 40.4688C27.5108 43.4375 28.7608 45.0094 29.7483 46.2672C30.0254 46.6188 30.3727 46.9088 30.7682 47.1187C31.1637 47.3285 31.5986 47.4536 32.0451 47.4859C32.0858 47.4859 32.1545 47.4938 32.3576 47.4938C32.7593 47.4932 33.1567 47.4113 33.5259 47.2532C33.8951 47.095 34.2285 46.8638 34.5061 46.5734L43.9983 37.2594ZM83.092 30.0172L82.5811 30.0016H82.4998C80.1783 30.0076 77.9344 30.8383 76.1686 32.3453C75.8185 32.6464 75.5345 33.0167 75.3346 33.4329C75.1346 33.8491 75.023 34.3022 75.0067 34.7636C74.9904 35.2251 75.0698 35.6849 75.2399 36.1141C75.41 36.5434 75.6672 36.9328 75.9951 37.2578L85.4905 46.5781C85.7686 46.8695 86.103 47.1015 86.4733 47.2599C86.8437 47.4184 87.2423 47.5001 87.6451 47.5C87.8451 47.5 87.9139 47.5 87.9576 47.4922C88.4039 47.4597 88.8385 47.3345 89.2337 47.1246C89.6289 46.9148 89.976 46.6249 90.253 46.2734C91.2467 45.0156 92.4842 43.4484 92.4905 40.475C92.4998 34.9297 88.3748 30.3359 83.092 30.0172Z" fill="#02AB6B"/>
        <path d="M60.0124 35C44.8561 35 32.5124 47.3359 32.5124 62.5C32.507 68.9293 34.7644 75.1555 38.8889 80.0875L33.2452 85.7328C33.0075 85.9637 32.8181 86.2396 32.688 86.5444C32.5579 86.8492 32.4897 87.1768 32.4874 87.5081C32.485 87.8395 32.5486 88.168 32.6743 88.4746C32.8001 88.7812 32.9856 89.0597 33.2199 89.294C33.4543 89.5283 33.7329 89.7136 34.0396 89.8392C34.3462 89.9649 34.6748 90.0283 35.0061 90.0258C35.3375 90.0233 35.6651 89.9549 35.9698 89.8247C36.2745 89.6945 36.5503 89.505 36.7811 89.2672L42.4249 83.6234C47.3595 87.7434 53.5839 90.0002 60.0124 90.0002C66.4408 90.0002 72.6652 87.7434 77.5999 83.6234L83.2452 89.2672C83.476 89.505 83.7518 89.6945 84.0565 89.8247C84.3612 89.9549 84.6888 90.0233 85.0201 90.0258C85.3515 90.0283 85.6801 89.9649 85.9867 89.8392C86.2934 89.7136 86.572 89.5283 86.8063 89.294C87.0407 89.0597 87.2262 88.7812 87.3519 88.4746C87.4777 88.168 87.5412 87.8395 87.5389 87.5081C87.5366 87.1768 87.4683 86.8492 87.3383 86.5444C87.2082 86.2396 87.0188 85.9637 86.7811 85.7328L81.1358 80.0875C85.2611 75.1559 87.5185 68.9295 87.5124 62.5C87.5124 47.3438 75.1764 35 60.0124 35ZM62.5124 62.5C62.5124 63.163 62.249 63.7989 61.7801 64.2678C61.3113 64.7366 60.6754 65 60.0124 65H47.5124C46.8493 65 46.2134 64.7366 45.7446 64.2678C45.2757 63.7989 45.0124 63.163 45.0124 62.5C45.0124 61.837 45.2757 61.2011 45.7446 60.7322C46.2134 60.2634 46.8493 60 47.5124 60H57.5124V45C57.5124 44.337 57.7757 43.7011 58.2446 43.2322C58.7134 42.7634 59.3493 42.5 60.0124 42.5C60.6754 42.5 61.3113 42.7634 61.7801 43.2322C62.249 43.7011 62.5124 44.337 62.5124 45V62.5Z" fill="#02AB6B"/>
        <rect x="1" y="1.5" width="117" height="117" rx="16" stroke="#02AB6B" stroke-width="2" stroke-dasharray="15 15"/>
    </symbol>

    <symbol id="advantageServer" viewBox="0 0 119 119" fill="none">
        <rect x="1" y="1" width="117" height="117" rx="16" fill="#FBF9FB"/>
        <path d="M60 86.375C51.8203 86.375 42.5953 84.5609 35.3234 81.5312C32.6562 80.4078 30.3719 78.5906 28.5047 77.1562C28.4121 77.0854 28.3015 77.0419 28.1854 77.0306C28.0694 77.0194 27.9525 77.0408 27.8479 77.0925C27.7434 77.1442 27.6554 77.2241 27.5939 77.3231C27.5325 77.4222 27.4999 77.5365 27.5 77.6531V79.6188C27.5 84.0047 31.1703 87.9344 37.8344 90.6844C43.7953 93.1453 51.6672 94.5 60 94.5C68.3328 94.5 76.2031 93.1453 82.1656 90.6844C88.8297 87.9375 92.5 84.0047 92.5 79.6188V77.6531C92.5001 77.5365 92.4675 77.4222 92.4061 77.3231C92.3446 77.2241 92.2566 77.1442 92.1521 77.0925C92.0475 77.0408 91.9306 77.0194 91.8146 77.0306C91.6985 77.0419 91.5879 77.0854 91.4953 77.1562C89.6281 78.5891 87.3438 80.4078 84.675 81.5312C77.4031 84.5609 68.1797 86.375 60 86.375ZM92.5 39.2672C92.3734 34.9469 88.7219 31.0797 82.1875 28.3531C76.2094 25.8688 68.3344 24.5 60 24.5C51.6656 24.5 43.7906 25.8688 37.8266 28.3531C31.2984 31.0734 27.6469 34.9328 27.5141 39.2422L27.5 42C27.5 43.0016 28.3125 44.575 29.7859 45.8641C31.525 47.3844 34.1063 48.8844 37.2516 50.1969C43.9438 52.9938 52.4484 54.6562 60 54.6562C67.5516 54.6562 76.0562 52.9875 82.7484 50.1906C85.8937 48.8781 88.475 47.3781 90.2141 45.8578C91.6875 44.5766 92.5 43.0031 92.5 42V39.2672Z" fill="#02AB6B"/>
        <path d="M84.675 54.8122C77.4047 57.8481 68.1797 59.6559 60 59.6559C51.8204 59.6559 42.5954 57.8481 35.3235 54.8122C32.6563 53.695 30.3719 51.8762 28.5047 50.4372C28.4117 50.366 28.3005 50.3224 28.1839 50.3114C28.0673 50.3003 27.9499 50.3223 27.8451 50.3748C27.7404 50.4272 27.6525 50.508 27.5915 50.608C27.5305 50.708 27.4988 50.8232 27.5 50.9403V55.7497C27.5 56.7512 28.3125 58.0122 29.786 59.3012C31.525 60.8231 34.1063 62.3215 37.2516 63.6356C43.9438 66.4278 52.4485 68.0934 60 68.0934C67.5516 68.0934 76.0563 66.4247 82.7485 63.6294C85.8938 62.3153 88.475 60.8169 90.2141 59.295C91.6875 58.0106 92.5 56.7512 92.5 55.7497V50.9403C92.5001 50.8237 92.4676 50.7094 92.4061 50.6103C92.3446 50.5112 92.2566 50.4313 92.1521 50.3796C92.0476 50.3279 91.9307 50.3065 91.8146 50.3178C91.6986 50.3291 91.588 50.3726 91.4954 50.4434C89.6282 51.8762 87.3438 53.695 84.675 54.8122Z" fill="#02AB6B"/>
        <path d="M84.675 68.2497C77.4031 71.2825 68.1797 73.0934 60 73.0934C51.8203 73.0934 42.5953 71.2825 35.3234 68.2497C32.6563 67.1293 30.3719 65.3106 28.5047 63.8747C28.4119 63.8036 28.301 63.7601 28.1846 63.7489C28.0683 63.7378 27.9512 63.7595 27.8465 63.8116C27.7419 63.8636 27.654 63.944 27.5927 64.0435C27.5315 64.1431 27.4993 64.2578 27.5 64.3747V69.0309C27.5 70.0325 28.3125 71.2918 29.7844 72.5793C31.5234 74.1012 34.1063 75.5997 37.2516 76.9137C43.9438 79.7059 52.4469 81.3746 60 81.3746C67.5531 81.3746 76.0563 79.7059 82.7484 76.9106C85.8938 75.5965 88.475 74.0981 90.2141 72.5762C91.6875 71.2871 92.5 70.0262 92.5 69.0309V64.3747C92.5001 64.258 92.4675 64.1437 92.4061 64.0447C92.3446 63.9456 92.2566 63.8657 92.1521 63.814C92.0476 63.7623 91.9307 63.7409 91.8146 63.7522C91.6985 63.7634 91.5879 63.8069 91.4953 63.8778C89.6281 65.3106 87.3438 67.1293 84.675 68.2497Z" fill="#02AB6B"/>
        <rect x="1" y="1" width="117" height="117" rx="16" stroke="#02AB6B" stroke-width="2" stroke-dasharray="15 15"/>
    </symbol>

    <symbol id="advantageChart" viewBox="0 0 119 119" fill="none">
        <rect x="1" y="1" width="117" height="117" rx="16" fill="#FBF9FB"/>
        <path d="M36.25 97H31.25C30.2554 97 29.3016 96.6049 28.5983 95.9016C27.8951 95.1984 27.5 94.2446 27.5 93.25V70.75C27.5 69.7554 27.8951 68.8016 28.5983 68.0984C29.3016 67.3951 30.2554 67 31.25 67H36.25C37.2446 67 38.1984 67.3951 38.9017 68.0984C39.6049 68.8016 40 69.7554 40 70.75V93.25C40 94.2446 39.6049 95.1984 38.9017 95.9016C38.1984 96.6049 37.2446 97 36.25 97ZM71.25 97H66.25C65.2554 97 64.3016 96.6049 63.5984 95.9016C62.8951 95.1984 62.5 94.2446 62.5 93.25V55.75C62.5 54.7554 62.8951 53.8016 63.5984 53.0983C64.3016 52.3951 65.2554 52 66.25 52H71.25C72.2446 52 73.1984 52.3951 73.9016 53.0983C74.6049 53.8016 75 54.7554 75 55.75V93.25C75 94.2446 74.6049 95.1984 73.9016 95.9016C73.1984 96.6049 72.2446 97 71.25 97ZM88.75 97H83.75C82.7554 97 81.8016 96.6049 81.0984 95.9016C80.3951 95.1984 80 94.2446 80 93.25V38.25C80 37.2554 80.3951 36.3016 81.0984 35.5983C81.8016 34.8951 82.7554 34.5 83.75 34.5H88.75C89.7446 34.5 90.6984 34.8951 91.4016 35.5983C92.1049 36.3016 92.5 37.2554 92.5 38.25V93.25C92.5 94.2446 92.1049 95.1984 91.4016 95.9016C90.6984 96.6049 89.7446 97 88.75 97ZM53.75 97H48.75C47.7554 97 46.8016 96.6049 46.0983 95.9016C45.3951 95.1984 45 94.2446 45 93.25V25.75C45 24.7554 45.3951 23.8016 46.0983 23.0983C46.8016 22.3951 47.7554 22 48.75 22H53.75C54.7446 22 55.6984 22.3951 56.4017 23.0983C57.1049 23.8016 57.5 24.7554 57.5 25.75V93.25C57.5 94.2446 57.1049 95.1984 56.4017 95.9016C55.6984 96.6049 54.7446 97 53.75 97Z" fill="#02AB6B"/>
        <rect x="1" y="1" width="117" height="117" rx="16" stroke="#02AB6B" stroke-width="2" stroke-dasharray="15 15"/>
    </symbol>

    <symbol id="advantageCalendar" viewBox="0 0 119 119" fill="none">
        <rect x="1" y="1" width="117" height="117" rx="16" fill="#FBF9FB"/>
        <path d="M95 39.4998C95 36.8476 93.9464 34.3041 92.0711 32.4287C90.1957 30.5533 87.6522 29.4998 85 29.4998H82.5V27.0701C82.5 25.7248 81.4656 24.5701 80.1203 24.5029C79.7823 24.4866 79.4445 24.5391 79.1273 24.6572C78.8102 24.7754 78.5204 24.9567 78.2754 25.1901C78.0304 25.4236 77.8353 25.7043 77.702 26.0154C77.5688 26.3265 77.5 26.6614 77.5 26.9998V29.4998H42.5V27.0701C42.5 25.7248 41.4656 24.5701 40.1203 24.5029C39.7823 24.4866 39.4445 24.5391 39.1273 24.6572C38.8102 24.7754 38.5204 24.9567 38.2754 25.1901C38.0304 25.4236 37.8353 25.7043 37.7021 26.0154C37.5688 26.3265 37.5 26.6614 37.5 26.9998V29.4998H35C32.3478 29.4998 29.8043 30.5533 27.9289 32.4287C26.0536 34.3041 25 36.8476 25 39.4998V41.3748C25 41.5405 25.0658 41.6995 25.1831 41.8167C25.3003 41.9339 25.4592 41.9998 25.625 41.9998H94.375C94.5408 41.9998 94.6997 41.9339 94.8169 41.8167C94.9342 41.6995 95 41.5405 95 41.3748V39.4998ZM25 84.4998C25 87.1519 26.0536 89.6955 27.9289 91.5708C29.8043 93.4462 32.3478 94.4998 35 94.4998H85C87.6522 94.4998 90.1957 93.4462 92.0711 91.5708C93.9464 89.6955 95 87.1519 95 84.4998V47.4685C95 47.3442 94.9506 47.225 94.8627 47.1371C94.7748 47.0492 94.6556 46.9998 94.5312 46.9998H25.4688C25.3444 46.9998 25.2252 47.0492 25.1373 47.1371C25.0494 47.225 25 47.3442 25 47.4685V84.4998ZM78.75 51.9998C79.4917 51.9998 80.2167 52.2197 80.8334 52.6318C81.4501 53.0438 81.9307 53.6295 82.2145 54.3147C82.4984 54.9999 82.5726 55.7539 82.4279 56.4814C82.2832 57.2088 81.9261 57.877 81.4016 58.4014C80.8772 58.9259 80.209 59.283 79.4816 59.4277C78.7542 59.5724 78.0002 59.4981 77.3149 59.2143C76.6297 58.9305 76.044 58.4498 75.632 57.8332C75.2199 57.2165 75 56.4915 75 55.7498C75 54.7552 75.3951 53.8014 76.0984 53.0981C76.8016 52.3949 77.7554 51.9998 78.75 51.9998ZM78.75 64.4998C79.4917 64.4998 80.2167 64.7197 80.8334 65.1318C81.4501 65.5438 81.9307 66.1295 82.2145 66.8147C82.4984 67.4999 82.5726 68.2539 82.4279 68.9814C82.2832 69.7088 81.9261 70.377 81.4016 70.9014C80.8772 71.4259 80.209 71.783 79.4816 71.9277C78.7542 72.0724 78.0002 71.9981 77.3149 71.7143C76.6297 71.4305 76.044 70.9498 75.632 70.3332C75.2199 69.7165 75 68.9915 75 68.2498C75 67.2552 75.3951 66.3014 76.0984 65.5981C76.8016 64.8949 77.7554 64.4998 78.75 64.4998ZM66.25 51.9998C66.9917 51.9998 67.7167 52.2197 68.3334 52.6318C68.9501 53.0438 69.4307 53.6295 69.7145 54.3147C69.9984 54.9999 70.0726 55.7539 69.9279 56.4814C69.7832 57.2088 69.4261 57.877 68.9016 58.4014C68.3772 58.9259 67.709 59.283 66.9816 59.4277C66.2542 59.5724 65.5002 59.4981 64.8149 59.2143C64.1297 58.9305 63.544 58.4498 63.132 57.8332C62.7199 57.2165 62.5 56.4915 62.5 55.7498C62.5 54.7552 62.8951 53.8014 63.5984 53.0981C64.3016 52.3949 65.2554 51.9998 66.25 51.9998ZM66.25 64.4998C66.9917 64.4998 67.7167 64.7197 68.3334 65.1318C68.9501 65.5438 69.4307 66.1295 69.7145 66.8147C69.9984 67.4999 70.0726 68.2539 69.9279 68.9814C69.7832 69.7088 69.4261 70.377 68.9016 70.9014C68.3772 71.4259 67.709 71.783 66.9816 71.9277C66.2542 72.0724 65.5002 71.9981 64.8149 71.7143C64.1297 71.4305 63.544 70.9498 63.132 70.3332C62.7199 69.7165 62.5 68.9915 62.5 68.2498C62.5 67.2552 62.8951 66.3014 63.5984 65.5981C64.3016 64.8949 65.2554 64.4998 66.25 64.4998ZM66.25 76.9998C66.9917 76.9998 67.7167 77.2197 68.3334 77.6318C68.9501 78.0438 69.4307 78.6295 69.7145 79.3147C69.9984 79.9999 70.0726 80.7539 69.9279 81.4814C69.7832 82.2088 69.4261 82.877 68.9016 83.4014C68.3772 83.9259 67.709 84.283 66.9816 84.4277C66.2542 84.5724 65.5002 84.4981 64.8149 84.2143C64.1297 83.9305 63.544 83.4498 63.132 82.8332C62.7199 82.2165 62.5 81.4915 62.5 80.7498C62.5 79.7552 62.8951 78.8014 63.5984 78.0981C64.3016 77.3949 65.2554 76.9998 66.25 76.9998ZM53.75 64.4998C54.4917 64.4998 55.2167 64.7197 55.8334 65.1318C56.4501 65.5438 56.9307 66.1295 57.2146 66.8147C57.4984 67.4999 57.5726 68.2539 57.4279 68.9814C57.2832 69.7088 56.9261 70.377 56.4017 70.9014C55.8772 71.4259 55.209 71.783 54.4816 71.9277C53.7542 72.0724 53.0002 71.9981 52.3149 71.7143C51.6297 71.4305 51.044 70.9498 50.632 70.3332C50.2199 69.7165 50 68.9915 50 68.2498C50 67.2552 50.3951 66.3014 51.0983 65.5981C51.8016 64.8949 52.7554 64.4998 53.75 64.4998ZM53.75 76.9998C54.4917 76.9998 55.2167 77.2197 55.8334 77.6318C56.4501 78.0438 56.9307 78.6295 57.2146 79.3147C57.4984 79.9999 57.5726 80.7539 57.4279 81.4814C57.2832 82.2088 56.9261 82.877 56.4017 83.4014C55.8772 83.9259 55.209 84.283 54.4816 84.4277C53.7542 84.5724 53.0002 84.4981 52.3149 84.2143C51.6297 83.9305 51.044 83.4498 50.632 82.8332C50.2199 82.2165 50 81.4915 50 80.7498C50 79.7552 50.3951 78.8014 51.0983 78.0981C51.8016 77.3949 52.7554 76.9998 53.75 76.9998ZM41.25 64.4998C41.9917 64.4998 42.7167 64.7197 43.3334 65.1318C43.9501 65.5438 44.4307 66.1295 44.7145 66.8147C44.9984 67.4999 45.0726 68.2539 44.9279 68.9814C44.7833 69.7088 44.4261 70.377 43.9017 70.9014C43.3772 71.4259 42.709 71.783 41.9816 71.9277C41.2542 72.0724 40.5002 71.9981 39.8149 71.7143C39.1297 71.4305 38.544 70.9498 38.132 70.3332C37.7199 69.7165 37.5 68.9915 37.5 68.2498C37.5 67.2552 37.8951 66.3014 38.5983 65.5981C39.3016 64.8949 40.2554 64.4998 41.25 64.4998ZM41.25 76.9998C41.9917 76.9998 42.7167 77.2197 43.3334 77.6318C43.9501 78.0438 44.4307 78.6295 44.7145 79.3147C44.9984 79.9999 45.0726 80.7539 44.9279 81.4814C44.7833 82.2088 44.4261 82.877 43.9017 83.4014C43.3772 83.9259 42.709 84.283 41.9816 84.4277C41.2542 84.5724 40.5002 84.4981 39.8149 84.2143C39.1297 83.9305 38.544 83.4498 38.132 82.8332C37.7199 82.2165 37.5 81.4915 37.5 80.7498C37.5 79.7552 37.8951 78.8014 38.5983 78.0981C39.3016 77.3949 40.2554 76.9998 41.25 76.9998Z" fill="#02AB6B"/>
        <rect x="1" y="1" width="117" height="117" rx="16" stroke="#02AB6B" stroke-width="2" stroke-dasharray="15 15"/>
    </symbol>

    <symbol id="advantageCart" viewBox="0 0 119 120" fill="none">
        <rect x="1" y="1.5" width="117" height="117" rx="16" fill="#FBF9FB"/>
        <path d="M47.5 90C50.2614 90 52.5 87.7614 52.5 85C52.5 82.2386 50.2614 80 47.5 80C44.7386 80 42.5 82.2386 42.5 85C42.5 87.7614 44.7386 90 47.5 90Z" fill="#02AB6B"/>
        <path d="M82.5 90C85.2614 90 87.5 87.7614 87.5 85C87.5 82.2386 85.2614 80 82.5 80C79.7386 80 77.5 82.2386 77.5 85C77.5 87.7614 79.7386 90 82.5 90Z" fill="#02AB6B"/>
        <path d="M91.375 38.8719C91.0238 38.4423 90.5813 38.0963 90.0797 37.859C89.5781 37.6217 89.0299 37.499 88.475 37.5H40.9203L39.9625 32.0656C39.8604 31.4868 39.5575 30.9624 39.1072 30.5846C38.6569 30.2069 38.0878 29.9999 37.5 30H27.5C26.837 30 26.2011 30.2634 25.7322 30.7322C25.2634 31.2011 25 31.837 25 32.5C25 33.163 25.2634 33.7989 25.7322 34.2678C26.2011 34.7366 26.837 35 27.5 35H35.4031L42.5375 75.4344C42.6396 76.0132 42.9425 76.5376 43.3928 76.9154C43.8431 77.2931 44.4122 77.5001 45 77.5H85C85.663 77.5 86.2989 77.2366 86.7678 76.7678C87.2366 76.2989 87.5 75.663 87.5 75C87.5 74.337 87.2366 73.7011 86.7678 73.2322C86.2989 72.7634 85.663 72.5 85 72.5H47.0969L46.2156 67.5H83.975C84.842 67.4989 85.682 67.1983 86.3528 66.649C87.0236 66.0998 87.4841 65.3357 87.6562 64.4859L92.1562 41.9859C92.2647 41.4414 92.2508 40.8796 92.1157 40.3411C91.9806 39.8025 91.7276 39.3007 91.375 38.8719Z" fill="#02AB6B"/>
        <rect x="1" y="1.5" width="117" height="117" rx="16" stroke="#02AB6B" stroke-width="2" stroke-dasharray="15 15"/>
    </symbol>


    <symbol id="advantageTrending" viewBox="0 0 119 119" fill="none">
        <rect x="1" y="1" width="117" height="117" rx="16" fill="#FBF9FB"/>
        <path d="M75 77H92.5V59.5" stroke="#02AB6B" stroke-width="5" stroke-linecap="round" stroke-linejoin="round"/>
        <path d="M27.5 42L46.4641 60.9641C46.9284 61.4285 47.4796 61.7969 48.0863 62.0482C48.693 62.2996 49.3433 62.4289 50 62.4289C50.6567 62.4289 51.307 62.2996 51.9137 62.0482C52.5204 61.7969 53.0716 61.4285 53.5359 60.9641L61.4641 53.0359C61.9284 52.5715 62.4796 52.2031 63.0863 51.9518C63.693 51.7004 64.3433 51.5711 65 51.5711C65.6567 51.5711 66.307 51.7004 66.9137 51.9518C67.5204 52.2031 68.0716 52.5715 68.5359 53.0359L90 74.5" stroke="#02AB6B" stroke-width="5" stroke-linecap="round" stroke-linejoin="round"/>
        <rect x="1" y="1" width="117" height="117" rx="16" stroke="#02AB6B" stroke-width="2" stroke-dasharray="15 15"/>
    </symbol>

    <symbol id="advantageSmile" viewBox="0 0 119 119" fill="none">
        <rect x="1" y="1" width="117" height="117" rx="16" fill="#FBF9FB"/>
        <path d="M50 72.834C52.8333 74.934 56.2833 76.1673 60 76.1673C63.7167 76.1673 67.1667 74.934 70 72.834" stroke="#02AB6B" stroke-width="4" stroke-linecap="round"/>
        <path d="M73.3337 54.5C73.3337 57.26 71.8403 59.5 70.0003 59.5C68.1603 59.5 66.667 57.26 66.667 54.5C66.667 51.74 68.1603 49.5 70.0003 49.5C71.8403 49.5 73.3337 51.74 73.3337 54.5Z" fill="#02AB6B"/>
        <path d="M50.0003 59.5C51.8413 59.5 53.3337 57.2614 53.3337 54.5C53.3337 51.7386 51.8413 49.5 50.0003 49.5C48.1594 49.5 46.667 51.7386 46.667 54.5C46.667 57.2614 48.1594 59.5 50.0003 59.5Z" fill="#02AB6B"/>
        <path d="M43.3337 30.627C48.3987 27.6967 54.1487 26.158 60.0003 26.167C78.4103 26.167 93.3337 41.0904 93.3337 59.5004C93.3337 77.9104 78.4103 92.8337 60.0003 92.8337C41.5903 92.8337 26.667 77.9104 26.667 59.5004C26.667 53.4304 28.2903 47.7337 31.127 42.8337" stroke="#02AB6B" stroke-width="4" stroke-linecap="round"/>
        <rect x="1" y="1" width="117" height="117" rx="16" stroke="#02AB6B" stroke-width="2" stroke-dasharray="15 15"/>
    </symbol>

    <symbol id="advantagePercent" viewBox="0 0 119 119" fill="none">
        <rect x="1" y="1" width="117" height="117" rx="16" fill="#FBF9FB"/>
        <path d="M44.9488 59.5003C41.549 59.5003 38.7631 58.2973 36.5911 55.8914C34.419 53.4383 33.333 50.4662 33.333 46.9752V46.8337C33.333 43.2483 34.419 40.2527 36.5911 37.8467C38.8104 35.3936 41.6435 34.167 45.0904 34.167C48.5374 34.167 51.3233 35.3936 53.4481 37.8467C55.6202 40.2527 56.7062 43.2011 56.7062 46.6921V46.8337C56.7062 50.3247 55.5965 53.3203 53.3773 55.8206C51.2052 58.2738 48.3957 59.5003 44.9488 59.5003ZM44.9488 39.6158C43.3433 39.6158 42.0448 40.2998 41.0532 41.6679C40.1089 42.9888 39.6367 44.6636 39.6367 46.6921V46.8337C39.6367 48.8622 40.1561 50.5841 41.1949 51.9994C42.2337 53.3675 43.5322 54.0515 45.0904 54.0515C46.6959 54.0515 47.9708 53.3911 48.9151 52.0702C49.9067 50.7021 50.4025 49.0037 50.4025 46.9752V46.8337C50.4025 44.8051 49.8831 43.1068 48.8443 41.7387C47.8055 40.3234 46.507 39.6158 44.9488 39.6158ZM57.8394 57.9435L74.6256 34.7331H81.6376L62.0891 61.1279L45.3737 84.2676H38.3618L57.8394 57.9435ZM74.9089 84.8337C71.5092 84.8337 68.7233 83.6307 66.5512 81.2247C64.3792 78.7716 63.2932 75.7995 63.2932 72.3085V72.167C63.2932 68.5816 64.3792 65.586 66.5512 63.18C68.7705 60.7269 71.6036 59.5003 75.0506 59.5003C78.4503 59.5003 81.2362 60.7269 83.4083 63.18C85.5803 65.586 86.6663 68.5345 86.6663 72.0255V72.167C86.6663 75.658 85.5567 78.6536 83.3374 81.154C81.1654 83.6071 78.3559 84.8337 74.9089 84.8337ZM75.0506 79.3849C76.656 79.3849 77.9309 78.7244 78.8753 77.4035C79.8669 76.0354 80.3627 74.3371 80.3627 72.3085V72.167C80.3627 70.1384 79.8433 68.4401 78.8045 67.072C77.7656 65.6567 76.4671 64.9491 74.9089 64.9491C73.3035 64.9491 72.005 65.6332 71.0134 67.0013C70.069 68.3222 69.5968 69.9969 69.5968 72.0255V72.167C69.5968 74.1955 70.1162 75.9175 71.155 77.3327C72.1939 78.7008 73.4924 79.3849 75.0506 79.3849Z" fill="#02AB6B"/>
        <rect x="1" y="1" width="117" height="117" rx="16" stroke="#02AB6B" stroke-width="2" stroke-dasharray="15 15"/>
    </symbol>

    <symbol id="telegram" viewBox="0 0 31 30" fill="none" >
        <path d="M15.5 2.5C8.6 2.5 3 8.1 3 15C3 21.9 8.6 27.5 15.5 27.5C22.4 27.5 28 21.9 28 15C28 8.1 22.4 2.5 15.5 2.5ZM21.3 11C21.1125 12.975 20.3 17.775 19.8875 19.9875C19.7125 20.925 19.3625 21.2375 19.0375 21.275C18.3125 21.3375 17.7625 20.8 17.0625 20.3375C15.9625 19.6125 15.3375 19.1625 14.275 18.4625C13.0375 17.65 13.8375 17.2 14.55 16.475C14.7375 16.2875 17.9375 13.375 18 13.1125C18.0087 13.0727 18.0075 13.0315 17.9966 12.9923C17.9857 12.953 17.9654 12.9171 17.9375 12.8875C17.8625 12.825 17.7625 12.85 17.675 12.8625C17.5625 12.8875 15.8125 14.05 12.4 16.35C11.9 16.6875 11.45 16.8625 11.05 16.85C10.6 16.8375 9.75 16.6 9.1125 16.3875C8.325 16.1375 7.7125 16 7.7625 15.5625C7.7875 15.3375 8.1 15.1125 8.6875 14.875C12.3375 13.2875 14.7625 12.2375 15.975 11.7375C19.45 10.2875 20.1625 10.0375 20.6375 10.0375C20.7375 10.0375 20.975 10.0625 21.125 10.1875C21.25 10.2875 21.2875 10.425 21.3 10.525C21.2875 10.6 21.3125 10.825 21.3 11Z" fill="#190F19"/>
    </symbol>

    <symbol id="viber" viewBox="0 0 31 30" fill="none">
        <path fill-rule="evenodd" clip-rule="evenodd" d="M21.3452 3.285C17.4124 2.4059 13.3341 2.4059 9.40141 3.285L8.97766 3.37875C7.87143 3.62607 6.85542 4.17523 6.0425 4.9652C5.22957 5.75518 4.65155 6.75505 4.37266 7.85375C3.37578 11.7819 3.37578 15.8968 4.37266 19.825C4.63863 20.8728 5.17692 21.8317 5.93295 22.6044C6.68898 23.3771 7.63589 23.9362 8.67766 24.225L9.25891 27.695C9.27746 27.8052 9.32522 27.9084 9.3972 27.9938C9.46918 28.0793 9.56276 28.1439 9.66819 28.1809C9.77362 28.2179 9.88704 28.226 9.99665 28.2043C10.1063 28.1826 10.208 28.1319 10.2914 28.0575L13.7052 25.0037C16.2678 25.1601 18.8396 24.9552 21.3452 24.395L21.7702 24.3012C22.8764 24.0539 23.8924 23.5048 24.7053 22.7148C25.5183 21.9248 26.0963 20.9249 26.3752 19.8262C27.3719 15.8981 27.3719 11.7832 26.3752 7.855C26.0962 6.75614 25.518 5.75616 24.7048 4.96617C23.8916 4.17618 22.8754 3.62712 21.7689 3.38L21.3452 3.285ZM10.4564 7.7525C10.2241 7.71868 9.9872 7.76544 9.78516 7.885H9.76766C9.29891 8.16 8.87641 8.50625 8.51641 8.91375C8.21641 9.26 8.05391 9.61 8.01141 9.9475C7.98641 10.1475 8.00391 10.35 8.06266 10.5412L8.08516 10.5537C8.42266 11.545 8.86266 12.4987 9.40016 13.3962C10.0932 14.6569 10.9461 15.8227 11.9377 16.865L11.9677 16.9075L12.0152 16.9425L12.0439 16.9762L12.0789 17.0062C13.1248 18.0008 14.2934 18.8577 15.5564 19.5562C17.0002 20.3425 17.8764 20.7137 18.4027 20.8687V20.8762C18.5564 20.9237 18.6964 20.945 18.8377 20.945C19.2858 20.9119 19.71 20.7297 20.0427 20.4275C20.4489 20.0675 20.7927 19.6437 21.0602 19.1725V19.1637C21.3114 18.6887 21.2264 18.2412 20.8639 17.9375C20.1358 17.3013 19.3484 16.7362 18.5127 16.25C17.9527 15.9462 17.3839 16.13 17.1539 16.4375L16.6627 17.0575C16.4102 17.365 15.9527 17.3225 15.9527 17.3225L15.9402 17.33C12.5264 16.4587 11.6152 13.0025 11.6152 13.0025C11.6152 13.0025 11.5727 12.5325 11.8889 12.2925L12.5039 11.7975C12.7989 11.5575 13.0039 10.99 12.6877 10.43C12.2047 9.59345 11.6407 8.80634 11.0039 8.08C10.865 7.90905 10.6702 7.79263 10.4539 7.75125L10.4564 7.7525ZM16.2239 6.25C16.0581 6.25 15.8992 6.31584 15.782 6.43305C15.6648 6.55026 15.5989 6.70924 15.5989 6.875C15.5989 7.04076 15.6648 7.19973 15.782 7.31694C15.8992 7.43415 16.0581 7.5 16.2239 7.5C17.8052 7.5 19.1177 8.01625 20.1564 9.00625C20.6902 9.5475 21.1064 10.1887 21.3789 10.8912C21.6527 11.595 21.7777 12.3462 21.7452 13.0987C21.7417 13.1808 21.7545 13.2628 21.7827 13.3399C21.8109 13.4171 21.8541 13.4879 21.9097 13.5484C22.0219 13.6705 22.1781 13.743 22.3439 13.75C22.5097 13.757 22.6714 13.6978 22.7935 13.5855C22.9157 13.4732 22.9882 13.317 22.9952 13.1512C23.0339 12.2256 22.8803 11.302 22.5439 10.4387C22.2061 9.57141 21.6938 8.78264 21.0389 8.12125L21.0264 8.10875C19.7377 6.8775 18.1064 6.25 16.2239 6.25ZM16.1814 8.305C16.0156 8.305 15.8567 8.37084 15.7395 8.48805C15.6223 8.60526 15.5564 8.76424 15.5564 8.93C15.5564 9.09576 15.6223 9.25473 15.7395 9.37194C15.8567 9.48915 16.0156 9.555 16.1814 9.555H16.2027C17.3427 9.63625 18.1727 10.0162 18.7539 10.64C19.3502 11.2825 19.6589 12.0812 19.6352 13.0687C19.6313 13.2345 19.6935 13.395 19.8081 13.5149C19.9226 13.6348 20.08 13.7043 20.2458 13.7081C20.4115 13.7119 20.572 13.6497 20.6919 13.5352C20.8118 13.4207 20.8813 13.2633 20.8852 13.0975C20.9152 11.8012 20.4977 10.6825 19.6702 9.79V9.7875C18.8239 8.88 17.6627 8.4 16.2652 8.30625L16.2439 8.30375L16.1814 8.305ZM16.1577 10.3987C16.074 10.3914 15.9897 10.4009 15.9099 10.4268C15.83 10.4527 15.7562 10.4945 15.6928 10.5495C15.6294 10.6046 15.5778 10.6719 15.541 10.7474C15.5042 10.8228 15.4829 10.905 15.4786 10.9888C15.4742 11.0727 15.4868 11.1565 15.5155 11.2354C15.5443 11.3143 15.5887 11.3866 15.646 11.448C15.7033 11.5093 15.7724 11.5585 15.8491 11.5926C15.9259 11.6266 16.0087 11.6449 16.0927 11.6462C16.6152 11.6737 16.9489 11.8312 17.1589 12.0425C17.3702 12.255 17.5277 12.5962 17.5564 13.13C17.558 13.2139 17.5764 13.2966 17.6106 13.3732C17.6448 13.4498 17.6941 13.5187 17.7555 13.5759C17.8169 13.633 17.8892 13.6772 17.968 13.7059C18.0469 13.7345 18.1307 13.7469 18.2144 13.7425C18.2982 13.738 18.3802 13.7168 18.4556 13.68C18.531 13.6431 18.5982 13.5915 18.6532 13.5282C18.7082 13.4648 18.7499 13.3911 18.7758 13.3113C18.8017 13.2315 18.8112 13.1473 18.8039 13.0637C18.7639 12.3137 18.5289 11.6512 18.0477 11.1637C17.5639 10.6762 16.9052 10.4387 16.1577 10.3987Z" fill="#190F19"/>
    </symbol>

    <symbol id="phone" viewBox="0 0 60 60" fill="none">
        <path d="M45.8205 56.25C43.533 56.25 40.3197 55.4227 35.508 52.7344C29.6569 49.4531 25.1311 46.4238 19.3115 40.6195C13.7006 35.0121 10.9701 31.3817 7.14865 24.4277C2.83146 16.5762 3.5674 12.4606 4.39005 10.7016C5.36974 8.59923 6.81584 7.34181 8.68498 6.09376C9.74664 5.39818 10.8701 4.80191 12.0412 4.31251C12.1584 4.26212 12.2674 4.21407 12.3647 4.17071C12.9447 3.90939 13.8236 3.51446 14.9369 3.93634C15.6799 4.21525 16.3432 4.78595 17.3815 5.81134C19.5108 7.91134 22.4205 12.5883 23.494 14.8852C24.2147 16.4332 24.6916 17.4551 24.6928 18.6012C24.6928 19.943 24.0178 20.9777 23.1987 22.0945C23.0451 22.3043 22.8928 22.5047 22.7451 22.6992C21.8533 23.8711 21.6576 24.2098 21.7865 24.8145C22.0479 26.0297 23.9967 29.6473 27.1994 32.843C30.4022 36.0387 33.9154 37.8645 35.1354 38.1246C35.7658 38.2594 36.1115 38.0555 37.3209 37.132C37.4944 36.9996 37.6725 36.8625 37.8588 36.7254C39.108 35.7961 40.0947 35.1387 41.4049 35.1387H41.4119C42.5522 35.1387 43.5283 35.6332 45.1455 36.4488C47.2549 37.5129 52.0725 40.3852 54.1854 42.5168C55.2131 43.5527 55.7862 44.2137 56.0662 44.9555C56.4881 46.0723 56.0908 46.9477 55.8319 47.5336C55.7885 47.6309 55.7404 47.7375 55.6901 47.8559C55.1968 49.0249 54.597 50.146 53.8983 51.2051C52.6526 53.0684 51.3904 54.5109 49.2834 55.4918C48.2015 56.0036 47.0174 56.2628 45.8205 56.25Z" fill="#FBF9FB"/>
    </symbol>


</svg>


