<svg width="750" height="570" viewBox="0 0 750 570" fill="none" xmlns="http://www.w3.org/2000/svg">
<path opacity="0.3" d="M375 297.5V120M375 297.5L569.5 237.453M375 297.5L491 450.5M375 297.5L180 237.453M375 297.5L263 450.5" stroke="#FBF9FB" stroke-linejoin="round" stroke-dasharray="8 8"/>
<rect x="325" y="20" width="100" height="100" rx="16" fill="#FBF9FB"/>
<path d="M381.475 67.5H390V62.5H385.8C386.85 60.85 387.5 59.2 387.5 57.5C387.5 50.925 381.25 47.5 375 47.5C369.125 47.5 363.825 52.65 363.225 53.225L366.775 56.775C367.975 55.575 371.775 52.5 375 52.5C377.6 52.5 382.5 53.55 382.5 57.5C382.5 58.75 381.25 60.6 379.4 62.5H360V67.5H374.075C373.025 68.4 369.375 71.675 368.525 72.5H360V77.5H364.2C363.15 79.15 362.5 80.8 362.5 82.5C362.5 89.075 368.75 92.5 375 92.5C380.875 92.5 386.175 87.35 386.775 86.775L383.225 83.225C382.05 84.425 378.225 87.5 375 87.5C372.4 87.5 367.5 86.45 367.5 82.5C367.5 81.25 368.75 79.4 370.6 77.5H390V72.5H375.95L381.475 67.5Z" fill="#190F19"/>
<rect x="80" y="186" width="100" height="100" rx="16" fill="#FBF9FB"/>
<path d="M105.375 216.795C104.997 216.795 104.618 216.798 104.24 216.802C103.865 216.815 103.482 216.835 103.11 216.902C102.547 216.991 102.013 217.213 101.553 217.548C101.092 217.884 100.717 218.324 100.46 218.832C100.285 219.177 100.175 219.527 100.11 219.907C100.04 220.277 100.018 220.657 100.01 221.032C100.005 221.207 100.002 221.381 100 221.555V250.447C100 250.622 100.005 250.792 100.008 250.965C100.018 251.34 100.04 251.722 100.108 252.095C100.175 252.47 100.287 252.822 100.463 253.167C100.807 253.846 101.359 254.398 102.037 254.742C102.382 254.917 102.733 255.03 103.112 255.097C103.483 255.165 103.863 255.187 104.238 255.197L104.758 255.205H155.243L155.76 255.197C156.135 255.187 156.518 255.165 156.89 255.097C157.265 255.03 157.618 254.92 157.96 254.745C158.64 254.401 159.193 253.848 159.538 253.167C159.713 252.822 159.825 252.472 159.89 252.092C159.957 251.722 159.98 251.342 159.99 250.967C159.995 250.792 159.998 250.622 159.998 250.447L160 249.832V221.552C160 221.377 159.995 221.207 159.99 221.035C159.985 220.656 159.952 220.279 159.89 219.905C159.77 219.152 159.416 218.456 158.877 217.917C158.338 217.378 157.643 217.023 156.89 216.902C156.516 216.841 156.139 216.807 155.76 216.802C155.383 216.792 155.005 216.789 154.627 216.795H105.375ZM105.375 218.075H155.23C155.395 218.075 155.557 218.08 155.722 218.082C156.01 218.092 156.347 218.107 156.66 218.162C156.932 218.212 157.16 218.287 157.378 218.397C157.816 218.62 158.172 218.976 158.395 219.415C158.51 219.642 158.589 219.884 158.63 220.135C158.685 220.442 158.7 220.78 158.708 221.07C158.712 221.232 158.715 221.395 158.715 221.562V250.442C158.715 250.605 158.715 250.767 158.708 250.932C158.7 251.22 158.685 251.557 158.628 251.87C158.573 252.238 158.432 252.587 158.214 252.889C157.996 253.19 157.71 253.435 157.378 253.602C157.152 253.716 156.911 253.796 156.663 253.837C156.354 253.887 156.042 253.913 155.73 253.917L155.23 253.925H104.765C104.6 253.925 104.432 253.92 104.275 253.917C103.961 253.913 103.648 253.887 103.338 253.837C103.065 253.787 102.838 253.712 102.618 253.602C102.179 253.381 101.823 253.024 101.602 252.585C101.488 252.358 101.409 252.115 101.367 251.865C101.318 251.557 101.291 251.245 101.287 250.932C101.284 250.768 101.282 250.604 101.283 250.44V221.56C101.283 221.397 101.282 221.232 101.287 221.067C101.298 220.782 101.312 220.447 101.367 220.13C101.418 219.86 101.492 219.632 101.602 219.412C101.825 218.975 102.182 218.619 102.62 218.397C102.846 218.284 103.088 218.205 103.338 218.162C103.65 218.107 103.988 218.09 104.275 218.082C104.438 218.077 104.602 218.077 104.765 218.075H105.375ZM117.15 227.325C116.4 227.365 115.48 227.822 114.95 228.465C114.472 229.015 114.05 229.915 114.16 230.76C115.005 230.835 115.847 230.337 116.38 229.715C116.892 229.07 117.243 228.207 117.15 227.327V227.325ZM122.668 228.375V242.107H124.797V237.415H127.747C130.442 237.415 132.335 235.567 132.335 232.885C132.335 230.21 130.48 228.372 127.815 228.372L122.668 228.375ZM124.797 230.172H127.253C129.1 230.172 130.155 231.162 130.155 232.895C130.155 234.625 129.1 235.625 127.245 235.625H124.797V230.172ZM116.913 230.922C115.787 230.947 114.838 231.622 114.288 231.622C113.7 231.622 112.805 230.962 111.835 230.98C111.204 230.996 110.588 231.176 110.049 231.504C109.509 231.832 109.065 232.295 108.76 232.847C107.442 235.117 108.413 238.485 109.695 240.335C110.318 241.25 111.068 242.257 112.055 242.22C112.988 242.185 113.355 241.615 114.488 241.615C115.623 241.615 115.953 242.22 116.938 242.202C117.962 242.185 118.605 241.287 119.225 240.37C119.94 239.327 120.233 238.32 120.25 238.267C120.233 238.247 118.275 237.497 118.257 235.245C118.237 233.36 119.795 232.462 119.868 232.407C118.987 231.107 117.618 230.962 117.142 230.925C117.066 230.92 116.989 230.921 116.913 230.922ZM137.423 231.915C134.947 231.915 133.408 233.247 133.292 235.055H135.235C135.415 234.16 136.158 233.59 137.347 233.59C138.603 233.59 139.355 234.255 139.355 235.367V236.14L136.613 236.3C134.235 236.435 132.892 237.51 132.892 239.26C132.892 241.06 134.263 242.277 136.222 242.277C137.538 242.277 138.803 241.575 139.382 240.46H139.43V242.107H141.4V235.207C141.4 233.2 139.85 231.915 137.423 231.915ZM142.272 232.095L145.887 242.117C145.887 242.125 145.705 242.717 145.705 242.735C145.392 243.76 144.88 244.162 143.927 244.162C143.755 244.162 143.413 244.162 143.26 244.125V245.79C143.41 245.817 143.928 245.837 144.097 245.837C146.173 245.837 147.163 245.057 148.018 242.63L151.768 232.095H149.598L147.067 240.242H147.03L144.497 232.092L142.272 232.095ZM139.355 237.567V238.357C139.355 239.66 138.23 240.65 136.795 240.65C135.69 240.65 134.968 240.08 134.968 239.202C134.968 238.347 135.662 237.802 136.89 237.72L139.355 237.567Z" fill="#190F19"/>
<rect x="570" y="186" width="100" height="100" rx="16" fill="#FBF9FB"/>
<path d="M599.907 224.088C598.071 224.088 596.27 224.598 594.707 225.562C593.144 226.527 591.879 227.906 591.055 229.548C590.361 230.928 590 232.451 590 233.996C590 235.541 590.361 237.065 591.055 238.445C591.879 240.086 593.144 241.466 594.707 242.43C596.27 243.394 598.071 243.905 599.907 243.905C602.582 243.905 604.832 243.025 606.475 241.513C608.345 239.788 609.425 237.238 609.425 234.223C609.424 233.547 609.366 232.873 609.25 232.208H599.91V236.023H605.26C605.151 236.632 604.92 237.213 604.581 237.731C604.241 238.248 603.8 238.692 603.285 239.035C602.395 239.638 601.25 239.983 599.91 239.983C597.325 239.983 595.132 238.24 594.347 235.893C593.933 234.662 593.933 233.33 594.347 232.1C595.132 229.75 597.325 228.01 599.91 228.01C601.322 227.987 602.687 228.52 603.71 229.495L606.54 226.67C604.747 224.985 602.368 224.059 599.907 224.088ZM616.16 225.463V242.713H618.375V235.725H622.037C623.545 235.725 624.812 235.235 625.842 234.255C626.355 233.795 626.763 233.23 627.037 232.599C627.311 231.967 627.445 231.283 627.43 230.595C627.44 229.91 627.304 229.231 627.03 228.603C626.756 227.975 626.351 227.413 625.842 226.955C625.338 226.467 624.743 226.083 624.09 225.827C623.436 225.57 622.739 225.446 622.037 225.46L616.16 225.463ZM622.227 227.588C622.614 227.594 622.995 227.679 623.349 227.835C623.702 227.992 624.02 228.218 624.285 228.5C624.567 228.774 624.791 229.102 624.943 229.464C625.096 229.826 625.175 230.215 625.175 230.608C625.175 231 625.096 231.389 624.943 231.751C624.791 232.113 624.567 232.441 624.285 232.715C624.002 233.008 623.661 233.239 623.283 233.393C622.905 233.546 622.5 233.62 622.092 233.608H618.375V227.588H622.092C622.137 227.586 622.182 227.586 622.227 227.588ZM632.537 230.525C630.432 230.525 628.845 231.295 627.77 232.838L629.722 234.065C630.442 233.023 631.422 232.5 632.66 232.5C633.45 232.49 634.214 232.779 634.8 233.308C635.089 233.546 635.32 233.846 635.479 234.186C635.637 234.525 635.718 234.896 635.715 235.27V235.775C634.865 235.293 633.78 235.053 632.465 235.053C630.922 235.053 629.69 235.415 628.767 236.138C627.842 236.858 627.382 237.83 627.382 239.05C627.372 239.599 627.485 240.143 627.712 240.643C627.939 241.143 628.275 241.586 628.695 241.94C629.57 242.71 630.657 243.098 631.957 243.098C633.482 243.098 634.702 242.423 635.62 241.073H635.715V242.71H637.835V235.438C637.835 233.913 637.36 232.713 636.415 231.838C635.465 230.963 634.175 230.525 632.537 230.525ZM638.195 230.91L643.06 241.965L640.315 247.915H642.602L650 230.908H647.587L644.167 239.385H644.117L640.602 230.91H638.195ZM632.83 236.83C634.065 236.83 635.03 237.105 635.72 237.655C635.72 238.585 635.352 239.395 634.62 240.088C633.959 240.749 633.063 241.121 632.127 241.123C631.503 241.134 630.893 240.929 630.402 240.543C630.174 240.377 629.989 240.16 629.861 239.909C629.734 239.657 629.668 239.379 629.67 239.098C629.67 238.455 629.97 237.923 630.577 237.48C631.177 237.048 631.93 236.83 632.83 236.83Z" fill="#190F19"/>
<rect x="210" y="450" width="100" height="100" rx="16" fill="#FBF9FB"/>
<path d="M273.612 491.553C272.216 491.048 270.742 490.794 269.257 490.801C264.463 490.801 261.074 493.223 261.054 496.69C261.014 499.238 263.456 500.675 265.301 501.533C267.196 502.413 267.83 502.96 267.821 503.74C267.811 504.942 266.306 505.478 264.92 505.478C262.994 505.478 261.95 505.216 260.339 504.541L259.741 504.258L259.059 508.263C260.231 508.741 262.331 509.161 264.498 509.2C269.606 509.2 272.936 506.798 272.973 503.095C273.013 501.065 271.706 499.523 268.921 498.252C267.241 497.433 266.189 496.874 266.189 496.034C266.189 495.292 267.088 494.512 268.963 494.512C270.207 494.48 271.444 494.71 272.594 495.185L273.054 495.389L273.727 491.532L273.612 491.553ZM286.076 491.133H282.326C281.154 491.133 280.284 491.446 279.766 492.608L272.559 508.945H277.657L278.684 506.27L284.904 506.279C285.059 506.903 285.498 508.943 285.498 508.943H290L286.076 491.133ZM254.15 490.987H259.004L255.967 508.807H251.113L254.15 490.977V490.987ZM241.807 500.8L242.304 503.281L247.059 491.133H252.206L244.548 508.915H239.424L235.224 493.857C235.192 493.732 235.134 493.615 235.055 493.513C234.976 493.411 234.877 493.325 234.764 493.263C233.256 492.478 231.655 491.884 230 491.495L230.058 491.122H237.89C238.946 491.161 239.804 491.495 240.097 492.627L241.807 500.81V500.8ZM280.068 502.627L282.013 497.637C281.982 497.684 282.412 496.612 282.656 495.937L282.987 497.468L284.113 502.615H280.068V502.627Z" fill="#190F19"/>
<rect x="440" y="450" width="100" height="100" rx="16" fill="#FBF9FB"/>
<path d="M490.003 486.635C492.028 488.223 493.664 490.252 494.788 492.567C495.913 494.881 496.496 497.421 496.493 499.995C496.495 502.568 495.912 505.108 494.787 507.423C493.662 509.738 492.026 511.766 490.001 513.355C487.977 511.766 486.341 509.737 485.216 507.423C484.092 505.108 483.509 502.568 483.511 499.995C483.509 497.421 484.092 494.881 485.216 492.567C486.341 490.252 487.977 488.223 490.001 486.635H490.003ZM487.828 485.18C485.686 487.009 483.967 489.281 482.789 491.84C481.611 494.399 481.003 497.183 481.006 500C481.003 502.815 481.611 505.598 482.789 508.156C483.966 510.714 485.685 512.986 487.826 514.815C485.239 516.267 482.318 517.016 479.352 516.989C476.386 516.962 473.478 516.159 470.919 514.66C468.359 513.162 466.236 511.019 464.761 508.445C463.287 505.872 462.511 502.957 462.512 499.991C462.512 497.024 463.29 494.11 464.766 491.537C466.242 488.964 468.366 486.823 470.926 485.325C473.486 483.828 476.394 483.026 479.36 483.001C482.326 482.975 485.248 483.726 487.833 485.18H487.828ZM492.183 514.815C494.324 512.986 496.043 510.714 497.221 508.156C498.398 505.598 499.006 502.815 499.003 500C499.006 497.183 498.398 494.398 497.219 491.84C496.041 489.281 494.321 487.009 492.178 485.18C494.764 483.726 497.685 482.975 500.651 483.001C503.618 483.026 506.525 483.828 509.086 485.325C511.646 486.823 513.77 488.964 515.246 491.537C516.722 494.11 517.499 497.024 517.5 499.991C517.501 502.957 516.725 505.872 515.25 508.445C513.776 511.019 511.653 513.162 509.093 514.66C506.534 516.159 503.626 516.962 500.66 516.989C497.694 517.016 494.77 516.267 492.183 514.815Z" fill="#190F19"/>
</svg>
