<svg width="750" height="570" viewBox="0 0 750 570" fill="none" xmlns="http://www.w3.org/2000/svg">
<path opacity="0.3" d="M63.5 85.5L286 254.5M63.5 85.5L207.5 128.5M63.5 85.5L302 32M63.5 85.5L136.5 357.5M63.5 85.5H662M286 254.5L80.5 508.5M286 254.5L493.5 135.5M286 254.5L431.5 354M286 254.5L207.5 128.5M286 254.5L136.5 357.5M286 254.5L381 456M286 254.5H461.5M80.5 508.5L381 456M80.5 508.5L431.5 354M80.5 508.5L136.5 357.5M381 456L686.5 529M381 456L431.5 354M381 456L136.5 357.5M493.5 135.5L611 211M493.5 135.5L662 85.5M493.5 135.5L207.5 128.5M493.5 135.5L302 32M493.5 135.5L461.5 254.5M611 211L662 85.5M611 211L431.5 354M611 211L461.5 254.5M611 211L686.5 529M662 85.5L302 32M431.5 354L686.5 529M431.5 354L461.5 254.5M686.5 529L461.5 254.5M207.5 128.5L302 32M207.5 128.5L136.5 357.5M207.5 128.5L461.5 254.5" stroke="#FBF9FB" stroke-linecap="round" stroke-linejoin="round"/>
<rect x="13" y="50" width="184" height="67" rx="8" fill="#FBF9FB"/>
<path d="M39.4287 72.8567C39.4287 69.2996 33.0001 60.7139 33.0001 60.7139C33.0001 60.7139 26.5715 69.2996 26.5715 72.8567C26.5715 74.5617 27.2488 76.1968 28.4544 77.4024C29.66 78.608 31.2951 79.2853 33.0001 79.2853C34.7051 79.2853 36.3402 78.608 37.5458 77.4024C38.7514 76.1968 39.4287 74.5617 39.4287 72.8567Z" fill="#190F19"/>
<path d="M52.774 75.64C51.3087 75.64 49.9927 75.1173 48.826 74.072L49.302 73.526C49.8527 74.0393 50.3987 74.4127 50.94 74.646C51.4813 74.87 52.1067 74.982 52.816 74.982C53.544 74.982 54.1367 74.8 54.594 74.436C55.0607 74.0627 55.294 73.596 55.294 73.036V73.008C55.294 72.4667 55.098 72.0373 54.706 71.72C54.3233 71.4027 53.5953 71.1367 52.522 70.922C51.3367 70.6793 50.4873 70.348 49.974 69.928C49.47 69.4987 49.218 68.9107 49.218 68.164V68.136C49.218 67.408 49.5167 66.7967 50.114 66.302C50.7113 65.8073 51.4627 65.56 52.368 65.56C53.0587 65.56 53.6607 65.658 54.174 65.854C54.6967 66.0407 55.2147 66.3393 55.728 66.75L55.266 67.324C54.398 66.5867 53.4227 66.218 52.34 66.218C51.6307 66.218 51.052 66.4 50.604 66.764C50.1653 67.1187 49.946 67.5527 49.946 68.066V68.094C49.946 68.6447 50.142 69.0833 50.534 69.41C50.9353 69.7273 51.6913 70.0027 52.802 70.236C53.9407 70.4693 54.762 70.8007 55.266 71.23C55.77 71.65 56.022 72.2193 56.022 72.938V72.966C56.022 73.75 55.7187 74.394 55.112 74.898C54.5053 75.3927 53.726 75.64 52.774 75.64ZM61.062 74.744L63.638 68.36H64.394L61.3 75.752C60.992 76.48 60.6467 76.998 60.264 77.306C59.8907 77.6233 59.4427 77.782 58.92 77.782C58.4533 77.782 57.982 77.6793 57.506 77.474L57.744 76.872C58.108 77.0493 58.514 77.138 58.962 77.138C59.3447 77.138 59.6667 77.012 59.928 76.76C60.1987 76.508 60.4647 76.074 60.726 75.458L57.296 68.36H58.094L61.062 74.744ZM68.319 75.64C67.2364 75.64 66.261 75.2947 65.393 74.604L65.799 74.058C66.611 74.6833 67.465 74.996 68.361 74.996C68.8557 74.996 69.2664 74.8747 69.593 74.632C69.9197 74.38 70.083 74.0487 70.083 73.638V73.61C70.083 73.4047 70.0364 73.2273 69.943 73.078C69.8497 72.9287 69.7004 72.798 69.495 72.686C69.2897 72.574 69.0984 72.4853 68.921 72.42C68.7437 72.3547 68.501 72.2753 68.193 72.182C67.857 72.0887 67.6144 72.0187 67.465 71.972C67.325 71.9253 67.115 71.8413 66.835 71.72C66.5644 71.5987 66.3684 71.482 66.247 71.37C66.1257 71.2487 66.009 71.09 65.897 70.894C65.7944 70.698 65.743 70.474 65.743 70.222V70.194C65.743 69.6153 65.9624 69.144 66.401 68.78C66.8397 68.4067 67.4044 68.22 68.095 68.22C69.019 68.22 69.8637 68.4813 70.629 69.004L70.265 69.578C69.5464 69.102 68.8137 68.864 68.067 68.864C67.5817 68.864 67.1897 68.9807 66.891 69.214C66.5924 69.4473 66.443 69.746 66.443 70.11V70.138C66.443 70.3247 66.4897 70.4927 66.583 70.642C66.6857 70.782 66.849 70.908 67.073 71.02C67.3064 71.132 67.5024 71.2207 67.661 71.286C67.829 71.342 68.0857 71.4213 68.431 71.524C68.795 71.6267 69.0844 71.7247 69.299 71.818C69.523 71.902 69.761 72.0233 70.013 72.182C70.2744 72.3313 70.4657 72.518 70.587 72.742C70.7177 72.966 70.783 73.2273 70.783 73.526V73.554C70.783 74.1793 70.5497 74.6833 70.083 75.066C69.6164 75.4487 69.0284 75.64 68.319 75.64ZM75.2113 75.626C74.614 75.626 74.1286 75.4627 73.7553 75.136C73.3913 74.8093 73.2093 74.3193 73.2093 73.666V68.99H72.1733V68.36H73.2093V66.078H73.8953V68.36H76.4013V68.99H73.8953V73.596C73.8953 74.52 74.3713 74.982 75.3233 74.982C75.65 74.982 76 74.898 76.3733 74.73V75.374C76 75.542 75.6126 75.626 75.2113 75.626ZM80.6068 75.668C79.8788 75.668 79.2348 75.472 78.6748 75.08C78.1241 74.6787 77.8488 74.128 77.8488 73.428V73.4C77.8488 72.6627 78.1334 72.0933 78.7028 71.692C79.2721 71.2813 80.0281 71.076 80.9708 71.076C81.7734 71.076 82.5621 71.1787 83.3368 71.384V71.076C83.3368 70.3573 83.1314 69.816 82.7208 69.452C82.3101 69.0787 81.7314 68.892 80.9848 68.892C80.2381 68.892 79.4914 69.0833 78.7448 69.466L78.4928 68.864C79.3421 68.4533 80.1868 68.248 81.0268 68.248C82.0068 68.248 82.7581 68.5093 83.2808 69.032C83.7661 69.5173 84.0088 70.1893 84.0088 71.048V75.5H83.3368V74.31C82.6741 75.2153 81.7641 75.668 80.6068 75.668ZM80.6488 75.024C81.3954 75.024 82.0301 74.8187 82.5528 74.408C83.0848 73.988 83.3508 73.4607 83.3508 72.826V72.014C82.5108 71.7993 81.7034 71.692 80.9288 71.692C80.1821 71.692 79.6034 71.8413 79.1928 72.14C78.7821 72.4387 78.5768 72.8447 78.5768 73.358V73.386C78.5768 73.8807 78.7774 74.2773 79.1788 74.576C79.5894 74.8747 80.0794 75.024 80.6488 75.024ZM86.4758 75.5V68.36H87.1618V69.69C87.7405 68.6913 88.5992 68.192 89.7378 68.192C90.6245 68.192 91.3198 68.4627 91.8238 69.004C92.3372 69.5453 92.5938 70.2547 92.5938 71.132V75.5H91.9078V71.258C91.9078 70.5113 91.7072 69.9187 91.3058 69.48C90.9138 69.0413 90.3585 68.822 89.6398 68.822C88.9305 68.822 88.3378 69.06 87.8618 69.536C87.3952 70.012 87.1618 70.6233 87.1618 71.37V75.5H86.4758ZM98.0718 75.668C97.1104 75.668 96.2844 75.3227 95.5938 74.632C94.9124 73.932 94.5718 73.036 94.5718 71.944V71.916C94.5718 70.88 94.8938 70.0027 95.5378 69.284C96.1911 68.556 96.9984 68.192 97.9598 68.192C98.9398 68.192 99.7284 68.5467 100.326 69.256C100.932 69.9653 101.236 70.8567 101.236 71.93C101.236 72.042 101.231 72.1353 101.222 72.21H95.2998C95.3558 73.0687 95.6544 73.7547 96.1958 74.268C96.7371 74.772 97.3718 75.024 98.0998 75.024C99.0238 75.024 99.8404 74.6507 100.55 73.904L101.026 74.324C100.195 75.22 99.2104 75.668 98.0718 75.668ZM95.2998 71.594H100.494C100.428 70.81 100.176 70.152 99.7378 69.62C99.3084 69.088 98.7064 68.822 97.9318 68.822C97.2318 68.822 96.6298 69.088 96.1258 69.62C95.6311 70.1427 95.3558 70.8007 95.2998 71.594Z" fill="#190F19"/>
<path d="M31.5108 97.9167H33.5V96.75H32.52C32.765 96.365 32.9167 95.98 32.9167 95.5833C32.9167 94.0492 31.4583 93.25 30 93.25C28.6292 93.25 27.3925 94.4517 27.2525 94.5858L28.0808 95.4142C28.3608 95.1342 29.2475 94.4167 30 94.4167C30.6067 94.4167 31.75 94.6617 31.75 95.5833C31.75 95.875 31.4583 96.3067 31.0267 96.75H26.5V97.9167H29.7842C29.5392 98.1267 28.6875 98.8908 28.4892 99.0833H26.5V100.25H27.48C27.235 100.635 27.0833 101.02 27.0833 101.417C27.0833 102.951 28.5417 103.75 30 103.75C31.3708 103.75 32.6075 102.548 32.7475 102.414L31.9192 101.586C31.645 101.866 30.7525 102.583 30 102.583C29.3933 102.583 28.25 102.338 28.25 101.417C28.25 101.125 28.5417 100.693 28.9733 100.25H33.5V99.0833H30.2217L31.5108 97.9167Z" fill="#190F19"/>
<path d="M42.672 104V103.454L46.326 100.15C47.1287 99.422 47.6887 98.8107 48.006 98.316C48.3327 97.8213 48.496 97.3173 48.496 96.804C48.496 96.1787 48.2767 95.6747 47.838 95.292C47.4087 94.9 46.8907 94.704 46.284 94.704C45.6867 94.704 45.1687 94.8533 44.73 95.152C44.2913 95.4413 43.8527 95.8987 43.414 96.524L42.868 96.16C43.3347 95.46 43.8293 94.9373 44.352 94.592C44.884 94.2373 45.5513 94.06 46.354 94.06C47.1847 94.06 47.8753 94.3167 48.426 94.83C48.986 95.3433 49.266 95.9827 49.266 96.748V96.776C49.266 97.42 49.084 98.008 48.72 98.54C48.3653 99.0627 47.7307 99.744 46.816 100.584L43.82 103.3H49.364V104H42.672ZM54.8918 104.168C53.8838 104.168 53.0531 103.841 52.3998 103.188C51.9611 102.749 51.6438 102.245 51.4478 101.676C51.2518 101.107 51.1538 100.337 51.1538 99.366V99.338C51.1538 97.826 51.5178 96.566 52.2458 95.558C52.9831 94.5407 53.9491 94.032 55.1438 94.032C56.1238 94.032 57.0665 94.41 57.9718 95.166L57.5098 95.726C56.7165 95.0353 55.9091 94.69 55.0878 94.69C54.1171 94.69 53.3378 95.1427 52.7498 96.048C52.1711 96.944 51.8818 98.092 51.8818 99.492V99.772C52.5911 98.5587 53.6131 97.952 54.9478 97.952C55.8625 97.952 56.6511 98.2367 57.3138 98.806C57.9858 99.366 58.3218 100.071 58.3218 100.92V100.948C58.3218 101.872 57.9905 102.642 57.3278 103.258C56.6745 103.865 55.8625 104.168 54.8918 104.168ZM54.9478 103.51C55.7131 103.51 56.3385 103.267 56.8238 102.782C57.3185 102.287 57.5658 101.685 57.5658 100.976V100.948C57.5658 100.276 57.3138 99.716 56.8098 99.268C56.3151 98.82 55.6805 98.596 54.9058 98.596C54.1311 98.596 53.4825 98.8433 52.9598 99.338C52.4371 99.8327 52.1758 100.393 52.1758 101.018V101.046C52.1758 101.746 52.4371 102.334 52.9598 102.81C53.4918 103.277 54.1545 103.51 54.9478 103.51ZM63.2195 103.51C64.1808 103.51 64.9602 103.067 65.5575 102.18C66.1642 101.284 66.4675 100.173 66.4675 98.848V98.47C65.7582 99.7207 64.7408 100.346 63.4155 100.346C62.4355 100.346 61.6235 100.061 60.9795 99.492C60.3448 98.9133 60.0275 98.1993 60.0275 97.35V97.322C60.0275 96.398 60.3495 95.6187 60.9935 94.984C61.6375 94.3493 62.4635 94.032 63.4715 94.032C64.4702 94.032 65.3008 94.3633 65.9635 95.026C66.7848 95.8473 67.1955 97.1213 67.1955 98.848V98.876C67.1955 100.407 66.8175 101.671 66.0615 102.67C65.3055 103.669 64.3535 104.168 63.2055 104.168C62.2162 104.168 61.2315 103.762 60.2515 102.95L60.7135 102.39C61.5628 103.137 62.3982 103.51 63.2195 103.51ZM63.4435 99.702C64.2462 99.702 64.8995 99.45 65.4035 98.946C65.9168 98.442 66.1735 97.8633 66.1735 97.21V97.182C66.1735 96.482 65.9075 95.894 65.3755 95.418C64.8528 94.9327 64.1902 94.69 63.3875 94.69C62.6128 94.69 61.9828 94.9467 61.4975 95.46C61.0215 95.9733 60.7835 96.5847 60.7835 97.294V97.322C60.7835 98.0127 61.0308 98.582 61.5255 99.03C62.0295 99.478 62.6688 99.702 63.4435 99.702ZM69.0972 104V102.81H70.0212V104H69.0972ZM75.8583 104.168C74.645 104.168 73.665 103.678 72.9183 102.698C72.181 101.718 71.8123 100.528 71.8123 99.128V99.1C71.8123 98.1947 71.9757 97.3593 72.3023 96.594C72.629 95.8287 73.105 95.2127 73.7303 94.746C74.365 94.27 75.0837 94.032 75.8863 94.032C77.0997 94.032 78.075 94.522 78.8123 95.502C79.559 96.482 79.9323 97.672 79.9323 99.072V99.1C79.9323 100.005 79.769 100.841 79.4423 101.606C79.1157 102.371 78.635 102.992 78.0003 103.468C77.375 103.935 76.661 104.168 75.8583 104.168ZM75.8863 103.51C76.857 103.51 77.6457 103.076 78.2523 102.208C78.8683 101.34 79.1763 100.313 79.1763 99.128V99.1C79.1763 97.9053 78.8683 96.874 78.2523 96.006C77.6363 95.1287 76.8383 94.69 75.8583 94.69C74.8877 94.69 74.0943 95.124 73.4783 95.992C72.8717 96.86 72.5683 97.8867 72.5683 99.072V99.1C72.5683 100.285 72.8763 101.317 73.4923 102.194C74.1083 103.071 74.9063 103.51 75.8863 103.51ZM85.7978 104.168C84.5845 104.168 83.6045 103.678 82.8578 102.698C82.1205 101.718 81.7518 100.528 81.7518 99.128V99.1C81.7518 98.1947 81.9151 97.3593 82.2418 96.594C82.5685 95.8287 83.0445 95.2127 83.6698 94.746C84.3045 94.27 85.0231 94.032 85.8258 94.032C87.0391 94.032 88.0145 94.522 88.7518 95.502C89.4985 96.482 89.8718 97.672 89.8718 99.072V99.1C89.8718 100.005 89.7085 100.841 89.3818 101.606C89.0551 102.371 88.5745 102.992 87.9398 103.468C87.3145 103.935 86.6005 104.168 85.7978 104.168ZM85.8258 103.51C86.7965 103.51 87.5851 103.076 88.1918 102.208C88.8078 101.34 89.1158 100.313 89.1158 99.128V99.1C89.1158 97.9053 88.8078 96.874 88.1918 96.006C87.5758 95.1287 86.7778 94.69 85.7978 94.69C84.8271 94.69 84.0338 95.124 83.4178 95.992C82.8111 96.86 82.5078 97.8867 82.5078 99.072V99.1C82.5078 100.285 82.8158 101.317 83.4318 102.194C84.0478 103.071 84.8458 103.51 85.8258 103.51Z" fill="#190F19"/>
<path d="M141.969 94.5625L138.031 98.5L141.969 102.438" stroke="#190F19" stroke-linecap="round" stroke-linejoin="round"/>
<g clip-path="url(#clip0_54_1280)">
<rect x="152" y="90.5" width="16" height="16" rx="4" fill="#F6EEF7"/>
<path d="M160.104 101.5V95.641L158.889 96.055L158.763 95.686L160.203 95.155H160.563V101.5H160.104Z" fill="#190F19"/>
</g>
<path d="M178.031 94.5625L181.969 98.5L178.031 102.438" stroke="#190F19" stroke-linecap="round" stroke-linejoin="round"/>
<rect x="197" y="226" width="143" height="67" rx="8" fill="#FBF9FB"/>
<path d="M223.429 248.857C223.429 245.3 217 236.714 217 236.714C217 236.714 210.572 245.3 210.572 248.857C210.572 250.562 211.249 252.197 212.454 253.402C213.66 254.608 215.295 255.285 217 255.285C218.705 255.285 220.34 254.608 221.546 253.402C222.751 252.197 223.429 250.562 223.429 248.857Z" fill="#190F19"/>
<path d="M232.952 251.5V251.094L239.658 242.358H233.19V241.7H240.694V242.106L233.988 250.842H240.694V251.5H232.952ZM245.746 250.744L248.322 244.36H249.078L245.984 251.752C245.676 252.48 245.33 252.998 244.948 253.306C244.574 253.623 244.126 253.782 243.604 253.782C243.137 253.782 242.666 253.679 242.19 253.474L242.428 252.872C242.792 253.049 243.198 253.138 243.646 253.138C244.028 253.138 244.35 253.012 244.612 252.76C244.882 252.508 245.148 252.074 245.41 251.458L241.98 244.36H242.778L245.746 250.744ZM250.966 251.5V244.36H251.652V245.634C252.231 244.673 253.024 244.192 254.032 244.192C255.133 244.192 255.936 244.705 256.44 245.732C257.037 244.705 257.896 244.192 259.016 244.192C259.856 244.192 260.523 244.463 261.018 245.004C261.513 245.545 261.76 246.269 261.76 247.174V251.5H261.074V247.258C261.074 246.483 260.887 245.886 260.514 245.466C260.141 245.037 259.623 244.822 258.96 244.822C258.325 244.822 257.789 245.051 257.35 245.508C256.921 245.956 256.706 246.567 256.706 247.342V251.5H256.02V247.216C256.02 246.469 255.833 245.886 255.46 245.466C255.087 245.037 254.578 244.822 253.934 244.822C253.29 244.822 252.749 245.069 252.31 245.564C251.871 246.059 251.652 246.665 251.652 247.384V251.5H250.966ZM266.398 251.668C265.67 251.668 265.026 251.472 264.466 251.08C263.915 250.679 263.64 250.128 263.64 249.428V249.4C263.64 248.663 263.924 248.093 264.494 247.692C265.063 247.281 265.819 247.076 266.762 247.076C267.564 247.076 268.353 247.179 269.128 247.384V247.076C269.128 246.357 268.922 245.816 268.512 245.452C268.101 245.079 267.522 244.892 266.776 244.892C266.029 244.892 265.282 245.083 264.536 245.466L264.284 244.864C265.133 244.453 265.978 244.248 266.818 244.248C267.798 244.248 268.549 244.509 269.072 245.032C269.557 245.517 269.8 246.189 269.8 247.048V251.5H269.128V250.31C268.465 251.215 267.555 251.668 266.398 251.668ZM266.44 251.024C267.186 251.024 267.821 250.819 268.344 250.408C268.876 249.988 269.142 249.461 269.142 248.826V248.014C268.302 247.799 267.494 247.692 266.72 247.692C265.973 247.692 265.394 247.841 264.984 248.14C264.573 248.439 264.368 248.845 264.368 249.358V249.386C264.368 249.881 264.568 250.277 264.97 250.576C265.38 250.875 265.87 251.024 266.44 251.024ZM272.267 251.5V244.36H272.953V246.39C273.252 245.727 273.676 245.2 274.227 244.808C274.787 244.416 275.417 244.229 276.117 244.248V245.004H276.047C275.179 245.004 274.446 245.321 273.849 245.956C273.252 246.591 272.953 247.463 272.953 248.574V251.5H272.267Z" fill="#190F19"/>
<path d="M215.511 273.917H217.5V272.75H216.52C216.765 272.365 216.917 271.98 216.917 271.583C216.917 270.049 215.458 269.25 214 269.25C212.629 269.25 211.392 270.452 211.252 270.586L212.081 271.414C212.361 271.134 213.247 270.417 214 270.417C214.607 270.417 215.75 270.662 215.75 271.583C215.75 271.875 215.458 272.307 215.027 272.75H210.5V273.917H213.784C213.539 274.127 212.687 274.891 212.489 275.083H210.5V276.25H211.48C211.235 276.635 211.083 277.02 211.083 277.417C211.083 278.951 212.542 279.75 214 279.75C215.371 279.75 216.607 278.548 216.747 278.414L215.919 277.586C215.645 277.866 214.753 278.583 214 278.583C213.393 278.583 212.25 278.338 212.25 277.417C212.25 277.125 212.542 276.693 212.973 276.25H217.5V275.083H214.222L215.511 273.917Z" fill="#190F19"/>
<path d="M233 279.37C232.309 279.883 231.446 280.14 230.41 280.14C229.374 280.14 228.506 279.883 227.806 279.37C227.115 278.847 226.77 278.185 226.77 277.382V277.354C226.77 276.803 226.971 276.318 227.372 275.898C227.773 275.469 228.296 275.147 228.94 274.932C228.408 274.736 227.969 274.442 227.624 274.05C227.279 273.658 227.106 273.191 227.106 272.65V272.622C227.106 271.894 227.437 271.287 228.1 270.802C228.772 270.307 229.542 270.06 230.41 270.06C231.278 270.06 232.043 270.307 232.706 270.802C233.378 271.287 233.714 271.894 233.714 272.622V272.65C233.714 273.191 233.541 273.658 233.196 274.05C232.851 274.442 232.412 274.736 231.88 274.932C232.524 275.147 233.047 275.469 233.448 275.898C233.849 276.318 234.05 276.803 234.05 277.354V277.382C234.05 278.185 233.7 278.847 233 279.37ZM228.604 274.106C229.099 274.479 229.701 274.666 230.41 274.666C231.119 274.666 231.721 274.479 232.216 274.106C232.711 273.723 232.958 273.238 232.958 272.65V272.622C232.958 272.071 232.711 271.619 232.216 271.264C231.731 270.9 231.129 270.718 230.41 270.718C229.691 270.718 229.085 270.9 228.59 271.264C228.105 271.619 227.862 272.071 227.862 272.622V272.65C227.862 273.238 228.109 273.723 228.604 274.106ZM228.31 278.88C228.833 279.281 229.533 279.482 230.41 279.482C231.287 279.482 231.987 279.281 232.51 278.88C233.033 278.479 233.294 277.989 233.294 277.41V277.382C233.294 276.775 233.014 276.276 232.454 275.884C231.903 275.483 231.222 275.282 230.41 275.282C229.598 275.282 228.912 275.483 228.352 275.884C227.801 276.276 227.526 276.775 227.526 277.382V277.41C227.526 277.989 227.787 278.479 228.31 278.88ZM239.774 280.168C238.561 280.168 237.581 279.678 236.834 278.698C236.097 277.718 235.728 276.528 235.728 275.128V275.1C235.728 274.195 235.892 273.359 236.218 272.594C236.545 271.829 237.021 271.213 237.646 270.746C238.281 270.27 239 270.032 239.802 270.032C241.016 270.032 241.991 270.522 242.728 271.502C243.475 272.482 243.848 273.672 243.848 275.072V275.1C243.848 276.005 243.685 276.841 243.358 277.606C243.032 278.371 242.551 278.992 241.916 279.468C241.291 279.935 240.577 280.168 239.774 280.168ZM239.802 279.51C240.773 279.51 241.562 279.076 242.168 278.208C242.784 277.34 243.092 276.313 243.092 275.128V275.1C243.092 273.905 242.784 272.874 242.168 272.006C241.552 271.129 240.754 270.69 239.774 270.69C238.804 270.69 238.01 271.124 237.394 271.992C236.788 272.86 236.484 273.887 236.484 275.072V275.1C236.484 276.285 236.792 277.317 237.408 278.194C238.024 279.071 238.822 279.51 239.802 279.51ZM245.293 280V279.454L248.947 276.15C249.75 275.422 250.31 274.811 250.627 274.316C250.954 273.821 251.117 273.317 251.117 272.804C251.117 272.179 250.898 271.675 250.459 271.292C250.03 270.9 249.512 270.704 248.905 270.704C248.308 270.704 247.79 270.853 247.351 271.152C246.912 271.441 246.474 271.899 246.035 272.524L245.489 272.16C245.956 271.46 246.45 270.937 246.973 270.592C247.505 270.237 248.172 270.06 248.975 270.06C249.806 270.06 250.496 270.317 251.047 270.83C251.607 271.343 251.887 271.983 251.887 272.748V272.776C251.887 273.42 251.705 274.008 251.341 274.54C250.986 275.063 250.352 275.744 249.437 276.584L246.441 279.3H251.985V280H245.293ZM254.027 280V278.81H254.951V280H254.027ZM260.788 280.168C259.575 280.168 258.595 279.678 257.848 278.698C257.111 277.718 256.742 276.528 256.742 275.128V275.1C256.742 274.195 256.905 273.359 257.232 272.594C257.559 271.829 258.035 271.213 258.66 270.746C259.295 270.27 260.013 270.032 260.816 270.032C262.029 270.032 263.005 270.522 263.742 271.502C264.489 272.482 264.862 273.672 264.862 275.072V275.1C264.862 276.005 264.699 276.841 264.372 277.606C264.045 278.371 263.565 278.992 262.93 279.468C262.305 279.935 261.591 280.168 260.788 280.168ZM260.816 279.51C261.787 279.51 262.575 279.076 263.182 278.208C263.798 277.34 264.106 276.313 264.106 275.128V275.1C264.106 273.905 263.798 272.874 263.182 272.006C262.566 271.129 261.768 270.69 260.788 270.69C259.817 270.69 259.024 271.124 258.408 271.992C257.801 272.86 257.498 273.887 257.498 275.072V275.1C257.498 276.285 257.806 277.317 258.422 278.194C259.038 279.071 259.836 279.51 260.816 279.51ZM270.727 280.168C269.514 280.168 268.534 279.678 267.787 278.698C267.05 277.718 266.681 276.528 266.681 275.128V275.1C266.681 274.195 266.845 273.359 267.171 272.594C267.498 271.829 267.974 271.213 268.599 270.746C269.234 270.27 269.953 270.032 270.755 270.032C271.969 270.032 272.944 270.522 273.681 271.502C274.428 272.482 274.801 273.672 274.801 275.072V275.1C274.801 276.005 274.638 276.841 274.311 277.606C273.985 278.371 273.504 278.992 272.869 279.468C272.244 279.935 271.53 280.168 270.727 280.168ZM270.755 279.51C271.726 279.51 272.515 279.076 273.121 278.208C273.737 277.34 274.045 276.313 274.045 275.128V275.1C274.045 273.905 273.737 272.874 273.121 272.006C272.505 271.129 271.707 270.69 270.727 270.69C269.757 270.69 268.963 271.124 268.347 271.992C267.741 272.86 267.437 273.887 267.437 275.072V275.1C267.437 276.285 267.745 277.317 268.361 278.194C268.977 279.071 269.775 279.51 270.755 279.51Z" fill="#190F19"/>
<path d="M284.969 270.562L281.031 274.5L284.969 278.438" stroke="#190F19" stroke-linecap="round" stroke-linejoin="round"/>
<g clip-path="url(#clip1_54_1280)">
<rect x="295" y="266.5" width="16" height="16" rx="4" fill="#F6EEF7"/>
<path d="M303.104 277.5V271.641L301.889 272.055L301.763 271.686L303.203 271.155H303.563V277.5H303.104Z" fill="#190F19"/>
</g>
<path d="M321.031 270.562L324.969 274.5L321.031 278.438" stroke="#190F19" stroke-linecap="round" stroke-linejoin="round"/>
<rect x="275" y="428" width="130" height="67" rx="8" fill="#FBF9FB"/>
<path d="M301.429 450.857C301.429 447.3 295 438.714 295 438.714C295 438.714 288.572 447.3 288.572 450.857C288.572 452.562 289.249 454.197 290.454 455.402C291.66 456.608 293.295 457.285 295 457.285C296.705 457.285 298.34 456.608 299.546 455.402C300.751 454.197 301.429 452.562 301.429 450.857Z" fill="#190F19"/>
<path d="M315.894 453.668C314.494 453.668 313.332 453.183 312.408 452.212C311.484 451.241 311.022 450.047 311.022 448.628V448.6C311.022 447.2 311.489 446.005 312.422 445.016C313.355 444.027 314.522 443.532 315.922 443.532C316.734 443.532 317.429 443.667 318.008 443.938C318.596 444.199 319.17 444.587 319.73 445.1L319.212 445.632C318.223 444.671 317.121 444.19 315.908 444.19C314.732 444.19 313.747 444.615 312.954 445.464C312.17 446.304 311.778 447.34 311.778 448.572V448.6C311.778 449.832 312.175 450.877 312.968 451.736C313.771 452.585 314.755 453.01 315.922 453.01C316.603 453.01 317.205 452.889 317.728 452.646C318.251 452.394 318.773 452.007 319.296 451.484L319.786 451.96C319.207 452.52 318.615 452.945 318.008 453.234C317.411 453.523 316.706 453.668 315.894 453.668ZM321.72 444.498V443.56H322.574V444.498H321.72ZM321.804 453.5V446.36H322.49V453.5H321.804ZM325.291 453.5V443.28H325.977V453.5H325.291ZM334.461 452.562C333.761 453.299 332.888 453.668 331.843 453.668C330.798 453.668 329.925 453.304 329.225 452.576C328.534 451.848 328.189 450.975 328.189 449.958V449.93C328.189 448.913 328.539 448.035 329.239 447.298C329.948 446.561 330.826 446.192 331.871 446.192C332.916 446.192 333.784 446.556 334.475 447.284C335.175 448.012 335.525 448.885 335.525 449.902V449.93C335.525 450.947 335.17 451.825 334.461 452.562ZM331.871 453.024C332.711 453.024 333.406 452.725 333.957 452.128C334.508 451.531 334.783 450.807 334.783 449.958V449.93C334.783 449.062 334.498 448.329 333.929 447.732C333.36 447.135 332.664 446.836 331.843 446.836C331.003 446.836 330.308 447.135 329.757 447.732C329.206 448.329 328.931 449.053 328.931 449.902V449.93C328.931 450.798 329.216 451.531 329.785 452.128C330.354 452.725 331.05 453.024 331.871 453.024ZM337.436 446.36L339.83 449.384L342.252 446.36H343.078L340.264 449.846L343.19 453.5H342.336L339.816 450.322L337.296 453.5H336.47L339.382 449.86L336.582 446.36H337.436ZM347.091 453.668C346.363 453.668 345.719 453.472 345.159 453.08C344.608 452.679 344.333 452.128 344.333 451.428V451.4C344.333 450.663 344.618 450.093 345.187 449.692C345.756 449.281 346.512 449.076 347.455 449.076C348.258 449.076 349.046 449.179 349.821 449.384V449.076C349.821 448.357 349.616 447.816 349.205 447.452C348.794 447.079 348.216 446.892 347.469 446.892C346.722 446.892 345.976 447.083 345.229 447.466L344.977 446.864C345.826 446.453 346.671 446.248 347.511 446.248C348.491 446.248 349.242 446.509 349.765 447.032C350.25 447.517 350.493 448.189 350.493 449.048V453.5H349.821V452.31C349.158 453.215 348.248 453.668 347.091 453.668ZM347.133 453.024C347.88 453.024 348.514 452.819 349.037 452.408C349.569 451.988 349.835 451.461 349.835 450.826V450.014C348.995 449.799 348.188 449.692 347.413 449.692C346.666 449.692 346.088 449.841 345.677 450.14C345.266 450.439 345.061 450.845 345.061 451.358V451.386C345.061 451.881 345.262 452.277 345.663 452.576C346.074 452.875 346.564 453.024 347.133 453.024ZM352.96 453.5V446.36H353.646V447.69C354.225 446.691 355.084 446.192 356.222 446.192C357.109 446.192 357.804 446.463 358.308 447.004C358.822 447.545 359.078 448.255 359.078 449.132V453.5H358.392V449.258C358.392 448.511 358.192 447.919 357.79 447.48C357.398 447.041 356.843 446.822 356.124 446.822C355.415 446.822 354.822 447.06 354.346 447.536C353.88 448.012 353.646 448.623 353.646 449.37V453.5H352.96Z" fill="#190F19"/>
<path d="M293.511 475.917H295.5V474.75H294.52C294.765 474.365 294.917 473.98 294.917 473.583C294.917 472.049 293.458 471.25 292 471.25C290.629 471.25 289.392 472.452 289.252 472.586L290.081 473.414C290.361 473.134 291.247 472.417 292 472.417C292.607 472.417 293.75 472.662 293.75 473.583C293.75 473.875 293.458 474.307 293.027 474.75H288.5V475.917H291.784C291.539 476.127 290.687 476.891 290.489 477.083H288.5V478.25H289.48C289.235 478.635 289.083 479.02 289.083 479.417C289.083 480.951 290.542 481.75 292 481.75C293.371 481.75 294.607 480.548 294.747 480.414L293.919 479.586C293.645 479.866 292.753 480.583 292 480.583C291.393 480.583 290.25 480.338 290.25 479.417C290.25 479.125 290.542 478.693 290.973 478.25H295.5V477.083H292.222L293.511 475.917Z" fill="#190F19"/>
<path d="M308.354 482.168C306.851 482.168 305.652 481.58 304.756 480.404L305.316 479.942C306.128 480.987 307.145 481.51 308.368 481.51C309.031 481.51 309.6 481.309 310.076 480.908C310.552 480.497 310.79 479.975 310.79 479.34V479.312C310.79 478.64 310.505 478.117 309.936 477.744C309.376 477.371 308.643 477.184 307.738 477.184H307.206L307.024 476.778L310.398 472.886H305.26V472.2H311.392V472.718L308.074 476.512C309.082 476.568 309.913 476.834 310.566 477.31C311.219 477.777 311.546 478.435 311.546 479.284V479.312C311.546 480.152 311.233 480.838 310.608 481.37C309.983 481.902 309.231 482.168 308.354 482.168ZM315.051 482V472.886L313.161 473.53L312.965 472.956L315.205 472.13H315.765V482H315.051ZM318.382 482V480.81H319.306V482H318.382ZM325.144 482.168C323.93 482.168 322.95 481.678 322.204 480.698C321.466 479.718 321.098 478.528 321.098 477.128V477.1C321.098 476.195 321.261 475.359 321.588 474.594C321.914 473.829 322.39 473.213 323.016 472.746C323.65 472.27 324.369 472.032 325.172 472.032C326.385 472.032 327.36 472.522 328.097 473.502C328.844 474.482 329.218 475.672 329.218 477.072V477.1C329.218 478.005 329.054 478.841 328.728 479.606C328.401 480.371 327.92 480.992 327.286 481.468C326.66 481.935 325.946 482.168 325.144 482.168ZM325.172 481.51C326.142 481.51 326.931 481.076 327.538 480.208C328.154 479.34 328.462 478.313 328.462 477.128V477.1C328.462 475.905 328.154 474.874 327.538 474.006C326.922 473.129 326.124 472.69 325.144 472.69C324.173 472.69 323.38 473.124 322.764 473.992C322.157 474.86 321.854 475.887 321.854 477.072V477.1C321.854 478.285 322.162 479.317 322.778 480.194C323.394 481.071 324.192 481.51 325.172 481.51ZM335.083 482.168C333.87 482.168 332.89 481.678 332.143 480.698C331.406 479.718 331.037 478.528 331.037 477.128V477.1C331.037 476.195 331.2 475.359 331.527 474.594C331.854 473.829 332.33 473.213 332.955 472.746C333.59 472.27 334.308 472.032 335.111 472.032C336.324 472.032 337.3 472.522 338.037 473.502C338.784 474.482 339.157 475.672 339.157 477.072V477.1C339.157 478.005 338.994 478.841 338.667 479.606C338.34 480.371 337.86 480.992 337.225 481.468C336.6 481.935 335.886 482.168 335.083 482.168ZM335.111 481.51C336.082 481.51 336.87 481.076 337.477 480.208C338.093 479.34 338.401 478.313 338.401 477.128V477.1C338.401 475.905 338.093 474.874 337.477 474.006C336.861 473.129 336.063 472.69 335.083 472.69C334.112 472.69 333.319 473.124 332.703 473.992C332.096 474.86 331.793 475.887 331.793 477.072V477.1C331.793 478.285 332.101 479.317 332.717 480.194C333.333 481.071 334.131 481.51 335.111 481.51Z" fill="#190F19"/>
<path d="M349.969 472.562L346.031 476.5L349.969 480.438" stroke="#190F19" stroke-linecap="round" stroke-linejoin="round"/>
<g clip-path="url(#clip2_54_1280)">
<rect x="360" y="468.5" width="16" height="16" rx="4" fill="#F6EEF7"/>
<path d="M368.104 479.5V473.641L366.889 474.055L366.763 473.686L368.203 473.155H368.563V479.5H368.104Z" fill="#190F19"/>
</g>
<path d="M386.031 472.562L389.969 476.5L386.031 480.438" stroke="#190F19" stroke-linecap="round" stroke-linejoin="round"/>
<rect x="343" y="107" width="141" height="67" rx="8" fill="#FBF9FB"/>
<path d="M369.429 129.857C369.429 126.3 363 117.714 363 117.714C363 117.714 356.572 126.3 356.572 129.857C356.572 131.562 357.249 133.197 358.454 134.402C359.66 135.608 361.295 136.285 363 136.285C364.705 136.285 366.34 135.608 367.546 134.402C368.751 133.197 369.429 131.562 369.429 129.857Z" fill="#190F19"/>
<path d="M382.102 132.5V123.372H378.686V122.7H386.246V123.372H382.83V132.5H382.102ZM388.025 132.5V122.28H388.711V126.69C389.289 125.691 390.148 125.192 391.287 125.192C392.173 125.192 392.869 125.463 393.373 126.004C393.886 126.545 394.143 127.255 394.143 128.132V132.5H393.457V128.258C393.457 127.511 393.256 126.919 392.855 126.48C392.463 126.041 391.907 125.822 391.189 125.822C390.479 125.822 389.887 126.06 389.411 126.536C388.944 127.012 388.711 127.623 388.711 128.37V132.5H388.025ZM399.621 132.668C398.659 132.668 397.833 132.323 397.143 131.632C396.461 130.932 396.121 130.036 396.121 128.944V128.916C396.121 127.88 396.443 127.003 397.087 126.284C397.74 125.556 398.547 125.192 399.509 125.192C400.489 125.192 401.277 125.547 401.875 126.256C402.481 126.965 402.785 127.857 402.785 128.93C402.785 129.042 402.78 129.135 402.771 129.21H396.849C396.905 130.069 397.203 130.755 397.745 131.268C398.286 131.772 398.921 132.024 399.649 132.024C400.573 132.024 401.389 131.651 402.099 130.904L402.575 131.324C401.744 132.22 400.759 132.668 399.621 132.668ZM396.849 128.594H402.043C401.977 127.81 401.725 127.152 401.287 126.62C400.857 126.088 400.255 125.822 399.481 125.822C398.781 125.822 398.179 126.088 397.675 126.62C397.18 127.143 396.905 127.801 396.849 128.594ZM406.956 132.668C406.228 132.668 405.584 132.472 405.024 132.08C404.474 131.679 404.198 131.128 404.198 130.428V130.4C404.198 129.663 404.483 129.093 405.052 128.692C405.622 128.281 406.378 128.076 407.32 128.076C408.123 128.076 408.912 128.179 409.686 128.384V128.076C409.686 127.357 409.481 126.816 409.07 126.452C408.66 126.079 408.081 125.892 407.334 125.892C406.588 125.892 405.841 126.083 405.094 126.466L404.842 125.864C405.692 125.453 406.536 125.248 407.376 125.248C408.356 125.248 409.108 125.509 409.63 126.032C410.116 126.517 410.358 127.189 410.358 128.048V132.5H409.686V131.31C409.024 132.215 408.114 132.668 406.956 132.668ZM406.998 132.024C407.745 132.024 408.38 131.819 408.902 131.408C409.434 130.988 409.7 130.461 409.7 129.826V129.014C408.86 128.799 408.053 128.692 407.278 128.692C406.532 128.692 405.953 128.841 405.542 129.14C405.132 129.439 404.926 129.845 404.926 130.358V130.386C404.926 130.881 405.127 131.277 405.528 131.576C405.939 131.875 406.429 132.024 406.998 132.024ZM412.923 132.5V122.28H413.609V132.5H412.923ZM422.094 131.562C421.394 132.299 420.521 132.668 419.476 132.668C418.43 132.668 417.558 132.304 416.858 131.576C416.167 130.848 415.822 129.975 415.822 128.958V128.93C415.822 127.913 416.172 127.035 416.872 126.298C417.581 125.561 418.458 125.192 419.504 125.192C420.549 125.192 421.417 125.556 422.108 126.284C422.808 127.012 423.158 127.885 423.158 128.902V128.93C423.158 129.947 422.803 130.825 422.094 131.562ZM419.504 132.024C420.344 132.024 421.039 131.725 421.59 131.128C422.14 130.531 422.416 129.807 422.416 128.958V128.93C422.416 128.062 422.131 127.329 421.562 126.732C420.992 126.135 420.297 125.836 419.476 125.836C418.636 125.836 417.94 126.135 417.39 126.732C416.839 127.329 416.564 128.053 416.564 128.902V128.93C416.564 129.798 416.848 130.531 417.418 131.128C417.987 131.725 418.682 132.024 419.504 132.024ZM424.503 132.5V132.108L429.655 125.976H424.699V125.36H430.677V125.752L425.525 131.884H430.677V132.5H424.503Z" fill="#190F19"/>
<path d="M361.511 154.917H363.5V153.75H362.52C362.765 153.365 362.917 152.98 362.917 152.583C362.917 151.049 361.458 150.25 360 150.25C358.629 150.25 357.392 151.452 357.252 151.586L358.081 152.414C358.361 152.134 359.247 151.417 360 151.417C360.607 151.417 361.75 151.662 361.75 152.583C361.75 152.875 361.458 153.307 361.027 153.75H356.5V154.917H359.784C359.539 155.127 358.687 155.891 358.489 156.083H356.5V157.25H357.48C357.235 157.635 357.083 158.02 357.083 158.417C357.083 159.951 358.542 160.75 360 160.75C361.371 160.75 362.607 159.548 362.747 159.414L361.919 158.586C361.645 158.866 360.753 159.583 360 159.583C359.393 159.583 358.25 159.338 358.25 158.417C358.25 158.125 358.542 157.693 358.973 157.25H363.5V156.083H360.222L361.511 154.917Z" fill="#190F19"/>
<path d="M376.116 160.51C377.077 160.51 377.857 160.067 378.454 159.18C379.061 158.284 379.364 157.173 379.364 155.848V155.47C378.655 156.721 377.637 157.346 376.312 157.346C375.332 157.346 374.52 157.061 373.876 156.492C373.241 155.913 372.924 155.199 372.924 154.35V154.322C372.924 153.398 373.246 152.619 373.89 151.984C374.534 151.349 375.36 151.032 376.368 151.032C377.367 151.032 378.197 151.363 378.86 152.026C379.681 152.847 380.092 154.121 380.092 155.848V155.876C380.092 157.407 379.714 158.671 378.958 159.67C378.202 160.669 377.25 161.168 376.102 161.168C375.113 161.168 374.128 160.762 373.148 159.95L373.61 159.39C374.459 160.137 375.295 160.51 376.116 160.51ZM376.34 156.702C377.143 156.702 377.796 156.45 378.3 155.946C378.813 155.442 379.07 154.863 379.07 154.21V154.182C379.07 153.482 378.804 152.894 378.272 152.418C377.749 151.933 377.087 151.69 376.284 151.69C375.509 151.69 374.879 151.947 374.394 152.46C373.918 152.973 373.68 153.585 373.68 154.294V154.322C373.68 155.013 373.927 155.582 374.422 156.03C374.926 156.478 375.565 156.702 376.34 156.702ZM382.811 161L387.263 151.9H381.579V151.2H388.075V151.732L383.609 161H382.811ZM392.716 161.168C392.082 161.168 391.466 161.023 390.868 160.734C390.271 160.445 389.744 160.062 389.286 159.586L389.804 159.068C390.766 160.029 391.746 160.51 392.744 160.51C393.51 160.51 394.14 160.277 394.634 159.81C395.129 159.334 395.376 158.746 395.376 158.046V158.018C395.376 157.346 395.124 156.791 394.62 156.352C394.116 155.913 393.472 155.694 392.688 155.694C391.97 155.694 391.232 155.899 390.476 156.31L389.916 155.946L390.196 151.2H395.698V151.9H390.84L390.602 155.568C391.293 155.213 392.016 155.036 392.772 155.036C393.734 155.036 394.532 155.311 395.166 155.862C395.81 156.413 396.132 157.122 396.132 157.99V158.018C396.132 158.933 395.81 159.689 395.166 160.286C394.522 160.874 393.706 161.168 392.716 161.168ZM398.113 161V159.81H399.037V161H398.113ZM404.874 161.168C403.661 161.168 402.681 160.678 401.934 159.698C401.197 158.718 400.828 157.528 400.828 156.128V156.1C400.828 155.195 400.991 154.359 401.318 153.594C401.645 152.829 402.121 152.213 402.746 151.746C403.381 151.27 404.099 151.032 404.902 151.032C406.115 151.032 407.091 151.522 407.828 152.502C408.575 153.482 408.948 154.672 408.948 156.072V156.1C408.948 157.005 408.785 157.841 408.458 158.606C408.131 159.371 407.651 159.992 407.016 160.468C406.391 160.935 405.677 161.168 404.874 161.168ZM404.902 160.51C405.873 160.51 406.661 160.076 407.268 159.208C407.884 158.34 408.192 157.313 408.192 156.128V156.1C408.192 154.905 407.884 153.874 407.268 153.006C406.652 152.129 405.854 151.69 404.874 151.69C403.903 151.69 403.11 152.124 402.494 152.992C401.887 153.86 401.584 154.887 401.584 156.072V156.1C401.584 157.285 401.892 158.317 402.508 159.194C403.124 160.071 403.922 160.51 404.902 160.51ZM414.813 161.168C413.6 161.168 412.62 160.678 411.873 159.698C411.136 158.718 410.767 157.528 410.767 156.128V156.1C410.767 155.195 410.931 154.359 411.257 153.594C411.584 152.829 412.06 152.213 412.685 151.746C413.32 151.27 414.039 151.032 414.841 151.032C416.055 151.032 417.03 151.522 417.767 152.502C418.514 153.482 418.887 154.672 418.887 156.072V156.1C418.887 157.005 418.724 157.841 418.397 158.606C418.071 159.371 417.59 159.992 416.955 160.468C416.33 160.935 415.616 161.168 414.813 161.168ZM414.841 160.51C415.812 160.51 416.601 160.076 417.207 159.208C417.823 158.34 418.131 157.313 418.131 156.128V156.1C418.131 154.905 417.823 153.874 417.207 153.006C416.591 152.129 415.793 151.69 414.813 151.69C413.843 151.69 413.049 152.124 412.433 152.992C411.827 153.86 411.523 154.887 411.523 156.072V156.1C411.523 157.285 411.831 158.317 412.447 159.194C413.063 160.071 413.861 160.51 414.841 160.51Z" fill="#190F19"/>
<path d="M428.969 151.562L425.031 155.5L428.969 159.438" stroke="#190F19" stroke-linecap="round" stroke-linejoin="round"/>
<g clip-path="url(#clip3_54_1280)">
<rect x="439" y="147.5" width="16" height="16" rx="4" fill="#F6EEF7"/>
<path d="M447.104 158.5V152.641L445.889 153.055L445.763 152.686L447.203 152.155H447.563V158.5H447.104Z" fill="#190F19"/>
</g>
<path d="M465.031 151.562L468.969 155.5L465.031 159.438" stroke="#190F19" stroke-linecap="round" stroke-linejoin="round"/>
<rect x="262" y="9" width="138" height="67" rx="8" fill="#FBF9FB"/>
<path d="M288.429 31.8567C288.429 28.2996 282 19.7139 282 19.7139C282 19.7139 275.572 28.2996 275.572 31.8567C275.572 33.5617 276.249 35.1968 277.454 36.4024C278.66 37.608 280.295 38.2853 282 38.2853C283.705 38.2853 285.34 37.608 286.546 36.4024C287.751 35.1968 288.429 33.5617 288.429 31.8567Z" fill="#190F19"/>
<path d="M301.102 34.5V25.372H297.686V24.7H305.246V25.372H301.83V34.5H301.102ZM311.193 33.562C310.493 34.2993 309.621 34.668 308.575 34.668C307.53 34.668 306.657 34.304 305.957 33.576C305.267 32.848 304.921 31.9753 304.921 30.958V30.93C304.921 29.9127 305.271 29.0353 305.971 28.298C306.681 27.5607 307.558 27.192 308.603 27.192C309.649 27.192 310.517 27.556 311.207 28.284C311.907 29.012 312.257 29.8847 312.257 30.902V30.93C312.257 31.9473 311.903 32.8247 311.193 33.562ZM308.603 34.024C309.443 34.024 310.139 33.7253 310.689 33.128C311.24 32.5307 311.515 31.8073 311.515 30.958V30.93C311.515 30.062 311.231 29.3293 310.661 28.732C310.092 28.1347 309.397 27.836 308.575 27.836C307.735 27.836 307.04 28.1347 306.489 28.732C305.939 29.3293 305.663 30.0527 305.663 30.902V30.93C305.663 31.798 305.948 32.5307 306.517 33.128C307.087 33.7253 307.782 34.024 308.603 34.024ZM317.992 34.668C316.798 34.668 315.818 34.0987 315.052 32.96V34.5H314.366V24.28H315.052V28.956C315.808 27.78 316.788 27.192 317.992 27.192C318.907 27.192 319.714 27.5327 320.414 28.214C321.114 28.8953 321.464 29.7913 321.464 30.902V30.93C321.464 32.0313 321.114 32.932 320.414 33.632C319.714 34.3227 318.907 34.668 317.992 34.668ZM317.922 34.01C318.725 34.01 319.392 33.7347 319.924 33.184C320.456 32.6333 320.722 31.8913 320.722 30.958V30.93C320.722 30.0153 320.447 29.2733 319.896 28.704C319.355 28.1347 318.697 27.85 317.922 27.85C317.148 27.85 316.466 28.1393 315.878 28.718C315.3 29.2967 315.01 30.0293 315.01 30.916V30.944C315.01 31.8307 315.3 32.5633 315.878 33.142C316.466 33.7207 317.148 34.01 317.922 34.01ZM323.609 34.5V27.36H324.295V29.39C324.593 28.7273 325.018 28.2 325.569 27.808C326.129 27.416 326.759 27.2293 327.459 27.248V28.004H327.389C326.521 28.004 325.788 28.3213 325.191 28.956C324.593 29.5907 324.295 30.4633 324.295 31.574V34.5H323.609ZM331.869 34.668C330.907 34.668 330.081 34.3227 329.391 33.632C328.709 32.932 328.369 32.036 328.369 30.944V30.916C328.369 29.88 328.691 29.0027 329.335 28.284C329.988 27.556 330.795 27.192 331.757 27.192C332.737 27.192 333.525 27.5467 334.123 28.256C334.729 28.9653 335.033 29.8567 335.033 30.93C335.033 31.042 335.028 31.1353 335.019 31.21H329.097C329.153 32.0687 329.451 32.7547 329.993 33.268C330.534 33.772 331.169 34.024 331.897 34.024C332.821 34.024 333.637 33.6507 334.347 32.904L334.823 33.324C333.992 34.22 333.007 34.668 331.869 34.668ZM329.097 30.594H334.291C334.225 29.81 333.973 29.152 333.535 28.62C333.105 28.088 332.503 27.822 331.729 27.822C331.029 27.822 330.427 28.088 329.923 28.62C329.428 29.1427 329.153 29.8007 329.097 30.594ZM336.905 27.36L339.299 30.384L341.721 27.36H342.547L339.733 30.846L342.659 34.5H341.805L339.285 31.322L336.765 34.5H335.939L338.851 30.86L336.051 27.36H336.905Z" fill="#190F19"/>
<path d="M280.511 56.9167H282.5V55.75H281.52C281.765 55.365 281.917 54.98 281.917 54.5833C281.917 53.0492 280.458 52.25 279 52.25C277.629 52.25 276.392 53.4517 276.252 53.5858L277.081 54.4142C277.361 54.1342 278.247 53.4167 279 53.4167C279.607 53.4167 280.75 53.6617 280.75 54.5833C280.75 54.875 280.458 55.3067 280.027 55.75H275.5V56.9167H278.784C278.539 57.1267 277.687 57.8908 277.489 58.0833H275.5V59.25H276.48C276.235 59.635 276.083 60.02 276.083 60.4167C276.083 61.9508 277.542 62.75 279 62.75C280.371 62.75 281.607 61.5483 281.747 61.4142L280.919 60.5858C280.645 60.8658 279.753 61.5833 279 61.5833C278.393 61.5833 277.25 61.3383 277.25 60.4167C277.25 60.125 277.542 59.6933 277.973 59.25H282.5V58.0833H279.222L280.511 56.9167Z" fill="#190F19"/>
<path d="M295.228 63.168C294.593 63.168 293.977 63.0233 293.38 62.734C292.783 62.4447 292.255 62.062 291.798 61.586L292.316 61.068C293.277 62.0293 294.257 62.51 295.256 62.51C296.021 62.51 296.651 62.2767 297.146 61.81C297.641 61.334 297.888 60.746 297.888 60.046V60.018C297.888 59.346 297.636 58.7907 297.132 58.352C296.628 57.9133 295.984 57.694 295.2 57.694C294.481 57.694 293.744 57.8993 292.988 58.31L292.428 57.946L292.708 53.2H298.21V53.9H293.352L293.114 57.568C293.805 57.2133 294.528 57.036 295.284 57.036C296.245 57.036 297.043 57.3113 297.678 57.862C298.322 58.4127 298.644 59.122 298.644 59.99V60.018C298.644 60.9327 298.322 61.6887 297.678 62.286C297.034 62.874 296.217 63.168 295.228 63.168ZM303.524 62.51C304.486 62.51 305.265 62.0667 305.862 61.18C306.469 60.284 306.772 59.1733 306.772 57.848V57.47C306.063 58.7207 305.046 59.346 303.72 59.346C302.74 59.346 301.928 59.0613 301.284 58.492C300.65 57.9133 300.332 57.1993 300.332 56.35V56.322C300.332 55.398 300.654 54.6187 301.298 53.984C301.942 53.3493 302.768 53.032 303.776 53.032C304.775 53.032 305.606 53.3633 306.268 54.026C307.09 54.8473 307.5 56.1213 307.5 57.848V57.876C307.5 59.4067 307.122 60.6713 306.366 61.67C305.61 62.6687 304.658 63.168 303.51 63.168C302.521 63.168 301.536 62.762 300.556 61.95L301.018 61.39C301.868 62.1367 302.703 62.51 303.524 62.51ZM303.748 58.702C304.551 58.702 305.204 58.45 305.708 57.946C306.222 57.442 306.478 56.8633 306.478 56.21V56.182C306.478 55.482 306.212 54.894 305.68 54.418C305.158 53.9327 304.495 53.69 303.692 53.69C302.918 53.69 302.288 53.9467 301.802 54.46C301.326 54.9733 301.088 55.5847 301.088 56.294V56.322C301.088 57.0127 301.336 57.582 301.83 58.03C302.334 58.478 302.974 58.702 303.748 58.702ZM310.897 63V53.886L309.007 54.53L308.811 53.956L311.051 53.13H311.611V63H310.897ZM314.228 63V61.81H315.152V63H314.228ZM320.989 63.168C319.776 63.168 318.796 62.678 318.049 61.698C317.312 60.718 316.943 59.528 316.943 58.128V58.1C316.943 57.1947 317.107 56.3593 317.433 55.594C317.76 54.8287 318.236 54.2127 318.861 53.746C319.496 53.27 320.215 53.032 321.017 53.032C322.231 53.032 323.206 53.522 323.943 54.502C324.69 55.482 325.063 56.672 325.063 58.072V58.1C325.063 59.0053 324.9 59.8407 324.573 60.606C324.247 61.3713 323.766 61.992 323.131 62.468C322.506 62.9347 321.792 63.168 320.989 63.168ZM321.017 62.51C321.988 62.51 322.777 62.076 323.383 61.208C323.999 60.34 324.307 59.3133 324.307 58.128V58.1C324.307 56.9053 323.999 55.874 323.383 55.006C322.767 54.1287 321.969 53.69 320.989 53.69C320.019 53.69 319.225 54.124 318.609 54.992C318.003 55.86 317.699 56.8867 317.699 58.072V58.1C317.699 59.2853 318.007 60.3167 318.623 61.194C319.239 62.0713 320.037 62.51 321.017 62.51ZM330.929 63.168C329.715 63.168 328.735 62.678 327.989 61.698C327.251 60.718 326.883 59.528 326.883 58.128V58.1C326.883 57.1947 327.046 56.3593 327.373 55.594C327.699 54.8287 328.175 54.2127 328.801 53.746C329.435 53.27 330.154 53.032 330.957 53.032C332.17 53.032 333.145 53.522 333.883 54.502C334.629 55.482 335.003 56.672 335.003 58.072V58.1C335.003 59.0053 334.839 59.8407 334.513 60.606C334.186 61.3713 333.705 61.992 333.071 62.468C332.445 62.9347 331.731 63.168 330.929 63.168ZM330.957 62.51C331.927 62.51 332.716 62.076 333.323 61.208C333.939 60.34 334.247 59.3133 334.247 58.128V58.1C334.247 56.9053 333.939 55.874 333.323 55.006C332.707 54.1287 331.909 53.69 330.929 53.69C329.958 53.69 329.165 54.124 328.549 54.992C327.942 55.86 327.639 56.8867 327.639 58.072V58.1C327.639 59.2853 327.947 60.3167 328.563 61.194C329.179 62.0713 329.977 62.51 330.957 62.51Z" fill="#190F19"/>
<path d="M344.969 53.5625L341.031 57.5L344.969 61.4375" stroke="#190F19" stroke-linecap="round" stroke-linejoin="round"/>
<g clip-path="url(#clip4_54_1280)">
<rect x="355" y="49.5" width="16" height="16" rx="4" fill="#F6EEF7"/>
<path d="M363.104 60.5V54.641L361.889 55.055L361.763 54.686L363.203 54.155H363.563V60.5H363.104Z" fill="#190F19"/>
</g>
<path d="M381.031 53.5625L384.969 57.5L381.031 61.4375" stroke="#190F19" stroke-linecap="round" stroke-linejoin="round"/>
<rect x="555" y="50" width="141" height="67" rx="8" fill="#FBF9FB"/>
<path d="M581.429 72.8567C581.429 69.2996 575 60.7139 575 60.7139C575 60.7139 568.572 69.2996 568.572 72.8567C568.572 74.5617 569.249 76.1968 570.454 77.4024C571.66 78.608 573.295 79.2853 575 79.2853C576.705 79.2853 578.34 78.608 579.546 77.4024C580.751 76.1968 581.429 74.5617 581.429 72.8567Z" fill="#190F19"/>
<path d="M594.928 75.57L590.616 65.7H591.428L595.264 74.716L599.114 65.7H599.884L595.572 75.57H594.928ZM601.543 66.498V65.56H602.397V66.498H601.543ZM601.627 75.5V68.36H602.313V75.5H601.627ZM605.015 75.5V68.36H605.701V70.39C606 69.7273 606.424 69.2 606.975 68.808C607.535 68.416 608.165 68.2293 608.865 68.248V69.004H608.795C607.927 69.004 607.194 69.3213 606.597 69.956C606 70.5907 605.701 71.4633 605.701 72.574V75.5H605.015ZM616.047 74.562C615.347 75.2993 614.474 75.668 613.429 75.668C612.384 75.668 611.511 75.304 610.811 74.576C610.12 73.848 609.775 72.9753 609.775 71.958V71.93C609.775 70.9127 610.125 70.0353 610.825 69.298C611.534 68.5607 612.412 68.192 613.457 68.192C614.502 68.192 615.37 68.556 616.061 69.284C616.761 70.012 617.111 70.8847 617.111 71.902V71.93C617.111 72.9473 616.756 73.8247 616.047 74.562ZM613.457 75.024C614.297 75.024 614.992 74.7253 615.543 74.128C616.094 73.5307 616.369 72.8073 616.369 71.958V71.93C616.369 71.062 616.084 70.3293 615.515 69.732C614.946 69.1347 614.25 68.836 613.429 68.836C612.589 68.836 611.894 69.1347 611.343 69.732C610.792 70.3293 610.517 71.0527 610.517 71.902V71.93C610.517 72.798 610.802 73.5307 611.371 74.128C611.94 74.7253 612.636 75.024 613.457 75.024ZM619.22 77.74V68.36H619.906V69.956C620.662 68.78 621.642 68.192 622.846 68.192C623.761 68.192 624.568 68.5327 625.268 69.214C625.968 69.8953 626.318 70.7913 626.318 71.902V71.93C626.318 73.0313 625.968 73.932 625.268 74.632C624.568 75.3227 623.761 75.668 622.846 75.668C621.651 75.668 620.671 75.0987 619.906 73.96V77.74H619.22ZM622.776 75.01C623.579 75.01 624.246 74.7347 624.778 74.184C625.31 73.6333 625.576 72.8913 625.576 71.958V71.93C625.576 71.0153 625.301 70.2733 624.75 69.704C624.209 69.1347 623.551 68.85 622.776 68.85C622.001 68.85 621.32 69.1393 620.732 69.718C620.153 70.2967 619.864 71.0293 619.864 71.916V71.944C619.864 72.8307 620.153 73.5633 620.732 74.142C621.32 74.7207 622.001 75.01 622.776 75.01ZM630.842 75.626C630.245 75.626 629.759 75.4627 629.386 75.136C629.022 74.8093 628.84 74.3193 628.84 73.666V68.99H627.804V68.36H628.84V66.078H629.526V68.36H632.032V68.99H629.526V73.596C629.526 74.52 630.002 74.982 630.954 74.982C631.281 74.982 631.631 74.898 632.004 74.73V75.374C631.631 75.542 631.243 75.626 630.842 75.626ZM634.082 66.498V65.56H634.936V66.498H634.082ZM634.166 75.5V68.36H634.852V75.5H634.166ZM640.704 75.668C639.687 75.668 638.823 75.304 638.114 74.576C637.414 73.8387 637.064 72.966 637.064 71.958V71.93C637.064 70.9127 637.414 70.0353 638.114 69.298C638.823 68.5607 639.687 68.192 640.704 68.192C641.787 68.192 642.739 68.6307 643.56 69.508L643.07 70.012C642.305 69.228 641.511 68.836 640.69 68.836C639.878 68.836 639.192 69.1347 638.632 69.732C638.081 70.32 637.806 71.0433 637.806 71.902V71.93C637.806 72.798 638.091 73.5307 638.66 74.128C639.239 74.7253 639.934 75.024 640.746 75.024C641.633 75.024 642.431 74.6273 643.14 73.834L643.616 74.254C642.785 75.1967 641.815 75.668 640.704 75.668Z" fill="#190F19"/>
<path d="M573.511 97.9167H575.5V96.75H574.52C574.765 96.365 574.917 95.98 574.917 95.5833C574.917 94.0492 573.458 93.25 572 93.25C570.629 93.25 569.392 94.4517 569.252 94.5858L570.081 95.4142C570.361 95.1342 571.247 94.4167 572 94.4167C572.607 94.4167 573.75 94.6617 573.75 95.5833C573.75 95.875 573.458 96.3067 573.027 96.75H568.5V97.9167H571.784C571.539 98.1267 570.687 98.8908 570.489 99.0833H568.5V100.25H569.48C569.235 100.635 569.083 101.02 569.083 101.417C569.083 102.951 570.542 103.75 572 103.75C573.371 103.75 574.607 102.548 574.747 102.414L573.919 101.586C573.645 101.866 572.753 102.583 572 102.583C571.393 102.583 570.25 102.338 570.25 101.417C570.25 101.125 570.542 100.693 570.973 100.25H575.5V99.0833H572.222L573.511 97.9167Z" fill="#190F19"/>
<path d="M588.634 104.168C587.626 104.168 586.795 103.841 586.142 103.188C585.703 102.749 585.386 102.245 585.19 101.676C584.994 101.107 584.896 100.337 584.896 99.366V99.338C584.896 97.826 585.26 96.566 585.988 95.558C586.725 94.5407 587.691 94.032 588.886 94.032C589.866 94.032 590.809 94.41 591.714 95.166L591.252 95.726C590.459 95.0353 589.651 94.69 588.83 94.69C587.859 94.69 587.08 95.1427 586.492 96.048C585.913 96.944 585.624 98.092 585.624 99.492V99.772C586.333 98.5587 587.355 97.952 588.69 97.952C589.605 97.952 590.393 98.2367 591.056 98.806C591.728 99.366 592.064 100.071 592.064 100.92V100.948C592.064 101.872 591.733 102.642 591.07 103.258C590.417 103.865 589.605 104.168 588.634 104.168ZM588.69 103.51C589.455 103.51 590.081 103.267 590.566 102.782C591.061 102.287 591.308 101.685 591.308 100.976V100.948C591.308 100.276 591.056 99.716 590.552 99.268C590.057 98.82 589.423 98.596 588.648 98.596C587.873 98.596 587.225 98.8433 586.702 99.338C586.179 99.8327 585.918 100.393 585.918 101.018V101.046C585.918 101.746 586.179 102.334 586.702 102.81C587.234 103.277 587.897 103.51 588.69 103.51ZM599.982 103.37C599.292 103.883 598.428 104.14 597.392 104.14C596.356 104.14 595.488 103.883 594.788 103.37C594.098 102.847 593.752 102.185 593.752 101.382V101.354C593.752 100.803 593.953 100.318 594.354 99.898C594.756 99.4687 595.278 99.1467 595.922 98.932C595.39 98.736 594.952 98.442 594.606 98.05C594.261 97.658 594.088 97.1913 594.088 96.65V96.622C594.088 95.894 594.42 95.2873 595.082 94.802C595.754 94.3073 596.524 94.06 597.392 94.06C598.26 94.06 599.026 94.3073 599.688 94.802C600.36 95.2873 600.696 95.894 600.696 96.622V96.65C600.696 97.1913 600.524 97.658 600.178 98.05C599.833 98.442 599.394 98.736 598.862 98.932C599.506 99.1467 600.029 99.4687 600.43 99.898C600.832 100.318 601.032 100.803 601.032 101.354V101.382C601.032 102.185 600.682 102.847 599.982 103.37ZM595.586 98.106C596.081 98.4793 596.683 98.666 597.392 98.666C598.102 98.666 598.704 98.4793 599.198 98.106C599.693 97.7233 599.94 97.238 599.94 96.65V96.622C599.94 96.0713 599.693 95.6187 599.198 95.264C598.713 94.9 598.111 94.718 597.392 94.718C596.674 94.718 596.067 94.9 595.572 95.264C595.087 95.6187 594.844 96.0713 594.844 96.622V96.65C594.844 97.238 595.092 97.7233 595.586 98.106ZM595.292 102.88C595.815 103.281 596.515 103.482 597.392 103.482C598.27 103.482 598.97 103.281 599.492 102.88C600.015 102.479 600.276 101.989 600.276 101.41V101.382C600.276 100.775 599.996 100.276 599.436 99.884C598.886 99.4827 598.204 99.282 597.392 99.282C596.58 99.282 595.894 99.4827 595.334 99.884C594.784 100.276 594.508 100.775 594.508 101.382V101.41C594.508 101.989 594.77 102.479 595.292 102.88ZM603.848 104L608.3 94.9H602.616V94.2H609.112V94.732L604.646 104H603.848ZM609.634 104V102.81H610.558V104H609.634ZM616.395 104.168C615.182 104.168 614.202 103.678 613.455 102.698C612.718 101.718 612.349 100.528 612.349 99.128V99.1C612.349 98.1947 612.513 97.3593 612.839 96.594C613.166 95.8287 613.642 95.2127 614.267 94.746C614.902 94.27 615.621 94.032 616.423 94.032C617.637 94.032 618.612 94.522 619.349 95.502C620.096 96.482 620.469 97.672 620.469 99.072V99.1C620.469 100.005 620.306 100.841 619.979 101.606C619.653 102.371 619.172 102.992 618.537 103.468C617.912 103.935 617.198 104.168 616.395 104.168ZM616.423 103.51C617.394 103.51 618.183 103.076 618.789 102.208C619.405 101.34 619.713 100.313 619.713 99.128V99.1C619.713 97.9053 619.405 96.874 618.789 96.006C618.173 95.1287 617.375 94.69 616.395 94.69C615.425 94.69 614.631 95.124 614.015 95.992C613.409 96.86 613.105 97.8867 613.105 99.072V99.1C613.105 100.285 613.413 101.317 614.029 102.194C614.645 103.071 615.443 103.51 616.423 103.51ZM626.335 104.168C625.122 104.168 624.142 103.678 623.395 102.698C622.658 101.718 622.289 100.528 622.289 99.128V99.1C622.289 98.1947 622.452 97.3593 622.779 96.594C623.106 95.8287 623.582 95.2127 624.207 94.746C624.842 94.27 625.56 94.032 626.363 94.032C627.576 94.032 628.552 94.522 629.289 95.502C630.036 96.482 630.409 97.672 630.409 99.072V99.1C630.409 100.005 630.246 100.841 629.919 101.606C629.592 102.371 629.112 102.992 628.477 103.468C627.852 103.935 627.138 104.168 626.335 104.168ZM626.363 103.51C627.334 103.51 628.122 103.076 628.729 102.208C629.345 101.34 629.653 100.313 629.653 99.128V99.1C629.653 97.9053 629.345 96.874 628.729 96.006C628.113 95.1287 627.315 94.69 626.335 94.69C625.364 94.69 624.571 95.124 623.955 95.992C623.348 96.86 623.045 97.8867 623.045 99.072V99.1C623.045 100.285 623.353 101.317 623.969 102.194C624.585 103.071 625.383 103.51 626.363 103.51Z" fill="#190F19"/>
<path d="M640.969 94.5625L637.031 98.5L640.969 102.438" stroke="#190F19" stroke-linecap="round" stroke-linejoin="round"/>
<g clip-path="url(#clip5_54_1280)">
<rect x="651" y="90.5" width="16" height="16" rx="4" fill="#F6EEF7"/>
<path d="M659.104 101.5V95.641L657.889 96.055L657.763 95.686L659.203 95.155H659.563V101.5H659.104Z" fill="#190F19"/>
</g>
<path d="M677.031 94.5625L680.969 98.5L677.031 102.438" stroke="#190F19" stroke-linecap="round" stroke-linejoin="round"/>
<rect x="72" y="320" width="141" height="67" rx="8" fill="#FBF9FB"/>
<path d="M98.4287 342.857C98.4287 339.3 92.0001 330.714 92.0001 330.714C92.0001 330.714 85.5715 339.3 85.5715 342.857C85.5715 344.562 86.2488 346.197 87.4544 347.402C88.66 348.608 90.2951 349.285 92.0001 349.285C93.7051 349.285 95.3402 348.608 96.5458 347.402C97.7514 346.197 98.4287 344.562 98.4287 342.857Z" fill="#190F19"/>
<path d="M107.952 345.5V345.094L114.658 336.358H108.19V335.7H115.694V336.106L108.988 344.842H115.694V345.5H107.952ZM123.367 344.562C122.667 345.299 121.795 345.668 120.749 345.668C119.704 345.668 118.831 345.304 118.131 344.576C117.441 343.848 117.095 342.975 117.095 341.958V341.93C117.095 340.913 117.445 340.035 118.145 339.298C118.855 338.561 119.732 338.192 120.777 338.192C121.823 338.192 122.691 338.556 123.381 339.284C124.081 340.012 124.431 340.885 124.431 341.902V341.93C124.431 342.947 124.077 343.825 123.367 344.562ZM120.777 345.024C121.617 345.024 122.313 344.725 122.863 344.128C123.414 343.531 123.689 342.807 123.689 341.958V341.93C123.689 341.062 123.405 340.329 122.835 339.732C122.266 339.135 121.571 338.836 120.749 338.836C119.909 338.836 119.214 339.135 118.663 339.732C118.113 340.329 117.837 341.053 117.837 341.902V341.93C117.837 342.798 118.122 343.531 118.691 344.128C119.261 344.725 119.956 345.024 120.777 345.024ZM128.594 345.556L125.388 338.36H126.186L128.888 344.73L131.618 338.36H132.388L129.182 345.556H128.594ZM134.279 336.498V335.56H135.133V336.498H134.279ZM134.363 345.5V338.36H135.049V345.5H134.363ZM137.751 345.5V338.36H138.437V340.39C138.736 339.727 139.161 339.2 139.711 338.808C140.271 338.416 140.901 338.229 141.601 338.248V339.004H141.531C140.663 339.004 139.931 339.321 139.333 339.956C138.736 340.591 138.437 341.463 138.437 342.574V345.5H137.751ZM145.171 345.668C144.443 345.668 143.799 345.472 143.239 345.08C142.689 344.679 142.413 344.128 142.413 343.428V343.4C142.413 342.663 142.698 342.093 143.267 341.692C143.837 341.281 144.593 341.076 145.535 341.076C146.338 341.076 147.127 341.179 147.901 341.384V341.076C147.901 340.357 147.696 339.816 147.285 339.452C146.875 339.079 146.296 338.892 145.549 338.892C144.803 338.892 144.056 339.083 143.309 339.466L143.057 338.864C143.907 338.453 144.751 338.248 145.591 338.248C146.571 338.248 147.323 338.509 147.845 339.032C148.331 339.517 148.573 340.189 148.573 341.048V345.5H147.901V344.31C147.239 345.215 146.329 345.668 145.171 345.668ZM145.213 345.024C145.96 345.024 146.595 344.819 147.117 344.408C147.649 343.988 147.915 343.461 147.915 342.826V342.014C147.075 341.799 146.268 341.692 145.493 341.692C144.747 341.692 144.168 341.841 143.757 342.14C143.347 342.439 143.141 342.845 143.141 343.358V343.386C143.141 343.881 143.342 344.277 143.743 344.576C144.154 344.875 144.644 345.024 145.213 345.024ZM151.334 338.36L153.728 341.384L156.15 338.36H156.976L154.162 341.846L157.088 345.5H156.234L153.714 342.322L151.194 345.5H150.368L153.28 341.86L150.48 338.36H151.334Z" fill="#190F19"/>
<path d="M90.5108 367.917H92.5V366.75H91.52C91.765 366.365 91.9167 365.98 91.9167 365.583C91.9167 364.049 90.4583 363.25 89 363.25C87.6292 363.25 86.3925 364.452 86.2525 364.586L87.0808 365.414C87.3608 365.134 88.2475 364.417 89 364.417C89.6067 364.417 90.75 364.662 90.75 365.583C90.75 365.875 90.4583 366.307 90.0267 366.75H85.5V367.917H88.7842C88.5392 368.127 87.6875 368.891 87.4892 369.083H85.5V370.25H86.48C86.235 370.635 86.0833 371.02 86.0833 371.417C86.0833 372.951 87.5417 373.75 89 373.75C90.3708 373.75 91.6075 372.548 91.7475 372.414L90.9192 371.586C90.645 371.866 89.7525 372.583 89 372.583C88.3933 372.583 87.25 372.338 87.25 371.417C87.25 371.125 87.5417 370.693 87.9733 370.25H92.5V369.083H89.2217L90.5108 367.917Z" fill="#190F19"/>
<path d="M105.634 374.168C104.626 374.168 103.795 373.841 103.142 373.188C102.703 372.749 102.386 372.245 102.19 371.676C101.994 371.107 101.896 370.337 101.896 369.366V369.338C101.896 367.826 102.26 366.566 102.988 365.558C103.725 364.541 104.691 364.032 105.886 364.032C106.866 364.032 107.809 364.41 108.714 365.166L108.252 365.726C107.459 365.035 106.651 364.69 105.83 364.69C104.859 364.69 104.08 365.143 103.492 366.048C102.913 366.944 102.624 368.092 102.624 369.492V369.772C103.333 368.559 104.355 367.952 105.69 367.952C106.605 367.952 107.393 368.237 108.056 368.806C108.728 369.366 109.064 370.071 109.064 370.92V370.948C109.064 371.872 108.733 372.642 108.07 373.258C107.417 373.865 106.605 374.168 105.634 374.168ZM105.69 373.51C106.455 373.51 107.081 373.267 107.566 372.782C108.061 372.287 108.308 371.685 108.308 370.976V370.948C108.308 370.276 108.056 369.716 107.552 369.268C107.057 368.82 106.423 368.596 105.648 368.596C104.873 368.596 104.225 368.843 103.702 369.338C103.179 369.833 102.918 370.393 102.918 371.018V371.046C102.918 371.746 103.179 372.334 103.702 372.81C104.234 373.277 104.897 373.51 105.69 373.51ZM116.982 373.37C116.292 373.883 115.428 374.14 114.392 374.14C113.356 374.14 112.488 373.883 111.788 373.37C111.098 372.847 110.752 372.185 110.752 371.382V371.354C110.752 370.803 110.953 370.318 111.354 369.898C111.756 369.469 112.278 369.147 112.922 368.932C112.39 368.736 111.952 368.442 111.606 368.05C111.261 367.658 111.088 367.191 111.088 366.65V366.622C111.088 365.894 111.42 365.287 112.082 364.802C112.754 364.307 113.524 364.06 114.392 364.06C115.26 364.06 116.026 364.307 116.688 364.802C117.36 365.287 117.696 365.894 117.696 366.622V366.65C117.696 367.191 117.524 367.658 117.178 368.05C116.833 368.442 116.394 368.736 115.862 368.932C116.506 369.147 117.029 369.469 117.43 369.898C117.832 370.318 118.032 370.803 118.032 371.354V371.382C118.032 372.185 117.682 372.847 116.982 373.37ZM112.586 368.106C113.081 368.479 113.683 368.666 114.392 368.666C115.102 368.666 115.704 368.479 116.198 368.106C116.693 367.723 116.94 367.238 116.94 366.65V366.622C116.94 366.071 116.693 365.619 116.198 365.264C115.713 364.9 115.111 364.718 114.392 364.718C113.674 364.718 113.067 364.9 112.572 365.264C112.087 365.619 111.844 366.071 111.844 366.622V366.65C111.844 367.238 112.092 367.723 112.586 368.106ZM112.292 372.88C112.815 373.281 113.515 373.482 114.392 373.482C115.27 373.482 115.97 373.281 116.492 372.88C117.015 372.479 117.276 371.989 117.276 371.41V371.382C117.276 370.775 116.996 370.276 116.436 369.884C115.886 369.483 115.204 369.282 114.392 369.282C113.58 369.282 112.894 369.483 112.334 369.884C111.784 370.276 111.508 370.775 111.508 371.382V371.41C111.508 371.989 111.77 372.479 112.292 372.88ZM120.848 374L125.3 364.9H119.616V364.2H126.112V364.732L121.646 374H120.848ZM126.634 374V372.81H127.558V374H126.634ZM133.395 374.168C132.182 374.168 131.202 373.678 130.455 372.698C129.718 371.718 129.349 370.528 129.349 369.128V369.1C129.349 368.195 129.513 367.359 129.839 366.594C130.166 365.829 130.642 365.213 131.267 364.746C131.902 364.27 132.621 364.032 133.423 364.032C134.637 364.032 135.612 364.522 136.349 365.502C137.096 366.482 137.469 367.672 137.469 369.072V369.1C137.469 370.005 137.306 370.841 136.979 371.606C136.653 372.371 136.172 372.992 135.537 373.468C134.912 373.935 134.198 374.168 133.395 374.168ZM133.423 373.51C134.394 373.51 135.183 373.076 135.789 372.208C136.405 371.34 136.713 370.313 136.713 369.128V369.1C136.713 367.905 136.405 366.874 135.789 366.006C135.173 365.129 134.375 364.69 133.395 364.69C132.425 364.69 131.631 365.124 131.015 365.992C130.409 366.86 130.105 367.887 130.105 369.072V369.1C130.105 370.285 130.413 371.317 131.029 372.194C131.645 373.071 132.443 373.51 133.423 373.51ZM143.335 374.168C142.122 374.168 141.142 373.678 140.395 372.698C139.658 371.718 139.289 370.528 139.289 369.128V369.1C139.289 368.195 139.452 367.359 139.779 366.594C140.106 365.829 140.582 365.213 141.207 364.746C141.842 364.27 142.56 364.032 143.363 364.032C144.576 364.032 145.552 364.522 146.289 365.502C147.036 366.482 147.409 367.672 147.409 369.072V369.1C147.409 370.005 147.246 370.841 146.919 371.606C146.592 372.371 146.112 372.992 145.477 373.468C144.852 373.935 144.138 374.168 143.335 374.168ZM143.363 373.51C144.334 373.51 145.122 373.076 145.729 372.208C146.345 371.34 146.653 370.313 146.653 369.128V369.1C146.653 367.905 146.345 366.874 145.729 366.006C145.113 365.129 144.315 364.69 143.335 364.69C142.364 364.69 141.571 365.124 140.955 365.992C140.348 366.86 140.045 367.887 140.045 369.072V369.1C140.045 370.285 140.353 371.317 140.969 372.194C141.585 373.071 142.383 373.51 143.363 373.51Z" fill="#190F19"/>
<path d="M157.969 364.562L154.031 368.5L157.969 372.438" stroke="#190F19" stroke-linecap="round" stroke-linejoin="round"/>
<g clip-path="url(#clip6_54_1280)">
<rect x="168" y="360.5" width="16" height="16" rx="4" fill="#F6EEF7"/>
<path d="M176.104 371.5V365.641L174.889 366.055L174.763 365.686L176.203 365.155H176.563V371.5H176.104Z" fill="#190F19"/>
</g>
<path d="M194.031 364.562L197.969 368.5L194.031 372.438" stroke="#190F19" stroke-linecap="round" stroke-linejoin="round"/>
<rect x="329" y="320" width="141" height="67" rx="8" fill="#FBF9FB"/>
<path d="M355.429 342.857C355.429 339.3 349 330.714 349 330.714C349 330.714 342.572 339.3 342.572 342.857C342.572 344.562 343.249 346.197 344.454 347.402C345.66 348.608 347.295 349.285 349 349.285C350.705 349.285 352.34 348.608 353.546 347.402C354.751 346.197 355.429 344.562 355.429 342.857Z" fill="#190F19"/>
<path d="M365.456 345.5V335.7H366.142L370.076 341.496L374.01 335.7H374.696V345.5H373.968V336.988L370.09 342.63H370.034L366.156 336.988V345.5H365.456ZM379.626 345.668C378.898 345.668 378.254 345.472 377.694 345.08C377.144 344.679 376.868 344.128 376.868 343.428V343.4C376.868 342.663 377.153 342.093 377.722 341.692C378.292 341.281 379.048 341.076 379.99 341.076C380.793 341.076 381.582 341.179 382.356 341.384V341.076C382.356 340.357 382.151 339.816 381.74 339.452C381.33 339.079 380.751 338.892 380.004 338.892C379.258 338.892 378.511 339.083 377.764 339.466L377.512 338.864C378.362 338.453 379.206 338.248 380.046 338.248C381.026 338.248 381.778 338.509 382.3 339.032C382.786 339.517 383.028 340.189 383.028 341.048V345.5H382.356V344.31C381.694 345.215 380.784 345.668 379.626 345.668ZM379.668 345.024C380.415 345.024 381.05 344.819 381.572 344.408C382.104 343.988 382.37 343.461 382.37 342.826V342.014C381.53 341.799 380.723 341.692 379.948 341.692C379.202 341.692 378.623 341.841 378.212 342.14C377.802 342.439 377.596 342.845 377.596 343.358V343.386C377.596 343.881 377.797 344.277 378.198 344.576C378.609 344.875 379.099 345.024 379.668 345.024ZM385.789 338.36L388.183 341.384L390.605 338.36H391.431L388.617 341.846L391.543 345.5H390.689L388.169 342.322L385.649 345.5H384.823L387.735 341.86L384.935 338.36H385.789ZM393.494 336.498V335.56H394.348V336.498H393.494ZM393.578 345.5V338.36H394.264V345.5H393.578ZM399.346 345.626C398.749 345.626 398.263 345.463 397.89 345.136C397.526 344.809 397.344 344.319 397.344 343.666V338.99H396.308V338.36H397.344V336.078H398.03V338.36H400.536V338.99H398.03V343.596C398.03 344.52 398.506 344.982 399.458 344.982C399.785 344.982 400.135 344.898 400.508 344.73V345.374C400.135 345.542 399.747 345.626 399.346 345.626ZM402.572 345.5V338.36H403.258V340.39C403.556 339.727 403.981 339.2 404.532 338.808C405.092 338.416 405.722 338.229 406.422 338.248V339.004H406.352C405.484 339.004 404.751 339.321 404.154 339.956C403.556 340.591 403.258 341.463 403.258 342.574V345.5H402.572ZM413.604 344.562C412.904 345.299 412.031 345.668 410.986 345.668C409.94 345.668 409.068 345.304 408.368 344.576C407.677 343.848 407.332 342.975 407.332 341.958V341.93C407.332 340.913 407.682 340.035 408.382 339.298C409.091 338.561 409.968 338.192 411.014 338.192C412.059 338.192 412.927 338.556 413.618 339.284C414.318 340.012 414.668 340.885 414.668 341.902V341.93C414.668 342.947 414.313 343.825 413.604 344.562ZM411.014 345.024C411.854 345.024 412.549 344.725 413.1 344.128C413.65 343.531 413.926 342.807 413.926 341.958V341.93C413.926 341.062 413.641 340.329 413.072 339.732C412.502 339.135 411.807 338.836 410.986 338.836C410.146 338.836 409.45 339.135 408.9 339.732C408.349 340.329 408.074 341.053 408.074 341.902V341.93C408.074 342.798 408.358 343.531 408.928 344.128C409.497 344.725 410.192 345.024 411.014 345.024ZM416.875 345.5V335.28H417.561V345.5H416.875Z" fill="#190F19"/>
<path d="M347.511 367.917H349.5V366.75H348.52C348.765 366.365 348.917 365.98 348.917 365.583C348.917 364.049 347.458 363.25 346 363.25C344.629 363.25 343.392 364.452 343.252 364.586L344.081 365.414C344.361 365.134 345.247 364.417 346 364.417C346.607 364.417 347.75 364.662 347.75 365.583C347.75 365.875 347.458 366.307 347.027 366.75H342.5V367.917H345.784C345.539 368.127 344.687 368.891 344.489 369.083H342.5V370.25H343.48C343.235 370.635 343.083 371.02 343.083 371.417C343.083 372.951 344.542 373.75 346 373.75C347.371 373.75 348.607 372.548 348.747 372.414L347.919 371.586C347.645 371.866 346.753 372.583 346 372.583C345.393 372.583 344.25 372.338 344.25 371.417C344.25 371.125 344.542 370.693 344.973 370.25H349.5V369.083H346.222L347.511 367.917Z" fill="#190F19"/>
<path d="M364.23 374V371.606H358.924L358.672 371.06L364.272 364.13H364.93V370.976H366.526V371.606H364.93V374H364.23ZM359.554 370.976H364.23V365.18L359.554 370.976ZM368.92 374L373.372 364.9H367.688V364.2H374.184V364.732L369.718 374H368.92ZM375.42 374V373.454L379.074 370.15C379.877 369.422 380.437 368.811 380.754 368.316C381.081 367.821 381.244 367.317 381.244 366.804C381.244 366.179 381.025 365.675 380.586 365.292C380.157 364.9 379.639 364.704 379.032 364.704C378.435 364.704 377.917 364.853 377.478 365.152C377.039 365.441 376.601 365.899 376.162 366.524L375.616 366.16C376.083 365.46 376.577 364.937 377.1 364.592C377.632 364.237 378.299 364.06 379.102 364.06C379.933 364.06 380.623 364.317 381.174 364.83C381.734 365.343 382.014 365.983 382.014 366.748V366.776C382.014 367.42 381.832 368.008 381.468 368.54C381.113 369.063 380.479 369.744 379.564 370.584L376.568 373.3H382.112V374H375.42ZM384.154 374V372.81H385.078V374H384.154ZM390.915 374.168C389.702 374.168 388.722 373.678 387.975 372.698C387.238 371.718 386.869 370.528 386.869 369.128V369.1C386.869 368.195 387.032 367.359 387.359 366.594C387.686 365.829 388.162 365.213 388.787 364.746C389.422 364.27 390.14 364.032 390.943 364.032C392.156 364.032 393.132 364.522 393.869 365.502C394.616 366.482 394.989 367.672 394.989 369.072V369.1C394.989 370.005 394.826 370.841 394.499 371.606C394.172 372.371 393.692 372.992 393.057 373.468C392.432 373.935 391.718 374.168 390.915 374.168ZM390.943 373.51C391.914 373.51 392.702 373.076 393.309 372.208C393.925 371.34 394.233 370.313 394.233 369.128V369.1C394.233 367.905 393.925 366.874 393.309 366.006C392.693 365.129 391.895 364.69 390.915 364.69C389.944 364.69 389.151 365.124 388.535 365.992C387.928 366.86 387.625 367.887 387.625 369.072V369.1C387.625 370.285 387.933 371.317 388.549 372.194C389.165 373.071 389.963 373.51 390.943 373.51ZM400.854 374.168C399.641 374.168 398.661 373.678 397.914 372.698C397.177 371.718 396.808 370.528 396.808 369.128V369.1C396.808 368.195 396.972 367.359 397.298 366.594C397.625 365.829 398.101 365.213 398.726 364.746C399.361 364.27 400.08 364.032 400.882 364.032C402.096 364.032 403.071 364.522 403.808 365.502C404.555 366.482 404.928 367.672 404.928 369.072V369.1C404.928 370.005 404.765 370.841 404.438 371.606C404.112 372.371 403.631 372.992 402.996 373.468C402.371 373.935 401.657 374.168 400.854 374.168ZM400.882 373.51C401.853 373.51 402.642 373.076 403.248 372.208C403.864 371.34 404.172 370.313 404.172 369.128V369.1C404.172 367.905 403.864 366.874 403.248 366.006C402.632 365.129 401.834 364.69 400.854 364.69C399.884 364.69 399.09 365.124 398.474 365.992C397.868 366.86 397.564 367.887 397.564 369.072V369.1C397.564 370.285 397.872 371.317 398.488 372.194C399.104 373.071 399.902 373.51 400.882 373.51Z" fill="#190F19"/>
<path d="M414.969 364.562L411.031 368.5L414.969 372.438" stroke="#190F19" stroke-linecap="round" stroke-linejoin="round"/>
<g clip-path="url(#clip7_54_1280)">
<rect x="425" y="360.5" width="16" height="16" rx="4" fill="#F6EEF7"/>
<path d="M433.104 371.5V365.641L431.889 366.055L431.763 365.686L433.203 365.155H433.563V371.5H433.104Z" fill="#190F19"/>
</g>
<path d="M451.031 364.562L454.969 368.5L451.031 372.438" stroke="#190F19" stroke-linecap="round" stroke-linejoin="round"/>
<rect x="557" y="485" width="139" height="67" rx="8" fill="#FBF9FB"/>
<path d="M583.429 507.857C583.429 504.3 577 495.714 577 495.714C577 495.714 570.572 504.3 570.572 507.857C570.572 509.562 571.249 511.197 572.454 512.402C573.66 513.608 575.295 514.285 577 514.285C578.705 514.285 580.34 513.608 581.546 512.402C582.751 511.197 583.429 509.562 583.429 507.857Z" fill="#190F19"/>
<path d="M601.492 509.184C600.568 510.173 599.383 510.668 597.936 510.668C596.489 510.668 595.309 510.173 594.394 509.184C593.479 508.195 593.022 507.009 593.022 505.628V505.6C593.022 504.209 593.484 503.019 594.408 502.03C595.332 501.031 596.517 500.532 597.964 500.532C599.411 500.532 600.591 501.027 601.506 502.016C602.421 503.005 602.878 504.191 602.878 505.572V505.6C602.878 506.991 602.416 508.185 601.492 509.184ZM594.968 508.722C595.771 509.581 596.769 510.01 597.964 510.01C599.159 510.01 600.148 509.585 600.932 508.736C601.725 507.887 602.122 506.851 602.122 505.628V505.6C602.122 504.377 601.721 503.337 600.918 502.478C600.125 501.619 599.131 501.19 597.936 501.19C596.741 501.19 595.747 501.615 594.954 502.464C594.17 503.313 593.778 504.349 593.778 505.572V505.6C593.778 506.823 594.175 507.863 594.968 508.722ZM605.197 512.74V503.36H605.883V504.956C606.639 503.78 607.619 503.192 608.823 503.192C609.737 503.192 610.545 503.533 611.245 504.214C611.945 504.895 612.295 505.791 612.295 506.902V506.93C612.295 508.031 611.945 508.932 611.245 509.632C610.545 510.323 609.737 510.668 608.823 510.668C607.628 510.668 606.648 510.099 605.883 508.96V512.74H605.197ZM608.753 510.01C609.555 510.01 610.223 509.735 610.755 509.184C611.287 508.633 611.553 507.891 611.553 506.958V506.93C611.553 506.015 611.277 505.273 610.727 504.704C610.185 504.135 609.527 503.85 608.753 503.85C607.978 503.85 607.297 504.139 606.709 504.718C606.13 505.297 605.841 506.029 605.841 506.916V506.944C605.841 507.831 606.13 508.563 606.709 509.142C607.297 509.721 607.978 510.01 608.753 510.01ZM616.819 510.626C616.221 510.626 615.736 510.463 615.363 510.136C614.999 509.809 614.817 509.319 614.817 508.666V503.99H613.781V503.36H614.817V501.078H615.503V503.36H618.009V503.99H615.503V508.596C615.503 509.52 615.979 509.982 616.931 509.982C617.257 509.982 617.607 509.898 617.981 509.73V510.374C617.607 510.542 617.22 510.626 616.819 510.626ZM620.058 501.498V500.56H620.912V501.498H620.058ZM620.142 510.5V503.36H620.828V510.5H620.142ZM626.009 510.556L622.803 503.36H623.601L626.303 509.73L629.033 503.36H629.803L626.597 510.556H626.009ZM634.265 510.668C633.304 510.668 632.478 510.323 631.787 509.632C631.106 508.932 630.765 508.036 630.765 506.944V506.916C630.765 505.88 631.087 505.003 631.731 504.284C632.384 503.556 633.192 503.192 634.153 503.192C635.133 503.192 635.922 503.547 636.519 504.256C637.126 504.965 637.429 505.857 637.429 506.93C637.429 507.042 637.424 507.135 637.415 507.21H631.493C631.549 508.069 631.848 508.755 632.389 509.268C632.93 509.772 633.565 510.024 634.293 510.024C635.217 510.024 636.034 509.651 636.743 508.904L637.219 509.324C636.388 510.22 635.404 510.668 634.265 510.668ZM631.493 506.594H636.687C636.622 505.81 636.37 505.152 635.931 504.62C635.502 504.088 634.9 503.822 634.125 503.822C633.425 503.822 632.823 504.088 632.319 504.62C631.824 505.143 631.549 505.801 631.493 506.594Z" fill="#190F19"/>
<path d="M575.511 532.917H577.5V531.75H576.52C576.765 531.365 576.917 530.98 576.917 530.583C576.917 529.049 575.458 528.25 574 528.25C572.629 528.25 571.392 529.452 571.252 529.586L572.081 530.414C572.361 530.134 573.247 529.417 574 529.417C574.607 529.417 575.75 529.662 575.75 530.583C575.75 530.875 575.458 531.307 575.027 531.75H570.5V532.917H573.784C573.539 533.127 572.687 533.891 572.489 534.083H570.5V535.25H571.48C571.235 535.635 571.083 536.02 571.083 536.417C571.083 537.951 572.542 538.75 574 538.75C575.371 538.75 576.607 537.548 576.747 537.414L575.919 536.586C575.645 536.866 574.753 537.583 574 537.583C573.393 537.583 572.25 537.338 572.25 536.417C572.25 536.125 572.542 535.693 572.973 535.25H577.5V534.083H574.222L575.511 532.917Z" fill="#190F19"/>
<path d="M588.506 539V529.886L586.616 530.53L586.42 529.956L588.66 529.13H589.22V539H588.506ZM595.645 539.168C594.432 539.168 593.452 538.678 592.705 537.698C591.968 536.718 591.599 535.528 591.599 534.128V534.1C591.599 533.195 591.763 532.359 592.089 531.594C592.416 530.829 592.892 530.213 593.517 529.746C594.152 529.27 594.871 529.032 595.673 529.032C596.887 529.032 597.862 529.522 598.599 530.502C599.346 531.482 599.719 532.672 599.719 534.072V534.1C599.719 535.005 599.556 535.841 599.229 536.606C598.903 537.371 598.422 537.992 597.787 538.468C597.162 538.935 596.448 539.168 595.645 539.168ZM595.673 538.51C596.644 538.51 597.433 538.076 598.039 537.208C598.655 536.34 598.963 535.313 598.963 534.128V534.1C598.963 532.905 598.655 531.874 598.039 531.006C597.423 530.129 596.625 529.69 595.645 529.69C594.675 529.69 593.881 530.124 593.265 530.992C592.659 531.86 592.355 532.887 592.355 534.072V534.1C592.355 535.285 592.663 536.317 593.279 537.194C593.895 538.071 594.693 538.51 595.673 538.51ZM604.846 539.168C603.344 539.168 602.144 538.58 601.248 537.404L601.808 536.942C602.62 537.987 603.638 538.51 604.86 538.51C605.523 538.51 606.092 538.309 606.568 537.908C607.044 537.497 607.282 536.975 607.282 536.34V536.312C607.282 535.64 606.998 535.117 606.428 534.744C605.868 534.371 605.136 534.184 604.23 534.184H603.698L603.516 533.778L606.89 529.886H601.752V529.2H607.884V529.718L604.566 533.512C605.574 533.568 606.405 533.834 607.058 534.31C607.712 534.777 608.038 535.435 608.038 536.284V536.312C608.038 537.152 607.726 537.838 607.1 538.37C606.475 538.902 605.724 539.168 604.846 539.168ZM610.185 539V537.81H611.109V539H610.185ZM616.946 539.168C615.733 539.168 614.753 538.678 614.006 537.698C613.269 536.718 612.9 535.528 612.9 534.128V534.1C612.9 533.195 613.064 532.359 613.39 531.594C613.717 530.829 614.193 530.213 614.818 529.746C615.453 529.27 616.172 529.032 616.974 529.032C618.188 529.032 619.163 529.522 619.9 530.502C620.647 531.482 621.02 532.672 621.02 534.072V534.1C621.02 535.005 620.857 535.841 620.53 536.606C620.204 537.371 619.723 537.992 619.088 538.468C618.463 538.935 617.749 539.168 616.946 539.168ZM616.974 538.51C617.945 538.51 618.734 538.076 619.34 537.208C619.956 536.34 620.264 535.313 620.264 534.128V534.1C620.264 532.905 619.956 531.874 619.34 531.006C618.724 530.129 617.926 529.69 616.946 529.69C615.976 529.69 615.182 530.124 614.566 530.992C613.96 531.86 613.656 532.887 613.656 534.072V534.1C613.656 535.285 613.964 536.317 614.58 537.194C615.196 538.071 615.994 538.51 616.974 538.51ZM626.886 539.168C625.672 539.168 624.692 538.678 623.946 537.698C623.208 536.718 622.84 535.528 622.84 534.128V534.1C622.84 533.195 623.003 532.359 623.33 531.594C623.656 530.829 624.132 530.213 624.758 529.746C625.392 529.27 626.111 529.032 626.914 529.032C628.127 529.032 629.102 529.522 629.84 530.502C630.586 531.482 630.96 532.672 630.96 534.072V534.1C630.96 535.005 630.796 535.841 630.47 536.606C630.143 537.371 629.662 537.992 629.028 538.468C628.402 538.935 627.688 539.168 626.886 539.168ZM626.914 538.51C627.884 538.51 628.673 538.076 629.28 537.208C629.896 536.34 630.204 535.313 630.204 534.128V534.1C630.204 532.905 629.896 531.874 629.28 531.006C628.664 530.129 627.866 529.69 626.886 529.69C625.915 529.69 625.122 530.124 624.506 530.992C623.899 531.86 623.596 532.887 623.596 534.072V534.1C623.596 535.285 623.904 536.317 624.52 537.194C625.136 538.071 625.934 538.51 626.914 538.51Z" fill="#190F19"/>
<path d="M640.969 529.562L637.031 533.5L640.969 537.438" stroke="#190F19" stroke-linecap="round" stroke-linejoin="round"/>
<g clip-path="url(#clip8_54_1280)">
<rect x="651" y="525.5" width="16" height="16" rx="4" fill="#F6EEF7"/>
<path d="M659.104 536.5V530.641L657.889 531.055L657.763 530.686L659.203 530.155H659.563V536.5H659.104Z" fill="#190F19"/>
</g>
<path d="M677.031 529.562L680.969 533.5L677.031 537.438" stroke="#190F19" stroke-linecap="round" stroke-linejoin="round"/>
<rect x="24" y="462" width="139" height="67" rx="8" fill="#FBF9FB"/>
<path d="M50.4287 484.857C50.4287 481.3 44.0001 472.714 44.0001 472.714C44.0001 472.714 37.5715 481.3 37.5715 484.857C37.5715 486.562 38.2488 488.197 39.4544 489.402C40.66 490.608 42.2951 491.285 44.0001 491.285C45.7051 491.285 47.3402 490.608 48.5458 489.402C49.7514 488.197 50.4287 486.562 50.4287 484.857Z" fill="#190F19"/>
<path d="M63.928 487.57L59.616 477.7H60.428L64.264 486.716L68.114 477.7H68.884L64.572 487.57H63.928ZM70.5426 478.498V477.56H71.3966V478.498H70.5426ZM70.6266 487.5V480.36H71.3126V487.5H70.6266ZM74.0149 487.5V480.36H74.7009V482.39C74.9996 481.727 75.4242 481.2 75.9749 480.808C76.5349 480.416 77.1649 480.229 77.8649 480.248V481.004H77.7949C76.9269 481.004 76.1942 481.321 75.5969 481.956C74.9996 482.591 74.7009 483.463 74.7009 484.574V487.5H74.0149ZM82.4009 489.768C81.1969 489.768 80.1049 489.404 79.1249 488.676L79.5309 488.116C80.3989 488.788 81.3602 489.124 82.4149 489.124C83.2549 489.124 83.9316 488.881 84.4449 488.396C84.9582 487.92 85.2149 487.239 85.2149 486.352V485.316C84.4309 486.417 83.4369 486.968 82.2329 486.968C81.3276 486.968 80.5296 486.655 79.8389 486.03C79.1482 485.395 78.8029 484.588 78.8029 483.608V483.58C78.8029 482.581 79.1482 481.769 79.8389 481.144C80.5296 480.509 81.3276 480.192 82.2329 480.192C83.4556 480.192 84.4496 480.724 85.2149 481.788V480.36H85.9009V486.394C85.9009 487.402 85.5976 488.209 84.9909 488.816C84.3562 489.451 83.4929 489.768 82.4009 489.768ZM82.3029 486.31C83.0869 486.31 83.7729 486.053 84.3609 485.54C84.9582 485.027 85.2569 484.378 85.2569 483.594V483.566C85.2569 482.773 84.9582 482.124 84.3609 481.62C83.7729 481.107 83.0869 480.85 82.3029 480.85C81.5282 480.85 80.8749 481.097 80.3429 481.592C79.8109 482.087 79.5449 482.74 79.5449 483.552V483.58C79.5449 484.364 79.8156 485.017 80.3569 485.54C80.8982 486.053 81.5469 486.31 82.3029 486.31ZM90.6771 487.668C89.9491 487.668 89.3051 487.472 88.7451 487.08C88.1944 486.679 87.9191 486.128 87.9191 485.428V485.4C87.9191 484.663 88.2037 484.093 88.7731 483.692C89.3424 483.281 90.0984 483.076 91.0411 483.076C91.8437 483.076 92.6324 483.179 93.4071 483.384V483.076C93.4071 482.357 93.2017 481.816 92.7911 481.452C92.3804 481.079 91.8017 480.892 91.0551 480.892C90.3084 480.892 89.5617 481.083 88.8151 481.466L88.5631 480.864C89.4124 480.453 90.2571 480.248 91.0971 480.248C92.0771 480.248 92.8284 480.509 93.3511 481.032C93.8364 481.517 94.0791 482.189 94.0791 483.048V487.5H93.4071V486.31C92.7444 487.215 91.8344 487.668 90.6771 487.668ZM90.7191 487.024C91.4657 487.024 92.1004 486.819 92.6231 486.408C93.1551 485.988 93.4211 485.461 93.4211 484.826V484.014C92.5811 483.799 91.7737 483.692 90.9991 483.692C90.2524 483.692 89.6737 483.841 89.2631 484.14C88.8524 484.439 88.6471 484.845 88.6471 485.358V485.386C88.6471 485.881 88.8477 486.277 89.2491 486.576C89.6597 486.875 90.1497 487.024 90.7191 487.024ZM96.5461 487.5V480.36H97.2321V481.69C97.8108 480.691 98.6695 480.192 99.8081 480.192C100.695 480.192 101.39 480.463 101.894 481.004C102.407 481.545 102.664 482.255 102.664 483.132V487.5H101.978V483.258C101.978 482.511 101.777 481.919 101.376 481.48C100.984 481.041 100.429 480.822 99.7101 480.822C99.0008 480.822 98.4081 481.06 97.9321 481.536C97.4655 482.012 97.2321 482.623 97.2321 483.37V487.5H96.5461Z" fill="#190F19"/>
<path d="M42.5108 509.917H44.5V508.75H43.52C43.765 508.365 43.9167 507.98 43.9167 507.583C43.9167 506.049 42.4583 505.25 41 505.25C39.6292 505.25 38.3925 506.452 38.2525 506.586L39.0808 507.414C39.3608 507.134 40.2475 506.417 41 506.417C41.6067 506.417 42.75 506.662 42.75 507.583C42.75 507.875 42.4583 508.307 42.0267 508.75H37.5V509.917H40.7842C40.5392 510.127 39.6875 510.891 39.4892 511.083H37.5V512.25H38.48C38.235 512.635 38.0833 513.02 38.0833 513.417C38.0833 514.951 39.5417 515.75 41 515.75C42.3708 515.75 43.6075 514.548 43.7475 514.414L42.9192 513.586C42.645 513.866 41.7525 514.583 41 514.583C40.3933 514.583 39.25 514.338 39.25 513.417C39.25 513.125 39.5417 512.693 39.9733 512.25H44.5V511.083H41.2217L42.5108 509.917Z" fill="#190F19"/>
<path d="M55.184 516L59.636 506.9H53.952V506.2H60.448V506.732L55.982 516H55.184ZM63.8595 516V506.886L61.9695 507.53L61.7735 506.956L64.0135 506.13H64.5735V516H63.8595ZM70.999 516.168C69.7856 516.168 68.8056 515.678 68.059 514.698C67.3216 513.718 66.953 512.528 66.953 511.128V511.1C66.953 510.195 67.1163 509.359 67.443 508.594C67.7696 507.829 68.2456 507.213 68.871 506.746C69.5056 506.27 70.2243 506.032 71.027 506.032C72.2403 506.032 73.2156 506.522 73.953 507.502C74.6996 508.482 75.073 509.672 75.073 511.072V511.1C75.073 512.005 74.9096 512.841 74.583 513.606C74.2563 514.371 73.7756 514.992 73.141 515.468C72.5156 515.935 71.8016 516.168 70.999 516.168ZM71.027 515.51C71.9976 515.51 72.7863 515.076 73.393 514.208C74.009 513.34 74.317 512.313 74.317 511.128V511.1C74.317 509.905 74.009 508.874 73.393 508.006C72.777 507.129 71.979 506.69 70.999 506.69C70.0283 506.69 69.235 507.124 68.619 507.992C68.0123 508.86 67.709 509.887 67.709 511.072V511.1C67.709 512.285 68.017 513.317 68.633 514.194C69.249 515.071 70.047 515.51 71.027 515.51ZM76.857 516V514.81H77.781V516H76.857ZM83.6181 516.168C82.4048 516.168 81.4248 515.678 80.6781 514.698C79.9408 513.718 79.5721 512.528 79.5721 511.128V511.1C79.5721 510.195 79.7354 509.359 80.0621 508.594C80.3888 507.829 80.8648 507.213 81.4901 506.746C82.1248 506.27 82.8434 506.032 83.6461 506.032C84.8594 506.032 85.8348 506.522 86.5721 507.502C87.3188 508.482 87.6921 509.672 87.6921 511.072V511.1C87.6921 512.005 87.5288 512.841 87.2021 513.606C86.8754 514.371 86.3948 514.992 85.7601 515.468C85.1348 515.935 84.4208 516.168 83.6181 516.168ZM83.6461 515.51C84.6168 515.51 85.4054 515.076 86.0121 514.208C86.6281 513.34 86.9361 512.313 86.9361 511.128V511.1C86.9361 509.905 86.6281 508.874 86.0121 508.006C85.3961 507.129 84.5981 506.69 83.6181 506.69C82.6474 506.69 81.8541 507.124 81.2381 507.992C80.6314 508.86 80.3281 509.887 80.3281 511.072V511.1C80.3281 512.285 80.6361 513.317 81.2521 514.194C81.8681 515.071 82.6661 515.51 83.6461 515.51ZM93.5576 516.168C92.3442 516.168 91.3642 515.678 90.6176 514.698C89.8802 513.718 89.5116 512.528 89.5116 511.128V511.1C89.5116 510.195 89.6749 509.359 90.0016 508.594C90.3282 507.829 90.8042 507.213 91.4296 506.746C92.0642 506.27 92.7829 506.032 93.5856 506.032C94.7989 506.032 95.7742 506.522 96.5116 507.502C97.2582 508.482 97.6316 509.672 97.6316 511.072V511.1C97.6316 512.005 97.4682 512.841 97.1416 513.606C96.8149 514.371 96.3342 514.992 95.6996 515.468C95.0742 515.935 94.3602 516.168 93.5576 516.168ZM93.5856 515.51C94.5562 515.51 95.3449 515.076 95.9516 514.208C96.5676 513.34 96.8756 512.313 96.8756 511.128V511.1C96.8756 509.905 96.5676 508.874 95.9516 508.006C95.3356 507.129 94.5376 506.69 93.5576 506.69C92.5869 506.69 91.7936 507.124 91.1776 507.992C90.5709 508.86 90.2676 509.887 90.2676 511.072V511.1C90.2676 512.285 90.5756 513.317 91.1916 514.194C91.8076 515.071 92.6056 515.51 93.5856 515.51Z" fill="#190F19"/>
<path d="M107.969 506.562L104.031 510.5L107.969 514.438" stroke="#190F19" stroke-linecap="round" stroke-linejoin="round"/>
<g clip-path="url(#clip9_54_1280)">
<rect x="118" y="502.5" width="16" height="16" rx="4" fill="#F6EEF7"/>
<path d="M126.104 513.5V507.641L124.889 508.055L124.763 507.686L126.203 507.155H126.563V513.5H126.104Z" fill="#190F19"/>
</g>
<path d="M144.031 506.562L147.969 510.5L144.031 514.438" stroke="#190F19" stroke-linecap="round" stroke-linejoin="round"/>
<rect x="535" y="179" width="138" height="67" rx="8" fill="#FBF9FB"/>
<path d="M561.429 201.857C561.429 198.3 555 189.714 555 189.714C555 189.714 548.572 198.3 548.572 201.857C548.572 203.562 549.249 205.197 550.454 206.402C551.66 207.608 553.295 208.285 555 208.285C556.705 208.285 558.34 207.608 559.546 206.402C560.751 205.197 561.429 203.562 561.429 201.857Z" fill="#190F19"/>
<path d="M579.492 203.184C578.568 204.173 577.383 204.668 575.936 204.668C574.489 204.668 573.309 204.173 572.394 203.184C571.479 202.195 571.022 201.009 571.022 199.628V199.6C571.022 198.209 571.484 197.019 572.408 196.03C573.332 195.031 574.517 194.532 575.964 194.532C577.411 194.532 578.591 195.027 579.506 196.016C580.421 197.005 580.878 198.191 580.878 199.572V199.6C580.878 200.991 580.416 202.185 579.492 203.184ZM572.968 202.722C573.771 203.581 574.769 204.01 575.964 204.01C577.159 204.01 578.148 203.585 578.932 202.736C579.725 201.887 580.122 200.851 580.122 199.628V199.6C580.122 198.377 579.721 197.337 578.918 196.478C578.125 195.619 577.131 195.19 575.936 195.19C574.741 195.19 573.747 195.615 572.954 196.464C572.17 197.313 571.778 198.349 571.778 199.572V199.6C571.778 200.823 572.175 201.863 572.968 202.722ZM583.617 204.5V197.99H582.581V197.36H583.617V196.66C583.617 195.839 583.827 195.218 584.247 194.798C584.62 194.425 585.119 194.238 585.745 194.238C586.127 194.238 586.482 194.294 586.809 194.406V195.05C586.417 194.929 586.062 194.868 585.745 194.868C584.783 194.868 584.303 195.47 584.303 196.674V197.36H586.795V197.99H584.303V204.5H583.617ZM590.649 204.626C590.051 204.626 589.566 204.463 589.193 204.136C588.829 203.809 588.647 203.319 588.647 202.666V197.99H587.611V197.36H588.647V195.078H589.333V197.36H591.839V197.99H589.333V202.596C589.333 203.52 589.809 203.982 590.761 203.982C591.087 203.982 591.437 203.898 591.811 203.73V204.374C591.437 204.542 591.05 204.626 590.649 204.626ZM596.044 204.668C595.316 204.668 594.672 204.472 594.112 204.08C593.562 203.679 593.286 203.128 593.286 202.428V202.4C593.286 201.663 593.571 201.093 594.14 200.692C594.71 200.281 595.466 200.076 596.408 200.076C597.211 200.076 598 200.179 598.774 200.384V200.076C598.774 199.357 598.569 198.816 598.158 198.452C597.748 198.079 597.169 197.892 596.422 197.892C595.676 197.892 594.929 198.083 594.182 198.466L593.93 197.864C594.78 197.453 595.624 197.248 596.464 197.248C597.444 197.248 598.196 197.509 598.718 198.032C599.204 198.517 599.446 199.189 599.446 200.048V204.5H598.774V203.31C598.112 204.215 597.202 204.668 596.044 204.668ZM596.086 204.024C596.833 204.024 597.468 203.819 597.99 203.408C598.522 202.988 598.788 202.461 598.788 201.826V201.014C597.948 200.799 597.141 200.692 596.366 200.692C595.62 200.692 595.041 200.841 594.63 201.14C594.22 201.439 594.014 201.845 594.014 202.358V202.386C594.014 202.881 594.215 203.277 594.616 203.576C595.027 203.875 595.517 204.024 596.086 204.024ZM607.863 206.74V202.904C607.07 204.08 606.09 204.668 604.923 204.668C604.009 204.668 603.201 204.327 602.501 203.646C601.801 202.965 601.451 202.069 601.451 200.958V200.93C601.451 199.829 601.801 198.933 602.501 198.242C603.201 197.542 604.009 197.192 604.923 197.192C606.118 197.192 607.098 197.761 607.863 198.9V197.36H608.549V206.74H607.863ZM603.005 203.156C603.556 203.725 604.219 204.01 604.993 204.01C605.768 204.01 606.445 203.721 607.023 203.142C607.611 202.563 607.905 201.831 607.905 200.944V200.916C607.905 200.029 607.611 199.297 607.023 198.718C606.445 198.139 605.768 197.85 604.993 197.85C604.191 197.85 603.523 198.125 602.991 198.676C602.459 199.227 602.193 199.969 602.193 200.902V200.93C602.193 201.845 602.464 202.587 603.005 203.156ZM613.872 204.668C612.985 204.668 612.285 204.397 611.772 203.856C611.268 203.315 611.016 202.605 611.016 201.728V197.36H611.702V201.602C611.702 202.349 611.898 202.941 612.29 203.38C612.691 203.819 613.251 204.038 613.97 204.038C614.679 204.038 615.267 203.8 615.734 203.324C616.21 202.848 616.448 202.237 616.448 201.49V197.36H617.134V204.5H616.448V203.17C615.869 204.169 615.01 204.668 613.872 204.668ZM619.755 195.498V194.56H620.609V195.498H619.755ZM619.839 204.5V197.36H620.525V204.5H619.839ZM623.522 197.36L625.916 200.384L628.338 197.36H629.164L626.35 200.846L629.276 204.5H628.422L625.902 201.322L623.382 204.5H622.556L625.468 200.86L622.668 197.36H623.522Z" fill="#190F19"/>
<path d="M553.511 226.917H555.5V225.75H554.52C554.765 225.365 554.917 224.98 554.917 224.583C554.917 223.049 553.458 222.25 552 222.25C550.629 222.25 549.392 223.452 549.252 223.586L550.081 224.414C550.361 224.134 551.247 223.417 552 223.417C552.607 223.417 553.75 223.662 553.75 224.583C553.75 224.875 553.458 225.307 553.027 225.75H548.5V226.917H551.784C551.539 227.127 550.687 227.891 550.489 228.083H548.5V229.25H549.48C549.235 229.635 549.083 230.02 549.083 230.417C549.083 231.951 550.542 232.75 552 232.75C553.371 232.75 554.607 231.548 554.747 231.414L553.919 230.586C553.645 230.866 552.753 231.583 552 231.583C551.393 231.583 550.25 231.338 550.25 230.417C550.25 230.125 550.542 229.693 550.973 229.25H555.5V228.083H552.222L553.511 226.917Z" fill="#190F19"/>
<path d="M564.672 233V232.454L568.326 229.15C569.129 228.422 569.689 227.811 570.006 227.316C570.333 226.821 570.496 226.317 570.496 225.804C570.496 225.179 570.277 224.675 569.838 224.292C569.409 223.9 568.891 223.704 568.284 223.704C567.687 223.704 567.169 223.853 566.73 224.152C566.291 224.441 565.853 224.899 565.414 225.524L564.868 225.16C565.335 224.46 565.829 223.937 566.352 223.592C566.884 223.237 567.551 223.06 568.354 223.06C569.185 223.06 569.875 223.317 570.426 223.83C570.986 224.343 571.266 224.983 571.266 225.748V225.776C571.266 226.42 571.084 227.008 570.72 227.54C570.365 228.063 569.731 228.744 568.816 229.584L565.82 232.3H571.364V233H564.672ZM572.93 233V232.454L576.584 229.15C577.386 228.422 577.946 227.811 578.264 227.316C578.59 226.821 578.754 226.317 578.754 225.804C578.754 225.179 578.534 224.675 578.096 224.292C577.666 223.9 577.148 223.704 576.542 223.704C575.944 223.704 575.426 223.853 574.988 224.152C574.549 224.441 574.11 224.899 573.672 225.524L573.126 225.16C573.592 224.46 574.087 223.937 574.61 223.592C575.142 223.237 575.809 223.06 576.612 223.06C577.442 223.06 578.133 223.317 578.684 223.83C579.244 224.343 579.524 224.983 579.524 225.748V225.776C579.524 226.42 579.342 227.008 578.978 227.54C578.623 228.063 577.988 228.744 577.074 229.584L574.078 232.3H579.622V233H572.93ZM583.022 233V223.886L581.132 224.53L580.936 223.956L583.176 223.13H583.736V233H583.022ZM586.353 233V231.81H587.277V233H586.353ZM593.114 233.168C591.901 233.168 590.921 232.678 590.174 231.698C589.437 230.718 589.068 229.528 589.068 228.128V228.1C589.068 227.195 589.232 226.359 589.558 225.594C589.885 224.829 590.361 224.213 590.986 223.746C591.621 223.27 592.34 223.032 593.142 223.032C594.356 223.032 595.331 223.522 596.068 224.502C596.815 225.482 597.188 226.672 597.188 228.072V228.1C597.188 229.005 597.025 229.841 596.698 230.606C596.372 231.371 595.891 231.992 595.256 232.468C594.631 232.935 593.917 233.168 593.114 233.168ZM593.142 232.51C594.113 232.51 594.902 232.076 595.508 231.208C596.124 230.34 596.432 229.313 596.432 228.128V228.1C596.432 226.905 596.124 225.874 595.508 225.006C594.892 224.129 594.094 223.69 593.114 223.69C592.144 223.69 591.35 224.124 590.734 224.992C590.128 225.86 589.824 226.887 589.824 228.072V228.1C589.824 229.285 590.132 230.317 590.748 231.194C591.364 232.071 592.162 232.51 593.142 232.51ZM603.054 233.168C601.84 233.168 600.86 232.678 600.114 231.698C599.376 230.718 599.008 229.528 599.008 228.128V228.1C599.008 227.195 599.171 226.359 599.498 225.594C599.824 224.829 600.3 224.213 600.926 223.746C601.56 223.27 602.279 223.032 603.082 223.032C604.295 223.032 605.27 223.522 606.008 224.502C606.754 225.482 607.128 226.672 607.128 228.072V228.1C607.128 229.005 606.964 229.841 606.638 230.606C606.311 231.371 605.83 231.992 605.196 232.468C604.57 232.935 603.856 233.168 603.054 233.168ZM603.082 232.51C604.052 232.51 604.841 232.076 605.448 231.208C606.064 230.34 606.372 229.313 606.372 228.128V228.1C606.372 226.905 606.064 225.874 605.448 225.006C604.832 224.129 604.034 223.69 603.054 223.69C602.083 223.69 601.29 224.124 600.674 224.992C600.067 225.86 599.764 226.887 599.764 228.072V228.1C599.764 229.285 600.072 230.317 600.688 231.194C601.304 232.071 602.102 232.51 603.082 232.51Z" fill="#190F19"/>
<path d="M617.969 223.562L614.031 227.5L617.969 231.438" stroke="#190F19" stroke-linecap="round" stroke-linejoin="round"/>
<g clip-path="url(#clip10_54_1280)">
<rect x="628" y="219.5" width="16" height="16" rx="4" fill="#F6EEF7"/>
<path d="M636.104 230.5V224.641L634.889 225.055L634.763 224.686L636.203 224.155H636.563V230.5H636.104Z" fill="#190F19"/>
</g>
<path d="M654.031 223.562L657.969 227.5L654.031 231.438" stroke="#190F19" stroke-linecap="round" stroke-linejoin="round"/>
<defs>
<clipPath id="clip0_54_1280">
<rect x="152" y="90.5" width="16" height="16" rx="4" fill="white"/>
</clipPath>
<clipPath id="clip1_54_1280">
<rect x="295" y="266.5" width="16" height="16" rx="4" fill="white"/>
</clipPath>
<clipPath id="clip2_54_1280">
<rect x="360" y="468.5" width="16" height="16" rx="4" fill="white"/>
</clipPath>
<clipPath id="clip3_54_1280">
<rect x="439" y="147.5" width="16" height="16" rx="4" fill="white"/>
</clipPath>
<clipPath id="clip4_54_1280">
<rect x="355" y="49.5" width="16" height="16" rx="4" fill="white"/>
</clipPath>
<clipPath id="clip5_54_1280">
<rect x="651" y="90.5" width="16" height="16" rx="4" fill="white"/>
</clipPath>
<clipPath id="clip6_54_1280">
<rect x="168" y="360.5" width="16" height="16" rx="4" fill="white"/>
</clipPath>
<clipPath id="clip7_54_1280">
<rect x="425" y="360.5" width="16" height="16" rx="4" fill="white"/>
</clipPath>
<clipPath id="clip8_54_1280">
<rect x="651" y="525.5" width="16" height="16" rx="4" fill="white"/>
</clipPath>
<clipPath id="clip9_54_1280">
<rect x="118" y="502.5" width="16" height="16" rx="4" fill="white"/>
</clipPath>
<clipPath id="clip10_54_1280">
<rect x="628" y="219.5" width="16" height="16" rx="4" fill="white"/>
</clipPath>
</defs>
</svg>
