<svg width="750" height="570" viewBox="0 0 750 570" fill="none" xmlns="http://www.w3.org/2000/svg">
<g clip-path="url(#clip0_76_2983)">
<path opacity="0.5" d="M444.833 41.2152L450.128 38.3006L450.369 38.7386L453.017 37.2813C453.778 36.8621 454.552 36.5196 455.332 36.2494L455.168 35.777C456.876 35.1848 458.614 34.9274 460.315 34.9647L460.304 35.4646C462.012 35.5021 463.683 35.8472 465.244 36.4572L465.426 35.9915C467.055 36.628 468.567 37.5429 469.887 38.6902L469.559 39.0675C470.824 40.1671 471.906 41.4865 472.732 42.9818L473.169 42.74C473.992 44.2293 474.571 45.8879 474.84 47.6761L474.345 47.7504C474.468 48.5661 474.524 49.4106 474.506 50.2798L474.444 53.3009L474.944 53.3111L474.821 59.354L474.321 59.3438L474.198 65.3866L474.698 65.3968L474.574 71.4396L474.074 71.4294L473.951 77.4723L474.451 77.4825L474.328 83.5253L473.828 83.5151L473.705 89.558L474.204 89.5682L474.081 95.611L473.581 95.6008L473.458 101.644L473.958 101.654L473.835 107.697L473.335 107.686L473.211 113.729L473.711 113.74L473.588 119.782L473.088 119.772L472.965 125.815L473.465 125.825L473.341 131.868L472.842 131.858L472.718 137.901L473.218 137.911L473.095 143.954L472.595 143.944L472.472 149.986L472.972 149.997L472.848 156.039L472.348 156.029L472.225 162.072L472.725 162.082L472.602 168.125L472.102 168.115L471.978 174.158L472.478 174.168L472.355 180.211L471.855 180.201L471.732 186.243L472.232 186.254L472.108 192.296L471.609 192.286L471.485 198.329L471.985 198.339L471.862 204.382L471.362 204.372L471.239 210.415L471.739 210.425L471.615 216.468L471.115 216.458L470.992 222.5L471.492 222.511L471.369 228.553L470.869 228.543L470.745 234.586L471.245 234.596L471.122 240.639L470.622 240.629L470.499 246.672L470.999 246.682L470.875 252.725L470.376 252.715L470.252 258.757L470.752 258.768L470.629 264.811L470.129 264.8L470.006 270.843L470.506 270.853L470.382 276.896L469.882 276.886L469.759 282.929L470.259 282.939L470.136 288.982L469.636 288.972L469.513 295.015L470.012 295.025L469.889 301.068L469.389 301.057L469.266 307.1L469.766 307.11L469.643 313.153L469.143 313.143L469.019 319.186L469.519 319.196L469.396 325.239L468.896 325.229L468.773 331.272L469.273 331.282L469.149 337.325L468.649 337.314L468.526 343.357L469.026 343.367L468.903 349.41L468.403 349.4L468.28 355.443L468.779 355.453L468.656 361.496L468.156 361.486L468.033 367.529L468.533 367.539L468.41 373.582L467.91 373.571L467.786 379.614L468.286 379.625L468.163 385.667L467.663 385.657L467.54 391.7L468.04 391.71L467.916 397.753L467.416 397.743L467.293 403.786L467.793 403.796L467.67 409.839L467.17 409.829L467.047 415.871L467.547 415.882L467.423 421.924L466.923 421.914L466.8 427.957L467.3 427.967L467.177 434.01L466.677 434L466.553 440.043L467.053 440.053L466.93 446.096L466.43 446.086L466.307 452.128L466.807 452.139L466.683 458.181L466.184 458.171L466.06 464.214L466.56 464.224L466.437 470.267L465.937 470.257L465.814 476.3L466.314 476.31L466.19 482.353L465.69 482.343L465.567 488.385L466.067 488.396L465.944 494.438L465.444 494.428L465.32 500.471L465.82 500.481L465.697 506.524L465.197 506.514L465.074 512.557L465.574 512.567L465.45 518.61L464.951 518.6L464.827 524.642L465.327 524.653L465.204 530.695L464.704 530.685L464.581 536.728L465.081 536.738L464.957 542.781L464.457 542.771L464.396 545.792C464.378 546.662 464.288 547.503 464.132 548.313L464.623 548.407C464.282 550.183 463.636 551.817 462.753 553.271L462.325 553.012C461.439 554.472 460.305 555.746 458.996 556.793L459.308 557.184C457.942 558.276 456.394 559.129 454.74 559.698L454.577 559.226C452.993 559.771 451.309 560.048 449.601 560.016L449.592 560.516C447.891 560.484 446.165 560.156 444.482 559.494L444.665 559.029C443.897 558.727 443.138 558.353 442.394 557.903L439.808 556.339L439.55 556.767L434.378 553.639L434.637 553.211L429.465 550.083L429.207 550.511L424.035 547.383L424.294 546.955L419.122 543.827L418.863 544.254L413.692 541.126L413.95 540.698L408.779 537.57L408.52 537.998L403.348 534.87L403.607 534.442L398.436 531.314L398.177 531.742L393.005 528.613L393.264 528.186L388.092 525.057L387.834 525.485L382.662 522.357L382.921 521.929L377.749 518.801L377.49 519.229L372.319 516.101L372.578 515.673L367.406 512.545L367.147 512.972L361.976 509.844L362.234 509.416L357.063 506.288L356.804 506.716L351.632 503.588L351.891 503.16L346.72 500.032L346.461 500.46L341.289 497.332L341.548 496.904L336.376 493.775L336.118 494.203L330.946 491.075L331.205 490.647L326.033 487.519L325.774 487.947L320.603 484.819L320.862 484.391L315.69 481.263L315.431 481.691L310.26 478.562L310.518 478.134L305.347 475.006L305.088 475.434L299.916 472.306L300.175 471.878L295.004 468.75L294.745 469.178L289.573 466.05L289.832 465.622L284.66 462.494L284.402 462.921L279.23 459.793L279.489 459.365L274.317 456.237L274.058 456.665L268.887 453.537L269.146 453.109L263.974 449.981L263.715 450.409L258.544 447.28L258.802 446.853L253.631 443.724L253.372 444.152L248.2 441.024L248.459 440.596L243.288 437.468L243.029 437.896L237.857 434.768L238.116 434.34L232.944 431.212L232.686 431.639L227.514 428.511L227.773 428.083L222.601 424.955L222.342 425.383L217.171 422.255L217.429 421.827L212.258 418.699L211.999 419.127L206.827 415.998L207.086 415.571L201.915 412.442L201.656 412.87L196.484 409.742L196.743 409.314L191.571 406.186L191.313 406.614L186.141 403.486L186.4 403.058L181.228 399.93L180.969 400.357L175.798 397.229L176.057 396.801L170.885 393.673L170.626 394.101L165.455 390.973L165.713 390.545L160.542 387.417L160.283 387.845L155.111 384.716L155.37 384.289L150.199 381.16L149.94 381.588L144.768 378.46L145.027 378.032L139.855 374.904L139.597 375.332L134.425 372.204L134.684 371.776L129.512 368.648L129.253 369.075L124.082 365.947L124.341 365.519L119.169 362.391L118.91 362.819L113.739 359.691L113.997 359.263L108.826 356.135L108.567 356.563L103.395 353.434L103.654 353.007L98.4826 349.878L98.2238 350.306L93.0522 347.178L93.311 346.75L88.1393 343.622L87.8806 344.05L82.709 340.922L82.9677 340.494L77.7962 337.366L77.5374 337.793L72.3658 334.665L72.6245 334.237L67.4529 331.109L67.1942 331.537L62.0226 328.409L62.2813 327.981L57.1097 324.853L56.851 325.281L51.6794 322.152L51.9381 321.725L46.7665 318.596L46.5078 319.024L41.3362 315.896L41.5949 315.468L36.4233 312.34L36.1646 312.768L30.993 309.64L31.2517 309.212L26.0801 306.084L25.8213 306.511L20.6497 303.383L20.9085 302.955L18.3227 301.391C17.5788 300.941 16.8953 300.442 16.2716 299.903L15.9443 300.281C14.5773 299.097 13.4854 297.721 12.6673 296.229L13.1057 295.989C12.2841 294.491 11.7477 292.871 11.4954 291.214L11.0011 291.29C10.7379 289.561 10.7739 287.793 11.1075 286.076L11.5983 286.172C11.918 284.527 12.52 282.93 13.402 281.467L12.9737 281.209C13.8521 279.752 14.9992 278.421 16.4134 277.295L16.7249 277.686C17.3701 277.172 18.0735 276.701 18.8351 276.282L21.4823 274.825L21.2412 274.387L26.5361 271.472L26.7772 271.91L32.0721 268.995L31.831 268.557L37.1259 265.643L37.367 266.081L42.662 263.166L42.4208 262.728L47.7157 259.813L47.9568 260.251L53.2517 257.337L53.0106 256.899L58.3056 253.984L58.5467 254.422L63.8415 251.507L63.6004 251.069L68.8953 248.155L69.1364 248.593L74.4314 245.678L74.1902 245.24L79.4851 242.326L79.7263 242.764L85.0211 239.849L84.78 239.411L90.0749 236.496L90.3161 236.934L95.611 234.02L95.3698 233.582L100.665 230.667L100.906 231.105L106.201 228.19L105.96 227.752L111.255 224.838L111.496 225.276L116.791 222.361L116.549 221.923L121.844 219.008L122.085 219.446L127.38 216.532L127.139 216.094L132.434 213.179L132.675 213.617L137.97 210.702L137.729 210.264L143.024 207.35L143.265 207.788L148.56 204.873L148.319 204.435L153.614 201.521L153.855 201.959L159.15 199.044L158.909 198.606L164.204 195.691L164.445 196.129L169.74 193.215L169.498 192.777L174.793 189.862L175.034 190.3L180.329 187.385L180.088 186.947L185.383 184.033L185.624 184.471L190.919 181.556L190.678 181.118L195.973 178.203L196.214 178.641L201.509 175.727L201.268 175.289L206.563 172.374L206.804 172.812L212.099 169.897L211.858 169.459L217.153 166.545L217.394 166.983L222.689 164.068L222.447 163.63L227.742 160.716L227.983 161.154L233.278 158.239L233.037 157.801L238.332 154.886L238.573 155.324L243.868 152.41L243.627 151.972L248.922 149.057L249.163 149.495L254.458 146.58L254.217 146.142L259.512 143.228L259.753 143.666L265.048 140.751L264.807 140.313L270.102 137.398L270.343 137.836L275.638 134.922L275.396 134.484L280.691 131.569L280.932 132.007L286.227 129.092L285.986 128.654L291.281 125.74L291.522 126.178L296.817 123.263L296.576 122.825L301.871 119.911L302.112 120.349L307.407 117.434L307.166 116.996L312.461 114.081L312.702 114.519L317.997 111.605L317.756 111.167L323.051 108.252L323.292 108.69L328.587 105.775L328.345 105.337L333.64 102.423L333.882 102.861L339.176 99.9461L338.935 99.508L344.23 96.5934L344.471 97.0314L349.766 94.1168L349.525 93.6788L354.82 90.7641L355.061 91.2021L360.356 88.2875L360.115 87.8495L365.41 84.9348L365.651 85.3729L370.946 82.4582L370.705 82.0202L376 79.1056L376.241 79.5436L381.536 76.6289L381.294 76.1909L386.589 73.2763L386.83 73.7143L392.125 70.7997L391.884 70.3616L397.179 67.447L397.42 67.885L402.715 64.9704L402.474 64.5324L407.769 61.6177L408.01 62.0557L413.305 59.1411L413.064 58.7031L418.359 55.7884L418.6 56.2265L423.895 53.3118L423.654 52.8738L428.949 49.9592L429.19 50.3972L434.485 47.4825L434.243 47.0445L439.538 44.1299L439.779 44.5679L445.074 41.6533L444.833 41.2152Z" stroke="#FBF9FB" stroke-dasharray="6 6"/>
<path opacity="0.5" d="M513.374 337.087L512.824 331.239L513.322 331.192L513.047 328.269C512.966 327.403 512.959 326.557 513.022 325.734L512.523 325.696C512.66 323.893 513.116 322.197 513.827 320.651L514.281 320.86C514.996 319.308 515.977 317.913 517.158 316.724L516.803 316.372C518.036 315.131 519.477 314.107 521.055 313.353L521.271 313.804C522.783 313.081 524.424 312.615 526.124 312.452L526.077 311.954C527.77 311.792 529.522 311.922 531.27 312.387L531.141 312.87C531.938 313.083 532.735 313.367 533.525 313.73L536.195 314.953L536.403 314.499L541.743 316.946L541.534 317.401L546.873 319.848L547.082 319.394L552.421 321.841L552.212 322.296L557.552 324.743L557.76 324.289L563.099 326.736L562.891 327.191L568.23 329.638L568.438 329.184L573.777 331.631L573.569 332.086L578.908 334.533L579.116 334.079L584.455 336.526L584.247 336.981L589.586 339.428L589.795 338.973L595.134 341.421L594.925 341.875L600.264 344.323L600.473 343.868L605.812 346.316L605.604 346.77L610.943 349.218L611.151 348.763L616.49 351.211L616.282 351.665L621.621 354.113L621.829 353.658L627.168 356.106L626.96 356.56L632.299 359.008L632.508 358.553L637.847 361.001L637.638 361.455L642.977 363.903L643.186 363.448L648.525 365.895L648.317 366.35L653.656 368.797L653.864 368.343L659.203 370.79L658.995 371.245L664.334 373.692L664.542 373.238L669.881 375.685L669.673 376.14L675.012 378.587L675.221 378.133L680.56 380.58L680.351 381.035L685.69 383.482L685.899 383.028L691.238 385.475L691.03 385.93L696.369 388.377L696.577 387.923L701.916 390.37L701.708 390.825L707.047 393.272L707.255 392.817L712.594 395.265L712.386 395.719L717.725 398.167L717.934 397.712L723.273 400.16L723.064 400.614L725.734 401.838C726.524 402.2 727.26 402.618 727.941 403.084L728.223 402.671C729.716 403.691 730.958 404.934 731.941 406.322L731.533 406.611C732.519 408.006 733.237 409.553 733.676 411.171L734.159 411.04C734.617 412.728 734.783 414.488 734.647 416.231L734.148 416.192C734.018 417.863 733.602 419.518 732.893 421.072L733.347 421.279C732.641 422.827 731.653 424.28 730.376 425.56L730.022 425.207C729.44 425.791 728.795 426.339 728.086 426.842L725.691 428.543L725.981 428.95L721.191 432.35L720.902 431.943L716.113 435.343L716.402 435.75L711.613 439.151L711.324 438.743L706.535 442.143L706.824 442.551L702.035 445.951L701.745 445.543L696.956 448.943L697.246 449.351L692.457 452.751L692.167 452.343L687.378 455.743L687.668 456.151L682.878 459.551L682.589 459.143L677.8 462.543L678.089 462.951L673.3 466.351L673.011 465.943L668.222 469.344L668.511 469.751L663.722 473.151L663.433 472.744L658.643 476.144L658.933 476.551L654.144 479.952L653.854 479.544L649.065 482.944L649.355 483.352L644.566 486.752L644.276 486.344L639.487 489.744L639.776 490.152L634.987 493.552L634.698 493.144L629.909 496.544L630.198 496.952L625.409 500.352L625.12 499.944L620.33 503.344L620.62 503.752L615.831 507.152L615.541 506.745L610.752 510.145L611.042 510.552L606.253 513.952L605.963 513.545L601.174 516.945L601.463 517.353L596.674 520.753L596.385 520.345L591.596 523.745L591.885 524.153L587.096 527.553L586.807 527.145L582.017 530.545L582.307 530.953L577.518 534.353L577.228 533.945L572.439 537.345L572.729 537.753L567.94 541.153L567.65 540.745L562.861 544.146L563.15 544.553L558.361 547.953L558.072 547.546L555.677 549.246C554.968 549.749 554.239 550.177 553.495 550.535L553.712 550.985C552.082 551.768 550.384 552.222 548.69 552.379L548.644 551.881C546.943 552.038 545.244 551.886 543.624 551.457L543.496 551.941C541.805 551.494 540.198 550.757 538.756 549.768L539.039 549.356C537.657 548.408 536.432 547.22 535.441 545.828L535.034 546.119C534.047 544.733 533.283 543.151 532.812 541.405L533.295 541.275C533.08 540.478 532.928 539.646 532.847 538.78L532.572 535.856L532.074 535.903L531.524 530.056L532.022 530.009L531.472 524.161L530.974 524.208L530.424 518.361L530.922 518.314L530.372 512.466L529.874 512.513L529.324 506.665L529.822 506.619L529.272 500.771L528.774 500.818L528.224 494.97L528.722 494.924L528.172 489.076L527.674 489.123L527.124 483.275L527.622 483.229L527.072 477.381L526.574 477.428L526.024 471.58L526.522 471.533L525.972 465.686L525.474 465.733L524.924 459.885L525.422 459.838L524.872 453.991L524.374 454.038L523.824 448.19L524.322 448.143L523.772 442.296L523.274 442.343L522.724 436.495L523.222 436.448L522.672 430.601L522.174 430.647L521.624 424.8L522.122 424.753L521.572 418.906L521.074 418.952L520.524 413.105L521.022 413.058L520.472 407.21L519.974 407.257L519.424 401.41L519.922 401.363L519.372 395.515L518.874 395.562L518.324 389.715L518.822 389.668L518.272 383.82L517.774 383.867L517.224 378.02L517.722 377.973L517.172 372.125L516.674 372.172L516.124 366.324L516.622 366.278L516.072 360.43L515.574 360.477L515.024 354.629L515.522 354.583L514.972 348.735L514.474 348.782L513.924 342.934L514.422 342.887L513.872 337.04L513.374 337.087Z" stroke="#FBF9FB" stroke-dasharray="6 6"/>
<path opacity="0.5" d="M462.369 466.863L458.991 471.772L458.58 471.488L456.891 473.943C456.398 474.659 455.86 475.312 455.284 475.903L455.642 476.252C454.38 477.547 452.943 478.556 451.405 479.286L451.191 478.834C449.648 479.566 448 480.006 446.331 480.161L446.377 480.659C444.635 480.82 442.873 480.681 441.179 480.247L441.303 479.762C439.679 479.347 438.121 478.652 436.712 477.686L436.429 478.098C435.026 477.136 433.765 475.913 432.723 474.435L433.132 474.147C432.657 473.473 432.228 472.743 431.854 471.958L430.573 469.268L430.122 469.483L427.56 464.103L428.011 463.888L425.449 458.509L424.998 458.724L422.435 453.344L422.887 453.129L420.325 447.749L419.873 447.964L417.311 442.584L417.762 442.369L415.2 436.99L414.749 437.205L412.187 431.825L412.638 431.61L410.076 426.23L409.624 426.445L407.062 421.065L407.514 420.85L404.951 415.471L404.5 415.686L401.938 410.306L402.389 410.091L399.827 404.711L399.376 404.926L396.813 399.546L397.265 399.331L394.703 393.952L394.251 394.167L391.689 388.787L392.14 388.572L389.578 383.192L389.127 383.407L386.565 378.027L387.016 377.812L384.454 372.433L384.002 372.648L381.44 367.268L381.892 367.053L379.329 361.673L378.878 361.888L376.316 356.508L376.767 356.293L374.205 350.914L373.754 351.129L371.191 345.749L371.643 345.534L369.081 340.154L368.629 340.369L366.067 334.989L366.518 334.774L363.956 329.395L363.505 329.61L360.943 324.23L361.394 324.015L358.832 318.635L358.38 318.85L355.818 313.47L356.27 313.255L353.707 307.876L353.256 308.091L350.694 302.711L351.145 302.496L348.583 297.116L348.131 297.331L345.569 291.951L346.021 291.736L343.459 286.357L343.007 286.572L340.445 281.192L340.896 280.977L338.334 275.597L337.883 275.812L335.32 270.432L335.772 270.217L333.21 264.838L332.758 265.053L330.196 259.673L330.647 259.458L328.085 254.078L327.634 254.293L325.072 248.913L325.523 248.698L322.961 243.319L322.509 243.534L319.947 238.154L320.399 237.939L317.836 232.559L317.385 232.774L314.823 227.394L315.274 227.179L312.712 221.8L312.261 222.015L309.698 216.635L310.15 216.42L307.588 211.04L307.136 211.255L304.574 205.875L305.025 205.66L302.463 200.281L302.012 200.496L299.45 195.116L299.901 194.901L297.339 189.521L296.887 189.736L294.325 184.356L294.777 184.141L292.215 178.762L291.763 178.977L289.201 173.597L289.652 173.382L287.09 168.002L286.639 168.217L284.076 162.837L284.528 162.622L281.966 157.243L281.514 157.458L278.952 152.078L279.403 151.863L276.841 146.483L276.39 146.698L273.828 141.318L274.279 141.103L271.717 135.724L271.265 135.939L268.703 130.559L269.155 130.344L266.592 124.964L266.141 125.179L263.579 119.799L264.03 119.584L261.468 114.205L261.017 114.42L258.454 109.04L258.906 108.825L256.344 103.445L255.892 103.66L253.33 98.2803L253.781 98.0653L251.219 92.6855L250.768 92.9005L248.206 87.5208L248.657 87.3058L246.095 81.926L245.643 82.141L243.081 76.7613L243.533 76.5463L240.97 71.1665L240.519 71.3815L237.957 66.0018L238.408 65.7868L235.846 60.4071L235.395 60.622L232.832 55.2423L233.284 55.0273L230.722 49.6475L230.27 49.8625L227.708 44.4828L228.159 44.2678L225.597 38.888L225.146 39.103L222.584 33.7233L223.035 33.5083L221.754 30.8184C221.38 30.0335 221.084 29.2409 220.86 28.4469L220.378 28.5827C219.888 26.8424 219.733 25.0925 219.87 23.3966L220.368 23.4369C220.506 21.7341 220.948 20.0866 221.649 18.5639L221.195 18.355C221.926 16.7662 222.928 15.3098 224.15 14.0595L224.508 14.4091C225.68 13.2107 227.06 12.2088 228.602 11.4718L228.386 11.0207C229.921 10.2868 231.611 9.80633 233.411 9.64303L233.457 10.141C234.278 10.0665 235.124 10.0602 235.991 10.1289L238.961 10.3644L239.001 9.86594L244.941 10.3369L244.901 10.8353L250.841 11.3063L250.881 10.8078L256.821 11.2788L256.781 11.7772L262.721 12.2482L262.761 11.7497L268.701 12.2207L268.662 12.7191L274.602 13.19L274.641 12.6916L280.581 13.1625L280.542 13.661L286.482 14.1319L286.521 13.6335L292.461 14.1044L292.422 14.6029L298.362 15.0738L298.402 14.5754L304.342 15.0463L304.302 15.5448L310.242 16.0157L310.282 15.5173L316.222 15.9882L316.182 16.4866L322.122 16.9576L322.162 16.4591L328.102 16.9301L328.063 17.4285L334.003 17.8995L334.042 17.401L339.982 17.872L339.943 18.3704L345.883 18.8414L345.922 18.3429L351.862 18.8139L351.823 19.3123L357.763 19.7832L357.803 19.2848L363.743 19.7557L363.703 20.2542L369.643 20.7251L369.683 20.2267L375.623 20.6976L375.583 21.1961L381.523 21.667L381.563 21.1686L387.503 21.6395L387.464 22.138L393.404 22.6089L393.443 22.1105L399.383 22.5814L399.344 23.0798L405.284 23.5508L405.323 23.0524L411.263 23.5233L411.224 24.0217L417.164 24.4927L417.204 23.9942L423.144 24.4652L423.104 24.9636L429.044 25.4346L429.084 24.9361L435.024 25.4071L434.984 25.9055L440.924 26.3764L440.964 25.878L446.904 26.349L446.865 26.8474L452.805 27.3183L452.844 26.8199L458.784 27.2908L458.745 27.7893L464.685 28.2602L464.724 27.7618L470.664 28.2327L470.625 28.7312L476.565 29.2021L476.605 28.7037L482.545 29.1746L482.505 29.673L488.445 30.144L488.485 29.6456L494.425 30.1165L494.385 30.6149L500.325 31.0859L500.365 30.5874L506.305 31.0584L506.266 31.5568L512.206 32.0278L512.245 31.5293L518.185 32.0003L518.146 32.4987L524.086 32.9696L524.125 32.4712L530.065 32.9422L530.026 33.4406L535.966 33.9115L536.006 33.4131L541.946 33.884L541.906 34.3825L547.846 34.8534L547.886 34.355L553.826 34.8259L553.786 35.3244L559.726 35.7953L559.766 35.2969L565.706 35.7678L565.667 36.2663L571.607 36.7372L571.646 36.2388L577.586 36.7097L577.547 37.2081L583.487 37.6791L583.526 37.1806L589.466 37.6516L589.427 38.15L595.367 38.621L595.407 38.1225L601.347 38.5935L601.307 39.0919L607.247 39.5629L607.287 39.0644L613.227 39.5354L613.187 40.0338L619.127 40.5047L619.167 40.0063L625.107 40.4772L625.068 40.9757L631.008 41.4466L631.047 40.9482L636.987 41.4191L636.948 41.9176L642.888 42.3885L642.927 41.8901L648.867 42.361L648.828 42.8595L654.768 43.3304L654.808 42.832L660.748 43.3029L660.708 43.8013L666.648 44.2723L666.688 43.7738L672.628 44.2448L672.588 44.7432L678.528 45.2142L678.568 44.7157L684.508 45.1867L684.469 45.6851L690.409 46.1561L690.448 45.6576L696.388 46.1286L696.349 46.627L702.289 47.0979L702.328 46.5995L708.268 47.0705L708.229 47.5689L714.169 48.0398L714.209 47.5414L720.149 48.0123L720.109 48.5108L723.079 48.7462C723.946 48.815 724.781 48.9545 725.58 49.1575L725.703 48.6729C727.456 49.1179 729.049 49.8586 730.449 50.8253L730.165 51.2368C731.571 52.2074 732.776 53.4143 733.744 54.7824L734.153 54.4935C735.163 55.9209 735.923 57.517 736.395 59.2011L735.913 59.3359C736.365 60.9499 736.542 62.6465 736.41 64.3497L736.909 64.3885C736.777 66.0848 736.348 67.7884 735.589 69.4296L735.135 69.2197C734.789 69.9684 734.371 70.7045 733.878 71.4207L732.189 73.875L732.601 74.1585L729.223 79.0673L728.811 78.7838L725.434 83.6926L725.845 83.9761L722.468 88.8849L722.056 88.6015L718.678 93.5102L719.09 93.7937L715.712 98.7025L715.3 98.4191L711.922 103.328L712.334 103.611L708.956 108.52L708.544 108.237L705.166 113.145L705.578 113.429L702.2 118.338L701.788 118.054L698.41 122.963L698.822 123.247L695.444 128.155L695.032 127.872L691.655 132.781L692.066 133.064L688.689 137.973L688.277 137.69L684.899 142.598L685.311 142.882L681.933 147.791L681.521 147.507L678.143 152.416L678.555 152.699L675.177 157.608L674.765 157.325L671.387 162.234L671.799 162.517L668.421 167.426L668.009 167.142L664.631 172.051L665.043 172.335L661.665 177.243L661.254 176.96L657.876 181.869L658.288 182.152L654.91 187.061L654.498 186.778L651.12 191.686L651.532 191.97L648.154 196.879L647.742 196.595L644.364 201.504L644.776 201.787L641.398 206.696L640.986 206.413L637.608 211.322L638.02 211.605L634.642 216.514L634.23 216.23L630.852 221.139L631.264 221.423L627.886 226.331L627.475 226.048L624.097 230.957L624.509 231.24L621.131 236.149L620.719 235.866L617.341 240.774L617.753 241.058L614.375 245.967L613.963 245.683L610.585 250.592L610.997 250.876L607.619 255.784L607.207 255.501L603.829 260.41L604.241 260.693L600.863 265.602L600.451 265.318L597.073 270.227L597.485 270.511L594.107 275.42L593.696 275.136L590.318 280.045L590.73 280.328L587.352 285.237L586.94 284.954L583.562 289.863L583.974 290.146L580.596 295.055L580.184 294.771L576.806 299.68L577.218 299.964L573.84 304.872L573.428 304.589L570.05 309.498L570.462 309.781L567.084 314.69L566.672 314.407L563.294 319.315L563.706 319.599L560.328 324.508L559.917 324.224L556.539 329.133L556.951 329.416L553.573 334.325L553.161 334.042L549.783 338.951L550.195 339.234L546.817 344.143L546.405 343.859L543.027 348.768L543.439 349.052L540.061 353.96L539.649 353.677L536.271 358.586L536.683 358.869L533.305 363.778L532.893 363.495L529.515 368.403L529.927 368.687L526.549 373.596L526.138 373.312L522.76 378.221L523.172 378.504L519.794 383.413L519.382 383.13L516.004 388.039L516.416 388.322L513.038 393.231L512.626 392.947L509.248 397.856L509.66 398.14L506.282 403.049L505.87 402.765L502.492 407.674L502.904 407.957L499.526 412.866L499.114 412.583L495.736 417.491L496.148 417.775L492.77 422.684L492.359 422.4L488.981 427.309L489.393 427.593L486.015 432.501L485.603 432.218L482.225 437.127L482.637 437.41L479.259 442.319L478.847 442.036L475.469 446.944L475.881 447.228L472.503 452.137L472.091 451.853L468.713 456.762L469.125 457.045L465.747 461.954L465.335 461.671L461.957 466.58L462.369 466.863Z" stroke="#FBF9FB" stroke-dasharray="6 6"/>
<path opacity="0.5" d="M516.18 226.069L521.749 228.46L521.552 228.919L524.336 230.115C525.135 230.458 525.881 230.857 526.573 231.306L526.845 230.886C528.362 231.87 529.634 233.082 530.65 234.447L530.249 234.745C531.27 236.115 532.025 237.645 532.503 239.251L532.982 239.109C533.482 240.785 533.69 242.54 533.597 244.287L533.098 244.26C533.008 245.934 532.632 247.598 531.961 249.168L532.42 249.365C531.752 250.929 530.799 252.406 529.554 253.717L529.192 253.373C528.624 253.971 527.992 254.534 527.296 255.054L524.868 256.868L525.168 257.269L520.313 260.896L520.013 260.496L515.159 264.123L515.458 264.524L510.603 268.151L510.304 267.751L505.449 271.378L505.749 271.779L500.894 275.406L500.595 275.006L495.74 278.633L496.039 279.034L491.184 282.661L490.885 282.261L486.03 285.888L486.33 286.289L481.475 289.916L481.176 289.516L476.321 293.143L476.62 293.544L471.765 297.171L471.466 296.77L466.611 300.398L466.911 300.799L462.056 304.426L461.757 304.025L456.902 307.653L457.201 308.054L452.346 311.681L452.047 311.28L447.192 314.908L447.492 315.308L442.637 318.936L442.338 318.535L437.483 322.163L437.782 322.563L432.927 326.191L432.628 325.79L427.773 329.418L428.073 329.818L423.218 333.446L422.919 333.045L418.064 336.673L418.363 337.073L413.508 340.701L413.209 340.3L408.354 343.928L408.654 344.328L403.799 347.956L403.5 347.555L398.645 351.183L398.944 351.583L394.089 355.211L393.79 354.81L388.935 358.438L389.235 358.838L384.38 362.466L384.081 362.065L379.226 365.693L379.525 366.093L374.67 369.721L374.371 369.32L369.516 372.948L369.816 373.348L364.961 376.976L364.662 376.575L359.807 380.203L360.106 380.603L355.251 384.231L354.952 383.83L350.097 387.458L350.397 387.858L345.542 391.486L345.243 391.085L340.388 394.713L340.687 395.113L335.832 398.741L335.533 398.34L330.678 401.968L330.978 402.368L326.123 405.996L325.824 405.595L320.969 409.223L321.268 409.623L316.413 413.251L316.114 412.85L311.259 416.478L311.559 416.878L306.704 420.506L306.405 420.105L301.55 423.733L301.849 424.133L296.994 427.761L296.695 427.36L291.84 430.988L292.14 431.388L287.285 435.016L286.986 434.615L282.131 438.243L282.43 438.643L277.575 442.271L277.276 441.87L272.421 445.498L272.721 445.898L267.866 449.526L267.567 449.125L262.712 452.753L263.011 453.153L258.156 456.781L257.857 456.38L253.002 460.008L253.302 460.408L248.447 464.036L248.148 463.635L243.293 467.263L243.592 467.663L238.737 471.291L238.438 470.89L233.583 474.518L233.883 474.918L229.028 478.546L228.729 478.145L223.874 481.773L224.173 482.173L219.318 485.801L219.019 485.4L214.164 489.028L214.464 489.428L209.609 493.056L209.31 492.655L204.455 496.282L204.754 496.683L199.899 500.311L199.6 499.91L194.745 503.537L195.045 503.938L190.19 507.565L189.891 507.165L185.036 510.792L185.335 511.193L180.48 514.82L180.181 514.42L175.326 518.047L175.626 518.448L170.771 522.075L170.472 521.675L165.617 525.302L165.916 525.703L161.061 529.33L160.762 528.93L155.907 532.557L156.207 532.958L151.352 536.585L151.053 536.185L148.625 537.999C147.929 538.519 147.21 538.965 146.475 539.34L146.702 539.786C145.092 540.608 143.406 541.103 141.717 541.301L141.658 540.804C139.962 541.003 138.259 540.892 136.629 540.503L136.513 540.989C134.812 540.584 133.187 539.887 131.722 538.933L131.994 538.514C130.59 537.599 129.337 536.442 128.312 535.075L127.912 535.375C126.891 534.013 126.089 532.45 125.576 530.716L126.056 530.575C125.822 529.784 125.65 528.955 125.547 528.092L125.19 525.083L124.694 525.142L123.979 519.124L124.476 519.065L123.762 513.047L123.265 513.105L122.551 507.087L123.048 507.028L122.334 501.01L121.837 501.069L121.123 495.051L121.619 494.992L120.905 488.974L120.409 489.033L119.695 483.015L120.191 482.956L119.477 476.938L118.981 476.997L118.266 470.979L118.763 470.92L118.049 464.902L117.552 464.961L116.838 458.943L117.335 458.884L116.621 452.866L116.124 452.925L115.41 446.907L115.906 446.848L115.192 440.83L114.696 440.888L113.982 434.87L114.478 434.811L113.764 428.793L113.268 428.852L112.553 422.834L113.05 422.775L112.336 416.757L111.839 416.816L111.125 410.798L111.622 410.739L110.908 404.721L110.411 404.78L109.697 398.762L110.193 398.703L109.479 392.685L108.983 392.744L108.269 386.726L108.765 386.667L108.051 380.649L107.555 380.708L106.84 374.69L107.337 374.631L106.623 368.613L106.126 368.671L105.412 362.653L105.909 362.594L105.195 356.576L104.698 356.635L103.984 350.617L104.48 350.558L103.766 344.54L103.27 344.599L102.556 338.581L103.052 338.522L102.338 332.504L101.842 332.563L101.127 326.545L101.624 326.486L100.91 320.468L100.413 320.527L99.6992 314.509L100.196 314.45L99.4816 308.432L98.985 308.491L98.2709 302.473L98.7674 302.414L98.0533 296.396L97.5568 296.455L96.8427 290.436L97.3392 290.378L96.6251 284.359L96.1285 284.418L95.4144 278.4L95.9109 278.341L95.1968 272.323L94.7003 272.382L93.9862 266.364L94.4827 266.305L93.7686 260.287L93.272 260.346L92.5579 254.328L93.0544 254.269L92.3403 248.251L91.8438 248.31L91.1297 242.292L91.6262 242.233L90.9121 236.215L90.4156 236.274L89.7014 230.256L90.1979 230.197L89.4838 224.179L88.9873 224.238L88.2732 218.219L88.7697 218.161L88.0556 212.142L87.5591 212.201L86.8449 206.183L87.3414 206.124L86.6273 200.106L86.1308 200.165L85.4167 194.147L85.9132 194.088L85.1991 188.07L84.7026 188.129L83.9884 182.111L84.485 182.052L83.7708 176.034L83.2743 176.093L82.5602 170.075L83.0567 170.016L82.3426 163.998L81.8461 164.057L81.1319 158.039L81.6285 157.98L80.9143 151.962L80.4178 152.021L79.7037 146.003L80.2002 145.944L79.4861 139.926L78.9896 139.984L78.2754 133.966L78.772 133.907L78.0578 127.889L77.5613 127.948L76.8472 121.93L77.3437 121.871L76.6296 115.853L76.1331 115.912L75.4189 109.894L75.9155 109.835L75.2013 103.817L74.7048 103.876L73.9907 97.8579L74.4872 97.7989L73.7731 91.7809L73.2766 91.8398L72.5624 85.8217L73.059 85.7628L72.3448 79.7447L71.8483 79.8036L71.1342 73.7855L71.6307 73.7266L70.9166 67.7085L70.4201 67.7675L69.7059 61.7494L70.2025 61.6905L69.8454 58.6814C69.743 57.8181 69.7163 56.9722 69.7587 56.1484L69.2593 56.1227C69.3523 54.3169 69.7665 52.6097 70.44 51.0473L70.8992 51.2452C71.5755 49.6764 72.5229 48.2578 73.6746 47.0401L73.3114 46.6965C74.5132 45.426 75.9293 44.3678 77.4884 43.5755L77.7149 44.0212C79.2091 43.2618 80.838 42.7554 82.5342 42.5515L82.4745 42.055C84.1637 41.852 85.9184 41.9386 87.6765 42.3613L87.5596 42.8474C88.3617 43.0403 89.1653 43.3056 89.9642 43.6486L92.7485 44.8438L92.9457 44.3844L98.5146 46.775L98.3174 47.2344L103.886 49.625L104.083 49.1656L109.652 51.5562L109.455 52.0156L115.024 54.4062L115.221 53.9468L120.79 56.3374L120.593 56.7968L126.162 59.1874L126.359 58.7279L131.928 61.1185L131.731 61.578L137.299 63.9686L137.497 63.5091L143.066 65.8997L142.868 66.3592L148.437 68.7498L148.634 68.2903L154.203 70.6809L154.006 71.1403L159.575 73.5309L159.772 73.0715L165.341 75.4621L165.144 75.9215L170.713 78.3121L170.91 77.8527L176.479 80.2433L176.282 80.7027L181.85 83.0933L182.048 82.6338L187.617 85.0244L187.419 85.4839L192.988 87.8745L193.185 87.415L198.754 89.8056L198.557 90.2651L204.126 92.6557L204.323 92.1962L209.892 94.5868L209.695 95.0463L215.264 97.4368L215.461 96.9774L221.03 99.368L220.833 99.8274L226.401 102.218L226.599 101.759L232.168 104.149L231.97 104.609L237.539 106.999L237.736 106.54L243.305 108.93L243.108 109.39L248.677 111.78L248.874 111.321L254.443 113.712L254.246 114.171L259.815 116.562L260.012 116.102L265.581 118.493L265.384 118.952L270.952 121.343L271.15 120.883L276.719 123.274L276.521 123.733L282.09 126.124L282.287 125.664L287.856 128.055L287.659 128.515L293.228 130.905L293.425 130.446L298.994 132.836L298.797 133.296L304.366 135.686L304.563 135.227L310.132 137.617L309.935 138.077L315.503 140.467L315.701 140.008L321.27 142.399L321.072 142.858L326.641 145.249L326.838 144.789L332.407 147.18L332.21 147.639L337.779 150.03L337.976 149.57L343.545 151.961L343.348 152.42L348.917 154.811L349.114 154.352L354.683 156.742L354.486 157.202L360.054 159.592L360.252 159.133L365.821 161.523L365.623 161.983L371.192 164.373L371.389 163.914L376.958 166.305L376.761 166.764L382.33 169.155L382.527 168.695L388.096 171.086L387.899 171.545L393.468 173.936L393.665 173.476L399.234 175.867L399.037 176.326L404.605 178.717L404.803 178.257L410.371 180.648L410.174 181.108L415.743 183.498L415.94 183.039L421.509 185.429L421.312 185.889L426.881 188.279L427.078 187.82L432.647 190.21L432.45 190.67L438.019 193.06L438.216 192.601L443.785 194.992L443.587 195.451L449.156 197.842L449.354 197.382L454.922 199.773L454.725 200.232L460.294 202.623L460.491 202.163L466.06 204.554L465.863 205.013L471.432 207.404L471.629 206.945L477.198 209.335L477.001 209.795L482.57 212.185L482.767 211.726L488.336 214.116L488.138 214.576L493.707 216.966L493.905 216.507L499.473 218.898L499.276 219.357L504.845 221.748L505.042 221.288L510.611 223.679L510.414 224.138L515.983 226.529L516.18 226.069Z" stroke="#FBF9FB" stroke-dasharray="6 6"/>
<rect x="136" y="150" width="560" height="315" rx="20" fill="#FBF9FB"/>
<path opacity="0.2" d="M582 250C582 241.976 580.069 234.069 576.369 226.948C572.67 219.828 567.311 213.702 560.745 209.089C554.179 204.475 546.599 201.51 538.646 200.444C530.693 199.377 522.6 200.24 515.05 202.961C507.501 205.681 500.717 210.178 495.272 216.072C489.827 221.967 485.881 229.085 483.767 236.826C481.652 244.567 481.432 252.703 483.125 260.547C484.818 268.391 488.373 275.712 493.492 281.892L532 250H582Z" fill="#007347"/>
<path opacity="0.2" d="M582 250C582 258.105 580.03 266.089 576.258 273.264L532 250H582Z" fill="#007347"/>
<path opacity="0.2" d="M576.267 273.248C572.498 280.424 567.041 286.576 560.367 291.175L532 250L576.267 273.248Z" fill="#CA8B02"/>
<path opacity="0.2" d="M560.38 291.165C553.707 295.766 546.016 298.675 537.968 299.643L532 250L560.38 291.165Z" fill="#36498C"/>
<path opacity="0.2" d="M537.96 299.644C529.646 300.642 521.214 299.536 513.439 296.427C505.664 293.319 498.794 288.308 493.459 281.853L532 250L537.96 299.644Z" fill="#190F19"/>
<rect x="592" y="215" width="6" height="6" rx="2" fill="#C9DED7"/>
<rect x="603" y="215" width="73" height="6" fill="#F6EEF7"/>
<rect x="603" y="231" width="73" height="6" fill="#F6EEF7"/>
<rect x="603" y="247" width="73" height="6" fill="#F6EEF7"/>
<rect x="603" y="263" width="73" height="6" fill="#F6EEF7"/>
<rect x="603" y="279" width="73" height="6" fill="#F6EEF7"/>
<rect x="592" y="231" width="6" height="6" rx="2" fill="#C9DED7"/>
<rect x="592" y="247" width="6" height="6" rx="2" fill="#F1E3C9"/>
<rect x="592" y="263" width="6" height="6" rx="2" fill="#D4D6E5"/>
<rect x="592" y="279" width="6" height="6" rx="2" fill="#CECACE"/>
<rect x="482" y="170" width="194" height="15" fill="#F6EEF7"/>
<rect x="156" y="170" width="100" height="15" fill="#F6EEF7"/>
<rect x="156" y="190" width="100" height="10" fill="#F6EEF7"/>
<rect x="156" y="205" width="100" height="10" fill="#F6EEF7"/>
<rect x="156" y="220" width="100" height="10" fill="#F6EEF7"/>
<rect x="156" y="235" width="100" height="10" fill="#F6EEF7"/>
<rect x="156" y="250" width="100" height="10" fill="#F6EEF7"/>
<rect x="156" y="265" width="100" height="10" fill="#F6EEF7"/>
<rect x="156" y="280" width="100" height="10" fill="#F6EEF7"/>
<rect x="156" y="295" width="100" height="10" fill="#F6EEF7"/>
<rect x="156" y="310" width="100" height="10" fill="#F6EEF7"/>
<rect x="156" y="325" width="100" height="10" fill="#F6EEF7"/>
<rect x="156" y="340" width="100" height="10" fill="#F6EEF7"/>
<rect x="156" y="355" width="100" height="10" fill="#F6EEF7"/>
<rect x="156" y="370" width="100" height="10" fill="#F6EEF7"/>
<rect x="156" y="385" width="100" height="10" fill="#F6EEF7"/>
<rect x="156" y="400" width="100" height="10" fill="#F6EEF7"/>
<rect x="156" y="415" width="100" height="10" fill="#F6EEF7"/>
<rect x="156" y="430" width="100" height="10" fill="#F6EEF7"/>
<rect x="156" y="445" width="100" height="10" fill="#F6EEF7"/>
<rect x="261" y="170" width="2" height="285" fill="#F6EEF7"/>
<rect x="278" y="170" width="194" height="15" fill="#F6EEF7"/>
<path d="M278.5 269.5H470.5M278.5 211.5H470.5" stroke="#F6EEF7" stroke-dasharray="4 4"/>
<path d="M278 200V300H472" stroke="#F6EEF7" stroke-width="2"/>
<path d="M278 271C289.812 258.978 299.646 251.5 316.5 251.5C332.5 251.5 344.18 266.107 361 260.5C373 256.5 384.017 239.004 402 239.5C416.587 239.902 421.87 258.647 436 255C447.632 251.998 447.5 242 457.5 233" stroke="#F6EEF7" stroke-width="2"/>
<path d="M278 263C289.812 250.978 301.146 231.5 318 231.5C334 231.5 342.18 254.107 359 248.5C371 244.5 382.517 212.504 400.5 213C415.087 213.402 421.87 245.647 436 242C447.632 238.998 447.5 228 457.5 219" stroke="#F6EEF7" stroke-width="2"/>
<rect x="276" y="327" width="398" height="15" fill="#F6EEF7"/>
<rect x="276" y="355" width="395" height="10" fill="#F6EEF7"/>
<rect x="276" y="375" width="395" height="10" fill="#F6EEF7"/>
<rect x="276" y="395" width="395" height="10" fill="#F6EEF7"/>
<rect x="276" y="415" width="395" height="10" fill="#F6EEF7"/>
<rect x="276" y="435" width="395" height="10" fill="#F6EEF7"/>
<rect x="276" y="373" width="20" height="82" fill="#C9E9DE"/>
<rect x="301" y="365" width="20" height="90" fill="#C9E9DE"/>
<rect x="326" y="360" width="20" height="95" fill="#C9E9DE"/>
<rect x="351" y="370" width="20" height="85" fill="#C9E9DE"/>
<rect x="376" y="380" width="20" height="75" fill="#C9E9DE"/>
<rect x="401" y="365" width="20" height="90" fill="#C9E9DE"/>
<rect x="426" y="373" width="20" height="82" fill="#C9E9DE"/>
<rect x="451" y="369" width="20" height="86" fill="#C9E9DE"/>
<rect x="476" y="385" width="20" height="70" fill="#C9E9DE"/>
<rect x="501" y="375" width="20" height="80" fill="#C9E9DE"/>
<rect x="526" y="382" width="20" height="73" fill="#C9E9DE"/>
<rect x="551" y="371" width="20" height="84" fill="#C9E9DE"/>
<rect x="576" y="380" width="20" height="75" fill="#C9E9DE"/>
<rect x="601" y="373" width="20" height="82" fill="#C9E9DE"/>
<rect x="626" y="369" width="20" height="86" fill="#C9E9DE"/>
<rect x="651" y="360" width="20" height="95" fill="#C9E9DE"/>
<g filter="url(#filter0_d_76_2983)">
<rect x="36" y="203" width="120" height="120" rx="8" fill="#FBF9FB" shape-rendering="crispEdges"/>
<path d="M146 263C146 290.614 123.614 313 96 313C68.3858 313 46 290.614 46 263C46 235.386 68.3858 213 96 213C123.614 213 146 235.386 146 263ZM61.215 263C61.215 282.211 76.7888 297.785 96 297.785C115.211 297.785 130.785 282.211 130.785 263C130.785 243.789 115.211 228.215 96 228.215C76.7888 228.215 61.215 243.789 61.215 263Z" fill="#F6EEF7"/>
<path d="M96 213C107.215 213 118.105 216.771 126.919 223.706C135.733 230.641 141.959 240.338 144.597 251.238C147.235 262.139 146.132 273.61 141.465 283.808C136.797 294.006 128.837 302.338 118.863 307.467C108.889 312.595 97.4803 314.221 86.4706 312.084C75.461 309.946 65.4897 304.169 58.1591 295.681C50.8286 287.193 46.5645 276.487 46.0522 265.284C45.5399 254.08 48.8091 243.03 55.3344 233.909L67.709 242.761C63.1693 249.107 60.8949 256.795 61.2513 264.589C61.6077 272.383 64.5742 279.831 69.6741 285.736C74.774 291.641 81.711 295.66 89.3704 297.147C97.0298 298.634 104.967 297.503 111.906 293.935C118.845 290.368 124.383 284.571 127.63 277.476C130.877 270.381 131.644 262.401 129.809 254.818C127.974 247.234 123.642 240.488 117.51 235.663C111.378 230.838 103.802 228.215 96 228.215V213Z" fill="#36498C"/>
<path d="M82.0781 271.83C80.7781 272.783 79.1487 273.26 77.1901 273.26C75.2314 273.26 73.6021 272.783 72.3021 271.83C71.0021 270.859 70.3521 269.62 70.3521 268.112V268.06C70.3521 267.02 70.6901 266.127 71.3661 265.382C72.0421 264.619 72.9521 264.021 74.0961 263.588C72.0161 262.635 70.9761 261.239 70.9761 259.402V259.35C70.9761 257.981 71.5827 256.837 72.7961 255.918C74.0267 254.999 75.4914 254.54 77.1901 254.54C78.8887 254.54 80.3447 254.999 81.5581 255.918C82.7887 256.837 83.4041 257.981 83.4041 259.35V259.402C83.4041 261.239 82.3641 262.635 80.2841 263.588C81.4281 264.021 82.3381 264.611 83.0141 265.356C83.6901 266.101 84.0281 266.994 84.0281 268.034V268.086C84.0281 269.611 83.3781 270.859 82.0781 271.83ZM74.2261 261.924C75.0234 262.548 76.0114 262.86 77.1901 262.86C78.3687 262.86 79.3567 262.548 80.1541 261.924C80.9514 261.3 81.3501 260.503 81.3501 259.532V259.48C81.3501 258.579 80.9514 257.833 80.1541 257.244C79.3741 256.637 78.3861 256.334 77.1901 256.334C75.9941 256.334 74.9974 256.637 74.2001 257.244C73.4201 257.833 73.0301 258.579 73.0301 259.48V259.532C73.0301 260.503 73.4287 261.3 74.2261 261.924ZM73.7061 270.478C74.5727 271.137 75.7341 271.466 77.1901 271.466C78.6461 271.466 79.7987 271.137 80.6481 270.478C81.5147 269.819 81.9481 269.013 81.9481 268.06V268.008C81.9481 267.02 81.4887 266.197 80.5701 265.538C79.6514 264.879 78.5247 264.55 77.1901 264.55C75.8554 264.55 74.7287 264.879 73.8101 265.538C72.8914 266.197 72.4321 267.02 72.4321 268.008V268.06C72.4321 269.013 72.8567 269.819 73.7061 270.478Z" fill="#86368C"/>
<path d="M96.609 273V268.684H87.015L86.495 267.202L96.791 254.67H98.585V266.968H101.419V268.684H98.585V273H96.609ZM88.965 266.968H96.609V257.582L88.965 266.968Z" fill="#86368C"/>
<path d="M111.244 262.522C110.464 263.441 109.476 263.9 108.28 263.9C107.084 263.9 106.096 263.449 105.316 262.548C104.554 261.629 104.172 260.546 104.172 259.298V259.246C104.172 257.981 104.562 256.889 105.342 255.97C106.122 255.051 107.119 254.592 108.332 254.592C109.511 254.592 110.482 255.051 111.244 255.97C112.024 256.871 112.414 257.946 112.414 259.194V259.246C112.414 260.511 112.024 261.603 111.244 262.522ZM108.28 256.048C107.587 256.048 107.015 256.351 106.564 256.958C106.131 257.565 105.914 258.31 105.914 259.194V259.246C105.914 260.147 106.148 260.91 106.616 261.534C107.084 262.141 107.656 262.444 108.332 262.444C109.026 262.444 109.589 262.141 110.022 261.534C110.473 260.927 110.698 260.182 110.698 259.298V259.246C110.698 258.362 110.456 257.608 109.97 256.984C109.502 256.36 108.939 256.048 108.28 256.048ZM113.064 263.51L119.408 254.8H121.254L114.234 264.342L107.916 273H106.044L113.064 263.51ZM118.992 273.208C117.814 273.208 116.834 272.757 116.054 271.856C115.292 270.937 114.91 269.854 114.91 268.606V268.554C114.91 267.289 115.3 266.197 116.08 265.278C116.86 264.359 117.848 263.9 119.044 263.9C120.258 263.9 121.237 264.359 121.982 265.278C122.745 266.179 123.126 267.254 123.126 268.502V268.554C123.126 269.837 122.736 270.937 121.956 271.856C121.194 272.757 120.206 273.208 118.992 273.208ZM119.044 271.752C119.738 271.752 120.301 271.449 120.734 270.842C121.185 270.235 121.41 269.49 121.41 268.606V268.554C121.41 267.653 121.176 266.899 120.708 266.292C120.24 265.668 119.668 265.356 118.992 265.356C118.299 265.356 117.727 265.659 117.276 266.266C116.843 266.873 116.626 267.618 116.626 268.502V268.554C116.626 269.455 116.86 270.218 117.328 270.842C117.796 271.449 118.368 271.752 119.044 271.752Z" fill="#86368C"/>
</g>
<g filter="url(#filter1_d_76_2983)">
<rect x="466" y="425" width="160" height="101" rx="8" fill="#FBF9FB" shape-rendering="crispEdges"/>
<rect x="474.421" y="456.983" width="8.42105" height="60.6" fill="url(#paint0_linear_76_2983)"/>
<rect x="487.895" y="462.875" width="8.42105" height="54.7083" fill="url(#paint1_linear_76_2983)"/>
<rect x="501.368" y="452.774" width="8.42105" height="64.8083" fill="url(#paint2_linear_76_2983)"/>
<rect x="514.842" y="450.25" width="8.42105" height="67.3333" fill="url(#paint3_linear_76_2983)"/>
<rect x="528.316" y="454.458" width="8.42105" height="63.125" fill="url(#paint4_linear_76_2983)"/>
<rect x="541.79" y="452.774" width="8.42105" height="64.8083" fill="url(#paint5_linear_76_2983)"/>
<rect x="555.263" y="447.725" width="8.42105" height="69.8583" fill="url(#paint6_linear_76_2983)"/>
<rect x="568.737" y="454.458" width="8.42105" height="63.125" fill="url(#paint7_linear_76_2983)"/>
<rect x="582.211" y="450.25" width="8.42105" height="67.3333" fill="url(#paint8_linear_76_2983)"/>
<rect x="595.684" y="447.725" width="8.42105" height="69.8583" fill="url(#paint9_linear_76_2983)"/>
<rect x="609.158" y="456.983" width="8.42105" height="60.6" fill="url(#paint10_linear_76_2983)"/>
</g>
<g filter="url(#filter2_d_76_2983)">
<rect x="604" y="93" width="120" height="120" rx="8" fill="#FBF9FB" shape-rendering="crispEdges"/>
<path d="M714 153C714 180.614 691.614 203 664 203C636.386 203 614 180.614 614 153C614 125.386 636.386 103 664 103C691.614 103 714 125.386 714 153ZM629.215 153C629.215 172.211 644.789 187.785 664 187.785C683.211 187.785 698.785 172.211 698.785 153C698.785 133.789 683.211 118.215 664 118.215C644.789 118.215 629.215 133.789 629.215 153Z" fill="#F6EEF7"/>
<path d="M664 103C676.144 103 687.872 107.419 696.996 115.433C706.12 123.447 712.015 134.507 713.582 146.549C715.149 158.591 712.28 170.792 705.51 180.873C698.74 190.955 688.533 198.228 676.794 201.335C665.055 204.443 652.586 203.172 641.715 197.759C630.844 192.347 622.315 183.163 617.719 171.923C613.123 160.683 612.775 148.154 616.74 136.676C620.704 125.198 628.711 115.555 639.264 109.547L646.791 122.77C639.449 126.949 633.879 133.658 631.121 141.643C628.363 149.629 628.605 158.345 631.802 166.165C635 173.985 640.934 180.374 648.496 184.139C656.059 187.904 664.734 188.789 672.901 186.627C681.068 184.465 688.169 179.405 692.878 172.391C697.588 165.378 699.584 156.89 698.494 148.512C697.404 140.135 693.303 132.44 686.955 126.865C680.608 121.29 672.448 118.215 664 118.215V103Z" fill="#02AB6B"/>
<path d="M644.722 161.44C646.403 161.44 647.721 160.695 648.674 159.204C649.645 157.714 650.13 155.928 650.13 153.848V153.484C648.882 155.408 647.166 156.37 644.982 156.37C643.11 156.37 641.585 155.842 640.406 154.784C639.227 153.727 638.638 152.375 638.638 150.728V150.676C638.638 148.926 639.253 147.461 640.484 146.282C641.715 145.086 643.283 144.488 645.19 144.488C647.131 144.488 648.726 145.112 649.974 146.36C651.482 147.868 652.236 150.217 652.236 153.406V153.458C652.236 156.353 651.534 158.719 650.13 160.556C648.726 162.394 646.906 163.312 644.67 163.312C642.746 163.312 640.874 162.567 639.054 161.076L640.25 159.49C641.706 160.79 643.197 161.44 644.722 161.44ZM645.216 154.602C646.568 154.602 647.66 154.195 648.492 153.38C649.324 152.548 649.74 151.586 649.74 150.494V150.442C649.74 149.281 649.307 148.302 648.44 147.504C647.573 146.707 646.464 146.308 645.112 146.308C643.795 146.308 642.737 146.724 641.94 147.556C641.143 148.388 640.744 149.394 640.744 150.572V150.624C640.744 151.786 641.16 152.739 641.992 153.484C642.824 154.23 643.899 154.602 645.216 154.602Z" fill="#86368C"/>
<path d="M654.828 163V161.414L661.432 155.59C662.853 154.325 663.841 153.285 664.396 152.47C664.951 151.638 665.228 150.772 665.228 149.87C665.228 148.83 664.873 147.99 664.162 147.348C663.451 146.707 662.585 146.386 661.562 146.386C660.557 146.386 659.681 146.638 658.936 147.14C658.191 147.643 657.437 148.432 656.674 149.506L655.166 148.414C656.085 147.08 657.021 146.1 657.974 145.476C658.945 144.852 660.193 144.54 661.718 144.54C663.347 144.54 664.691 145.026 665.748 145.996C666.823 146.967 667.36 148.198 667.36 149.688V149.74C667.36 151.006 667.022 152.132 666.346 153.12C665.67 154.091 664.474 155.322 662.758 156.812L657.896 161.128H667.542V163H654.828Z" fill="#86368C"/>
<path d="M677.568 152.522C676.788 153.441 675.8 153.9 674.604 153.9C673.408 153.9 672.42 153.45 671.64 152.548C670.878 151.63 670.496 150.546 670.496 149.298V149.246C670.496 147.981 670.886 146.889 671.666 145.97C672.446 145.052 673.443 144.592 674.656 144.592C675.835 144.592 676.806 145.052 677.568 145.97C678.348 146.872 678.738 147.946 678.738 149.194V149.246C678.738 150.512 678.348 151.604 677.568 152.522ZM674.604 146.048C673.911 146.048 673.339 146.352 672.888 146.958C672.455 147.565 672.238 148.31 672.238 149.194V149.246C672.238 150.148 672.472 150.91 672.94 151.534C673.408 152.141 673.98 152.444 674.656 152.444C675.35 152.444 675.913 152.141 676.346 151.534C676.797 150.928 677.022 150.182 677.022 149.298V149.246C677.022 148.362 676.78 147.608 676.294 146.984C675.826 146.36 675.263 146.048 674.604 146.048ZM679.388 153.51L685.732 144.8H687.578L680.558 154.342L674.24 163H672.368L679.388 153.51ZM685.316 163.208C684.138 163.208 683.158 162.758 682.378 161.856C681.616 160.938 681.234 159.854 681.234 158.606V158.554C681.234 157.289 681.624 156.197 682.404 155.278C683.184 154.36 684.172 153.9 685.368 153.9C686.582 153.9 687.561 154.36 688.306 155.278C689.069 156.18 689.45 157.254 689.45 158.502V158.554C689.45 159.837 689.06 160.938 688.28 161.856C687.518 162.758 686.53 163.208 685.316 163.208ZM685.368 161.752C686.062 161.752 686.625 161.449 687.058 160.842C687.509 160.236 687.734 159.49 687.734 158.606V158.554C687.734 157.653 687.5 156.899 687.032 156.292C686.564 155.668 685.992 155.356 685.316 155.356C684.623 155.356 684.051 155.66 683.6 156.266C683.167 156.873 682.95 157.618 682.95 158.502V158.554C682.95 159.456 683.184 160.218 683.652 160.842C684.12 161.449 684.692 161.752 685.368 161.752Z" fill="#86368C"/>
</g>
<g filter="url(#filter3_d_76_2983)">
<rect x="236" y="335" width="100" height="100" rx="8" fill="#FBF9FB" shape-rendering="crispEdges"/>
<path d="M327.667 385C327.667 408.012 309.012 426.666 286 426.666C262.988 426.666 244.333 408.012 244.333 385C244.333 361.988 262.988 343.333 286 343.333C309.012 343.333 327.667 361.988 327.667 385ZM257.012 385C257.012 401.009 269.991 413.987 286 413.987C302.009 413.987 314.987 401.009 314.987 385C314.987 368.99 302.009 356.012 286 356.012C269.991 356.012 257.012 368.99 257.012 385Z" fill="#F6EEF7"/>
<path d="M286 343.333C294.241 343.333 302.297 345.777 309.149 350.355C316.001 354.934 321.341 361.441 324.495 369.055C327.649 376.668 328.474 385.046 326.866 393.128C325.258 401.211 321.29 408.635 315.463 414.462C309.636 420.29 302.211 424.258 294.129 425.866C286.046 427.473 277.668 426.648 270.055 423.495C262.441 420.341 255.934 415 251.355 408.148C246.777 401.296 244.333 393.241 244.333 385H257.012C257.012 390.733 258.713 396.337 261.898 401.104C265.083 405.871 269.61 409.587 274.907 411.781C280.204 413.975 286.032 414.549 291.655 413.43C297.278 412.312 302.443 409.551 306.497 405.497C310.551 401.443 313.312 396.278 314.43 390.655C315.549 385.032 314.975 379.203 312.781 373.907C310.587 368.61 306.871 364.083 302.105 360.897C297.338 357.712 291.733 356.012 286 356.012V343.333Z" fill="#CA8B02"/>
<path d="M268.603 392L274.607 380.068H267.292V378.7H276.317V379.821L270.275 392H268.603Z" fill="#86368C"/>
<path d="M282.593 392.228C280.832 392.228 279.249 391.525 277.843 390.119L278.831 389.036C280.072 390.252 281.333 390.86 282.612 390.86C283.549 390.86 284.316 390.581 284.911 390.024C285.519 389.467 285.823 388.764 285.823 387.915V387.877C285.823 387.041 285.513 386.37 284.892 385.863C284.271 385.344 283.48 385.084 282.517 385.084C281.554 385.084 280.623 385.337 279.724 385.844L278.717 385.179L279.097 378.7H286.754V380.087H280.408L280.123 384.343C280.972 383.95 281.846 383.754 282.745 383.754C284.075 383.754 285.171 384.121 286.032 384.856C286.906 385.591 287.343 386.579 287.343 387.82V387.858C287.343 389.15 286.9 390.201 286.013 391.012C285.139 391.823 283.999 392.228 282.593 392.228Z" fill="#86368C"/>
<path d="M294.626 384.343C294.056 385.014 293.334 385.35 292.46 385.35C291.586 385.35 290.864 385.021 290.294 384.362C289.736 383.691 289.458 382.899 289.458 381.987V381.949C289.458 381.024 289.743 380.226 290.313 379.555C290.883 378.884 291.611 378.548 292.498 378.548C293.359 378.548 294.068 378.884 294.626 379.555C295.196 380.214 295.481 380.999 295.481 381.911V381.949C295.481 382.874 295.196 383.672 294.626 384.343ZM292.46 379.612C291.953 379.612 291.535 379.834 291.206 380.277C290.889 380.72 290.731 381.265 290.731 381.911V381.949C290.731 382.608 290.902 383.165 291.244 383.621C291.586 384.064 292.004 384.286 292.498 384.286C293.004 384.286 293.416 384.064 293.733 383.621C294.062 383.178 294.227 382.633 294.227 381.987V381.949C294.227 381.303 294.049 380.752 293.695 380.296C293.353 379.84 292.941 379.612 292.46 379.612ZM295.956 385.065L300.592 378.7H301.941L296.811 385.673L292.194 392H290.826L295.956 385.065ZM300.288 392.152C299.426 392.152 298.711 391.823 298.141 391.164C297.583 390.493 297.305 389.701 297.305 388.789V388.751C297.305 387.826 297.59 387.028 298.16 386.357C298.73 385.686 299.452 385.35 300.326 385.35C301.212 385.35 301.928 385.686 302.473 386.357C303.03 387.016 303.309 387.801 303.309 388.713V388.751C303.309 389.688 303.024 390.493 302.454 391.164C301.896 391.823 301.174 392.152 300.288 392.152ZM300.326 391.088C300.832 391.088 301.244 390.866 301.561 390.423C301.89 389.98 302.055 389.435 302.055 388.789V388.751C302.055 388.092 301.884 387.541 301.542 387.098C301.2 386.642 300.782 386.414 300.288 386.414C299.781 386.414 299.363 386.636 299.034 387.079C298.717 387.522 298.559 388.067 298.559 388.713V388.751C298.559 389.41 298.73 389.967 299.072 390.423C299.414 390.866 299.832 391.088 300.326 391.088Z" fill="#86368C"/>
</g>
<g filter="url(#filter4_d_76_2983)">
<rect x="179" y="50" width="214" height="120" rx="8" fill="#FBF9FB"/>
<path opacity="0.5" d="M189.5 129.5H381.5M189.5 71.5H381.5" stroke="#86368C" stroke-dasharray="4 4"/>
<path d="M189 131C200.812 118.978 210.646 111.5 227.5 111.5C243.5 111.5 255.18 126.107 272 120.5C284 116.5 295.017 99.0039 313 99.5C327.587 99.9024 332.87 118.647 347 115C358.632 111.998 358.5 102 368.5 93" stroke="#02AB6B" stroke-width="2"/>
<path d="M189 123C200.812 110.978 212.146 91.5003 229 91.5003C245 91.5003 253.18 114.107 270 108.5C282 104.5 293.517 72.5037 311.5 72.9998C326.087 73.4023 332.87 105.647 347 102C358.632 98.998 358.5 88 368.5 79" stroke="#CA8B02" stroke-width="2"/>
<path d="M189 60V160H383" stroke="#86368C"/>
</g>
</g>
<defs>
<filter id="filter0_d_76_2983" x="26" y="193" width="140" height="140" filterUnits="userSpaceOnUse" color-interpolation-filters="sRGB">
<feFlood flood-opacity="0" result="BackgroundImageFix"/>
<feColorMatrix in="SourceAlpha" type="matrix" values="0 0 0 0 0 0 0 0 0 0 0 0 0 0 0 0 0 0 127 0" result="hardAlpha"/>
<feOffset/>
<feGaussianBlur stdDeviation="5"/>
<feComposite in2="hardAlpha" operator="out"/>
<feColorMatrix type="matrix" values="0 0 0 0 0 0 0 0 0 0 0 0 0 0 0 0 0 0 0.25 0"/>
<feBlend mode="normal" in2="BackgroundImageFix" result="effect1_dropShadow_76_2983"/>
<feBlend mode="normal" in="SourceGraphic" in2="effect1_dropShadow_76_2983" result="shape"/>
</filter>
<filter id="filter1_d_76_2983" x="456" y="415" width="180" height="121" filterUnits="userSpaceOnUse" color-interpolation-filters="sRGB">
<feFlood flood-opacity="0" result="BackgroundImageFix"/>
<feColorMatrix in="SourceAlpha" type="matrix" values="0 0 0 0 0 0 0 0 0 0 0 0 0 0 0 0 0 0 127 0" result="hardAlpha"/>
<feOffset/>
<feGaussianBlur stdDeviation="5"/>
<feComposite in2="hardAlpha" operator="out"/>
<feColorMatrix type="matrix" values="0 0 0 0 0 0 0 0 0 0 0 0 0 0 0 0 0 0 0.25 0"/>
<feBlend mode="normal" in2="BackgroundImageFix" result="effect1_dropShadow_76_2983"/>
<feBlend mode="normal" in="SourceGraphic" in2="effect1_dropShadow_76_2983" result="shape"/>
</filter>
<filter id="filter2_d_76_2983" x="594" y="83" width="140" height="140" filterUnits="userSpaceOnUse" color-interpolation-filters="sRGB">
<feFlood flood-opacity="0" result="BackgroundImageFix"/>
<feColorMatrix in="SourceAlpha" type="matrix" values="0 0 0 0 0 0 0 0 0 0 0 0 0 0 0 0 0 0 127 0" result="hardAlpha"/>
<feOffset/>
<feGaussianBlur stdDeviation="5"/>
<feComposite in2="hardAlpha" operator="out"/>
<feColorMatrix type="matrix" values="0 0 0 0 0 0 0 0 0 0 0 0 0 0 0 0 0 0 0.25 0"/>
<feBlend mode="normal" in2="BackgroundImageFix" result="effect1_dropShadow_76_2983"/>
<feBlend mode="normal" in="SourceGraphic" in2="effect1_dropShadow_76_2983" result="shape"/>
</filter>
<filter id="filter3_d_76_2983" x="226" y="325" width="120" height="120" filterUnits="userSpaceOnUse" color-interpolation-filters="sRGB">
<feFlood flood-opacity="0" result="BackgroundImageFix"/>
<feColorMatrix in="SourceAlpha" type="matrix" values="0 0 0 0 0 0 0 0 0 0 0 0 0 0 0 0 0 0 127 0" result="hardAlpha"/>
<feOffset/>
<feGaussianBlur stdDeviation="5"/>
<feComposite in2="hardAlpha" operator="out"/>
<feColorMatrix type="matrix" values="0 0 0 0 0 0 0 0 0 0 0 0 0 0 0 0 0 0 0.25 0"/>
<feBlend mode="normal" in2="BackgroundImageFix" result="effect1_dropShadow_76_2983"/>
<feBlend mode="normal" in="SourceGraphic" in2="effect1_dropShadow_76_2983" result="shape"/>
</filter>
<filter id="filter4_d_76_2983" x="169" y="40" width="234" height="140" filterUnits="userSpaceOnUse" color-interpolation-filters="sRGB">
<feFlood flood-opacity="0" result="BackgroundImageFix"/>
<feColorMatrix in="SourceAlpha" type="matrix" values="0 0 0 0 0 0 0 0 0 0 0 0 0 0 0 0 0 0 127 0" result="hardAlpha"/>
<feOffset/>
<feGaussianBlur stdDeviation="5"/>
<feComposite in2="hardAlpha" operator="out"/>
<feColorMatrix type="matrix" values="0 0 0 0 0 0 0 0 0 0 0 0 0 0 0 0 0 0 0.25 0"/>
<feBlend mode="normal" in2="BackgroundImageFix" result="effect1_dropShadow_76_2983"/>
<feBlend mode="normal" in="SourceGraphic" in2="effect1_dropShadow_76_2983" result="shape"/>
</filter>
<linearGradient id="paint0_linear_76_2983" x1="478.632" y1="456.983" x2="478.632" y2="517.583" gradientUnits="userSpaceOnUse">
<stop stop-color="#86368C"/>
<stop offset="1" stop-color="#FBF9FB" stop-opacity="0"/>
</linearGradient>
<linearGradient id="paint1_linear_76_2983" x1="492.105" y1="462.875" x2="492.105" y2="517.583" gradientUnits="userSpaceOnUse">
<stop stop-color="#86368C"/>
<stop offset="1" stop-color="#FBF9FB" stop-opacity="0"/>
</linearGradient>
<linearGradient id="paint2_linear_76_2983" x1="505.579" y1="452.774" x2="505.579" y2="517.583" gradientUnits="userSpaceOnUse">
<stop stop-color="#86368C"/>
<stop offset="1" stop-color="#FBF9FB" stop-opacity="0"/>
</linearGradient>
<linearGradient id="paint3_linear_76_2983" x1="519.053" y1="450.25" x2="519.053" y2="517.583" gradientUnits="userSpaceOnUse">
<stop stop-color="#86368C"/>
<stop offset="1" stop-color="#FBF9FB" stop-opacity="0"/>
</linearGradient>
<linearGradient id="paint4_linear_76_2983" x1="532.526" y1="454.458" x2="532.526" y2="517.583" gradientUnits="userSpaceOnUse">
<stop stop-color="#86368C"/>
<stop offset="1" stop-color="#FBF9FB" stop-opacity="0"/>
</linearGradient>
<linearGradient id="paint5_linear_76_2983" x1="546" y1="452.774" x2="546" y2="517.583" gradientUnits="userSpaceOnUse">
<stop stop-color="#86368C"/>
<stop offset="1" stop-color="#FBF9FB" stop-opacity="0"/>
</linearGradient>
<linearGradient id="paint6_linear_76_2983" x1="559.474" y1="447.725" x2="559.474" y2="517.583" gradientUnits="userSpaceOnUse">
<stop stop-color="#86368C"/>
<stop offset="1" stop-color="#FBF9FB" stop-opacity="0"/>
</linearGradient>
<linearGradient id="paint7_linear_76_2983" x1="572.947" y1="454.458" x2="572.947" y2="517.583" gradientUnits="userSpaceOnUse">
<stop stop-color="#86368C"/>
<stop offset="1" stop-color="#FBF9FB" stop-opacity="0"/>
</linearGradient>
<linearGradient id="paint8_linear_76_2983" x1="586.421" y1="450.25" x2="586.421" y2="517.583" gradientUnits="userSpaceOnUse">
<stop stop-color="#86368C"/>
<stop offset="1" stop-color="#FBF9FB" stop-opacity="0"/>
</linearGradient>
<linearGradient id="paint9_linear_76_2983" x1="599.895" y1="447.725" x2="599.895" y2="517.583" gradientUnits="userSpaceOnUse">
<stop stop-color="#86368C"/>
<stop offset="1" stop-color="#FBF9FB" stop-opacity="0"/>
</linearGradient>
<linearGradient id="paint10_linear_76_2983" x1="613.368" y1="456.983" x2="613.368" y2="517.583" gradientUnits="userSpaceOnUse">
<stop stop-color="#86368C"/>
<stop offset="1" stop-color="#FBF9FB" stop-opacity="0"/>
</linearGradient>
<clipPath id="clip0_76_2983">
<rect width="750" height="570" fill="white"/>
</clipPath>
</defs>
</svg>
