<svg width="750" height="570" viewBox="0 0 750 570" fill="none" xmlns="http://www.w3.org/2000/svg">
<g clip-path="url(#clip0_54_1281)">
<rect x="124" y="109.698" width="461" height="350.604" rx="18" stroke="#FBF9FB" stroke-width="4"/>
<path fill-rule="evenodd" clip-rule="evenodd" d="M147.341 107.698C133.345 107.698 122 119.05 122 133.054V173.623H587V133.054C587 119.05 575.655 107.698 561.659 107.698H147.341ZM195.488 153.339C202.485 153.339 208.158 147.662 208.158 140.661C208.158 133.659 202.485 127.983 195.488 127.983C188.49 127.983 182.817 133.659 182.817 140.661C182.817 147.662 188.49 153.339 195.488 153.339ZM258.839 153.339C265.837 153.339 271.51 147.662 271.51 140.661C271.51 133.659 265.837 127.983 258.839 127.983C251.842 127.983 246.169 133.659 246.169 140.661C246.169 147.662 251.842 153.339 258.839 153.339ZM334.861 140.661C334.861 147.662 329.188 153.339 322.191 153.339C315.193 153.339 309.52 147.662 309.52 140.661C309.52 133.659 315.193 127.983 322.191 127.983C329.188 127.983 334.861 133.659 334.861 140.661ZM385.542 153.339C392.54 153.339 398.213 147.662 398.213 140.661C398.213 133.659 392.54 127.983 385.542 127.983C378.545 127.983 372.872 133.659 372.872 140.661C372.872 147.662 378.545 153.339 385.542 153.339ZM461.564 140.661C461.564 147.662 455.891 153.339 448.894 153.339C441.896 153.339 436.223 147.662 436.223 140.661C436.223 133.659 441.896 127.983 448.894 127.983C455.891 127.983 461.564 133.659 461.564 140.661ZM512.245 153.339C519.243 153.339 524.916 147.662 524.916 140.661C524.916 133.659 519.243 127.983 512.245 127.983C505.248 127.983 499.575 133.659 499.575 140.661C499.575 147.662 505.248 153.339 512.245 153.339Z" fill="#FBF9FB"/>
<path d="M151.142 229.406C151.142 226.606 153.411 224.335 156.21 224.335H187.886C190.685 224.335 192.954 226.606 192.954 229.406V252.227C192.954 255.028 190.685 257.298 187.886 257.298H156.21C153.411 257.298 151.142 255.028 151.142 252.227V229.406Z" fill="#FBF9FB"/>
<path d="M151.142 281.386C151.142 278.585 153.411 276.315 156.21 276.315H187.886C190.685 276.315 192.954 278.585 192.954 281.386V304.207C192.954 307.007 190.685 309.278 187.886 309.278H156.21C153.411 309.278 151.142 307.007 151.142 304.207V281.386Z" fill="#FBF9FB"/>
<path d="M151.142 333.366C151.142 330.565 153.411 328.295 156.21 328.295H187.886C190.685 328.295 192.954 330.565 192.954 333.366V356.186C192.954 358.987 190.685 361.258 187.886 361.258H156.21C153.411 361.258 151.142 358.987 151.142 356.186V333.366Z" fill="#FBF9FB"/>
<path d="M151.142 385.346C151.142 382.545 153.411 380.275 156.21 380.275H187.886C190.685 380.275 192.954 382.545 192.954 385.346V408.166C192.954 410.967 190.685 413.237 187.886 413.237H156.21C153.411 413.237 151.142 410.967 151.142 408.166V385.346Z" fill="#FBF9FB"/>
<path d="M211.959 229.406C211.959 226.606 214.228 224.335 217.027 224.335H248.703C251.502 224.335 253.771 226.606 253.771 229.406V252.227C253.771 255.028 251.502 257.298 248.703 257.298H217.027C214.228 257.298 211.959 255.028 211.959 252.227V229.406Z" fill="#007347"/>
<path d="M211.959 281.386C211.959 278.585 214.228 276.315 217.027 276.315H248.703C251.502 276.315 253.771 278.585 253.771 281.386V304.207C253.771 307.007 251.502 309.278 248.703 309.278H217.027C214.228 309.278 211.959 307.007 211.959 304.207V281.386Z" fill="#FBF9FB"/>
<path d="M211.959 333.366C211.959 330.565 214.228 328.295 217.027 328.295H248.703C251.502 328.295 253.771 330.565 253.771 333.366V356.186C253.771 358.987 251.502 361.258 248.703 361.258H217.027C214.228 361.258 211.959 358.987 211.959 356.186V333.366Z" fill="#FBF9FB"/>
<path d="M211.959 385.346C211.959 382.545 214.228 380.275 217.027 380.275H248.703C251.502 380.275 253.771 382.545 253.771 385.346V408.166C253.771 410.967 251.502 413.237 248.703 413.237H217.027C214.228 413.237 211.959 410.967 211.959 408.166V385.346Z" fill="#007347"/>
<path d="M272.777 229.406C272.777 226.606 275.046 224.335 277.845 224.335H309.52C312.319 224.335 314.589 226.606 314.589 229.406V252.227C314.589 255.028 312.319 257.298 309.52 257.298H277.845C275.046 257.298 272.777 255.028 272.777 252.227V229.406Z" fill="#FBF9FB"/>
<path d="M272.777 281.386C272.777 278.585 275.046 276.315 277.845 276.315H309.52C312.319 276.315 314.589 278.585 314.589 281.386V304.207C314.589 307.007 312.319 309.278 309.52 309.278H277.845C275.046 309.278 272.777 307.007 272.777 304.207V281.386Z" fill="#FBF9FB"/>
<path d="M272.777 333.366C272.777 330.565 275.046 328.295 277.845 328.295H309.52C312.319 328.295 314.589 330.565 314.589 333.366V356.186C314.589 358.987 312.319 361.258 309.52 361.258H277.845C275.046 361.258 272.777 358.987 272.777 356.186V333.366Z" fill="#007347"/>
<path d="M272.777 385.346C272.777 382.545 275.046 380.275 277.845 380.275H309.52C312.319 380.275 314.589 382.545 314.589 385.346V408.166C314.589 410.967 312.319 413.237 309.52 413.237H277.845C275.046 413.237 272.777 410.967 272.777 408.166V385.346Z" fill="#FBF9FB"/>
<path d="M333.594 229.406C333.594 226.606 335.863 224.335 338.662 224.335H370.338C373.137 224.335 375.406 226.606 375.406 229.406V252.227C375.406 255.028 373.137 257.298 370.338 257.298H338.662C335.863 257.298 333.594 255.028 333.594 252.227V229.406Z" fill="#FBF9FB"/>
<path d="M333.594 281.386C333.594 278.585 335.863 276.315 338.662 276.315H370.338C373.137 276.315 375.406 278.585 375.406 281.386V304.207C375.406 307.007 373.137 309.278 370.338 309.278H338.662C335.863 309.278 333.594 307.007 333.594 304.207V281.386Z" fill="#007347"/>
<path d="M333.594 333.366C333.594 330.565 335.863 328.295 338.662 328.295H370.338C373.137 328.295 375.406 330.565 375.406 333.366V356.186C375.406 358.987 373.137 361.258 370.338 361.258H338.662C335.863 361.258 333.594 358.987 333.594 356.186V333.366Z" fill="#007347"/>
<path d="M333.594 385.346C333.594 382.545 335.863 380.275 338.662 380.275H370.338C373.137 380.275 375.406 382.545 375.406 385.346V408.166C375.406 410.967 373.137 413.237 370.338 413.237H338.662C335.863 413.237 333.594 410.967 333.594 408.166V385.346Z" fill="#FBF9FB"/>
<path d="M394.411 229.406C394.411 226.606 396.681 224.335 399.48 224.335H431.155C433.954 224.335 436.223 226.606 436.223 229.406V252.227C436.223 255.028 433.954 257.298 431.155 257.298H399.48C396.681 257.298 394.411 255.028 394.411 252.227V229.406Z" fill="#FBF9FB"/>
<path d="M394.411 281.386C394.411 278.585 396.681 276.315 399.48 276.315H431.155C433.954 276.315 436.223 278.585 436.223 281.386V304.207C436.223 307.007 433.954 309.278 431.155 309.278H399.48C396.681 309.278 394.411 307.007 394.411 304.207V281.386Z" fill="#FBF9FB"/>
<path d="M394.411 333.366C394.411 330.565 396.681 328.295 399.48 328.295H431.155C433.954 328.295 436.223 330.565 436.223 333.366V356.186C436.223 358.987 433.954 361.258 431.155 361.258H399.48C396.681 361.258 394.411 358.987 394.411 356.186V333.366Z" fill="#FBF9FB"/>
<path d="M394.411 385.346C394.411 382.545 396.681 380.275 399.48 380.275H431.155C433.954 380.275 436.223 382.545 436.223 385.346V408.166C436.223 410.967 433.954 413.237 431.155 413.237H399.48C396.681 413.237 394.411 410.967 394.411 408.166V385.346Z" fill="#FBF9FB"/>
<path d="M455.229 229.406C455.229 226.606 457.498 224.335 460.297 224.335H491.973C494.772 224.335 497.041 226.606 497.041 229.406V252.227C497.041 255.028 494.772 257.298 491.973 257.298H460.297C457.498 257.298 455.229 255.028 455.229 252.227V229.406Z" fill="#8C3655"/>
<path d="M455.229 281.386C455.229 278.585 457.498 276.315 460.297 276.315H491.973C494.772 276.315 497.041 278.585 497.041 281.386V304.207C497.041 307.007 494.772 309.278 491.973 309.278H460.297C457.498 309.278 455.229 307.007 455.229 304.207V281.386Z" fill="#8C3655"/>
<path d="M455.229 333.366C455.229 330.565 457.498 328.295 460.297 328.295H491.973C494.772 328.295 497.041 330.565 497.041 333.366V356.186C497.041 358.987 494.772 361.258 491.973 361.258H460.297C457.498 361.258 455.229 358.987 455.229 356.186V333.366Z" fill="#8C3655"/>
<path d="M455.229 385.346C455.229 382.545 457.498 380.275 460.297 380.275H491.973C494.772 380.275 497.041 382.545 497.041 385.346V408.166C497.041 410.967 494.772 413.237 491.973 413.237H460.297C457.498 413.237 455.229 410.967 455.229 408.166V385.346Z" fill="#8C3655"/>
<path d="M516.046 229.406C516.046 226.606 518.315 224.335 521.114 224.335H552.79C555.589 224.335 557.858 226.606 557.858 229.406V252.227C557.858 255.028 555.589 257.298 552.79 257.298H521.114C518.315 257.298 516.046 255.028 516.046 252.227V229.406Z" fill="#8C3655"/>
<path d="M516.046 281.386C516.046 278.585 518.315 276.315 521.114 276.315H552.79C555.589 276.315 557.858 278.585 557.858 281.386V304.207C557.858 307.007 555.589 309.278 552.79 309.278H521.114C518.315 309.278 516.046 307.007 516.046 304.207V281.386Z" fill="#8C3655"/>
<path d="M516.046 333.366C516.046 330.565 518.315 328.295 521.114 328.295H552.79C555.589 328.295 557.858 330.565 557.858 333.366V356.186C557.858 358.987 555.589 361.258 552.79 361.258H521.114C518.315 361.258 516.046 358.987 516.046 356.186V333.366Z" fill="#8C3655"/>
<path d="M516.046 385.346C516.046 382.545 518.315 380.275 521.114 380.275H552.79C555.589 380.275 557.858 382.545 557.858 385.346V408.166C557.858 410.967 555.589 413.237 552.79 413.237H521.114C518.315 413.237 516.046 410.967 516.046 408.166V385.346Z" fill="#8C3655"/>
<g filter="url(#filter0_d_54_1281)">
<rect x="82" y="81" width="120" height="120" rx="16" fill="#FBF9FB" shape-rendering="crispEdges"/>
<path d="M142 100.375C119.6 100.375 101.375 118.6 101.375 141C101.375 163.4 119.6 181.625 142 181.625C164.4 181.625 182.625 163.4 182.625 141C182.625 118.6 164.4 100.375 142 100.375ZM132.191 123.191C134.666 120.568 138.148 119.125 142 119.125C145.852 119.125 149.303 120.578 151.787 123.215C154.305 125.887 155.529 129.477 155.24 133.336C154.662 141 148.725 147.25 142 147.25C135.275 147.25 129.326 141 128.76 133.334C128.473 129.443 129.695 125.842 132.191 123.191ZM142 175.375C137.411 175.378 132.868 174.46 128.641 172.674C124.414 170.888 120.588 168.272 117.391 164.98C119.222 162.369 121.555 160.149 124.254 158.449C129.232 155.258 135.533 153.5 142 153.5C148.467 153.5 154.768 155.258 159.74 158.449C162.441 160.148 164.777 162.368 166.609 164.98C163.412 168.273 159.587 170.889 155.359 172.675C151.132 174.46 146.589 175.378 142 175.375Z" fill="#190F19"/>
</g>
<g filter="url(#filter1_d_54_1281)">
<rect x="572" y="393" width="130" height="130" rx="16" fill="#FBF9FB" shape-rendering="crispEdges"/>
<path d="M688.563 430.511C688.567 427.862 687.806 425.268 686.37 423.041C684.935 420.815 682.887 419.05 680.473 417.96C678.059 416.869 675.381 416.499 672.762 416.895C670.143 417.29 667.693 418.433 665.708 420.187C664.633 421.135 663.712 422.244 662.977 423.474V423.487C662.861 423.681 662.752 423.878 662.644 424.076L662.593 424.181C662.503 424.351 662.419 424.523 662.337 424.697C662.311 424.751 662.288 424.804 662.264 424.858C662.193 425.015 662.124 425.174 662.06 425.335C662.032 425.402 662.006 425.468 661.981 425.535C661.923 425.685 661.867 425.836 661.813 425.988L661.736 426.216C661.688 426.362 661.643 426.51 661.6 426.658C661.574 426.742 661.551 426.824 661.529 426.908C661.489 427.052 661.454 427.198 661.42 427.337C661.398 427.425 661.377 427.514 661.357 427.602C661.327 427.748 661.299 427.896 661.274 428.031C661.256 428.122 661.239 428.212 661.224 428.302C661.201 428.452 661.181 428.605 661.162 428.757C661.151 428.846 661.138 428.934 661.128 429.024C661.11 429.189 661.1 429.355 661.087 429.522C661.087 429.6 661.074 429.677 661.07 429.754C661.057 429.999 661.048 430.244 661.048 430.493C661.048 430.708 661.048 430.923 661.065 431.125V431.263C661.077 431.464 661.092 431.666 661.11 431.868L661.123 431.972C661.143 432.154 661.164 432.335 661.192 432.513C661.192 432.549 661.192 432.588 661.207 432.625C661.237 432.82 661.274 433.014 661.312 433.207C661.312 433.254 661.332 433.299 661.34 433.347C661.379 433.531 661.422 433.716 661.469 433.899V433.939C661.519 434.131 661.572 434.318 661.63 434.505L661.675 434.651C661.733 434.833 661.794 435.012 661.858 435.19C661.871 435.229 661.886 435.267 661.901 435.306C661.959 435.458 662.019 435.611 662.081 435.761C662.099 435.806 662.116 435.849 662.135 435.892C662.208 436.062 662.283 436.232 662.363 436.399L662.434 436.543C662.509 436.694 662.584 436.844 662.664 436.992C663.785 439.077 665.423 440.838 667.42 442.108C667.945 442.443 668.492 442.741 669.057 442.999L669.141 443.038C669.522 443.21 669.911 443.365 670.308 443.502L670.512 443.571L670.834 443.672C670.931 443.702 671.028 443.728 671.126 443.756L671.539 443.863L671.911 443.949L672.158 443.998L672.551 444.069L672.753 444.102C672.946 444.13 673.142 444.155 673.337 444.177L673.503 444.192C673.659 444.205 673.818 444.218 673.977 444.226L674.162 444.237C674.377 444.237 674.579 444.254 674.79 444.254C675.039 444.254 675.284 444.254 675.529 444.233L675.761 444.215C675.928 444.203 676.094 444.192 676.259 444.175L676.528 444.14C676.678 444.121 676.831 444.102 676.981 444.078L677.252 444.029C677.398 444.003 677.546 443.975 677.681 443.945L677.946 443.882C678.092 443.848 678.238 443.814 678.375 443.773C678.459 443.751 678.541 443.728 678.624 443.702C678.773 443.659 678.921 443.614 679.067 443.567L679.295 443.489C679.447 443.436 679.598 443.38 679.748 443.322L679.948 443.242C680.109 443.178 680.268 443.109 680.425 443.038L680.586 442.965C680.76 442.883 680.932 442.8 681.102 442.709L681.207 442.658C681.405 442.55 681.602 442.443 681.796 442.325H681.808C683.049 441.596 684.168 440.678 685.126 439.605C687.344 437.095 688.567 433.86 688.563 430.511Z" fill="#190F19"/>
<path d="M661.789 446.512L639.11 464.151C638.506 464.62 637.764 464.875 637 464.875C636.236 464.875 635.494 464.62 634.89 464.151L603.953 440.088C603.589 439.814 603.284 439.47 603.055 439.076C602.825 438.683 602.676 438.248 602.617 437.796C602.557 437.345 602.587 436.886 602.706 436.446C602.826 436.006 603.031 435.595 603.311 435.235C603.59 434.876 603.938 434.575 604.335 434.351C604.732 434.128 605.169 433.985 605.621 433.932C606.074 433.878 606.532 433.915 606.97 434.04C607.408 434.166 607.817 434.377 608.172 434.662L637 457.083L657.243 441.339C655.284 438.17 654.221 434.53 654.168 430.805C654.115 427.08 655.073 423.411 656.94 420.188H600.906C597.716 420.191 594.658 421.46 592.403 423.715C590.147 425.971 588.878 429.029 588.875 432.219V483.781C588.878 486.971 590.147 490.029 592.403 492.285C594.658 494.54 597.716 495.809 600.906 495.812H673.094C676.284 495.809 679.342 494.54 681.597 492.285C683.853 490.029 685.122 486.971 685.125 483.781V448.373C681.506 450.469 677.335 451.414 673.167 451.081C668.998 450.749 665.029 449.155 661.789 446.512Z" fill="#190F19"/>
</g>
<g filter="url(#filter2_d_54_1281)">
<rect x="523" y="155" width="120" height="120" rx="16" fill="#FBF9FB" shape-rendering="crispEdges"/>
<path d="M626.75 190C626.75 186.685 625.433 183.506 623.089 181.161C620.745 178.817 617.565 177.5 614.25 177.5H611.125V174.463C611.125 172.781 609.832 171.338 608.15 171.254C607.728 171.234 607.306 171.299 606.909 171.447C606.513 171.595 606.15 171.821 605.844 172.113C605.538 172.405 605.294 172.756 605.128 173.145C604.961 173.534 604.875 173.952 604.875 174.375V177.5H561.125V174.463C561.125 172.781 559.832 171.338 558.15 171.254C557.728 171.234 557.306 171.299 556.909 171.447C556.513 171.595 556.15 171.821 555.844 172.113C555.538 172.405 555.294 172.756 555.128 173.145C554.961 173.534 554.875 173.952 554.875 174.375V177.5H551.75C548.435 177.5 545.255 178.817 542.911 181.161C540.567 183.506 539.25 186.685 539.25 190V192.344C539.25 192.551 539.332 192.75 539.479 192.896C539.625 193.043 539.824 193.125 540.031 193.125H625.969C626.176 193.125 626.375 193.043 626.521 192.896C626.668 192.75 626.75 192.551 626.75 192.344V190ZM539.25 246.25C539.25 249.565 540.567 252.745 542.911 255.089C545.255 257.433 548.435 258.75 551.75 258.75H614.25C617.565 258.75 620.745 257.433 623.089 255.089C625.433 252.745 626.75 249.565 626.75 246.25V199.961C626.75 199.806 626.688 199.657 626.578 199.547C626.468 199.437 626.319 199.375 626.164 199.375H539.836C539.681 199.375 539.532 199.437 539.422 199.547C539.312 199.657 539.25 199.806 539.25 199.961V246.25ZM606.438 205.625C607.365 205.625 608.271 205.9 609.042 206.415C609.813 206.93 610.413 207.662 610.768 208.519C611.123 209.375 611.216 210.318 611.035 211.227C610.854 212.136 610.408 212.972 609.752 213.627C609.097 214.283 608.261 214.729 607.352 214.91C606.443 215.091 605.5 214.998 604.644 214.643C603.787 214.289 603.055 213.688 602.54 212.917C602.025 212.146 601.75 211.24 601.75 210.313C601.75 209.07 602.244 207.877 603.123 206.998C604.002 206.119 605.194 205.625 606.438 205.625ZM606.438 221.25C607.365 221.25 608.271 221.525 609.042 222.04C609.813 222.555 610.413 223.287 610.768 224.144C611.123 225 611.216 225.943 611.035 226.852C610.854 227.761 610.408 228.597 609.752 229.252C609.097 229.908 608.261 230.354 607.352 230.535C606.443 230.716 605.5 230.623 604.644 230.268C603.787 229.914 603.055 229.313 602.54 228.542C602.025 227.771 601.75 226.865 601.75 225.938C601.75 224.695 602.244 223.502 603.123 222.623C604.002 221.744 605.194 221.25 606.438 221.25ZM590.812 205.625C591.74 205.625 592.646 205.9 593.417 206.415C594.188 206.93 594.788 207.662 595.143 208.519C595.498 209.375 595.591 210.318 595.41 211.227C595.229 212.136 594.783 212.972 594.127 213.627C593.472 214.283 592.636 214.729 591.727 214.91C590.818 215.091 589.875 214.998 589.019 214.643C588.162 214.289 587.43 213.688 586.915 212.917C586.4 212.146 586.125 211.24 586.125 210.313C586.125 209.07 586.619 207.877 587.498 206.998C588.377 206.119 589.569 205.625 590.812 205.625ZM590.812 221.25C591.74 221.25 592.646 221.525 593.417 222.04C594.188 222.555 594.788 223.287 595.143 224.144C595.498 225 595.591 225.943 595.41 226.852C595.229 227.761 594.783 228.597 594.127 229.252C593.472 229.908 592.636 230.354 591.727 230.535C590.818 230.716 589.875 230.623 589.019 230.268C588.162 229.914 587.43 229.313 586.915 228.542C586.4 227.771 586.125 226.865 586.125 225.938C586.125 224.695 586.619 223.502 587.498 222.623C588.377 221.744 589.569 221.25 590.812 221.25ZM590.812 236.875C591.74 236.875 592.646 237.15 593.417 237.665C594.188 238.18 594.788 238.912 595.143 239.769C595.498 240.625 595.591 241.568 595.41 242.477C595.229 243.386 594.783 244.222 594.127 244.877C593.472 245.533 592.636 245.979 591.727 246.16C590.818 246.341 589.875 246.248 589.019 245.893C588.162 245.539 587.43 244.938 586.915 244.167C586.4 243.396 586.125 242.49 586.125 241.563C586.125 240.32 586.619 239.127 587.498 238.248C588.377 237.369 589.569 236.875 590.812 236.875ZM575.188 221.25C576.115 221.25 577.021 221.525 577.792 222.04C578.563 222.555 579.163 223.287 579.518 224.144C579.873 225 579.966 225.943 579.785 226.852C579.604 227.761 579.158 228.597 578.502 229.252C577.847 229.908 577.011 230.354 576.102 230.535C575.193 230.716 574.25 230.623 573.394 230.268C572.537 229.914 571.805 229.313 571.29 228.542C570.775 227.771 570.5 226.865 570.5 225.938C570.5 224.695 570.994 223.502 571.873 222.623C572.752 221.744 573.944 221.25 575.188 221.25ZM575.188 236.875C576.115 236.875 577.021 237.15 577.792 237.665C578.563 238.18 579.163 238.912 579.518 239.769C579.873 240.625 579.966 241.568 579.785 242.477C579.604 243.386 579.158 244.222 578.502 244.877C577.847 245.533 577.011 245.979 576.102 246.16C575.193 246.341 574.25 246.248 573.394 245.893C572.537 245.539 571.805 244.938 571.29 244.167C570.775 243.396 570.5 242.49 570.5 241.563C570.5 240.32 570.994 239.127 571.873 238.248C572.752 237.369 573.944 236.875 575.188 236.875ZM559.562 221.25C560.49 221.25 561.396 221.525 562.167 222.04C562.938 222.555 563.538 223.287 563.893 224.144C564.248 225 564.341 225.943 564.16 226.852C563.979 227.761 563.533 228.597 562.877 229.252C562.222 229.908 561.386 230.354 560.477 230.535C559.568 230.716 558.625 230.623 557.769 230.268C556.912 229.914 556.18 229.313 555.665 228.542C555.15 227.771 554.875 226.865 554.875 225.938C554.875 224.695 555.369 223.502 556.248 222.623C557.127 221.744 558.319 221.25 559.562 221.25ZM559.562 236.875C560.49 236.875 561.396 237.15 562.167 237.665C562.938 238.18 563.538 238.912 563.893 239.769C564.248 240.625 564.341 241.568 564.16 242.477C563.979 243.386 563.533 244.222 562.877 244.877C562.222 245.533 561.386 245.979 560.477 246.16C559.568 246.341 558.625 246.248 557.769 245.893C556.912 245.539 556.18 244.938 555.665 244.167C555.15 243.396 554.875 242.49 554.875 241.563C554.875 240.32 555.369 239.127 556.248 238.248C557.127 237.369 558.319 236.875 559.562 236.875Z" fill="#190F19"/>
</g>
<g filter="url(#filter3_d_54_1281)">
<rect x="366" y="31" width="100" height="100" rx="16" fill="#FBF9FB" shape-rendering="crispEdges"/>
<path d="M437.094 116C434.044 116 429.759 114.897 423.344 111.313C415.542 106.938 409.508 102.898 401.748 95.1594C394.267 87.6828 390.627 82.8422 385.531 73.5703C379.775 63.1016 380.756 57.6141 381.853 55.2688C383.159 52.4656 385.088 50.7891 387.58 49.125C388.995 48.1976 390.493 47.4025 392.055 46.75C392.211 46.6828 392.356 46.6188 392.486 46.561C393.259 46.2125 394.431 45.686 395.916 46.2485C396.906 46.6203 397.791 47.3813 399.175 48.7485C402.014 51.5485 405.894 57.7844 407.325 60.8469C408.286 62.911 408.922 64.2735 408.923 65.8016C408.923 67.5906 408.023 68.9703 406.931 70.4594C406.727 70.7391 406.523 71.0063 406.327 71.2656C405.138 72.8281 404.877 73.2797 405.048 74.086C405.397 75.7063 407.995 80.5297 412.266 84.7906C416.536 89.0516 421.22 91.486 422.847 91.8328C423.688 92.0125 424.148 91.7406 425.761 90.5094C425.992 90.3328 426.23 90.15 426.478 89.9672C428.144 88.7281 429.459 87.8516 431.206 87.8516H431.216C432.736 87.8516 434.038 88.511 436.194 89.5985C439.006 91.0172 445.43 94.8469 448.247 97.6891C449.617 99.0703 450.381 99.9516 450.755 100.941C451.317 102.43 450.788 103.597 450.442 104.378C450.384 104.508 450.32 104.65 450.253 104.808C449.595 106.367 448.796 107.861 447.864 109.273C446.203 111.758 444.52 113.681 441.711 114.989C440.268 115.671 438.69 116.017 437.094 116Z" fill="#190F19"/>
</g>
<g filter="url(#filter4_d_54_1281)">
<rect x="220" y="385" width="110" height="110" rx="16" fill="#FBF9FB" shape-rendering="crispEdges"/>
<path d="M255.312 476.562C254.567 476.562 253.851 476.266 253.324 475.739C252.796 475.211 252.5 474.496 252.5 473.75V462.5H248.281C244.926 462.496 241.709 461.162 239.336 458.789C236.963 456.416 235.629 453.199 235.625 449.844V416.094C235.629 412.738 236.963 409.521 239.336 407.149C241.709 404.776 244.926 403.441 248.281 403.438H301.719C305.074 403.441 308.291 404.776 310.664 407.149C313.037 409.521 314.371 412.738 314.375 416.094V449.844C314.371 453.199 313.037 456.416 310.664 458.789C308.291 461.162 305.074 462.496 301.719 462.5H273.196L257.114 475.91C256.608 476.331 255.971 476.562 255.312 476.562Z" fill="#190F19"/>
</g>
<g filter="url(#filter5_d_54_1281)">
<rect x="52" y="326" width="80" height="80" rx="16" fill="#FBF9FB" shape-rendering="crispEdges"/>
<path d="M98.475 363.5H107V358.5H102.8C103.85 356.85 104.5 355.2 104.5 353.5C104.5 346.925 98.25 343.5 92 343.5C86.125 343.5 80.825 348.65 80.225 349.225L83.775 352.775C84.975 351.575 88.775 348.5 92 348.5C94.6 348.5 99.5 349.55 99.5 353.5C99.5 354.75 98.25 356.6 96.4 358.5H77V363.5H91.075C90.025 364.4 86.375 367.675 85.525 368.5H77V373.5H81.2C80.15 375.15 79.5 376.8 79.5 378.5C79.5 385.075 85.75 388.5 92 388.5C97.875 388.5 103.175 383.35 103.775 382.775L100.225 379.225C99.05 380.425 95.225 383.5 92 383.5C89.4 383.5 84.5 382.45 84.5 378.5C84.5 377.25 85.75 375.4 87.6 373.5H107V368.5H92.95L98.475 363.5Z" fill="#190F19"/>
</g>
</g>
<defs>
<filter id="filter0_d_54_1281" x="22" y="21" width="240" height="240" filterUnits="userSpaceOnUse" color-interpolation-filters="sRGB">
<feFlood flood-opacity="0" result="BackgroundImageFix"/>
<feColorMatrix in="SourceAlpha" type="matrix" values="0 0 0 0 0 0 0 0 0 0 0 0 0 0 0 0 0 0 127 0" result="hardAlpha"/>
<feOffset/>
<feGaussianBlur stdDeviation="30"/>
<feComposite in2="hardAlpha" operator="out"/>
<feColorMatrix type="matrix" values="0 0 0 0 0.52549 0 0 0 0 0.211765 0 0 0 0 0.54902 0 0 0 0.45 0"/>
<feBlend mode="normal" in2="BackgroundImageFix" result="effect1_dropShadow_54_1281"/>
<feBlend mode="normal" in="SourceGraphic" in2="effect1_dropShadow_54_1281" result="shape"/>
</filter>
<filter id="filter1_d_54_1281" x="512" y="333" width="250" height="250" filterUnits="userSpaceOnUse" color-interpolation-filters="sRGB">
<feFlood flood-opacity="0" result="BackgroundImageFix"/>
<feColorMatrix in="SourceAlpha" type="matrix" values="0 0 0 0 0 0 0 0 0 0 0 0 0 0 0 0 0 0 127 0" result="hardAlpha"/>
<feOffset/>
<feGaussianBlur stdDeviation="30"/>
<feComposite in2="hardAlpha" operator="out"/>
<feColorMatrix type="matrix" values="0 0 0 0 0.52549 0 0 0 0 0.211765 0 0 0 0 0.54902 0 0 0 0.45 0"/>
<feBlend mode="normal" in2="BackgroundImageFix" result="effect1_dropShadow_54_1281"/>
<feBlend mode="normal" in="SourceGraphic" in2="effect1_dropShadow_54_1281" result="shape"/>
</filter>
<filter id="filter2_d_54_1281" x="463" y="95" width="240" height="240" filterUnits="userSpaceOnUse" color-interpolation-filters="sRGB">
<feFlood flood-opacity="0" result="BackgroundImageFix"/>
<feColorMatrix in="SourceAlpha" type="matrix" values="0 0 0 0 0 0 0 0 0 0 0 0 0 0 0 0 0 0 127 0" result="hardAlpha"/>
<feOffset/>
<feGaussianBlur stdDeviation="30"/>
<feComposite in2="hardAlpha" operator="out"/>
<feColorMatrix type="matrix" values="0 0 0 0 0.52549 0 0 0 0 0.211765 0 0 0 0 0.54902 0 0 0 0.45 0"/>
<feBlend mode="normal" in2="BackgroundImageFix" result="effect1_dropShadow_54_1281"/>
<feBlend mode="normal" in="SourceGraphic" in2="effect1_dropShadow_54_1281" result="shape"/>
</filter>
<filter id="filter3_d_54_1281" x="306" y="-29" width="220" height="220" filterUnits="userSpaceOnUse" color-interpolation-filters="sRGB">
<feFlood flood-opacity="0" result="BackgroundImageFix"/>
<feColorMatrix in="SourceAlpha" type="matrix" values="0 0 0 0 0 0 0 0 0 0 0 0 0 0 0 0 0 0 127 0" result="hardAlpha"/>
<feOffset/>
<feGaussianBlur stdDeviation="30"/>
<feComposite in2="hardAlpha" operator="out"/>
<feColorMatrix type="matrix" values="0 0 0 0 0.52549 0 0 0 0 0.211765 0 0 0 0 0.54902 0 0 0 0.45 0"/>
<feBlend mode="normal" in2="BackgroundImageFix" result="effect1_dropShadow_54_1281"/>
<feBlend mode="normal" in="SourceGraphic" in2="effect1_dropShadow_54_1281" result="shape"/>
</filter>
<filter id="filter4_d_54_1281" x="160" y="325" width="230" height="230" filterUnits="userSpaceOnUse" color-interpolation-filters="sRGB">
<feFlood flood-opacity="0" result="BackgroundImageFix"/>
<feColorMatrix in="SourceAlpha" type="matrix" values="0 0 0 0 0 0 0 0 0 0 0 0 0 0 0 0 0 0 127 0" result="hardAlpha"/>
<feOffset/>
<feGaussianBlur stdDeviation="30"/>
<feComposite in2="hardAlpha" operator="out"/>
<feColorMatrix type="matrix" values="0 0 0 0 0.52549 0 0 0 0 0.211765 0 0 0 0 0.54902 0 0 0 0.45 0"/>
<feBlend mode="normal" in2="BackgroundImageFix" result="effect1_dropShadow_54_1281"/>
<feBlend mode="normal" in="SourceGraphic" in2="effect1_dropShadow_54_1281" result="shape"/>
</filter>
<filter id="filter5_d_54_1281" x="-8" y="266" width="200" height="200" filterUnits="userSpaceOnUse" color-interpolation-filters="sRGB">
<feFlood flood-opacity="0" result="BackgroundImageFix"/>
<feColorMatrix in="SourceAlpha" type="matrix" values="0 0 0 0 0 0 0 0 0 0 0 0 0 0 0 0 0 0 127 0" result="hardAlpha"/>
<feOffset/>
<feGaussianBlur stdDeviation="30"/>
<feComposite in2="hardAlpha" operator="out"/>
<feColorMatrix type="matrix" values="0 0 0 0 0.52549 0 0 0 0 0.211765 0 0 0 0 0.54902 0 0 0 0.45 0"/>
<feBlend mode="normal" in2="BackgroundImageFix" result="effect1_dropShadow_54_1281"/>
<feBlend mode="normal" in="SourceGraphic" in2="effect1_dropShadow_54_1281" result="shape"/>
</filter>
<clipPath id="clip0_54_1281">
<rect width="750" height="570" fill="white"/>
</clipPath>
</defs>
</svg>
