<svg width="750" height="570" viewBox="0 0 750 570" fill="none" xmlns="http://www.w3.org/2000/svg">
<path opacity="0.5" d="M85 113L725 113" stroke="#FBF9FB" stroke-linejoin="round" stroke-dasharray="5 5"/>
<path opacity="0.5" d="M85 274L725 274" stroke="#FBF9FB" stroke-linejoin="round" stroke-dasharray="5 5"/>
<rect x="100" y="259" width="50" height="238" fill="url(#paint0_linear_37_2606)"/>
<rect x="180" y="229" width="50" height="268" fill="url(#paint1_linear_37_2606)"/>
<rect x="260" y="214" width="50" height="283" fill="url(#paint2_linear_37_2606)"/>
<rect x="340" y="252" width="50" height="245" fill="url(#paint3_linear_37_2606)"/>
<rect x="420" y="192" width="50" height="305" fill="url(#paint4_linear_37_2606)"/>
<rect x="500" y="148" width="50" height="349" fill="url(#paint5_linear_37_2606)"/>
<rect x="580" y="229" width="50" height="268" fill="url(#paint6_linear_37_2606)"/>
<rect x="660" y="214" width="50" height="283" fill="url(#paint7_linear_37_2606)"/>
<path d="M117.939 513V527H116.359V521.56H112.499L108.299 527H106.359L110.739 521.38C109.579 521.18 108.639 520.72 107.919 520C107.212 519.28 106.859 518.36 106.859 517.24V517.22C106.859 515.913 107.332 514.887 108.279 514.14C109.226 513.38 110.512 513 112.139 513H117.939ZM116.359 514.46H112.019C110.899 514.46 110.026 514.713 109.399 515.22C108.772 515.713 108.459 516.387 108.459 517.24V517.26C108.459 518.193 108.806 518.907 109.499 519.4C110.192 519.893 111.106 520.14 112.239 520.14H116.359V514.46ZM121.632 527V516.66H123.172V521.08H129.352V516.66H130.872V527H129.352V522.48H123.172V527H121.632ZM134.327 527V516.66H139.547C140.627 516.66 141.481 516.893 142.107 517.36C142.734 517.827 143.047 518.48 143.047 519.32V519.34C143.047 520.487 142.427 521.273 141.187 521.7C142.694 522.127 143.447 522.96 143.447 524.2V524.22C143.447 525.1 143.101 525.787 142.407 526.28C141.714 526.773 140.761 527.013 139.547 527H134.327ZM135.847 521.18H139.227C139.961 521.18 140.521 521.027 140.907 520.72C141.294 520.413 141.487 519.993 141.487 519.46V519.44C141.487 518.96 141.301 518.58 140.927 518.3C140.567 518.02 140.047 517.887 139.367 517.9H135.847V521.18ZM135.847 522.38V525.76H139.507C140.267 525.76 140.854 525.613 141.267 525.32C141.694 525.027 141.907 524.633 141.907 524.14V524.12C141.907 523.573 141.687 523.147 141.247 522.84C140.807 522.52 140.174 522.367 139.347 522.38H135.847Z" fill="white"/>
<path d="M32.4716 68.216C30.8036 68.216 29.3036 67.55 27.9716 66.218L28.9076 65.192C30.0836 66.344 31.2776 66.92 32.4896 66.92C33.3776 66.92 34.1036 66.656 34.6676 66.128C35.2436 65.6 35.5316 64.934 35.5316 64.13V64.094C35.5316 63.302 35.2376 62.666 34.6496 62.186C34.0616 61.694 33.3116 61.448 32.3996 61.448C31.4876 61.448 30.6056 61.688 29.7536 62.168L28.7996 61.538L29.1596 55.4H36.4136V56.714H30.4016L30.1316 60.746C30.9356 60.374 31.7636 60.188 32.6156 60.188C33.8756 60.188 34.9136 60.536 35.7296 61.232C36.5576 61.928 36.9716 62.864 36.9716 64.04V64.076C36.9716 65.3 36.5516 66.296 35.7116 67.064C34.8836 67.832 33.8036 68.216 32.4716 68.216ZM45.8151 68V65.012H39.1731L38.8131 63.986L45.9411 55.31H47.1831V63.824H49.1451V65.012H47.1831V68H45.8151ZM40.5231 63.824H45.8151V57.326L40.5231 63.824ZM60.3932 66.326C59.4092 67.586 58.1252 68.216 56.5412 68.216C54.9572 68.216 53.6732 67.592 52.6892 66.344C51.7172 65.084 51.2312 63.548 51.2312 61.736V61.7C51.2312 59.888 51.7232 58.352 52.7072 57.092C53.7032 55.82 54.9932 55.184 56.5772 55.184C58.1612 55.184 59.4392 55.814 60.4112 57.074C61.3832 58.322 61.8692 59.852 61.8692 61.664V61.7C61.8692 63.512 61.3772 65.054 60.3932 66.326ZM53.7692 65.39C54.4892 66.41 55.4252 66.92 56.5772 66.92C57.7292 66.92 58.6532 66.416 59.3492 65.408C60.0452 64.4 60.3932 63.176 60.3932 61.736V61.7C60.3932 60.272 60.0332 59.048 59.3132 58.028C58.6052 56.996 57.6812 56.48 56.5412 56.48C55.4012 56.48 54.4772 56.984 53.7692 57.992C53.0612 59 52.7072 60.224 52.7072 61.664V61.7C52.7072 63.128 53.0612 64.358 53.7692 65.39ZM33.0341 121.216C31.3661 121.216 29.8661 120.55 28.5341 119.218L29.4701 118.192C30.6461 119.344 31.8401 119.92 33.0521 119.92C33.9401 119.92 34.6661 119.656 35.2301 119.128C35.8061 118.6 36.0941 117.934 36.0941 117.13V117.094C36.0941 116.302 35.8001 115.666 35.2121 115.186C34.6241 114.694 33.8741 114.448 32.9621 114.448C32.0501 114.448 31.1681 114.688 30.3161 115.168L29.3621 114.538L29.7221 108.4H36.9761V109.714H30.9641L30.6941 113.746C31.4981 113.374 32.3261 113.188 33.1781 113.188C34.4381 113.188 35.4761 113.536 36.2921 114.232C37.1201 114.928 37.5341 115.864 37.5341 117.04V117.076C37.5341 118.3 37.1141 119.296 36.2741 120.064C35.4461 120.832 34.3661 121.216 33.0341 121.216ZM44.1117 121.216C42.1197 121.216 40.5537 120.466 39.4137 118.966L40.4397 118.048C41.4597 119.296 42.6897 119.92 44.1297 119.92C44.9097 119.92 45.5637 119.698 46.0917 119.254C46.6197 118.798 46.8837 118.204 46.8837 117.472V117.436C46.8837 116.668 46.5597 116.074 45.9117 115.654C45.2637 115.222 44.4117 115.006 43.3557 115.006H42.5457L42.2577 114.16L46.2357 109.678H40.0797V108.4H48.1257V109.444L44.1657 113.836C45.3777 113.944 46.3737 114.292 47.1537 114.88C47.9337 115.456 48.3237 116.29 48.3237 117.382V117.418C48.3237 118.522 47.9157 119.434 47.0997 120.154C46.2957 120.862 45.2997 121.216 44.1117 121.216ZM59.8307 119.326C58.8467 120.586 57.5627 121.216 55.9787 121.216C54.3947 121.216 53.1107 120.592 52.1267 119.344C51.1547 118.084 50.6687 116.548 50.6687 114.736V114.7C50.6687 112.888 51.1607 111.352 52.1447 110.092C53.1407 108.82 54.4307 108.184 56.0147 108.184C57.5987 108.184 58.8767 108.814 59.8487 110.074C60.8207 111.322 61.3067 112.852 61.3067 114.664V114.7C61.3067 116.512 60.8147 118.054 59.8307 119.326ZM53.2067 118.39C53.9267 119.41 54.8627 119.92 56.0147 119.92C57.1667 119.92 58.0907 119.416 58.7867 118.408C59.4827 117.4 59.8307 116.176 59.8307 114.736V114.7C59.8307 113.272 59.4707 112.048 58.7507 111.028C58.0427 109.996 57.1187 109.48 55.9787 109.48C54.8387 109.48 53.9147 109.984 53.2067 110.992C52.4987 112 52.1447 113.224 52.1447 114.664V114.7C52.1447 116.128 52.4987 117.358 53.2067 118.39ZM33.2099 174.216C31.5419 174.216 30.0419 173.55 28.7099 172.218L29.6459 171.192C30.8219 172.344 32.0159 172.92 33.2279 172.92C34.1159 172.92 34.8419 172.656 35.4059 172.128C35.9819 171.6 36.2699 170.934 36.2699 170.13V170.094C36.2699 169.302 35.9759 168.666 35.3879 168.186C34.7999 167.694 34.0499 167.448 33.1379 167.448C32.2259 167.448 31.3439 167.688 30.4919 168.168L29.5379 167.538L29.8979 161.4H37.1519V162.714H31.1399L30.8699 166.746C31.6739 166.374 32.5019 166.188 33.3539 166.188C34.6139 166.188 35.6519 166.536 36.4679 167.232C37.2959 167.928 37.7099 168.864 37.7099 170.04V170.076C37.7099 171.3 37.2899 172.296 36.4499 173.064C35.6219 173.832 34.5419 174.216 33.2099 174.216ZM39.4656 174V172.902L44.0376 168.87C45.0216 167.994 45.7056 167.274 46.0896 166.71C46.4736 166.134 46.6656 165.534 46.6656 164.91C46.6656 164.19 46.4196 163.608 45.9276 163.164C45.4356 162.72 44.8356 162.498 44.1276 162.498C43.4316 162.498 42.8256 162.672 42.3096 163.02C41.7936 163.368 41.2716 163.914 40.7436 164.658L39.6996 163.902C40.3356 162.978 40.9836 162.3 41.6436 161.868C42.3156 161.436 43.1796 161.22 44.2356 161.22C45.3636 161.22 46.2936 161.556 47.0256 162.228C47.7696 162.9 48.1416 163.752 48.1416 164.784V164.82C48.1416 165.696 47.9076 166.476 47.4396 167.16C46.9716 167.832 46.1436 168.684 44.9556 169.716L41.5896 172.704H48.2676V174H39.4656ZM59.655 172.326C58.671 173.586 57.387 174.216 55.803 174.216C54.219 174.216 52.935 173.592 51.951 172.344C50.979 171.084 50.493 169.548 50.493 167.736V167.7C50.493 165.888 50.985 164.352 51.969 163.092C52.965 161.82 54.255 161.184 55.839 161.184C57.423 161.184 58.701 161.814 59.673 163.074C60.645 164.322 61.131 165.852 61.131 167.664V167.7C61.131 169.512 60.639 171.054 59.655 172.326ZM53.031 171.39C53.751 172.41 54.687 172.92 55.839 172.92C56.991 172.92 57.915 172.416 58.611 171.408C59.307 170.4 59.655 169.176 59.655 167.736V167.7C59.655 166.272 59.295 165.048 58.575 164.028C57.867 162.996 56.943 162.48 55.803 162.48C54.663 162.48 53.739 162.984 53.031 163.992C52.323 165 51.969 166.224 51.969 167.664V167.7C51.969 169.128 52.323 170.358 53.031 171.39ZM35.2841 227.216C33.6161 227.216 32.1161 226.55 30.7841 225.218L31.7201 224.192C32.8961 225.344 34.0901 225.92 35.3021 225.92C36.1901 225.92 36.9161 225.656 37.4801 225.128C38.0561 224.6 38.3441 223.934 38.3441 223.13V223.094C38.3441 222.302 38.0501 221.666 37.4621 221.186C36.8741 220.694 36.1241 220.448 35.2121 220.448C34.3001 220.448 33.4181 220.688 32.5661 221.168L31.6121 220.538L31.9721 214.4H39.2261V215.714H33.2141L32.9441 219.746C33.7481 219.374 34.5761 219.188 35.4281 219.188C36.6881 219.188 37.7261 219.536 38.5421 220.232C39.3701 220.928 39.7841 221.864 39.7841 223.04V223.076C39.7841 224.3 39.3641 225.296 38.5241 226.064C37.6961 226.832 36.6161 227.216 35.2841 227.216ZM44.0736 227V215.786L41.6976 216.524L41.3556 215.372L44.4336 214.31H45.4776V227H44.0736ZM57.5807 225.326C56.5967 226.586 55.3127 227.216 53.7287 227.216C52.1447 227.216 50.8607 226.592 49.8767 225.344C48.9047 224.084 48.4187 222.548 48.4187 220.736V220.7C48.4187 218.888 48.9107 217.352 49.8947 216.092C50.8907 214.82 52.1807 214.184 53.7647 214.184C55.3487 214.184 56.6267 214.814 57.5987 216.074C58.5707 217.322 59.0567 218.852 59.0567 220.664V220.7C59.0567 222.512 58.5647 224.054 57.5807 225.326ZM50.9567 224.39C51.6767 225.41 52.6127 225.92 53.7647 225.92C54.9167 225.92 55.8407 225.416 56.5367 224.408C57.2327 223.4 57.5807 222.176 57.5807 220.736V220.7C57.5807 219.272 57.2207 218.048 56.5007 217.028C55.7927 215.996 54.8687 215.48 53.7287 215.48C52.5887 215.48 51.6647 215.984 50.9567 216.992C50.2487 218 49.8947 219.224 49.8947 220.664V220.7C49.8947 222.128 50.2487 223.358 50.9567 224.39ZM32.0761 280.216C30.4081 280.216 28.9081 279.55 27.5761 278.218L28.5121 277.192C29.6881 278.344 30.8821 278.92 32.0941 278.92C32.9821 278.92 33.7081 278.656 34.2721 278.128C34.8481 277.6 35.1361 276.934 35.1361 276.13V276.094C35.1361 275.302 34.8421 274.666 34.2541 274.186C33.6661 273.694 32.9161 273.448 32.0041 273.448C31.0921 273.448 30.2101 273.688 29.3581 274.168L28.4041 273.538L28.7641 267.4H36.0181V268.714H30.0061L29.7361 272.746C30.5401 272.374 31.3681 272.188 32.2201 272.188C33.4801 272.188 34.5181 272.536 35.3341 273.232C36.1621 273.928 36.5761 274.864 36.5761 276.04V276.076C36.5761 277.3 36.1561 278.296 35.3161 279.064C34.4881 279.832 33.4081 280.216 32.0761 280.216ZM47.9216 278.326C46.9376 279.586 45.6536 280.216 44.0696 280.216C42.4856 280.216 41.2016 279.592 40.2176 278.344C39.2456 277.084 38.7596 275.548 38.7596 273.736V273.7C38.7596 271.888 39.2516 270.352 40.2356 269.092C41.2316 267.82 42.5216 267.184 44.1056 267.184C45.6896 267.184 46.9676 267.814 47.9396 269.074C48.9116 270.322 49.3976 271.852 49.3976 273.664V273.7C49.3976 275.512 48.9056 277.054 47.9216 278.326ZM41.2976 277.39C42.0176 278.41 42.9536 278.92 44.1056 278.92C45.2576 278.92 46.1816 278.416 46.8776 277.408C47.5736 276.4 47.9216 275.176 47.9216 273.736V273.7C47.9216 272.272 47.5616 271.048 46.8416 270.028C46.1336 268.996 45.2096 268.48 44.0696 268.48C42.9296 268.48 42.0056 268.984 41.2976 269.992C40.5896 271 40.2356 272.224 40.2356 273.664V273.7C40.2356 275.128 40.5896 276.358 41.2976 277.39ZM60.7887 278.326C59.8047 279.586 58.5207 280.216 56.9367 280.216C55.3527 280.216 54.0687 279.592 53.0847 278.344C52.1127 277.084 51.6267 275.548 51.6267 273.736V273.7C51.6267 271.888 52.1187 270.352 53.1027 269.092C54.0987 267.82 55.3887 267.184 56.9727 267.184C58.5567 267.184 59.8347 267.814 60.8067 269.074C61.7787 270.322 62.2647 271.852 62.2647 273.664V273.7C62.2647 275.512 61.7727 277.054 60.7887 278.326ZM54.1647 277.39C54.8847 278.41 55.8207 278.92 56.9727 278.92C58.1247 278.92 59.0487 278.416 59.7447 277.408C60.4407 276.4 60.7887 275.176 60.7887 273.736V273.7C60.7887 272.272 60.4287 271.048 59.7087 270.028C59.0007 268.996 58.0767 268.48 56.9367 268.48C55.7967 268.48 54.8727 268.984 54.1647 269.992C53.4567 271 53.1027 272.224 53.1027 273.664V273.7C53.1027 275.128 53.4567 276.358 54.1647 277.39ZM34.5651 333V330.012H27.9231L27.5631 328.986L34.6911 320.31H35.9331V328.824H37.8951V330.012H35.9331V333H34.5651ZM29.2731 328.824H34.5651V322.326L29.2731 328.824ZM44.0355 331.92C45.1995 331.92 46.1115 331.404 46.7715 330.372C47.4435 329.34 47.7795 328.104 47.7795 326.664V326.412C46.9155 327.744 45.7275 328.41 44.2155 328.41C42.9195 328.41 41.8635 328.044 41.0475 327.312C40.2315 326.58 39.8235 325.644 39.8235 324.504V324.468C39.8235 323.256 40.2495 322.242 41.1015 321.426C41.9535 320.598 43.0395 320.184 44.3595 320.184C45.7035 320.184 46.8075 320.616 47.6715 321.48C48.7155 322.524 49.2375 324.15 49.2375 326.358V326.394C49.2375 328.398 48.7515 330.036 47.7795 331.308C46.8075 332.58 45.5475 333.216 43.9995 333.216C42.6675 333.216 41.3715 332.7 40.1115 331.668L40.9395 330.57C41.9475 331.47 42.9795 331.92 44.0355 331.92ZM44.3775 327.186C45.3135 327.186 46.0695 326.904 46.6455 326.34C47.2215 325.764 47.5095 325.098 47.5095 324.342V324.306C47.5095 323.502 47.2095 322.824 46.6095 322.272C46.0095 321.72 45.2415 321.444 44.3055 321.444C43.3935 321.444 42.6615 321.732 42.1095 322.308C41.5575 322.884 41.2815 323.58 41.2815 324.396V324.432C41.2815 325.236 41.5695 325.896 42.1455 326.412C42.7215 326.928 43.4655 327.186 44.3775 327.186ZM60.6218 331.326C59.6378 332.586 58.3538 333.216 56.7698 333.216C55.1858 333.216 53.9018 332.592 52.9178 331.344C51.9458 330.084 51.4598 328.548 51.4598 326.736V326.7C51.4598 324.888 51.9518 323.352 52.9358 322.092C53.9318 320.82 55.2218 320.184 56.8058 320.184C58.3898 320.184 59.6678 320.814 60.6398 322.074C61.6118 323.322 62.0978 324.852 62.0978 326.664V326.7C62.0978 328.512 61.6058 330.054 60.6218 331.326ZM53.9978 330.39C54.7178 331.41 55.6538 331.92 56.8058 331.92C57.9578 331.92 58.8818 331.416 59.5778 330.408C60.2738 329.4 60.6218 328.176 60.6218 326.736V326.7C60.6218 325.272 60.2618 324.048 59.5418 323.028C58.8338 321.996 57.9098 321.48 56.7698 321.48C55.6298 321.48 54.7058 321.984 53.9978 322.992C53.2898 324 52.9358 325.224 52.9358 326.664V326.7C52.9358 328.128 53.2898 329.358 53.9978 330.39ZM34.6354 386V383.012H27.9934L27.6334 381.986L34.7614 373.31H36.0034V381.824H37.9654V383.012H36.0034V386H34.6354ZM29.3434 381.824H34.6354V375.326L29.3434 381.824ZM47.9895 385.19C47.0895 385.85 45.9615 386.18 44.6055 386.18C43.2495 386.18 42.1215 385.85 41.2215 385.19C40.3215 384.518 39.8715 383.66 39.8715 382.616V382.58C39.8715 381.86 40.1055 381.242 40.5735 380.726C41.0415 380.198 41.6715 379.784 42.4635 379.484C41.0235 378.824 40.3035 377.858 40.3035 376.586V376.55C40.3035 375.602 40.7235 374.81 41.5635 374.174C42.4155 373.538 43.4295 373.22 44.6055 373.22C45.7815 373.22 46.7895 373.538 47.6295 374.174C48.4815 374.81 48.9075 375.602 48.9075 376.55V376.586C48.9075 377.858 48.1875 378.824 46.7475 379.484C47.5395 379.784 48.1695 380.192 48.6375 380.708C49.1055 381.224 49.3395 381.842 49.3395 382.562V382.598C49.3395 383.654 48.8895 384.518 47.9895 385.19ZM42.5535 378.332C43.1055 378.764 43.7895 378.98 44.6055 378.98C45.4215 378.98 46.1055 378.764 46.6575 378.332C47.2095 377.9 47.4855 377.348 47.4855 376.676V376.64C47.4855 376.016 47.2095 375.5 46.6575 375.092C46.1175 374.672 45.4335 374.462 44.6055 374.462C43.7775 374.462 43.0875 374.672 42.5355 375.092C41.9955 375.5 41.7255 376.016 41.7255 376.64V376.676C41.7255 377.348 42.0015 377.9 42.5535 378.332ZM42.1935 384.254C42.7935 384.71 43.5975 384.938 44.6055 384.938C45.6135 384.938 46.4115 384.71 46.9995 384.254C47.5995 383.798 47.8995 383.24 47.8995 382.58V382.544C47.8995 381.86 47.5815 381.29 46.9455 380.834C46.3095 380.378 45.5295 380.15 44.6055 380.15C43.6815 380.15 42.9015 380.378 42.2655 380.834C41.6295 381.29 41.3115 381.86 41.3115 382.544V382.58C41.3115 383.24 41.6055 383.798 42.1935 384.254ZM60.5514 384.326C59.5674 385.586 58.2834 386.216 56.6994 386.216C55.1154 386.216 53.8314 385.592 52.8474 384.344C51.8754 383.084 51.3894 381.548 51.3894 379.736V379.7C51.3894 377.888 51.8814 376.352 52.8654 375.092C53.8614 373.82 55.1514 373.184 56.7354 373.184C58.3194 373.184 59.5974 373.814 60.5694 375.074C61.5414 376.322 62.0274 377.852 62.0274 379.664V379.7C62.0274 381.512 61.5354 383.054 60.5514 384.326ZM53.9274 383.39C54.6474 384.41 55.5834 384.92 56.7354 384.92C57.8874 384.92 58.8114 384.416 59.5074 383.408C60.2034 382.4 60.5514 381.176 60.5514 379.736V379.7C60.5514 378.272 60.1914 377.048 59.4714 376.028C58.7634 374.996 57.8394 374.48 56.6994 374.48C55.5594 374.48 54.6354 374.984 53.9274 375.992C53.2194 377 52.8654 378.224 52.8654 379.664V379.7C52.8654 381.128 53.2194 382.358 53.9274 383.39ZM35.4528 439V436.012H28.8108L28.4508 434.986L35.5788 426.31H36.8208V434.824H38.7828V436.012H36.8208V439H35.4528ZM30.1608 434.824H35.4528V428.326L30.1608 434.824ZM41.551 439L47.239 427.696H40.309V426.4H48.859V427.462L43.135 439H41.551ZM59.7341 437.326C58.7501 438.586 57.4661 439.216 55.8821 439.216C54.2981 439.216 53.0141 438.592 52.0301 437.344C51.0581 436.084 50.5721 434.548 50.5721 432.736V432.7C50.5721 430.888 51.0641 429.352 52.0481 428.092C53.0441 426.82 54.3341 426.184 55.9181 426.184C57.5021 426.184 58.7801 426.814 59.7521 428.074C60.7241 429.322 61.2101 430.852 61.2101 432.664V432.7C61.2101 434.512 60.7181 436.054 59.7341 437.326ZM53.1101 436.39C53.8301 437.41 54.7661 437.92 55.9181 437.92C57.0701 437.92 57.9941 437.416 58.6901 436.408C59.3861 435.4 59.7341 434.176 59.7341 432.736V432.7C59.7341 431.272 59.3741 430.048 58.6541 429.028C57.9461 427.996 57.0221 427.48 55.8821 427.48C54.7421 427.48 53.8181 427.984 53.1101 428.992C52.4021 430 52.0481 431.224 52.0481 432.664V432.7C52.0481 434.128 52.4021 435.358 53.1101 436.39ZM34.4772 492V489.012H27.8352L27.4752 487.986L34.6032 479.31H35.8452V487.824H37.8072V489.012H35.8452V492H34.4772ZM29.1852 487.824H34.4772V481.326L29.1852 487.824ZM44.7713 492.216C43.4153 492.216 42.3113 491.79 41.4593 490.938C40.9193 490.398 40.5173 489.756 40.2533 489.012C40.0013 488.268 39.8753 487.284 39.8753 486.06V486.024C39.8753 484.044 40.3433 482.412 41.2793 481.128C42.2273 479.832 43.5053 479.184 45.1133 479.184C46.4453 479.184 47.6873 479.664 48.8393 480.624L48.0113 481.722C47.0273 480.894 46.0373 480.48 45.0413 480.48C43.8773 480.48 42.9653 481.002 42.3053 482.046C41.6573 483.09 41.3333 484.368 41.3333 485.88V486.06C42.2333 484.764 43.4333 484.116 44.9333 484.116C46.1453 484.116 47.1713 484.476 48.0113 485.196C48.8633 485.904 49.2893 486.834 49.2893 487.986V488.022C49.2893 489.234 48.8573 490.236 47.9933 491.028C47.1293 491.82 46.0553 492.216 44.7713 492.216ZM44.7893 490.956C45.7013 490.956 46.4333 490.68 46.9853 490.128C47.5493 489.576 47.8313 488.892 47.8313 488.076V488.04C47.8313 487.272 47.5433 486.63 46.9673 486.114C46.3913 485.598 45.6533 485.34 44.7533 485.34C43.8413 485.34 43.0853 485.622 42.4853 486.186C41.8973 486.738 41.6033 487.374 41.6033 488.094V488.13C41.6033 488.934 41.9033 489.606 42.5033 490.146C43.1033 490.686 43.8653 490.956 44.7893 490.956ZM60.7096 490.326C59.7256 491.586 58.4416 492.216 56.8576 492.216C55.2736 492.216 53.9896 491.592 53.0056 490.344C52.0336 489.084 51.5476 487.548 51.5476 485.736V485.7C51.5476 483.888 52.0396 482.352 53.0236 481.092C54.0196 479.82 55.3096 479.184 56.8936 479.184C58.4776 479.184 59.7556 479.814 60.7276 481.074C61.6996 482.322 62.1856 483.852 62.1856 485.664V485.7C62.1856 487.512 61.6936 489.054 60.7096 490.326ZM54.0856 489.39C54.8056 490.41 55.7416 490.92 56.8936 490.92C58.0456 490.92 58.9696 490.416 59.6656 489.408C60.3616 488.4 60.7096 487.176 60.7096 485.736V485.7C60.7096 484.272 60.3496 483.048 59.6296 482.028C58.9216 480.996 57.9976 480.48 56.8576 480.48C55.7176 480.48 54.7936 480.984 54.0856 481.992C53.3776 483 53.0236 484.224 53.0236 485.664V485.7C53.0236 487.128 53.3776 488.358 54.0856 489.39Z" fill="white"/>
<path d="M192.315 527.26V525.58C190.048 525.553 188.275 525.033 186.995 524.02C185.728 522.993 185.095 521.64 185.095 519.96V519.94C185.095 518.287 185.728 516.947 186.995 515.92C188.275 514.88 190.048 514.347 192.315 514.32V512.74H193.915V514.32C196.168 514.373 197.935 514.907 199.215 515.92C200.495 516.92 201.135 518.26 201.135 519.94V519.96C201.135 521.6 200.495 522.94 199.215 523.98C197.935 525.02 196.168 525.553 193.915 525.58V527.26H192.315ZM186.735 519.94V519.96C186.735 521.213 187.208 522.22 188.155 522.98C189.115 523.74 190.515 524.133 192.355 524.16V515.74C190.528 515.767 189.135 516.16 188.175 516.92C187.215 517.68 186.735 518.687 186.735 519.94ZM199.495 519.94V519.92C199.495 518.693 199.015 517.7 198.055 516.94C197.108 516.167 195.715 515.767 193.875 515.74V524.16C195.715 524.133 197.108 523.747 198.055 523C199.015 522.24 199.495 521.22 199.495 519.94ZM208.515 527.24C207.075 527.24 205.855 526.74 204.855 525.74C203.855 524.727 203.355 523.433 203.355 521.86V521.82C203.355 520.313 203.822 519.04 204.755 518C205.702 516.96 206.889 516.44 208.315 516.44C209.795 516.44 210.969 516.96 211.835 518C212.702 519.04 213.135 520.34 213.135 521.9C213.135 522.113 213.129 522.28 213.115 522.4H204.915C205.022 523.493 205.415 524.353 206.095 524.98C206.789 525.593 207.609 525.9 208.555 525.9C209.782 525.9 210.869 525.413 211.815 524.44L212.775 525.3C211.642 526.593 210.222 527.24 208.515 527.24ZM204.915 521.26H211.575C211.495 520.26 211.169 519.427 210.595 518.76C210.035 518.08 209.262 517.74 208.275 517.74C207.382 517.74 206.622 518.073 205.995 518.74C205.382 519.407 205.022 520.247 204.915 521.26ZM215.831 527V516.66H221.051C222.131 516.66 222.985 516.893 223.611 517.36C224.238 517.827 224.551 518.48 224.551 519.32V519.34C224.551 520.487 223.931 521.273 222.691 521.7C224.198 522.127 224.951 522.96 224.951 524.2V524.22C224.951 525.1 224.605 525.787 223.911 526.28C223.218 526.773 222.265 527.013 221.051 527H215.831ZM217.351 521.18H220.731C221.465 521.18 222.025 521.027 222.411 520.72C222.798 520.413 222.991 519.993 222.991 519.46V519.44C222.991 518.96 222.805 518.58 222.431 518.3C222.071 518.02 221.551 517.887 220.871 517.9H217.351V521.18ZM217.351 522.38V525.76H221.011C221.771 525.76 222.358 525.613 222.771 525.32C223.198 525.027 223.411 524.633 223.411 524.14V524.12C223.411 523.573 223.191 523.147 222.751 522.84C222.311 522.52 221.678 522.367 220.851 522.38H217.351Z" fill="white"/>
<path d="M265.867 527V513H267.467L272.567 520.64L277.667 513H279.267V527H277.687V515.66L272.587 523.16H272.507L267.407 515.68V527H265.867ZM286.05 527.22C285.01 527.22 284.103 526.94 283.33 526.38C282.57 525.807 282.19 525.013 282.19 524V523.96C282.19 522.907 282.59 522.087 283.39 521.5C284.203 520.913 285.277 520.62 286.61 520.62C287.663 520.62 288.723 520.767 289.79 521.06V520.7C289.79 519.78 289.523 519.08 288.99 518.6C288.457 518.12 287.697 517.88 286.71 517.88C285.67 517.88 284.623 518.133 283.57 518.64L283.11 517.38C284.323 516.807 285.577 516.52 286.87 516.52C288.337 516.52 289.45 516.9 290.21 517.66C290.917 518.367 291.27 519.373 291.27 520.68V527H289.79V525.44C288.883 526.627 287.637 527.22 286.05 527.22ZM286.35 526C287.323 526 288.143 525.74 288.81 525.22C289.477 524.687 289.81 524.013 289.81 523.2V522.2C288.77 521.907 287.757 521.76 286.77 521.76C285.81 521.76 285.063 521.953 284.53 522.34C284.01 522.727 283.75 523.247 283.75 523.9V523.94C283.75 524.567 284.003 525.067 284.51 525.44C285.017 525.813 285.63 526 286.35 526ZM294.552 530.2V516.66H296.092V518.74C297.172 517.207 298.492 516.44 300.052 516.44C301.372 516.44 302.525 516.927 303.512 517.9C304.499 518.873 304.992 520.173 304.992 521.8V521.84C304.992 523.453 304.499 524.753 303.512 525.74C302.525 526.727 301.372 527.22 300.052 527.22C298.412 527.22 297.092 526.487 296.092 525.02V530.2H294.552ZM299.772 525.84C300.812 525.84 301.679 525.48 302.372 524.76C303.065 524.04 303.412 523.073 303.412 521.86V521.82C303.412 520.62 303.059 519.653 302.352 518.92C301.659 518.187 300.799 517.82 299.772 517.82C298.785 517.82 297.912 518.2 297.152 518.96C296.405 519.72 296.032 520.667 296.032 521.8V521.84C296.032 523 296.405 523.96 297.152 524.72C297.899 525.467 298.772 525.84 299.772 525.84Z" fill="white"/>
<path d="M344.911 527L351.291 512.9H352.771L359.151 527H357.451L355.811 523.3H348.191L346.531 527H344.911ZM348.811 521.88H355.191L352.011 514.74L348.811 521.88ZM361.652 527V516.66H370.872V527H369.332V518.06H363.192V527H361.652ZM374.308 530.2V516.66H375.848V518.74C376.928 517.207 378.248 516.44 379.808 516.44C381.128 516.44 382.281 516.927 383.268 517.9C384.255 518.873 384.748 520.173 384.748 521.8V521.84C384.748 523.453 384.255 524.753 383.268 525.74C382.281 526.727 381.128 527.22 379.808 527.22C378.168 527.22 376.848 526.487 375.848 525.02V530.2H374.308ZM379.528 525.84C380.568 525.84 381.435 525.48 382.128 524.76C382.821 524.04 383.168 523.073 383.168 521.86V521.82C383.168 520.62 382.815 519.653 382.108 518.92C381.415 518.187 380.555 517.82 379.528 517.82C378.541 517.82 377.668 518.2 376.908 518.96C376.161 519.72 375.788 520.667 375.788 521.8V521.84C375.788 523 376.161 523.96 376.908 524.72C377.655 525.467 378.528 525.84 379.528 525.84Z" fill="white"/>
<path d="M426.13 527V513H427.73L432.83 520.64L437.93 513H439.53V527H437.95V515.66L432.85 523.16H432.77L427.67 515.68V527H426.13ZM446.314 527.22C445.274 527.22 444.367 526.94 443.594 526.38C442.834 525.807 442.454 525.013 442.454 524V523.96C442.454 522.907 442.854 522.087 443.654 521.5C444.467 520.913 445.54 520.62 446.874 520.62C447.927 520.62 448.987 520.767 450.054 521.06V520.7C450.054 519.78 449.787 519.08 449.254 518.6C448.72 518.12 447.96 517.88 446.974 517.88C445.934 517.88 444.887 518.133 443.834 518.64L443.374 517.38C444.587 516.807 445.84 516.52 447.134 516.52C448.6 516.52 449.714 516.9 450.474 517.66C451.18 518.367 451.534 519.373 451.534 520.68V527H450.054V525.44C449.147 526.627 447.9 527.22 446.314 527.22ZM446.614 526C447.587 526 448.407 525.74 449.074 525.22C449.74 524.687 450.074 524.013 450.074 523.2V522.2C449.034 521.907 448.02 521.76 447.034 521.76C446.074 521.76 445.327 521.953 444.794 522.34C444.274 522.727 444.014 523.247 444.014 523.9V523.94C444.014 524.567 444.267 525.067 444.774 525.44C445.28 525.813 445.894 526 446.614 526ZM454.816 527V516.66H456.356V524.68L462.636 516.66H464.116V527H462.596V518.96L456.256 527H454.816ZM461.516 514.48C460.996 514.92 460.309 515.14 459.456 515.14C458.602 515.14 457.909 514.92 457.376 514.48C456.856 514.04 456.562 513.427 456.496 512.64H457.616C457.882 513.48 458.496 513.9 459.456 513.9C460.416 513.9 461.029 513.48 461.296 512.64H462.416C462.349 513.427 462.049 514.04 461.516 514.48Z" fill="white"/>
<path d="M515.9 527H514.32V515.46L505.36 527H504.06V513H505.64V524.28L514.4 513H515.9V527ZM521.141 522.48V527H519.601V516.66H521.141V521.08H523.661C523.821 519.76 524.388 518.66 525.361 517.78C526.348 516.887 527.534 516.44 528.921 516.44C530.428 516.44 531.674 516.967 532.661 518.02C533.661 519.06 534.161 520.32 534.161 521.8V521.84C534.161 523.333 533.661 524.607 532.661 525.66C531.661 526.713 530.401 527.24 528.881 527.24C527.481 527.24 526.294 526.787 525.321 525.88C524.348 524.973 523.794 523.84 523.661 522.48H521.141ZM528.921 525.86C530.001 525.86 530.881 525.473 531.561 524.7C532.241 523.927 532.581 522.987 532.581 521.88V521.84C532.581 520.72 532.228 519.767 531.521 518.98C530.814 518.193 529.934 517.8 528.881 517.8C527.788 517.8 526.901 518.187 526.221 518.96C525.541 519.733 525.201 520.68 525.201 521.8V521.84C525.201 522.96 525.554 523.913 526.261 524.7C526.968 525.473 527.854 525.86 528.921 525.86ZM536.945 527V516.66H538.485V521.08H544.665V516.66H546.185V527H544.665V522.48H538.485V527H536.945Z" fill="white"/>
<path d="M596.408 527H594.828V515.46L585.868 527H584.568V513H586.148V524.28L594.908 513H596.408V527ZM601.649 522.48V527H600.109V516.66H601.649V521.08H604.169C604.329 519.76 604.895 518.66 605.869 517.78C606.855 516.887 608.042 516.44 609.429 516.44C610.935 516.44 612.182 516.967 613.169 518.02C614.169 519.06 614.669 520.32 614.669 521.8V521.84C614.669 523.333 614.169 524.607 613.169 525.66C612.169 526.713 610.909 527.24 609.389 527.24C607.989 527.24 606.802 526.787 605.829 525.88C604.855 524.973 604.302 523.84 604.169 522.48H601.649ZM609.429 525.86C610.509 525.86 611.389 525.473 612.069 524.7C612.749 523.927 613.089 522.987 613.089 521.88V521.84C613.089 520.72 612.735 519.767 612.029 518.98C611.322 518.193 610.442 517.8 609.389 517.8C608.295 517.8 607.409 518.187 606.729 518.96C606.049 519.733 605.709 520.68 605.709 521.8V521.84C605.709 522.96 606.062 523.913 606.769 524.7C607.475 525.473 608.362 525.86 609.429 525.86ZM622.005 516.58L626.705 527H624.985L621.285 518.48L617.565 527H615.905L620.585 516.58H622.005Z" fill="white"/>
<path d="M666.991 527L673.371 512.9H674.851L681.231 527H679.531L677.891 523.3H670.271L668.611 527H666.991ZM670.891 521.88H677.271L674.091 514.74L670.891 521.88ZM683.732 527V516.66H688.952C690.032 516.66 690.885 516.893 691.512 517.36C692.138 517.827 692.452 518.48 692.452 519.32V519.34C692.452 520.487 691.832 521.273 690.592 521.7C692.098 522.127 692.852 522.96 692.852 524.2V524.22C692.852 525.1 692.505 525.787 691.812 526.28C691.118 526.773 690.165 527.013 688.952 527H683.732ZM685.252 521.18H688.632C689.365 521.18 689.925 521.027 690.312 520.72C690.698 520.413 690.892 519.993 690.892 519.46V519.44C690.892 518.96 690.705 518.58 690.332 518.3C689.972 518.02 689.452 517.887 688.772 517.9H685.252V521.18ZM685.252 522.38V525.76H688.912C689.672 525.76 690.258 525.613 690.672 525.32C691.098 525.027 691.312 524.633 691.312 524.14V524.12C691.312 523.573 691.092 523.147 690.652 522.84C690.212 522.52 689.578 522.367 688.752 522.38H685.252ZM695.665 527V516.66H703.185V518.06H697.205V527H695.665Z" fill="white"/>
<path d="M360.5 142.5V144V142.5ZM524 74.0002L523.684 75.4666L524 74.0002ZM603.5 118.5L603.43 119.999L603.5 118.5ZM682.98 87.7425C683.114 86.925 682.56 86.1537 681.742 86.0199L668.42 83.8388C667.602 83.705 666.831 84.2593 666.697 85.0768C666.563 85.8943 667.117 86.6656 667.935 86.7994L679.777 88.7381L677.839 100.58C677.705 101.398 678.259 102.169 679.077 102.303C679.894 102.437 680.665 101.883 680.799 101.065L682.98 87.7425ZM123.5 162.5C124.807 163.236 124.807 163.236 124.807 163.237C124.807 163.236 124.807 163.236 124.807 163.236C124.808 163.235 124.809 163.232 124.811 163.229C124.815 163.223 124.821 163.212 124.829 163.198C124.845 163.169 124.871 163.125 124.906 163.065C124.977 162.944 125.085 162.763 125.231 162.523C125.523 162.044 125.967 161.335 126.568 160.429C127.771 158.616 129.601 156.015 132.095 152.889C137.083 146.634 144.722 138.282 155.304 129.927C176.455 113.229 209.386 96.5 256.5 96.5V93.5C208.614 93.5 175.045 110.521 153.446 127.573C142.653 136.093 134.855 144.616 129.749 151.018C127.196 154.219 125.315 156.892 124.068 158.77C123.445 159.71 122.98 160.451 122.669 160.961C122.514 161.216 122.397 161.413 122.318 161.548C122.278 161.616 122.248 161.668 122.227 161.704C122.217 161.722 122.209 161.737 122.203 161.747C122.2 161.752 122.198 161.756 122.196 161.759C122.195 161.76 122.195 161.761 122.194 161.762C122.193 161.763 122.193 161.764 123.5 162.5ZM256.5 96.5C280.472 96.5 297.891 108.096 313.618 119.948C321.438 125.841 328.916 131.859 336.474 136.367C344.062 140.892 351.889 144 360.5 144V141C352.639 141 345.355 138.171 338.011 133.79C330.636 129.392 323.361 123.534 315.424 117.552C299.637 105.654 281.528 93.5 256.5 93.5V96.5ZM360.5 144C394.624 144 419.012 122.811 442.924 103.966C466.985 85.0036 490.596 68.3448 523.684 75.4666L524.316 72.5338C489.726 65.089 465.087 82.6801 441.067 101.61C416.899 120.656 393.376 141 360.5 141V144ZM523.684 75.4666C540.616 79.1107 551.311 89.5094 562.462 99.5521C573.562 109.549 585.088 119.145 603.43 119.999L603.57 117.002C586.371 116.202 575.538 107.291 564.47 97.3228C553.452 87.4005 542.167 76.3761 524.316 72.5338L523.684 75.4666ZM603.43 119.999C620.226 120.78 640.032 112.859 655.466 104.905C663.22 100.909 669.94 96.8666 674.722 93.8237C677.114 92.3018 679.023 91.0286 680.336 90.1345C680.992 89.6874 681.5 89.335 681.844 89.0935C682.017 88.9728 682.148 88.8798 682.237 88.8166C682.282 88.785 682.316 88.7608 682.339 88.7444C682.35 88.7361 682.359 88.7298 682.365 88.7254C682.368 88.7233 682.371 88.7216 682.372 88.7204C682.373 88.7198 682.374 88.7192 682.374 88.7189C682.375 88.7185 682.375 88.7183 681.5 87.5002C680.625 86.2821 680.625 86.2821 680.625 86.2821C680.624 86.2823 680.624 86.2826 680.623 86.2829C680.622 86.2837 680.621 86.285 680.618 86.2868C680.613 86.2903 680.606 86.2957 680.595 86.3031C680.575 86.3179 680.543 86.3404 680.501 86.3702C680.417 86.43 680.29 86.5195 680.123 86.6366C679.789 86.8708 679.292 87.2157 678.647 87.6549C677.357 88.5335 675.474 89.7893 673.112 91.2927C668.385 94.3003 661.745 98.2938 654.091 102.238C638.711 110.165 619.517 117.744 603.57 117.002L603.43 119.999Z" fill="#FBF9FB"/>
<defs>
<linearGradient id="paint0_linear_37_2606" x1="125" y1="259" x2="125" y2="497" gradientUnits="userSpaceOnUse">
<stop stop-color="#FBF9FB"/>
<stop offset="1" stop-color="#FBF9FB" stop-opacity="0"/>
</linearGradient>
<linearGradient id="paint1_linear_37_2606" x1="205" y1="229" x2="205" y2="497" gradientUnits="userSpaceOnUse">
<stop stop-color="#FBF9FB"/>
<stop offset="1" stop-color="#FBF9FB" stop-opacity="0"/>
</linearGradient>
<linearGradient id="paint2_linear_37_2606" x1="285" y1="214" x2="285" y2="497" gradientUnits="userSpaceOnUse">
<stop stop-color="#FBF9FB"/>
<stop offset="1" stop-color="#FBF9FB" stop-opacity="0"/>
</linearGradient>
<linearGradient id="paint3_linear_37_2606" x1="365" y1="252" x2="365" y2="497" gradientUnits="userSpaceOnUse">
<stop stop-color="#FBF9FB"/>
<stop offset="1" stop-color="#FBF9FB" stop-opacity="0"/>
</linearGradient>
<linearGradient id="paint4_linear_37_2606" x1="445" y1="192" x2="445" y2="497" gradientUnits="userSpaceOnUse">
<stop stop-color="#FBF9FB"/>
<stop offset="1" stop-color="#FBF9FB" stop-opacity="0"/>
</linearGradient>
<linearGradient id="paint5_linear_37_2606" x1="525" y1="148" x2="525" y2="497" gradientUnits="userSpaceOnUse">
<stop stop-color="#FBF9FB"/>
<stop offset="1" stop-color="#FBF9FB" stop-opacity="0"/>
</linearGradient>
<linearGradient id="paint6_linear_37_2606" x1="605" y1="229" x2="605" y2="497" gradientUnits="userSpaceOnUse">
<stop stop-color="#FBF9FB"/>
<stop offset="1" stop-color="#FBF9FB" stop-opacity="0"/>
</linearGradient>
<linearGradient id="paint7_linear_37_2606" x1="685" y1="214" x2="685" y2="497" gradientUnits="userSpaceOnUse">
<stop stop-color="#FBF9FB"/>
<stop offset="1" stop-color="#FBF9FB" stop-opacity="0"/>
</linearGradient>
</defs>
</svg>
