<svg width="750" height="570" viewBox="0 0 750 570" fill="none" xmlns="http://www.w3.org/2000/svg">
<path opacity="0.3" d="M711.692 236.852C714.462 247.383 716.35 258.152 717.295 269.114L716.797 269.157C717.263 274.559 717.5 280.009 717.5 285.5C717.5 290.991 717.263 296.441 716.797 301.843L717.295 301.886C716.35 312.848 714.462 323.617 711.692 334.148L711.209 334.021C708.443 344.54 704.794 354.821 700.323 364.82L700.78 365.024C696.356 374.917 691.129 384.534 685.158 393.83L684.737 393.56C678.921 402.614 672.396 411.364 665.217 419.769L665.597 420.094C658.6 428.286 650.982 436.151 642.794 443.651L642.457 443.282C634.537 450.536 626.083 457.448 617.139 463.984L617.434 464.388C608.743 470.739 599.591 476.735 590.019 482.346L589.767 481.915C580.485 487.355 570.808 492.433 560.772 497.119L560.984 497.572C551.213 502.135 541.103 506.327 530.69 510.123L530.519 509.653C520.395 513.342 509.984 516.657 499.317 519.571L499.449 520.053C489.036 522.898 478.38 525.363 467.511 527.425L467.418 526.934C456.819 528.944 446.016 530.571 435.037 531.794L435.093 532.291C424.353 533.487 413.445 534.297 402.395 534.701L402.377 534.201C396.951 534.4 391.491 534.5 386 534.5C380.509 534.5 375.049 534.4 369.623 534.201L369.605 534.701C358.555 534.297 347.647 533.487 336.907 532.291L336.963 531.794C325.984 530.571 315.181 528.944 304.582 526.934L304.489 527.425C293.62 525.363 282.964 522.898 272.551 520.053L272.683 519.571C262.016 516.657 251.605 513.342 241.481 509.653L241.31 510.123C230.897 506.327 220.787 502.135 211.016 497.572L211.228 497.119C201.192 492.433 191.515 487.355 182.233 481.915L181.981 482.346C172.409 476.735 163.257 470.739 154.566 464.388L154.861 463.984C145.917 457.448 137.463 450.536 129.543 443.282L129.206 443.651C121.018 436.151 113.4 428.286 106.403 420.094L106.783 419.769C99.6036 411.364 93.079 402.614 87.2629 393.56L86.8423 393.83C80.871 384.534 75.6444 374.917 71.2205 365.024L71.6769 364.82C67.2061 354.821 63.5575 344.54 60.7911 334.021L60.3076 334.148C57.538 323.617 55.6503 312.848 54.7046 301.886L55.2027 301.843C54.7367 296.441 54.5 290.991 54.5 285.5C54.5 280.009 54.7367 274.559 55.2027 269.157L54.7046 269.114C55.6503 258.152 57.538 247.383 60.3076 236.852L60.7911 236.979C63.5575 226.46 67.2061 216.179 71.6769 206.18L71.2205 205.976C75.6444 196.082 80.8711 186.466 86.8423 177.17L87.263 177.44C93.079 168.386 99.6036 159.636 106.783 151.231L106.403 150.906C113.4 142.714 121.018 134.849 129.206 127.349L129.543 127.718C137.463 120.464 145.917 113.552 154.861 107.016L154.566 106.612C163.257 100.261 172.409 94.2648 181.981 88.6541L182.233 89.0854C191.515 83.6448 201.192 78.5671 211.228 73.8807L211.016 73.4276C220.787 68.8647 230.897 64.6726 241.31 60.8773L241.481 61.3471C251.605 57.6575 262.016 54.3434 272.683 51.429L272.551 50.9467C282.964 48.1016 293.62 45.637 304.489 43.5752L304.582 44.0664C315.181 42.0557 325.984 40.4286 336.963 39.2057L336.907 38.7088C347.647 37.5125 358.555 36.7027 369.605 36.2989L369.623 36.7986C375.049 36.6003 380.509 36.5 386 36.5C391.491 36.5 396.951 36.6003 402.377 36.7986L402.395 36.2989C413.445 36.7027 424.353 37.5125 435.093 38.7088L435.037 39.2057C446.016 40.4286 456.819 42.0557 467.418 44.0664L467.511 43.5752C478.38 45.637 489.036 48.1016 499.449 50.9467L499.317 51.429C509.984 54.3434 520.395 57.6575 530.519 61.3471L530.69 60.8774C541.103 64.6726 551.213 68.8647 560.984 73.4277L560.772 73.8807C570.808 78.5671 580.485 83.6448 589.767 89.0855L590.019 88.6541C599.591 94.2649 608.743 100.261 617.434 106.612L617.139 107.016C626.083 113.552 634.537 120.464 642.457 127.718L642.794 127.349C650.982 134.849 658.6 142.714 665.597 150.906L665.217 151.231C672.396 159.636 678.921 168.386 684.737 177.44L685.158 177.17C691.129 186.466 696.356 196.083 700.78 205.976L700.323 206.18C704.794 216.179 708.443 226.46 711.209 236.979L711.692 236.852Z" stroke="#FBF9FB" stroke-dasharray="32 32"/>
<path opacity="0.3" d="M644.739 241.643C647.914 251.052 650.09 260.737 651.183 270.637L650.686 270.692C651.225 275.578 651.5 280.516 651.5 285.5C651.5 290.484 651.225 295.422 650.686 300.308L651.183 300.363C650.09 310.263 647.914 319.948 644.739 329.357L644.265 329.197C641.135 338.474 637.03 347.484 632.03 356.169L632.463 356.418C627.601 364.864 621.896 373.001 615.424 380.778L615.039 380.458C608.843 387.902 601.94 395.017 594.394 401.754L594.727 402.127C587.485 408.594 579.653 414.714 571.29 420.445L571.008 420.032C563.001 425.519 554.505 430.65 545.57 435.389L545.805 435.83C537.21 440.389 528.21 444.584 518.852 448.385L518.664 447.922C509.637 451.587 500.275 454.885 490.618 457.786L490.762 458.265C481.415 461.073 471.792 463.51 461.931 465.549L461.829 465.059C452.267 467.036 442.479 468.639 432.501 469.844L432.561 470.34C422.84 471.514 412.938 472.31 402.886 472.707L402.866 472.207C397.946 472.402 392.989 472.5 388 472.5C383.011 472.5 378.054 472.402 373.134 472.207L373.114 472.707C363.062 472.31 353.16 471.514 343.439 470.34L343.499 469.844C333.521 468.639 323.733 467.036 314.171 465.059L314.069 465.549C304.208 463.51 294.585 461.073 285.238 458.265L285.382 457.786C275.725 454.885 266.363 451.587 257.336 447.922L257.148 448.385C247.79 444.584 238.791 440.389 230.195 435.83L230.43 435.389C221.495 430.65 212.999 425.519 204.992 420.032L204.71 420.445C196.347 414.714 188.515 408.594 181.273 402.127L181.606 401.754C174.06 395.017 167.157 387.902 160.961 380.458L160.576 380.778C154.104 373.001 148.399 364.864 143.537 356.418L143.97 356.169C138.97 347.484 134.865 338.474 131.735 329.197L131.261 329.357C128.086 319.948 125.91 310.263 124.817 300.363L125.314 300.308C124.775 295.422 124.5 290.484 124.5 285.5C124.5 280.516 124.775 275.578 125.314 270.692L124.817 270.637C125.91 260.737 128.086 251.052 131.261 241.643L131.735 241.803C134.865 232.526 138.97 223.516 143.97 214.831L143.537 214.582C148.399 206.136 154.104 197.999 160.576 190.222L160.961 190.542C167.157 183.098 174.06 175.983 181.606 169.246L181.273 168.873C188.515 162.406 196.347 156.286 204.71 150.555L204.992 150.968C212.999 145.481 221.495 140.35 230.43 135.611L230.195 135.17C238.791 130.611 247.79 126.416 257.148 122.615L257.336 123.078C266.363 119.413 275.725 116.115 285.382 113.214L285.238 112.735C294.585 109.927 304.208 107.49 314.069 105.451L314.171 105.941C323.733 103.964 333.521 102.361 343.499 101.156L343.439 100.66C353.16 99.4861 363.062 98.6899 373.114 98.2931L373.134 98.7927C378.054 98.5984 383.011 98.5 388 98.5C392.989 98.5 397.946 98.5984 402.866 98.7927L402.886 98.2931C412.938 98.6899 422.84 99.4861 432.561 100.66L432.501 101.156C442.479 102.361 452.267 103.964 461.829 105.941L461.931 105.451C471.792 107.49 481.415 109.927 490.762 112.735L490.618 113.214C500.275 116.115 509.637 119.413 518.664 123.078L518.852 122.615C528.21 126.416 537.209 130.611 545.805 135.17L545.57 135.611C554.505 140.35 563.001 145.481 571.008 150.968L571.29 150.555C579.653 156.286 587.485 162.406 594.727 168.873L594.394 169.246C601.939 175.983 608.843 183.098 615.039 190.542L615.423 190.222C621.896 197.999 627.601 206.136 632.463 214.582L632.03 214.831C637.03 223.516 641.135 232.526 644.265 241.803L644.739 241.643Z" stroke="#FBF9FB" stroke-dasharray="32 32"/>
<path opacity="0.3" d="M583.389 234.805C588.835 245.357 592.629 256.473 594.551 267.996L594.057 268.078C595.01 273.791 595.5 279.605 595.5 285.5C595.5 291.395 595.01 297.209 594.057 302.922L594.551 303.004C592.629 314.527 588.835 325.643 583.389 336.195L582.945 335.966C577.732 346.067 570.997 355.653 562.935 364.584L563.306 364.919C555.704 373.34 546.928 381.177 537.142 388.314L536.848 387.91C527.693 394.587 517.65 400.651 506.853 406.006L507.076 406.454C496.861 411.52 485.975 415.952 474.531 419.67L474.376 419.194C463.511 422.724 452.141 425.608 440.363 427.778L440.454 428.27C429.174 430.348 417.522 431.772 405.583 432.48L405.553 431.981C399.767 432.325 393.912 432.5 388 432.5C382.088 432.5 376.233 432.325 370.447 431.981L370.417 432.48C358.478 431.772 346.826 430.348 335.546 428.27L335.637 427.778C323.859 425.608 312.489 422.724 301.624 419.194L301.469 419.67C290.025 415.952 279.139 411.52 268.924 406.454L269.147 406.006C258.35 400.651 248.307 394.587 239.152 387.91L238.858 388.314C229.072 381.177 220.296 373.34 212.694 364.919L213.065 364.584C205.003 355.653 198.268 346.067 193.055 335.966L192.611 336.195C187.165 325.643 183.371 314.527 181.449 303.004L181.943 302.922C180.99 297.209 180.5 291.395 180.5 285.5C180.5 279.605 180.99 273.791 181.943 268.078L181.449 267.996C183.371 256.473 187.165 245.357 192.611 234.805L193.055 235.034C198.268 224.933 205.003 215.347 213.065 206.416L212.694 206.081C220.296 197.66 229.072 189.823 238.858 182.686L239.152 183.09C248.307 176.413 258.35 170.349 269.147 164.994L268.924 164.546C279.139 159.48 290.025 155.048 301.469 151.33L301.624 151.806C312.489 148.276 323.859 145.392 335.637 143.222L335.546 142.73C346.826 140.652 358.478 139.228 370.417 138.52L370.447 139.019C376.233 138.675 382.088 138.5 388 138.5C393.912 138.5 399.767 138.675 405.553 139.019L405.583 138.52C417.522 139.228 429.174 140.652 440.454 142.73L440.363 143.222C452.141 145.392 463.511 148.276 474.376 151.806L474.531 151.33C485.975 155.048 496.861 159.48 507.076 164.546L506.853 164.994C517.65 170.349 527.693 176.413 536.848 183.09L537.142 182.686C546.928 189.823 555.704 197.66 563.306 206.081L562.935 206.416C570.997 215.347 577.732 224.933 582.945 235.034L583.389 234.805Z" stroke="#FBF9FB" stroke-dasharray="32 32"/>
<rect x="184" y="60" width="330" height="467" rx="20" fill="#FBF9FB"/>
<rect x="214" y="80" width="280" height="35" fill="#F6EEF7"/>
<path d="M486.5 134.25L480.2 141.75L477.5 138.75" stroke="#F6EEF7" stroke-width="2" stroke-linecap="round" stroke-linejoin="round"/>
<path d="M488.75 129H475.25C474.007 129 473 130.007 473 131.25V144.75C473 145.993 474.007 147 475.25 147H488.75C489.993 147 491 145.993 491 144.75V131.25C491 130.007 489.993 129 488.75 129Z" stroke="#F6EEF7" stroke-width="2" stroke-linejoin="round"/>
<rect x="214" y="130" width="245" height="15" fill="#F6EEF7"/>
<path d="M486.5 163.25L480.2 170.75L477.5 167.75" stroke="#F6EEF7" stroke-width="2" stroke-linecap="round" stroke-linejoin="round"/>
<path d="M488.75 158H475.25C474.007 158 473 159.007 473 160.25V173.75C473 174.993 474.007 176 475.25 176H488.75C489.993 176 491 174.993 491 173.75V160.25C491 159.007 489.993 158 488.75 158Z" stroke="#F6EEF7" stroke-width="2" stroke-linejoin="round"/>
<rect x="214" y="159" width="245" height="15" fill="#F6EEF7"/>
<path d="M486.5 192.25L480.2 199.75L477.5 196.75" stroke="#F6EEF7" stroke-width="2" stroke-linecap="round" stroke-linejoin="round"/>
<path d="M488.75 187H475.25C474.007 187 473 188.007 473 189.25V202.75C473 203.993 474.007 205 475.25 205H488.75C489.993 205 491 203.993 491 202.75V189.25C491 188.007 489.993 187 488.75 187Z" stroke="#F6EEF7" stroke-width="2" stroke-linejoin="round"/>
<rect x="214" y="188" width="245" height="15" fill="#F6EEF7"/>
<path d="M486.5 221.25L480.2 228.75L477.5 225.75" stroke="#F6EEF7" stroke-width="2" stroke-linecap="round" stroke-linejoin="round"/>
<path d="M488.75 216H475.25C474.007 216 473 217.007 473 218.25V231.75C473 232.993 474.007 234 475.25 234H488.75C489.993 234 491 232.993 491 231.75V218.25C491 217.007 489.993 216 488.75 216Z" stroke="#F6EEF7" stroke-width="2" stroke-linejoin="round"/>
<rect x="214" y="217" width="245" height="15" fill="#F6EEF7"/>
<path d="M486.5 250.25L480.2 257.75L477.5 254.75" stroke="#F6EEF7" stroke-width="2" stroke-linecap="round" stroke-linejoin="round"/>
<path d="M488.75 245H475.25C474.007 245 473 246.007 473 247.25V260.75C473 261.993 474.007 263 475.25 263H488.75C489.993 263 491 261.993 491 260.75V247.25C491 246.007 489.993 245 488.75 245Z" stroke="#F6EEF7" stroke-width="2" stroke-linejoin="round"/>
<rect x="214" y="246" width="245" height="15" fill="#F6EEF7"/>
<path d="M486.5 279.25L480.2 286.75L477.5 283.75" stroke="#F6EEF7" stroke-width="2" stroke-linecap="round" stroke-linejoin="round"/>
<path d="M488.75 274H475.25C474.007 274 473 275.007 473 276.25V289.75C473 290.993 474.007 292 475.25 292H488.75C489.993 292 491 290.993 491 289.75V276.25C491 275.007 489.993 274 488.75 274Z" stroke="#F6EEF7" stroke-width="2" stroke-linejoin="round"/>
<rect x="214" y="275" width="245" height="15" fill="#F6EEF7"/>
<path d="M486.5 308.25L480.2 315.75L477.5 312.75" stroke="#F6EEF7" stroke-width="2" stroke-linecap="round" stroke-linejoin="round"/>
<path d="M488.75 303H475.25C474.007 303 473 304.007 473 305.25V318.75C473 319.993 474.007 321 475.25 321H488.75C489.993 321 491 319.993 491 318.75V305.25C491 304.007 489.993 303 488.75 303Z" stroke="#F6EEF7" stroke-width="2" stroke-linejoin="round"/>
<rect x="214" y="304" width="245" height="15" fill="#F6EEF7"/>
<path d="M486.5 337.25L480.2 344.75L477.5 341.75" stroke="#F6EEF7" stroke-width="2" stroke-linecap="round" stroke-linejoin="round"/>
<path d="M488.75 332H475.25C474.007 332 473 333.007 473 334.25V347.75C473 348.993 474.007 350 475.25 350H488.75C489.993 350 491 348.993 491 347.75V334.25C491 333.007 489.993 332 488.75 332Z" stroke="#F6EEF7" stroke-width="2" stroke-linejoin="round"/>
<rect x="214" y="333" width="245" height="15" fill="#F6EEF7"/>
<path d="M488.75 361H475.25C474.007 361 473 362.007 473 363.25V376.75C473 377.993 474.007 379 475.25 379H488.75C489.993 379 491 377.993 491 376.75V363.25C491 362.007 489.993 361 488.75 361Z" stroke="#F6EEF7" stroke-width="2" stroke-linejoin="round"/>
<rect x="214" y="362" width="245" height="15" fill="#F6EEF7"/>
<path d="M488.75 390H475.25C474.007 390 473 391.007 473 392.25V405.75C473 406.993 474.007 408 475.25 408H488.75C489.993 408 491 406.993 491 405.75V392.25C491 391.007 489.993 390 488.75 390Z" stroke="#F6EEF7" stroke-width="2" stroke-linejoin="round"/>
<rect x="214" y="391" width="245" height="15" fill="#F6EEF7"/>
<path d="M488.75 419H475.25C474.007 419 473 420.007 473 421.25V434.75C473 435.993 474.007 437 475.25 437H488.75C489.993 437 491 435.993 491 434.75V421.25C491 420.007 489.993 419 488.75 419Z" stroke="#F6EEF7" stroke-width="2" stroke-linejoin="round"/>
<rect x="214" y="420" width="245" height="15" fill="#F6EEF7"/>
<path d="M488.75 448H475.25C474.007 448 473 449.007 473 450.25V463.75C473 464.993 474.007 466 475.25 466H488.75C489.993 466 491 464.993 491 463.75V450.25C491 449.007 489.993 448 488.75 448Z" stroke="#F6EEF7" stroke-width="2" stroke-linejoin="round"/>
<rect x="214" y="449" width="245" height="15" fill="#F6EEF7"/>
<path d="M488.75 477H475.25C474.007 477 473 478.007 473 479.25V492.75C473 493.993 474.007 495 475.25 495H488.75C489.993 495 491 493.993 491 492.75V479.25C491 478.007 489.993 477 488.75 477Z" stroke="#F6EEF7" stroke-width="2" stroke-linejoin="round"/>
<rect x="214" y="478" width="245" height="15" fill="#F6EEF7"/>
<rect x="42.5" y="237.5" width="179" height="70" rx="7.5" fill="#FBF9FB"/>
<path d="M52.896 261V259.726L58.692 252.726H53.092V251.2H60.946V252.474L55.15 259.474H60.946V261H52.896ZM66.0526 261.168C64.9326 261.168 63.9993 260.799 63.2526 260.062C62.5059 259.315 62.1326 258.41 62.1326 257.346V257.318C62.1326 256.245 62.5106 255.335 63.2666 254.588C64.0226 253.832 64.9606 253.454 66.0806 253.454C67.2099 253.454 68.1479 253.827 68.8946 254.574C69.6413 255.311 70.0146 256.217 70.0146 257.29V257.318C70.0146 258.373 69.6366 259.278 68.8806 260.034C68.1246 260.79 67.1819 261.168 66.0526 261.168ZM66.0806 259.684C66.7526 259.684 67.2939 259.46 67.7046 259.012C68.1153 258.555 68.3206 257.999 68.3206 257.346V257.318C68.3206 256.655 68.1059 256.095 67.6766 255.638C67.2473 255.171 66.7059 254.938 66.0526 254.938C65.3899 254.938 64.8533 255.167 64.4426 255.624C64.0319 256.072 63.8266 256.627 63.8266 257.29V257.318C63.8266 257.971 64.0413 258.531 64.4706 258.998C64.8999 259.455 65.4366 259.684 66.0806 259.684ZM73.654 261.056L70.616 253.608H72.436L74.424 259.04L76.426 253.608H78.204L75.18 261.056H73.654ZM79.6701 252.474V250.864H81.4901V252.474H79.6701ZM79.7261 261V253.608H81.4341V261H79.7261ZM83.634 261V253.608H85.342V255.274C85.8647 254.014 86.7373 253.412 87.96 253.468V255.26H87.862C87.0873 255.26 86.4713 255.512 86.014 256.016C85.566 256.511 85.342 257.234 85.342 258.186V261H83.634ZM91.2037 261.154C90.4664 261.154 89.8411 260.953 89.3277 260.552C88.8237 260.151 88.5717 259.591 88.5717 258.872V258.844C88.5717 258.06 88.8471 257.467 89.3977 257.066C89.9577 256.665 90.7044 256.464 91.6377 256.464C92.3191 256.464 92.9817 256.567 93.6257 256.772V256.59C93.6257 255.517 93.0144 254.98 91.7917 254.98C91.1197 254.98 90.4151 255.134 89.6777 255.442L89.2157 254.112C90.1584 253.711 91.0917 253.51 92.0157 253.51C93.1171 253.51 93.9337 253.785 94.4657 254.336C94.9977 254.868 95.2637 255.629 95.2637 256.618V261H93.6117V260.076C93.0144 260.795 92.2117 261.154 91.2037 261.154ZM91.6797 259.922C92.2491 259.922 92.7204 259.777 93.0937 259.488C93.4671 259.189 93.6537 258.807 93.6537 258.34V257.836C93.1497 257.64 92.5897 257.542 91.9737 257.542C91.4231 257.542 90.9937 257.649 90.6857 257.864C90.3871 258.079 90.2377 258.382 90.2377 258.774V258.802C90.2377 259.147 90.3731 259.423 90.6437 259.628C90.9144 259.824 91.2597 259.922 91.6797 259.922ZM98.5945 253.608L100.289 256.086L102.011 253.608H103.817L101.213 257.22L103.929 261H102.081L100.261 258.368L98.4545 261H96.6485L99.3505 257.234L96.7465 253.608H98.5945Z" fill="#190F19"/>
<path d="M56.587 289.632C55.4943 289.632 54.5813 289.251 53.848 288.488C53.1147 287.725 52.748 286.787 52.748 285.672V285.65C52.748 284.543 53.1147 283.604 53.848 282.834C54.5813 282.057 55.5127 281.668 56.642 281.668C57.2947 281.668 57.8483 281.771 58.303 281.976C58.765 282.181 59.2087 282.486 59.634 282.889L59.062 283.516C58.336 282.812 57.5293 282.46 56.642 282.46C55.8427 282.46 55.1643 282.724 54.607 283.252C54.0497 283.773 53.7343 284.436 53.661 285.243H57.907V286.002H53.661C53.7343 286.823 54.046 287.502 54.596 288.037C55.1533 288.572 55.8317 288.84 56.631 288.84C57.137 288.84 57.577 288.752 57.951 288.576C58.3323 288.393 58.7173 288.107 59.106 287.718L59.678 288.279C59.2307 288.726 58.7687 289.064 58.292 289.291C57.8153 289.518 57.247 289.632 56.587 289.632ZM64.4079 289.5V283.813H67.2789C67.8729 283.813 68.3422 283.941 68.6869 284.198C69.0316 284.455 69.2039 284.814 69.2039 285.276V285.287C69.2039 285.918 68.8629 286.35 68.1809 286.585C69.0096 286.82 69.4239 287.278 69.4239 287.96V287.971C69.4239 288.455 69.2332 288.833 68.8519 289.104C68.4706 289.375 67.9462 289.507 67.2789 289.5H64.4079ZM65.2439 286.299H67.1029C67.5062 286.299 67.8142 286.215 68.0269 286.046C68.2396 285.877 68.3459 285.646 68.3459 285.353V285.342C68.3459 285.078 68.2432 284.869 68.0379 284.715C67.8399 284.561 67.5539 284.488 67.1799 284.495H65.2439V286.299ZM65.2439 286.959V288.818H67.2569C67.6749 288.818 67.9976 288.737 68.2249 288.576C68.4596 288.415 68.5769 288.198 68.5769 287.927V287.916C68.5769 287.615 68.4559 287.381 68.2139 287.212C67.9719 287.036 67.6236 286.952 67.1689 286.959H65.2439ZM74.2692 289.5V283.813H75.1162V286.244H78.5152V283.813H79.3512V289.5H78.5152V287.014H75.1162V289.5H74.2692ZM82.9457 289.621C82.3737 289.621 81.875 289.467 81.4497 289.159C81.0317 288.844 80.8227 288.407 80.8227 287.85V287.828C80.8227 287.249 81.0427 286.798 81.4827 286.475C81.93 286.152 82.5203 285.991 83.2537 285.991C83.833 285.991 84.416 286.072 85.0027 286.233V286.035C85.0027 285.529 84.856 285.144 84.5627 284.88C84.2693 284.616 83.8513 284.484 83.3087 284.484C82.7367 284.484 82.161 284.623 81.5817 284.902L81.3287 284.209C81.996 283.894 82.6853 283.736 83.3967 283.736C84.2033 283.736 84.8157 283.945 85.2337 284.363C85.6223 284.752 85.8167 285.305 85.8167 286.024V289.5H85.0027V288.642C84.504 289.295 83.8183 289.621 82.9457 289.621ZM83.1107 288.95C83.646 288.95 84.097 288.807 84.4637 288.521C84.8303 288.228 85.0137 287.857 85.0137 287.41V286.86C84.4417 286.699 83.8843 286.618 83.3417 286.618C82.8137 286.618 82.403 286.724 82.1097 286.937C81.8237 287.15 81.6807 287.436 81.6807 287.795V287.817C81.6807 288.162 81.82 288.437 82.0987 288.642C82.3773 288.847 82.7147 288.95 83.1107 288.95ZM88.2378 289.5H87.2258L88.8868 287.311C88.4248 287.208 88.0654 287.01 87.8088 286.717C87.5594 286.424 87.4348 286.057 87.4348 285.617V285.606C87.4348 285.063 87.6364 284.631 88.0398 284.308C88.4431 283.978 88.9821 283.813 89.6568 283.813H92.4068V289.5H91.5708V287.388H89.8108L88.2378 289.5ZM91.5708 284.517H89.6678C89.2498 284.517 88.9124 284.616 88.6558 284.814C88.4064 285.012 88.2818 285.276 88.2818 285.606V285.617C88.2818 285.954 88.4028 286.222 88.6448 286.42C88.8941 286.618 89.2351 286.713 89.6678 286.706H91.5708V284.517ZM94.3142 289.5V283.813H97.1852C97.7792 283.813 98.2485 283.941 98.5932 284.198C98.9378 284.455 99.1102 284.814 99.1102 285.276V285.287C99.1102 285.918 98.7692 286.35 98.0872 286.585C98.9158 286.82 99.3302 287.278 99.3302 287.96V287.971C99.3302 288.455 99.1395 288.833 98.7582 289.104C98.3768 289.375 97.8525 289.507 97.1852 289.5H94.3142ZM95.1502 286.299H97.0092C97.4125 286.299 97.7205 286.215 97.9332 286.046C98.1458 285.877 98.2522 285.646 98.2522 285.353V285.342C98.2522 285.078 98.1495 284.869 97.9442 284.715C97.7462 284.561 97.4602 284.488 97.0862 284.495H95.1502V286.299ZM95.1502 286.959V288.818H97.1632C97.5812 288.818 97.9038 288.737 98.1312 288.576C98.3658 288.415 98.4832 288.198 98.4832 287.927V287.916C98.4832 287.615 98.3622 287.381 98.1202 287.212C97.8782 287.036 97.5298 286.952 97.0752 286.959H95.1502ZM100.878 289.5V283.813H101.725V286.244H105.124V283.813H105.96V289.5H105.124V287.014H101.725V289.5H100.878ZM110.456 289.632C109.613 289.632 108.909 289.346 108.344 288.774C107.787 288.195 107.508 287.498 107.508 286.684V286.662C107.508 285.841 107.79 285.14 108.355 284.561C108.92 283.982 109.627 283.692 110.478 283.692C111.321 283.692 112.025 283.982 112.59 284.561C113.155 285.133 113.437 285.826 113.437 286.64V286.662C113.437 287.483 113.151 288.184 112.579 288.763C112.014 289.342 111.307 289.632 110.456 289.632ZM110.478 288.873C111.079 288.873 111.578 288.66 111.974 288.235C112.37 287.81 112.568 287.293 112.568 286.684V286.662C112.568 286.046 112.363 285.522 111.952 285.089C111.549 284.656 111.05 284.44 110.456 284.44C109.855 284.44 109.356 284.656 108.96 285.089C108.571 285.514 108.377 286.031 108.377 286.64V286.662C108.377 287.278 108.579 287.802 108.982 288.235C109.385 288.66 109.884 288.873 110.478 288.873ZM117.534 289.632C116.706 289.632 116.013 289.342 115.455 288.763C114.898 288.184 114.619 287.491 114.619 286.684V286.662C114.619 285.841 114.898 285.14 115.455 284.561C116.013 283.982 116.706 283.692 117.534 283.692C118.414 283.692 119.173 284.029 119.811 284.704L119.25 285.298C118.708 284.726 118.132 284.44 117.523 284.44C116.944 284.44 116.46 284.653 116.071 285.078C115.683 285.503 115.488 286.024 115.488 286.64V286.662C115.488 287.278 115.686 287.802 116.082 288.235C116.486 288.66 116.984 288.873 117.578 288.873C118.209 288.873 118.788 288.591 119.316 288.026L119.855 288.532C119.21 289.265 118.436 289.632 117.534 289.632ZM122.744 289.5V284.572H120.467V283.813H125.879V284.572H123.591V289.5H122.744ZM127.154 282.57V281.635H128.122V282.57H127.154ZM127.209 289.5V283.813H128.056V289.5H127.209Z" fill="#007347"/>
<g clip-path="url(#clip0_76_2982)">
<rect x="188" y="274" width="24" height="24" rx="4" fill="#F6EEF7"/>
<path d="M195.632 291V281.235L193.607 281.925L193.397 281.31L195.797 280.425H196.397V291H195.632ZM202.501 291.18C201.821 291.18 201.161 291.025 200.521 290.715C199.881 290.405 199.316 289.995 198.826 289.485L199.381 288.93C200.411 289.96 201.461 290.475 202.531 290.475C203.351 290.475 204.026 290.225 204.556 289.725C205.086 289.215 205.351 288.585 205.351 287.835V287.805C205.351 287.085 205.081 286.49 204.541 286.02C204.001 285.55 203.311 285.315 202.471 285.315C201.701 285.315 200.911 285.535 200.101 285.975L199.501 285.585L199.801 280.5H205.696V281.25H200.491L200.236 285.18C200.976 284.8 201.751 284.61 202.561 284.61C203.591 284.61 204.446 284.905 205.126 285.495C205.816 286.085 206.161 286.845 206.161 287.775V287.805C206.161 288.785 205.816 289.595 205.126 290.235C204.436 290.865 203.561 291.18 202.501 291.18Z" fill="#190F19"/>
</g>
<rect x="42.5" y="237.5" width="179" height="70" rx="7.5" stroke="#02AB6B"/>
<rect x="234.5" y="477.5" width="179" height="70" rx="7.5" fill="#FBF9FB"/>
<path d="M247.654 501V492.796H244.532V491.2H252.498V492.796H249.376V501H247.654ZM256.029 501.168C254.909 501.168 253.976 500.799 253.229 500.062C252.483 499.315 252.109 498.41 252.109 497.346V497.318C252.109 496.245 252.487 495.335 253.243 494.588C253.999 493.832 254.937 493.454 256.057 493.454C257.187 493.454 258.125 493.827 258.871 494.574C259.618 495.311 259.991 496.217 259.991 497.29V497.318C259.991 498.373 259.613 499.278 258.857 500.034C258.101 500.79 257.159 501.168 256.029 501.168ZM256.057 499.684C256.729 499.684 257.271 499.46 257.681 499.012C258.092 498.555 258.297 497.999 258.297 497.346V497.318C258.297 496.655 258.083 496.095 257.653 495.638C257.224 495.171 256.683 494.938 256.029 494.938C255.367 494.938 254.83 495.167 254.419 495.624C254.009 496.072 253.803 496.627 253.803 497.29V497.318C253.803 497.971 254.018 498.531 254.447 498.998C254.877 499.455 255.413 499.684 256.057 499.684ZM265.93 501.154C264.904 501.154 264.064 500.72 263.41 499.852V501H261.702V490.78H263.41V494.84C264.064 493.916 264.904 493.454 265.93 493.454C266.854 493.454 267.657 493.799 268.338 494.49C269.02 495.181 269.36 496.114 269.36 497.29V497.318C269.36 498.494 269.02 499.427 268.338 500.118C267.666 500.809 266.864 501.154 265.93 501.154ZM263.998 499.026C264.418 499.465 264.927 499.684 265.524 499.684C266.122 499.684 266.621 499.469 267.022 499.04C267.433 498.601 267.638 498.027 267.638 497.318V497.29C267.638 496.59 267.433 496.021 267.022 495.582C266.612 495.143 266.112 494.924 265.524 494.924C264.927 494.924 264.418 495.148 263.998 495.596C263.578 496.035 263.368 496.599 263.368 497.29V497.318C263.368 498.009 263.578 498.578 263.998 499.026ZM271.095 501V493.608H272.803V495.274C273.326 494.014 274.198 493.412 275.421 493.468V495.26H275.323C274.548 495.26 273.932 495.512 273.475 496.016C273.027 496.511 272.803 497.234 272.803 498.186V501H271.095ZM280.034 501.168C278.951 501.168 278.046 500.813 277.318 500.104C276.599 499.385 276.24 498.461 276.24 497.332V497.304C276.24 496.221 276.581 495.311 277.262 494.574C277.943 493.827 278.807 493.454 279.852 493.454C280.972 493.454 281.84 493.837 282.456 494.602C283.081 495.358 283.394 496.301 283.394 497.43C283.394 497.523 283.385 497.682 283.366 497.906H277.934C278.027 498.503 278.265 498.965 278.648 499.292C279.031 499.619 279.502 499.782 280.062 499.782C280.781 499.782 281.448 499.488 282.064 498.9L283.058 499.782C282.274 500.706 281.266 501.168 280.034 501.168ZM277.92 496.786H281.714C281.658 496.217 281.467 495.75 281.14 495.386C280.813 495.022 280.379 494.84 279.838 494.84C279.315 494.84 278.881 495.017 278.536 495.372C278.2 495.727 277.995 496.198 277.92 496.786ZM285.973 493.608L287.667 496.086L289.389 493.608H291.195L288.591 497.22L291.307 501H289.459L287.639 498.368L285.833 501H284.027L286.729 497.234L284.125 493.608H285.973Z" fill="#190F19"/>
<path d="M248.587 529.632C247.494 529.632 246.581 529.251 245.848 528.488C245.115 527.725 244.748 526.787 244.748 525.672V525.65C244.748 524.543 245.115 523.604 245.848 522.834C246.581 522.057 247.513 521.668 248.642 521.668C249.295 521.668 249.848 521.771 250.303 521.976C250.765 522.181 251.209 522.486 251.634 522.889L251.062 523.516C250.336 522.812 249.529 522.46 248.642 522.46C247.843 522.46 247.164 522.724 246.607 523.252C246.05 523.773 245.734 524.436 245.661 525.243H249.907V526.002H245.661C245.734 526.823 246.046 527.502 246.596 528.037C247.153 528.572 247.832 528.84 248.631 528.84C249.137 528.84 249.577 528.752 249.951 528.576C250.332 528.393 250.717 528.107 251.106 527.718L251.678 528.279C251.231 528.726 250.769 529.064 250.292 529.291C249.815 529.518 249.247 529.632 248.587 529.632ZM256.408 529.5V523.813H259.279C259.873 523.813 260.342 523.941 260.687 524.198C261.032 524.455 261.204 524.814 261.204 525.276V525.287C261.204 525.918 260.863 526.35 260.181 526.585C261.01 526.82 261.424 527.278 261.424 527.96V527.971C261.424 528.455 261.233 528.833 260.852 529.104C260.471 529.375 259.946 529.507 259.279 529.5H256.408ZM257.244 526.299H259.103C259.506 526.299 259.814 526.215 260.027 526.046C260.24 525.877 260.346 525.646 260.346 525.353V525.342C260.346 525.078 260.243 524.869 260.038 524.715C259.84 524.561 259.554 524.488 259.18 524.495H257.244V526.299ZM257.244 526.959V528.818H259.257C259.675 528.818 259.998 528.737 260.225 528.576C260.46 528.415 260.577 528.198 260.577 527.927V527.916C260.577 527.615 260.456 527.381 260.214 527.212C259.972 527.036 259.624 526.952 259.169 526.959H257.244ZM266.269 529.5V523.813H267.116V526.244H270.515V523.813H271.351V529.5H270.515V527.014H267.116V529.5H266.269ZM274.946 529.621C274.374 529.621 273.875 529.467 273.45 529.159C273.032 528.844 272.823 528.407 272.823 527.85V527.828C272.823 527.249 273.043 526.798 273.483 526.475C273.93 526.152 274.52 525.991 275.254 525.991C275.833 525.991 276.416 526.072 277.003 526.233V526.035C277.003 525.529 276.856 525.144 276.563 524.88C276.269 524.616 275.851 524.484 275.309 524.484C274.737 524.484 274.161 524.623 273.582 524.902L273.329 524.209C273.996 523.894 274.685 523.736 275.397 523.736C276.203 523.736 276.816 523.945 277.234 524.363C277.622 524.752 277.817 525.305 277.817 526.024V529.5H277.003V528.642C276.504 529.295 275.818 529.621 274.946 529.621ZM275.111 528.95C275.646 528.95 276.097 528.807 276.464 528.521C276.83 528.228 277.014 527.857 277.014 527.41V526.86C276.442 526.699 275.884 526.618 275.342 526.618C274.814 526.618 274.403 526.724 274.11 526.937C273.824 527.15 273.681 527.436 273.681 527.795V527.817C273.681 528.162 273.82 528.437 274.099 528.642C274.377 528.847 274.715 528.95 275.111 528.95ZM280.238 529.5H279.226L280.887 527.311C280.425 527.208 280.065 527.01 279.809 526.717C279.559 526.424 279.435 526.057 279.435 525.617V525.606C279.435 525.063 279.636 524.631 280.04 524.308C280.443 523.978 280.982 523.813 281.657 523.813H284.407V529.5H283.571V527.388H281.811L280.238 529.5ZM283.571 524.517H281.668C281.25 524.517 280.912 524.616 280.656 524.814C280.406 525.012 280.282 525.276 280.282 525.606V525.617C280.282 525.954 280.403 526.222 280.645 526.42C280.894 526.618 281.235 526.713 281.668 526.706H283.571V524.517ZM286.314 529.5V523.813H289.185C289.779 523.813 290.248 523.941 290.593 524.198C290.938 524.455 291.11 524.814 291.11 525.276V525.287C291.11 525.918 290.769 526.35 290.087 526.585C290.916 526.82 291.33 527.278 291.33 527.96V527.971C291.33 528.455 291.139 528.833 290.758 529.104C290.377 529.375 289.852 529.507 289.185 529.5H286.314ZM287.15 526.299H289.009C289.412 526.299 289.72 526.215 289.933 526.046C290.146 525.877 290.252 525.646 290.252 525.353V525.342C290.252 525.078 290.149 524.869 289.944 524.715C289.746 524.561 289.46 524.488 289.086 524.495H287.15V526.299ZM287.15 526.959V528.818H289.163C289.581 528.818 289.904 528.737 290.131 528.576C290.366 528.415 290.483 528.198 290.483 527.927V527.916C290.483 527.615 290.362 527.381 290.12 527.212C289.878 527.036 289.53 526.952 289.075 526.959H287.15ZM292.878 529.5V523.813H293.725V526.244H297.124V523.813H297.96V529.5H297.124V527.014H293.725V529.5H292.878ZM302.456 529.632C301.613 529.632 300.909 529.346 300.344 528.774C299.787 528.195 299.508 527.498 299.508 526.684V526.662C299.508 525.841 299.79 525.14 300.355 524.561C300.92 523.982 301.627 523.692 302.478 523.692C303.321 523.692 304.025 523.982 304.59 524.561C305.155 525.133 305.437 525.826 305.437 526.64V526.662C305.437 527.483 305.151 528.184 304.579 528.763C304.014 529.342 303.307 529.632 302.456 529.632ZM302.478 528.873C303.079 528.873 303.578 528.66 303.974 528.235C304.37 527.81 304.568 527.293 304.568 526.684V526.662C304.568 526.046 304.363 525.522 303.952 525.089C303.549 524.656 303.05 524.44 302.456 524.44C301.855 524.44 301.356 524.656 300.96 525.089C300.571 525.514 300.377 526.031 300.377 526.64V526.662C300.377 527.278 300.579 527.802 300.982 528.235C301.385 528.66 301.884 528.873 302.478 528.873ZM309.534 529.632C308.706 529.632 308.013 529.342 307.455 528.763C306.898 528.184 306.619 527.491 306.619 526.684V526.662C306.619 525.841 306.898 525.14 307.455 524.561C308.013 523.982 308.706 523.692 309.534 523.692C310.414 523.692 311.173 524.029 311.811 524.704L311.25 525.298C310.708 524.726 310.132 524.44 309.523 524.44C308.944 524.44 308.46 524.653 308.071 525.078C307.683 525.503 307.488 526.024 307.488 526.64V526.662C307.488 527.278 307.686 527.802 308.082 528.235C308.486 528.66 308.984 528.873 309.578 528.873C310.209 528.873 310.788 528.591 311.316 528.026L311.855 528.532C311.21 529.265 310.436 529.632 309.534 529.632ZM314.744 529.5V524.572H312.467V523.813H317.879V524.572H315.591V529.5H314.744ZM319.154 522.57V521.635H320.122V522.57H319.154ZM319.209 529.5V523.813H320.056V529.5H319.209Z" fill="#007347"/>
<g clip-path="url(#clip1_76_2982)">
<rect x="380" y="514" width="24" height="24" rx="4" fill="#F6EEF7"/>
<path d="M387.632 531V521.235L385.607 521.925L385.397 521.31L387.797 520.425H388.397V531H387.632ZM394.501 531.18C393.821 531.18 393.161 531.025 392.521 530.715C391.881 530.405 391.316 529.995 390.826 529.485L391.381 528.93C392.411 529.96 393.461 530.475 394.531 530.475C395.351 530.475 396.026 530.225 396.556 529.725C397.086 529.215 397.351 528.585 397.351 527.835V527.805C397.351 527.085 397.081 526.49 396.541 526.02C396.001 525.55 395.311 525.315 394.471 525.315C393.701 525.315 392.911 525.535 392.101 525.975L391.501 525.585L391.801 520.5H397.696V521.25H392.491L392.236 525.18C392.976 524.8 393.751 524.61 394.561 524.61C395.591 524.61 396.446 524.905 397.126 525.495C397.816 526.085 398.161 526.845 398.161 527.775V527.805C398.161 528.785 397.816 529.595 397.126 530.235C396.436 530.865 395.561 531.18 394.501 531.18Z" fill="#190F19"/>
</g>
<rect x="234.5" y="477.5" width="179" height="70" rx="7.5" stroke="#02AB6B"/>
<rect x="94.5" y="94.5" width="179" height="70" rx="7.5" fill="#FBF9FB"/>
<path d="M109.936 118.168C108.452 118.168 107.229 117.678 106.268 116.698C105.307 115.718 104.826 114.528 104.826 113.128V113.1C104.826 111.7 105.311 110.505 106.282 109.516C107.262 108.527 108.489 108.032 109.964 108.032C111.448 108.032 112.671 108.522 113.632 109.502C114.593 110.482 115.074 111.672 115.074 113.072V113.1C115.074 114.5 114.584 115.695 113.604 116.684C112.633 117.673 111.411 118.168 109.936 118.168ZM107.57 115.564C108.205 116.236 109.003 116.572 109.964 116.572C110.925 116.572 111.714 116.241 112.33 115.578C112.955 114.915 113.268 114.099 113.268 113.128V113.1C113.268 112.129 112.951 111.308 112.316 110.636C111.691 109.964 110.897 109.628 109.936 109.628C108.975 109.628 108.181 109.959 107.556 110.622C106.94 111.285 106.632 112.101 106.632 113.072V113.1C106.632 114.071 106.945 114.892 107.57 115.564ZM117.337 118V112.064H116.399V110.65H117.337V110.104C117.337 109.292 117.537 108.685 117.939 108.284C118.331 107.892 118.881 107.696 119.591 107.696C120.076 107.696 120.538 107.761 120.977 107.892V109.32C120.613 109.199 120.281 109.138 119.983 109.138C119.329 109.138 119.003 109.511 119.003 110.258V110.664H120.963V112.064H119.031V118H117.337ZM124.7 118.126C123.282 118.126 122.572 117.403 122.572 115.956V112.064H121.634V110.608H122.572V108.578H124.266V110.608H126.254V112.064H124.266V115.69C124.266 116.306 124.57 116.614 125.176 116.614C125.54 116.614 125.89 116.53 126.226 116.362V117.748C125.769 118 125.26 118.126 124.7 118.126ZM130.106 118.154C129.369 118.154 128.743 117.953 128.23 117.552C127.726 117.151 127.474 116.591 127.474 115.872V115.844C127.474 115.06 127.749 114.467 128.3 114.066C128.86 113.665 129.607 113.464 130.54 113.464C131.221 113.464 131.884 113.567 132.528 113.772V113.59C132.528 112.517 131.917 111.98 130.694 111.98C130.022 111.98 129.317 112.134 128.58 112.442L128.118 111.112C129.061 110.711 129.994 110.51 130.918 110.51C132.019 110.51 132.836 110.785 133.368 111.336C133.9 111.868 134.166 112.629 134.166 113.618V118H132.514V117.076C131.917 117.795 131.114 118.154 130.106 118.154ZM130.582 116.922C131.151 116.922 131.623 116.777 131.996 116.488C132.369 116.189 132.556 115.807 132.556 115.34V114.836C132.052 114.64 131.492 114.542 130.876 114.542C130.325 114.542 129.896 114.649 129.588 114.864C129.289 115.079 129.14 115.382 129.14 115.774V115.802C129.14 116.147 129.275 116.423 129.546 116.628C129.817 116.824 130.162 116.922 130.582 116.922ZM141.767 120.24V116.768C141.114 117.692 140.274 118.154 139.247 118.154C138.323 118.154 137.52 117.809 136.839 117.118C136.158 116.427 135.817 115.494 135.817 114.318V114.29C135.817 113.114 136.153 112.181 136.825 111.49C137.506 110.799 138.314 110.454 139.247 110.454C140.283 110.454 141.123 110.888 141.767 111.756V110.608H143.461V120.24H141.767ZM139.653 116.684C140.241 116.684 140.745 116.465 141.165 116.026C141.585 115.578 141.795 115.009 141.795 114.318V114.29C141.795 113.599 141.585 113.035 141.165 112.596C140.745 112.148 140.241 111.924 139.653 111.924C139.056 111.924 138.552 112.143 138.141 112.582C137.73 113.011 137.525 113.581 137.525 114.29V114.318C137.525 115.018 137.73 115.587 138.141 116.026C138.552 116.465 139.056 116.684 139.653 116.684ZM148.135 118.154C147.305 118.154 146.656 117.902 146.189 117.398C145.732 116.885 145.503 116.189 145.503 115.312V110.608H147.197V114.808C147.197 115.387 147.333 115.83 147.603 116.138C147.883 116.446 148.275 116.6 148.779 116.6C149.283 116.6 149.685 116.441 149.983 116.124C150.291 115.797 150.445 115.349 150.445 114.78V110.608H152.153V118H150.445V116.852C149.848 117.72 149.078 118.154 148.135 118.154ZM154.297 109.474V107.864H156.117V109.474H154.297ZM154.353 118V110.608H156.061V118H154.353ZM159.577 110.608L161.271 113.086L162.993 110.608H164.799L162.195 114.22L164.911 118H163.063L161.243 115.368L159.437 118H157.631L160.333 114.234L157.729 110.608H159.577Z" fill="#190F19"/>
<path d="M105.089 146.5V138.8H111.26V146.5H110.391V139.603H105.958V146.5H105.089ZM115.889 146.632C115.045 146.632 114.341 146.346 113.777 145.774C113.219 145.195 112.941 144.498 112.941 143.684V143.662C112.941 142.841 113.223 142.14 113.788 141.561C114.352 140.982 115.06 140.692 115.911 140.692C116.754 140.692 117.458 140.982 118.023 141.561C118.587 142.133 118.87 142.826 118.87 143.64V143.662C118.87 144.483 118.584 145.184 118.012 145.763C117.447 146.342 116.739 146.632 115.889 146.632ZM115.911 145.873C116.512 145.873 117.011 145.66 117.407 145.235C117.803 144.81 118.001 144.293 118.001 143.684V143.662C118.001 143.046 117.795 142.522 117.385 142.089C116.981 141.656 116.483 141.44 115.889 141.44C115.287 141.44 114.789 141.656 114.393 142.089C114.004 142.514 113.81 143.031 113.81 143.64V143.662C113.81 144.278 114.011 144.802 114.415 145.235C114.818 145.66 115.317 145.873 115.911 145.873ZM121.7 146.5V141.572H119.423V140.813H124.835V141.572H122.547V146.5H121.7ZM126.087 148.26V140.813H126.934V141.957C127.528 141.114 128.254 140.692 129.112 140.692C129.838 140.692 130.472 140.96 131.015 141.495C131.557 142.03 131.829 142.745 131.829 143.64V143.662C131.829 144.549 131.557 145.264 131.015 145.807C130.472 146.35 129.838 146.621 129.112 146.621C128.21 146.621 127.484 146.218 126.934 145.411V148.26H126.087ZM128.958 145.862C129.53 145.862 130.006 145.664 130.388 145.268C130.769 144.872 130.96 144.34 130.96 143.673V143.651C130.96 142.991 130.765 142.459 130.377 142.056C129.995 141.653 129.522 141.451 128.958 141.451C128.415 141.451 127.935 141.66 127.517 142.078C127.106 142.496 126.901 143.017 126.901 143.64V143.662C126.901 144.3 127.106 144.828 127.517 145.246C127.927 145.657 128.408 145.862 128.958 145.862ZM133.413 139.57V138.635H134.381V139.57H133.413ZM133.468 146.5V140.813H134.315V146.5H133.468ZM138.943 146.632C138.122 146.632 137.454 146.375 136.941 145.862C136.34 145.261 136.039 144.37 136.039 143.189V143.178C136.039 141.719 136.281 140.652 136.765 139.977C137.256 139.295 138.045 138.862 139.13 138.679L141.022 138.36L141.176 139.141L139.251 139.46C138.459 139.592 137.883 139.86 137.524 140.263C137.172 140.666 136.952 141.297 136.864 142.155C137.377 141.392 138.14 141.011 139.152 141.011C139.966 141.011 140.619 141.268 141.11 141.781C141.601 142.287 141.847 142.932 141.847 143.717V143.728C141.847 144.535 141.576 145.22 141.033 145.785C140.49 146.35 139.794 146.632 138.943 146.632ZM138.954 145.884C139.548 145.884 140.032 145.682 140.406 145.279C140.787 144.868 140.978 144.359 140.978 143.75V143.739C140.978 143.138 140.798 142.65 140.439 142.276C140.087 141.895 139.618 141.704 139.031 141.704C138.408 141.704 137.894 141.895 137.491 142.276C137.095 142.65 136.897 143.13 136.897 143.717V143.728C136.897 144.359 137.095 144.876 137.491 145.279C137.887 145.682 138.375 145.884 138.954 145.884ZM143.392 146.5V140.813H144.239V143.244H147.638V140.813H148.474V146.5H147.638V144.014H144.239V146.5H143.392ZM152.971 146.632C152.127 146.632 151.423 146.346 150.859 145.774C150.301 145.195 150.023 144.498 150.023 143.684V143.662C150.023 142.841 150.305 142.14 150.87 141.561C151.434 140.982 152.142 140.692 152.993 140.692C153.836 140.692 154.54 140.982 155.105 141.561C155.669 142.133 155.952 142.826 155.952 143.64V143.662C155.952 144.483 155.666 145.184 155.094 145.763C154.529 146.342 153.821 146.632 152.971 146.632ZM152.993 145.873C153.594 145.873 154.093 145.66 154.489 145.235C154.885 144.81 155.083 144.293 155.083 143.684V143.662C155.083 143.046 154.877 142.522 154.467 142.089C154.063 141.656 153.565 141.44 152.971 141.44C152.369 141.44 151.871 141.656 151.475 142.089C151.086 142.514 150.892 143.031 150.892 143.64V143.662C150.892 144.278 151.093 144.802 151.497 145.235C151.9 145.66 152.399 145.873 152.993 145.873ZM160.278 145.862L160.718 145.235C161.341 145.675 162.038 145.895 162.808 145.895C163.329 145.895 163.736 145.807 164.029 145.631C164.322 145.455 164.469 145.213 164.469 144.905V144.894C164.469 144.593 164.33 144.366 164.051 144.212C163.772 144.051 163.384 143.97 162.885 143.97H161.609V143.288H162.874C163.329 143.288 163.681 143.204 163.93 143.035C164.187 142.866 164.315 142.635 164.315 142.342V142.331C164.315 142.045 164.187 141.821 163.93 141.66C163.673 141.491 163.314 141.407 162.852 141.407C162.148 141.407 161.462 141.642 160.795 142.111L160.355 141.517C161.103 140.967 161.943 140.692 162.874 140.692C163.585 140.692 164.146 140.839 164.557 141.132C164.968 141.418 165.173 141.796 165.173 142.265V142.276C165.173 142.929 164.792 143.369 164.029 143.596C164.403 143.669 164.711 143.823 164.953 144.058C165.202 144.293 165.327 144.59 165.327 144.949V144.96C165.327 145.437 165.103 145.836 164.656 146.159C164.209 146.474 163.593 146.632 162.808 146.632C161.825 146.632 160.982 146.375 160.278 145.862ZM168.579 146.621C168.007 146.621 167.509 146.467 167.083 146.159C166.665 145.844 166.456 145.407 166.456 144.85V144.828C166.456 144.249 166.676 143.798 167.116 143.475C167.564 143.152 168.154 142.991 168.887 142.991C169.467 142.991 170.05 143.072 170.636 143.233V143.035C170.636 142.529 170.49 142.144 170.196 141.88C169.903 141.616 169.485 141.484 168.942 141.484C168.37 141.484 167.795 141.623 167.215 141.902L166.962 141.209C167.63 140.894 168.319 140.736 169.03 140.736C169.837 140.736 170.449 140.945 170.867 141.363C171.256 141.752 171.45 142.305 171.45 143.024V146.5H170.636V145.642C170.138 146.295 169.452 146.621 168.579 146.621ZM168.744 145.95C169.28 145.95 169.731 145.807 170.097 145.521C170.464 145.228 170.647 144.857 170.647 144.41V143.86C170.075 143.699 169.518 143.618 168.975 143.618C168.447 143.618 168.037 143.724 167.743 143.937C167.457 144.15 167.314 144.436 167.314 144.795V144.817C167.314 145.162 167.454 145.437 167.732 145.642C168.011 145.847 168.348 145.95 168.744 145.95ZM173.256 146.5V140.813H174.147L176.303 144.003L178.448 140.813H179.328V146.5H178.481V142.133L176.303 145.29H176.27L174.092 142.144V146.5H173.256ZM183.822 146.632C182.979 146.632 182.275 146.346 181.71 145.774C181.153 145.195 180.874 144.498 180.874 143.684V143.662C180.874 142.841 181.157 142.14 181.721 141.561C182.286 140.982 182.994 140.692 183.844 140.692C184.688 140.692 185.392 140.982 185.956 141.561C186.521 142.133 186.803 142.826 186.803 143.64V143.662C186.803 144.483 186.517 145.184 185.945 145.763C185.381 146.342 184.673 146.632 183.822 146.632ZM183.844 145.873C184.446 145.873 184.944 145.66 185.34 145.235C185.736 144.81 185.934 144.293 185.934 143.684V143.662C185.934 143.046 185.729 142.522 185.318 142.089C184.915 141.656 184.416 141.44 183.822 141.44C183.221 141.44 182.722 141.656 182.326 142.089C181.938 142.514 181.743 143.031 181.743 143.64V143.662C181.743 144.278 181.945 144.802 182.348 145.235C182.752 145.66 183.25 145.873 183.844 145.873ZM188.338 146.5V140.813H191.209C191.803 140.813 192.272 140.941 192.617 141.198C192.961 141.455 193.134 141.814 193.134 142.276V142.287C193.134 142.918 192.793 143.35 192.111 143.585C192.939 143.82 193.354 144.278 193.354 144.96V144.971C193.354 145.455 193.163 145.833 192.782 146.104C192.4 146.375 191.876 146.507 191.209 146.5H188.338ZM189.174 143.299H191.033C191.436 143.299 191.744 143.215 191.957 143.046C192.169 142.877 192.276 142.646 192.276 142.353V142.342C192.276 142.078 192.173 141.869 191.968 141.715C191.77 141.561 191.484 141.488 191.11 141.495H189.174V143.299ZM189.174 143.959V145.818H191.187C191.605 145.818 191.927 145.737 192.155 145.576C192.389 145.415 192.507 145.198 192.507 144.927V144.916C192.507 144.615 192.386 144.381 192.144 144.212C191.902 144.036 191.553 143.952 191.099 143.959H189.174ZM194.901 146.5V140.813H195.748V145.224L199.202 140.813H200.016V146.5H199.18V142.078L195.693 146.5H194.901ZM203.566 146.5V141.572H201.289V140.813H206.701V141.572H204.413V146.5H203.566ZM207.953 146.5V140.813H208.8V145.224L212.254 140.813H213.068V146.5H212.232V142.078L208.745 146.5H207.953Z" fill="#CA8B02"/>
<g clip-path="url(#clip2_76_2982)">
<rect x="240" y="131" width="24" height="24" rx="4" fill="#F6EEF7"/>
<path d="M251.989 148.18C251.309 148.18 250.649 148.025 250.009 147.715C249.369 147.405 248.804 146.995 248.314 146.485L248.869 145.93C249.899 146.96 250.949 147.475 252.019 147.475C252.839 147.475 253.514 147.225 254.044 146.725C254.574 146.215 254.839 145.585 254.839 144.835V144.805C254.839 144.085 254.569 143.49 254.029 143.02C253.489 142.55 252.799 142.315 251.959 142.315C251.189 142.315 250.399 142.535 249.589 142.975L248.989 142.585L249.289 137.5H255.184V138.25H249.979L249.724 142.18C250.464 141.8 251.239 141.61 252.049 141.61C253.079 141.61 253.934 141.905 254.614 142.495C255.304 143.085 255.649 143.845 255.649 144.775V144.805C255.649 145.785 255.304 146.595 254.614 147.235C253.924 147.865 253.049 148.18 251.989 148.18Z" fill="#190F19"/>
</g>
<rect x="94.5" y="94.5" width="179" height="70" rx="7.5" stroke="#CA8B02"/>
<rect x="470.5" y="403.5" width="179" height="70" rx="7.5" fill="#FBF9FB"/>
<path d="M485.936 427.168C484.452 427.168 483.229 426.678 482.268 425.698C481.307 424.718 480.826 423.528 480.826 422.128V422.1C480.826 420.7 481.311 419.505 482.282 418.516C483.262 417.527 484.489 417.032 485.964 417.032C487.448 417.032 488.671 417.522 489.632 418.502C490.593 419.482 491.074 420.672 491.074 422.072V422.1C491.074 423.5 490.584 424.695 489.604 425.684C488.633 426.673 487.411 427.168 485.936 427.168ZM483.57 424.564C484.205 425.236 485.003 425.572 485.964 425.572C486.925 425.572 487.714 425.241 488.33 424.578C488.955 423.915 489.268 423.099 489.268 422.128V422.1C489.268 421.129 488.951 420.308 488.316 419.636C487.691 418.964 486.897 418.628 485.936 418.628C484.975 418.628 484.181 418.959 483.556 419.622C482.94 420.285 482.632 421.101 482.632 422.072V422.1C482.632 423.071 482.945 423.892 483.57 424.564ZM492.945 429.24V419.608H494.653V420.84C495.306 419.916 496.146 419.454 497.173 419.454C498.097 419.454 498.899 419.799 499.581 420.49C500.262 421.181 500.603 422.114 500.603 423.29V423.318C500.603 424.494 500.262 425.427 499.581 426.118C498.909 426.809 498.106 427.154 497.173 427.154C496.146 427.154 495.306 426.72 494.653 425.852V429.24H492.945ZM495.241 425.026C495.661 425.465 496.169 425.684 496.767 425.684C497.364 425.684 497.863 425.469 498.265 425.04C498.675 424.601 498.881 424.027 498.881 423.318V423.29C498.881 422.59 498.675 422.021 498.265 421.582C497.854 421.143 497.355 420.924 496.767 420.924C496.169 420.924 495.661 421.148 495.241 421.596C494.821 422.035 494.611 422.599 494.611 423.29V423.318C494.611 424.009 494.821 424.578 495.241 425.026ZM504.829 427.126C503.41 427.126 502.701 426.403 502.701 424.956V421.064H501.763V419.608H502.701V417.578H504.395V419.608H506.383V421.064H504.395V424.69C504.395 425.306 504.698 425.614 505.305 425.614C505.669 425.614 506.019 425.53 506.355 425.362V426.748C505.898 427 505.389 427.126 504.829 427.126ZM508.135 418.474V416.864H509.955V418.474H508.135ZM508.191 427V419.608H509.899V427H508.191ZM514.451 427.056L511.413 419.608H513.233L515.221 425.04L517.223 419.608H519.001L515.977 427.056H514.451ZM523.403 427.168C522.321 427.168 521.415 426.813 520.687 426.104C519.969 425.385 519.609 424.461 519.609 423.332V423.304C519.609 422.221 519.95 421.311 520.631 420.574C521.313 419.827 522.176 419.454 523.221 419.454C524.341 419.454 525.209 419.837 525.825 420.602C526.451 421.358 526.763 422.301 526.763 423.43C526.763 423.523 526.754 423.682 526.735 423.906H521.303C521.397 424.503 521.635 424.965 522.017 425.292C522.4 425.619 522.871 425.782 523.431 425.782C524.15 425.782 524.817 425.488 525.433 424.9L526.427 425.782C525.643 426.706 524.635 427.168 523.403 427.168ZM521.289 422.786H525.083C525.027 422.217 524.836 421.75 524.509 421.386C524.183 421.022 523.749 420.84 523.207 420.84C522.685 420.84 522.251 421.017 521.905 421.372C521.569 421.727 521.364 422.198 521.289 422.786Z" fill="#190F19"/>
<path d="M484.587 455.632C483.494 455.632 482.581 455.251 481.848 454.488C481.115 453.725 480.748 452.787 480.748 451.672V451.65C480.748 450.543 481.115 449.604 481.848 448.834C482.581 448.057 483.513 447.668 484.642 447.668C485.295 447.668 485.848 447.771 486.303 447.976C486.765 448.181 487.209 448.486 487.634 448.889L487.062 449.516C486.336 448.812 485.529 448.46 484.642 448.46C483.843 448.46 483.164 448.724 482.607 449.252C482.05 449.773 481.734 450.436 481.661 451.243H485.907V452.002H481.661C481.734 452.823 482.046 453.502 482.596 454.037C483.153 454.572 483.832 454.84 484.631 454.84C485.137 454.84 485.577 454.752 485.951 454.576C486.332 454.393 486.717 454.107 487.106 453.718L487.678 454.279C487.231 454.726 486.769 455.064 486.292 455.291C485.815 455.518 485.247 455.632 484.587 455.632ZM492.408 455.5V449.813H495.279C495.873 449.813 496.342 449.941 496.687 450.198C497.032 450.455 497.204 450.814 497.204 451.276V451.287C497.204 451.918 496.863 452.35 496.181 452.585C497.01 452.82 497.424 453.278 497.424 453.96V453.971C497.424 454.455 497.233 454.833 496.852 455.104C496.471 455.375 495.946 455.507 495.279 455.5H492.408ZM493.244 452.299H495.103C495.506 452.299 495.814 452.215 496.027 452.046C496.24 451.877 496.346 451.646 496.346 451.353V451.342C496.346 451.078 496.243 450.869 496.038 450.715C495.84 450.561 495.554 450.488 495.18 450.495H493.244V452.299ZM493.244 452.959V454.818H495.257C495.675 454.818 495.998 454.737 496.225 454.576C496.46 454.415 496.577 454.198 496.577 453.927V453.916C496.577 453.615 496.456 453.381 496.214 453.212C495.972 453.036 495.624 452.952 495.169 452.959H493.244ZM502.269 455.5V449.813H503.116V452.244H506.515V449.813H507.351V455.5H506.515V453.014H503.116V455.5H502.269ZM510.946 455.621C510.374 455.621 509.875 455.467 509.45 455.159C509.032 454.844 508.823 454.407 508.823 453.85V453.828C508.823 453.249 509.043 452.798 509.483 452.475C509.93 452.152 510.52 451.991 511.254 451.991C511.833 451.991 512.416 452.072 513.003 452.233V452.035C513.003 451.529 512.856 451.144 512.563 450.88C512.269 450.616 511.851 450.484 511.309 450.484C510.737 450.484 510.161 450.623 509.582 450.902L509.329 450.209C509.996 449.894 510.685 449.736 511.397 449.736C512.203 449.736 512.816 449.945 513.234 450.363C513.622 450.752 513.817 451.305 513.817 452.024V455.5H513.003V454.642C512.504 455.295 511.818 455.621 510.946 455.621ZM511.111 454.95C511.646 454.95 512.097 454.807 512.464 454.521C512.83 454.228 513.014 453.857 513.014 453.41V452.86C512.442 452.699 511.884 452.618 511.342 452.618C510.814 452.618 510.403 452.724 510.11 452.937C509.824 453.15 509.681 453.436 509.681 453.795V453.817C509.681 454.162 509.82 454.437 510.099 454.642C510.377 454.847 510.715 454.95 511.111 454.95ZM516.238 455.5H515.226L516.887 453.311C516.425 453.208 516.065 453.01 515.809 452.717C515.559 452.424 515.435 452.057 515.435 451.617V451.606C515.435 451.063 515.636 450.631 516.04 450.308C516.443 449.978 516.982 449.813 517.657 449.813H520.407V455.5H519.571V453.388H517.811L516.238 455.5ZM519.571 450.517H517.668C517.25 450.517 516.912 450.616 516.656 450.814C516.406 451.012 516.282 451.276 516.282 451.606V451.617C516.282 451.954 516.403 452.222 516.645 452.42C516.894 452.618 517.235 452.713 517.668 452.706H519.571V450.517ZM522.314 455.5V449.813H525.185C525.779 449.813 526.248 449.941 526.593 450.198C526.938 450.455 527.11 450.814 527.11 451.276V451.287C527.11 451.918 526.769 452.35 526.087 452.585C526.916 452.82 527.33 453.278 527.33 453.96V453.971C527.33 454.455 527.139 454.833 526.758 455.104C526.377 455.375 525.852 455.507 525.185 455.5H522.314ZM523.15 452.299H525.009C525.412 452.299 525.72 452.215 525.933 452.046C526.146 451.877 526.252 451.646 526.252 451.353V451.342C526.252 451.078 526.149 450.869 525.944 450.715C525.746 450.561 525.46 450.488 525.086 450.495H523.15V452.299ZM523.15 452.959V454.818H525.163C525.581 454.818 525.904 454.737 526.131 454.576C526.366 454.415 526.483 454.198 526.483 453.927V453.916C526.483 453.615 526.362 453.381 526.12 453.212C525.878 453.036 525.53 452.952 525.075 452.959H523.15ZM528.878 455.5V449.813H529.725V452.244H533.124V449.813H533.96V455.5H533.124V453.014H529.725V455.5H528.878ZM538.456 455.632C537.613 455.632 536.909 455.346 536.344 454.774C535.787 454.195 535.508 453.498 535.508 452.684V452.662C535.508 451.841 535.79 451.14 536.355 450.561C536.92 449.982 537.627 449.692 538.478 449.692C539.321 449.692 540.025 449.982 540.59 450.561C541.155 451.133 541.437 451.826 541.437 452.64V452.662C541.437 453.483 541.151 454.184 540.579 454.763C540.014 455.342 539.307 455.632 538.456 455.632ZM538.478 454.873C539.079 454.873 539.578 454.66 539.974 454.235C540.37 453.81 540.568 453.293 540.568 452.684V452.662C540.568 452.046 540.363 451.522 539.952 451.089C539.549 450.656 539.05 450.44 538.456 450.44C537.855 450.44 537.356 450.656 536.96 451.089C536.571 451.514 536.377 452.031 536.377 452.64V452.662C536.377 453.278 536.579 453.802 536.982 454.235C537.385 454.66 537.884 454.873 538.478 454.873ZM545.534 455.632C544.706 455.632 544.013 455.342 543.455 454.763C542.898 454.184 542.619 453.491 542.619 452.684V452.662C542.619 451.841 542.898 451.14 543.455 450.561C544.013 449.982 544.706 449.692 545.534 449.692C546.414 449.692 547.173 450.029 547.811 450.704L547.25 451.298C546.708 450.726 546.132 450.44 545.523 450.44C544.944 450.44 544.46 450.653 544.071 451.078C543.683 451.503 543.488 452.024 543.488 452.64V452.662C543.488 453.278 543.686 453.802 544.082 454.235C544.486 454.66 544.984 454.873 545.578 454.873C546.209 454.873 546.788 454.591 547.316 454.026L547.855 454.532C547.21 455.265 546.436 455.632 545.534 455.632ZM550.744 455.5V450.572H548.467V449.813H553.879V450.572H551.591V455.5H550.744ZM555.154 448.57V447.635H556.122V448.57H555.154ZM555.209 455.5V449.813H556.056V455.5H555.209Z" fill="#007347"/>
<g clip-path="url(#clip3_76_2982)">
<rect x="616" y="440" width="24" height="24" rx="4" fill="#F6EEF7"/>
<path d="M623.632 457V447.235L621.607 447.925L621.397 447.31L623.797 446.425H624.397V457H623.632ZM630.501 457.18C629.821 457.18 629.161 457.025 628.521 456.715C627.881 456.405 627.316 455.995 626.826 455.485L627.381 454.93C628.411 455.96 629.461 456.475 630.531 456.475C631.351 456.475 632.026 456.225 632.556 455.725C633.086 455.215 633.351 454.585 633.351 453.835V453.805C633.351 453.085 633.081 452.49 632.541 452.02C632.001 451.55 631.311 451.315 630.471 451.315C629.701 451.315 628.911 451.535 628.101 451.975L627.501 451.585L627.801 446.5H633.696V447.25H628.491L628.236 451.18C628.976 450.8 629.751 450.61 630.561 450.61C631.591 450.61 632.446 450.905 633.126 451.495C633.816 452.085 634.161 452.845 634.161 453.775V453.805C634.161 454.785 633.816 455.595 633.126 456.235C632.436 456.865 631.561 457.18 630.501 457.18Z" fill="#190F19"/>
</g>
<rect x="470.5" y="403.5" width="179" height="70" rx="7.5" stroke="#02AB6B"/>
<rect x="404.5" y="206.5" width="179" height="70" rx="7.5" fill="#FBF9FB"/>
<path d="M415.26 230V220.2H417.094L420.076 224.834L423.058 220.2H424.892V230H423.17V222.972L420.076 227.592H420.02L416.954 223V230H415.26ZM429.346 230.154C428.609 230.154 427.984 229.953 427.47 229.552C426.966 229.151 426.714 228.591 426.714 227.872V227.844C426.714 227.06 426.99 226.467 427.54 226.066C428.1 225.665 428.847 225.464 429.78 225.464C430.462 225.464 431.124 225.567 431.768 225.772V225.59C431.768 224.517 431.157 223.98 429.934 223.98C429.262 223.98 428.558 224.134 427.82 224.442L427.358 223.112C428.301 222.711 429.234 222.51 430.158 222.51C431.26 222.51 432.076 222.785 432.608 223.336C433.14 223.868 433.406 224.629 433.406 225.618V230H431.754V229.076C431.157 229.795 430.354 230.154 429.346 230.154ZM429.822 228.922C430.392 228.922 430.863 228.777 431.236 228.488C431.61 228.189 431.796 227.807 431.796 227.34V226.836C431.292 226.64 430.732 226.542 430.116 226.542C429.566 226.542 429.136 226.649 428.828 226.864C428.53 227.079 428.38 227.382 428.38 227.774V227.802C428.38 228.147 428.516 228.423 428.786 228.628C429.057 228.824 429.402 228.922 429.822 228.922ZM436.737 222.608L438.431 225.086L440.153 222.608H441.959L439.355 226.22L442.071 230H440.223L438.403 227.368L436.597 230H434.791L437.493 226.234L434.889 222.608H436.737ZM443.584 221.474V219.864H445.404V221.474H443.584ZM443.64 230V222.608H445.348V230H443.64ZM450.04 230.126C448.621 230.126 447.912 229.403 447.912 227.956V224.064H446.974V222.608H447.912V220.578H449.606V222.608H451.594V224.064H449.606V227.69C449.606 228.306 449.909 228.614 450.516 228.614C450.88 228.614 451.23 228.53 451.566 228.362V229.748C451.109 230 450.6 230.126 450.04 230.126ZM453.304 230V222.608H455.012V224.274C455.535 223.014 456.407 222.412 457.63 222.468V224.26H457.532C456.757 224.26 456.141 224.512 455.684 225.016C455.236 225.511 455.012 226.234 455.012 227.186V230H453.304ZM462.369 230.168C461.249 230.168 460.316 229.799 459.569 229.062C458.822 228.315 458.449 227.41 458.449 226.346V226.318C458.449 225.245 458.827 224.335 459.583 223.588C460.339 222.832 461.277 222.454 462.397 222.454C463.526 222.454 464.464 222.827 465.211 223.574C465.958 224.311 466.331 225.217 466.331 226.29V226.318C466.331 227.373 465.953 228.278 465.197 229.034C464.441 229.79 463.498 230.168 462.369 230.168ZM462.397 228.684C463.069 228.684 463.61 228.46 464.021 228.012C464.432 227.555 464.637 226.999 464.637 226.346V226.318C464.637 225.655 464.422 225.095 463.993 224.638C463.564 224.171 463.022 223.938 462.369 223.938C461.706 223.938 461.17 224.167 460.759 224.624C460.348 225.072 460.143 225.627 460.143 226.29V226.318C460.143 226.971 460.358 227.531 460.787 227.998C461.216 228.455 461.753 228.684 462.397 228.684ZM468.14 230V219.78H469.848V230H468.14Z" fill="#190F19"/>
<path d="M415.089 258.5V250.8H418.367C419.24 250.8 419.911 251.027 420.38 251.482C420.71 251.819 420.875 252.23 420.875 252.714V252.736C420.875 253.572 420.468 254.166 419.654 254.518C420.754 254.833 421.304 255.453 421.304 256.377V256.399C421.304 257.052 421.051 257.565 420.545 257.939C420.039 258.313 419.361 258.5 418.51 258.5H415.089ZM419.995 252.857V252.835C419.995 252.446 419.845 252.142 419.544 251.922C419.251 251.695 418.833 251.581 418.29 251.581H415.947V254.232H418.224C418.767 254.232 419.196 254.115 419.511 253.88C419.834 253.645 419.995 253.304 419.995 252.857ZM420.424 256.344V256.322C420.424 255.897 420.248 255.57 419.896 255.343C419.551 255.116 419.045 255.002 418.378 255.002H415.947V257.719H418.532C419.126 257.719 419.588 257.598 419.918 257.356C420.255 257.114 420.424 256.777 420.424 256.344ZM422.906 251.57V250.635H423.874V251.57H422.906ZM422.961 258.5V252.813H423.808V258.5H422.961ZM428.865 252.769L431.087 257.73H431.736V260.007H430.966V258.5H425.884V260.007H425.114V257.73H425.763L427.985 252.769H428.865ZM428.425 253.616L426.632 257.752H430.185L428.425 253.616ZM435.201 258.632C434.373 258.632 433.68 258.342 433.122 257.763C432.565 257.184 432.286 256.491 432.286 255.684V255.662C432.286 254.841 432.565 254.14 433.122 253.561C433.68 252.982 434.373 252.692 435.201 252.692C436.081 252.692 436.84 253.029 437.478 253.704L436.917 254.298C436.375 253.726 435.799 253.44 435.19 253.44C434.611 253.44 434.127 253.653 433.738 254.078C433.35 254.503 433.155 255.024 433.155 255.64V255.662C433.155 256.278 433.353 256.802 433.749 257.235C434.153 257.66 434.651 257.873 435.245 257.873C435.876 257.873 436.455 257.591 436.983 257.026L437.522 257.532C436.877 258.265 436.103 258.632 435.201 258.632ZM441.3 257.554L443.126 252.813H444.028L441.641 258.687C441.406 259.266 441.139 259.677 440.838 259.919C440.545 260.168 440.182 260.293 439.749 260.293C439.338 260.293 438.935 260.198 438.539 260.007L438.825 259.336C439.096 259.475 439.393 259.545 439.716 259.545C439.98 259.545 440.196 259.464 440.365 259.303C440.541 259.149 440.713 258.874 440.882 258.478L438.297 252.813H439.232L441.3 257.554ZM446.867 258.5V253.572H444.59V252.813H450.002V253.572H447.714V258.5H446.867ZM451.255 258.5V252.813H452.102V255.244H455.501V252.813H456.337V258.5H455.501V256.014H452.102V258.5H451.255ZM461.801 255.266V255.981H458.754C458.798 256.531 459.018 256.989 459.414 257.356C459.817 257.715 460.298 257.895 460.855 257.895C461.522 257.895 462.124 257.627 462.659 257.092L463.143 257.631C462.49 258.298 461.709 258.632 460.8 258.632C459.971 258.632 459.278 258.346 458.721 257.774C458.164 257.202 457.885 256.505 457.885 255.684V255.662C457.885 254.833 458.164 254.133 458.721 253.561C459.278 252.982 459.975 252.692 460.811 252.692C461.684 252.692 462.443 252.996 463.088 253.605L462.593 254.221C462.05 253.693 461.456 253.429 460.811 253.429C460.276 253.429 459.814 253.601 459.425 253.946C459.036 254.291 458.813 254.731 458.754 255.266H461.801Z" fill="#F50000"/>
<g clip-path="url(#clip4_76_2982)">
<rect x="550" y="243" width="24" height="24" rx="4" fill="#F6EEF7"/>
<path d="M561.985 260.18C560.685 260.18 559.635 259.655 558.835 258.605C558.045 257.555 557.65 256.28 557.65 254.78V254.75C557.65 253.78 557.825 252.885 558.175 252.065C558.525 251.245 559.035 250.585 559.705 250.085C560.385 249.575 561.155 249.32 562.015 249.32C563.315 249.32 564.36 249.845 565.15 250.895C565.95 251.945 566.35 253.22 566.35 254.72V254.75C566.35 255.72 566.175 256.615 565.825 257.435C565.475 258.255 564.96 258.92 564.28 259.43C563.61 259.93 562.845 260.18 561.985 260.18ZM562.015 259.475C563.055 259.475 563.9 259.01 564.55 258.08C565.21 257.15 565.54 256.05 565.54 254.78V254.75C565.54 253.47 565.21 252.365 564.55 251.435C563.89 250.495 563.035 250.025 561.985 250.025C560.945 250.025 560.095 250.49 559.435 251.42C558.785 252.35 558.46 253.45 558.46 254.72V254.75C558.46 256.02 558.79 257.125 559.45 258.065C560.11 259.005 560.965 259.475 562.015 259.475Z" fill="#190F19"/>
</g>
<rect x="404.5" y="206.5" width="179" height="70" rx="7.5" stroke="#DB0000"/>
<rect x="132.5" y="387.5" width="179" height="70" rx="7.5" fill="#FBF9FB"/>
<path d="M147.81 411.168C146.391 411.168 145.206 410.683 144.254 409.712C143.302 408.741 142.826 407.547 142.826 406.128V406.1C142.826 404.681 143.302 403.482 144.254 402.502C145.206 401.522 146.41 401.032 147.866 401.032C148.715 401.032 149.439 401.163 150.036 401.424C150.633 401.685 151.193 402.063 151.716 402.558L150.61 403.832C149.733 403.029 148.813 402.628 147.852 402.628C146.937 402.628 146.172 402.964 145.556 403.636C144.94 404.299 144.632 405.111 144.632 406.072V406.1C144.632 407.071 144.94 407.892 145.556 408.564C146.172 409.236 146.942 409.572 147.866 409.572C148.426 409.572 148.921 409.469 149.35 409.264C149.779 409.059 150.223 408.741 150.68 408.312L151.786 409.432C151.254 410.001 150.675 410.435 150.05 410.734C149.425 411.023 148.678 411.168 147.81 411.168ZM153.442 402.474V400.864H155.262V402.474H153.442ZM153.498 411V403.608H155.206V411H153.498ZM157.503 411V400.78H159.211V411H157.503ZM164.939 411.168C163.819 411.168 162.886 410.799 162.139 410.062C161.393 409.315 161.019 408.41 161.019 407.346V407.318C161.019 406.245 161.397 405.335 162.153 404.588C162.909 403.832 163.847 403.454 164.967 403.454C166.097 403.454 167.035 403.827 167.781 404.574C168.528 405.311 168.901 406.217 168.901 407.29V407.318C168.901 408.373 168.523 409.278 167.767 410.034C167.011 410.79 166.069 411.168 164.939 411.168ZM164.967 409.684C165.639 409.684 166.181 409.46 166.591 409.012C167.002 408.555 167.207 407.999 167.207 407.346V407.318C167.207 406.655 166.993 406.095 166.563 405.638C166.134 405.171 165.593 404.938 164.939 404.938C164.277 404.938 163.74 405.167 163.329 405.624C162.919 406.072 162.713 406.627 162.713 407.29V407.318C162.713 407.971 162.928 408.531 163.357 408.998C163.787 409.455 164.323 409.684 164.967 409.684ZM171.436 403.608L173.13 406.086L174.852 403.608H176.658L174.054 407.22L176.77 411H174.922L173.102 408.368L171.296 411H169.49L172.192 407.234L169.588 403.608H171.436ZM180.178 411.154C179.441 411.154 178.816 410.953 178.302 410.552C177.798 410.151 177.546 409.591 177.546 408.872V408.844C177.546 408.06 177.822 407.467 178.372 407.066C178.932 406.665 179.679 406.464 180.612 406.464C181.294 406.464 181.956 406.567 182.6 406.772V406.59C182.6 405.517 181.989 404.98 180.766 404.98C180.094 404.98 179.39 405.134 178.652 405.442L178.19 404.112C179.133 403.711 180.066 403.51 180.99 403.51C182.092 403.51 182.908 403.785 183.44 404.336C183.972 404.868 184.238 405.629 184.238 406.618V411H182.586V410.076C181.989 410.795 181.186 411.154 180.178 411.154ZM180.654 409.922C181.224 409.922 181.695 409.777 182.068 409.488C182.442 409.189 182.628 408.807 182.628 408.34V407.836C182.124 407.64 181.564 407.542 180.948 407.542C180.398 407.542 179.968 407.649 179.66 407.864C179.362 408.079 179.212 408.382 179.212 408.774V408.802C179.212 409.147 179.348 409.423 179.618 409.628C179.889 409.824 180.234 409.922 180.654 409.922ZM186.253 411V403.608H187.961V404.742C188.577 403.883 189.347 403.454 190.271 403.454C191.102 403.454 191.746 403.711 192.203 404.224C192.67 404.728 192.903 405.414 192.903 406.282V411H191.209V406.8C191.209 406.221 191.069 405.778 190.789 405.47C190.518 405.153 190.131 404.994 189.627 404.994C189.123 404.994 188.717 405.157 188.409 405.484C188.11 405.811 187.961 406.259 187.961 406.828V411H186.253Z" fill="#190F19"/>
<path d="M143.089 439.5V431.8H146.367C147.24 431.8 147.911 432.027 148.38 432.482C148.71 432.819 148.875 433.23 148.875 433.714V433.736C148.875 434.572 148.468 435.166 147.654 435.518C148.754 435.833 149.304 436.453 149.304 437.377V437.399C149.304 438.052 149.051 438.565 148.545 438.939C148.039 439.313 147.361 439.5 146.51 439.5H143.089ZM147.995 433.857V433.835C147.995 433.446 147.845 433.142 147.544 432.922C147.251 432.695 146.833 432.581 146.29 432.581H143.947V435.232H146.224C146.767 435.232 147.196 435.115 147.511 434.88C147.834 434.645 147.995 434.304 147.995 433.857ZM148.424 437.344V437.322C148.424 436.897 148.248 436.57 147.896 436.343C147.551 436.116 147.045 436.002 146.378 436.002H143.947V438.719H146.532C147.126 438.719 147.588 438.598 147.918 438.356C148.255 438.114 148.424 437.777 148.424 437.344ZM150.906 432.57V431.635H151.874V432.57H150.906ZM150.961 439.5V433.813H151.808V439.5H150.961ZM156.865 433.769L159.087 438.73H159.736V441.007H158.966V439.5H153.884V441.007H153.114V438.73H153.763L155.985 433.769H156.865ZM156.425 434.616L154.632 438.752H158.185L156.425 434.616ZM163.201 439.632C162.373 439.632 161.68 439.342 161.122 438.763C160.565 438.184 160.286 437.491 160.286 436.684V436.662C160.286 435.841 160.565 435.14 161.122 434.561C161.68 433.982 162.373 433.692 163.201 433.692C164.081 433.692 164.84 434.029 165.478 434.704L164.917 435.298C164.375 434.726 163.799 434.44 163.19 434.44C162.611 434.44 162.127 434.653 161.738 435.078C161.35 435.503 161.155 436.024 161.155 436.64V436.662C161.155 437.278 161.353 437.802 161.749 438.235C162.153 438.66 162.651 438.873 163.245 438.873C163.876 438.873 164.455 438.591 164.983 438.026L165.522 438.532C164.877 439.265 164.103 439.632 163.201 439.632ZM169.3 438.554L171.126 433.813H172.028L169.641 439.687C169.406 440.266 169.139 440.677 168.838 440.919C168.545 441.168 168.182 441.293 167.749 441.293C167.338 441.293 166.935 441.198 166.539 441.007L166.825 440.336C167.096 440.475 167.393 440.545 167.716 440.545C167.98 440.545 168.196 440.464 168.365 440.303C168.541 440.149 168.713 439.874 168.882 439.478L166.297 433.813H167.232L169.3 438.554ZM174.867 439.5V434.572H172.59V433.813H178.002V434.572H175.714V439.5H174.867ZM179.255 439.5V433.813H180.102V436.244H183.501V433.813H184.337V439.5H183.501V437.014H180.102V439.5H179.255ZM189.801 436.266V436.981H186.754C186.798 437.531 187.018 437.989 187.414 438.356C187.817 438.715 188.298 438.895 188.855 438.895C189.522 438.895 190.124 438.627 190.659 438.092L191.143 438.631C190.49 439.298 189.709 439.632 188.8 439.632C187.971 439.632 187.278 439.346 186.721 438.774C186.164 438.202 185.885 437.505 185.885 436.684V436.662C185.885 435.833 186.164 435.133 186.721 434.561C187.278 433.982 187.975 433.692 188.811 433.692C189.684 433.692 190.443 433.996 191.088 434.605L190.593 435.221C190.05 434.693 189.456 434.429 188.811 434.429C188.276 434.429 187.814 434.601 187.425 434.946C187.036 435.291 186.813 435.731 186.754 436.266H189.801Z" fill="#F50000"/>
<g clip-path="url(#clip5_76_2982)">
<rect x="278" y="424" width="24" height="24" rx="4" fill="#F6EEF7"/>
<path d="M289.985 441.18C288.685 441.18 287.635 440.655 286.835 439.605C286.045 438.555 285.65 437.28 285.65 435.78V435.75C285.65 434.78 285.825 433.885 286.175 433.065C286.525 432.245 287.035 431.585 287.705 431.085C288.385 430.575 289.155 430.32 290.015 430.32C291.315 430.32 292.36 430.845 293.15 431.895C293.95 432.945 294.35 434.22 294.35 435.72V435.75C294.35 436.72 294.175 437.615 293.825 438.435C293.475 439.255 292.96 439.92 292.28 440.43C291.61 440.93 290.845 441.18 289.985 441.18ZM290.015 440.475C291.055 440.475 291.9 440.01 292.55 439.08C293.21 438.15 293.54 437.05 293.54 435.78V435.75C293.54 434.47 293.21 433.365 292.55 432.435C291.89 431.495 291.035 431.025 289.985 431.025C288.945 431.025 288.095 431.49 287.435 432.42C286.785 433.35 286.46 434.45 286.46 435.72V435.75C286.46 437.02 286.79 438.125 287.45 439.065C288.11 440.005 288.965 440.475 290.015 440.475Z" fill="#190F19"/>
</g>
<rect x="132.5" y="387.5" width="179" height="70" rx="7.5" stroke="#DB0000"/>
<rect x="334.5" y="312.5" width="179" height="70" rx="7.5" fill="#FBF9FB"/>
<path d="M347.654 336V327.796H344.532V326.2H352.498V327.796H349.376V336H347.654ZM353.964 336V325.78H355.672V329.742C356.288 328.883 357.058 328.454 357.982 328.454C358.813 328.454 359.457 328.711 359.914 329.224C360.381 329.728 360.614 330.414 360.614 331.282V336H358.92V331.8C358.92 331.221 358.78 330.778 358.5 330.47C358.229 330.153 357.842 329.994 357.338 329.994C356.834 329.994 356.428 330.157 356.12 330.484C355.821 330.811 355.672 331.259 355.672 331.828V336H353.964ZM366.048 336.168C364.965 336.168 364.06 335.813 363.332 335.104C362.613 334.385 362.254 333.461 362.254 332.332V332.304C362.254 331.221 362.594 330.311 363.276 329.574C363.957 328.827 364.82 328.454 365.866 328.454C366.986 328.454 367.854 328.837 368.47 329.602C369.095 330.358 369.408 331.301 369.408 332.43C369.408 332.523 369.398 332.682 369.38 332.906H363.948C364.041 333.503 364.279 333.965 364.662 334.292C365.044 334.619 365.516 334.782 366.076 334.782C366.794 334.782 367.462 334.488 368.078 333.9L369.072 334.782C368.288 335.706 367.28 336.168 366.048 336.168ZM363.934 331.786H367.728C367.672 331.217 367.48 330.75 367.154 330.386C366.827 330.022 366.393 329.84 365.852 329.84C365.329 329.84 364.895 330.017 364.55 330.372C364.214 330.727 364.008 331.198 363.934 331.786ZM373.237 336.154C372.5 336.154 371.874 335.953 371.361 335.552C370.857 335.151 370.605 334.591 370.605 333.872V333.844C370.605 333.06 370.88 332.467 371.431 332.066C371.991 331.665 372.738 331.464 373.671 331.464C374.352 331.464 375.015 331.567 375.659 331.772V331.59C375.659 330.517 375.048 329.98 373.825 329.98C373.153 329.98 372.448 330.134 371.711 330.442L371.249 329.112C372.192 328.711 373.125 328.51 374.049 328.51C375.15 328.51 375.967 328.785 376.499 329.336C377.031 329.868 377.297 330.629 377.297 331.618V336H375.645V335.076C375.048 335.795 374.245 336.154 373.237 336.154ZM373.713 334.922C374.282 334.922 374.754 334.777 375.127 334.488C375.5 334.189 375.687 333.807 375.687 333.34V332.836C375.183 332.64 374.623 332.542 374.007 332.542C373.456 332.542 373.027 332.649 372.719 332.864C372.42 333.079 372.271 333.382 372.271 333.774V333.802C372.271 334.147 372.406 334.423 372.677 334.628C372.948 334.824 373.293 334.922 373.713 334.922ZM379.41 336V325.78H381.118V336H379.41ZM386.846 336.168C385.726 336.168 384.792 335.799 384.046 335.062C383.299 334.315 382.926 333.41 382.926 332.346V332.318C382.926 331.245 383.304 330.335 384.06 329.588C384.816 328.832 385.754 328.454 386.874 328.454C388.003 328.454 388.941 328.827 389.688 329.574C390.434 330.311 390.808 331.217 390.808 332.29V332.318C390.808 333.373 390.43 334.278 389.674 335.034C388.918 335.79 387.975 336.168 386.846 336.168ZM386.874 334.684C387.546 334.684 388.087 334.46 388.498 334.012C388.908 333.555 389.114 332.999 389.114 332.346V332.318C389.114 331.655 388.899 331.095 388.47 330.638C388.04 330.171 387.499 329.938 386.846 329.938C386.183 329.938 385.646 330.167 385.236 330.624C384.825 331.072 384.62 331.627 384.62 332.29V332.318C384.62 332.971 384.834 333.531 385.264 333.998C385.693 334.455 386.23 334.684 386.874 334.684ZM391.923 336V334.838L396.193 329.994H392.077V328.608H398.349V329.77L394.079 334.614H398.349V336H391.923Z" fill="#190F19"/>
<path d="M348.587 364.632C347.494 364.632 346.581 364.251 345.848 363.488C345.115 362.725 344.748 361.787 344.748 360.672V360.65C344.748 359.543 345.115 358.604 345.848 357.834C346.581 357.057 347.513 356.668 348.642 356.668C349.295 356.668 349.848 356.771 350.303 356.976C350.765 357.181 351.209 357.486 351.634 357.889L351.062 358.516C350.336 357.812 349.529 357.46 348.642 357.46C347.843 357.46 347.164 357.724 346.607 358.252C346.05 358.773 345.734 359.436 345.661 360.243H349.907V361.002H345.661C345.734 361.823 346.046 362.502 346.596 363.037C347.153 363.572 347.832 363.84 348.631 363.84C349.137 363.84 349.577 363.752 349.951 363.576C350.332 363.393 350.717 363.107 351.106 362.718L351.678 363.279C351.231 363.726 350.769 364.064 350.292 364.291C349.815 364.518 349.247 364.632 348.587 364.632ZM356.408 364.5V358.813H359.279C359.873 358.813 360.342 358.941 360.687 359.198C361.032 359.455 361.204 359.814 361.204 360.276V360.287C361.204 360.918 360.863 361.35 360.181 361.585C361.01 361.82 361.424 362.278 361.424 362.96V362.971C361.424 363.455 361.233 363.833 360.852 364.104C360.471 364.375 359.946 364.507 359.279 364.5H356.408ZM357.244 361.299H359.103C359.506 361.299 359.814 361.215 360.027 361.046C360.24 360.877 360.346 360.646 360.346 360.353V360.342C360.346 360.078 360.243 359.869 360.038 359.715C359.84 359.561 359.554 359.488 359.18 359.495H357.244V361.299ZM357.244 361.959V363.818H359.257C359.675 363.818 359.998 363.737 360.225 363.576C360.46 363.415 360.577 363.198 360.577 362.927V362.916C360.577 362.615 360.456 362.381 360.214 362.212C359.972 362.036 359.624 361.952 359.169 361.959H357.244ZM366.269 364.5V358.813H367.116V361.244H370.515V358.813H371.351V364.5H370.515V362.014H367.116V364.5H366.269ZM374.946 364.621C374.374 364.621 373.875 364.467 373.45 364.159C373.032 363.844 372.823 363.407 372.823 362.85V362.828C372.823 362.249 373.043 361.798 373.483 361.475C373.93 361.152 374.52 360.991 375.254 360.991C375.833 360.991 376.416 361.072 377.003 361.233V361.035C377.003 360.529 376.856 360.144 376.563 359.88C376.269 359.616 375.851 359.484 375.309 359.484C374.737 359.484 374.161 359.623 373.582 359.902L373.329 359.209C373.996 358.894 374.685 358.736 375.397 358.736C376.203 358.736 376.816 358.945 377.234 359.363C377.622 359.752 377.817 360.305 377.817 361.024V364.5H377.003V363.642C376.504 364.295 375.818 364.621 374.946 364.621ZM375.111 363.95C375.646 363.95 376.097 363.807 376.464 363.521C376.83 363.228 377.014 362.857 377.014 362.41V361.86C376.442 361.699 375.884 361.618 375.342 361.618C374.814 361.618 374.403 361.724 374.11 361.937C373.824 362.15 373.681 362.436 373.681 362.795V362.817C373.681 363.162 373.82 363.437 374.099 363.642C374.377 363.847 374.715 363.95 375.111 363.95ZM380.238 364.5H379.226L380.887 362.311C380.425 362.208 380.065 362.01 379.809 361.717C379.559 361.424 379.435 361.057 379.435 360.617V360.606C379.435 360.063 379.636 359.631 380.04 359.308C380.443 358.978 380.982 358.813 381.657 358.813H384.407V364.5H383.571V362.388H381.811L380.238 364.5ZM383.571 359.517H381.668C381.25 359.517 380.912 359.616 380.656 359.814C380.406 360.012 380.282 360.276 380.282 360.606V360.617C380.282 360.954 380.403 361.222 380.645 361.42C380.894 361.618 381.235 361.713 381.668 361.706H383.571V359.517ZM386.314 364.5V358.813H389.185C389.779 358.813 390.248 358.941 390.593 359.198C390.938 359.455 391.11 359.814 391.11 360.276V360.287C391.11 360.918 390.769 361.35 390.087 361.585C390.916 361.82 391.33 362.278 391.33 362.96V362.971C391.33 363.455 391.139 363.833 390.758 364.104C390.377 364.375 389.852 364.507 389.185 364.5H386.314ZM387.15 361.299H389.009C389.412 361.299 389.72 361.215 389.933 361.046C390.146 360.877 390.252 360.646 390.252 360.353V360.342C390.252 360.078 390.149 359.869 389.944 359.715C389.746 359.561 389.46 359.488 389.086 359.495H387.15V361.299ZM387.15 361.959V363.818H389.163C389.581 363.818 389.904 363.737 390.131 363.576C390.366 363.415 390.483 363.198 390.483 362.927V362.916C390.483 362.615 390.362 362.381 390.12 362.212C389.878 362.036 389.53 361.952 389.075 361.959H387.15ZM392.878 364.5V358.813H393.725V361.244H397.124V358.813H397.96V364.5H397.124V362.014H393.725V364.5H392.878ZM402.456 364.632C401.613 364.632 400.909 364.346 400.344 363.774C399.787 363.195 399.508 362.498 399.508 361.684V361.662C399.508 360.841 399.79 360.14 400.355 359.561C400.92 358.982 401.627 358.692 402.478 358.692C403.321 358.692 404.025 358.982 404.59 359.561C405.155 360.133 405.437 360.826 405.437 361.64V361.662C405.437 362.483 405.151 363.184 404.579 363.763C404.014 364.342 403.307 364.632 402.456 364.632ZM402.478 363.873C403.079 363.873 403.578 363.66 403.974 363.235C404.37 362.81 404.568 362.293 404.568 361.684V361.662C404.568 361.046 404.363 360.522 403.952 360.089C403.549 359.656 403.05 359.44 402.456 359.44C401.855 359.44 401.356 359.656 400.96 360.089C400.571 360.514 400.377 361.031 400.377 361.64V361.662C400.377 362.278 400.579 362.802 400.982 363.235C401.385 363.66 401.884 363.873 402.478 363.873ZM409.534 364.632C408.706 364.632 408.013 364.342 407.455 363.763C406.898 363.184 406.619 362.491 406.619 361.684V361.662C406.619 360.841 406.898 360.14 407.455 359.561C408.013 358.982 408.706 358.692 409.534 358.692C410.414 358.692 411.173 359.029 411.811 359.704L411.25 360.298C410.708 359.726 410.132 359.44 409.523 359.44C408.944 359.44 408.46 359.653 408.071 360.078C407.683 360.503 407.488 361.024 407.488 361.64V361.662C407.488 362.278 407.686 362.802 408.082 363.235C408.486 363.66 408.984 363.873 409.578 363.873C410.209 363.873 410.788 363.591 411.316 363.026L411.855 363.532C411.21 364.265 410.436 364.632 409.534 364.632ZM414.744 364.5V359.572H412.467V358.813H417.879V359.572H415.591V364.5H414.744ZM419.154 357.57V356.635H420.122V357.57H419.154ZM419.209 364.5V358.813H420.056V364.5H419.209Z" fill="#007347"/>
<g clip-path="url(#clip6_76_2982)">
<rect x="480" y="349" width="24" height="24" rx="4" fill="#F6EEF7"/>
<path d="M487.632 366V356.235L485.607 356.925L485.397 356.31L487.797 355.425H488.397V366H487.632ZM494.501 366.18C493.821 366.18 493.161 366.025 492.521 365.715C491.881 365.405 491.316 364.995 490.826 364.485L491.381 363.93C492.411 364.96 493.461 365.475 494.531 365.475C495.351 365.475 496.026 365.225 496.556 364.725C497.086 364.215 497.351 363.585 497.351 362.835V362.805C497.351 362.085 497.081 361.49 496.541 361.02C496.001 360.55 495.311 360.315 494.471 360.315C493.701 360.315 492.911 360.535 492.101 360.975L491.501 360.585L491.801 355.5H497.696V356.25H492.491L492.236 360.18C492.976 359.8 493.751 359.61 494.561 359.61C495.591 359.61 496.446 359.905 497.126 360.495C497.816 361.085 498.161 361.845 498.161 362.775V362.805C498.161 363.785 497.816 364.595 497.126 365.235C496.436 365.865 495.561 366.18 494.501 366.18Z" fill="#190F19"/>
</g>
<rect x="334.5" y="312.5" width="179" height="70" rx="7.5" stroke="#02AB6B"/>
<rect x="453.5" y="55.5" width="179" height="70" rx="7.5" fill="#FBF9FB"/>
<path d="M467.69 79.14C466.122 79.14 464.759 78.6173 463.602 77.572L464.638 76.34C465.618 77.1893 466.649 77.614 467.732 77.614C468.264 77.614 468.684 77.502 468.992 77.278C469.309 77.0447 469.468 76.746 469.468 76.382V76.354C469.468 75.99 469.314 75.7007 469.006 75.486C468.707 75.262 468.124 75.052 467.256 74.856C466.127 74.5947 465.301 74.254 464.778 73.834C464.255 73.414 463.994 72.7793 463.994 71.93V71.902C463.994 71.062 464.307 70.3807 464.932 69.858C465.557 69.326 466.36 69.06 467.34 69.06C468.675 69.06 469.86 69.4707 470.896 70.292L469.972 71.594C469.057 70.922 468.171 70.586 467.312 70.586C466.817 70.586 466.425 70.698 466.136 70.922C465.856 71.1367 465.716 71.412 465.716 71.748V71.776C465.716 72.1587 465.87 72.4573 466.178 72.672C466.495 72.8773 467.121 73.092 468.054 73.316C469.146 73.596 469.939 73.9507 470.434 74.38C470.938 74.8 471.19 75.402 471.19 76.186V76.214C471.19 77.1193 470.868 77.8333 470.224 78.356C469.58 78.8787 468.735 79.14 467.69 79.14ZM476.006 77.096L477.938 71.608H479.702L476.762 79.196C476.463 79.9613 476.132 80.498 475.768 80.806C475.404 81.1233 474.923 81.282 474.326 81.282C473.701 81.282 473.117 81.128 472.576 80.82L473.15 79.574C473.505 79.7607 473.836 79.854 474.144 79.854C474.396 79.854 474.597 79.7887 474.746 79.658C474.905 79.5367 475.054 79.322 475.194 79.014L472.114 71.608H473.934L476.006 77.096ZM483.414 79.14C482.257 79.14 481.212 78.7713 480.278 78.034L481.034 76.886C481.865 77.4927 482.672 77.796 483.456 77.796C483.82 77.796 484.1 77.726 484.296 77.586C484.502 77.4367 484.604 77.2407 484.604 76.998V76.97C484.604 76.8393 484.572 76.7273 484.506 76.634C484.441 76.5407 484.31 76.4473 484.114 76.354C483.918 76.2607 483.774 76.2 483.68 76.172C483.596 76.1347 483.396 76.0693 483.078 75.976C483.022 75.9573 482.98 75.9433 482.952 75.934C482.626 75.85 482.346 75.7613 482.112 75.668C481.888 75.5747 481.65 75.4487 481.398 75.29C481.156 75.122 480.969 74.912 480.838 74.66C480.708 74.408 480.642 74.114 480.642 73.778V73.75C480.642 73.0593 480.89 72.5087 481.384 72.098C481.888 71.6873 482.518 71.482 483.274 71.482C484.236 71.482 485.141 71.762 485.99 72.322L485.318 73.526C484.553 73.0593 483.858 72.826 483.232 72.826C482.915 72.826 482.663 72.896 482.476 73.036C482.29 73.176 482.196 73.3487 482.196 73.554V73.582C482.196 73.75 482.285 73.904 482.462 74.044C482.64 74.1747 482.822 74.2773 483.008 74.352C483.204 74.4267 483.489 74.52 483.862 74.632C484.189 74.7347 484.464 74.8373 484.688 74.94C484.912 75.0333 485.146 75.164 485.388 75.332C485.64 75.5 485.832 75.7053 485.962 75.948C486.093 76.1907 486.158 76.4707 486.158 76.788V76.816C486.158 77.5627 485.902 78.1367 485.388 78.538C484.875 78.9393 484.217 79.14 483.414 79.14ZM490.235 79.126C488.817 79.126 488.107 78.4027 488.107 76.956V73.064H487.169V71.608H488.107V69.578H489.801V71.608H491.789V73.064H489.801V76.69C489.801 77.306 490.105 77.614 490.711 77.614C491.075 77.614 491.425 77.53 491.761 77.362V78.748C491.304 79 490.795 79.126 490.235 79.126ZM495.641 79.154C494.904 79.154 494.279 78.9533 493.765 78.552C493.261 78.1507 493.009 77.5907 493.009 76.872V76.844C493.009 76.06 493.285 75.4673 493.835 75.066C494.395 74.6647 495.142 74.464 496.075 74.464C496.757 74.464 497.419 74.5667 498.063 74.772V74.59C498.063 73.5167 497.452 72.98 496.229 72.98C495.557 72.98 494.853 73.134 494.115 73.442L493.653 72.112C494.596 71.7107 495.529 71.51 496.453 71.51C497.555 71.51 498.371 71.7853 498.903 72.336C499.435 72.868 499.701 73.6287 499.701 74.618V79H498.049V78.076C497.452 78.7947 496.649 79.154 495.641 79.154ZM496.117 77.922C496.687 77.922 497.158 77.7773 497.531 77.488C497.905 77.1893 498.091 76.8067 498.091 76.34V75.836C497.587 75.64 497.027 75.542 496.411 75.542C495.861 75.542 495.431 75.6493 495.123 75.864C494.825 76.0787 494.675 76.382 494.675 76.774V76.802C494.675 77.1473 494.811 77.4227 495.081 77.628C495.352 77.824 495.697 77.922 496.117 77.922ZM501.716 79V71.608H503.424V72.742C504.04 71.8833 504.81 71.454 505.734 71.454C506.565 71.454 507.209 71.7107 507.666 72.224C508.133 72.728 508.366 73.414 508.366 74.282V79H506.672V74.8C506.672 74.2213 506.532 73.778 506.252 73.47C505.981 73.1527 505.594 72.994 505.09 72.994C504.586 72.994 504.18 73.1573 503.872 73.484C503.573 73.8107 503.424 74.2587 503.424 74.828V79H501.716ZM513.8 79.168C512.717 79.168 511.812 78.8133 511.084 78.104C510.365 77.3853 510.006 76.4613 510.006 75.332V75.304C510.006 74.2213 510.346 73.3113 511.028 72.574C511.709 71.8273 512.572 71.454 513.618 71.454C514.738 71.454 515.606 71.8367 516.222 72.602C516.847 73.358 517.16 74.3007 517.16 75.43C517.16 75.5233 517.15 75.682 517.132 75.906H511.7C511.793 76.5033 512.031 76.9653 512.414 77.292C512.796 77.6187 513.268 77.782 513.828 77.782C514.546 77.782 515.214 77.488 515.83 76.9L516.824 77.782C516.04 78.706 515.032 79.168 513.8 79.168ZM511.686 74.786H515.48C515.424 74.2167 515.232 73.75 514.906 73.386C514.579 73.022 514.145 72.84 513.604 72.84C513.081 72.84 512.647 73.0173 512.302 73.372C511.966 73.7267 511.76 74.198 511.686 74.786Z" fill="#190F19"/>
<path d="M464.089 107.5V99.8H470.26V107.5H469.391V100.603H464.958V107.5H464.089ZM474.889 107.632C474.045 107.632 473.341 107.346 472.777 106.774C472.219 106.195 471.941 105.498 471.941 104.684V104.662C471.941 103.841 472.223 103.14 472.788 102.561C473.352 101.982 474.06 101.692 474.911 101.692C475.754 101.692 476.458 101.982 477.023 102.561C477.587 103.133 477.87 103.826 477.87 104.64V104.662C477.87 105.483 477.584 106.184 477.012 106.763C476.447 107.342 475.739 107.632 474.889 107.632ZM474.911 106.873C475.512 106.873 476.011 106.66 476.407 106.235C476.803 105.81 477.001 105.293 477.001 104.684V104.662C477.001 104.046 476.795 103.522 476.385 103.089C475.981 102.656 475.483 102.44 474.889 102.44C474.287 102.44 473.789 102.656 473.393 103.089C473.004 103.514 472.81 104.031 472.81 104.64V104.662C472.81 105.278 473.011 105.802 473.415 106.235C473.818 106.66 474.317 106.873 474.911 106.873ZM480.7 107.5V102.572H478.423V101.813H483.835V102.572H481.547V107.5H480.7ZM485.087 109.26V101.813H485.934V102.957C486.528 102.114 487.254 101.692 488.112 101.692C488.838 101.692 489.472 101.96 490.015 102.495C490.557 103.03 490.829 103.745 490.829 104.64V104.662C490.829 105.549 490.557 106.264 490.015 106.807C489.472 107.35 488.838 107.621 488.112 107.621C487.21 107.621 486.484 107.218 485.934 106.411V109.26H485.087ZM487.958 106.862C488.53 106.862 489.006 106.664 489.388 106.268C489.769 105.872 489.96 105.34 489.96 104.673V104.651C489.96 103.991 489.765 103.459 489.377 103.056C488.995 102.653 488.522 102.451 487.958 102.451C487.415 102.451 486.935 102.66 486.517 103.078C486.106 103.496 485.901 104.017 485.901 104.64V104.662C485.901 105.3 486.106 105.828 486.517 106.246C486.927 106.657 487.408 106.862 487.958 106.862ZM492.413 100.57V99.635H493.381V100.57H492.413ZM492.468 107.5V101.813H493.315V107.5H492.468ZM497.943 107.632C497.122 107.632 496.454 107.375 495.941 106.862C495.34 106.261 495.039 105.37 495.039 104.189V104.178C495.039 102.719 495.281 101.652 495.765 100.977C496.256 100.295 497.045 99.8623 498.13 99.679L500.022 99.36L500.176 100.141L498.251 100.46C497.459 100.592 496.883 100.86 496.524 101.263C496.172 101.666 495.952 102.297 495.864 103.155C496.377 102.392 497.14 102.011 498.152 102.011C498.966 102.011 499.619 102.268 500.11 102.781C500.601 103.287 500.847 103.932 500.847 104.717V104.728C500.847 105.535 500.576 106.22 500.033 106.785C499.49 107.35 498.794 107.632 497.943 107.632ZM497.954 106.884C498.548 106.884 499.032 106.682 499.406 106.279C499.787 105.868 499.978 105.359 499.978 104.75V104.739C499.978 104.138 499.798 103.65 499.439 103.276C499.087 102.895 498.618 102.704 498.031 102.704C497.408 102.704 496.894 102.895 496.491 103.276C496.095 103.65 495.897 104.13 495.897 104.717V104.728C495.897 105.359 496.095 105.876 496.491 106.279C496.887 106.682 497.375 106.884 497.954 106.884ZM502.392 107.5V101.813H503.239V104.244H506.638V101.813H507.474V107.5H506.638V105.014H503.239V107.5H502.392ZM511.971 107.632C511.127 107.632 510.423 107.346 509.859 106.774C509.301 106.195 509.023 105.498 509.023 104.684V104.662C509.023 103.841 509.305 103.14 509.87 102.561C510.434 101.982 511.142 101.692 511.993 101.692C512.836 101.692 513.54 101.982 514.105 102.561C514.669 103.133 514.952 103.826 514.952 104.64V104.662C514.952 105.483 514.666 106.184 514.094 106.763C513.529 107.342 512.821 107.632 511.971 107.632ZM511.993 106.873C512.594 106.873 513.093 106.66 513.489 106.235C513.885 105.81 514.083 105.293 514.083 104.684V104.662C514.083 104.046 513.877 103.522 513.467 103.089C513.063 102.656 512.565 102.44 511.971 102.44C511.369 102.44 510.871 102.656 510.475 103.089C510.086 103.514 509.892 104.031 509.892 104.64V104.662C509.892 105.278 510.093 105.802 510.497 106.235C510.9 106.66 511.399 106.873 511.993 106.873ZM519.278 106.862L519.718 106.235C520.341 106.675 521.038 106.895 521.808 106.895C522.329 106.895 522.736 106.807 523.029 106.631C523.322 106.455 523.469 106.213 523.469 105.905V105.894C523.469 105.593 523.33 105.366 523.051 105.212C522.772 105.051 522.384 104.97 521.885 104.97H520.609V104.288H521.874C522.329 104.288 522.681 104.204 522.93 104.035C523.187 103.866 523.315 103.635 523.315 103.342V103.331C523.315 103.045 523.187 102.821 522.93 102.66C522.673 102.491 522.314 102.407 521.852 102.407C521.148 102.407 520.462 102.642 519.795 103.111L519.355 102.517C520.103 101.967 520.943 101.692 521.874 101.692C522.585 101.692 523.146 101.839 523.557 102.132C523.968 102.418 524.173 102.796 524.173 103.265V103.276C524.173 103.929 523.792 104.369 523.029 104.596C523.403 104.669 523.711 104.823 523.953 105.058C524.202 105.293 524.327 105.59 524.327 105.949V105.96C524.327 106.437 524.103 106.836 523.656 107.159C523.209 107.474 522.593 107.632 521.808 107.632C520.825 107.632 519.982 107.375 519.278 106.862ZM527.579 107.621C527.007 107.621 526.509 107.467 526.083 107.159C525.665 106.844 525.456 106.407 525.456 105.85V105.828C525.456 105.249 525.676 104.798 526.116 104.475C526.564 104.152 527.154 103.991 527.887 103.991C528.467 103.991 529.05 104.072 529.636 104.233V104.035C529.636 103.529 529.49 103.144 529.196 102.88C528.903 102.616 528.485 102.484 527.942 102.484C527.37 102.484 526.795 102.623 526.215 102.902L525.962 102.209C526.63 101.894 527.319 101.736 528.03 101.736C528.837 101.736 529.449 101.945 529.867 102.363C530.256 102.752 530.45 103.305 530.45 104.024V107.5H529.636V106.642C529.138 107.295 528.452 107.621 527.579 107.621ZM527.744 106.95C528.28 106.95 528.731 106.807 529.097 106.521C529.464 106.228 529.647 105.857 529.647 105.41V104.86C529.075 104.699 528.518 104.618 527.975 104.618C527.447 104.618 527.037 104.724 526.743 104.937C526.457 105.15 526.314 105.436 526.314 105.795V105.817C526.314 106.162 526.454 106.437 526.732 106.642C527.011 106.847 527.348 106.95 527.744 106.95ZM532.256 107.5V101.813H533.147L535.303 105.003L537.448 101.813H538.328V107.5H537.481V103.133L535.303 106.29H535.27L533.092 103.144V107.5H532.256ZM542.822 107.632C541.979 107.632 541.275 107.346 540.71 106.774C540.153 106.195 539.874 105.498 539.874 104.684V104.662C539.874 103.841 540.157 103.14 540.721 102.561C541.286 101.982 541.994 101.692 542.844 101.692C543.688 101.692 544.392 101.982 544.956 102.561C545.521 103.133 545.803 103.826 545.803 104.64V104.662C545.803 105.483 545.517 106.184 544.945 106.763C544.381 107.342 543.673 107.632 542.822 107.632ZM542.844 106.873C543.446 106.873 543.944 106.66 544.34 106.235C544.736 105.81 544.934 105.293 544.934 104.684V104.662C544.934 104.046 544.729 103.522 544.318 103.089C543.915 102.656 543.416 102.44 542.822 102.44C542.221 102.44 541.722 102.656 541.326 103.089C540.938 103.514 540.743 104.031 540.743 104.64V104.662C540.743 105.278 540.945 105.802 541.348 106.235C541.752 106.66 542.25 106.873 542.844 106.873ZM547.338 107.5V101.813H550.209C550.803 101.813 551.272 101.941 551.617 102.198C551.961 102.455 552.134 102.814 552.134 103.276V103.287C552.134 103.918 551.793 104.35 551.111 104.585C551.939 104.82 552.354 105.278 552.354 105.96V105.971C552.354 106.455 552.163 106.833 551.782 107.104C551.4 107.375 550.876 107.507 550.209 107.5H547.338ZM548.174 104.299H550.033C550.436 104.299 550.744 104.215 550.957 104.046C551.169 103.877 551.276 103.646 551.276 103.353V103.342C551.276 103.078 551.173 102.869 550.968 102.715C550.77 102.561 550.484 102.488 550.11 102.495H548.174V104.299ZM548.174 104.959V106.818H550.187C550.605 106.818 550.927 106.737 551.155 106.576C551.389 106.415 551.507 106.198 551.507 105.927V105.916C551.507 105.615 551.386 105.381 551.144 105.212C550.902 105.036 550.553 104.952 550.099 104.959H548.174ZM553.901 107.5V101.813H554.748V106.224L558.202 101.813H559.016V107.5H558.18V103.078L554.693 107.5H553.901ZM562.566 107.5V102.572H560.289V101.813H565.701V102.572H563.413V107.5H562.566ZM566.953 107.5V101.813H567.8V106.224L571.254 101.813H572.068V107.5H571.232V103.078L567.745 107.5H566.953Z" fill="#CA8B02"/>
<g clip-path="url(#clip7_76_2982)">
<rect x="599" y="92" width="24" height="24" rx="4" fill="#F6EEF7"/>
<path d="M610.989 109.18C610.309 109.18 609.649 109.025 609.009 108.715C608.369 108.405 607.804 107.995 607.314 107.485L607.869 106.93C608.899 107.96 609.949 108.475 611.019 108.475C611.839 108.475 612.514 108.225 613.044 107.725C613.574 107.215 613.839 106.585 613.839 105.835V105.805C613.839 105.085 613.569 104.49 613.029 104.02C612.489 103.55 611.799 103.315 610.959 103.315C610.189 103.315 609.399 103.535 608.589 103.975L607.989 103.585L608.289 98.5H614.184V99.25H608.979L608.724 103.18C609.464 102.8 610.239 102.61 611.049 102.61C612.079 102.61 612.934 102.905 613.614 103.495C614.304 104.085 614.649 104.845 614.649 105.775V105.805C614.649 106.785 614.304 107.595 613.614 108.235C612.924 108.865 612.049 109.18 610.989 109.18Z" fill="#190F19"/>
</g>
<rect x="453.5" y="55.5" width="179" height="70" rx="7.5" stroke="#CA8B02"/>
<defs>
<clipPath id="clip0_76_2982">
<rect x="188" y="274" width="24" height="24" rx="4" fill="white"/>
</clipPath>
<clipPath id="clip1_76_2982">
<rect x="380" y="514" width="24" height="24" rx="4" fill="white"/>
</clipPath>
<clipPath id="clip2_76_2982">
<rect x="240" y="131" width="24" height="24" rx="4" fill="white"/>
</clipPath>
<clipPath id="clip3_76_2982">
<rect x="616" y="440" width="24" height="24" rx="4" fill="white"/>
</clipPath>
<clipPath id="clip4_76_2982">
<rect x="550" y="243" width="24" height="24" rx="4" fill="white"/>
</clipPath>
<clipPath id="clip5_76_2982">
<rect x="278" y="424" width="24" height="24" rx="4" fill="white"/>
</clipPath>
<clipPath id="clip6_76_2982">
<rect x="480" y="349" width="24" height="24" rx="4" fill="white"/>
</clipPath>
<clipPath id="clip7_76_2982">
<rect x="599" y="92" width="24" height="24" rx="4" fill="white"/>
</clipPath>
</defs>
</svg>
