<svg width="750" height="570" viewBox="0 0 750 570" fill="none" xmlns="http://www.w3.org/2000/svg">
<path opacity="0.3" d="M105.5 163L235.5 299M105.5 163L241 173M105.5 163L303 47M105.5 163L67 327.5M105.5 163L610.933 89M235.5 299L114.5 474M235.5 299L426.75 189.5M235.5 299L415 372M235.5 299L241 173M235.5 299L67 327.5M235.5 299L426.75 543.5M235.5 299L420.224 290.854M114.5 474L426.75 543.5M114.5 474L415 372M114.5 474L67 327.5M426.75 543.5L562.5 504.5M426.75 543.5L415 372M426.75 543.5L67 327.5M629.5 429.5L415 372M629.5 429.5L562.5 504.5M629.5 429.5L680 363.5M629.5 429.5L610.933 365.715M426.75 189.5L587 283.5M426.75 189.5L610.933 89M426.75 189.5L241 173M426.75 189.5L303 47M426.75 189.5L420.224 290.854M587 283.5L610.933 89M587 283.5L716.5 186M587 283.5L415 372M587 283.5L680 363.5M587 283.5L420.224 290.854M587 283.5L610.933 365.715M716.5 186L610.933 89M716.5 186L680 363.5M716.5 186L610.933 365.715M610.933 89L303 47M415 372L562.5 504.5M415 372L420.224 290.854M415 372L610.933 365.715M241 173L303 47M241 173L67 327.5M241 173L420.224 290.854M680 363.5L610.933 365.715M420.224 290.854L610.933 365.715" stroke="#FBF9FB" stroke-linecap="round" stroke-linejoin="round" stroke-dasharray="15 15"/>
<rect x="639" y="97" width="375" height="530" rx="20" transform="rotate(90 639 97)" fill="#FBF9FB"/>
<rect x="234" y="277" width="280" height="35" fill="#F6EEF7"/>
<rect x="234" y="317" width="280" height="10" fill="#F6EEF7"/>
<rect x="234" y="332" width="280" height="10" fill="#F6EEF7"/>
<rect x="234" y="347" width="280" height="10" fill="#F6EEF7"/>
<rect x="234" y="362" width="280" height="10" fill="#F6EEF7"/>
<rect x="234" y="382" width="130" height="35" rx="8" fill="#F6EEF7"/>
<rect x="384" y="382" width="130" height="35" rx="8" fill="#F6EEF7"/>
<path d="M412.799 190.086C412.22 189.503 411.53 189.04 410.771 188.725C410.012 188.41 409.197 188.248 408.375 188.25H395.875V185.125C395.875 179.323 393.57 173.759 389.468 169.657C385.366 165.555 379.802 163.25 374 163.25C368.198 163.25 362.634 165.555 358.532 169.657C354.43 173.759 352.125 179.323 352.125 185.125V188.25H339.625C337.967 188.25 336.378 188.908 335.206 190.081C334.033 191.253 333.375 192.842 333.375 194.5V236.688C333.375 244.305 339.82 250.75 347.438 250.75H400.562C404.247 250.751 407.786 249.311 410.422 246.736C411.748 245.471 412.805 243.949 413.527 242.264C414.25 240.579 414.623 238.765 414.625 236.932V194.5C414.628 193.68 414.467 192.868 414.154 192.11C413.841 191.352 413.38 190.664 412.799 190.086ZM388.939 210.516L371.439 232.391C371.152 232.75 370.789 233.041 370.376 233.243C369.963 233.446 369.511 233.555 369.051 233.562H369C368.549 233.563 368.103 233.465 367.693 233.276C367.283 233.087 366.918 232.812 366.625 232.469L359.125 223.703C358.858 223.391 358.656 223.03 358.528 222.64C358.401 222.249 358.352 221.838 358.384 221.429C358.416 221.02 358.528 220.621 358.714 220.255C358.901 219.889 359.157 219.564 359.469 219.297C359.781 219.03 360.142 218.827 360.532 218.7C360.922 218.573 361.334 218.524 361.743 218.556C362.152 218.588 362.551 218.7 362.917 218.886C363.283 219.072 363.608 219.329 363.875 219.641L368.922 225.537L384.061 206.609C384.579 205.962 385.333 205.547 386.157 205.455C386.981 205.364 387.808 205.603 388.455 206.121C389.103 206.639 389.518 207.393 389.609 208.217C389.701 209.041 389.461 209.868 388.943 210.516H388.939ZM389.625 188.25H358.375V185.125C358.375 180.981 360.021 177.007 362.951 174.076C365.882 171.146 369.856 169.5 374 169.5C378.144 169.5 382.118 171.146 385.049 174.076C387.979 177.007 389.625 180.981 389.625 185.125V188.25Z" fill="#F6EEF7"/>
<rect x="616" y="295" width="100" height="100" rx="16" fill="#F6EEF7"/>
<path d="M672.475 342.5H681V337.5H676.8C677.85 335.85 678.5 334.2 678.5 332.5C678.5 325.925 672.25 322.5 666 322.5C660.125 322.5 654.825 327.65 654.225 328.225L657.775 331.775C658.975 330.575 662.775 327.5 666 327.5C668.6 327.5 673.5 328.55 673.5 332.5C673.5 333.75 672.25 335.6 670.4 337.5H651V342.5H665.075C664.025 343.4 660.375 346.675 659.525 347.5H651V352.5H655.2C654.15 354.15 653.5 355.8 653.5 357.5C653.5 364.075 659.75 367.5 666 367.5C671.875 367.5 677.175 362.35 677.775 361.775L674.225 358.225C673.05 359.425 669.225 362.5 666 362.5C663.4 362.5 658.5 361.45 658.5 357.5C658.5 356.25 659.75 354.4 661.6 352.5H681V347.5H666.95L672.475 342.5Z" fill="#190F19"/>
<rect x="189" y="365" width="100" height="100" rx="16" fill="#F6EEF7"/>
<path d="M252.612 406.553C251.216 406.049 249.742 405.794 248.257 405.801C243.463 405.801 240.074 408.224 240.054 411.691C240.014 414.239 242.456 415.675 244.301 416.534C246.196 417.413 246.83 417.961 246.821 418.741C246.811 419.943 245.306 420.479 243.92 420.479C241.994 420.479 240.95 420.216 239.339 419.541L238.741 419.258L238.059 423.263C239.231 423.741 241.331 424.161 243.498 424.201C248.606 424.201 251.936 421.799 251.973 418.096C252.013 416.065 250.706 414.524 247.921 413.253C246.241 412.433 245.189 411.875 245.189 411.035C245.189 410.292 246.088 409.512 247.963 409.512C249.207 409.481 250.444 409.71 251.594 410.185L252.054 410.39L252.727 406.533L252.612 406.553ZM265.076 406.133H261.326C260.154 406.133 259.284 406.446 258.766 407.609L251.559 423.946H256.657L257.684 421.27L263.904 421.28C264.059 421.904 264.498 423.944 264.498 423.944H269L265.076 406.133ZM233.15 405.987H238.004L234.967 423.807H230.113L233.15 405.978V405.987ZM220.807 415.801L221.304 418.281L226.059 406.133H231.206L223.548 423.916H218.424L214.224 408.858C214.192 408.733 214.134 408.615 214.055 408.513C213.976 408.411 213.877 408.326 213.764 408.263C212.256 407.479 210.655 406.885 209 406.495L209.058 406.122H216.89C217.946 406.161 218.804 406.495 219.097 407.628L220.807 415.81V415.801ZM259.068 417.627L261.013 412.638C260.982 412.685 261.412 411.612 261.656 410.937L261.987 412.469L263.113 417.616H259.068V417.627Z" fill="#190F19"/>
<rect x="257" y="11" width="100" height="100" rx="16" fill="#F6EEF7"/>
<path d="M297.625 83.5C299.696 83.5 301.375 81.8211 301.375 79.75C301.375 77.6789 299.696 76 297.625 76C295.554 76 293.875 77.6789 293.875 79.75C293.875 81.8211 295.554 83.5 297.625 83.5Z" fill="#190F19"/>
<path d="M323.875 83.5C325.946 83.5 327.625 81.8211 327.625 79.75C327.625 77.6789 325.946 76 323.875 76C321.804 76 320.125 77.6789 320.125 79.75C320.125 81.8211 321.804 83.5 323.875 83.5Z" fill="#190F19"/>
<path d="M330.531 45.1539C330.268 44.8317 329.936 44.5722 329.56 44.3942C329.184 44.2162 328.772 44.1243 328.356 44.125H292.69L291.972 40.0492C291.895 39.6151 291.668 39.2218 291.33 38.9385C290.993 38.6552 290.566 38.4999 290.125 38.5H282.625C282.128 38.5 281.651 38.6975 281.299 39.0492C280.948 39.4008 280.75 39.8777 280.75 40.375C280.75 40.8723 280.948 41.3492 281.299 41.7008C281.651 42.0525 282.128 42.25 282.625 42.25H288.552L293.903 72.5758C293.98 73.0099 294.207 73.4032 294.545 73.6865C294.882 73.9698 295.309 74.1251 295.75 74.125H325.75C326.247 74.125 326.724 73.9275 327.076 73.5758C327.427 73.2242 327.625 72.7473 327.625 72.25C327.625 71.7527 327.427 71.2758 327.076 70.9242C326.724 70.5725 326.247 70.375 325.75 70.375H297.323L296.662 66.625H324.981C325.631 66.6242 326.261 66.3987 326.765 65.9868C327.268 65.5749 327.613 65.0017 327.742 64.3645L331.117 47.4895C331.199 47.0811 331.188 46.6597 331.087 46.2558C330.985 45.8519 330.796 45.4755 330.531 45.1539Z" fill="#190F19"/>
<rect x="543" y="47" width="100" height="100" rx="16" fill="#F6EEF7"/>
<path d="M625.5 85.75H623.797C623.008 85.2841 622.169 84.9078 621.297 84.6281C618.547 83.7188 614.916 83.25 610.5 83.25C606.084 83.25 602.453 83.7188 599.709 84.6281C597.513 85.3609 596.545 86.1688 596.233 86.4828C595.224 86.0004 594.12 85.75 593.002 85.75C591.883 85.75 590.779 86.0004 589.77 86.4828C589.458 86.1703 588.491 85.3609 586.294 84.6281C583.547 83.7188 579.916 83.25 575.5 83.25C571.084 83.25 567.453 83.7188 564.709 84.6281C563.837 84.9078 562.998 85.2841 562.209 85.75H560.5C559.837 85.75 559.201 86.0134 558.732 86.4822C558.263 86.9511 558 87.587 558 88.25C558 88.913 558.263 89.5489 558.732 90.0178C559.201 90.4866 559.837 90.75 560.5 90.75H560.527C560.683 97.8531 561.533 102.122 563.356 105.161C564.499 107.123 566.25 108.659 568.344 109.536C570.255 110.355 572.597 110.753 575.5 110.753C579.273 110.753 584.638 110.173 587.644 105.164C589.156 102.642 590.002 99.275 590.333 94.1453C590.443 93.8596 590.5 93.5562 590.5 93.25C590.5 92.587 590.763 91.9511 591.232 91.4822C591.701 91.0134 592.337 90.75 593 90.75C593.663 90.75 594.299 91.0134 594.768 91.4822C595.237 91.9511 595.5 92.587 595.5 93.25C595.501 93.5551 595.557 93.8575 595.667 94.1422C595.998 99.2719 596.844 102.639 598.356 105.161C599.499 107.123 601.25 108.659 603.344 109.536C605.255 110.355 607.597 110.753 610.5 110.753C614.273 110.753 619.638 110.173 622.644 105.164C624.467 102.125 625.32 97.8563 625.473 90.7531H625.5C626.163 90.7531 626.799 90.4897 627.268 90.0209C627.737 89.5521 628 88.9162 628 88.2531C628 87.5901 627.737 86.9542 627.268 86.4854C626.799 86.0165 626.163 85.7531 625.5 85.7531V85.75Z" fill="#190F19"/>
<rect x="43" y="265" width="100" height="100" rx="16" fill="#F6EEF7"/>
<path d="M114.094 350C111.044 350 106.759 348.897 100.344 345.313C92.5422 340.938 86.5079 336.898 78.7485 329.159C71.2672 321.683 67.6266 316.842 62.5313 307.57C56.775 297.102 57.7563 291.614 58.8532 289.269C60.1594 286.466 62.0875 284.789 64.5797 283.125C65.9953 282.198 67.4933 281.403 69.0547 280.75C69.211 280.683 69.3563 280.619 69.486 280.561C70.2594 280.213 71.4313 279.686 72.9157 280.248C73.9063 280.62 74.7907 281.381 76.175 282.748C79.0141 285.548 82.8938 291.784 84.325 294.847C85.286 296.911 85.9219 298.273 85.9235 299.802C85.9235 301.591 85.0235 302.97 83.9313 304.459C83.7266 304.739 83.5235 305.006 83.3266 305.266C82.1375 306.828 81.8766 307.28 82.0485 308.086C82.3969 309.706 84.9954 314.53 89.2657 318.791C93.536 323.052 98.2204 325.486 99.8469 325.833C100.688 326.013 101.148 325.741 102.761 324.509C102.992 324.333 103.23 324.15 103.478 323.967C105.144 322.728 106.459 321.852 108.206 321.852H108.216C109.736 321.852 111.038 322.511 113.194 323.598C116.006 325.017 122.43 328.847 125.247 331.689C126.617 333.07 127.381 333.952 127.755 334.941C128.317 336.43 127.788 337.597 127.442 338.378C127.384 338.508 127.32 338.65 127.253 338.808C126.595 340.367 125.796 341.861 124.864 343.273C123.203 345.758 121.52 347.681 118.711 348.989C117.268 349.671 115.69 350.017 114.094 350Z" fill="#190F19"/>
<rect x="374" y="441" width="110" height="110" rx="16" fill="#F6EEF7"/>
<path d="M409.312 532.562C408.567 532.562 407.851 532.266 407.324 531.739C406.796 531.211 406.5 530.496 406.5 529.75V518.5H402.281C398.926 518.496 395.709 517.162 393.336 514.789C390.963 512.416 389.629 509.199 389.625 505.844V472.094C389.629 468.738 390.963 465.521 393.336 463.149C395.709 460.776 398.926 459.441 402.281 459.438H455.719C459.074 459.441 462.291 460.776 464.664 463.149C467.037 465.521 468.371 468.738 468.375 472.094V505.844C468.371 509.199 467.037 512.416 464.664 514.789C462.291 517.162 459.074 518.496 455.719 518.5H427.196L411.114 531.91C410.608 532.331 409.971 532.562 409.312 532.562Z" fill="#190F19"/>
</svg>
